<svg width="134" height="120" viewBox="0 0 134 120" fill="none" xmlns="http://www.w3.org/2000/svg">
<path d="M97.9545 110.564L70.3119 110.928L22.9865 111.551C17.2162 111.627 13.9523 104.966 17.5504 100.457C19.1827 98.4112 19.5032 95.6136 18.3756 93.2525L15.2461 86.6997C10.214 76.1631 16.1265 63.6648 27.4677 60.8635L27.9555 60.7432C36.4634 58.6417 42.4008 50.9594 42.2855 42.2018L42.2306 38.0332C42.0825 26.7898 49.7356 16.9385 60.6716 14.295L68.2833 12.4552C81.7328 9.20426 94.9363 18.6391 96.2082 32.4094L96.4205 34.7082C96.8488 39.3449 99.138 43.6102 102.766 46.532L113.831 55.443C116.149 57.3092 116.276 60.7931 114.102 62.8239C111.881 64.8971 112.069 68.4705 114.494 70.2997L120.802 75.0582C125.66 78.7229 126.834 85.5292 123.483 90.6072L117.287 99.9962C112.993 106.503 105.753 110.461 97.9545 110.564ZM101.605 9.037L100.419 12.1987C100.347 12.3911 100.388 12.6052 100.526 12.7538L102.282 14.6442C102.66 15.0509 102.241 15.7013 101.705 15.5406L99.1667 14.7801C98.9813 14.7246 98.7783 14.7707 98.6326 14.9014L96.4552 16.8544C96.0458 17.2215 95.4151 16.8461 95.5581 16.3205L96.3494 13.4111C96.3959 13.2402 96.3567 13.0593 96.2442 12.9251L94.7084 11.0932C94.3624 10.6805 94.7777 10.064 95.2994 10.2159L97.5646 10.8751C97.7465 10.928 97.9449 10.8835 98.0891 10.7573L100.729 8.44946C101.16 8.07202 101.804 8.50405 101.605 9.037ZM110.437 28.2583L110.35 30.1405C110.344 30.255 110.403 30.3616 110.502 30.4168L111.758 31.1195C112.029 31.2706 111.918 31.6878 111.606 31.6944L110.127 31.7259C110.019 31.7282 109.919 31.7875 109.865 31.8819L109.043 33.2923C108.889 33.5574 108.49 33.4662 108.475 33.1626L108.397 31.482C108.392 31.3834 108.34 31.294 108.257 31.242L107.128 30.5326C106.873 30.3729 106.988 29.9743 107.291 29.9655L108.607 29.9271C108.713 29.924 108.81 29.8663 108.865 29.7746L109.871 28.0966C110.036 27.8221 110.452 27.9411 110.437 28.2583ZM12.5397 47.1384L11.6096 48.7772C11.5533 48.877 11.557 48.9985 11.6205 49.0925L12.4228 50.2877C12.5956 50.5449 12.3077 50.8667 12.0265 50.7311L10.6937 50.0903C10.5966 50.0433 10.4807 50.0512 10.3892 50.1104L9.01812 50.9964C8.76078 51.1627 8.44573 50.901 8.57078 50.6238L9.26099 49.0893C9.30172 48.9994 9.2957 48.8962 9.24549 48.8126L8.5594 47.6688C8.40486 47.4109 8.68748 47.1074 8.96183 47.2367L10.1525 47.7981C10.248 47.8434 10.3613 47.836 10.452 47.7789L12.1081 46.7381C12.3789 46.5677 12.6965 46.862 12.5397 47.1384Z" fill="#7210FF" fill-opacity="0.1"/>
</svg>
