<?xml version="1.0" encoding="utf-8"?>
<!-- Generator: Adobe Illustrator 25.0.1, SVG Export Plug-In . SVG Version: 6.00 Build 0)  -->
<svg version="1.1" id="Layer_1" xmlns="http://www.w3.org/2000/svg" xmlns:xlink="http://www.w3.org/1999/xlink" x="0px" y="0px"
	 viewBox="0 0 512 512" enable-background="new 0 0 512 512" xml:space="preserve">
<g>
	<path fill="#0B8A9B" d="M454.09,349.67c-0.82-6.09-2.82-11.5-5.93-16.67c-5.84-9.73-14.42-17.08-21.87-25.42
		c-2.99-3.34-6.04-6.63-8.98-10.02c-0.84-0.96-1.38-2.18-2.16-3.45c3.71-0.31,6.87-0.51,10.02-0.86c1.93-0.22,2.48-1.54,1.33-2.97
		c-1.32-1.64-2.85-3.23-4.59-4.37c-7.83-5.1-15.76-10.03-23.66-15.01c-2.16-1.36-3.05-1.22-3.4,1.23
		c-0.62,4.36-0.72,8.79-1.08,13.18c-0.09,1.15-0.23,2.3-0.49,3.42c-0.78,3.33,0.03,6.16,2.28,6.45c1.94,0.25,2.47,1.46,3.1,2.8
		c0.94,2,1.65,4.12,2.74,6.04c4.58,8.05,9.96,15.57,16.13,22.47c4.77,5.33,10.07,10.2,14.86,15.51c4.44,4.92,8.57,10.12,12.74,15.27
		c1.08,1.33,1.71,2.89-0.01,4.41c-2.78,2.46-5.27,5.3-8.26,7.45c-8.2,5.89-16.99,10.68-26.79,13.5c-7.73,2.22-15.57,3.18-23.43,1.72
		c-11.22-2.08-21.53-6.79-31.55-12.12c-0.67-0.36-1.16-1.06-1.85-1.72c4.47-2.49,8.61-4.84,12.79-7.11
		c4.22-2.29,8.47-4.54,12.74-6.74c2.67-1.38,5.61-2.47,5.17-6.76c0-0.01-0.01-0.01-0.01-0.02c0-0.01,0-0.02,0-0.02
		c-0.01-0.07-0.01-0.12-0.02-0.19c0.01,0.01,0.03,0.01,0.04,0.02c0.02-0.1,0.05-0.19,0.1-0.29c0.11-0.23,0.24-0.42,0.39-0.62
		c0.06-0.09,0.13-0.17,0.2-0.26c0.16-0.24,0.33-0.48,0.54-0.7c0.13-0.14,0.21-0.48,0.35-0.6c0.03-0.41,0.14-0.63,0.27-1.06
		c1.07-3.63,1.97-7.32,3.39-10.81c0.98-2.42-0.29-3.96-1.82-4.54c-5.76-2.17-11.61-4.19-17.56-5.74c-4.85-1.26-9.89-1.86-14.87-2.59
		c-4.34-0.64-8.73-1.59-13.06-1.44c-6.54,0.21-13.14,0.77-19.54,2.07c-7.79,1.59-15.5,3.77-23.03,6.34
		c-6.39,2.18-12.48,5.23-18.68,7.97c-3.84,1.7-7.23,3.85-7.17,8.79c0,0.38-0.34,0.75-0.48,1.13c-1.97,5.45-3.94,10.9-6.2,17.17
		c2.02-0.32,3.21-0.33,4.27-0.72c2.9-1.07,5.71-2.39,8.62-3.44c3.93-1.42,7.95-1.74,11.88,0.01c5.25,2.35,10.51,4.7,15.64,7.29
		c2.52,1.27,4.77,3.09,7.68,5.01c-10.47,6.78-19.72,14.13-31.1,17.7c-4.71,1.48-9.62,1.41-13.62-1.91c-3.49-2.9-6.87-6.09-9.68-9.64
		c-8.54-10.8-13.34-23.47-17.09-36.54c-2.63-9.16-4.64-18.49-7.28-27.64c-2.43-8.44-5.18-16.79-8.03-25.09
		c-3.04-8.86-6.15-17.71-9.64-26.39c-3.75-9.32-7.86-18.5-12.05-27.64c-3.58-7.82-7.41-15.52-11.31-23.18
		c-1.19-2.33-2.89-4.44-4.59-6.46c-0.47-0.55-1.86-0.66-2.68-0.44c-0.52,0.14-1.05,1.24-1.11,1.96c-0.27,2.99-0.28,6.01-0.55,9.01
		c-0.23,2.55-0.82,5.08-0.97,7.63c-0.11,1.72-0.11,3.61,0.48,5.19c3.58,9.48,7.23,18.94,11.09,28.31
		c5.43,13.2,10.94,26.37,16.64,39.45c4.95,11.36,8.61,23.13,11.67,35.1c0.14,0.56-0.05,1.3-0.31,1.84
		c-1.89,3.95-3.64,7.98-5.82,11.77c-5.31,9.26-12.03,17.49-19.22,25.32c-3.03,3.3-6.32,6.36-9.44,9.58
		c-0.41,0.43-0.79,1.22-0.7,1.76c1.02,5.93,2.11,11.85,3.23,17.76c0.29,1.51,0.76,2.98,1.15,4.47c0.29,0.09,0.58,0.18,0.86,0.26
		c6.63-7.54,13.5-14.88,19.82-22.67c6.65-8.2,11.81-17.31,13.77-27.91c0.27-1.44,0.61-2.86,0.92-4.3c1.36,2.35,2.07,4.75,2.91,7.11
		c2.39,6.67,4.62,13.4,7.3,19.96c4.03,9.87,8.12,19.74,15.53,27.75c4.57,4.94,10.23,7.72,16.84,8.38
		c7.67,0.76,14.97-1.27,21.57-4.84c7.89-4.28,15.39-9.31,22.97-14.15c4.8-3.06,9.45-6.38,14.18-9.55c0.87-0.58,1.51-0.92,2.81-0.16
		c8.34,4.87,16.72,9.7,25.27,14.17c10.97,5.73,22.17,10.71,34.76,12.14c6.55,0.75,12.58-0.41,18.37-2.74
		c4.88-1.96,9.41-4.85,13.93-7.61c8.89-5.43,16.3-12.54,21.54-21.53C452.47,369.93,455.54,360.39,454.09,349.67z M334.8,359.19
		c-4.81-3.61-9.56-7.3-14.89-11.42c12.58-4.16,24.5-4.06,36.81-1.09c-6.94,4.22-13.53,8.25-20.15,12.23
		C336.08,359.2,335.14,359.44,334.8,359.19z"/>
	<path fill="#0B8A9B" d="M450.04,223.07c0.02-0.01,0.04-0.02,0.06-0.02c-0.08-0.17-0.14-0.34-0.21-0.52
		c-1.37-0.36-2.68-1.04-3.81-1.85c-9.19-1.46-18.02-2.86-26.92-4.28c0,0.47-0.04,1.23,0.01,1.98c0.32,5.49,0.75,10.98,0.96,16.48
		c0.13,3.55,1.82,5.58,5.3,6.12c5.06,0.78,10.1,1.7,15.14,2.53c2.28,0.38,4.57,0.82,6.87,1c1.09,0.08,2.53,0.65,3.06-1.28
		c1.18-4.36,2.2-8.69,1.01-13.24C450.91,227.71,450.52,225.37,450.04,223.07z"/>
	<path fill="#0B8A9B" d="M447.77,156.41c-1.92-13.13-10.32-21.96-21.13-28.71c-5.32-3.32-10.92-6.2-16.27-9.48
		c-4.36-2.67-8.54-5.63-12.77-8.5c-0.39-0.26-0.59-0.81-0.88-1.22c0.4-0.2,0.79-0.47,1.21-0.57c2.23-0.57,4.51-0.99,6.69-1.69
		c0.74-0.24,1.72-1.15,1.75-1.79c0.03-0.76-0.66-1.89-1.36-2.28c-1.99-1.13-4.06-2.22-6.24-2.87c-7.73-2.3-15.5-4.42-23.27-6.57
		c-2.76-0.76-3.57-0.17-3.01,2.59c1.16,5.67,2.61,11.27,3.84,16.92c0.25,1.13,1.31,1.9,2.46,1.75c1.5-0.19,2.45,0.62,3.36,1.74
		c4.88,5.97,10.73,10.89,16.89,15.46c2.02,1.49,4.1,2.88,5.76,4.02c2.07,0.64,3.46,2.16,5.24,3.43c1.22,0.87,3.21,1.17,4.59,2.31
		c0.04-0.15-0.04,0.15,0,0c2.62,1.49,5.6,3.04,8.43,4.82c4.55,2.85,9,5.85,13.49,8.78c4.27,2.79,4.72,5.52,1.35,9.42
		c-3.43,3.97-6.73,8.09-10.52,11.69c-7.98,7.59-16.99,13.7-27.94,16.06c-2.9,0.63-6.24,0.23-9.17-0.52
		c-5.85-1.49-11.01-4.58-16-8.28c0.16-0.1-0.16,0.1,0,0c-0.58-0.47-1.39-1.09-2.09-1.86c-0.43-0.48-0.93-0.87-1.46-1.22
		c-0.24-0.16-0.48-0.39-0.74-0.67c-2.64-2.85-5.34-5.63-7.96-8.49c-7.56-8.26-12.42-18.3-18.26-27.7
		c-3.62-5.83-7.36-11.57-11.08-17.33c-2.34-3.63-4.75-7.22-7.12-10.84l-1.92-3.17c-4.46-5.71-8.8-11.35-13.23-16.9
		c-3.78-4.73-7.64-9.4-11.53-14.05c-3.78-4.54-7.58-9.06-11.48-13.5c-2.54-2.89-5.21-5.68-7.93-8.42c-2.45-2.46-4.95-4.89-7.62-7.1
		c-0.85-0.7-2.3-0.68-3.47-0.99c-0.17,1.16-0.35,2.33-0.49,3.5c-0.02,0.14,0.17,0.29,0.19,0.45c0.59,3.47,1.05,6.97,1.8,10.41
		c0.58,2.69,0.89,5.75,2.41,7.87c4.44,6.18,9.43,11.98,14.21,17.92c6.26,7.8,12.51,15.62,18.79,23.4c3.86,4.78,8.09,9.29,11.62,14.3
		c5.36,7.61,10.26,15.54,15.3,23.38c0.45,0.7,0.72,1.77,0.56,2.56c-0.72,3.55-1.41,7.12-2.52,10.56c-1.46,4.54-3.23,8.98-5,13.41
		c-4.26,10.68-10.31,20.36-17.05,29.6c-4.39,6.02-8.97,11.91-13.67,17.68c-2.12,2.6-4.73,4.8-7.12,7.18
		c-0.25-0.14-0.22-0.12-0.46-0.26c0.54-2.12,1.08-4.24,1.69-6.61c-1.04,0.33-1.6,0.47-2.14,0.69c-5.89,2.42-11.83,4.74-17.66,7.32
		c-8.31,3.68-16.55,7.52-24.78,11.38c-0.85,0.4-1.76,1.3-2.03,2.16c-0.71,2.24-1.08,4.59-1.65,7.18
		c14.51-7.67,29.29-13.99,44.39-19.68c-0.8,1.21-1.82,2.01-2.84,2.81c-6.5,5.14-12.73,10.67-19.57,15.31
		c-7.62,5.16-16.07,6.77-24.95,2.79c-0.58-0.26-1.62-0.09-2.18,0.27c-2.62,1.71-5.15,3.56-7.79,5.42c2.31,5.02,5.46,9.64,9.53,13.56
		c5.14,4.96,11.48,7.24,18.48,6.26c7.62-1.07,14.51-4.43,20.85-8.74c9.36-6.37,17.74-13.87,24.74-22.79
		c6.26-7.99,12.47-16.04,18.37-24.3c7.39-10.35,13.3-21.57,18-33.38c2.05-5.14,3.68-10.46,3.34-16.18
		c-0.19-3.14-0.03-6.31-0.03-10.15c1.08,1.3,1.7,1.94,2.2,2.67c0.51,0.75,0.82,1.64,1.36,2.36c6.82,9.06,13.18,18.45,21.02,26.75
		c6.64,7.02,14.1,12.41,23.4,15.11c5.9,1.71,11.89,2.4,18.02,1.24c5.71-1.08,10.77-3.51,15.31-7.1
		c6.91-5.47,12.92-11.79,17.69-19.21c1.54-2.39,2.91-4.91,4.5-7.7c0.16-0.58,0.37-1.15,0.63-1.71c-0.04,0.01-0.08,0.01-0.13,0.02
		c0.5-1.77,0.82-3.39,1.41-4.9C448.29,167.94,448.6,162.04,447.77,156.41z"/>
	<path fill="#0B8A9B" d="M195.45,301.83c-1.11-5.5-3.37-10.65-7.54-14.84c-4.45-4.48-9.82-7.27-15.48-9.71
		c-8.86-3.82-17.67-7.79-26.59-11.48c-11.74-4.85-22.85-10.75-32.84-18.67c-1.25-0.99-2.45-2.05-4.02-3.38
		c3.05-0.29,5.46-0.39,7.83-0.78c1.76-0.29,3.52-0.82,5.16-1.53c1.35-0.59,1.44-2.52,0.21-3.25c-2.19-1.3-4.44-2.51-6.74-3.61
		c-2.53-1.2-5.13-2.26-7.71-3.34c-7-2.93-13.98-5.89-21.03-8.68c-0.65-0.26-2.44,0.5-2.5,0.95c-0.24,1.72,0,3.5,0.09,5.26
		c0.06,1.05,0.17,2.09,0.28,3.29c-0.03-0.03-0.07-0.05-0.1-0.08c0.06,0.52,0.01,1.04-0.16,1.51c0.23,1.9,0.01,3.87,0.09,5.77
		c0.08,1.88,0.19,3.75,0.29,5.62c0.09,0.15,0.19,0.29,0.28,0.44c0.1-0.06,0.19-0.12,0.29-0.18c1.03,1.06,2.19,2.98,3.9,3.87
		c6.2,3.26,9.79,9,14.41,13.96c-0.21,0.16-0.42,0.32-0.63,0.49c1.1,0.33,2.09,0.99,2.73,1.93c0.63,0.92,1.5,1.68,2.49,2.2
		c0.79,0.41,1.73,1.24,3.2,2.46c4.26,3.55,8.63,7.03,13.32,9.97c5,3.14,10.32,5.81,15.67,8.35c6.93,3.3,13.98,6.37,21.05,9.34
		c8.91,3.74,17.76,7.66,25.43,13.57c5.09,3.92,5.93,6.28,2.8,10.15c-2.95,3.66-6.57,6.84-10.21,9.86
		c-7.41,6.15-15,12.09-22.57,18.03c-6.41,5.03-12.88,10-19.39,14.91c-5.74,4.33-11.55,8.57-17.39,12.76
		c-3.01,2.16-6.06,4.3-9.25,6.19c-4.44,2.64-9.06,4.98-13.53,7.58c-0.71,0.41-1.36,1.42-1.46,2.23c-0.33,2.64-0.42,5.31-0.55,7.97
		c-0.23,4.72,1.48,8.92,3.61,12.97c0.58,1.1,1.3,1.67,2.8,0.61c6.14-4.34,12.46-8.42,18.65-12.69c3.78-2.6,7.54-5.25,11.15-8.09
		c7.75-6.1,15.41-12.33,23.08-18.53c6.37-5.14,12.77-10.23,19.03-15.51c4.12-3.48,8.23-7.03,11.91-10.95
		c2.97-3.16,5.99-6.6,7.75-10.48c2.82-6.19,3.48-13.13,3.69-19.87C197.13,312.91,196.54,307.26,195.45,301.83z"/>
	<path fill="#0B8A9B" d="M221.91,260.64c-3.47-8.2-6.56-15.53-9.72-23.02c7.65-3.26,14.37-7.41,20.49-12.43
		c8.38-6.86,16.02-14.47,22.64-23.07c5.74-7.46,11.67-14.77,17.19-22.38c7.79-10.74,15.41-21.63,20.77-33.87
		c0.59-1.35,1.16-2.76,1.37-4.19c0.1-0.7-0.48-1.76-1.08-2.24c-3.02-2.37-6.57-3.27-10.35-3.6c-4.29-0.37-8.57-0.44-12.75,0.58
		c-3.98,0.97-7.88,2.27-11.79,3.5c-5.42,1.71-10.62,4.15-16.5,4.1c-5.68-0.05-10.1-2.47-13.31-6.96c-4.25-5.96-5.81-12.81-6.2-20.04
		c-0.39-7.25,1.34-13.97,4.64-20.35c2.82-5.44,6.69-10,12.55-12.09c5.71-2.04,11.56-1.06,17.15,0.92
		c7.06,2.5,13.81,5.78,19.54,10.58c5.01,4.2,9.56,8.95,13.03,14.66c4.06,6.67,6.97,13.77,9.12,21.24
		c2.14,7.46,2.95,15.07,2.43,22.76c-0.38,5.72-2.69,10.98-5.02,16.17c-4.78,10.65-10.66,20.7-17.27,30.28
		c-6.04,8.77-12.1,17.59-18.88,25.78c-5.85,7.07-12.4,13.66-19.26,19.77C235.09,251.78,228.56,255.8,221.91,260.64z M264.64,113.24
		c-8.6-5.03-13.32-6.51-19.79-5.82c-5.09,0.55-8.06,3.81-8.2,8.98c-0.05,1.79,0.84,2.7,2.16,2.81c2.23,0.18,4.6,0.26,6.72-0.31
		c4.83-1.29,9.53-3.02,14.31-4.51C261.41,113.9,263.04,113.62,264.64,113.24z"/>
	<path fill="#0B8A9B" d="M242.74,67.74c-2.54-11.77-10.12-15.74-19.94-16.97c-6.84-0.86-13.32,1.54-19.44,4.3
		c-11.84,5.35-21.32,13.78-29.45,23.8c-6.33,7.79-11.82,16.14-16.22,25.16c-4.05,8.31-7.77,16.79-11.78,25.13
		c-5.94,12.34-12.04,24.59-17.95,36.94c-0.55,1.14-0.61,2.77-0.3,4.03c1.32,5.36,2.85,10.66,4.33,15.98
		c0.63,2.24,1.32,4.47,1.98,6.7c0.32,0.03,0.34,0.03,0.66,0.05c2.46-5.07,4.91-10.15,7.41-15.31c0.37,0.35,0.81,0.57,0.82,0.81
		c0.07,4.5-0.03,9.01,0.16,13.51c0.17,4.07,0.2,8.23,1.08,12.17c1.82,8.18,3.83,16.28,7.26,24.06c3.59,8.16,7.86,15.8,13.65,22.5
		c5.15,5.96,11.19,11.03,18.72,13.76c3.88,1.4,8.04,2.06,12.65,3.19c-2.96-7.17-5.76-13.4-8.09-19.81
		c-1.41-3.86-2.84-6.58-7.56-7.65c-10.7-2.43-17.63-9.98-22.71-19.3c-3.61-6.62-6.06-13.68-7.66-21.07
		c-1.29-5.96-2.25-11.92-2.02-18.05c0.11-3.13,0.21-6.28-0.09-9.39c-0.08-0.83-0.03-1.53,0.14-2.13c0.26-0.92,0.27-1.88,0.19-2.83
		c-0.09-1.07,0.16-2.14,0.68-3.16c-0.1-0.62-0.6-0.58-0.37-1.13c-0.15,0.07,0.27-0.53,0.12-0.46c8.67-17.72,16.65-35.05,26.6-51.44
		c0,0.04,0,0.08,0.01,0.12c0.05-0.12,0.11-0.24,0.17-0.35c0.41-1.25,1.07-2.45,1.91-3.5c-0.01-0.05-0.02-0.1-0.02-0.15
		c2.78-3.63,5.87-8.05,9.36-12.12c4.22-4.94,9.12-9.16,14.68-12.63c5.7-3.55,11.84-5.54,18.42-6.69c7.66-1.34,14.21,0.66,20.19,5.35
		c0.79,0.62,1.86,0.86,2.81,1.28c0.39-0.96,1.18-1.96,1.1-2.88C243.9,75.61,243.57,71.61,242.74,67.74z"/>
	<path fill="#0B8A9B" d="M113.98,138.27c0.33-0.25,0.34-0.26,0.67-0.51c1.32,0.83,2.63,1.67,3.96,2.48
		c2.52,1.54,5.02,3.13,7.61,4.53c0.61,0.33,1.74,0.23,2.34-0.15c0.32-0.2,0.24-1.51-0.05-2.14c-1.3-2.84-2.53-5.75-4.18-8.39
		c-3.83-6.09-7.86-12.05-11.88-18.01c-0.26-0.38-0.44-0.68-0.5-0.94c-0.14-0.58-0.37-1.14-0.83-1.53c-1.17-1-2.1-2.28-2.72-3.79
		c-0.08,0.07-0.17,0.15-0.25,0.22c-2.94-4.32-5.66-8.33-8.4-12.33c-1.6-2.32-2.94-4.94-6.29-5.94c-0.45,3-0.91,5.74-1.26,8.5
		c-0.45,3.54-0.64,7.11-1.24,10.62c-0.6,3.53-0.69,6.79,2.18,9.46c0.39,0.36,0.63,0.71,0.72,1.03c0.12,0.4,0.3,0.79,0.61,1.07
		c1.04,0.93,1.88,2.08,2.47,3.43c0.19,0.43,0.47,0.8,0.73,1.19c0.01,0.02,0.02,0.04,0.03,0.06c1.73,5.66,3.56,11.29,5.14,16.99
		c4.21,15.21,8.29,30.46,12.46,45.68c2.63,9.59,5.33,19.17,8.01,28.75c2.79,9.97,5.9,19.87,8.27,29.94
		c1.17,4.98,2.99,8.71,8.11,10.27c1.02,0.31,1.91,1.02,2.91,1.41c2.48,0.98,4.99,1.88,7.55,2.83
		C138.03,221.19,126.01,179.73,113.98,138.27z"/>
	<path fill="#0B8A9B" d="M111.57,324.14c0.9,5.66-1.34,10.19-3.29,14.74c-5.34,12.43-10.1,25.07-13.61,38.12
		c-2.36,8.77-4.09,17.76-3.14,26.92c0.97,9.37,4.51,16.97,15.96,19.61c7.05,1.62,13.58-0.06,20.08-2.71
		c13.05-5.32,25.52-11.71,37.16-19.67c2.02-1.38,3.98-2.84,6.33-4.53c1.98,7.4,3.87,14.35,5.71,21.31c0.52,1.98-0.72,2.92-2.22,3.97
		c-6.22,4.38-12.19,9.13-18.52,13.33c-10.34,6.85-21.48,12.15-33.66,14.81c-7.1,1.55-14.31,1.84-21.07-1.59
		c-4.57-2.31-7.97-5.89-10.42-10.42c-3.26-6.05-5.17-12.45-5.79-19.3c-0.39-4.29-1.37-8.54-1.46-12.82
		c-0.09-4.13,0.46-8.29,1.02-12.4c0.85-6.12,1.54-12.31,3.08-18.27c1.74-6.74,4.11-13.35,6.62-19.86
		c2.76-7.15,5.82-14.19,9.09-21.11c1.5-3.17,3.79-5.97,5.85-8.85C109.72,324.81,110.71,324.6,111.57,324.14z"/>
	<path fill="#0B8A9B" d="M56.75,412.5c0.57,0,1.18,0.29,1.63,0.63c0.05,0.04,0.15,0.13,0.23,0.23c-0.02-0.07-0.05-0.15-0.08-0.22
		c1.73,2.25,3.46,4.49,5.19,6.74c0.6,0.15,1.19,0.52,1.73,0.79c0.38,0.19,0.76,0.38,1.13,0.59c0.1,0.04,0.19,0.08,0.29,0.12
		c0.6,0.23,1.21,0.46,1.81,0.69c0.61,0.23,1.22,0.45,1.83,0.66c0.49,0.16,0.95,0.37,1.41,0.59c0.01-0.01,0.07,0.01,0.2,0.05
		c0.03,0.01,0.05,0.02,0.08,0.03c-0.23-0.15-0.47-0.3-0.72-0.44c3.63,0.18,6.68,0.33,9.62,0.48c-0.36-9.02-0.7-17.61-1.04-26.33
		c-1.48,0-2.91,0.04-4.34-0.01c-3.66-0.12-7.04-1.35-9.8-3.61c-5.46-4.48-7.9-10.5-7.97-17.52c-0.07-6.86,0.12-13.7,1.54-20.46
		c1.16-5.56,2.07-11.18,3.04-16.78c0.66-3.8,1.23-7.61,1.85-11.42c-0.31-0.11-0.61-0.23-0.92-0.34c-0.55,0.79-1.34,1.5-1.61,2.37
		c-1.31,4.15-2.45,8.35-3.7,12.52c-2.93,9.79-5.03,19.72-5.1,29.98c-0.05,7.53-0.03,15.06,0.08,22.59c0.02,1.61,0.33,3.32,0.94,4.81
		c1.77,4.35,2.37,8.81,2.56,13.31C56.64,412.51,56.69,412.5,56.75,412.5z"/>
	<path fill="#0B8A9B" d="M111.38,191.08c2.28,7.77,4.38,14.77,6.33,21.81c0.22,0.78-0.06,2.2-0.63,2.62
		c-7.32,5.32-15.53,6.65-24.34,5.18c-16.11-2.68-25.58-12.59-29.96-27.8c-1.86-6.47-3.73-13.04-4.48-19.7
		c-0.85-7.49-0.48-15.11-0.59-22.68c-0.11-7.84,0.63-15.6,2.56-23.2c0.39-1.54,1.72-2.84,2.62-4.24c0.32,0.06,0.63,0.12,0.95,0.18
		c0.24,0.93,0.74,1.87,0.68,2.78c-0.44,7.16-1.16,14.3-1.44,21.46c-0.17,4.35,0.26,8.72,0.47,13.08c0.12,2.5,0.28,5,0.52,7.49
		c0.7,7.24,2.22,14.29,4.72,21.15c1.84,5.04,4.22,9.63,7.95,13.62c4.75,5.09,11.54,5.22,17.15,2.7c6.1-2.74,11.07-7.06,15.58-11.92
		C110.09,192.92,110.59,192.12,111.38,191.08z"/>
	<path fill="#F37E21" d="M161.18,166.07c2.59-0.18,4.02,0.89,4.46,2.89c0.92,4.24,1.73,8.51,2.4,12.79
		c0.52,3.26,0.67,6.57,1.16,9.84c0.42,2.79,5.29,5.41,7.98,4.44c4.75-1.7,5.2-2.22,4.3-7.06c-1.11-6.03-2.6-12-3.7-18.04
		c-0.31-1.72-0.1-3.64,0.33-5.35c0.21-0.83,1.51-2,2.22-1.94c0.9,0.08,2.23,1.11,2.47,1.98c0.91,3.31,1.18,6.82,2.22,10.08
		c1.84,5.78,4.31,11.22,10.05,14.4c2.16,1.2,3.75,1.14,4.99-0.92c-2.63-5.96-5.4-11.85-7.83-17.87c-1.44-3.58-0.14-7.18,1.35-10.44
		c0.82-1.8,2.3-1,2.97,0.48c1.43,3.14,2.72,6.34,4.03,9.53c1.86,4.54,3.59,9.13,5.54,13.62c2.66,6.12,0.52,14-4.97,17.76
		c-3.33,2.28-8.57,1.15-11.54-2.49c-1.04-1.27-2.06-2.55-3.3-4.08c-0.45,1.85-0.76,3.33-1.17,4.78c-1.56,5.6-5.62,8.08-9.98,7.94
		c-5.14-0.16-7.95-1.76-9.76-7.6c-1.54-4.98-2.31-10.22-3.1-15.4c-0.75-4.92-1.17-9.89-1.58-14.85
		C160.61,169.11,161.01,167.62,161.18,166.07z"/>
	<path fill="#07485A" d="M99.78,70.86c-3.18-0.67-6.33-1.6-9.55-1.95c-5.06-0.56-10.17-1.04-15.25-0.98c-3.69,0.04-7.37,1-11.06,1.5
		c-0.64,0.09-1.32-0.07-1.98-0.12c0.09-0.62-0.03-1.37,0.29-1.83c3.02-4.35,5.88-8.87,9.29-12.89c2.02-2.38,5.46-2.93,8.49-2.81
		c6.42,0.24,12.85,0.69,19.21,1.52c4.47,0.59,8.89,1.81,13.25,3.03c2.9,0.81,3.8,3.08,2.26,5.64c-3.72,6.2-8.43,11.56-13.62,16.66
		c-5.63,5.54-12.76,6.71-19.79,8.5c-3.44,0.87-6.88,1.71-10.33,2.53c-0.49,0.12-1.03,0.07-1.54,0.1c-0.15-0.28-0.3-0.57-0.44-0.85
		c2.24-1.56,4.36-3.35,6.75-4.62c5.88-3.11,11.91-5.93,17.84-8.95c2.13-1.08,4.15-2.36,6.22-3.55
		C99.8,71.47,99.79,71.17,99.78,70.86z"/>
	<path fill="#0B8A9B" d="M179.29,360.3c0.87,3.02,1.69,5.75,2.43,8.5c1.16,4.28,2.42,8.55,3.34,12.88c1.59,7.49,3.07,15,4.39,22.54
		c1.57,8.95,1.84,18.01,1.46,27.05c-0.23,5.68-1.35,11.27-4,16.41c-0.2,0.4-0.67,0.98-0.95,0.94c-0.48-0.06-1.19-0.45-1.32-0.86
		c-0.46-1.4-0.84-2.84-1-4.3c-0.28-2.57-0.27-5.18-0.57-7.75c-0.56-4.85-1.32-9.67-1.87-14.52c-1.15-10.05-4.76-19.47-7.32-29.16
		c-1.76-6.66-3.91-13.22-6.12-19.74c-0.52-1.54-0.22-2.36,0.82-3.21C172.03,366.24,175.5,363.41,179.29,360.3z"/>
	<path fill="#0B8A9B" d="M304.29,268.98c7.02,2.99,13.84,5.87,20.63,8.8c1.67,0.72,3.31,1.51,4.88,2.42
		c4.49,2.6,4.81,4.72,4.07,10.78c-0.58,4.76-2.01,9.16-4.21,13.38c-1.56,2.99-1.52,3.07-4.65,1.75c-6.91-2.89-13.85-5.73-20.68-8.82
		c-1.67-0.76-3.04-2.3-4.32-3.7c-0.53-0.57-0.78-1.76-0.62-2.56c1.45-7.25,3.02-14.47,4.58-21.7
		C304.04,269.07,304.4,268.86,304.29,268.98z"/>
	<path fill="#F37E21" d="M414.12,214.26c-0.12,1.36-0.38,2.2-0.22,2.94c0.96,4.53-1.66,6.79-5.23,8.48
		c-4.09,1.94-8.21,3.81-12.26,5.82c-8.53,4.22-17.07,8.44-25.53,12.8c-7.67,3.95-15.24,8.09-22.85,12.15
		c-7.02,3.75-14.04,7.5-21.04,11.29c-3.53,1.91-7.01,3.91-11.03,6.16c0.26-3.23,0.11-5.95,0.84-8.42c0.34-1.14,2.32-1.89,3.66-2.63
		c10.06-5.5,20.16-10.93,30.22-16.43c6.87-3.75,13.65-7.68,20.58-11.34c4.26-2.25,8.76-4.06,13.08-6.2
		c6.58-3.25,13.09-6.64,19.66-9.9C407.25,217.38,410.58,215.91,414.12,214.26z"/>
	<path fill="#F37E21" d="M363.44,138.19c-0.85,2.47-1.34,4.61-2.31,6.52c-1.73,3.45-4.94,4.63-8.55,4.3
		c-3.82-0.34-6.43-2.8-7.39-6.32c-1.22-4.48-1.85-9.13-2.61-13.73c-0.6-3.66-1.14-7.34-1.44-11.04c-0.17-2.05,0.21-4.15,0.35-6.46
		c4.39,1.17,4.29,4.58,4.8,7.29c0.94,5.05,1.43,10.18,2.12,15.28c0.22,1.64,3.7,4.67,5.27,4.62c3.48-0.12,5.89-2.06,5.47-5.11
		c-0.73-5.35-1.99-10.63-2.95-15.95c-0.29-1.62-0.6-3.33-0.36-4.92c0.14-0.92,1.35-1.68,2.08-2.51c0.87,0.77,2.15,1.38,2.53,2.35
		c0.68,1.71,0.72,3.67,1.2,5.48c0.58,2.2,1.05,4.5,2.1,6.48c1.7,3.18,3.2,6.68,6.71,8.39c1.03,0.5,2.41,0.7,3.53,0.5
		c1.17-0.21,1.47-1.17,0.84-2.45c-2.06-4.19-3.9-8.49-5.97-12.67c-1.66-3.35-0.96-6.61,0.15-9.84c0.18-0.53,1.17-1.13,1.73-1.09
		c0.63,0.05,1.49,0.68,1.75,1.28c2.36,5.42,4.66,10.87,6.87,16.35c1.16,2.9,2.16,5.78,2.11,9.08c-0.08,5.14-3.65,8.55-7.53,10.57
		c-2.79,1.45-6.48-1.21-8.99-4.25C364.48,139.76,364.1,139.14,363.44,138.19z"/>
	<path fill="#F37E21" d="M121.57,289.05c-2.63,0.7-4.84,1.28-7.22,1.91c1.2,3.4,2.39,6.68,3.53,9.98c1.2,3.47-0.92,9.76-3.98,11.68
		c-5.69,3.57-11.89,5.35-18.62,4.97c-0.9-0.05-1.93-0.54-2.62-1.14c-6.07-5.29-4.71-11.61-0.04-17.02c1.85-2.15,4.21-3.88,6.28-5.85
		c0.89-0.85,1.68-1.6,0.97-3.23c-0.94-2.14-1.18-4.59-1.99-6.8c-1.2-3.25,4.52-8.38,6.96-7.82c0.53,0.12,1.13,0.61,1.41,1.1
		c1.4,2.43,2.74,4.9,4.02,7.4c0.67,1.31,1.01,2.49,2.64,0.67c0.86-0.96,2.4-1.33,3.67-1.88c3.81-1.64,3.81-1.62,4.35,2.56
		C121.09,286.71,121.34,287.81,121.57,289.05z M104.05,296.97c-0.32-0.12-0.64-0.24-0.96-0.36c-1.4,2.44-3.05,4.79-4.07,7.38
		c-0.42,1.07,0.1,3.09,0.93,3.93c1.17,1.17,2.77,2.54,4.87,1.57c1.29-0.6,2.03-1.34,2.11-3
		C107.09,302.91,105.64,299.95,104.05,296.97z"/>
	<path fill="#0B8A9B" d="M447.52,447.88c-3.32-0.42-6.54-0.76-9.73-1.25c-3.99-0.61-7.97-1.3-11.94-2.01
		c-1.7-0.3-3.43-0.57-5.04-1.15c-1.72-0.63-2.67-1.79-2.71-3.96c-0.12-6.09-0.57-12.17-0.93-18.25c-0.04-0.6-0.33-1.18-0.53-1.86
		c4.2,0.72,8.18,1.42,12.17,2.08c4.14,0.69,8.35,1.11,12.42,2.06c6.51,1.52,7.49,2.84,8.22,9.49
		C449.94,437.38,449.24,442.99,447.52,447.88z"/>
	<path fill="#07485A" d="M368.23,283.12c-0.87-0.78-1.55-1.25-2.05-1.87c-2.92-3.61-10.02-3.78-12.7-0.11
		c-0.4,0.55,0.07,2.38,0.72,2.96c3.96,3.57,8.66,5.56,13.97,6.37c4.96,0.76,9.47-0.54,14.02-2.11c0.65-0.22,1.44-0.03,2-0.03
		c-0.11,7.49-5.58,9.71-10.95,12.11c-7.78,3.48-15.63,6.88-21.82,13.04c-0.28,0.27-0.63,0.47-1.22,0.91
		c0.11-7.37,4.47-11.5,10.36-15.12c-0.89-0.62-1.42-1.1-2.04-1.41c-4.46-2.22-9.11-4.22-11.33-9.18c-0.35-0.78-0.81-1.91-0.51-2.53
		c2.91-6,5.7-12.17,12.43-15.01c1.44-0.61,2.93-1.24,4.45-1.49c2.54-0.42,4.86,0.22,6.44,2.45c1.65,2.33,1.68,4.81,0.32,7.3
		C369.73,280.5,369.11,281.57,368.23,283.12z"/>
	<path fill="#07485A" d="M320.06,100.02c-0.78-1.82-1.64-3.61-2.33-5.46c-2.28-6.11-4.02-12.48-6.92-18.27
		c-1.88-3.74-5.67-6.34-9.78-7.95c-0.54-0.21-1.11-0.33-1.65-0.52c-4.09-1.45-4.63-3-2.57-6.83c0.74-1.37,1.14-2.92,1.84-4.32
		c0.65-1.31,1.43-2.57,2.26-3.78c1.13-1.66,2.31-1.36,3.38,0.1c2.54,3.47,5.22,6.86,7.57,10.47c3.79,5.8,6.07,12.3,8.17,18.86
		c0.63,1.96,0.96,4.01,1.58,5.97c0.18,0.58,0.91,0.99,1.38,1.48c0.24-0.45,0.55-0.88,0.71-1.36c2.1-6.43,4.02-12.92,6.3-19.29
		c1.9-5.29,4.4-10.3,8.41-14.42c2.85-2.93,7.98-1.46,10.08,2.53c2.47,4.7,0.47,8.13-2.45,11.79c-1.25-1.89-2.32-3.75-3.63-5.42
		c-1.98-2.52-4.51-2.52-6.85-0.36c-4.21,3.88-5.37,9.17-6.95,14.31c-2.03,6.62-4.19,13.2-6.35,19.78c-0.3,0.9-0.9,1.7-1.37,2.55
		C320.61,99.92,320.33,99.97,320.06,100.02z"/>
	<path fill="#0B8A9B" d="M145.26,295.36c5.79,2.4,11.14,4.48,16.33,6.91c0.96,0.45,1.43,2.26,1.82,3.53
		c2.32,7.7,4.49,15.45,6.85,23.14c0.71,2.31,1.34,4.01-1.37,5.74c-3.4,2.17-6.33,5.07-9.8,7.94
		C154.48,326.9,149.92,311.33,145.26,295.36z"/>
	<path fill="#07485A" d="M246.06,429.2c1.55,0.61,3.15,1.11,4.64,1.84c5.38,2.62,5.49,2.49,10.02-1.64c2.72-2.48,5.72-4.71,8.81-6.7
		c3.14-2.03,6.73-2.27,10.33-1.23c3.92,1.13,7.75,2.57,10.3,6c0.95,1.28,1.5,2.92,2.03,4.46c1.97,5.85,0.15,13.32-3.88,16.84
		c-3.82,3.34-7.88,2.42-11.59,0.32c-6.12-3.46-11.94-7.45-17.95-11.11c-3.46-2.11-7.05-4-10.56-6.02c-0.93-0.53-1.78-1.19-2.66-1.8
		C245.71,429.84,245.89,429.52,246.06,429.2z M263.01,437.97c4.01,2.45,8.02,4.98,12.13,7.36c0.74,0.43,1.94,0.45,2.8,0.2
		c3.16-0.89,4.72-3.44,5.06-6.38c0.39-3.33,0.2-6.75,0.05-10.11c-0.13-2.79-2.1-3.94-4.44-2.45c-3.34,2.12-6.45,4.6-9.65,6.95
		C267.12,434.89,265.29,436.27,263.01,437.97z"/>
	<path fill="#07485A" d="M450.68,96.85c-0.35-1.01-0.87-1.99-1.03-3.03c-0.3-1.97-0.26-4-0.64-5.95c-0.16-0.82-0.88-1.89-1.61-2.19
		c-3.28-1.33-6.62-2.55-10.01-3.57c-6.26-1.89-11.66-8.86-11.63-15.35c0.01-2.01-0.03-4.05,0.32-6.01c0.74-4.06,4.19-5.94,7.22-7.94
		c2.03-1.34,4.43-2.34,6.81-2.89c6.09-1.42,11.6,2.61,11.88,9.24c0.19,4.53,0.59,9.06,0.49,13.58c-0.13,5.93-0.68,11.85-0.99,17.78
		c-0.11,2.04-0.02,4.09-0.02,6.14C451.21,96.73,450.94,96.79,450.68,96.85z M449.6,77.96c0-4.38,0-9.06,0-13.73
		c0-3.05-1.89-4.95-4.9-5.06c-5.91-0.2-10.01,3.3-14.06,6.86c-1.48,1.3-1.41,2.98,0.28,3.77c4.02,1.88,8.16,3.5,12.25,5.26
		C445.16,75.93,447.13,76.85,449.6,77.96z"/>
	<path fill="#07485A" d="M72.11,186.14c1.4-1.87,2.6-3.95,4.26-5.56c1.67-1.63,1.9-3.04,0.86-5.07c-1.92-3.74-3.8-7.52-5.41-11.41
		c-2.61-6.28-0.28-11.6,3.5-16.66c2.92-3.91,6.53-6.04,11.47-5.3c2.03,0.3,4.02,0.88,6.01,1.41c3.44,0.92,6.39,2.37,8.04,5.92
		c1.26,2.7,1.42,7.25-0.64,9.44c-5.83,6.19-11.83,12.22-17.74,18.34c-2.59,2.68-5.09,5.46-7.68,8.14c-0.56,0.58-1.34,0.95-2.01,1.42
		C72.54,186.59,72.32,186.37,72.11,186.14z M84.63,171.66c2.59-2.44,5.28-5.35,8.36-7.76c4.34-3.4,2.33-8.72-1.18-10.36
		c-4.02-1.87-8.2-2.89-12.65-2.97c-1.99-0.04-2.79,0.9-2.31,2.57c0.83,2.88,1.86,5.72,3.04,8.48
		C81.31,164.98,82.99,168.23,84.63,171.66z"/>
	<path fill="#F37E21" d="M287.06,292.89c0.77,0.95,1.36,1.42,1.61,2.02c2.12,5.29,4.32,10.55,6.21,15.92
		c1.4,3.99-3.36,10.52-7.26,9.29c-2.04-0.64-3.71-2.46-5.67-3.84c-0.13,0.52-0.36,1.47-0.59,2.42c-0.47,2.02-3.4,4.42-5.6,4.59
		c-2.41,0.18-4.96-1.56-5.95-3.76c-2.2-4.92-2.29-10.21-2.91-15.42c-0.2-1.64-0.54-3.28-0.52-4.92c0.01-0.72,0.78-1.43,1.2-2.14
		c0.54,0.5,1.42,0.92,1.56,1.51c0.78,3.34,1.36,6.72,2.05,10.08c0.37,1.84,0.52,3.8,1.3,5.45c0.97,2.05,3.23,1.43,4.72,0.9
		c0.99-0.35,2.14-2.06,2.1-3.12c-0.11-2.68-0.87-5.33-1.32-8c-0.33-1.94-0.74-3.88-0.77-5.83c-0.01-0.83,0.86-1.67,1.32-2.5
		c0.61,0.79,1.62,1.52,1.75,2.39c0.45,3.1,0.9,6.17,2.65,8.85c0.9,1.38,1.75,2.88,2.94,3.97c0.99,0.9,2.45,1.29,3.71,1.9
		c0.24-0.22,0.49-0.44,0.73-0.66c-0.44-1.43-0.77-2.91-1.34-4.28c-0.91-2.21-1.95-4.37-2.99-6.52
		C284.65,298.39,285.95,295.99,287.06,292.89z"/>
	<path fill="#07485A" d="M135.91,317.96c0.77,2.3,1.6,4.59,2.31,6.91c1.41,4.59,2.31,9.5,6.39,12.65c1.41,1.09,3.33,1.9,5.1,2.08
		c3.15,0.33,3.78-0.83,2.4-3.82c-1.39-3-3.26-5.82-4.27-8.93c-0.85-2.59-0.77-5.48-1.1-8.23c0.31-0.07,0.63-0.15,0.94-0.22
		c2.02,4.38,3.96,8.8,6.07,13.13c1.67,3.43,1.5,7.07,1.12,10.6c-0.46,4.17-5.38,5.94-9.14,3.49c-1.4-0.91-2.67-2.09-3.82-3.3
		c-1.19-1.25-2.16-2.7-3.62-4.56c-0.41,1.63-0.54,2.99-1.09,4.14c-1.08,2.27-1.9,5.07-3.72,6.51c-4.12,3.25-8.27,0.51-10.22-3.75
		c-1.32-2.88-0.84-5.87-1.22-9.4c-0.17-1.57,0.05-3.68-0.29-5.47c-0.53-2.78,0.1-6.7,2.12-9.76c0.27,1.37,0.61,2.33,0.63,3.31
		c0.07,4.06-0.11,8.13,0.11,12.18c0.1,1.75,0.64,3.65,1.54,5.15c1.95,3.26,6.71,2.76,8.75-0.69c2.4-4.06,2.04-8.16,0.52-12.39
		c-1.1-3.07-1.08-6.22-0.29-9.36C135.38,318.13,135.64,318.05,135.91,317.96z"/>
	<path fill="#07485A" d="M349.09,230.3c-1.31,3.06-2.23,6.01-3.76,8.6c-2.42,4.11-5.9,4.29-9.32,1.08
		c-3.19-2.99-3.92-6.61-3.76-10.77c0.12-3.08-0.52-6.19-0.38-9.27c0.12-2.54,0.89-5.06,1.37-7.59c0.43,0.03,0.86,0.07,1.3,0.1
		c0.16,2.73,0.59,5.47,0.43,8.17c-0.22,3.76-0.88,7.52,0.89,11.06c0.9,1.79,1.92,3.44,4.44,3.43c2.56-0.01,3.97-1.29,5.1-3.36
		c2.35-4.31,1.14-8.65,0.42-13.05c-0.45-2.75-0.48-5.56-0.69-8.35c0.39-0.06,0.77-0.13,1.16-0.19c1.38,4.26,2.71,8.54,4.16,12.78
		c1.42,4.14,3.77,7.6,8.24,8.77c1.26,0.33,2.91-0.23,4.16-0.84c0.29-0.14-0.12-2.24-0.56-3.28c-1.4-3.27-3.23-6.37-4.39-9.71
		c-0.76-2.19-0.64-4.69-0.95-7.35c0.84,0.22,1.35,0.22,1.42,0.39c2.17,5.08,4.68,10.07,6.28,15.33c0.85,2.79,0.48,6.14-0.03,9.11
		c-0.51,2.97-3.46,4.26-6.38,3.43c-4.13-1.17-6.58-4.21-8.62-7.71C349.48,230.84,349.3,230.61,349.09,230.3z"/>
	<path fill="#07485A" d="M340.77,394.48c2.35,5.53,5.05,10.95,6.9,16.65c0.79,2.44,0.21,5.52-0.39,8.16
		c-0.71,3.1-3.37,4.1-6.49,3.24c-3.33-0.91-5.56-3.12-7.46-5.81c-0.57-0.8-1.15-1.59-2.03-2.8c-0.46,1.54-0.75,2.68-1.15,3.78
		c-0.65,1.79-1.06,3.75-2.11,5.28c-3.15,4.59-7.72,3.71-10.72-0.41c-2.31-3.17-3.25-7.07-2.4-11.36c0.54-2.7-0.42-5.66-0.28-8.49
		c0.1-2.06,0.89-4.09,1.37-6.13c0.28,0.01,0.57,0.02,0.85,0.03c0.19,0.97,0.54,1.94,0.56,2.91c0.07,3.98,0.1,7.96,0.01,11.93
		c-0.06,2.94,1.2,5.16,3.38,6.92c2,1.62,6.16-0.23,7.45-2.92c1.85-3.86,1.29-7.65,0.45-11.59c-0.67-3.15-0.98-6.38-1.45-9.57
		c0.33-0.12,0.66-0.23,0.99-0.35c0.46,0.75,1.07,1.46,1.36,2.27c1.41,4.05,2.54,8.21,4.15,12.18c1.43,3.53,3.6,6.68,7.8,7.24
		c1.25,0.17,2.7-0.33,3.85-0.92c0.29-0.15,0.02-1.92-0.37-2.78c-1.1-2.48-2.23-4.98-3.66-7.27c-1.98-3.18-1.33-6.55-1.39-9.9
		C340.26,394.68,340.51,394.58,340.77,394.48z"/>
	<path fill="#07485A" d="M209.59,177.07c-0.47-5.59,1.46-8.43,6.63-10.7c6.22-2.73,12.26-5.87,18.45-8.65
		c5.12-2.29,10.35-4.33,15.54-6.46c2.27-0.93,4.57-1.78,6.88-2.68c0.59,2.64-1.99,8.04-4.14,8.95c-10.12,4.3-20.27,8.51-30.33,12.95
		C218.17,172.44,213.92,174.86,209.59,177.07z"/>
	<path fill="#07485A" d="M240.88,254.67c-0.47-5.59,1.46-8.43,6.63-10.7c6.22-2.73,12.26-5.87,18.45-8.65
		c5.12-2.29,10.35-4.33,15.54-6.46c2.27-0.93,4.57-1.78,6.88-2.68c0.59,2.64-1.99,8.04-4.14,8.95c-10.12,4.3-20.27,8.51-30.33,12.95
		C249.46,250.05,245.2,252.47,240.88,254.67z"/>
	<path fill="#07485A" d="M130.87,463.45c0.26-6.43,3.6-9.95,9.24-12.21c8.88-3.57,17.54-7.69,26.31-11.52
		c3.71-1.62,7.48-3.1,11.23-4.62c0.39-0.16,0.87-0.07,1.3-0.1c0.01,0.43,0.11,0.89,0.01,1.29c-0.98,3.91-2.82,6.81-6.97,8.46
		c-10.36,4.13-20.55,8.67-30.74,13.21C137.72,459.53,134.4,461.57,130.87,463.45z"/>
	<path fill="#07485A" d="M304.28,175.45c-1.15,1.59-2.52,3.08-3.38,4.82c-0.5,1.01-0.5,2.52-0.17,3.63
		c1.16,3.92,3.55,7.43,3.54,11.75c-0.01,4.09-1.6,7.39-4.28,10.3c-4.07,4.42-11.97,4-15.61-0.92c-2.95-3.98-2.11-7.27,1.59-11.52
		c4.02-4.62,8.48-8.86,12.73-13.29c1.41-1.47,2.74-3,4.15-4.47c0.3-0.32,0.78-0.47,1.17-0.69
		C304.1,175.19,304.19,175.32,304.28,175.45z M295.37,186.83c-0.37-0.25-0.73-0.5-1.1-0.75c-1.84,2.24-3.56,4.6-5.55,6.7
		c-2.14,2.26-1.28,6.51,1.12,7.59c2.37,1.06,4.99,1.62,7.55,2.15c2.38,0.5,2.9-1.24,2.38-2.94
		C298.46,195.28,296.86,191.07,295.37,186.83z"/>
	<path fill="#07485A" d="M75.47,351.31c-2.93,5.12-5.85,10.23-9.07,15.85c3.69-0.73,6.67-2.03,9.45-3.84
		c2.73-1.78,5.44-3.6,8.13-5.38c1.93,5.77-0.42,11.21-6.81,14.58c-3.48,1.84-7.19,3.29-10.87,4.71c-2.83,1.09-4.34,0.2-4-2.66
		c0.52-4.32,1.07-8.8,2.73-12.75c1.26-3,4.24-5.28,6.47-7.87c1-1.16,2.03-2.28,3.05-3.42C74.86,350.8,75.17,351.05,75.47,351.31z"/>
	<path fill="#07485A" d="M406.38,428.66c-5.7,1.77-11.87,1.31-18.21,3.01c5.75,4.2,11.58,6.71,18.33,7.46
		c-3.56,4.67-8.57,7.43-13.36,5.17c-4.64-2.18-9.52-3.84-13.42-7.3c-1.78-1.58-1.7-2.92,0.36-4.14c3.46-2.06,6.9-4.45,10.68-5.61
		c2.93-0.9,6.38-0.24,9.6-0.11c1.96,0.08,3.91,0.46,5.86,0.7C406.27,428.1,406.32,428.38,406.38,428.66z"/>
	<path fill="#07485A" d="M110.87,375.01c3.97-4.78,10.47-5.76,15.64-9.93c-6.91-2.03-13.4-2.22-20.02-0.83
		c-0.11-0.25-0.23-0.5-0.34-0.75c2.05-2.5,4-5.09,6.22-7.44c0.69-0.73,2.14-1.14,3.2-1.06c5.14,0.37,10.28,0.9,15.4,1.52
		c0.99,0.12,2.17,0.65,2.78,1.39c0.51,0.62,0.77,2.19,0.35,2.7c-2.85,3.45-5.8,6.82-8.95,9.99c-0.89,0.9-2.52,1.13-3.85,1.52
		C117.83,373.12,114.34,374.05,110.87,375.01z"/>
	<path fill="#07485A" d="M422.88,109.44c2.2-2.62,4.34-5.29,6.65-7.82c0.46-0.5,1.56-0.66,2.33-0.6c5.3,0.44,10.63,0.79,15.89,1.56
		c3.97,0.58,4.51,2.24,1.93,5.39c-2.31,2.83-4.77,5.56-7.4,8.08c-3.16,3.03-7.68,2.63-11.5,4.04c-1.04,0.38-2.2,0.43-3.3,0.63
		c-0.11-0.25-0.22-0.5-0.34-0.75c5.28-2.83,10.55-5.65,16.47-8.82c-7.13-2.13-13.59-2.15-20.11-1.06
		C423.3,109.89,423.09,109.66,422.88,109.44z"/>
	<path fill="#07485A" d="M245.7,310.98c0.39,1.02,0.95,2.01,1.15,3.07c0.72,3.91,0.72,3.76,4.68,4.36c3.8,0.58,7.68,0.99,10.81,3.82
		c4.64,4.19,4.95,11.84,0.36,15.97c-1.26,1.14-2.6,2.29-4.1,3.05c-4.69,2.37-8.88-0.12-9.85-4.68c-1.75-8.21-2.54-16.62-3.72-24.94
		c-0.02-0.16,0.05-0.33,0.07-0.5C245.3,311.09,245.5,311.03,245.7,310.98z M248.64,323.69c0.28,3.07,0.55,5.71,0.75,8.36
		c0.18,2.38,1.22,3.46,3.6,3.58c3.87,0.2,6.1-2.5,8.42-4.9c2.22-2.29,1.93-3.57-1.01-4.36C256.6,325.34,252.72,324.6,248.64,323.69z
		"/>
	<path fill="#07485A" d="M226.93,427.84c0.77-5.67,1.34-11.38,2.41-17c0.45-2.35,1.79-4.6,3.01-6.73c1.07-1.87,3.59-2.02,5.11-0.47
		c3.73,3.79,3.36,3.84,0.91,8.67c-0.79-0.91-1.44-1.85-2.27-2.59c-2.08-1.85-4.16-1.55-5.16,1.01c-1.04,2.67-1.88,5.48-2.28,8.31
		c-0.72,5.1-1.04,10.26-1.53,15.39c-0.23,0.13-0.47,0.26-0.7,0.39c-0.69-0.78-1.5-1.48-2.04-2.35c-2.29-3.72-4.02-7.92-6.89-11.09
		c-1.91-2.12-5.3-3.15-8.22-4.03c-2.52-0.76-2.98-0.85-2.41-3.54c0.36-1.7,0.57-3.43,1.04-5.09c0.55-1.94,1.67-2.26,3.21-0.96
		c4.87,4.12,8.85,8.96,11.89,14.58c1.07,1.98,2.23,3.9,3.34,5.85C226.54,428.07,226.74,427.95,226.93,427.84z"/>
	<path fill="#07485A" d="M70.94,274.55c-0.19-0.49-0.39-0.98-0.58-1.47c-0.93-2.35-1.61-4.84-2.85-7.01
		c-1.32-2.31-3.64-2.41-5.39-0.4c-3.55,4.07-4.44,8.97-4.02,14.19c0.44,5.56,0.97,11.12,1.37,16.68c0.05,0.72-0.46,1.48-0.95,2.9
		c-0.68-1.24-1.21-1.85-1.35-2.53c-0.29-1.38-0.46-2.79-0.52-4.2c-0.35-7.11-1-14.23-0.86-21.33c0.12-5.6,0.92-11.28,5.53-15.46
		c2.16-1.95,4.09-1.84,6.06,0.33c2.77,3.04,3.57,6.87,4.28,10.67c0.46,2.43,0.35,4.97,0.5,7.45
		C71.75,274.45,71.34,274.5,70.94,274.55z"/>
	<path fill="#07485A" d="M446.88,316.34c-0.27-0.75-0.86-1.55-0.77-2.26c0.66-5.35,1.41-10.69,2.23-16.02
		c0.82-5.31,0.04-10.29-3.03-14.75c-1.63-2.37-4.44-2.36-5.89,0.12c-1.52,2.6-2.65,5.41-4.52,8.18c0-1.9-0.37-3.9,0.07-5.7
		c1.06-4.32,2.26-8.63,4.96-12.32c1.51-2.07,3.62-2.25,5.63-0.62c2.91,2.36,4.24,5.51,4.87,9.02c1.03,5.83,0.72,11.63-0.37,17.46
		c-0.83,4.4-1.09,8.91-1.64,13.37c-0.13,1.06-0.43,2.1-0.66,3.15C447.47,316.1,447.18,316.22,446.88,316.34z"/>
	<path fill="#07485A" d="M69.46,298.07c0.58,1.79,1.38,3.54,1.71,5.38c0.97,5.38,1.63,10.81,2.64,16.17
		c0.67,3.58,2.48,6.77,5.2,9.13c1.2,1.04,3.35,1.67,4.92,1.45c2.23-0.31,2.43-2.73,2.61-4.59c0.21-2.2,0.05-4.44,0.05-6.66
		c0.21-0.09,0.42-0.18,0.64-0.26c0.41,0.56,1,1.07,1.2,1.7c1.66,5.32,1.57,10.69,0.01,15.99c-1.16,3.93-3.61,4.65-7.03,2.38
		c-5.35-3.56-7.55-9.11-8.94-14.92c-1.67-6.99-2.8-14.11-4.06-21.2c-0.25-1.42-0.04-2.92-0.04-4.38
		C68.72,298.19,69.09,298.13,69.46,298.07z"/>
	<path fill="#07485A" d="M412.44,72.93c0.65,1.88,1.87,3.77,1.85,5.64c-0.05,4.23-0.33,8.53-1.26,12.63
		c-0.57,2.5-2.57,3.67-5.2,2.62c-3.31-1.33-5.26-3.81-6.93-6.65c-4.68-7.94-4.73-17.08-6.61-25.75c-0.51-2.34-0.83-4.73-1.11-7.12
		c-0.06-0.48,0.46-1.03,0.71-1.54c0.42,0.33,1.12,0.6,1.22,1.01c0.59,2.48,1.06,4.99,1.55,7.5c1.02,5.19,1.82,10.43,3.14,15.55
		c0.84,3.25,3.03,5.84,6.14,7.38c2.49,1.24,4.6,0.28,5.04-2.42c0.46-2.83,0.59-5.7,0.86-8.56
		C412.03,73.13,412.24,73.03,412.44,72.93z"/>
	<path fill="#07485A" d="M294.27,437c0.99-0.08,2.04-0.41,2.96-0.2c5.22,1.15,10.41,2.48,15.63,3.66
		c5.03,1.13,10.01,1.62,14.59-1.62c2.25-1.59,2.68-3.92,0.48-5.74c-1.8-1.5-4.09-2.43-6.18-3.58c-0.52-0.29-1.11-0.46-1.67-0.68
		c0.08-0.35,0.16-0.7,0.24-1.05c2.5,0.45,5.13,0.55,7.45,1.44c3.06,1.18,5.97,2.83,8.76,4.57c3.16,1.97,2.86,5.2-0.04,7.53
		c-3.83,3.09-8.26,2.86-12.65,2.89c-8.14,0.06-15.75-2.85-23.6-4.42c-2.05-0.41-4.04-1.05-6.07-1.59
		C294.21,437.81,294.24,437.4,294.27,437z"/>
	<path fill="#07485A" d="M170,65.23c3.06-1.03,5.58-1.95,8.14-2.73c3.87-1.17,3.75-5.04,0.5-7.24c-5.49-3.73-11.7-4.14-18.16-3.45
		c-3.92,0.42-7.92,0.25-11.88,0.21c-0.56-0.01-1.11-0.8-2.16-1.61c1.2-0.34,1.84-0.69,2.49-0.69c8.46-0.04,16.94-0.39,25.37,0.11
		c5.03,0.3,10.16,1.47,14.04,5.38c3.65,3.67,3.5,6.39-1.28,8.09c-4.46,1.58-9.31,2.12-14.01,2.95
		C172.24,66.38,171.29,65.68,170,65.23z"/>
	<path fill="#07485A" d="M429.79,349.66c-1.59-6.28-7.04-7.91-12.26-9.34c-2.33-0.64-5.14-0.41-7.53,0.21
		c-5.39,1.39-9.25,5.33-13.16,9.01c-2.97,2.8-3.32,2.91-6.92,0.96c-1.21-0.65-3.7-1.97-5.11-2.66l-0.21,0.22
		c-0.03,0.02-0.06,0.04-0.08,0.07c-0.01,0.01-0.02,0.03-0.02,0.04l-1.11,1.13l1.46,0.86l0,0c1.48,0.81,2.63,1.41,3.73,2.08
		c4.24,2.58,8.43,5.26,12.71,7.78c5.13,3.02,10.14,6.35,15.55,8.73c4.9,2.15,9.33,0.87,12.17-4.48
		C431.49,359.56,431.03,354.58,429.79,349.66z M420.62,358.87c-0.31,4.54-4.91,6.88-8.83,4.64c-1.79-1.02-3.45-2.27-5.18-3.4
		c-1.72-1.12-3.46-2.21-5.5-3.5c5.34-3.89,10.31-7.71,15.5-11.21c2.38-1.6,3.87-0.66,4.01,2.34
		C420.79,351.43,420.87,355.17,420.62,358.87z"/>
	<path fill="#07485A" d="M78.85,430.87c-1.24-3.11-3.08-5.57-5.94-7.59c-0.01,0-0.03-0.01-0.04-0.01c-1.01-0.33-2-0.72-2.99-1.1
		c-0.85-0.32-1.69-0.65-2.52-1.02c0.13,0.11-0.54-0.23-1.12-0.53c-0.21-0.1-0.42-0.21-0.63-0.32c-0.03-0.01-0.05-0.03-0.08-0.04
		c-0.05-0.02-0.09-0.05-0.14-0.07c-0.26-0.12-0.52-0.25-0.78-0.38c-0.27-0.13-0.54-0.26-0.81-0.4c0,0-0.01,0-0.01-0.01
		c-1.21-0.44-2.41-0.88-3.63-1.28c-2.62-0.86-1.32-3.02-1.46-4.8l-0.01-0.9l-2.07-0.9l0.01,0.82c0,0,0,0-0.01-0.01
		c0.13,3.58,0.01,7.19,0.01,10.79c0,6.86-0.25,13.74,0.08,20.58c0.22,4.59,5.62,7.97,10.06,6.62c2.16-0.66,4.23-1.71,6.23-2.8
		C79.66,443.92,81.62,437.84,78.85,430.87z M75.39,435.72c-3.57,2.31-7.14,4.81-11.06,6.32c-3.25,1.25-6.41-1.76-6.33-5.31
		c0.09-3.75,0.36-7.49,0.54-11.09c3.65,1.3,7.06,2.41,10.37,3.74c2.12,0.85,4.16,1.94,6.12,3.1
		C76.41,433.29,76.79,434.81,75.39,435.72z"/>
	<path fill="#07485A" d="M236.43,180.57c-0.77,1.81-1.77,3.56-2.23,5.44c-0.26,1.09,0.06,2.57,0.63,3.58c2,3.56,5.1,6.46,6.05,10.68
		c0.9,3.99,0.08,7.56-1.89,11c-2.99,5.22-10.79,6.55-15.43,2.56c-3.75-3.23-3.67-6.63-1-11.59c2.9-5.4,6.31-10.52,9.47-15.77
		c1.05-1.74,2.01-3.54,3.05-5.28c0.23-0.37,0.65-0.63,0.99-0.93C236.2,180.36,236.32,180.47,236.43,180.57z M230.26,193.64
		c-0.41-0.16-0.82-0.33-1.24-0.49c-1.3,2.59-2.45,5.27-3.93,7.76c-1.59,2.68,0.19,6.63,2.77,7.15c2.54,0.51,5.23,0.47,7.84,0.42
		c2.43-0.04,2.56-1.85,1.67-3.39C235.15,201.2,232.65,197.45,230.26,193.64z"/>
	<path fill="#F37E21" d="M210.63,134c-0.11,0.91-0.31,1.47-0.23,1.97c0.53,3.07-1.29,4.52-3.73,5.57c-2.8,1.2-5.61,2.35-8.39,3.6
		c-5.84,2.62-11.69,5.23-17.49,7.95c-5.25,2.46-10.45,5.04-15.67,7.58c-4.81,2.34-9.63,4.68-14.43,7.05
		c-2.42,1.19-4.81,2.45-7.57,3.86c0.26-2.16,0.23-4,0.78-5.64c0.26-0.76,1.61-1.21,2.53-1.67c6.9-3.44,13.83-6.83,20.73-10.26
		c4.72-2.35,9.37-4.81,14.12-7.09c2.92-1.4,5.99-2.51,8.95-3.83c4.51-2.01,8.97-4.12,13.47-6.15
		C205.93,135.93,208.21,135.02,210.63,134z"/>
	<path fill="#07485A" d="M63.07,217.32c0.73,1.83,1.26,3.77,2.27,5.43c0.59,0.96,1.86,1.77,2.98,2.09
		c3.93,1.11,8.17,0.97,11.82,3.29c3.45,2.19,5.39,5.3,6.42,9.12c1.56,5.81-3.02,12.26-9.12,12.71c-4.94,0.36-7.27-2.1-8.89-7.5
		c-1.76-5.87-2.96-11.9-4.43-17.86c-0.49-1.97-1.08-3.92-1.56-5.89c-0.1-0.42,0.02-0.91,0.04-1.36
		C62.76,217.33,62.91,217.33,63.07,217.32z M67.92,230.93c-0.41,0.18-0.81,0.35-1.22,0.53c0.91,2.75,1.99,5.47,2.7,8.27
		c0.77,3.02,4.82,4.56,7.01,3.1c2.16-1.44,4.03-3.36,5.85-5.24c1.69-1.75,0.5-3.12-1.21-3.58
		C76.72,232.83,72.31,231.94,67.92,230.93z"/>
	<g>
		<path fill="#DE7929" d="M374.82,71.39c-0.69-0.9-1.51-1.62-2.6-2.01c-2.98-1.4-2.98-3.59-1.97-6.35c0.91-2.5,0.72-5.2,0.29-7.79
			c-1-6.02-7.21-8.74-11.73-4.95c-3.31,2.77-5.81,6.39-7.12,10.6c-1.02,3.26,0.71,7.3,3.67,9.22c0.26,0.21,0.49,0.45,0.77,0.63
			c5.89,3.85,5.87,3.84,1.49,9.39c-4.88,6.16-10.85,11.24-16.49,16.64c-2.26,1.42-4.18,3.23-6.04,5.11v0v0
			c-0.32,0.25-0.64,0.5-0.96,0.75c-3.31,2.6-6.2,5.72-9.66,8.14c-0.67,0.47-1.32,0.96-1.87,1.55c-0.85,0.92-2.64,1.39-1.74,2.85
			c0.82,1.34,2.18,0.35,3.43,0.01c0.4-0.2,1.01-0.52,1.41-0.72c0.5-0.44,1.16-0.67,1.72-1.03c6.43-4.1,12.21-8.98,17.51-14.45
			c3.51-2.73,6.56-5.91,9.47-9.26c0,0,0,0,0,0c3.76-3.63,7.19-7.52,9.69-12.15c0.92-1.67,2.12-1.77,3.71-0.84
			c1.44,0.84,3.02,1.44,4.54,2.14c0.71,0.33,1.42,0.53,2.15,0.06C376.48,77.63,376.68,73.15,374.82,71.39z M366.39,67.03
			c0,0-0.13,0.67-0.94,0.61h-0.07c0,0-11.67-4.72-6.7-10.65C362.08,55.06,367.51,56.33,366.39,67.03z"/>
	</g>
	<g>
		<path fill="#DE7929" d="M151.93,76.75c-0.83-1.08-1.82-1.95-3.12-2.41c-3.58-1.68-3.58-4.31-2.37-7.62c1.1-3,0.86-6.25,0.34-9.35
			c-1.2-7.22-8.66-10.5-14.09-5.95c-3.98,3.33-6.98,7.67-8.55,12.73c-1.22,3.92,0.85,8.77,4.41,11.08c0.31,0.25,0.59,0.54,0.92,0.76
			c7.07,4.63,7.05,4.61,1.78,11.28c-5.86,7.4-13.03,13.49-19.81,19.98c-2.71,1.7-5.02,3.88-7.26,6.14v0v0
			c-0.39,0.3-0.77,0.6-1.16,0.91c-3.98,3.12-7.44,6.87-11.6,9.78c-0.8,0.56-1.58,1.15-2.25,1.87c-1.02,1.1-3.17,1.66-2.09,3.42
			c0.99,1.61,2.62,0.42,4.12,0.01c0.48-0.25,1.21-0.62,1.69-0.87c0.6-0.53,1.39-0.81,2.07-1.24c7.72-4.92,14.67-10.78,21.03-17.35
			c4.21-3.27,7.88-7.1,11.37-11.12c0,0,0,0,0,0c4.51-4.36,8.64-9.03,11.64-14.6c1.11-2.01,2.54-2.13,4.46-1.01
			c1.73,1.01,3.63,1.73,5.46,2.57c0.85,0.39,1.71,0.64,2.58,0.07C153.92,84.25,154.16,78.87,151.93,76.75z M141.81,71.52
			c0,0-0.16,0.8-1.13,0.73h-0.08c0,0-14.01-5.67-8.04-12.79C136.63,57.14,143.15,58.67,141.81,71.52z"/>
	</g>
	<path fill="#07485A" d="M458.66,202.66c0.06,1.99,0.66,4.15,0.09,5.93c-1.3,4.02-2.85,8.05-4.96,11.69
		c-1.29,2.22-3.55,2.74-5.74,0.95c-2.77-2.25-3.89-5.2-4.64-8.41c-2.11-8.97,0.56-17.72,1.35-26.55c0.21-2.39,0.61-4.77,1.05-7.12
		c0.09-0.47,0.74-0.84,1.13-1.26c0.3,0.44,0.89,0.91,0.86,1.33c-0.17,2.55-0.48,5.08-0.75,7.62c-0.57,5.26-1.37,10.5-1.63,15.78
		c-0.17,3.35,1.16,6.47,3.67,8.88c2.01,1.92,4.31,1.63,5.53-0.81c1.28-2.56,2.26-5.27,3.36-7.92
		C458.21,202.72,458.43,202.69,458.66,202.66z"/>
	<path fill="#07485A" d="M191.66,124.86c-1.31,3.06-2.23,6.01-3.76,8.6c-2.42,4.11-5.9,4.29-9.32,1.08
		c-3.19-2.99-3.92-6.61-3.76-10.77c0.12-3.08-0.52-6.19-0.38-9.27c0.12-2.54,0.89-5.06,1.37-7.59c0.43,0.03,0.86,0.07,1.3,0.1
		c0.16,2.73,0.59,5.47,0.43,8.17c-0.22,3.76-0.87,7.52,0.89,11.06c0.9,1.79,1.92,3.44,4.44,3.43c2.56-0.01,3.97-1.29,5.1-3.36
		c2.35-4.31,1.14-8.65,0.42-13.05c-0.45-2.75-0.48-5.56-0.69-8.35c0.39-0.06,0.77-0.13,1.16-0.19c1.38,4.26,2.71,8.54,4.16,12.78
		c1.42,4.14,3.77,7.6,8.24,8.77c1.26,0.33,2.91-0.23,4.16-0.84c0.29-0.14-0.12-2.24-0.56-3.28c-1.4-3.27-3.23-6.37-4.39-9.71
		c-0.76-2.19-0.64-4.69-0.95-7.35c0.84,0.22,1.35,0.22,1.42,0.39c2.17,5.08,4.68,10.07,6.28,15.33c0.85,2.79,0.48,6.14-0.03,9.11
		c-0.51,2.97-3.46,4.26-6.38,3.43c-4.13-1.17-6.58-4.21-8.62-7.71C192.04,125.4,191.86,125.16,191.66,124.86z"/>
	<path fill="#F37E21" d="M114.96,254.56c0.08,0.85,0.01,1.4,0.19,1.84c1.1,2.69-0.26,4.38-2.28,5.83c-2.31,1.66-4.64,3.28-6.92,4.98
		c-4.8,3.57-9.6,7.14-14.33,10.79c-4.29,3.31-8.51,6.72-12.75,10.09c-3.92,3.11-7.83,6.22-11.73,9.35
		c-1.97,1.58-3.89,3.21-6.12,5.05c-0.2-2.02-0.6-3.69-0.43-5.3c0.08-0.74,1.22-1.43,1.97-2.04c5.6-4.53,11.22-9.03,16.82-13.56
		c3.82-3.09,7.57-6.29,11.44-9.32c2.38-1.87,4.95-3.5,7.39-5.31c3.7-2.75,7.34-5.58,11.03-8.33
		C111.06,257.26,112.96,255.97,114.96,254.56z"/>
	<path fill="#0B8A9B" d="M228.48,173.84c-0.01-0.57-0.99-1.65-1.22-1.58c-0.75,0.24-1.79,0.8-1.97,1.44
		c-1.48,5.12-3.18,10.22-4.04,15.45c-1.21,7.43-1.57,15-2.65,22.46c-0.86,5.93-0.64,11.75,0.22,17.98c1.3-0.71,2.34-1.32,3.41-1.86
		c2.07-1.04,3.03-2.55,2.77-4.99c-0.22-2.13-0.07-4.31-0.05-6.77c-0.17-0.5-0.02-1.12,0.07-1.62c0.06-0.38,0.15-0.75,0.25-1.12
		c0.07-0.68,0.2-1.36,0.37-2.04c0.01-0.05,0.01-0.09,0.02-0.14c0.01-0.07,0.03-0.14,0.04-0.22c0.04-0.57,0.05-1.14,0.13-1.71
		c0.02-0.11,0.04-0.21,0.05-0.32c0.01-0.18,0.03-0.36,0.04-0.53c0.02-0.25,0.05-0.49,0.1-0.73c-0.02-0.01-0.03-0.02-0.05-0.02
		l0.98-11.15c0.03-0.06,0.05-0.12,0.08-0.18c0-0.01,0-0.03,0-0.04c0-0.17-0.01-0.35-0.01-0.52l0.29-3.29
		c0.06-0.29,0.11-0.57,0.16-0.86c-0.02-0.01-0.05-0.02-0.07-0.03c0.31-2.78,0.72-5.56,0.9-8.35
		C228.47,180.04,228.53,176.94,228.48,173.84z"/>
	<g>
		<path fill="#DE7929" d="M415.37,155.1c-0.45-0.8-1.03-1.47-1.86-1.9c-2.23-1.46-1.98-3.22-0.86-5.32c1.02-1.9,1.16-4.09,1.11-6.22
			c-0.12-4.94-4.8-7.83-8.86-5.3c-2.97,1.85-5.39,4.47-6.92,7.7c-1.19,2.5-0.26,5.94,1.9,7.82c0.18,0.2,0.35,0.42,0.55,0.59
			c4.29,3.76,4.28,3.75,0.13,7.7c-4.61,4.4-9.98,7.79-15.12,11.48c-1.97,0.88-3.72,2.12-5.43,3.42v0v0
			c-0.29,0.17-0.57,0.33-0.86,0.5c-2.95,1.71-5.62,3.89-8.67,5.44c-0.59,0.3-1.17,0.62-1.68,1.04c-0.78,0.64-2.27,0.81-1.72,2.09
			c0.51,1.17,1.71,0.52,2.75,0.4c0.34-0.12,0.87-0.3,1.21-0.42c0.45-0.3,1.01-0.41,1.5-0.63c5.62-2.56,10.82-5.82,15.69-9.61
			c3.12-1.79,5.94-4,8.65-6.36c0,0,0,0,0,0c3.43-2.49,6.62-5.22,9.15-8.66c0.93-1.24,1.9-1.18,3.07-0.25
			c1.06,0.84,2.26,1.5,3.4,2.23c0.53,0.34,1.08,0.59,1.72,0.29C416,160.3,416.67,156.73,415.37,155.1z M409.1,150.65
			c0,0-0.18,0.52-0.83,0.38l-0.06-0.01c0,0-8.83-5.11-4.17-9.31C407,140.56,411.21,142.19,409.1,150.65z"/>
	</g>
</g>
</svg>
