<svg width="17" height="16" viewBox="0 0 17 16" fill="none" xmlns="http://www.w3.org/2000/svg">
<path d="M8.49967 15.1666C4.54634 15.1666 1.33301 11.9533 1.33301 7.99992C1.33301 4.04659 4.54634 0.833252 8.49967 0.833252C12.453 0.833252 15.6663 4.04659 15.6663 7.99992C15.6663 11.9533 12.453 15.1666 8.49967 15.1666ZM8.49967 1.83325C5.09967 1.83325 2.33301 4.59992 2.33301 7.99992C2.33301 11.3999 5.09967 14.1666 8.49967 14.1666C11.8997 14.1666 14.6663 11.3999 14.6663 7.99992C14.6663 4.59992 11.8997 1.83325 8.49967 1.83325Z" fill="#989898"/>
<path d="M10.9731 10.6199C10.8864 10.6199 10.7998 10.5999 10.7198 10.5466L8.6531 9.31326C8.13977 9.00659 7.75977 8.33326 7.75977 7.73992V5.00659C7.75977 4.73326 7.98643 4.50659 8.25977 4.50659C8.5331 4.50659 8.75977 4.73326 8.75977 5.00659V7.73992C8.75977 7.97992 8.95977 8.33326 9.16643 8.45326L11.2331 9.68659C11.4731 9.82659 11.5464 10.1333 11.4064 10.3733C11.3064 10.5333 11.1398 10.6199 10.9731 10.6199Z" fill="#989898"/>
</svg>
