<?xml version="1.0" encoding="utf-8"?>
<!-- Generator: Adobe Illustrator 25.0.1, SVG Export Plug-In . SVG Version: 6.00 Build 0)  -->
<svg version="1.1" id="Layer_1" xmlns="http://www.w3.org/2000/svg" xmlns:xlink="http://www.w3.org/1999/xlink" x="0px" y="0px"
	 viewBox="0 0 1024 500" style="enable-background:new 0 0 1024 500;" xml:space="preserve">
<style type="text/css">
	.st0{fill:#101010;}
	.st1{clip-path:url(#SVGID_1_);fill:url(#SVGID_4_);}
	.st2{fill:#FFFFFF;}
	.st3{fill:url(#SVGID_5_);}
	.st4{fill:url(#SVGID_6_);}
	.st5{fill:url(#SVGID_7_);}
	.st6{fill:url(#SVGID_8_);}
	.st7{fill:url(#SVGID_9_);}
	.st8{fill:url(#SVGID_10_);}
	.st9{clip-path:url(#SVGID_11_);fill:url(#SVGID_12_);}
	.st10{fill:#9F695A;}
	.st11{fill:#FAC2B2;}
</style>
<g>
	<polygon points="207.8,207 207.8,212.5 162.5,212.5 162.5,243.3 192.8,243.3 192.8,248.8 162.5,248.8 162.5,287.4 207.8,287.4 
		207.8,293 148.1,293 148.1,207 	"/>
	<polygon points="223.9,207 238.3,207 238.3,287.4 281.5,287.4 281.5,293 223.9,293 	"/>
	<polygon points="539.9,207 548,207 604.3,269.8 604.9,269.8 604.9,207 611.2,207 611.2,295 607.9,295 546.9,225.1 546.4,225.1 
		546.4,293 539.9,293 	"/>
	<path d="M667.4,205l40.4,87.9h-14.7L680,264.3h-36.8L629.6,293h-7.3l41.5-87.9H667.4z M645.7,258.7h31.7l-15.6-34L645.7,258.7z"/>
	<path d="M719,207h29.7c5.2,0,9.7,0.6,13.6,1.7c3.9,1.1,7.2,2.7,9.8,4.6c2.6,2,4.6,4.4,5.9,7.1c1.3,2.8,2,5.8,2,9
		c0,2.7-0.5,5.2-1.5,7.5c-1,2.3-2.5,4.4-4.3,6.3c-1.9,1.9-4.1,3.5-6.7,4.9c-2.6,1.4-5.4,2.4-8.5,3.2l31.3,41.8h-16.8l-29.8-40.4
		h-10.1V293H719V207z M733.5,248.2h8.3c3.2,0,6.2-0.4,9-1.3c2.8-0.8,5.1-2.1,7.2-3.7c2-1.6,3.6-3.5,4.7-5.8c1.1-2.3,1.7-4.8,1.7-7.6
		c0-2.6-0.4-4.9-1.3-7c-0.9-2.1-2.1-4-3.7-5.5c-1.6-1.6-3.5-2.8-5.7-3.6c-2.2-0.9-4.7-1.3-7.3-1.3h-12.7V248.2z"/>
	<path d="M835.5,205l40.4,87.9h-14.7l-13.1-28.7h-36.8L797.7,293h-7.3l41.5-87.9H835.5z M813.8,258.7h31.7l-15.6-34L813.8,258.7z"/>
	
		<linearGradient id="SVGID_1_" gradientUnits="userSpaceOnUse" x1="-3430.0659" y1="614.9241" x2="-3428.6145" y2="614.9241" gradientTransform="matrix(164.8608 0 0 -164.8608 565773.625 101625.8438)">
		<stop  offset="0" style="stop-color:#9F695A"/>
		<stop  offset="0.126" style="stop-color:#BF8878"/>
		<stop  offset="0.2814" style="stop-color:#DFA898"/>
		<stop  offset="0.4117" style="stop-color:#F3BBAB"/>
		<stop  offset="0.5" style="stop-color:#FAC2B2"/>
		<stop  offset="0.5982" style="stop-color:#EEB7A7"/>
		<stop  offset="0.7739" style="stop-color:#CF9889"/>
		<stop  offset="1" style="stop-color:#9F695A"/>
	</linearGradient>
	<polygon style="fill:url(#SVGID_1_);" points="434.4,235.3 410,205 398.9,218.7 397.4,220.7 385.5,235.5 360.9,205 349.9,218.7 
		345.4,224.3 290.2,292.9 312.3,292.9 354.9,240 360.9,232.5 374.4,249.2 385.5,263 398.8,279.5 404.1,286.1 409.6,292.9 
		410.1,292.9 420.9,279.5 428.3,270.3 423.2,264 417.2,256.6 409.8,265.8 396.5,249.2 403.9,240.1 410,232.5 421.5,246.8 423.3,249 
		432.6,260.5 434.4,262.8 445.9,277.1 456.9,290.8 458.6,292.9 480.7,292.9 445.4,249 458.7,232.5 507.4,292.9 529.5,292.9 
		458.7,205 	"/>
	
		<linearGradient id="SVGID_4_" gradientUnits="userSpaceOnUse" x1="-3430.0659" y1="614.7672" x2="-3428.6145" y2="614.7672" gradientTransform="matrix(164.8608 0 0 -164.8608 565773.625 101625.8438)">
		<stop  offset="0" style="stop-color:#9F695A"/>
		<stop  offset="0.126" style="stop-color:#BF8878"/>
		<stop  offset="0.2814" style="stop-color:#DFA898"/>
		<stop  offset="0.4117" style="stop-color:#F3BBAB"/>
		<stop  offset="0.5" style="stop-color:#FAC2B2"/>
		<stop  offset="0.5982" style="stop-color:#EEB7A7"/>
		<stop  offset="0.7739" style="stop-color:#CF9889"/>
		<stop  offset="1" style="stop-color:#9F695A"/>
	</linearGradient>
	<polygon style="fill:url(#SVGID_4_);" points="368.3,256.8 339.3,292.9 361.4,292.9 379.4,270.5 370.4,259.4 	"/>
</g>
</svg>
