<svg width="24" height="25" viewBox="0 0 24 25" fill="none" xmlns="http://www.w3.org/2000/svg">
<g id="ic_Area">
<g id="vuesax/outline/maximize-3">
<g id="maximize-3">
<path id="Vector" d="M15 23.75H9C3.57 23.75 1.25 21.43 1.25 16V10C1.25 4.57 3.57 2.25 9 2.25H15C20.43 2.25 22.75 4.57 22.75 10V16C22.75 21.43 20.43 23.75 15 23.75ZM9 3.75C4.39 3.75 2.75 5.39 2.75 10V16C2.75 20.61 4.39 22.25 9 22.25H15C19.61 22.25 21.25 20.61 21.25 16V10C21.25 5.39 19.61 3.75 15 3.75H9Z" fill="#989898"/>
<path id="Vector_2" d="M6.00141 19.7499C5.81141 19.7499 5.62141 19.6799 5.47141 19.5299C5.18141 19.2399 5.18141 18.7599 5.47141 18.4699L17.4714 6.46994C17.7614 6.17994 18.2414 6.17994 18.5314 6.46994C18.8214 6.75994 18.8214 7.23994 18.5314 7.52994L6.53141 19.5299C6.38141 19.6799 6.19141 19.7499 6.00141 19.7499Z" fill="#989898"/>
<path id="Vector_3" d="M18 11.75C17.59 11.75 17.25 11.41 17.25 11V7.75H14C13.59 7.75 13.25 7.41 13.25 7C13.25 6.59 13.59 6.25 14 6.25H18C18.41 6.25 18.75 6.59 18.75 7V11C18.75 11.41 18.41 11.75 18 11.75Z" fill="#989898"/>
<path id="Vector_4" d="M10 19.75H6C5.59 19.75 5.25 19.41 5.25 19V15C5.25 14.59 5.59 14.25 6 14.25C6.41 14.25 6.75 14.59 6.75 15V18.25H10C10.41 18.25 10.75 18.59 10.75 19C10.75 19.41 10.41 19.75 10 19.75Z" fill="#989898"/>
</g>
</g>
</g>
</svg>
