<svg width="24" height="24" viewBox="0 0 24 24" fill="none" xmlns="http://www.w3.org/2000/svg">
<g id="ic_bed room">
<g id="Group">
<g id="Group_2">
<path id="Vector" d="M22.3338 15.3502L18.6705 8.00471V2.87904C18.6705 1.44995 17.3844 1.44995 16.7651 1.44995H7.23785C6.61856 1.44995 5.33238 1.44995 5.33238 2.87904V8.00471L1.61674 15.355C1.5548 15.4836 1.52148 15.6265 1.52148 15.7647V22.8863C1.52148 23.1484 1.73585 23.3627 1.99786 23.3627C2.25988 23.3627 2.4742 23.1484 2.4742 22.8863V22.41C2.4742 20.8094 6.65666 19.5518 12.0015 19.5518C17.3415 19.5518 21.5287 20.8094 21.5287 22.41V22.8863C21.5287 23.1484 21.7431 23.3627 22.0051 23.3627C22.2671 23.3627 22.4815 23.1484 22.4815 22.8863V15.7647C22.4815 15.5885 22.3957 15.4503 22.3338 15.3502ZM6.28509 2.87904C6.28509 2.55986 6.28509 2.40266 7.23781 2.40266H16.7651C17.7178 2.40266 17.7178 2.55986 17.7178 2.87904V7.6427H6.28509V2.87904ZM6.07551 8.64306C6.09458 8.62877 6.10887 8.61448 6.12316 8.59541H17.8751C17.8894 8.61448 17.9037 8.62877 17.9227 8.64306L21.462 15.7409H2.48849L6.07551 8.64306ZM21.5288 20.6665C19.7805 19.2517 15.8791 18.5991 12.0015 18.5991C9.33857 18.5991 6.84722 18.9039 4.9894 19.4517C3.79847 19.8042 3.00296 20.2234 2.4742 20.657V16.6936H21.5288V20.6665Z" fill="#989898"/>
</g>
</g>
</g>
</svg>
