<svg width="24" height="24" viewBox="0 0 24 24" fill="none" xmlns="http://www.w3.org/2000/svg">
    <path d="M13 22H5c-2 0-3-1-3-3v-8c0-2 1-3 3-3h5v11c0 2 1 3 3 3z" stroke="#989898" stroke-width="1.5" stroke-miterlimit="10" stroke-linecap="round" stroke-linejoin="round"/>
    <path opacity=".4" d="M14 8v5m4-5v5m-7.89-9c-.08.3-.11.63-.11 1v3H5V6c0-1.1.9-2 2-2h3.11z" stroke="#989898" stroke-width="1.5" stroke-miterlimit="10" stroke-linecap="round" stroke-linejoin="round"/>
    <path d="M17 17h-2c-.55 0-1 .45-1 1v4h4v-4c0-.55-.45-1-1-1z" stroke="#989898" stroke-width="1.5" stroke-miterlimit="10" stroke-linecap="round" stroke-linejoin="round"/>
    <path opacity=".4" d="M6 13v4" stroke="#989898" stroke-width="1.5" stroke-miterlimit="10" stroke-linecap="round" stroke-linejoin="round"/>
    <path d="M10 19V5c0-2 1-3 3-3h6c2 0 3 1 3 3v14c0 2-1 3-3 3h-6c-2 0-3-1-3-3z" stroke="#989898" stroke-width="1.5" stroke-miterlimit="10" stroke-linecap="round" stroke-linejoin="round"/>
</svg>
