<svg width="40" height="40" viewBox="0 0 40 40" fill="none" xmlns="http://www.w3.org/2000/svg">
<g clip-path="url(#clip0_2543_4994)">
<path d="M10.3152 14.2368H3.79956C3.13183 14.2368 2.58862 14.78 2.58862 15.4478V19.3749C2.58862 20.0426 3.13183 20.5858 3.79956 20.5858H10.3152C10.9829 20.5858 11.5261 20.0426 11.5261 19.3749V15.4478C11.5261 14.7801 10.9829 14.2368 10.3152 14.2368ZM10.3542 19.3749C10.3542 19.3964 10.3367 19.4139 10.3152 19.4139H3.79956C3.77808 19.4139 3.7605 19.3964 3.7605 19.3749V15.4478C3.7605 15.4262 3.77808 15.4087 3.79956 15.4087H10.3152C10.3367 15.4087 10.3542 15.4262 10.3542 15.4478V19.3749Z" fill="#7210FF"/>
<path d="M9.64586 22.0024H4.46875C4.14508 22.0024 3.88281 22.2648 3.88281 22.5884C3.88281 22.912 4.14508 23.1743 4.46875 23.1743H9.64586C9.96953 23.1743 10.2318 22.912 10.2318 22.5884C10.2318 22.2648 9.96945 22.0024 9.64586 22.0024Z" fill="#7210FF"/>
<path d="M8.35138 24.5913H5.76294C5.43927 24.5913 5.177 24.8537 5.177 25.1772C5.177 25.5008 5.43927 25.7632 5.76294 25.7632H8.35146C8.67513 25.7632 8.93739 25.5008 8.93739 25.1772C8.93731 24.8537 8.67505 24.5913 8.35138 24.5913Z" fill="#7210FF"/>
<path opacity="0.1" d="M20.6692 14.2368H14.1536C13.4858 14.2368 12.9426 14.78 12.9426 15.4478V19.3749C12.9426 20.0426 13.4858 20.5858 14.1536 20.5858H20.6692C21.3369 20.5858 21.8801 20.0426 21.8801 19.3749V15.4478C21.8801 14.7801 21.3369 14.2368 20.6692 14.2368ZM20.7083 19.3749C20.7083 19.3964 20.6907 19.4139 20.6692 19.4139H14.1536C14.1321 19.4139 14.1145 19.3964 14.1145 19.3749V15.4478C14.1145 15.4262 14.1321 15.4087 14.1536 15.4087H20.6692C20.6907 15.4087 20.7083 15.4262 20.7083 15.4478V19.3749Z" fill="#7210FF"/>
<path d="M19.9999 22.0024H14.8228C14.4991 22.0024 14.2368 22.2648 14.2368 22.5884C14.2368 22.912 14.4991 23.1743 14.8228 23.1743H19.9999C20.3236 23.1743 20.5859 22.912 20.5859 22.5884C20.5859 22.2648 20.3236 22.0024 19.9999 22.0024Z" fill="#7210FF"/>
<path opacity="0.1" d="M18.7057 24.5913H16.1172C15.7935 24.5913 15.5312 24.8537 15.5312 25.1772C15.5312 25.5008 15.7935 25.7632 16.1172 25.7632H18.7057C19.0294 25.7632 19.2916 25.5008 19.2916 25.1772C19.2916 24.8537 19.0293 24.5913 18.7057 24.5913Z" fill="#7210FF"/>
<path d="M32.2714 19.3749V15.4478C32.2714 14.78 31.7282 14.2368 31.0605 14.2368H24.5449C23.8772 14.2368 23.334 14.78 23.334 15.4478V19.3749C23.334 20.0426 23.8772 20.5858 24.5449 20.5858H31.0605C31.7282 20.5858 32.2714 20.0426 32.2714 19.3749ZM24.5059 19.3749V15.4478C24.5059 15.4262 24.5234 15.4087 24.5449 15.4087H31.0605C31.082 15.4087 31.0995 15.4262 31.0995 15.4478V19.3749C31.0995 19.3964 31.082 19.4139 31.0605 19.4139H24.5449C24.5234 19.4139 24.5059 19.3964 24.5059 19.3749Z" fill="#7210FF"/>
<path d="M30.9772 22.5884C30.9772 22.2648 30.7149 22.0024 30.3912 22.0024H25.2141C24.8904 22.0024 24.6282 22.2648 24.6282 22.5884C24.6282 22.912 24.8904 23.1743 25.2141 23.1743H30.3912C30.7148 23.1743 30.9772 22.912 30.9772 22.5884Z" fill="#7210FF"/>
<path d="M29.0969 24.5913H26.5083C26.1846 24.5913 25.9224 24.8537 25.9224 25.1772C25.9224 25.5008 26.1846 25.7632 26.5083 25.7632H29.0969C29.4206 25.7632 29.6828 25.5008 29.6828 25.1772C29.6828 24.8537 29.4206 24.5913 29.0969 24.5913Z" fill="#7210FF"/>
<path opacity="0.1" d="M34.8599 26.1502V5.76297C34.8599 4.01258 33.4359 2.58859 31.6855 2.58859H28.3516V1.88031C28.3516 0.843438 27.508 0 26.4713 0C25.4345 0 24.5912 0.843437 24.5912 1.88023V2.58852H10.2317V1.88023C10.2317 0.843437 9.38828 0 8.35148 0C7.31469 0 6.47133 0.843437 6.47133 1.88023V2.58852H3.17445C1.42406 2.58852 0 4.01258 0 5.76297V34.237C0 35.9874 1.42406 37.4114 3.17445 37.4114H8.51812C8.8418 37.4114 9.10406 37.1491 9.10406 36.8255C9.10406 36.5019 8.8418 36.2395 8.51812 36.2395H3.17445C2.07023 36.2395 1.17188 35.3413 1.17188 34.237V34.1093C1.71859 34.555 2.4157 34.8229 3.17445 34.8229H26.1402C26.2775 35.3191 26.4677 35.7934 26.7045 36.2395H10.8177C10.4941 36.2395 10.2318 36.5019 10.2318 36.8255C10.2318 37.1491 10.4941 37.4114 10.8177 37.4114H27.4846C28.7799 38.9906 30.7456 40 32.9427 40C36.8341 40 40 36.8341 40 32.9427C40 29.7156 37.8227 26.9876 34.8599 26.1502ZM26.4713 1.17188C26.862 1.17188 27.1797 1.48961 27.1797 1.88023V5.76305C27.1797 6.15359 26.862 6.47141 26.4713 6.47141C26.0808 6.47141 25.763 6.15367 25.763 5.76305V3.17602C25.763 3.17547 25.7631 3.175 25.7631 3.17453C25.7631 3.17406 25.763 1.88031 25.763 1.88031C25.763 1.48961 26.0808 1.17188 26.4713 1.17188ZM7.6432 1.88023C7.6432 1.48961 7.96094 1.17188 8.35148 1.17188C8.74203 1.17188 9.05976 1.48961 9.05976 1.88023V5.76305C9.05976 6.15359 8.74203 6.47141 8.35148 6.47141C7.96094 6.47141 7.6432 6.15367 7.6432 5.76305V1.88023ZM3.17445 3.76039H6.47133V5.17703H5.76305C5.43937 5.17703 5.17711 5.43937 5.17711 5.76297C5.17711 6.08656 5.43937 6.34891 5.76305 6.34891H6.56531C6.81219 7.09953 7.51937 7.6432 8.35156 7.6432C9.18375 7.6432 9.89094 7.09953 10.1377 6.34891H10.9401C11.2638 6.34891 11.526 6.08656 11.526 5.76297C11.526 5.43937 11.2638 5.17703 10.9401 5.17703H10.2317V3.76039H24.5912V5.17703H23.8828C23.5591 5.17703 23.2969 5.43937 23.2969 5.76297C23.2969 6.08656 23.5591 6.34891 23.8828 6.34891H24.6851C24.932 7.09953 25.6391 7.6432 26.4713 7.6432C27.3034 7.6432 28.0106 7.09953 28.2576 6.34891H29.0598C29.3835 6.34891 29.6458 6.08656 29.6458 5.76297C29.6458 5.43937 29.3835 5.17703 29.0598 5.17703H28.3516V3.76039H31.6855C32.7897 3.76039 33.688 4.65875 33.688 5.76289V9.05984H27.6432C27.3195 9.05984 27.0573 9.32219 27.0573 9.64578C27.0573 9.96938 27.3195 10.2317 27.6432 10.2317H33.688V11.6484H1.17188V10.2318H25.2995C25.6231 10.2318 25.8854 9.96945 25.8854 9.64586C25.8854 9.32227 25.6231 9.05992 25.2995 9.05992H1.17188V5.76297C1.17188 4.65875 2.07023 3.76039 3.17445 3.76039ZM3.17445 33.651C2.07023 33.651 1.17188 32.7527 1.17188 31.6484V12.8203H33.688V25.9248C33.443 25.8989 33.1945 25.8854 32.9427 25.8854C29.0512 25.8854 25.8854 29.0512 25.8854 32.9427C25.8854 33.1817 25.8975 33.418 25.9208 33.6509H3.17445V33.651ZM32.9427 38.8281C29.6975 38.8281 27.0573 36.188 27.0573 32.9427C27.0573 29.6975 29.6975 27.0573 32.9427 27.0573C36.188 27.0573 38.8281 29.6975 38.8281 32.9427C38.8281 36.188 36.188 38.8281 32.9427 38.8281Z" fill="#7210FF"/>
<path d="M36.9214 31.1121C36.9214 30.7828 36.793 30.4731 36.5602 30.2403L35.645 29.325C35.1642 28.8443 34.382 28.8443 33.9012 29.325L33.9012 29.3251L32.9427 30.2836L31.9842 29.3251C31.7514 29.0922 31.4417 28.9639 31.1122 28.9639C30.7829 28.9639 30.4732 29.0921 30.2404 29.325L29.3251 30.2403C28.8444 30.721 28.8444 31.5033 29.3252 31.9841L30.2837 32.9425L29.3251 33.9011C28.8444 34.3818 28.8444 35.1641 29.3251 35.6448L30.2403 36.56C30.4731 36.7929 30.7828 36.9212 31.1122 36.9212C31.4416 36.9212 31.7513 36.7929 31.9841 36.56L32.9426 35.6016L33.9011 36.56C34.1339 36.7929 34.4436 36.9213 34.773 36.9213C35.1024 36.9213 35.4121 36.793 35.6448 36.5601L36.5601 35.6449C37.0408 35.1642 37.0408 34.3819 36.5601 33.9011L35.6016 32.9426L36.5601 31.9842C36.793 31.7512 36.9214 31.4415 36.9214 31.1121ZM35.7315 31.1554L34.3587 32.5282C34.1299 32.757 34.1299 33.128 34.3587 33.3568L35.7315 34.7295C35.7554 34.7534 35.7554 34.7922 35.7315 34.8161L34.8162 35.7313C34.7923 35.755 34.7535 35.755 34.7298 35.7312L33.3571 34.3584C33.2472 34.2485 33.0982 34.1868 32.9427 34.1868C32.7873 34.1868 32.6383 34.2485 32.5283 34.3584L31.1555 35.7312C31.1318 35.7549 31.093 35.755 31.069 35.7311L30.1539 34.8162C30.13 34.7923 30.13 34.7535 30.1539 34.7296L31.5267 33.3568C31.6365 33.247 31.6983 33.0979 31.6983 32.9425C31.6983 32.7871 31.6365 32.6381 31.5266 32.5282L30.1539 31.1555C30.13 31.1316 30.13 31.0928 30.1539 31.0689L31.0691 30.1537C31.093 30.13 31.1319 30.13 31.1555 30.1537L32.5283 31.5265C32.6383 31.6364 32.7872 31.6982 32.9427 31.6982C33.0981 31.6982 33.2472 31.6364 33.3571 31.5265L34.7298 30.1537C34.7537 30.1298 34.7926 30.1299 34.8163 30.1537L35.7315 31.069C35.7434 31.0809 35.7495 31.0954 35.7495 31.1122C35.7495 31.1289 35.7435 31.1435 35.7315 31.1554Z" fill="#7210FF"/>
</g>
<defs>
<clipPath id="clip0_2543_4994">
<rect width="40" height="40" fill="white"/>
</clipPath>
</defs>
</svg>
