<svg width="24" height="24" viewBox="0 0 24 24" fill="none" xmlns="http://www.w3.org/2000/svg">
    <g clip-path="url(#jd2iecw5ba)">
        <path d="M14.25 3H2.75C1.23 3 0 4.23 0 5.75v12.5C0 19.77 1.23 21 2.75 21h7.38l.22-1.23c.101-.56.36-1.06.761-1.47l1.3-1.3H3.75c-.41 0-.75-.34-.75-.75s.34-.75.75-.75h9.5c.18 0 .35.07.48.18L17 12.42V5.75C17 4.23 15.77 3 14.25 3zm-1 10.75h-9.5c-.41 0-.75-.34-.75-.75s.34-.75.75-.75h9.5c.41 0 .75.34.75.75s-.34.75-.75.75zm0-3.25h-9.5c-.41 0-.75-.34-.75-.75S3.34 9 3.75 9h9.5c.41 0 .75.34.75.75s-.34.75-.75.75z" fill="#2196F3"/>
        <path d="M12.25 2h-1.1C10.82.85 9.76 0 8.5 0S6.18.85 5.85 2h-1.1c-.41 0-.75.34-.75.75v2c0 .96.79 1.75 1.75 1.75h5.5c.96 0 1.75-.79 1.75-1.75v-2c0-.41-.34-.75-.75-.75z" fill="#1976D2"/>
        <path d="M14 9.75c0 .41-.34.75-.75.75h-9.5c-.41 0-.75-.34-.75-.75S3.34 9 3.75 9h9.5c.41 0 .75.34.75.75zM14 13c0 .41-.34.75-.75.75h-9.5c-.41 0-.75-.34-.75-.75s.34-.75.75-.75h9.5c.41 0 .75.34.75.75zm-.27 2.68L12.41 17H3.75c-.41 0-.75-.34-.75-.75s.34-.75.75-.75h9.5c.18 0 .35.07.48.18z" fill="#fff"/>
        <path d="M4 3H2.75C1.23 3 0 4.23 0 5.75v12.5C0 19.77 1.23 21 2.75 21H8.5v-4H3.75c-.41 0-.75-.34-.75-.75s.34-.75.75-.75H8.5v-1.75H3.75c-.41 0-.75-.34-.75-.75s.34-.75.75-.75H8.5V10.5H3.75c-.41 0-.75-.34-.75-.75S3.34 9 3.75 9H8.5V6.5H5.75C4.79 6.5 4 5.71 4 4.75V3z" fill="#1D83D4"/>
        <path d="M8.5 0C7.24 0 6.18.85 5.85 2h-1.1c-.41 0-.75.34-.75.75v2c0 .96.79 1.75 1.75 1.75H8.5V0z" fill="#1667B7"/>
        <path d="M8.5 9H3.75c-.41 0-.75.34-.75.75s.34.75.75.75H8.5V9zm0 3.25H3.75c-.41 0-.75.34-.75.75s.34.75.75.75H8.5v-1.5zm0 3.25H3.75c-.41 0-.75.34-.75.75s.34.75.75.75H8.5v-1.5z" fill="#DEDEDE"/>
        <path d="M12.527 24a.749.749 0 0 1-.738-.881l.53-3.005c.027-.151.1-.29.208-.399l7.425-7.425c.912-.913 1.808-.667 2.298-.177l1.237 1.237a1.75 1.75 0 0 1 0 2.475l-7.425 7.425a.748.748 0 0 1-.4.209l-3.005.529-.13.012z" fill="#FFC107"/>
        <path d="M21.23 11.675c-.392 0-.833.17-1.278.615l-7.425 7.425a.746.746 0 0 0-.208.399l-.53 3.005a.748.748 0 0 0 .208.661l.023.022 10.959-10.96-.73-.73a1.45 1.45 0 0 0-1.019-.437z" fill="#DEA806"/>
    </g>
    <defs>
        <clipPath id="jd2iecw5ba">
            <path fill="#fff" d="M0 0h24v24H0z"/>
        </clipPath>
    </defs>
</svg>
