<svg width="20" height="20" viewBox="0 0 20 20" fill="none" xmlns="http://www.w3.org/2000/svg">
    <path d="M6.667 1.667v2.5m6.666-2.5v2.5M2.917 7.575h14.166m-1.191 9.183L14.125 15m1.75.017-1.767 1.766M15 19.167a3.333 3.333 0 1 0 0-6.667 3.333 3.333 0 0 0 0 6.667z" stroke="#989898" stroke-width="1.5" stroke-miterlimit="10" stroke-linecap="round" stroke-linejoin="round"/>
    <path d="M17.5 7.083v6.55a3.332 3.332 0 0 0-5.833 2.2c0 .625.175 1.217.483 1.717.175.3.4.567.658.783H6.667c-2.917 0-4.167-1.666-4.167-4.166V7.083c0-2.5 1.25-4.166 4.167-4.166h6.666c2.917 0 4.167 1.666 4.167 4.166z" stroke="#989898" stroke-width="1.5" stroke-miterlimit="10" stroke-linecap="round" stroke-linejoin="round"/>
    <path d="M9.996 11.417h.008m-3.092 0h.008m-.008 2.5h.008" stroke="#989898" stroke-width="2" stroke-linecap="round" stroke-linejoin="round"/>
</svg>
