<svg width="24" height="24" viewBox="0 0 24 24" fill="none" xmlns="http://www.w3.org/2000/svg">
    <g clip-path="url(#woh72yxyva)" fill="#989898">
        <path opacity=".4" d="m18.47 16.83.39 3.16a1 1 0 0 1-1.5.98l-4.19-2.49c-.451 0-.902-.03-1.35-.09.758-.879 1.177-2 1.18-3.16a5.327 5.327 0 0 0-5.5-5.14 5.682 5.682 0 0 0-3.12.91 6.337 6.337 0 0 1-.04-.76C4.34 5.69 8.29 2 13.17 2S22 5.69 22 10.24a8.054 8.054 0 0 1-3.53 6.59z"/>
        <path d="M13 15.23a4.86 4.86 0 0 1-1.18 3.16 5.584 5.584 0 0 1-4.32 1.97l-2.61 1.55a.625.625 0 0 1-.94-.61l.25-1.97a4.988 4.988 0 0 1-2.2-4.1A5.023 5.023 0 0 1 4.38 11c.93-.6 2.014-.917 3.12-.91a5.327 5.327 0 0 1 5.5 5.14z"/>
    </g>
    <defs>
        <clipPath id="woh72yxyva">
            <path fill="#fff" d="M0 0h24v24H0z"/>
        </clipPath>
    </defs>
</svg>
