<svg width="120" height="120" viewBox="0 0 120 120" fill="none" xmlns="http://www.w3.org/2000/svg">
<g clip-path="url(#clip0_695_3595)">
<path d="M70 31.4219H72.8571C73.236 31.4219 73.5994 31.2713 73.8674 31.0034C74.1353 30.7355 74.2858 30.3721 74.2858 29.9932C74.2858 29.6142 74.1353 29.2508 73.8674 28.9829C73.5994 28.715 73.236 28.5645 72.8571 28.5645H70C69.6211 28.5645 69.2577 28.715 68.9897 28.9829C68.7218 29.2508 68.5713 29.6142 68.5713 29.9932C68.5713 30.3721 68.7218 30.7355 68.9897 31.0034C69.2577 31.2713 69.6211 31.4219 70 31.4219Z" fill="#7210FF"/>
<path d="M78.5713 31.4219H81.4284C81.8073 31.4219 82.1707 31.2713 82.4387 31.0034C82.7066 30.7355 82.8571 30.3721 82.8571 29.9932C82.8571 29.6142 82.7066 29.2508 82.4387 28.9829C82.1707 28.715 81.8073 28.5645 81.4284 28.5645H78.5713C78.1924 28.5645 77.829 28.715 77.561 28.9829C77.2931 29.2508 77.1426 29.6142 77.1426 29.9932C77.1426 30.3721 77.2931 30.7355 77.561 31.0034C77.829 31.2713 78.1924 31.4219 78.5713 31.4219Z" fill="#989898"/>
<path d="M87.1431 31.4219H90.0002C90.3791 31.4219 90.7425 31.2713 91.0104 31.0034C91.2784 30.7355 91.4289 30.3721 91.4289 29.9932C91.4289 29.6142 91.2784 29.2508 91.0104 28.9829C90.7425 28.715 90.3791 28.5645 90.0002 28.5645H87.1431C86.7641 28.5645 86.4007 28.715 86.1328 28.9829C85.8649 29.2508 85.7144 29.6142 85.7144 29.9932C85.7144 30.3721 85.8649 30.7355 86.1328 31.0034C86.4007 31.2713 86.7641 31.4219 87.1431 31.4219Z" fill="#7210FF"/>
<path d="M95.7143 31.4219H98.5714C98.9503 31.4219 99.3137 31.2713 99.5816 31.0034C99.8496 30.7355 100 30.3721 100 29.9932C100 29.6142 99.8496 29.2508 99.5816 28.9829C99.3137 28.715 98.9503 28.5645 98.5714 28.5645H95.7143C95.3353 28.5645 94.9719 28.715 94.704 28.9829C94.4361 29.2508 94.2856 29.6142 94.2856 29.9932C94.2856 30.3721 94.4361 30.7355 94.704 31.0034C94.9719 31.2713 95.3353 31.4219 95.7143 31.4219ZM70 37.1366H72.8571C73.236 37.1366 73.5994 36.9861 73.8673 36.7182C74.1353 36.4502 74.2858 36.0869 74.2858 35.7079C74.2858 35.329 74.1353 34.9656 73.8673 34.6977C73.5994 34.4298 73.236 34.2793 72.8571 34.2793H70C69.6211 34.2793 69.2577 34.4298 68.9897 34.6977C68.7218 34.9656 68.5713 35.329 68.5713 35.7079C68.5713 36.0869 68.7218 36.4502 68.9897 36.7182C69.2577 36.9861 69.6211 37.1366 70 37.1366Z" fill="#989898"/>
<path d="M78.5713 37.1367H81.4284C81.8073 37.1367 82.1707 36.9861 82.4386 36.7182C82.7066 36.4503 82.8571 36.0869 82.8571 35.708C82.8571 35.3291 82.7066 34.9657 82.4386 34.6977C82.1707 34.4298 81.8073 34.2793 81.4284 34.2793H78.5713C78.1923 34.2793 77.829 34.4298 77.561 34.6977C77.2931 34.9657 77.1426 35.3291 77.1426 35.708C77.1426 36.0869 77.2931 36.4503 77.561 36.7182C77.829 36.9861 78.1923 37.1367 78.5713 37.1367Z" fill="#7210FF"/>
<path d="M87.143 37.1367H90.0002C90.3791 37.1367 90.7425 36.9861 91.0104 36.7182C91.2783 36.4503 91.4289 36.0869 91.4289 35.708C91.4289 35.3291 91.2783 34.9657 91.0104 34.6977C90.7425 34.4298 90.3791 34.2793 90.0002 34.2793H87.143C86.7641 34.2793 86.4007 34.4298 86.1328 34.6977C85.8649 34.9657 85.7144 35.3291 85.7144 35.708C85.7144 36.0869 85.8649 36.4503 86.1328 36.7182C86.4007 36.9861 86.7641 37.1367 87.143 37.1367Z" fill="#989898"/>
<path d="M95.7143 37.1367H98.5714C98.9503 37.1367 99.3137 36.9861 99.5817 36.7182C99.8496 36.4503 100 36.0869 100 35.708C100 35.3291 99.8496 34.9657 99.5817 34.6977C99.3137 34.4298 98.9503 34.2793 98.5714 34.2793H95.7143C95.3354 34.2793 94.972 34.4298 94.704 34.6977C94.4361 34.9657 94.2856 35.3291 94.2856 35.708C94.2856 36.0869 94.4361 36.4503 94.704 36.7182C94.972 36.9861 95.3354 37.1367 95.7143 37.1367ZM70 42.8515H72.8571C73.2361 42.8515 73.5994 42.7009 73.8674 42.433C74.1353 42.1651 74.2858 41.8017 74.2858 41.4228C74.2858 41.0438 74.1353 40.6805 73.8674 40.4125C73.5994 40.1446 73.2361 39.9941 72.8571 39.9941H70C69.6211 39.9941 69.2577 40.1446 68.9897 40.4125C68.7218 40.6805 68.5713 41.0438 68.5713 41.4228C68.5713 41.8017 68.7218 42.1651 68.9897 42.433C69.2577 42.7009 69.6211 42.8515 70 42.8515Z" fill="#7210FF"/>
<path d="M78.5713 42.8515H81.4284C81.8073 42.8515 82.1707 42.701 82.4387 42.4331C82.7066 42.1652 82.8571 41.8018 82.8571 41.4228C82.8571 41.0439 82.7066 40.6805 82.4387 40.4126C82.1707 40.1447 81.8073 39.9941 81.4284 39.9941H78.5713C78.1924 39.9941 77.829 40.1447 77.561 40.4126C77.2931 40.6805 77.1426 41.0439 77.1426 41.4228C77.1426 41.8018 77.2931 42.1652 77.561 42.4331C77.829 42.701 78.1924 42.8515 78.5713 42.8515Z" fill="#989898"/>
<path d="M87.1431 42.8515H90.0002C90.3791 42.8515 90.7425 42.701 91.0104 42.4331C91.2784 42.1652 91.4289 41.8018 91.4289 41.4228C91.4289 41.0439 91.2784 40.6805 91.0104 40.4126C90.7425 40.1447 90.3791 39.9941 90.0002 39.9941H87.1431C86.7641 39.9941 86.4007 40.1447 86.1328 40.4126C85.8649 40.6805 85.7144 41.0439 85.7144 41.4228C85.7144 41.8018 85.8649 42.1652 86.1328 42.4331C86.4007 42.701 86.7641 42.8515 87.1431 42.8515Z" fill="#7210FF"/>
<path d="M95.7143 42.8515H98.5714C98.9503 42.8515 99.3137 42.701 99.5817 42.4331C99.8496 42.1652 100 41.8018 100 41.4228C100 41.0439 99.8496 40.6805 99.5817 40.4126C99.3137 40.1447 98.9503 39.9941 98.5714 39.9941H95.7143C95.3354 39.9941 94.972 40.1447 94.704 40.4126C94.4361 40.6805 94.2856 41.0439 94.2856 41.4228C94.2856 41.8018 94.4361 42.1652 94.704 42.4331C94.972 42.701 95.3354 42.8515 95.7143 42.8515ZM70 48.5664H72.8571C73.2361 48.5664 73.5994 48.4158 73.8674 48.1479C74.1353 47.88 74.2858 47.5166 74.2858 47.1377C74.2858 46.7587 74.1353 46.3953 73.8674 46.1274C73.5994 45.8595 73.2361 45.7089 72.8571 45.7089H70C69.6211 45.7089 69.2577 45.8595 68.9897 46.1274C68.7218 46.3953 68.5713 46.7587 68.5713 47.1377C68.5713 47.5166 68.7218 47.88 68.9897 48.1479C69.2577 48.4158 69.6211 48.5664 70 48.5664Z" fill="#989898"/>
<path d="M78.5713 48.5664H81.4284C81.8073 48.5664 82.1707 48.4159 82.4387 48.1479C82.7066 47.88 82.8571 47.5166 82.8571 47.1377C82.8571 46.7588 82.7066 46.3954 82.4387 46.1274C82.1707 45.8595 81.8073 45.709 81.4284 45.709H78.5713C78.1924 45.709 77.829 45.8595 77.561 46.1274C77.2931 46.3954 77.1426 46.7588 77.1426 47.1377C77.1426 47.5166 77.2931 47.88 77.561 48.1479C77.829 48.4159 78.1924 48.5664 78.5713 48.5664Z" fill="#7210FF"/>
<path d="M87.1431 48.5664H90.0002C90.3791 48.5664 90.7425 48.4159 91.0104 48.1479C91.2784 47.88 91.4289 47.5166 91.4289 47.1377C91.4289 46.7588 91.2784 46.3954 91.0104 46.1274C90.7425 45.8595 90.3791 45.709 90.0002 45.709H87.1431C86.7641 45.709 86.4007 45.8595 86.1328 46.1274C85.8649 46.3954 85.7144 46.7588 85.7144 47.1377C85.7144 47.5166 85.8649 47.88 86.1328 48.1479C86.4007 48.4159 86.7641 48.5664 87.1431 48.5664Z" fill="#989898"/>
<path d="M95.7143 48.5664H98.5714C98.9503 48.5664 99.3137 48.4159 99.5817 48.1479C99.8496 47.88 100 47.5166 100 47.1377C100 46.7588 99.8496 46.3954 99.5817 46.1274C99.3137 45.8595 98.9503 45.709 98.5714 45.709H95.7143C95.3354 45.709 94.972 45.8595 94.704 46.1274C94.4361 46.3954 94.2856 46.7588 94.2856 47.1377C94.2856 47.5166 94.4361 47.88 94.704 48.1479C94.972 48.4159 95.3354 48.5664 95.7143 48.5664ZM70 54.2812H72.8571C73.2361 54.2812 73.5994 54.1307 73.8674 53.8627C74.1353 53.5948 74.2858 53.2314 74.2858 52.8525C74.2858 52.4736 74.1353 52.1102 73.8674 51.8423C73.5994 51.5743 73.2361 51.4238 72.8571 51.4238H70C69.6211 51.4238 69.2577 51.5743 68.9897 51.8423C68.7218 52.1102 68.5713 52.4736 68.5713 52.8525C68.5713 53.2314 68.7218 53.5948 68.9897 53.8627C69.2577 54.1307 69.6211 54.2812 70 54.2812Z" fill="#7210FF"/>
<path d="M78.5713 54.2807H81.4284C81.8073 54.2807 82.1707 54.1302 82.4387 53.8623C82.7066 53.5944 82.8571 53.231 82.8571 52.852C82.8571 52.4731 82.7066 52.1097 82.4387 51.8418C82.1707 51.5739 81.8073 51.4233 81.4284 51.4233H78.5713C78.1924 51.4233 77.829 51.5739 77.561 51.8418C77.2931 52.1097 77.1426 52.4731 77.1426 52.852C77.1426 53.231 77.2931 53.5944 77.561 53.8623C77.829 54.1302 78.1924 54.2807 78.5713 54.2807Z" fill="#989898"/>
<path d="M87.1431 54.2807H90.0002C90.3791 54.2807 90.7425 54.1302 91.0104 53.8623C91.2784 53.5944 91.4289 53.231 91.4289 52.852C91.4289 52.4731 91.2784 52.1097 91.0104 51.8418C90.7425 51.5739 90.3791 51.4233 90.0002 51.4233H87.1431C86.7641 51.4233 86.4007 51.5739 86.1328 51.8418C85.8649 52.1097 85.7144 52.4731 85.7144 52.852C85.7144 53.231 85.8649 53.5944 86.1328 53.8623C86.4007 54.1302 86.7641 54.2807 87.1431 54.2807Z" fill="#7210FF"/>
<path d="M95.7143 54.2807H98.5714C98.9503 54.2807 99.3137 54.1302 99.5817 53.8623C99.8496 53.5944 100 53.231 100 52.852C100 52.4731 99.8496 52.1097 99.5817 51.8418C99.3137 51.5739 98.9503 51.4233 98.5714 51.4233H95.7143C95.3354 51.4233 94.972 51.5739 94.704 51.8418C94.4361 52.1097 94.2856 52.4731 94.2856 52.852C94.2856 53.231 94.4361 53.5944 94.704 53.8623C94.972 54.1302 95.3354 54.2807 95.7143 54.2807ZM70 59.9956H72.8571C73.2361 59.9956 73.5994 59.845 73.8674 59.5771C74.1353 59.3092 74.2858 58.9458 74.2858 58.5669C74.2858 58.1879 74.1353 57.8245 73.8674 57.5566C73.5994 57.2887 73.2361 57.1381 72.8571 57.1381H70C69.6211 57.1381 69.2577 57.2887 68.9897 57.5566C68.7218 57.8245 68.5713 58.1879 68.5713 58.5669C68.5713 58.9458 68.7218 59.3092 68.9897 59.5771C69.2577 59.845 69.6211 59.9956 70 59.9956Z" fill="#989898"/>
<path d="M78.5713 59.9956H81.4284C81.8073 59.9956 82.1707 59.8451 82.4387 59.5771C82.7066 59.3092 82.8571 58.9458 82.8571 58.5669C82.8571 58.188 82.7066 57.8246 82.4387 57.5566C82.1707 57.2887 81.8073 57.1382 81.4284 57.1382H78.5713C78.1924 57.1382 77.829 57.2887 77.561 57.5566C77.2931 57.8246 77.1426 58.188 77.1426 58.5669C77.1426 58.9458 77.2931 59.3092 77.561 59.5771C77.829 59.8451 78.1924 59.9956 78.5713 59.9956Z" fill="#7210FF"/>
<path d="M87.1431 59.9956H90.0002C90.3791 59.9956 90.7425 59.8451 91.0104 59.5771C91.2784 59.3092 91.4289 58.9458 91.4289 58.5669C91.4289 58.188 91.2784 57.8246 91.0104 57.5566C90.7425 57.2887 90.3791 57.1382 90.0002 57.1382H87.1431C86.7641 57.1382 86.4007 57.2887 86.1328 57.5566C85.8649 57.8246 85.7144 58.188 85.7144 58.5669C85.7144 58.9458 85.8649 59.3092 86.1328 59.5771C86.4007 59.8451 86.7641 59.9956 87.1431 59.9956Z" fill="#989898"/>
<path d="M95.7145 59.9956H98.5716C98.9505 59.9956 99.3139 59.8451 99.5819 59.5771C99.8498 59.3092 100 58.9458 100 58.5669C100 58.188 99.8498 57.8246 99.5819 57.5566C99.3139 57.2887 98.9505 57.1382 98.5716 57.1382H95.7145C95.3356 57.1382 94.9722 57.2887 94.7042 57.5566C94.4363 57.8246 94.2858 58.188 94.2858 58.5669C94.2858 58.9458 94.4363 59.3092 94.7042 59.5771C94.9722 59.8451 95.3356 59.9956 95.7145 59.9956ZM87.1431 65.7104H90.0002C90.3791 65.7104 90.7425 65.5599 91.0104 65.2919C91.2784 65.024 91.4289 64.6606 91.4289 64.2817C91.4289 63.9028 91.2784 63.5394 91.0104 63.2714C90.7425 63.0035 90.3791 62.853 90.0002 62.853H87.1431C86.7641 62.853 86.4007 63.0035 86.1328 63.2714C85.8649 63.5394 85.7144 63.9028 85.7144 64.2817C85.7144 64.6606 85.8649 65.024 86.1328 65.2919C86.4007 65.5599 86.7641 65.7104 87.1431 65.7104Z" fill="#7210FF"/>
<path d="M95.7141 65.7104H98.5713C98.9502 65.7104 99.3136 65.5599 99.5815 65.292C99.8495 65.024 100 64.6606 100 64.2817C100 63.9028 99.8495 63.5394 99.5815 63.2715C99.3136 63.0036 98.9502 62.853 98.5713 62.853H95.7141C95.3352 62.853 94.9718 63.0036 94.7039 63.2715C94.436 63.5394 94.2854 63.9028 94.2854 64.2817C94.2854 64.6606 94.436 65.024 94.7039 65.292C94.9718 65.5599 95.3352 65.7104 95.7141 65.7104ZM81.4284 62.853H78.5713C78.3626 62.8536 78.1566 62.9003 77.9679 62.9896C77.7793 63.079 77.6127 63.2088 77.48 63.3699L82.5756 65.1258C82.7334 64.9137 82.829 64.6619 82.8517 64.3986C82.8745 64.1353 82.8234 63.8708 82.7043 63.6349C82.5852 63.399 82.4028 63.2008 82.1774 63.0627C81.9521 62.9246 81.6927 62.852 81.4284 62.853Z" fill="#989898"/>
<path d="M98.5715 68.5679H95.7144C95.4731 68.5682 95.2358 68.6298 95.0249 68.7469C94.8139 68.864 94.6361 69.0328 94.5083 69.2375L99.5952 70.9903C99.7912 70.7892 99.9234 70.5348 99.9754 70.2589C100.027 69.983 99.9968 69.6979 99.8876 69.4393C99.7783 69.1807 99.5951 68.96 99.361 68.805C99.1269 68.65 98.8523 68.5675 98.5715 68.5679Z" fill="#7210FF"/>
<path d="M104.438 23.572C104.438 23.572 64.4384 19.2859 64.4313 19.2859C64.0532 19.2599 63.6787 19.3728 63.3779 19.6033L54.8065 26.6568C54.6437 26.7909 54.5125 26.9594 54.4225 27.1501C54.3325 27.3409 54.2858 27.5492 54.2858 27.7601V35.5466C49.0184 34.9822 35.8774 33.5742 35.8585 33.5729C35.4808 33.5461 35.1064 33.6591 34.8065 33.8903L26.2351 40.9438C26.0722 41.0779 25.9411 41.2464 25.8511 41.4371C25.761 41.6279 25.7144 41.8362 25.7144 42.0471V58.2367L28.5715 56.0529V42.7217L34.2858 38.0195V51.685L35.3447 50.8756C35.8737 50.4727 36.4894 50.1987 37.1429 50.0753V36.5834L54.2858 38.4205V55.3777L57.1429 56.3622V28.4347L62.8572 23.7325V58.3313L65.7144 59.3158V22.2964L102.857 26.2766V72.1146L105.682 73.0878C105.693 73.0917 105.703 73.0976 105.714 73.1016V24.9927C105.714 24.6401 105.584 24.3 105.348 24.0377C105.113 23.7754 104.788 23.6096 104.438 23.572Z" fill="#989898"/>
<path d="M64.9998 92.8558C65.3787 92.8557 65.742 92.7052 66.0099 92.4373C66.2778 92.1694 66.4284 91.806 66.4284 91.4271V83.5693C66.4284 83.2694 66.334 82.9771 66.1587 82.7339C65.9833 82.4906 65.7359 82.3086 65.4514 82.2138L44.0229 75.0703C43.8081 74.9987 43.5794 74.9792 43.3557 75.0134C43.1319 75.0475 42.9194 75.1344 42.7358 75.2667C42.5522 75.3991 42.4027 75.5732 42.2995 75.7747C42.1964 75.9762 42.1426 76.1993 42.1426 76.4257V91.4271C42.1427 91.806 42.2932 92.1694 42.5611 92.4373C42.829 92.7052 43.1923 92.8558 43.5712 92.8558L64.9998 92.8558ZM55.7141 81.9797L63.5712 84.5989V89.9984H55.7141V81.9797ZM44.9998 78.408L52.8569 81.0272V89.9984H44.9998V78.408ZM30.7141 89.9984C30.7141 90.3773 30.8646 90.7406 31.1325 91.0086C31.4004 91.2765 31.7638 91.427 32.1426 91.427C32.5215 91.427 32.8849 91.2765 33.1528 91.0086C33.4207 90.7406 33.5712 90.3773 33.5712 89.9984V75.7114C33.5713 75.4451 33.4969 75.1841 33.3565 74.9579C33.2161 74.7317 33.0152 74.5492 32.7766 74.431C32.538 74.3129 32.2711 74.2638 32.0061 74.2893C31.741 74.3148 31.4884 74.4138 31.2766 74.5753L20.502 82.7904C20.3271 82.9236 20.1853 83.0954 20.0877 83.2925C19.9901 83.4896 19.9394 83.7065 19.9395 83.9264V105C19.9395 105.379 20.09 105.742 20.3579 106.01C20.6258 106.278 20.9891 106.428 21.368 106.428C21.7469 106.428 22.1103 106.278 22.3782 106.01C22.6461 105.742 22.7966 105.379 22.7966 105V84.6338L30.7141 78.597V89.9984Z" fill="#7210FF"/>
<path d="M29.327 25.6759C29.7508 25.6759 30.1651 25.5502 30.5175 25.3148C30.8699 25.0793 31.1446 24.7447 31.3068 24.3531C31.4689 23.9615 31.5114 23.5307 31.4287 23.115C31.346 22.6993 31.1419 22.3175 30.8422 22.0178C30.5426 21.7182 30.1607 21.5141 29.7451 21.4314C29.3294 21.3487 28.8985 21.3911 28.507 21.5533C28.1154 21.7155 27.7807 21.9902 27.5453 22.3426C27.3098 22.6949 27.1842 23.1092 27.1842 23.5331C27.1848 24.1012 27.4108 24.6459 27.8125 25.0476C28.2142 25.4493 28.7589 25.6753 29.327 25.6759ZM29.327 22.4616C29.5389 22.4616 29.7461 22.5245 29.9223 22.6422C30.0985 22.7599 30.2358 22.9273 30.3169 23.123C30.398 23.3188 30.4192 23.5343 30.3779 23.7421C30.3365 23.9499 30.2345 24.1408 30.0846 24.2907C29.9348 24.4405 29.7439 24.5426 29.536 24.5839C29.3282 24.6252 29.1128 24.604 28.917 24.5229C28.7212 24.4418 28.5539 24.3045 28.4362 24.1283C28.3184 23.9521 28.2556 23.745 28.2556 23.5331C28.2559 23.249 28.3688 22.9766 28.5697 22.7758C28.7706 22.5749 29.0429 22.4619 29.327 22.4616ZM81.4699 5.67592C81.1873 5.67592 80.9111 5.7597 80.6762 5.91668C80.4413 6.07365 80.2582 6.29676 80.15 6.5578C80.0419 6.81884 80.0136 7.10608 80.0687 7.38319C80.1239 7.66031 80.2599 7.91485 80.4597 8.11464C80.6595 8.31443 80.914 8.45049 81.1912 8.50561C81.4683 8.56073 81.7555 8.53244 82.0166 8.42432C82.2776 8.31619 82.5007 8.13309 82.6577 7.89816C82.8146 7.66324 82.8984 7.38704 82.8984 7.10449C82.898 6.72574 82.7474 6.36263 82.4795 6.09482C82.2117 5.827 81.8486 5.67635 81.4699 5.67592ZM81.4699 7.81878C81.3286 7.81878 81.1905 7.77688 81.073 7.6984C80.9556 7.61991 80.864 7.50835 80.81 7.37784C80.7559 7.24732 80.7417 7.1037 80.7693 6.96514C80.7969 6.82658 80.8649 6.69931 80.9648 6.59941C81.0647 6.49952 81.192 6.43149 81.3305 6.40393C81.4691 6.37637 81.6127 6.39051 81.7432 6.44458C81.8737 6.49864 81.9853 6.59019 82.0638 6.70765C82.1423 6.82512 82.1841 6.96322 82.1841 7.10449C82.184 7.29387 82.1086 7.47544 81.9747 7.60936C81.8408 7.74327 81.6592 7.81859 81.4699 7.81878ZM43.9668 2.85693C43.6842 2.85693 43.408 2.94072 43.1731 3.09769C42.9382 3.25466 42.755 3.47778 42.6469 3.73881C42.5388 3.99985 42.5105 4.28709 42.5656 4.56421C42.6208 4.84132 42.7568 5.09587 42.9566 5.29566C43.1564 5.49545 43.4109 5.63151 43.6881 5.68663C43.9652 5.74175 44.2524 5.71346 44.5134 5.60533C44.7745 5.49721 44.9976 5.3141 45.1546 5.07918C45.3115 4.84425 45.3953 4.56805 45.3953 4.28551C45.3949 3.90676 45.2442 3.54365 44.9764 3.27583C44.7086 3.00802 44.3455 2.85737 43.9668 2.85693ZM43.9668 4.99979C43.8255 4.99979 43.6874 4.9579 43.5699 4.87941C43.4525 4.80093 43.3609 4.68937 43.3068 4.55885C43.2528 4.42833 43.2386 4.28471 43.2662 4.14615C43.2938 4.0076 43.3618 3.88032 43.4617 3.78043C43.5616 3.68053 43.6888 3.6125 43.8274 3.58494C43.966 3.55738 44.1096 3.57153 44.2401 3.62559C44.3706 3.67965 44.4822 3.77121 44.5607 3.88867C44.6391 4.00613 44.681 4.14423 44.681 4.28551C44.6808 4.47489 44.6055 4.65646 44.4716 4.79037C44.3377 4.92429 44.1561 4.9996 43.9668 4.99979ZM115.041 33.5331C114.759 33.5331 114.483 33.6168 114.248 33.7738C114.013 33.9308 113.83 34.1539 113.721 34.4149C113.613 34.676 113.585 34.9632 113.64 35.2403C113.695 35.5175 113.831 35.772 114.031 35.9718C114.231 36.1716 114.485 36.3076 114.763 36.3628C115.04 36.4179 115.327 36.3896 115.588 36.2815C115.849 36.1733 116.072 35.9902 116.229 35.7553C116.386 35.5204 116.47 35.2442 116.47 34.9616C116.469 34.5829 116.319 34.2198 116.051 33.952C115.783 33.6841 115.42 33.5335 115.041 33.5331ZM115.041 35.6759C114.9 35.6759 114.762 35.634 114.644 35.5555C114.527 35.4771 114.435 35.3655 114.381 35.235C114.327 35.1045 114.313 34.9608 114.341 34.8223C114.368 34.6837 114.436 34.5565 114.536 34.4566C114.636 34.3567 114.763 34.2886 114.902 34.2611C115.04 34.2335 115.184 34.2477 115.315 34.3017C115.445 34.3558 115.557 34.4473 115.635 34.5648C115.714 34.6823 115.756 34.8204 115.756 34.9616C115.755 35.151 115.68 35.3326 115.546 35.4665C115.412 35.6004 115.231 35.6757 115.041 35.6759ZM5.75558 11.3902C5.75558 11.1077 5.6718 10.8315 5.51482 10.5965C5.35785 10.3616 5.13474 10.1785 4.8737 10.0704C4.61266 9.96225 4.32542 9.93396 4.04831 9.98908C3.77119 10.0442 3.51665 10.1803 3.31686 10.3801C3.11707 10.5798 2.98101 10.8344 2.92589 11.1115C2.87077 11.3886 2.89906 11.6759 3.00718 11.9369C3.11531 12.1979 3.29841 12.421 3.53334 12.578C3.76827 12.735 4.04446 12.8188 4.32701 12.8188C4.70576 12.8183 5.06887 12.6677 5.33668 12.3999C5.6045 12.1321 5.75515 11.769 5.75558 11.3902ZM3.61272 11.3902C3.61272 11.2489 3.65462 11.1108 3.7331 10.9934C3.81159 10.8759 3.92315 10.7844 4.05366 10.7303C4.18418 10.6762 4.3278 10.6621 4.46636 10.6896C4.60492 10.7172 4.73219 10.7852 4.83209 10.8851C4.93198 10.985 5.00001 11.1123 5.02757 11.2509C5.05513 11.3894 5.04099 11.533 4.98692 11.6636C4.93286 11.7941 4.84131 11.9056 4.72385 11.9841C4.60638 12.0626 4.46828 12.1045 4.32701 12.1045C4.13763 12.1043 3.95606 12.029 3.82214 11.8951C3.68823 11.7612 3.61291 11.5796 3.61272 11.3902Z" fill="#989898"/>
<path d="M62.6005 13.8814L63.6627 12.4843L62.992 12.105L62.3105 13.6693H62.2877L61.5948 12.1157L60.9127 12.5071L61.9634 13.8707V13.8928L60.3198 13.68V14.44L61.9741 14.2278V14.2507L60.9127 15.6136L61.5491 16.0164L62.2763 14.44H62.2984L62.9691 16.005L63.6734 15.6028L62.6005 14.2614V14.2393L64.2877 14.44V13.68L62.6005 13.9036V13.8814Z" fill="#7210FF"/>
<path d="M7.73876 35.7235L7.12733 36.5085L7.49448 36.7406L7.91305 35.8328H7.92519L8.31162 36.7342L8.71734 36.5021L8.09948 35.7299V35.7171L9.07091 35.8328V35.3957L8.09948 35.5242V35.5114L8.71091 34.7071L8.32519 34.4878L7.93233 35.3885H7.91948L7.52019 34.4942L7.12733 34.7192L7.73305 35.5049V35.5178L6.78662 35.3957V35.8328L7.73876 35.7106V35.7235Z" fill="#7210FF"/>
<path d="M109.606 19.1267V18.3817L107.952 18.6009V18.5788L108.993 17.2088L108.335 16.8359L107.666 18.3702H107.644L106.965 16.8467L106.295 17.2309L107.327 18.5681V18.5902L105.714 18.3817V19.1267L107.337 18.9188V18.9409L106.295 20.2781L106.92 20.6731L107.634 19.1267H107.655L108.313 20.6617L109.004 20.2674L107.952 18.9517V18.9295L109.606 19.1267Z" fill="#7210FF"/>
<path d="M113.215 5.37981L114.114 4.19838L113.546 3.87695L112.969 5.20052H112.95L112.364 3.88624L111.786 4.21695L112.676 5.37052V5.38981L111.286 5.20981V5.85267L112.685 5.67338V5.69195L111.786 6.84552L112.326 7.18624L112.941 5.85267H112.959L113.527 7.17695L114.123 6.83624L113.215 5.70124V5.68267L114.642 5.85267V5.20981L113.215 5.3991V5.37981Z" fill="#7210FF"/>
<path d="M1.42857 107.143C2.21755 107.143 2.85714 106.503 2.85714 105.714C2.85714 104.925 2.21755 104.286 1.42857 104.286C0.639593 104.286 0 104.925 0 105.714C0 106.503 0.639593 107.143 1.42857 107.143Z" fill="#989898"/>
<path d="M7.85707 104.286H5.71422C5.33534 104.286 4.97197 104.436 4.70406 104.704C4.43615 104.972 4.28564 105.335 4.28564 105.714C4.28564 106.093 4.43615 106.456 4.70406 106.724C4.97197 106.992 5.33534 107.143 5.71422 107.143H7.85707C8.23595 107.143 8.59932 106.992 8.86723 106.724C9.13513 106.456 9.28564 106.093 9.28564 105.714C9.28564 105.335 9.13513 104.972 8.86723 104.704C8.59932 104.436 8.23595 104.286 7.85707 104.286ZM114.286 104.286H112.143C111.764 104.286 111.401 104.436 111.133 104.704C110.865 104.972 110.714 105.335 110.714 105.714C110.714 106.093 110.865 106.456 111.133 106.724C111.401 106.992 111.764 107.143 112.143 107.143H114.286C114.665 107.143 115.028 106.992 115.296 106.724C115.564 106.456 115.714 106.093 115.714 105.714C115.714 105.335 115.564 104.972 115.296 104.704C115.028 104.436 114.665 104.286 114.286 104.286Z" fill="#989898"/>
<path d="M118.572 107.143C119.361 107.143 120 106.503 120 105.714C120 104.925 119.361 104.286 118.572 104.286C117.783 104.286 117.143 104.925 117.143 105.714C117.143 106.503 117.783 107.143 118.572 107.143Z" fill="#989898"/>
<path d="M84.3956 110H78.4615C78.1023 110.029 77.7672 110.192 77.5229 110.456C77.2785 110.721 77.1428 111.068 77.1428 111.429C77.1428 111.789 77.2785 112.136 77.5229 112.401C77.7672 112.665 78.1023 112.828 78.4615 112.857H84.3956C84.7547 112.828 85.0898 112.665 85.3342 112.401C85.5786 112.136 85.7143 111.789 85.7143 111.429C85.7143 111.068 85.5786 110.721 85.3342 110.456C85.0898 110.192 84.7547 110.029 84.3956 110ZM41.5384 110H35.6043C35.2452 110.029 34.9101 110.192 34.6657 110.456C34.4213 110.721 34.2856 111.068 34.2856 111.429C34.2856 111.789 34.4213 112.136 34.6657 112.401C34.9101 112.665 35.2452 112.828 35.6043 112.857H41.5384C41.8976 112.828 42.2327 112.665 42.477 112.401C42.7214 112.136 42.8571 111.789 42.8571 111.429C42.8571 111.068 42.7214 110.721 42.477 110.456C42.2327 110.192 41.8976 110.029 41.5384 110ZM74.2857 110H45.7142C45.3354 110 44.972 110.151 44.7041 110.418C44.4362 110.686 44.2857 111.05 44.2857 111.429C44.2857 111.807 44.4362 112.171 44.7041 112.439C44.972 112.707 45.3354 112.857 45.7142 112.857H57.1V114.286H51.4285C51.0496 114.286 50.6863 114.436 50.4184 114.704C50.1505 114.972 49.9999 115.335 49.9999 115.714C49.9999 116.093 50.1505 116.457 50.4184 116.724C50.6863 116.992 51.0496 117.143 51.4285 117.143H69.2857C69.6645 117.143 70.0279 116.992 70.2958 116.724C70.5637 116.457 70.7142 116.093 70.7142 115.714C70.7142 115.335 70.5637 114.972 70.2958 114.704C70.0279 114.436 69.6645 114.286 69.2857 114.286H62.8999V112.857H74.2857C74.6645 112.857 75.0279 112.707 75.2958 112.439C75.5637 112.171 75.7142 111.807 75.7142 111.429C75.7142 111.05 75.5637 110.686 75.2958 110.418C75.0279 110.151 74.6645 110 74.2857 110Z" fill="#7210FF"/>
<path d="M107.658 104.286H105.714V77.1401C105.714 76.8427 105.621 76.5527 105.449 76.3105C105.276 76.0684 105.032 75.8861 104.751 75.7892L38.4118 52.93C38.1891 52.8532 37.9509 52.8327 37.7184 52.8704C37.4858 52.9081 37.2663 53.0027 37.0792 53.1459L14.8467 70.1399C14.6722 70.2733 14.5308 70.4451 14.4335 70.6419C14.3362 70.8388 14.2855 71.0554 14.2855 71.275V104.286H12.3417C12.1385 104.259 11.9319 104.276 11.7358 104.336C11.5398 104.396 11.3586 104.496 11.2046 104.632C11.0506 104.767 10.9272 104.933 10.8426 105.12C10.7581 105.307 10.7144 105.509 10.7144 105.714C10.7144 105.919 10.7581 106.122 10.8426 106.309C10.9272 106.495 11.0506 106.662 11.2046 106.797C11.3586 106.932 11.5398 107.033 11.7358 107.093C11.9319 107.152 12.1385 107.169 12.3417 107.143H107.658C107.861 107.169 108.068 107.152 108.264 107.093C108.46 107.033 108.641 106.932 108.795 106.797C108.949 106.662 109.072 106.495 109.157 106.309C109.242 106.122 109.285 105.919 109.285 105.714C109.285 105.509 109.242 105.307 109.157 105.12C109.072 104.933 108.949 104.767 108.795 104.632C108.641 104.496 108.46 104.396 108.264 104.336C108.068 104.276 107.861 104.259 107.658 104.286ZM90.5952 91.7927L102.857 96.0179V100.139L91.5257 96.2344C91.1674 96.1111 90.7749 96.1352 90.4344 96.3013C90.0939 96.4674 89.8333 96.762 89.71 97.1202C89.5866 97.4784 89.6105 97.8709 89.7765 98.2115C89.9425 98.552 90.237 98.8127 90.5952 98.9362L102.857 103.161V104.286H39.2855V66.2543L102.857 88.1601V92.9954L91.5257 89.0909C91.1674 88.9676 90.7749 88.9917 90.4344 89.1578C90.0939 89.3239 89.8333 89.6185 89.71 89.9767C89.5866 90.3349 89.6105 90.7274 89.7765 91.068C89.9425 91.4085 90.237 91.6692 90.5952 91.7927ZM17.1427 71.9813L38.2054 55.8812L102.857 78.159V85.1376L38.4118 62.9309C38.263 62.8828 38.1073 62.8597 37.9509 62.8626C37.9193 62.8605 37.8891 62.8531 37.857 62.8531C37.6384 62.8537 37.4229 62.9046 37.2273 63.002C37.0316 63.0994 36.861 63.2406 36.7288 63.4146L17.1427 78.3859V71.9813ZM17.1427 81.982L36.4284 67.2404V104.286H17.1427V81.982Z" fill="#989898"/>
</g>
<defs>
<clipPath id="clip0_695_3595">
<rect width="120" height="120" fill="white"/>
</clipPath>
</defs>
</svg>
