<svg width="40" height="40" viewBox="0 0 40 40" fill="none" xmlns="http://www.w3.org/2000/svg">
<g clip-path="url(#clip0_2543_4771)">
<path d="M8.32189 22.5105C9.77424 22.5105 10.9558 21.3289 10.9558 19.8766C10.9558 18.4242 9.77424 17.2427 8.32189 17.2427C6.86955 17.2427 5.68799 18.4242 5.68799 19.8766C5.68799 21.3289 6.86955 22.5105 8.32189 22.5105ZM8.32189 18.4146C9.12807 18.4146 9.78393 19.0704 9.78393 19.8766C9.78393 20.6828 9.12807 21.3386 8.32189 21.3386C7.51572 21.3386 6.85986 20.6828 6.85986 19.8766C6.85986 19.0704 7.51572 18.4146 8.32189 18.4146Z" fill="#7210FF"/>
<path d="M9.61719 23.2661H7.27344C7.26789 23.2661 7.26234 23.2662 7.25688 23.2663H7.02625C5.66992 23.2663 4.56641 24.3698 4.56641 25.7261C4.56641 26.0498 4.82875 26.312 5.15234 26.312C5.47594 26.312 5.73828 26.0498 5.73828 25.7261C5.73828 25.016 6.31609 24.4382 7.02625 24.4382H7.28156C7.28711 24.4382 7.29266 24.4381 7.29813 24.438H9.61719C10.3275 24.438 10.9055 25.0159 10.9055 25.7263V29.456C10.9055 29.8235 10.6066 30.1224 10.2391 30.1224H6.40469C6.03727 30.1224 5.73828 29.8235 5.73828 29.456V28.4734C5.73828 28.1497 5.47594 27.8874 5.15234 27.8874C4.82875 27.8874 4.56641 28.1497 4.56641 28.4734V29.456C4.56641 30.4696 5.39102 31.2942 6.40469 31.2942H10.2391C11.2527 31.2942 12.0773 30.4696 12.0773 29.456V25.7263C12.0773 24.3698 10.9737 23.2661 9.61719 23.2661Z" fill="#7210FF"/>
<path opacity="0.1" d="M31.6779 10.4241C33.1302 10.4241 34.3118 9.2425 34.3118 7.79016C34.3118 6.33781 33.1302 5.15625 31.6779 5.15625C30.2255 5.15625 29.0439 6.33781 29.0439 7.79016C29.0439 9.2425 30.2255 10.4241 31.6779 10.4241ZM31.6779 6.3282C32.484 6.3282 33.1399 6.98406 33.1399 7.79023C33.1399 8.59641 32.484 9.25227 31.6779 9.25227C30.8717 9.25227 30.2158 8.59641 30.2158 7.79023C30.2158 6.98406 30.8717 6.3282 31.6779 6.3282Z" fill="#7210FF"/>
<path opacity="0.1" d="M32.9733 11.1797H30.6296C30.6241 11.1797 30.6185 11.1798 30.6131 11.1799H30.3824C29.026 11.1799 27.9226 12.2834 27.9226 13.6397V17.3695C27.9226 18.3832 28.7472 19.2078 29.7608 19.2078H33.5952C34.6088 19.2078 35.4335 18.3831 35.4335 17.3695V13.6398C35.4335 12.2833 34.3299 11.1797 32.9733 11.1797ZM34.2617 17.3696C34.2617 17.737 33.9627 18.036 33.5953 18.036H29.7609C29.3935 18.036 29.0946 17.737 29.0946 17.3696V13.6398C29.0946 12.9296 29.6724 12.3519 30.3825 12.3519H30.6378C30.6433 12.3519 30.6488 12.3518 30.6542 12.3516H32.9734C33.6838 12.3516 34.2617 12.9295 34.2617 13.6399V17.3696Z" fill="#7210FF"/>
<path opacity="0.1" d="M25.0351 35.2944H20.8378C20.0271 35.2944 19.3676 34.6348 19.3676 33.8241V12.4298C21.4568 12.2345 23.3123 11.0036 24.301 9.11844C24.4513 8.83187 24.3409 8.47773 24.0542 8.32742C23.7676 8.17711 23.4135 8.28758 23.2632 8.57414C22.3859 10.2468 20.6687 11.2859 18.7816 11.2859C15.9932 11.2859 13.7246 9.01742 13.7246 6.22898C13.7246 3.44055 15.9932 1.17188 18.7816 1.17188C21.5701 1.17188 23.8386 3.44047 23.8386 6.22891C23.8386 6.55258 24.1009 6.81484 24.4245 6.81484C24.7481 6.81484 25.0105 6.55258 25.0105 6.22891C25.0105 2.79422 22.2162 0 18.7816 0C15.347 0 12.5527 2.7943 12.5527 6.22891C12.5527 9.46586 15.0349 12.133 18.1957 12.4294V23.6827H14.473C14.1494 23.6827 13.887 23.9449 13.887 24.2686C13.887 24.5923 14.1494 24.8545 14.473 24.8545H18.1957V33.8241C18.1957 35.2809 19.3809 36.4662 20.8378 36.4662H25.0351C25.3587 36.4662 25.621 36.2039 25.621 35.8802C25.621 35.5566 25.3588 35.2944 25.0351 35.2944Z" fill="#7210FF"/>
<path d="M15.5615 7.69099C15.5615 8.16052 15.7443 8.60185 16.0764 8.93396C16.4191 9.27661 16.8692 9.44794 17.3193 9.44794C17.7695 9.44794 18.2196 9.27661 18.5623 8.93396L18.7814 8.71474L19.0007 8.93396C19.686 9.61919 20.8011 9.61927 21.4866 8.93388C21.8186 8.60185 22.0014 8.16052 22.0014 7.69099C22.0014 7.22138 21.8186 6.78005 21.4866 6.44802L21.2675 6.22888L21.4867 6.00966C22.172 5.32435 22.172 4.20911 21.4867 3.52372C20.8012 2.83841 19.6861 2.83849 19.0008 3.52372L18.7816 3.74294L18.5625 3.52372C17.8771 2.83849 16.762 2.83841 16.0765 3.5238C15.3912 4.20911 15.3912 5.32435 16.0765 6.00974L16.2957 6.22888L16.0765 6.44802C15.7444 6.78005 15.5615 7.22146 15.5615 7.69099ZM17.5385 5.81458L16.905 5.18122C16.6766 4.95271 16.6766 4.58091 16.905 4.35255C17.0193 4.23825 17.1693 4.18122 17.3193 4.18122C17.4693 4.18122 17.6194 4.23833 17.7336 4.35255L18.3671 4.98599C18.5958 5.21466 18.9668 5.21481 19.1957 4.98599L19.8292 4.35255C20.0577 4.12403 20.4294 4.12419 20.6578 4.35247C20.8862 4.58099 20.8862 4.95278 20.6578 5.18114L20.0243 5.81458C19.7955 6.04349 19.7955 6.41442 20.0243 6.64325L20.6578 7.27669C20.7685 7.38731 20.8294 7.53442 20.8294 7.69099C20.8294 7.84747 20.7685 7.99466 20.6578 8.10528C20.4293 8.33388 20.0576 8.3338 19.8292 8.10528L19.1957 7.47185C18.9668 7.2431 18.5958 7.2431 18.3671 7.47185L17.7336 8.10528C17.5052 8.33388 17.1335 8.33372 16.905 8.10536C16.7943 7.99466 16.7334 7.84747 16.7334 7.69099C16.7334 7.53442 16.7943 7.38731 16.905 7.27669L17.5385 6.64325C17.7673 6.41435 17.7673 6.04341 17.5385 5.81458Z" fill="#7210FF"/>
<path opacity="0.1" d="M34.312 28.5807C34.312 27.1283 33.1304 25.9468 31.6781 25.9468C30.2258 25.9468 29.0442 27.1283 29.0442 28.5807C29.0442 30.033 30.2258 31.2146 31.6781 31.2146C33.1304 31.2146 34.312 30.033 34.312 28.5807ZM30.216 28.5807C30.216 27.7745 30.8718 27.1187 31.678 27.1187C32.4842 27.1187 33.14 27.7745 33.14 28.5807C33.14 29.3869 32.4842 30.0427 31.678 30.0427C30.8718 30.0427 30.216 29.3869 30.216 28.5807Z" fill="#7210FF"/>
<path opacity="0.1" d="M32.9733 31.9717H30.6296C30.624 31.9717 30.6185 31.9718 30.613 31.9719H30.3824C29.026 31.9719 27.9226 33.0753 27.9226 34.4317V38.1616C27.9226 39.1752 28.7472 39.9998 29.7608 39.9998H33.5952C34.6088 39.9998 35.4335 39.1751 35.4335 38.1616V34.4318C35.4335 33.0754 34.3299 31.9717 32.9733 31.9717ZM34.2617 38.1617C34.2617 38.5291 33.9627 38.828 33.5953 38.828H29.7609C29.3935 38.828 29.0946 38.5291 29.0946 38.1617V34.4318C29.0946 33.7216 29.6724 33.1439 30.3825 33.1439H30.6378C30.6433 33.1439 30.6489 33.1438 30.6543 33.1436H32.9734C33.6838 33.1436 34.2617 33.7215 34.2617 34.4319V38.1617Z" fill="#7210FF"/>
</g>
<defs>
<clipPath id="clip0_2543_4771">
<rect width="40" height="40" fill="white"/>
</clipPath>
</defs>
</svg>
