<svg width="120" height="120" viewBox="0 0 120 120" fill="none" xmlns="http://www.w3.org/2000/svg">
    <g clip-path="url(#nyuhclhlxa)">
        <path d="M90.44 38.361c.108 0 .215-.012.32-.037a1.443 1.443 0 0 0 1.065-1.73 1.426 1.426 0 0 0-1.383-1.118c-.108 0-.216.013-.32.037a1.443 1.443 0 0 0-1.065 1.73 1.426 1.426 0 0 0 1.383 1.118zm8.415 29.148a1.426 1.426 0 0 0-1.383-1.118c-.108 0-.215.013-.32.037a1.443 1.443 0 0 0-1.065 1.73 1.426 1.426 0 0 0 1.383 1.118c.108 0 .215-.013.32-.037a1.443 1.443 0 0 0 1.065-1.73z" fill="#7210FF"/>
        <path d="m93.625 31.72 3.462 15.223a4.274 4.274 0 0 1 1.484 3.236v3.292l4.007 17.62-4.007.938v2.935l6.041-1.416a1.429 1.429 0 0 0 1.067-1.707l-9.587-42.157a1.43 1.43 0 0 0-1.72-1.075l-73.74 17.284h12.52L93.625 31.72z" fill="#989898"/>
        <path d="M84.74 37.772a1.43 1.43 0 0 0-1.533-.625l-37.315 8.746h12.52l24.498-5.742a13.453 13.453 0 0 0 7.968 5.134l.138.608h2.93l-.492-2.166a1.428 1.428 0 0 0-1.199-1.099 10.611 10.611 0 0 1-7.516-4.856z" fill="#989898"/>
        <path d="M21.429 57.143a1.429 1.429 0 1 0 0-2.857 1.429 1.429 0 0 0 0 2.857zM88.571 57.143a1.429 1.429 0 1 0 0-2.857 1.429 1.429 0 0 0 0 2.857z" fill="#7210FF"/>
        <path d="M17.143 51.429h75.714v32.857h2.857V50a1.429 1.429 0 0 0-1.428-1.428H15.714A1.428 1.428 0 0 0 14.286 50v35.728a7.104 7.104 0 0 1 2.857-1.298V51.429z" fill="#989898"/>
        <path d="M81.003 84.308c.142-.009.282-.022.426-.022h3.023a10.792 10.792 0 0 1 4.624-3.407A1.428 1.428 0 0 0 90 79.543V62.958a1.428 1.428 0 0 0-.924-1.337 10.696 10.696 0 0 1-6.29-6.39 1.43 1.43 0 0 0-1.344-.945H28.558a1.43 1.43 0 0 0-1.344.945 10.696 10.696 0 0 1-6.29 6.39A1.428 1.428 0 0 0 20 62.958v16.585a1.428 1.428 0 0 0 .924 1.336c1.82.697 3.419 1.875 4.624 3.407h3.436a13.474 13.474 0 0 0-6.127-5.692V63.906a13.543 13.543 0 0 0 6.665-6.763h50.956a13.543 13.543 0 0 0 6.665 6.763v14.688a13.475 13.475 0 0 0-6.14 5.714zM42.84 85.715a7.176 7.176 0 0 1 2.275 2.857h29.772a7.176 7.176 0 0 1 2.275-2.857H42.839z" fill="#989898"/>
        <path d="M35.918 78.75h6.838c-.544-.9-.986-1.859-1.317-2.857h-5.52a1.428 1.428 0 1 0 0 2.857zm38.164 0a1.428 1.428 0 1 0 0-2.857h-5.52a14.197 14.197 0 0 1-1.318 2.857h6.838z" fill="#989898"/>
        <path d="M30 71.607a1.428 1.428 0 0 0 1.429 1.429h9.382a14.34 14.34 0 0 1-.097-1.607c0-.422.028-.838.064-1.25h-9.35A1.428 1.428 0 0 0 30 71.607zm50 0a1.428 1.428 0 0 0-1.429-1.428h-9.349c.036.412.064.828.064 1.25a14.34 14.34 0 0 1-.097 1.607h9.382A1.43 1.43 0 0 0 80 71.607z" fill="#7210FF"/>
        <path d="M41.322 67.322c.3-.995.708-1.953 1.217-2.858h-6.62a1.428 1.428 0 1 0 0 2.858h5.404zm32.76 0a1.428 1.428 0 1 0 0-2.858h-6.62c.508.905.916 1.864 1.215 2.858h5.405z" fill="#989898"/>
        <path d="M66.429 71.429A11.428 11.428 0 1 0 55 82.857 11.441 11.441 0 0 0 66.43 71.43zm-20 0A8.572 8.572 0 1 1 55 80a8.581 8.581 0 0 1-8.571-8.571z" fill="#7210FF"/>
        <path d="M56.466 76.723v-.353a3.345 3.345 0 0 0 1.801-1.317 3.18 3.18 0 0 0 .021-3.435 4.627 4.627 0 0 0-2.964-1.812c-.705-.197-1.173-.342-1.25-.561a.529.529 0 0 1 .284-.232 1.653 1.653 0 0 1 1.448.17 1.428 1.428 0 0 0 1.528-2.415 4.527 4.527 0 0 0-.553-.293v-.34a1.428 1.428 0 1 0-2.857 0v.037a4.048 4.048 0 0 0-.668.205 3.05 3.05 0 0 0-1.894 3.753c.556 1.693 2.144 2.135 3.195 2.428.54.15 1.152.321 1.302.564a.346.346 0 0 1 .032.344 1.422 1.422 0 0 1-1.264.238 1.156 1.156 0 0 1-.484-.23 1.428 1.428 0 0 0-1.76 2.25c.368.288.783.51 1.226.658v.34a1.428 1.428 0 1 0 2.857 0z" fill="#7210FF"/>
        <path d="M79.286 10a2.143 2.143 0 1 0 0-4.286 2.143 2.143 0 0 0 0 4.286zm0-3.214a1.072 1.072 0 1 1 0 2.143 1.072 1.072 0 0 1 0-2.143zM32.857 31.429a1.428 1.428 0 1 0 0 2.856 1.428 1.428 0 0 0 0-2.856zm0 2.143a.714.714 0 1 1 0-1.43.714.714 0 0 1 0 1.43zm2.143-25a1.429 1.429 0 1 0 0 2.857 1.429 1.429 0 0 0 0-2.857zm0 2.142a.714.714 0 1 1 0-1.427.714.714 0 0 1 0 1.427zm78.571 22.858a1.428 1.428 0 1 0 .001 2.855 1.428 1.428 0 0 0-.001-2.855zm0 2.142a.711.711 0 0 1-.659-.44.709.709 0 0 1 .52-.974.715.715 0 1 1 .139 1.414zM7.857 14.286a1.428 1.428 0 1 0-2.857 0 1.428 1.428 0 0 0 2.857 0zm-2.143 0a.714.714 0 1 1 1.43 0 .714.714 0 0 1-1.43 0z" fill="#989898"/>
        <path d="m61.13 18.58 1.063-1.397-.67-.38-.682 1.564h-.023l-.693-1.554-.682.392 1.05 1.363v.023l-1.642-.213v.76l1.654-.212v.022l-1.062 1.363.637.403.727-1.576h.022l.67 1.565.705-.402-1.073-1.342v-.022l1.687.201v-.76l-1.687.223v-.022zM9.84 35.048l-.611.785.367.231.418-.907h.013l.386.9.406-.23-.618-.774v-.012l.971.116v-.438l-.971.129v-.013l.611-.804-.385-.219-.393.9h-.013l-.399-.894-.393.225.605.785v.013l-.946-.122v.438l.953-.122v.013zM100.838 21.087v-.745l-1.655.219v-.022l1.041-1.37-.657-.373-.67 1.534h-.021l-.68-1.523-.669.384 1.03 1.337v.022l-1.611-.208v.745l1.623-.208v.022l-1.042 1.337.625.395.713-1.546h.022l.657 1.535.691-.395-1.052-1.315v-.022l1.655.197zM112.459 8.276l.899-1.183-.567-.321-.577 1.324h-.02l-.585-1.315-.578.332.89 1.153v.019l-1.391-.18v.643l1.4-.18v.02l-.899 1.153.539.341.616-1.334h.018l.567 1.324.596-.34-.908-1.135v-.02l1.428.171v-.642l-1.428.188v-.018z" fill="#7210FF"/>
        <path d="M1.429 104.286a1.429 1.429 0 1 0-.001-2.858 1.429 1.429 0 0 0 0 2.858zM7.857 101.429H5.714a1.428 1.428 0 1 0 0 2.857h2.143a1.429 1.429 0 0 0 0-2.857zm106.429 0h-2.143a1.427 1.427 0 1 0 0 2.857h2.143a1.428 1.428 0 0 0 0-2.857zM118.571 104.286a1.43 1.43 0 1 0 0-2.859 1.43 1.43 0 0 0 0 2.859z" fill="#989898"/>
        <path d="M84.396 107.143h-5.934a1.433 1.433 0 0 0 0 2.857h5.934a1.434 1.434 0 0 0 0-2.857zm-42.858 0h-5.934a1.434 1.434 0 0 0 0 2.857h5.934a1.437 1.437 0 0 0 1.32-1.428 1.43 1.43 0 0 0-1.32-1.429zm32.748 0H45.714a1.432 1.432 0 0 0-1.428 1.429A1.428 1.428 0 0 0 45.714 110H57.1v1.429h-5.672a1.428 1.428 0 1 0 0 2.857h17.858a1.432 1.432 0 0 0 1.428-1.429 1.428 1.428 0 0 0-1.428-1.428H62.9V110h11.386a1.428 1.428 0 1 0 0-2.857z" fill="#7210FF"/>
        <path d="M107.658 104.286H12.342a1.45 1.45 0 0 1-1.5-.835 1.436 1.436 0 0 1 .363-1.677 1.433 1.433 0 0 1 1.137-.345h95.316a1.428 1.428 0 0 1 1.137.345 1.44 1.44 0 0 1-1.137 2.512z" fill="#989898"/>
        <path d="M49.998 101.429A1.43 1.43 0 0 1 48.572 100v-1.428A1.43 1.43 0 0 1 50 97.143h20a1.43 1.43 0 0 1 1.429 1.429V100a1.428 1.428 0 0 1-1.427 1.429h4.034c.164-.459.249-.942.25-1.429v-1.428A4.29 4.29 0 0 0 70 94.286H50a4.29 4.29 0 0 0-4.286 4.286V100c.001.487.086.97.25 1.429h4.034z" fill="#7210FF"/>
        <path d="M18.57 101.429A1.43 1.43 0 0 1 17.143 100v-1.428a1.43 1.43 0 0 1 1.428-1.429h20A1.43 1.43 0 0 1 40 98.572V100a1.428 1.428 0 0 1-1.427 1.429h4.034c.165-.459.25-.942.25-1.429v-1.428a4.264 4.264 0 0 0-1.1-2.858 4.264 4.264 0 0 0 1.1-2.857V91.43a4.29 4.29 0 0 0-4.286-4.286h-20a4.29 4.29 0 0 0-4.285 4.286v1.428c0 1.056.392 2.074 1.1 2.858a4.264 4.264 0 0 0-1.1 2.857V100c0 .487.085.97.25 1.429h4.034zm-1.427-10A1.43 1.43 0 0 1 18.57 90h20A1.43 1.43 0 0 1 40 91.43v1.428a1.43 1.43 0 0 1-1.429 1.429h-20a1.43 1.43 0 0 1-1.428-1.429V91.43zm64.284 10A1.43 1.43 0 0 1 80 100v-1.428a1.43 1.43 0 0 1 1.428-1.429h20.001a1.43 1.43 0 0 1 1.428 1.429V100a1.428 1.428 0 0 1-1.427 1.429h4.034c.165-.459.249-.942.25-1.429v-1.428a4.26 4.26 0 0 0-1.1-2.858 4.26 4.26 0 0 0 1.1-2.857V91.43a4.29 4.29 0 0 0-4.285-4.286h-20a4.29 4.29 0 0 0-4.286 4.286v1.428c0 1.056.392 2.074 1.1 2.858a4.264 4.264 0 0 0-1.1 2.857V100c0 .487.085.97.25 1.429h4.034zm-1.427-10A1.43 1.43 0 0 1 81.428 90h20.001a1.43 1.43 0 0 1 1.428 1.429v1.428a1.428 1.428 0 0 1-1.428 1.429h-20a1.43 1.43 0 0 1-1.43-1.429V91.43z" fill="#989898"/>
    </g>
    <defs>
        <clipPath id="nyuhclhlxa">
            <path fill="#fff" d="M0 0h120v120H0z"/>
        </clipPath>
    </defs>
</svg>
