<svg width="20" height="20" viewBox="0 0 20 20" fill="none" xmlns="http://www.w3.org/2000/svg">
    <path opacity=".4" d="M6.508 1.667h6.975c3.042 0 4.85 1.808 4.85 4.841v6.975c0 3.034-1.808 4.842-4.841 4.842H6.508c-3.033.008-4.841-1.8-4.841-4.833V6.508c0-3.033 1.808-4.841 4.841-4.841z" fill="#989898"/>
    <path d="M11.6 7.483H7.308l.275-.275a.629.629 0 0 0 0-.883.628.628 0 0 0-.883 0L5.392 7.633a.629.629 0 0 0 0 .884L6.7 9.825a.618.618 0 0 0 .442.183.618.618 0 0 0 .441-.183.629.629 0 0 0 0-.883l-.216-.217H11.6c1.067 0 1.942.867 1.942 1.942a1.938 1.938 0 0 1-1.942 1.941H7.5a.63.63 0 0 0-.625.625.63.63 0 0 0 .625.625h4.1a3.197 3.197 0 0 0 3.192-3.191A3.19 3.19 0 0 0 11.6 7.483z" fill="#989898"/>
</svg>
