<svg width="24" height="24" viewBox="0 0 24 24" fill="none" xmlns="http://www.w3.org/2000/svg">
    <g clip-path="url(#fich8a4bua)">
        <path d="M18.375.75h-1.5a.75.75 0 0 0-.75.75v3c0 .414.336.75.75.75h1.5a.75.75 0 0 0 .75-.75v-3a.75.75 0 0 0-.75-.75z" fill="#FBE1CA"/>
        <path d="m19.125 2.625-1.5.375-1.5-.375V1.5a.75.75 0 0 1 .75-.75h1.5a.75.75 0 0 1 .75.75v1.125z" fill="#C18E59"/>
        <path d="M15.75 12.375h3.75v6.375h-3.75v-6.375z" fill="#C8CDED"/>
        <path d="M15 12.375h5.25a.75.75 0 0 0 .75-.75V7.5a1.125 1.125 0 0 0-1.125-1.125h-.75l-1.5.75-1.5-.75h-.75A1.125 1.125 0 0 0 14.25 7.5v4.125a.75.75 0 0 0 .75.75z" fill="#3B5892"/>
        <path d="m17.958 6.958-.333.167-.333-.167-.417 1.667.75 1.875.75-1.875-.417-1.667z" fill="#78A0D4"/>
        <path d="M10.125 9.75V12l-3-2.25h-4.5a.75.75 0 0 1-.75-.75V1.5a.75.75 0 0 1 .75-.75h9a.75.75 0 0 1 .75.75V9a.75.75 0 0 1-.75.75h-1.5z" fill="#4D8C28"/>
        <path d="M11.196 7.5V.75H2.625a.75.75 0 0 0-.75.75v6.75h8.571a.75.75 0 0 0 .75-.75z" fill="#559B2D"/>
        <path d="M12.75 18.75h9a1.5 1.5 0 0 1 1.5 1.5v.375l-12 2.625L9 21.75H6v-6h4.5l2.07 2.414a.75.75 0 0 1 .18.488v.098z" fill="#FBE1CA"/>
        <path d="M.75 15h3v8.25h-3V15z" fill="#F0AE42"/>
        <path d="M3.75 15H6v7.5H3.75V15z" fill="#F9D266"/>
        <path d="M3.75 15h1.5v6.375h-1.5V15z" fill="#FCE797"/>
        <path d="M11.625 20.25h-.44a1.117 1.117 0 0 1-.795-.33l-1.655-1.655.53-.53 1.655 1.655c.07.07.166.11.265.11h.44a.375.375 0 0 0 .375-.375v-.375h.75v.375a1.125 1.125 0 0 1-1.125 1.125z" fill="#F2B9A1"/>
        <path d="M17.25 14.25H18v4.5h-.75v-4.5z" fill="#9DA1BF"/>
        <path d="M3.375 6.375 5.25 8.25 10.5 3l-.75-.75-4.5 4.5-1.125-1.125-.75.75z" fill="#E2E7F6"/>
    </g>
    <defs>
        <clipPath id="fich8a4bua">
            <path fill="#fff" d="M0 0h24v24H0z"/>
        </clipPath>
    </defs>
</svg>
