<svg width="104" height="104" viewBox="0 0 104 104" fill="none" xmlns="http://www.w3.org/2000/svg">
<path d="M77.3797 49.1252H20.6386L6.45337 77.4957H91.565L77.3797 49.1252Z" stroke="#989898" stroke-width="2.5" stroke-miterlimit="10" stroke-linecap="round" stroke-linejoin="round"/>
<path d="M91.565 77.4956H6.45337V100.547H91.565V77.4956Z" stroke="#989898" stroke-width="2.5" stroke-miterlimit="10" stroke-linecap="round" stroke-linejoin="round"/>
<path d="M70.8107 89.0212C70.8107 91.2517 69.0037 93.0587 66.7732 93.0587C65.4527 93.0587 64.2806 92.4253 63.5433 91.4436C63.0375 90.769 62.7357 89.9293 62.7357 89.0212C62.7357 88.1132 63.0373 87.2735 63.5433 86.5985C64.2808 85.617 65.4527 84.9836 66.7732 84.9836C69.0039 84.9836 70.8107 86.7906 70.8107 89.0212ZM35.2809 89.0212C35.2809 89.9293 34.9796 90.7688 34.4735 91.4436C33.7377 92.4253 32.5643 93.0587 31.2436 93.0587C29.0147 93.0587 27.2061 91.2517 27.2061 89.0212C27.2061 86.7908 29.0147 84.9836 31.2436 84.9836C32.5643 84.9836 33.7377 85.617 34.4735 86.5985C34.9796 87.2735 35.2809 88.1132 35.2809 89.0212Z" stroke="#7210FF" stroke-width="2.5" stroke-miterlimit="10" stroke-linecap="round" stroke-linejoin="round"/>
<path d="M62.736 89.0211C62.736 89.9292 63.0377 90.7687 63.5437 91.4435H34.4736C34.9796 90.769 35.2811 89.9292 35.2811 89.0211C35.2811 88.1131 34.9798 87.2734 34.4736 86.5984H63.5435C63.0377 87.2734 62.736 88.1131 62.736 89.0211Z" stroke="#7210FF" stroke-width="2.5" stroke-miterlimit="10" stroke-linecap="round" stroke-linejoin="round"/>
<path d="M52.2294 49.1252H20.6384V66.632H77.1722V49.1252H72.5066" stroke="#989898" stroke-width="2.5" stroke-miterlimit="10" stroke-linecap="round" stroke-linejoin="round"/>
<path d="M77.0018 66.6318H48.82H20.6384L17.0583 77.4956H48.82H80.5816L77.0018 66.6318Z" stroke="#989898" stroke-width="2.5" stroke-miterlimit="10" stroke-linecap="round" stroke-linejoin="round"/>
<path d="M17.0305 43.3027L14.7573 38.3115" stroke="#7210FF" stroke-width="2.5" stroke-miterlimit="10" stroke-linecap="round" stroke-linejoin="round"/>
<path d="M20.3579 41.7871L21.717 38.155" stroke="#7210FF" stroke-width="2.5" stroke-miterlimit="10" stroke-linecap="round" stroke-linejoin="round"/>
<path d="M13.7031 44.8181L10.071 43.459" stroke="#7210FF" stroke-width="2.5" stroke-miterlimit="10" stroke-linecap="round" stroke-linejoin="round"/>
<path d="M33.1436 62.3204C33.1273 62.3204 33.1109 62.32 33.0944 62.3192C32.3431 62.2834 31.6108 62.1892 30.9179 62.0395C30.3697 61.9211 30.0212 61.3806 30.1398 60.8323C30.2584 60.2841 30.7987 59.9357 31.3469 60.0544C31.9309 60.1805 32.5513 60.2599 33.1909 60.2904C33.7511 60.317 34.1838 60.7929 34.157 61.3531C34.1314 61.8969 33.6823 62.3204 33.1436 62.3204ZM37.1805 61.9907C36.7046 61.9907 36.2796 61.6546 36.185 61.1699C36.0771 60.6195 36.436 60.0858 36.9865 59.9782C37.5973 59.8587 38.2327 59.7046 38.8746 59.5203C39.4139 59.365 39.9763 59.6769 40.1311 60.2162C40.2859 60.7553 39.9743 61.318 39.4352 61.4728C38.737 61.6731 38.0446 61.841 37.3767 61.9719C37.3109 61.9845 37.2453 61.9907 37.1805 61.9907ZM27.4372 60.4498C27.2318 60.4498 27.0245 60.3877 26.8451 60.2587C26.2355 59.8204 25.6731 59.313 25.1736 58.7507C24.801 58.3314 24.839 57.6894 25.2583 57.3166C25.6775 56.9441 26.3196 56.9823 26.6921 57.4013C27.0925 57.8521 27.5428 58.2585 28.0311 58.6097C28.4865 58.9372 28.5901 59.5717 28.2627 60.0273C28.0642 60.303 27.7531 60.4498 27.4372 60.4498ZM24.2536 55.4861C23.748 55.4861 23.3101 55.1089 23.2469 54.5942C23.1588 53.8773 23.0958 53.1731 23.0601 52.5014C23.0302 51.9411 23.46 51.463 24.0202 51.4331C24.5764 51.4008 25.0586 51.8331 25.0885 52.3931C25.122 53.0183 25.1807 53.6754 25.263 54.3461C25.3314 54.9029 24.9357 55.4097 24.3789 55.4781C24.3369 55.4834 24.2949 55.4861 24.2536 55.4861ZM24.2299 49.4122C24.1805 49.4122 24.1305 49.4086 24.0802 49.4013C23.5252 49.3194 23.1419 48.8031 23.2238 48.2481C23.3339 47.5029 23.4915 46.7881 23.6924 46.1234C23.8545 45.5866 24.4216 45.2823 24.9583 45.445C25.4953 45.6073 25.799 46.174 25.6367 46.7109C25.4645 47.2806 25.3288 47.8975 25.2333 48.5449C25.1587 49.0494 24.7251 49.4122 24.2299 49.4122ZM63.32 47.2227C63.2914 47.2227 63.2628 47.2215 63.2337 47.2191C62.5797 47.164 61.8732 47.0722 61.1338 46.9461C60.5809 46.8516 60.2092 46.327 60.3036 45.7741C60.3981 45.2211 60.9213 44.8486 61.4759 44.9439C62.1584 45.0605 62.8072 45.145 63.4039 45.1951C63.9629 45.2421 64.3779 45.7332 64.3308 46.2922C64.2863 46.822 63.8425 47.2227 63.32 47.2227ZM67.3539 46.9812C66.902 46.9812 66.4898 46.6774 66.3714 46.2195C66.231 45.6766 66.5574 45.1224 67.1004 44.9821C67.6913 44.8293 68.2247 44.6071 68.686 44.3217C69.1625 44.0266 69.7888 44.1736 70.0841 44.6506C70.3794 45.1275 70.2322 45.7535 69.7552 46.0487C69.1203 46.4419 68.3982 46.7448 67.6092 46.9487C67.5237 46.9707 67.4382 46.9812 67.3539 46.9812ZM57.3437 46.0619C57.2557 46.0619 57.1666 46.0503 57.0774 46.0263C56.4583 45.8586 55.8113 45.6739 55.099 45.4614C54.5615 45.3012 54.2558 44.7355 54.4159 44.198C54.5761 43.6605 55.141 43.3544 55.6795 43.5149C56.3752 43.7223 57.0063 43.9025 57.6088 44.0656C58.1501 44.2122 58.47 44.77 58.3236 45.3115C58.2007 45.7639 57.791 46.0619 57.3437 46.0619ZM51.5128 44.2896C51.4094 44.2896 51.3044 44.2738 51.2008 44.2403L49.2675 43.6154C48.7336 43.4432 48.4403 42.8708 48.6126 42.3372C48.7848 41.8034 49.3572 41.5099 49.8908 41.6823L51.8244 42.3071C52.358 42.4794 52.6513 43.0518 52.4791 43.5856C52.3405 44.0156 51.9418 44.2896 51.5128 44.2896ZM26.5526 43.8754C26.3192 43.8754 26.0848 43.7954 25.8935 43.6321C25.4669 43.2677 25.4165 42.6266 25.7809 42.2003C26.2707 41.6271 26.8309 41.1107 27.4463 40.6655C27.9005 40.3368 28.5357 40.4384 28.8644 40.893C29.1932 41.3474 29.0912 41.9823 28.6369 42.311C28.1518 42.662 27.7104 43.0684 27.3253 43.5194C27.1246 43.7546 26.8394 43.8754 26.5526 43.8754ZM71.7349 43.1026C71.6067 43.1026 71.4765 43.0782 71.3506 43.0266C71.0697 42.9116 70.8682 42.6855 70.7757 42.4199C70.5318 42.3354 70.2893 42.2405 70.049 42.1359C69.5349 41.9116 69.2998 41.3132 69.5239 40.7989C69.7479 40.2848 70.3467 40.0494 70.8607 40.2738C70.9817 40.3266 71.103 40.376 71.2249 40.4223C71.2775 40.2436 71.3266 40.0673 71.3723 39.8944C71.5157 39.3521 72.0709 39.0281 72.6138 39.1721C73.1562 39.3155 73.4795 39.8712 73.3361 40.4136C73.276 40.6407 73.2108 40.8727 73.1405 41.1077C73.3477 41.3327 73.4513 41.6484 73.394 41.973C73.3103 42.4475 72.9096 42.7865 72.4481 42.8109C72.2584 42.9971 72.0014 43.1026 71.7349 43.1026ZM45.6998 42.4489C45.6033 42.4489 45.5054 42.4351 45.4083 42.406C44.7195 42.2001 44.088 42.0183 43.4772 41.8503C42.9362 41.7016 42.6186 41.1426 42.7672 40.6017C42.9159 40.061 43.4747 39.7433 44.0159 39.8918C44.6411 40.0638 45.2868 40.2497 45.9902 40.4599C46.5277 40.6208 46.833 41.1867 46.6723 41.7239C46.5407 42.1643 46.1369 42.4489 45.6998 42.4489ZM76.3513 42.3022C75.9829 42.3022 75.6274 42.1009 75.4472 41.7506C75.1909 41.2517 75.3875 40.6395 75.8864 40.3831C76.3692 40.1351 76.809 39.7941 77.1937 39.3693C77.5703 38.9537 78.2124 38.9214 78.6284 39.2982C79.0442 39.6748 79.0758 40.3171 78.6995 40.7329C78.15 41.3394 77.516 41.8296 76.8151 42.1899C76.6662 42.2661 76.5075 42.3022 76.3513 42.3022ZM39.8032 40.9058C39.7397 40.9058 39.6753 40.8997 39.6105 40.8873C38.9688 40.764 38.3202 40.6663 37.6828 40.5968C37.1252 40.5361 36.7225 40.0348 36.7832 39.4772C36.8441 38.9196 37.3456 38.5176 37.9028 38.5775C38.5949 38.6531 39.2983 38.7589 39.9936 38.8926C40.5445 38.9984 40.9052 39.5308 40.7994 40.0817C40.7061 40.5678 40.2806 40.9058 39.8032 40.9058ZM31.7304 40.8706C31.2706 40.8706 30.854 40.5564 30.7433 40.0894C30.6137 39.5436 30.9511 38.9962 31.4969 38.8666C32.1733 38.7059 32.8946 38.5891 33.641 38.5192C34.1968 38.4654 34.6947 38.8772 34.7469 39.4357C34.7993 39.9941 34.3889 40.4894 33.8304 40.5416C33.1779 40.6027 32.5505 40.7041 31.9659 40.8428C31.8871 40.8619 31.808 40.8706 31.7304 40.8706ZM67.2202 39.8239C66.9245 39.8239 66.6314 39.6953 66.4305 39.4477C65.8924 38.7835 65.5109 38.0896 65.2969 37.3852L65.2786 37.3234C65.1205 36.7854 65.4285 36.2209 65.9668 36.0626C66.505 35.9046 67.0695 36.213 67.2274 36.7508L67.2406 36.7949C67.3779 37.2471 67.6362 37.7092 68.0086 38.1689C68.3616 38.6048 68.2946 39.2442 67.8589 39.5974C67.6708 39.7498 67.4447 39.8239 67.2202 39.8239ZM79.7628 37.4803C79.6769 37.4803 79.5893 37.4693 79.5024 37.4461C78.9601 37.3025 78.6369 36.7468 78.7803 36.2044C78.9312 35.6341 79.0496 35.0088 79.1321 34.346C79.2016 33.7895 79.7112 33.3954 80.2653 33.4637C80.8221 33.5329 81.2172 34.0403 81.1479 34.5971C81.0541 35.3503 80.9182 36.0659 80.7441 36.7244C80.6235 37.1792 80.2125 37.4803 79.7628 37.4803ZM72.8519 37.1553C72.3207 37.1553 71.874 36.7423 71.8395 36.2048C71.7991 35.5766 71.6758 35.0379 71.4731 34.6038C71.236 34.0956 71.4556 33.4911 71.964 33.254C72.472 33.017 73.0767 33.2366 73.314 33.745C73.6238 34.4092 73.8098 35.1931 73.8665 36.0746C73.9027 36.6344 73.4779 37.1173 72.9183 37.1534C72.896 37.1546 72.8738 37.1553 72.8519 37.1553ZM67.2704 34.3501C66.9907 34.3501 66.7126 34.2353 66.5119 34.0103C66.1386 33.5914 66.1756 32.9496 66.5942 32.5762C67.246 31.9953 68.037 31.6045 68.8816 31.446C69.4335 31.3424 69.9635 31.7056 70.067 32.2569C70.1706 32.8082 69.8077 33.3389 69.2562 33.4423C68.7817 33.5313 68.3163 33.7623 67.946 34.0925C67.7522 34.2652 67.5107 34.3501 67.2704 34.3501ZM80.3381 31.5466C79.8944 31.5466 79.6413 31.3432 79.4884 31.0737C79.3482 30.9086 79.2595 30.6971 79.2487 30.4639C79.2434 30.352 79.2375 30.2391 79.2308 30.1249C79.2302 30.1158 79.2296 30.1066 79.2292 30.0975C79.2203 29.9388 79.217 29.8344 79.217 29.7713C79.217 29.0699 79.7435 28.6917 80.2387 28.6917C81.152 28.6917 81.2643 29.5895 81.3066 29.9273C81.3255 30.078 81.3569 30.3532 81.3569 30.5047C81.3571 31.157 80.8392 31.5466 80.3381 31.5466Z" fill="#989898"/>
<path d="M82 21.52C87.5 21.52 92 17.02 92 11.52C92 6.02002 87.5 1.52002 82 1.52002C76.5 1.52002 72 6.02002 72 11.52C72 17.02 76.5 21.52 82 21.52Z" stroke="#7210FF" stroke-width="2.5" stroke-linecap="round" stroke-linejoin="round"/>
<path d="M78.7475 15.3705C81 13.0001 83 13.0001 85.3336 15.3705" stroke="#7210FF" stroke-width="2" stroke-linecap="round" stroke-linejoin="round"/>
<circle cx="78.5" cy="8.5" r="1.5" fill="#7210FF"/>
<circle cx="85.5" cy="8.5" r="1.5" fill="#7210FF"/>
</svg>
