<svg width="78" height="78" viewBox="0 0 78 78" fill="none" xmlns="http://www.w3.org/2000/svg">
<g clip-path="url(#clip0_943_4431)">
<path d="M34.3569 34.1683C34.3569 34.4146 34.4548 34.6508 34.6289 34.8249C34.803 34.9991 35.0392 35.0969 35.2855 35.0969H53.8569C54.1032 35.0969 54.3394 34.9991 54.5135 34.8249C54.6877 34.6508 54.7855 34.4146 54.7855 34.1683C54.7855 33.922 54.6877 33.6859 54.5135 33.5117C54.3394 33.3376 54.1032 33.2397 53.8569 33.2397H35.2855C35.0392 33.2397 34.803 33.3376 34.6289 33.5117C34.4548 33.6859 34.3569 33.922 34.3569 34.1683Z" fill="#989898"/>
<path d="M53.8569 36.9541H35.2855C35.0392 36.9541 34.803 37.0519 34.6289 37.2261C34.4548 37.4002 34.3569 37.6364 34.3569 37.8827C34.3569 38.1289 34.4548 38.3651 34.6289 38.5393C34.803 38.7134 35.0392 38.8112 35.2855 38.8112H53.8569C54.1032 38.8112 54.3394 38.7134 54.5135 38.5393C54.6877 38.3651 54.7855 38.1289 54.7855 37.8827C54.7855 37.6364 54.6877 37.4002 54.5135 37.2261C54.3394 37.0519 54.1032 36.9541 53.8569 36.9541Z" fill="#7210FF"/>
<path d="M30.6429 31.8467H24.1429C23.8969 31.8474 23.6611 31.9455 23.4871 32.1195C23.3132 32.2934 23.2151 32.5292 23.2144 32.7753V39.2753C23.2151 39.5213 23.3132 39.7571 23.4871 39.931C23.6611 40.105 23.8969 40.2031 24.1429 40.2038H30.6429C30.889 40.2031 31.1247 40.105 31.2987 39.931C31.4727 39.7571 31.5708 39.5213 31.5715 39.2753V32.7753C31.5708 32.5292 31.4727 32.2934 31.2987 32.1195C31.1247 31.9455 30.889 31.8474 30.6429 31.8467ZM29.7144 38.3467H25.0715V33.7038H29.7144V38.3467ZM53.8572 43.4538H35.2858C35.0395 43.4538 34.8033 43.5517 34.6292 43.7258C34.455 43.8999 34.3572 44.1361 34.3572 44.3824C34.3572 44.6287 34.455 44.8648 34.6292 45.039C34.8033 45.2131 35.0395 45.311 35.2858 45.311H53.8572C54.1035 45.311 54.3397 45.2131 54.5138 45.039C54.688 44.8648 54.7858 44.6287 54.7858 44.3824C54.7858 44.1361 54.688 43.8999 54.5138 43.7258C54.3397 43.5517 54.1035 43.4538 53.8572 43.4538Z" fill="#989898"/>
<path d="M53.8569 47.168H35.2855C35.0392 47.168 34.803 47.2658 34.6289 47.4399C34.4548 47.6141 34.3569 47.8503 34.3569 48.0965C34.3569 48.3428 34.4548 48.579 34.6289 48.7531C34.803 48.9273 35.0392 49.0251 35.2855 49.0251H53.8569C54.1032 49.0251 54.3394 48.9273 54.5135 48.7531C54.6877 48.579 54.7855 48.3428 54.7855 48.0965C54.7855 47.8503 54.6877 47.6141 54.5135 47.4399C54.3394 47.2658 54.1032 47.168 53.8569 47.168Z" fill="#7210FF"/>
<path d="M30.6429 42.061H24.1429C23.8969 42.0618 23.6611 42.1598 23.4871 42.3338C23.3132 42.5078 23.2151 42.7436 23.2144 42.9896V49.4896C23.2151 49.7357 23.3132 49.9714 23.4871 50.1454C23.6611 50.3194 23.8969 50.4174 24.1429 50.4182H30.6429C30.889 50.4174 31.1247 50.3194 31.2987 50.1454C31.4727 49.9714 31.5708 49.7357 31.5715 49.4896V42.9896C31.5708 42.7436 31.4727 42.5078 31.2987 42.3338C31.1247 42.1598 30.889 42.0618 30.6429 42.061ZM29.7144 48.561H25.0715V43.9182H29.7144V48.561ZM53.8572 53.6682H35.2858C35.0395 53.6682 34.8033 53.766 34.6292 53.9402C34.455 54.1143 34.3572 54.3505 34.3572 54.5967C34.3572 54.843 34.455 55.0792 34.6292 55.2533C34.8033 55.4275 35.0395 55.5253 35.2858 55.5253H53.8572C54.1035 55.5253 54.3397 55.4275 54.5138 55.2533C54.688 55.0792 54.7858 54.843 54.7858 54.5967C54.7858 54.3505 54.688 54.1143 54.5138 53.9402C54.3397 53.766 54.1035 53.6682 53.8572 53.6682Z" fill="#989898"/>
<path d="M53.8569 57.3823H35.2855C35.0392 57.3823 34.803 57.4802 34.6289 57.6543C34.4548 57.8284 34.3569 58.0646 34.3569 58.3109C34.3569 58.5572 34.4548 58.7934 34.6289 58.9675C34.803 59.1416 35.0392 59.2395 35.2855 59.2395H53.8569C54.1032 59.2395 54.3394 59.1416 54.5135 58.9675C54.6877 58.7934 54.7855 58.5572 54.7855 58.3109C54.7855 58.0646 54.6877 57.8284 54.5135 57.6543C54.3394 57.4802 54.1032 57.3823 53.8569 57.3823Z" fill="#7210FF"/>
<path d="M30.6429 52.2754H24.1429C23.8969 52.2761 23.6611 52.3742 23.4871 52.5482C23.3132 52.7222 23.2151 52.9579 23.2144 53.204V59.704C23.2151 59.95 23.3132 60.1858 23.4871 60.3597C23.6611 60.5337 23.8969 60.6318 24.1429 60.6325H30.6429C30.889 60.6318 31.1247 60.5337 31.2987 60.3597C31.4727 60.1858 31.5708 59.95 31.5715 59.704V53.204C31.5708 52.9579 31.4727 52.7222 31.2987 52.5482C31.1247 52.3742 30.889 52.2761 30.6429 52.2754ZM29.7144 58.7754H25.0715V54.1325H29.7144V58.7754Z" fill="#989898"/>
<path d="M26.9286 24.4183C27.6633 24.4183 28.3814 24.2005 28.9922 23.7923C29.603 23.3842 30.0791 22.8041 30.3602 22.1254C30.6413 21.4467 30.7149 20.6999 30.5716 19.9794C30.4282 19.2589 30.0745 18.5971 29.555 18.0776C29.0356 17.5582 28.3738 17.2044 27.6533 17.0611C26.9328 16.9178 26.1859 16.9914 25.5072 17.2725C24.8285 17.5536 24.2485 18.0297 23.8403 18.6405C23.4322 19.2513 23.2144 19.9694 23.2144 20.704C23.2156 21.6887 23.6073 22.6328 24.3036 23.3291C24.9999 24.0254 25.9439 24.4171 26.9286 24.4183ZM26.9286 18.8469C27.2959 18.8469 27.655 18.9558 27.9604 19.1599C28.2658 19.3639 28.5039 19.654 28.6444 19.9933C28.785 20.3327 28.8218 20.7061 28.7501 21.0663C28.6784 21.4266 28.5016 21.7575 28.2418 22.0172C27.9821 22.277 27.6512 22.4538 27.291 22.5255C26.9307 22.5971 26.5573 22.5604 26.2179 22.4198C25.8786 22.2792 25.5885 22.0412 25.3845 21.7358C25.1804 21.4304 25.0715 21.0713 25.0715 20.704C25.072 20.2116 25.2678 19.7396 25.616 19.3914C25.9642 19.0432 26.4362 18.8474 26.9286 18.8469Z" fill="#7210FF"/>
<path d="M0.928571 70.3825C1.44141 70.3825 1.85714 69.9668 1.85714 69.454C1.85714 68.9411 1.44141 68.5254 0.928571 68.5254C0.415736 68.5254 0 68.9411 0 69.454C0 69.9668 0.415736 70.3825 0.928571 70.3825Z" fill="#989898"/>
<path d="M5.10707 68.5254H3.71422C3.46794 68.5254 3.23176 68.6232 3.05762 68.7974C2.88348 68.9715 2.78564 69.2077 2.78564 69.454C2.78564 69.7002 2.88348 69.9364 3.05762 70.1106C3.23176 70.2847 3.46794 70.3825 3.71422 70.3825H5.10707C5.35335 70.3825 5.58953 70.2847 5.76367 70.1106C5.93781 69.9364 6.03564 69.7002 6.03564 69.454C6.03564 69.2077 5.93781 68.9715 5.76367 68.7974C5.58953 68.6232 5.35335 68.5254 5.10707 68.5254ZM74.2856 68.5254H72.8928C72.6465 68.5254 72.4103 68.6232 72.2362 68.7974C72.062 68.9715 71.9642 69.2077 71.9642 69.454C71.9642 69.7002 72.062 69.9364 72.2362 70.1106C72.4103 70.2847 72.6465 70.3825 72.8928 70.3825H74.2856C74.5319 70.3825 74.7681 70.2847 74.9422 70.1106C75.1164 69.9364 75.2142 69.7002 75.2142 69.454C75.2142 69.2077 75.1164 68.9715 74.9422 68.7974C74.7681 68.6232 74.5319 68.5254 74.2856 68.5254Z" fill="#989898"/>
<path d="M77.0716 70.3825C77.5845 70.3825 78.0002 69.9668 78.0002 69.454C78.0002 68.9411 77.5845 68.5254 77.0716 68.5254C76.5588 68.5254 76.1431 68.9411 76.1431 69.454C76.1431 69.9668 76.5588 70.3825 77.0716 70.3825Z" fill="#989898"/>
<path d="M54.8573 72.2397H51C50.7661 72.2579 50.5477 72.3636 50.3884 72.5357C50.2291 72.7078 50.1406 72.9338 50.1406 73.1683C50.1406 73.4029 50.2291 73.6288 50.3884 73.8009C50.5477 73.9731 50.7661 74.0788 51 74.0969H54.8573C55.0911 74.0788 55.3095 73.9731 55.4688 73.8009C55.6281 73.6288 55.7166 73.4029 55.7166 73.1683C55.7166 72.9338 55.6281 72.7078 55.4688 72.5357C55.3095 72.3636 55.0911 72.2579 54.8573 72.2397ZM27.0001 72.2397H23.1428C22.909 72.2579 22.6906 72.3636 22.5313 72.5357C22.3719 72.7078 22.2834 72.9338 22.2834 73.1683C22.2834 73.4029 22.3719 73.6288 22.5313 73.8009C22.6906 73.9731 22.909 74.0788 23.1428 74.0969H27.0001C27.234 74.0788 27.4524 73.9731 27.6117 73.8009C27.771 73.6288 27.8595 73.4029 27.8595 73.1683C27.8595 72.9338 27.771 72.7078 27.6117 72.5357C27.4524 72.3636 27.234 72.2579 27.0001 72.2397ZM48.2858 72.2397H29.7143C29.4681 72.2397 29.2319 72.3376 29.0577 72.5117C28.8836 72.6859 28.7858 72.922 28.7858 73.1683C28.7858 73.4146 28.8836 73.6508 29.0577 73.8249C29.2319 73.9991 29.4681 74.0969 29.7143 74.0969H37.115V75.0255H33.4286C33.1823 75.0255 32.9461 75.1233 32.772 75.2974C32.5979 75.4716 32.5 75.7078 32.5 75.954C32.5 76.2003 32.5979 76.4365 32.772 76.6106C32.9461 76.7848 33.1823 76.8826 33.4286 76.8826H45.0358C45.282 76.8826 45.5182 76.7848 45.6924 76.6106C45.8665 76.4365 45.9643 76.2003 45.9643 75.954C45.9643 75.7078 45.8665 75.4716 45.6924 75.2974C45.5182 75.1233 45.282 75.0255 45.0358 75.0255H40.885V74.0969H48.2858C48.532 74.0969 48.7682 73.9991 48.9424 73.8249C49.1165 73.6508 49.2143 73.4146 49.2143 73.1683C49.2143 72.922 49.1165 72.6859 48.9424 72.5117C48.7682 72.3376 48.532 72.2397 48.2858 72.2397Z" fill="#7210FF"/>
<path d="M69.9776 68.5256H59.2661C59.3729 68.2276 59.4279 67.9135 59.4286 67.597V25.4143C59.4446 25.001 59.3507 24.5909 59.1565 24.2257L46.1871 11.2401C46.1004 11.1499 45.9964 11.0781 45.8813 11.029C45.7662 10.9799 45.6423 10.9546 45.5172 10.9546H21.3571C20.6186 10.9554 19.9105 11.2492 19.3883 11.7715C18.8661 12.2937 18.5723 13.0018 18.5714 13.7403V67.5974C18.5721 67.914 18.627 68.2281 18.7339 68.526H8.02239C7.89029 68.5088 7.75603 68.5199 7.62857 68.5586C7.50111 68.5974 7.38339 68.6629 7.28327 68.7508C7.18315 68.8387 7.10293 68.947 7.04798 69.0683C6.99303 69.1897 6.9646 69.3214 6.9646 69.4546C6.9646 69.5878 6.99303 69.7195 7.04798 69.8409C7.10293 69.9622 7.18315 70.0705 7.28327 70.1584C7.38339 70.2462 7.50111 70.3118 7.62857 70.3505C7.75603 70.3893 7.89029 70.4004 8.02239 70.3832H69.9771C70.1092 70.4004 70.2435 70.3893 70.371 70.3505C70.4984 70.3118 70.6161 70.2462 70.7163 70.1584C70.8164 70.0705 70.8966 69.9622 70.9516 69.8409C71.0065 69.7195 71.0349 69.5878 71.0349 69.4546C71.0349 69.3214 71.0065 69.1897 70.9516 69.0683C70.8966 68.947 70.8164 68.8387 70.7163 68.7508C70.6161 68.6629 70.4984 68.5974 70.371 68.5586C70.2435 68.5199 70.1092 68.5088 69.9771 68.526L69.9776 68.5256ZM46.4286 14.1238L56.2584 23.9537H47.3595C47.1142 23.9549 46.8785 23.8588 46.704 23.6865C46.5294 23.5141 46.4304 23.2796 46.4286 23.0344V14.1238ZM21.3571 68.5256C21.111 68.5252 20.875 68.4272 20.7009 68.2532C20.5269 68.0791 20.4289 67.8431 20.4286 67.597V13.7398C20.4289 13.4937 20.5269 13.2577 20.7009 13.0836C20.875 12.9096 21.111 12.8116 21.3571 12.8113H44.5714V23.0348C44.5739 23.7724 44.8688 24.479 45.3914 24.9995C45.9141 25.5199 46.6218 25.8119 47.3595 25.8113H57.5714V67.597C57.5711 67.8431 57.4731 68.0791 57.299 68.2532C57.125 68.4272 56.889 68.5252 56.6429 68.5256H21.3571Z" fill="#989898"/>
<path d="M29.7143 34.7347V36.7776L28.0011 37.5669C27.8783 37.6216 27.7455 37.65 27.6111 37.6505C27.4376 37.6511 27.2675 37.6027 27.1204 37.5106C26.9733 37.4186 26.8553 37.2868 26.78 37.1305L26.0929 35.7376C26.0363 35.6275 26.0023 35.5073 25.9928 35.3839C25.9832 35.2605 25.9984 35.1365 26.0374 35.019C26.0764 34.9016 26.1385 34.7931 26.2199 34.6999C26.3014 34.6067 26.4006 34.5307 26.5118 34.4764C26.6229 34.422 26.7439 34.3904 26.8674 34.3833C26.991 34.3763 27.1147 34.394 27.2313 34.4353C27.348 34.4767 27.4552 34.5409 27.5467 34.6242C27.6382 34.7075 27.7122 34.8082 27.7643 34.9205L28.0475 35.5008L29.7143 34.7347ZM29.7143 44.949V46.9919L28.0011 47.7812C27.8783 47.8358 27.7455 47.8643 27.6111 47.8647C27.4376 47.8654 27.2675 47.8169 27.1204 47.7249C26.9733 47.6329 26.8553 47.5011 26.78 47.3447L26.0929 45.9519C26.0363 45.8418 26.0023 45.7216 25.9928 45.5982C25.9832 45.4748 25.9984 45.3507 26.0374 45.2333C26.0764 45.1158 26.1385 45.0074 26.2199 44.9142C26.3014 44.821 26.4006 44.745 26.5118 44.6907C26.6229 44.6363 26.7439 44.6047 26.8674 44.5976C26.991 44.5906 27.1147 44.6083 27.2313 44.6496C27.348 44.691 27.4552 44.7552 27.5467 44.8385C27.6382 44.9218 27.7122 45.0225 27.7643 45.1347L28.0475 45.7151L29.7143 44.949ZM29.7143 55.1633V57.2062L28.0011 57.9955C27.8783 58.0501 27.7455 58.0786 27.6111 58.079C27.4376 58.0797 27.2675 58.0312 27.1204 57.9392C26.9733 57.8472 26.8553 57.7154 26.78 57.559L26.0929 56.1662C25.9904 55.9453 25.9785 55.693 26.0599 55.4635C26.1412 55.2339 26.3094 55.0455 26.5282 54.9385C26.7469 54.8315 26.9989 54.8146 27.2301 54.8914C27.4612 54.9681 27.653 55.1324 27.7643 55.349L28.0475 55.9294L29.7143 55.1633Z" fill="#7210FF"/>
<path d="M14.0831 10.264C14.3586 10.264 14.6278 10.1823 14.8569 10.0293C15.086 9.87625 15.2645 9.65871 15.3699 9.4042C15.4753 9.14969 15.5029 8.86963 15.4492 8.59944C15.3954 8.32926 15.2628 8.08107 15.068 7.88628C14.8732 7.69148 14.625 7.55883 14.3548 7.50508C14.0846 7.45134 13.8046 7.47892 13.5501 7.58434C13.2955 7.68977 13.078 7.86829 12.925 8.09735C12.7719 8.3264 12.6902 8.5957 12.6902 8.87118C12.6906 9.24047 12.8375 9.59454 13.0986 9.85567C13.3597 10.1168 13.7138 10.2637 14.0831 10.264ZM14.0831 8.17475C14.2208 8.17475 14.3555 8.21559 14.47 8.29212C14.5845 8.36864 14.6738 8.47741 14.7265 8.60466C14.7792 8.73192 14.793 8.87195 14.7661 9.00704C14.7392 9.14214 14.6729 9.26623 14.5755 9.36363C14.4781 9.46102 14.354 9.52735 14.2189 9.55422C14.0838 9.5811 13.9438 9.5673 13.8166 9.51459C13.6893 9.46188 13.5805 9.37262 13.504 9.25809C13.4275 9.14356 13.3866 9.00892 13.3866 8.87118C13.3868 8.68651 13.4602 8.50944 13.5908 8.37886C13.7213 8.24828 13.8984 8.17487 14.0831 8.17475ZM60.357 11.8825C60.1734 11.8825 59.9939 11.937 59.8412 12.039C59.6884 12.1411 59.5694 12.2861 59.4992 12.4558C59.4289 12.6254 59.4105 12.8121 59.4463 12.9923C59.4821 13.1724 59.5706 13.3378 59.7004 13.4677C59.8303 13.5976 59.9958 13.686 60.1759 13.7218C60.356 13.7577 60.5427 13.7393 60.7124 13.669C60.8821 13.5987 61.0271 13.4797 61.1291 13.327C61.2311 13.1743 61.2856 12.9948 61.2856 12.8111C61.2854 12.5649 61.1875 12.3289 61.0134 12.1548C60.8393 11.9807 60.6032 11.8828 60.357 11.8825ZM60.357 13.2754C60.2652 13.2754 60.1754 13.2482 60.0991 13.1971C60.0227 13.1461 59.9632 13.0736 59.9281 12.9888C59.893 12.9039 59.8838 12.8106 59.9017 12.7205C59.9196 12.6305 59.9638 12.5477 60.0287 12.4828C60.0937 12.4179 60.1764 12.3737 60.2665 12.3557C60.3565 12.3378 60.4499 12.347 60.5347 12.3822C60.6196 12.4173 60.6921 12.4768 60.7431 12.5532C60.7941 12.6295 60.8213 12.7193 60.8213 12.8111C60.8212 12.9342 60.7722 13.0522 60.6852 13.1393C60.5982 13.2263 60.4801 13.2753 60.357 13.2754ZM1.85704 1.90039C1.67338 1.90039 1.49385 1.95485 1.34115 2.05688C1.18845 2.15892 1.06943 2.30394 0.999151 2.47361C0.928869 2.64329 0.91048 2.82999 0.946309 3.01012C0.982139 3.19024 1.07058 3.3557 1.20044 3.48556C1.3303 3.61542 1.49576 3.70386 1.67588 3.73969C1.85601 3.77552 2.04271 3.75713 2.21239 3.68685C2.38206 3.61657 2.52708 3.49755 2.62912 3.34485C2.73115 3.19215 2.78561 3.01262 2.78561 2.82896C2.78536 2.58277 2.68745 2.34672 2.51337 2.17263C2.33928 1.99855 2.10324 1.90064 1.85704 1.90039ZM1.85704 3.29325C1.76521 3.29325 1.67545 3.26602 1.5991 3.215C1.52274 3.16399 1.46324 3.09147 1.42809 3.00664C1.39295 2.9218 1.38376 2.82845 1.40167 2.73838C1.41959 2.64832 1.46381 2.56559 1.52874 2.50066C1.59367 2.43573 1.6764 2.39151 1.76646 2.3736C1.85652 2.35568 1.94988 2.36488 2.03471 2.40002C2.11955 2.43516 2.19206 2.49467 2.24308 2.57102C2.29409 2.64737 2.32132 2.73714 2.32132 2.82896C2.3212 2.95206 2.27225 3.07008 2.1852 3.15713C2.09816 3.24417 1.98014 3.29312 1.85704 3.29325ZM76.1428 13.1951C75.9591 13.1951 75.7796 13.2495 75.6269 13.3516C75.4742 13.4536 75.3551 13.5986 75.2849 13.7683C75.2146 13.938 75.1962 14.1247 75.232 14.3048C75.2679 14.4849 75.3563 14.6504 75.4862 14.7802C75.616 14.9101 75.7815 14.9985 75.9616 15.0344C76.1417 15.0702 76.3284 15.0518 76.4981 14.9815C76.6678 14.9112 76.8128 14.7922 76.9148 14.6395C77.0169 14.4868 77.0713 14.3073 77.0713 14.1236C77.0711 13.8774 76.9732 13.6414 76.7991 13.4673C76.625 13.2932 76.389 13.1953 76.1428 13.1951ZM76.1428 14.5879C76.0509 14.5879 75.9612 14.5607 75.8848 14.5097C75.8085 14.4587 75.749 14.3862 75.7138 14.3013C75.6787 14.2165 75.6695 14.1231 75.6874 14.0331C75.7053 13.943 75.7495 13.8603 75.8145 13.7953C75.8794 13.7304 75.9621 13.6862 76.0522 13.6683C76.1422 13.6504 76.2356 13.6596 76.3204 13.6947C76.4053 13.7298 76.4778 13.7893 76.5288 13.8657C76.5798 13.942 76.607 14.0318 76.607 14.1236C76.6069 14.2467 76.558 14.3648 76.4709 14.4518C76.3839 14.5388 76.2659 14.5878 76.1428 14.5879ZM15.0116 22.7282C15.0116 22.5446 14.9572 22.3651 14.8552 22.2124C14.7531 22.0597 14.6081 21.9406 14.4384 21.8704C14.2687 21.8001 14.082 21.7817 13.9019 21.8175C13.7218 21.8533 13.5563 21.9418 13.4265 22.0717C13.2966 22.2015 13.2082 22.367 13.1723 22.5471C13.1365 22.7272 13.1549 22.9139 13.2252 23.0836C13.2955 23.2533 13.4145 23.3983 13.5672 23.5003C13.7199 23.6024 13.8994 23.6568 14.0831 23.6568C14.3293 23.6566 14.5653 23.5587 14.7394 23.3846C14.9135 23.2105 15.0114 22.9744 15.0116 22.7282ZM13.6188 22.7282C13.6188 22.6364 13.646 22.5467 13.697 22.4703C13.7481 22.394 13.8206 22.3344 13.9054 22.2993C13.9902 22.2642 14.0836 22.255 14.1737 22.2729C14.2637 22.2908 14.3464 22.335 14.4114 22.3999C14.4763 22.4649 14.5205 22.5476 14.5384 22.6377C14.5564 22.7277 14.5472 22.8211 14.512 22.9059C14.4769 22.9908 14.4174 23.0633 14.341 23.1143C14.2647 23.1653 14.1749 23.1925 14.0831 23.1925C13.96 23.1924 13.842 23.1435 13.7549 23.0564C13.6679 22.9694 13.6189 22.8513 13.6188 22.7282Z" fill="#989898"/>
<path d="M2.51423 27.9738L3.20462 27.0657L2.76865 26.8187L2.32573 27.8355H2.31087L1.86098 26.8261L1.41712 27.0805L2.10055 27.9669V27.9812L1.03223 27.8429V28.3369L2.10751 28.199V28.2139L1.41712 29.0997L1.83126 29.3616L2.30391 28.3369H2.31783L2.7538 29.3541L3.21158 29.0927L2.51423 28.2208V28.2064L3.61087 28.3369V27.8429L2.51423 27.9882V27.9738ZM70.9123 1.9715L70.5149 2.48175L70.7535 2.63264L71.0256 2.04253H71.034L71.2847 2.62846L71.5484 2.47757L71.1468 1.97568V1.96732L71.7782 2.04253V1.75793L71.1468 1.8415V1.8336L71.5442 1.31035L71.2935 1.16828L71.0382 1.75375H71.0298L70.7707 1.17246L70.5149 1.31871L70.9086 1.82943V1.83778L70.2934 1.75793V2.04253L70.9123 1.96314V1.9715ZM39.0001 2.60664V2.12239L37.9244 2.26493V2.25053L38.6018 1.36003L38.1742 1.11768L37.7396 2.11496H37.7247L37.2832 1.12464L36.8482 1.37396L37.5181 2.24357V2.25796L36.4707 2.12239V2.60664L37.5251 2.47153V2.48593L36.8482 3.35507L37.2544 3.61182L37.7178 2.60664H37.7317L38.1593 3.60439L38.6083 3.3481L37.9244 2.49289V2.4785L39.0001 2.60664ZM66.7027 29.1954L67.2867 28.427L66.9176 28.218L66.5429 29.0784H66.5304L66.1497 28.2241L65.7741 28.4395L66.3521 29.1893V29.2014L65.4481 29.0849V29.5027L66.3582 29.3862V29.3982L65.7741 30.1481L66.1246 30.3695L66.5244 29.5027H66.5364L66.9051 30.363L67.2928 30.142L66.7027 29.4043V29.3922L67.6303 29.5027V29.0849L66.7027 29.2074V29.1954Z" fill="#7210FF"/>
</g>
<defs>
<clipPath id="clip0_943_4431">
<rect width="78" height="78" fill="white"/>
</clipPath>
</defs>
</svg>
