<svg width="120" height="120" viewBox="0 0 120 120" fill="none" xmlns="http://www.w3.org/2000/svg">
    <path d="M51.133 81.902a1.441 1.441 0 0 0 2.02 0L55 80.055l1.847 1.847a1.443 1.443 0 0 0 2.02 0 1.428 1.428 0 0 0 0-2.02l-1.847-1.847 1.847-1.847a1.428 1.428 0 0 0-2.02-2.02L55 76.015l-1.847-1.847a1.429 1.429 0 0 0-2.02 2.02l1.847 1.847-1.847 1.847a1.43 1.43 0 0 0 0 2.02zM70 101.607h4.286a1.429 1.429 0 0 0 1.428-1.429v-4.285a1.429 1.429 0 0 0-2.857 0v2.857H70a1.428 1.428 0 1 0 0 2.857zm-34.286 0H40a1.432 1.432 0 0 0 1.429-1.429A1.428 1.428 0 0 0 40 98.75h-2.857v-2.857a1.428 1.428 0 0 0-2.857 0v4.285a1.427 1.427 0 0 0 1.428 1.429zm-1.63-82.872c.848.122 20.028 3.15 21.051 24.505a1.428 1.428 0 0 0-1.9 2.059l2.091 2.864a1.427 1.427 0 0 0 2.308 0l2.091-2.864a1.424 1.424 0 0 0-1.732-2.142c-1.115-23.803-23.276-27.218-23.508-27.25a1.43 1.43 0 0 0-.4 2.828zm31.23 29.44a1.429 1.429 0 0 0 2.291 0l2.175-2.914a1.425 1.425 0 0 0-1.986-2.001c.339-7.316 2.846-13.287 7.484-17.768a1.428 1.428 0 0 0-1.985-2.055c-5.188 5.013-7.986 11.635-8.354 19.705a1.425 1.425 0 0 0-1.799 2.119l2.175 2.914z" fill="#7210FF"/>
    <path d="M55 90.178a12.143 12.143 0 1 0-12.143-12.142A12.156 12.156 0 0 0 55 90.177zm0-21.428a9.286 9.286 0 1 1-9.286 9.285A9.296 9.296 0 0 1 55 68.75zM27.222 19.822a2.143 2.143 0 1 0 0-4.286 2.143 2.143 0 0 0 0 4.286zm0-3.215a1.07 1.07 0 1 1 0 2.142 1.07 1.07 0 0 1 0-2.142zM113.65 31.01a1.428 1.428 0 1 0 .001 2.857 1.428 1.428 0 0 0-.001-2.857zm0 2.143a.717.717 0 0 1-.66-.441.71.71 0 0 1 .155-.779.714.714 0 1 1 .505 1.22zM6.35 7.438a1.429 1.429 0 1 0 0 2.858 1.429 1.429 0 0 0 0-2.858zm0 2.143a.714.714 0 1 1 0-1.428.714.714 0 0 1 0 1.428zM83.493 2.68a1.428 1.428 0 1 0 0 2.857 1.428 1.428 0 0 0 0-2.857zm0 2.143a.714.714 0 1 1 0-1.43.714.714 0 0 1 0 1.43zm-20.715 18.33a1.428 1.428 0 1 0-2.856 0 1.428 1.428 0 0 0 2.856 0zm-2.143 0a.714.714 0 1 1 1.43 0 .714.714 0 0 1-1.43 0z" fill="#989898"/>
    <path d="m11.645 33.16 1.062-1.396-.67-.38-.682 1.564h-.023l-.693-1.553-.682.391 1.05 1.364v.022l-1.643-.213v.76l1.655-.212v.023l-1.062 1.363.637.403.727-1.577h.022l.67 1.565.705-.402-1.073-1.341v-.022l1.687.2v-.76l-1.687.224v-.022zM44.844 5.343l-.612.785.367.232.419-.908h.013l.385.901.406-.232-.618-.772v-.013l.972.116v-.437l-.972.128v-.012l.612-.805-.386-.22-.393.902h-.013l-.398-.895-.394.226.606.785v.013l-.947-.122v.437l.953-.122v.013zM87.581 21.743v-.745l-1.655.22v-.023l1.042-1.37-.658-.372-.669 1.534h-.022l-.679-1.524-.67.384 1.031 1.338v.022l-1.612-.209v.745l1.623-.207v.022l-1.041 1.337.625.395.713-1.547h.021l.658 1.535.69-.394-1.052-1.316v-.022l1.655.197zM108.095 7.856l.899-1.181-.568-.321-.577 1.323h-.019l-.586-1.314-.578.33.89 1.155v.018l-1.39-.18v.643l1.399-.18v.02l-.899 1.153.54.34.615-1.333h.018l.567 1.325.597-.341-.908-1.135v-.019l1.427.17v-.643l-1.427.19v-.02z" fill="#7210FF"/>
    <path d="M1.429 107.321a1.428 1.428 0 1 0 0-2.856 1.428 1.428 0 0 0 0 2.856zM7.857 104.464H5.714a1.429 1.429 0 0 0 0 2.857h2.143a1.428 1.428 0 1 0 0-2.857zm106.429 0h-2.143a1.428 1.428 0 0 0 0 2.857h2.143a1.427 1.427 0 1 0 0-2.857zM118.571 107.321a1.428 1.428 0 1 0 .001-2.857 1.428 1.428 0 0 0-.001 2.857z" fill="#989898"/>
    <path d="M84.396 110.179h-5.934a1.428 1.428 0 0 0-1.32 1.428 1.43 1.43 0 0 0 1.32 1.429h5.934a1.433 1.433 0 0 0 0-2.857zm-42.858 0h-5.934a1.428 1.428 0 0 0-1.318 1.428 1.43 1.43 0 0 0 1.318 1.429h5.934a1.434 1.434 0 0 0 0-2.857zm32.748 0H45.714a1.428 1.428 0 1 0 0 2.857H57.1v1.428h-5.671a1.429 1.429 0 0 0 0 2.858h17.857a1.429 1.429 0 0 0 0-2.858H62.9v-1.428h11.386a1.429 1.429 0 0 0 0-2.857z" fill="#7210FF"/>
    <path d="M107.658 104.464h-23.87l7.353-9.758c.186-.248.287-.55.288-.86v-47.43a3.33 3.33 0 0 0-3.27-3.38H72.694c.313.929.3 1.937-.04 2.857H86.08l-6.258 5.714H34.096l6.291-4.844a4.711 4.711 0 0 1 2.388-.87h7.572a4.286 4.286 0 0 1-.005-2.857h-7.567a7.461 7.461 0 0 0-4.163 1.489l-9.483 7.3a1.423 1.423 0 0 0-.553 1.167c0 .015-.005.029-.005.044v48.803c-.002.91.205 1.808.607 2.625H12.342a1.45 1.45 0 0 0-1.5.835 1.438 1.438 0 0 0 .894 1.972c.196.06.403.077.606.05h95.316a1.428 1.428 0 0 0 1.137-.345 1.44 1.44 0 0 0-1.137-2.512zm-26.23-50.455 7.143-6.522v45.881l-7.142 9.48V54.009zm-47.907 50.455c-1.154 0-2.092-1.178-2.092-2.625V54.464H78.57v50h-45.05z" fill="#989898"/>
</svg>
