<svg width="120" height="120" viewBox="0 0 120 120" fill="none" xmlns="http://www.w3.org/2000/svg">
    <g clip-path="url(#63yzhxprba)">
        <path d="M90.712 82.574a7.144 7.144 0 1 0 7.143 7.143 7.15 7.15 0 0 0-7.143-7.143zm0 11.428a4.286 4.286 0 1 1 0-8.572 4.286 4.286 0 0 1 0 8.572z" fill="#7210FF"/>
        <path d="m29.5 90.086-2.702-.412-1.221-2.602a1.428 1.428 0 0 0-2.587 0l-1.221 2.602-2.7.412a1.429 1.429 0 0 0-.808 2.41l1.996 2.047-.473 2.906a1.428 1.428 0 0 0 2.1 1.48l2.4-1.326 2.399 1.326a1.428 1.428 0 0 0 2.1-1.48l-.473-2.906 1.996-2.047a1.428 1.428 0 0 0-.807-2.41zm-3.739 2.978a1.426 1.426 0 0 0-.387 1.228l.116.713-.515-.284a1.427 1.427 0 0 0-1.383 0l-.515.284.116-.713a1.426 1.426 0 0 0-.387-1.228l-.559-.573.706-.107a1.43 1.43 0 0 0 1.078-.806l.252-.536.252.536a1.43 1.43 0 0 0 1.077.806l.708.107-.559.573zM87.401 32.4l-.474 2.906a1.429 1.429 0 0 0 2.1 1.48l2.4-1.326 2.398 1.326a1.442 1.442 0 0 0 1.515-.082 1.427 1.427 0 0 0 .586-1.398l-.473-2.906 1.996-2.047a1.429 1.429 0 0 0-.807-2.41l-2.702-.412-1.22-2.601a1.429 1.429 0 0 0-2.587-.001l-1.221 2.602-2.701.413a1.43 1.43 0 0 0-.807 2.41L87.4 32.4zm2.695-2.16a1.429 1.429 0 0 0 1.078-.804l.252-.537.252.536a1.428 1.428 0 0 0 1.077.806l.708.107-.56.573a1.427 1.427 0 0 0-.386 1.227l.116.714-.515-.285a1.43 1.43 0 0 0-1.383 0l-.515.285.116-.714a1.428 1.428 0 0 0-.387-1.227l-.559-.573.706-.107z" fill="#989898"/>
        <path d="M93.486 66.045a12.819 12.819 0 0 1-2.24 3.854 7.135 7.135 0 0 0 1.742-13.88 12.735 12.735 0 0 1 1.21 4.281 4.267 4.267 0 0 1-.712 5.745z" fill="#7210FF"/>
        <path d="m50.199 91.988 36.393-21.814a10.001 10.001 0 0 0 3.44-13.643L69.083 21.117a9.946 9.946 0 0 0-8.518-4.867 9.845 9.845 0 0 0-5.06 1.405L19.114 39.47a10 10 0 0 0-3.44 13.642l20.948 35.414a9.864 9.864 0 0 0 13.577 3.462zM39.08 87.071 18.134 51.657a7.136 7.136 0 0 1 2.45-9.737l36.391-21.814a6.99 6.99 0 0 1 3.591-.999 7.076 7.076 0 0 1 6.059 3.465l20.947 35.413a7.136 7.136 0 0 1-2.45 9.737L48.73 89.538a6.99 6.99 0 0 1-3.591.998 7.072 7.072 0 0 1-6.058-3.465z" fill="#989898"/>
        <path d="M59.284 94.002a4.283 4.283 0 0 1-3.601-1.97L53.236 93.5a7.134 7.134 0 0 0 12.236-7.334l-2.447 1.466a4.282 4.282 0 0 1-3.741 6.37zm-19.39-46.98a7.142 7.142 0 1 0-7.143 7.143 7.151 7.151 0 0 0 7.143-7.143zm-7.143 4.286a4.286 4.286 0 1 1 0-8.572 4.286 4.286 0 0 1 0 8.572z" fill="#7210FF"/>
        <path d="M48.562 61.676a7.142 7.142 0 1 0-7.142 7.143 7.15 7.15 0 0 0 7.142-7.143zm-7.142 4.286a4.285 4.285 0 1 1 0-8.571 4.285 4.285 0 0 1 0 8.57z" fill="#989898"/>
        <path d="M50.087 69.188a7.143 7.143 0 1 0 7.143 7.143 7.15 7.15 0 0 0-7.143-7.143zm0 11.429a4.286 4.286 0 1 1 0-8.572 4.286 4.286 0 0 1 0 8.572zm21.346-32.65a7.143 7.143 0 1 0-7.142 7.142 7.15 7.15 0 0 0 7.142-7.142zm-7.142 4.285a4.285 4.285 0 1 1 0-8.57 4.285 4.285 0 0 1 0 8.57z" fill="#7210FF"/>
        <path d="M55.622 40.456a7.143 7.143 0 1 0-7.143-7.143 7.152 7.152 0 0 0 7.143 7.143zm0-11.429a4.286 4.286 0 1 1 0 8.572 4.286 4.286 0 0 1 0-8.572zm17.336 26.45a7.142 7.142 0 1 0 7.143 7.143 7.15 7.15 0 0 0-7.143-7.143zm0 11.429a4.286 4.286 0 1 1 0-8.571 4.286 4.286 0 0 1 0 8.57zm-7.203-55.299a2.143 2.143 0 1 0 0-4.286 2.143 2.143 0 0 0 0 4.286zm0-3.214a1.072 1.072 0 1 1 0 2.143 1.072 1.072 0 0 1 0-2.143zm23.572-3.929a1.428 1.428 0 1 0 0 2.857 1.428 1.428 0 0 0 0-2.857zm0 2.143a.714.714 0 1 1 0-1.429.714.714 0 0 1 0 1.429zM43.613 2.321a1.428 1.428 0 1 0 0 2.857 1.428 1.428 0 0 0 0-2.857zm0 2.143a.715.715 0 1 1 0-1.429.715.715 0 0 1 0 1.43zM96.47 17.321a1.429 1.429 0 1 0 0 2.858 1.429 1.429 0 0 0 0-2.858zm0 2.143a.714.714 0 1 1 0-1.428.714.714 0 0 1 0 1.428zM12.184 41.607a1.43 1.43 0 1 0-2.859 0 1.43 1.43 0 0 0 2.86 0zm-2.143 0a.714.714 0 1 1 1.428 0 .714.714 0 0 1-1.428 0z" fill="#989898"/>
        <path d="m32.6 20.187 1.063-1.397-.67-.38-.682 1.564h-.023l-.693-1.553-.682.391 1.05 1.364v.022l-1.643-.212v.76l1.654-.212v.022l-1.061 1.363.636.403.727-1.576h.023l.67 1.564.705-.402-1.073-1.341v-.023l1.687.202v-.76l-1.687.223v-.022zM6.31 11.655l-.611.785.367.232.418-.908h.012l.387.901.406-.231-.618-.773v-.013l.971.116v-.437l-.971.128v-.013l.611-.804-.386-.219-.392.901H6.49l-.4-.895-.392.226.605.785v.013l-.946-.122v.437l.952-.122v.013zM113.613 34.973v-.745l-1.655.22v-.023l1.041-1.37-.658-.372-.668 1.534h-.022l-.68-1.524-.669.385 1.031 1.337v.022l-1.612-.209v.745l1.623-.207v.022l-1.042 1.337.625.395.713-1.547h.021l.658 1.535.691-.394-1.052-1.316v-.022l1.655.197zM113.215 4.883l.899-1.182-.568-.322-.577 1.324h-.019l-.586-1.314-.578.331.89 1.154v.018l-1.39-.179v.643l1.399-.18v.02l-.899 1.153.54.34.615-1.333h.018l.568 1.323.596-.34-.908-1.135v-.019l1.427.17v-.642l-1.427.189v-.019z" fill="#7210FF"/>
        <path d="M1.429 107.678a1.428 1.428 0 1 0 0-2.856 1.428 1.428 0 0 0 0 2.856zM7.857 104.821H5.714a1.429 1.429 0 0 0 0 2.857h2.143a1.428 1.428 0 1 0 0-2.857zm106.429 0h-2.143a1.428 1.428 0 0 0 0 2.857h2.143a1.427 1.427 0 1 0 0-2.857zM118.571 107.678a1.428 1.428 0 1 0 .001-2.857 1.428 1.428 0 0 0-.001 2.857z" fill="#989898"/>
        <path d="M84.396 110.536h-5.934a1.428 1.428 0 0 0-1.32 1.428 1.432 1.432 0 0 0 1.32 1.429h5.934a1.433 1.433 0 0 0 0-2.857zm-42.858 0h-5.934a1.428 1.428 0 0 0-1.318 1.428 1.432 1.432 0 0 0 1.318 1.429h5.934a1.434 1.434 0 0 0 0-2.857zm32.748 0H45.714a1.428 1.428 0 1 0 0 2.857H57.1v1.428h-5.671a1.429 1.429 0 0 0 0 2.858h17.857a1.429 1.429 0 0 0 0-2.858H62.9v-1.428h11.386a1.429 1.429 0 0 0 0-2.857z" fill="#7210FF"/>
        <path d="M107.658 104.821h-4.959a9.948 9.948 0 0 0 3.015-7.143V54.821a10.01 10.01 0 0 0-10-10H86.43l1.69 2.857h7.595a7.152 7.152 0 0 1 7.143 7.143v42.857a7.15 7.15 0 0 1-7.143 7.143H54.286a7.15 7.15 0 0 1-7.143-7.143v-1.594a12.207 12.207 0 0 1-2.857.136v1.458a9.966 9.966 0 0 0 3.014 7.143H12.343a1.45 1.45 0 0 0-1.5.835 1.438 1.438 0 0 0 .894 1.972c.196.06.403.077.606.05h95.316a1.428 1.428 0 0 0 1.137-.345 1.44 1.44 0 0 0-1.137-2.512z" fill="#989898"/>
    </g>
    <defs>
        <clipPath id="63yzhxprba">
            <path fill="#fff" d="M0 0h120v120H0z"/>
        </clipPath>
    </defs>
</svg>
