<svg width="120" height="120" viewBox="0 0 120 120" fill="none" xmlns="http://www.w3.org/2000/svg">
<g clip-path="url(#clip0_938_4258)">
<path d="M111.964 10.2676C112.388 10.2676 112.802 10.142 113.155 9.90651C113.507 9.67105 113.782 9.33638 113.944 8.94483C114.106 8.55327 114.149 8.12241 114.066 7.70674C113.983 7.29107 113.779 6.90925 113.48 6.60956C113.18 6.30988 112.798 6.10579 112.382 6.02311C111.967 5.94043 111.536 5.98286 111.144 6.14505C110.753 6.30724 110.418 6.58189 110.183 6.93428C109.947 7.28668 109.822 7.70097 109.822 8.12479C109.822 8.69294 110.048 9.23765 110.45 9.63939C110.852 10.0411 111.396 10.2671 111.964 10.2676ZM111.964 7.05336C112.176 7.05336 112.383 7.1162 112.56 7.23393C112.736 7.35166 112.873 7.519 112.954 7.71477C113.035 7.91055 113.057 8.12598 113.015 8.33382C112.974 8.54165 112.872 8.73256 112.722 8.88241C112.572 9.03225 112.381 9.13429 112.173 9.17563C111.966 9.21697 111.75 9.19576 111.554 9.11466C111.359 9.03357 111.191 8.89624 111.073 8.72005C110.956 8.54385 110.893 8.3367 110.893 8.12479C110.893 7.84069 111.006 7.56828 111.207 7.36739C111.408 7.1665 111.68 7.05355 111.964 7.05336ZM62.5001 19.7319C62.2175 19.7319 61.9413 19.8157 61.7064 19.9727C61.4715 20.1297 61.2884 20.3528 61.1803 20.6138C61.0721 20.8749 61.0438 21.1621 61.099 21.4392C61.1541 21.7163 61.2901 21.9709 61.4899 22.1707C61.6897 22.3704 61.9443 22.5065 62.2214 22.5616C62.4985 22.6168 62.7857 22.5885 63.0468 22.4803C63.3078 22.3722 63.5309 22.1891 63.6879 21.9542C63.8449 21.7193 63.9287 21.4431 63.9287 21.1605C63.9283 20.7817 63.7776 20.4186 63.5098 20.1508C63.242 19.8829 62.8788 19.7323 62.5001 19.7319ZM62.5001 21.8748C62.3588 21.8748 62.2207 21.8329 62.1032 21.7544C61.9858 21.6759 61.8942 21.5644 61.8402 21.4339C61.7861 21.3033 61.772 21.1597 61.7995 21.0212C61.8271 20.8826 61.8951 20.7553 61.995 20.6554C62.0949 20.5555 62.2222 20.4875 62.3607 20.4599C62.4993 20.4324 62.6429 20.4465 62.7734 20.5006C62.9039 20.5547 63.0155 20.6462 63.094 20.7637C63.1725 20.8811 63.2144 21.0192 63.2144 21.1605C63.2142 21.3499 63.1389 21.5315 63.0049 21.6654C62.871 21.7993 62.6895 21.8746 62.5001 21.8748ZM110.357 34.0176C110.075 34.0176 109.798 34.1014 109.564 34.2584C109.329 34.4154 109.146 34.6385 109.037 34.8995C108.929 35.1606 108.901 35.4478 108.956 35.7249C109.011 36.002 109.147 36.2566 109.347 36.4564C109.547 36.6562 109.801 36.7922 110.079 36.8473C110.356 36.9025 110.643 36.8742 110.904 36.766C111.165 36.6579 111.388 36.4748 111.545 36.2399C111.702 36.005 111.786 35.7288 111.786 35.4462C111.785 35.0675 111.635 34.7043 111.367 34.4365C111.099 34.1687 110.736 34.018 110.357 34.0176ZM110.357 36.1605C110.216 36.1605 110.078 36.1186 109.96 36.0401C109.843 35.9616 109.751 35.8501 109.697 35.7196C109.643 35.589 109.629 35.4454 109.657 35.3069C109.684 35.1683 109.752 35.041 109.852 34.9411C109.952 34.8412 110.079 34.7732 110.218 34.7457C110.356 34.7181 110.5 34.7322 110.631 34.7863C110.761 34.8404 110.873 34.9319 110.951 35.0494C111.03 35.1668 111.072 35.3049 111.072 35.4462C111.071 35.6356 110.996 35.8172 110.862 35.9511C110.728 36.085 110.547 36.1603 110.357 36.1605ZM6.19151 31.8748C5.90897 31.8748 5.63277 31.9586 5.39784 32.1155C5.16291 32.2725 4.97981 32.4956 4.87168 32.7567C4.76356 33.0177 4.73527 33.3049 4.79039 33.5821C4.84551 33.8592 4.98157 34.1137 5.18136 34.3135C5.38115 34.5133 5.6357 34.6494 5.91281 34.7045C6.18993 34.7596 6.47716 34.7313 6.7382 34.6232C6.99924 34.5151 7.22235 34.332 7.37933 34.097C7.5363 33.8621 7.62008 33.5859 7.62008 33.3034C7.6197 32.9246 7.46907 32.5615 7.20125 32.2936C6.93342 32.0258 6.57028 31.8752 6.19151 31.8748ZM6.19151 34.0176C6.05024 34.0176 5.91214 33.9758 5.79468 33.8973C5.67721 33.8188 5.58566 33.7072 5.5316 33.5767C5.47753 33.4462 5.46339 33.3026 5.49095 33.164C5.51851 33.0255 5.58654 32.8982 5.68644 32.7983C5.78633 32.6984 5.9136 32.6304 6.05216 32.6028C6.19072 32.5752 6.33434 32.5894 6.46486 32.6435C6.59538 32.6975 6.70693 32.7891 6.78542 32.9065C6.86391 33.024 6.9058 33.1621 6.9058 33.3034C6.90561 33.4927 6.83029 33.6743 6.69638 33.8082C6.56247 33.9421 6.38089 34.0175 6.19151 34.0176ZM42.7537 7.27836C42.5511 7.47537 42.4115 7.72802 42.3526 8.00435C42.2936 8.28069 42.318 8.56829 42.4225 8.83081C42.527 9.09332 42.707 9.31895 42.9397 9.47915C43.1725 9.63936 43.4475 9.72694 43.73 9.73084C44.0125 9.73474 44.2899 9.65477 44.527 9.50104C44.764 9.34731 44.9502 9.12674 45.0619 8.86721C45.1736 8.60768 45.2059 8.32085 45.1545 8.04299C45.1032 7.76514 44.9707 7.50874 44.7737 7.30622C44.5093 7.03502 44.1481 6.87978 43.7694 6.87456C43.3907 6.86934 43.0254 7.01456 42.7537 7.27836ZM44.2479 8.81408C44.1466 8.91256 44.0184 8.97879 43.8795 9.00439C43.7405 9.03 43.5971 9.01382 43.4674 8.95792C43.3376 8.90202 43.2274 8.8089 43.1506 8.69034C43.0738 8.57177 43.0338 8.43309 43.0358 8.29183C43.0378 8.15057 43.0817 8.01307 43.1618 7.89673C43.2419 7.78039 43.3548 7.69042 43.4861 7.63821C43.6173 7.586 43.7611 7.5739 43.8993 7.60342C44.0375 7.63294 44.1638 7.70277 44.2622 7.80408C44.3941 7.94 44.4666 8.12268 44.4639 8.31203C44.4613 8.50138 44.3836 8.68194 44.2479 8.81408Z" fill="#989898"/>
<path d="M5.0593 8.31133L6.12144 6.91419L5.45073 6.53419L4.7693 8.09847H4.74644L4.05358 6.54561L3.37144 6.93633L4.42215 8.30061V8.32276L2.7793 8.1099V8.8699L4.43358 8.65776V8.6799L3.37144 10.0435L4.00858 10.4463L4.73573 8.8699H4.75715L5.42787 10.4349L6.13215 10.0328L5.0593 8.69133V8.66847L6.74644 8.8699V8.1099L5.0593 8.33347V8.31133ZM95.9121 21.922L95.3 22.707L95.6672 22.9392L96.0857 22.0313H96.0986L96.4843 22.9328L96.89 22.7006L96.2722 21.9285V21.9156L97.2436 22.0313V21.5935L96.2722 21.7228V21.7099L96.8836 20.9049L96.4979 20.6863L96.105 21.587H96.0922L95.6936 20.6928L95.3 20.9178L95.9057 21.7035V21.7163L94.9593 21.5935V22.0313L95.9121 21.9092V21.922ZM89.6429 8.27704V7.53133L87.9879 7.75061V7.72919L89.03 6.35847L88.3722 5.98633L87.7036 7.52061H87.6807L87.0014 5.99704L86.3322 6.38061L87.3629 7.71847V7.7399L85.7514 7.53133V8.27704L87.3736 8.06919V8.09061L86.3322 9.42776L86.9572 9.82276L87.67 8.27704H87.6914L88.3493 9.81204L89.04 9.41704L87.9879 8.10133V8.0799L89.6429 8.27704ZM28.1736 21.2213L29.0722 20.0399L28.505 19.7185L27.9279 21.042H27.9086L27.3229 19.7278L26.7457 20.0585L27.635 21.212V21.2313L26.2443 21.0513V21.6942L27.6443 21.5149V21.5335L26.7457 22.687L27.2843 23.0278L27.9 21.6942H27.9179L28.4857 23.0185L29.0814 22.6778L28.1736 21.5428V21.5242L29.6014 21.6942V21.0513L28.1736 21.2406V21.2213Z" fill="#7210FF"/>
<path d="M1.42857 104.018C2.21755 104.018 2.85714 103.378 2.85714 102.589C2.85714 101.8 2.21755 101.161 1.42857 101.161C0.639593 101.161 0 101.8 0 102.589C0 103.378 0.639593 104.018 1.42857 104.018Z" fill="#989898"/>
<path d="M7.85707 101.161H5.71422C5.33534 101.161 4.97197 101.311 4.70406 101.579C4.43615 101.847 4.28564 102.21 4.28564 102.589C4.28564 102.968 4.43615 103.331 4.70406 103.599C4.97197 103.867 5.33534 104.018 5.71422 104.018H7.85707C8.23595 104.018 8.59932 103.867 8.86723 103.599C9.13513 103.331 9.28564 102.968 9.28564 102.589C9.28564 102.21 9.13513 101.847 8.86723 101.579C8.59932 101.311 8.23595 101.161 7.85707 101.161ZM114.286 101.161H112.143C111.764 101.161 111.401 101.311 111.133 101.579C110.865 101.847 110.714 102.21 110.714 102.589C110.714 102.968 110.865 103.331 111.133 103.599C111.401 103.867 111.764 104.018 112.143 104.018H114.286C114.665 104.018 115.028 103.867 115.296 103.599C115.564 103.331 115.714 102.968 115.714 102.589C115.714 102.21 115.564 101.847 115.296 101.579C115.028 101.311 114.665 101.161 114.286 101.161Z" fill="#989898"/>
<path d="M118.571 104.018C119.36 104.018 120 103.378 120 102.589C120 101.8 119.36 101.161 118.571 101.161C117.782 101.161 117.143 101.8 117.143 102.589C117.143 103.378 117.782 104.018 118.571 104.018Z" fill="#989898"/>
<path d="M84.3957 106.875H78.4614C78.1016 106.903 77.7656 107.065 77.5205 107.33C77.2754 107.595 77.1393 107.943 77.1393 108.303C77.1393 108.664 77.2754 109.012 77.5205 109.277C77.7656 109.541 78.1016 109.704 78.4614 109.732H84.3957C84.7554 109.704 85.0914 109.541 85.3365 109.277C85.5816 109.012 85.7178 108.664 85.7178 108.303C85.7178 107.943 85.5816 107.595 85.3365 107.33C85.0914 107.065 84.7554 106.903 84.3957 106.875ZM41.5385 106.875H35.6043C35.2445 106.903 34.9085 107.065 34.6634 107.33C34.4183 107.595 34.2821 107.943 34.2821 108.303C34.2821 108.664 34.4183 109.012 34.6634 109.277C34.9085 109.541 35.2445 109.704 35.6043 109.732H41.5385C41.8983 109.704 42.2343 109.541 42.4794 109.277C42.7245 109.012 42.8607 108.664 42.8607 108.303C42.8607 107.943 42.7245 107.595 42.4794 107.33C42.2343 107.065 41.8983 106.903 41.5385 106.875ZM74.2857 106.875H45.7143C45.3354 106.875 44.972 107.025 44.7041 107.293C44.4362 107.561 44.2857 107.924 44.2857 108.303C44.2857 108.682 44.4362 109.046 44.7041 109.314C44.972 109.581 45.3354 109.732 45.7143 109.732H57.1V111.161H51.4285C51.0497 111.161 50.6863 111.311 50.4184 111.579C50.1505 111.847 50 112.21 50 112.589C50 112.968 50.1505 113.331 50.4184 113.599C50.6863 113.867 51.0497 114.018 51.4285 114.018H69.2857C69.6646 114.018 70.0279 113.867 70.2958 113.599C70.5637 113.331 70.7142 112.968 70.7142 112.589C70.7142 112.21 70.5637 111.847 70.2958 111.579C70.0279 111.311 69.6646 111.161 69.2857 111.161H62.9V109.732H74.2857C74.6646 109.732 75.0279 109.581 75.2958 109.314C75.5637 109.046 75.7142 108.682 75.7142 108.303C75.7142 107.924 75.5637 107.561 75.2958 107.293C75.0279 107.025 74.6646 106.875 74.2857 106.875ZM33.55 82.3069L36.23 80.5041L34.7657 78.0462L31.955 79.9369C31.225 80.4102 30.6227 81.0558 30.201 81.8167C29.7794 82.5777 29.5514 83.4307 29.5371 84.3005C29.5371 87.2955 32.2228 89.7327 35.5228 89.7327H41.835C41.4417 89.1855 41.0707 88.6226 40.7228 88.0455L40.0257 86.8755H35.5228C33.7978 86.8755 32.3943 85.7205 32.3943 84.3005C32.4065 83.8984 32.5185 83.5057 32.7203 83.1577C32.922 82.8097 33.2071 82.5174 33.55 82.3069ZM56.8071 71.4784C57.1753 71.5674 57.5638 71.5066 57.8871 71.3093C58.2104 71.112 58.4422 70.7944 58.5314 70.4262L59.5442 66.2398L67.1193 77.7327L64.435 78.6134C64.2546 78.6701 64.0873 78.7621 63.9427 78.884C63.7981 79.006 63.6792 79.1554 63.5929 79.3236C63.5065 79.4918 63.4544 79.6755 63.4396 79.8641C63.4247 80.0526 63.4475 80.2422 63.5065 80.4218C63.5655 80.6015 63.6596 80.7676 63.7833 80.9107C63.907 81.0537 64.0579 81.1707 64.2272 81.255C64.3965 81.3393 64.5808 81.3891 64.7695 81.4015C64.9582 81.414 65.1475 81.3889 65.3264 81.3277L73.3028 78.7098C73.4832 78.653 73.6505 78.561 73.7951 78.4391C73.9396 78.3172 74.0586 78.1678 74.1449 77.9996C74.2313 77.8313 74.2834 77.6476 74.2982 77.4591C74.3131 77.2706 74.2903 77.081 74.2313 76.9013C74.1723 76.7217 74.0782 76.5555 73.9545 76.4125C73.8308 76.2695 73.6799 76.1524 73.5106 76.0682C73.3413 75.9839 73.157 75.9341 72.9683 75.9216C72.7796 75.9091 72.5903 75.9343 72.4114 75.9955L69.9328 76.8091L60.1214 61.9234C59.9683 61.6909 59.7506 61.5083 59.495 61.3979C59.2395 61.2875 58.9573 61.2542 58.6831 61.302C58.4089 61.3498 58.1547 61.4766 57.9516 61.667C57.7485 61.8573 57.6054 62.1028 57.54 62.3734L55.7542 69.7541C55.71 69.9364 55.7022 70.1257 55.7311 70.3111C55.7601 70.4965 55.8253 70.6743 55.923 70.8345C56.0207 70.9947 56.149 71.1341 56.3006 71.2447C56.4522 71.3553 56.624 71.4349 56.8064 71.4791L56.8071 71.4784Z" fill="#7210FF"/>
<path d="M107.658 101.161H20.0001C19.2426 101.16 18.5163 100.859 17.9806 100.323C17.445 99.7872 17.1437 99.061 17.1429 98.3034V49.732H56.4694L26.8708 55.4749C26.6458 55.5186 26.4346 55.6158 26.255 55.7583C26.0754 55.9008 25.9328 56.0844 25.8392 56.2936C25.7455 56.5028 25.7036 56.7315 25.7169 56.9604C25.7303 57.1892 25.7985 57.4115 25.9158 57.6084L43.1772 86.5827C45 89.6196 47.4964 92.1969 50.4737 94.1156C56.4689 97.9084 63.4425 99.8652 70.5358 99.7449C74.5346 99.7175 78.5165 99.2223 82.4001 98.2691L82.4144 98.2656C83.641 97.9754 84.8586 97.6489 86.0658 97.2863L104.72 91.3334C104.96 91.2571 105.175 91.1188 105.344 90.9325C105.513 90.7463 105.63 90.5187 105.683 90.2727C105.736 90.0268 105.723 89.7713 105.645 89.532C105.568 89.2926 105.429 89.078 105.242 88.9099C104.988 88.6827 80.0665 66.1256 72.8572 48.2713V36.8749C72.8553 35.3599 72.2527 33.9076 71.1815 32.8363C70.1102 31.7651 68.6579 31.1625 67.143 31.1606H62.1429V29.0177C62.1418 28.0709 61.7652 27.1631 61.0957 26.4936C60.4261 25.8241 59.5184 25.4474 58.5715 25.4463H57.1429C56.1961 25.4474 55.2883 25.8241 54.6188 26.4936C53.9493 27.1631 53.5727 28.0709 53.5715 29.0177V31.1606H47.8572V29.0177C47.8561 28.0709 47.4795 27.1631 46.8099 26.4936C46.1404 25.8241 45.2327 25.4474 44.2858 25.4463H42.8572C41.9104 25.4474 41.0026 25.8241 40.3331 26.4936C39.6636 27.1631 39.2869 28.0709 39.2858 29.0177V31.1606H33.5715V29.0177C33.5704 28.0709 33.1937 27.1631 32.5242 26.4936C31.8547 25.8241 30.9469 25.4474 30.0001 25.4463H28.5715C27.6247 25.4474 26.7169 25.8241 26.0474 26.4936C25.3779 27.1631 25.0012 28.0709 25.0001 29.0177V31.1606H20.0001C18.4851 31.1625 17.0328 31.7651 15.9616 32.8363C14.8903 33.9076 14.2877 35.3599 14.2858 36.8749V98.3034C14.286 99.3074 14.5527 100.293 15.0587 101.161H12.3429C12.1397 101.134 11.9332 101.151 11.7371 101.211C11.541 101.27 11.3599 101.371 11.2058 101.506C11.0518 101.642 10.9284 101.808 10.8439 101.995C10.7593 102.182 10.7156 102.384 10.7156 102.589C10.7156 102.794 10.7593 102.997 10.8439 103.183C10.9284 103.37 11.0518 103.537 11.2058 103.672C11.3599 103.807 11.541 103.908 11.7371 103.968C11.9332 104.027 12.1397 104.044 12.3429 104.018H107.657C107.86 104.044 108.067 104.027 108.263 103.968C108.459 103.908 108.64 103.807 108.794 103.672C108.948 103.537 109.072 103.37 109.156 103.183C109.241 102.997 109.285 102.794 109.285 102.589C109.285 102.384 109.241 102.182 109.156 101.995C109.072 101.808 108.948 101.642 108.794 101.506C108.64 101.371 108.459 101.27 108.263 101.211C108.067 101.151 107.861 101.134 107.658 101.161ZM56.6037 94.1492C60.0322 93.7606 64.3872 92.7491 67.5537 90.2113C68.8329 92.9555 70.9169 95.2455 73.5287 96.777C67.7578 97.2727 61.9524 96.371 56.6037 94.1484V94.1492ZM101.514 89.357L85.2187 94.557C84.0701 94.9032 82.9115 95.2153 81.7444 95.4927C72.0701 96.5056 69.5715 87.7184 69.4715 87.3463C69.4047 87.0937 69.2699 86.8642 69.0818 86.6828C68.8937 86.5015 68.6594 86.3752 68.4045 86.3178C68.1495 86.2603 67.8838 86.2739 67.636 86.357C67.3883 86.4401 67.1681 86.5896 66.9994 86.7891C62.968 91.5577 53.6922 91.562 51.7172 91.5049C49.2434 89.8508 47.1653 87.6708 45.6315 85.1206L29.4101 57.892L70.443 49.9327C77.0415 65.5884 95.5808 83.7834 101.515 89.357H101.514ZM56.4287 29.0177C56.4287 28.8283 56.5039 28.6466 56.6379 28.5126C56.7718 28.3787 56.9535 28.3034 57.1429 28.3034H58.5715C58.761 28.3034 58.9426 28.3787 59.0766 28.5126C59.2106 28.6466 59.2858 28.8283 59.2858 29.0177V36.8749C59.2858 37.0643 59.2106 37.246 59.0766 37.3799C58.9426 37.5139 58.761 37.5891 58.5715 37.5891H57.1429C56.9535 37.5891 56.7718 37.5139 56.6379 37.3799C56.5039 37.246 56.4287 37.0643 56.4287 36.8749V29.0177ZM42.1429 29.0177C42.1429 28.8283 42.2182 28.6466 42.3522 28.5126C42.4861 28.3787 42.6678 28.3034 42.8572 28.3034H44.2858C44.4752 28.3034 44.6569 28.3787 44.7909 28.5126C44.9248 28.6466 45.0001 28.8283 45.0001 29.0177V36.8749C45.0001 37.0643 44.9248 37.246 44.7909 37.3799C44.6569 37.5139 44.4752 37.5891 44.2858 37.5891H42.8572C42.6678 37.5891 42.4861 37.5139 42.3522 37.3799C42.2182 37.246 42.1429 37.0643 42.1429 36.8749V29.0177ZM27.8572 29.0177C27.8572 28.8283 27.9325 28.6466 28.0664 28.5126C28.2004 28.3787 28.3821 28.3034 28.5715 28.3034H30.0001C30.1895 28.3034 30.3712 28.3787 30.5052 28.5126C30.6391 28.6466 30.7144 28.8283 30.7144 29.0177V36.8749C30.7144 37.0643 30.6391 37.246 30.5052 37.3799C30.3712 37.5139 30.1895 37.5891 30.0001 37.5891H28.5715C28.3821 37.5891 28.2004 37.5139 28.0664 37.3799C27.9325 37.246 27.8572 37.0643 27.8572 36.8749V29.0177ZM17.1429 46.4734V36.8749C17.1437 36.1173 17.445 35.391 17.9806 34.8554C18.5163 34.3197 19.2426 34.0185 20.0001 34.0177H25.0001V36.8749C25.0012 37.8217 25.3779 38.7295 26.0474 39.399C26.7169 40.0685 27.6247 40.4452 28.5715 40.4463H30.0001C30.9469 40.4452 31.8547 40.0685 32.5242 39.399C33.1937 38.7295 33.5704 37.8217 33.5715 36.8749V34.0177H39.2858V36.8749C39.2869 37.8217 39.6636 38.7295 40.3331 39.399C41.0026 40.0685 41.9104 40.4452 42.8572 40.4463H44.2858C45.2327 40.4452 46.1404 40.0685 46.8099 39.399C47.4795 38.7295 47.8561 37.8217 47.8572 36.8749V34.0177H53.5715V36.8749C53.5727 37.8217 53.9493 38.7295 54.6188 39.399C55.2883 40.0685 56.1961 40.4452 57.1429 40.4463H58.5715C59.5184 40.4452 60.4261 40.0685 61.0957 39.399C61.7652 38.7295 62.1418 37.8217 62.1429 36.8749V34.0177H67.143C67.9005 34.0185 68.6268 34.3197 69.1624 34.8554C69.6981 35.391 69.9993 36.1173 70.0001 36.8749V46.8749H17.1429V46.4734Z" fill="#989898"/>
</g>
<defs>
<clipPath id="clip0_938_4258">
<rect width="120" height="120" fill="white"/>
</clipPath>
</defs>
</svg>
