<svg width="78" height="78" viewBox="0 0 78 78" fill="none" xmlns="http://www.w3.org/2000/svg">
<path d="M63.1428 62.2141V19.4998C63.1419 18.7612 62.8482 18.0532 62.3259 17.5309C61.8037 17.0087 61.0956 16.7149 60.3571 16.7141H59.4285V15.7855C59.4285 15.5392 59.3307 15.303 59.1565 15.1289C58.9824 14.9548 58.7462 14.8569 58.4999 14.8569C58.2537 14.8569 58.0175 14.9548 57.8433 15.1289C57.6692 15.303 57.5714 15.5392 57.5714 15.7855V16.7141H55.7142V15.7855C55.7142 15.5392 55.6164 15.303 55.4422 15.1289C55.2681 14.9548 55.0319 14.8569 54.7856 14.8569C54.5394 14.8569 54.3032 14.9548 54.129 15.1289C53.9549 15.303 53.8571 15.5392 53.8571 15.7855V16.7141H51.9999V15.7855C51.9999 15.5392 51.9021 15.303 51.728 15.1289C51.5538 14.9548 51.3176 14.8569 51.0714 14.8569C50.8251 14.8569 50.5889 14.9548 50.4148 15.1289C50.2406 15.303 50.1428 15.5392 50.1428 15.7855V16.7141H48.2856V15.7855C48.2856 15.5392 48.1878 15.303 48.0137 15.1289C47.8395 14.9548 47.6033 14.8569 47.3571 14.8569C47.1108 14.8569 46.8746 14.9548 46.7005 15.1289C46.5263 15.303 46.4285 15.5392 46.4285 15.7855V16.7141H44.5714V15.7855C44.5714 15.5392 44.4735 15.303 44.2994 15.1289C44.1252 14.9548 43.8891 14.8569 43.6428 14.8569C43.3965 14.8569 43.1603 14.9548 42.9862 15.1289C42.812 15.303 42.7142 15.5392 42.7142 15.7855V16.7141H40.8571V15.7855C40.8571 15.5392 40.7592 15.303 40.5851 15.1289C40.411 14.9548 40.1748 14.8569 39.9285 14.8569C39.6822 14.8569 39.446 14.9548 39.2719 15.1289C39.0978 15.303 38.9999 15.5392 38.9999 15.7855V16.7141H37.1428V15.7855C37.1428 15.5392 37.045 15.303 36.8708 15.1289C36.6967 14.9548 36.4605 14.8569 36.2142 14.8569C35.9679 14.8569 35.7318 14.9548 35.5576 15.1289C35.3835 15.303 35.2856 15.5392 35.2856 15.7855V16.7141H33.4285V15.7855C33.4285 15.5392 33.3307 15.303 33.1565 15.1289C32.9824 14.9548 32.7462 14.8569 32.4999 14.8569C32.2537 14.8569 32.0175 14.9548 31.8433 15.1289C31.6692 15.303 31.5714 15.5392 31.5714 15.7855V16.7141H29.7142V15.7855C29.7142 15.5392 29.6164 15.303 29.4422 15.1289C29.2681 14.9548 29.0319 14.8569 28.7856 14.8569C28.5394 14.8569 28.3032 14.9548 28.129 15.1289C27.9549 15.303 27.8571 15.5392 27.8571 15.7855V16.7141H25.9999V15.7855C25.9999 15.5392 25.9021 15.303 25.728 15.1289C25.5538 14.9548 25.3176 14.8569 25.0714 14.8569C24.8251 14.8569 24.5889 14.9548 24.4148 15.1289C24.2406 15.303 24.1428 15.5392 24.1428 15.7855V16.7141H22.2564V15.7855C22.2564 15.5392 22.1586 15.303 21.9844 15.1289C21.8103 14.9548 21.5741 14.8569 21.3278 14.8569C21.0816 14.8569 20.8454 14.9548 20.6712 15.1289C20.4971 15.303 20.3993 15.5392 20.3993 15.7855V16.7141H18.5714V15.7855C18.5714 15.5392 18.4735 15.303 18.2994 15.1289C18.1252 14.9548 17.8891 14.8569 17.6428 14.8569C17.3965 14.8569 17.1603 14.9548 16.9862 15.1289C16.812 15.303 16.7142 15.5392 16.7142 15.7855V16.7141H14.8571V15.7855C14.8571 15.5392 14.7592 15.303 14.5851 15.1289C14.411 14.9548 14.1748 14.8569 13.9285 14.8569C13.6822 14.8569 13.446 14.9548 13.2719 15.1289C13.0978 15.303 12.9999 15.5392 12.9999 15.7855V16.7141H12.0714C11.3328 16.7149 10.6247 17.0087 10.1025 17.5309C9.58027 18.0532 9.2865 18.7612 9.28564 19.4998V62.2141C9.2865 62.9526 9.58027 63.6607 10.1025 64.1829C10.6247 64.7052 11.3328 64.9989 12.0714 64.9998H60.3571C61.0956 64.9989 61.8037 64.7052 62.3259 64.1829C62.8482 63.6607 63.1419 62.9526 63.1428 62.2141ZM12.0714 18.5712H12.9999V19.4998C12.9999 19.7461 13.0978 19.9822 13.2719 20.1564C13.446 20.3305 13.6822 20.4284 13.9285 20.4284C14.1748 20.4284 14.411 20.3305 14.5851 20.1564C14.7592 19.9822 14.8571 19.7461 14.8571 19.4998V18.5712H16.7142V19.4998C16.7142 19.7461 16.812 19.9822 16.9862 20.1564C17.1603 20.3305 17.3965 20.4284 17.6428 20.4284C17.8891 20.4284 18.1252 20.3305 18.2994 20.1564C18.4735 19.9822 18.5714 19.7461 18.5714 19.4998V18.5712H20.3993V19.4998C20.3993 19.7461 20.4971 19.9822 20.6712 20.1564C20.8454 20.3305 21.0816 20.4284 21.3278 20.4284C21.5741 20.4284 21.8103 20.3305 21.9844 20.1564C22.1586 19.9822 22.2564 19.7461 22.2564 19.4998V18.5712H24.1428V19.4998C24.1428 19.7461 24.2406 19.9822 24.4148 20.1564C24.5889 20.3305 24.8251 20.4284 25.0714 20.4284C25.3176 20.4284 25.5538 20.3305 25.728 20.1564C25.9021 19.9822 25.9999 19.7461 25.9999 19.4998V18.5712H27.8571V19.4998C27.8571 19.7461 27.9549 19.9822 28.129 20.1564C28.3032 20.3305 28.5394 20.4284 28.7856 20.4284C29.0319 20.4284 29.2681 20.3305 29.4422 20.1564C29.6164 19.9822 29.7142 19.7461 29.7142 19.4998V18.5712H31.5714V19.4998C31.5714 19.7461 31.6692 19.9822 31.8433 20.1564C32.0175 20.3305 32.2537 20.4284 32.4999 20.4284C32.7462 20.4284 32.9824 20.3305 33.1565 20.1564C33.3307 19.9822 33.4285 19.7461 33.4285 19.4998V18.5712H35.2856V19.4998C35.2856 19.7461 35.3835 19.9822 35.5576 20.1564C35.7318 20.3305 35.9679 20.4284 36.2142 20.4284C36.4605 20.4284 36.6967 20.3305 36.8708 20.1564C37.045 19.9822 37.1428 19.7461 37.1428 19.4998V18.5712H38.9999V19.4998C38.9999 19.7461 39.0978 19.9822 39.2719 20.1564C39.446 20.3305 39.6822 20.4284 39.9285 20.4284C40.1748 20.4284 40.411 20.3305 40.5851 20.1564C40.7592 19.9822 40.8571 19.7461 40.8571 19.4998V18.5712H42.7142V19.4998C42.7142 19.7461 42.812 19.9822 42.9862 20.1564C43.1603 20.3305 43.3965 20.4284 43.6428 20.4284C43.8891 20.4284 44.1252 20.3305 44.2994 20.1564C44.4735 19.9822 44.5714 19.7461 44.5714 19.4998V18.5712H46.4285V19.4998C46.4285 19.7461 46.5263 19.9822 46.7005 20.1564C46.8746 20.3305 47.1108 20.4284 47.3571 20.4284C47.6033 20.4284 47.8395 20.3305 48.0137 20.1564C48.1878 19.9822 48.2856 19.7461 48.2856 19.4998V18.5712H50.1428V19.4998C50.1428 19.7461 50.2406 19.9822 50.4148 20.1564C50.5889 20.3305 50.8251 20.4284 51.0714 20.4284C51.3176 20.4284 51.5538 20.3305 51.728 20.1564C51.9021 19.9822 51.9999 19.7461 51.9999 19.4998V18.5712H53.8571V19.4998C53.8571 19.7461 53.9549 19.9822 54.129 20.1564C54.3032 20.3305 54.5394 20.4284 54.7856 20.4284C55.0319 20.4284 55.2681 20.3305 55.4422 20.1564C55.6164 19.9822 55.7142 19.7461 55.7142 19.4998V18.5712H57.5714V19.4998C57.5714 19.7461 57.6692 19.9822 57.8433 20.1564C58.0175 20.3305 58.2537 20.4284 58.4999 20.4284C58.7462 20.4284 58.9824 20.3305 59.1565 20.1564C59.3307 19.9822 59.4285 19.7461 59.4285 19.4998V18.5712H60.3571C60.6033 18.5715 60.8393 18.6694 61.0134 18.8435C61.1875 19.0176 61.2854 19.2536 61.2856 19.4998V22.2855H11.1428V19.4998C11.143 19.2536 11.2409 19.0176 11.415 18.8435C11.5891 18.6694 11.8252 18.5715 12.0714 18.5712ZM11.1428 62.2141V24.1426H61.2856V62.2141C61.2854 62.4603 61.1875 62.6963 61.0134 62.8704C60.8393 63.0445 60.6033 63.1424 60.3571 63.1426H12.0714C11.8252 63.1424 11.5891 63.0445 11.415 62.8704C11.2409 62.6963 11.143 62.4603 11.1428 62.2141Z" fill="#989898"/>
<path d="M34.8215 28.7859C34.821 28.2935 34.6252 27.8214 34.277 27.4732C33.9288 27.125 33.4567 26.9292 32.9644 26.9287H27.3929C26.9005 26.9292 26.4284 27.125 26.0803 27.4732C25.7321 27.8214 25.5363 28.2935 25.5358 28.7859V34.3573C25.5363 34.8497 25.7321 35.3218 26.0803 35.6699C26.4284 36.0181 26.9005 36.2139 27.3929 36.2144H32.9644C33.4567 36.2139 33.9288 36.0181 34.277 35.6699C34.6252 35.3218 34.821 34.8497 34.8215 34.3573V28.7859ZM27.3929 34.3573V28.7859H32.9644V30.0157L30.8379 30.8714L30.5213 30.3152C30.3972 30.1058 30.1958 29.9534 29.9605 29.891C29.7252 29.8286 29.4748 29.8611 29.2632 29.9815C29.0516 30.1019 28.8957 30.3006 28.8292 30.5348C28.7627 30.769 28.7908 31.0199 28.9074 31.2336L29.6252 32.495C29.7363 32.6903 29.9145 32.8386 30.1266 32.9126C30.3388 32.9865 30.5706 32.981 30.779 32.8971L32.9648 32.0173L32.9653 34.3573H27.3929ZM46.8929 28.7859C46.8924 28.2935 46.6966 27.8214 46.3484 27.4732C46.0003 27.125 45.5282 26.9292 45.0358 26.9287H39.4644C38.972 26.9292 38.4999 27.125 38.1517 27.4732C37.8035 27.8214 37.6077 28.2935 37.6072 28.7859V34.3573C37.6077 34.8497 37.8035 35.3218 38.1517 35.6699C38.4999 36.0181 38.972 36.2139 39.4644 36.2144H45.0358C45.5282 36.2139 46.0003 36.0181 46.3484 35.6699C46.6966 35.3218 46.8924 34.8497 46.8929 34.3573V28.7859ZM39.4644 34.3573V28.7859H45.0358V30.0157L42.9094 30.8714L42.5927 30.3152C42.4686 30.1058 42.2672 29.9534 42.0319 29.891C41.7966 29.8286 41.5462 29.8611 41.3346 29.9815C41.123 30.1019 40.9672 30.3006 40.9006 30.5348C40.8341 30.769 40.8622 31.0199 40.9789 31.2336L41.6966 32.495C41.8078 32.6903 41.9859 32.8386 42.1981 32.9126C42.4102 32.9865 42.642 32.981 42.8504 32.8971L45.0362 32.0173L45.0367 34.3573H39.4644ZM58.9644 28.7859C58.9639 28.2935 58.768 27.8214 58.4199 27.4732C58.0717 27.125 57.5996 26.9292 57.1072 26.9287H51.5358C51.0434 26.9292 50.5713 27.125 50.2231 27.4732C49.875 27.8214 49.6791 28.2935 49.6786 28.7859V34.3573C49.6791 34.8497 49.875 35.3218 50.2231 35.6699C50.5713 36.0181 51.0434 36.2139 51.5358 36.2144H57.1072C57.5996 36.2139 58.0717 36.0181 58.4199 35.6699C58.768 35.3218 58.9639 34.8497 58.9644 34.3573V28.7859ZM51.5358 34.3573V28.7859H57.1072V30.0157L54.9808 30.8714L54.6641 30.3152C54.605 30.207 54.525 30.1116 54.4286 30.0346C54.3323 29.9577 54.2216 29.9007 54.1029 29.867C53.9843 29.8333 53.8602 29.8235 53.7377 29.8383C53.6153 29.8531 53.4971 29.8922 53.3899 29.9532C53.2827 30.0141 53.1888 30.0959 53.1135 30.1936C53.0383 30.2913 52.9832 30.403 52.9516 30.5222C52.92 30.6413 52.9124 30.7656 52.9294 30.8878C52.9463 31.0099 52.9874 31.1275 53.0503 31.2336L53.7681 32.495C53.8792 32.6903 54.0574 32.8386 54.2695 32.9126C54.4816 32.9865 54.7134 32.981 54.9218 32.8971L57.1077 32.0173L57.1081 34.3573H51.5358ZM22.7501 40.8573C22.7496 40.3649 22.5538 39.8928 22.2056 39.5446C21.8574 39.1965 21.3853 39.0006 20.8929 39.0001H15.3215C14.8291 39.0006 14.357 39.1965 14.0088 39.5446C13.6607 39.8928 13.4648 40.3649 13.4644 40.8573V46.4287C13.4648 46.9211 13.6607 47.3932 14.0088 47.7414C14.357 48.0895 14.8291 48.2854 15.3215 48.2859H20.8929C21.3853 48.2854 21.8574 48.0895 22.2056 47.7414C22.5538 47.3932 22.7496 46.9211 22.7501 46.4287V40.8573ZM15.3215 46.4287V40.8573H20.8929V42.3193L18.7665 43.175L18.4499 42.6188C18.3258 42.4093 18.1244 42.257 17.8891 42.1946C17.6537 42.1322 17.4033 42.1647 17.1917 42.2851C16.9802 42.4055 16.8243 42.6042 16.7578 42.8384C16.6912 43.0725 16.7193 43.3235 16.836 43.5371L17.5538 44.7986C17.6649 44.9939 17.8431 45.1422 18.0552 45.2161C18.2674 45.2901 18.4991 45.2846 18.7075 45.2007L20.8939 44.3209V46.4287H15.3215ZM34.8215 40.8573C34.821 40.3649 34.6252 39.8928 34.277 39.5446C33.9288 39.1965 33.4567 39.0006 32.9644 39.0001H27.3929C26.9005 39.0006 26.4284 39.1965 26.0803 39.5446C25.7321 39.8928 25.5363 40.3649 25.5358 40.8573V46.4287C25.5363 46.9211 25.7321 47.3932 26.0803 47.7414C26.4284 48.0895 26.9005 48.2854 27.3929 48.2859H32.9644C33.4567 48.2854 33.9288 48.0895 34.277 47.7414C34.6252 47.3932 34.821 46.9211 34.8215 46.4287V40.8573ZM27.3929 46.4287V40.8573H32.9644V42.3193L30.8379 43.175L30.5213 42.6188C30.3972 42.4093 30.1958 42.257 29.9605 42.1946C29.7252 42.1322 29.4748 42.1647 29.2632 42.2851C29.0516 42.4055 28.8957 42.6042 28.8292 42.8384C28.7627 43.0725 28.7908 43.3235 28.9074 43.5371L29.6252 44.7986C29.7363 44.9939 29.9145 45.1422 30.1266 45.2161C30.3388 45.2901 30.5706 45.2846 30.779 45.2007L32.9653 44.3209V46.4287H27.3929ZM22.7501 28.7859C22.7496 28.2935 22.5538 27.8214 22.2056 27.4732C21.8574 27.125 21.3853 26.9292 20.8929 26.9287H15.3215C14.8291 26.9292 14.357 27.125 14.0088 27.4732C13.6607 27.8214 13.4648 28.2935 13.4644 28.7859V34.3573C13.4648 34.8497 13.6607 35.3218 14.0088 35.6699C14.357 36.0181 14.8291 36.2139 15.3215 36.2144H20.8929C21.3853 36.2139 21.8574 36.0181 22.2056 35.6699C22.5538 35.3218 22.7496 34.8497 22.7501 34.3573V28.7859ZM15.3215 34.3573V28.7859H20.8929V30.0157L18.7665 30.8714L18.4499 30.3152C18.3258 30.1058 18.1244 29.9534 17.8891 29.891C17.6537 29.8286 17.4033 29.8611 17.1917 29.9815C16.9802 30.1019 16.8243 30.3006 16.7578 30.5348C16.6912 30.769 16.7193 31.0199 16.836 31.2336L17.5538 32.495C17.6649 32.6903 17.8431 32.8386 18.0552 32.9126C18.2674 32.9865 18.4991 32.981 18.7075 32.8971L20.8934 32.0173L20.8939 34.3573H15.3215ZM22.7501 55.0329V52.9287C22.7496 52.4363 22.5538 51.9642 22.2056 51.6161C21.8574 51.2679 21.3853 51.0721 20.8929 51.0716H15.3215C14.8291 51.0721 14.357 51.2679 14.0088 51.6161C13.6607 51.9642 13.4648 52.4363 13.4644 52.9287V58.5001C13.4648 58.9925 13.6607 59.4646 14.0088 59.8128C14.357 60.161 14.8291 60.3568 15.3215 60.3573H20.8929C21.3853 60.3568 21.8574 60.161 22.2056 59.8128C22.5538 59.4646 22.7496 58.9925 22.7501 58.5001V55.0329ZM15.3215 58.5001V52.9287H20.8929V54.3907L18.7665 55.2464L18.4499 54.6902C18.3258 54.4808 18.1244 54.3284 17.8891 54.266C17.6537 54.2036 17.4033 54.2361 17.1917 54.3565C16.9802 54.4769 16.8243 54.6756 16.7578 54.9098C16.6912 55.144 16.7193 55.3949 16.836 55.6086L17.5538 56.87C17.6649 57.0653 17.8431 57.2136 18.0552 57.2876C18.2674 57.3615 18.4991 57.356 18.7075 57.2721L20.8939 56.3923V58.5001H15.3215ZM34.8215 55.0329V52.9287C34.821 52.4363 34.6252 51.9642 34.277 51.6161C33.9288 51.2679 33.4567 51.0721 32.9644 51.0716H27.3929C26.9005 51.0721 26.4284 51.2679 26.0803 51.6161C25.7321 51.9642 25.5363 52.4363 25.5358 52.9287V58.5001C25.5363 58.9925 25.7321 59.4646 26.0803 59.8128C26.4284 60.161 26.9005 60.3568 27.3929 60.3573H32.9644C33.4567 60.3568 33.9288 60.161 34.277 59.8128C34.6252 59.4646 34.821 58.9925 34.8215 58.5001V55.0329ZM27.3929 58.5001V52.9287H32.9644V54.3907L30.8379 55.2464L30.5213 54.6902C30.3972 54.4808 30.1958 54.3284 29.9605 54.266C29.7252 54.2036 29.4748 54.2361 29.2632 54.3565C29.0516 54.4769 28.8957 54.6756 28.8292 54.9098C28.7627 55.144 28.7908 55.3949 28.9074 55.6086L29.6252 56.87C29.7363 57.0653 29.9145 57.2136 30.1266 57.2876C30.3388 57.3615 30.5706 57.356 30.779 57.2721L32.9653 56.3923V58.5001H27.3929ZM46.8929 55.0329V52.9287C46.8924 52.4363 46.6966 51.9642 46.3484 51.6161C46.0003 51.2679 45.5282 51.0721 45.0358 51.0716H39.4644C38.972 51.0721 38.4999 51.2679 38.1517 51.6161C37.8035 51.9642 37.6077 52.4363 37.6072 52.9287V58.5001C37.6077 58.9925 37.8035 59.4646 38.1517 59.8128C38.4999 60.161 38.972 60.3568 39.4644 60.3573H45.0358C45.5282 60.3568 46.0003 60.161 46.3484 59.8128C46.6966 59.4646 46.8924 58.9925 46.8929 58.5001V55.0329ZM39.4644 58.5001V52.9287H45.0358V54.3907L42.9094 55.2464L42.5927 54.6902C42.4686 54.4808 42.2672 54.3284 42.0319 54.266C41.7966 54.2036 41.5462 54.2361 41.3346 54.3565C41.123 54.4769 40.9672 54.6756 40.9006 54.9098C40.8341 55.144 40.8622 55.3949 40.9789 55.6086L41.6966 56.87C41.8078 57.0653 41.9859 57.2136 42.1981 57.2876C42.4102 57.3615 42.642 57.356 42.8504 57.2721L45.0367 56.3923V58.5001H39.4644ZM58.9644 42.9614V40.8573C58.9639 40.3649 58.768 39.8928 58.4199 39.5446C58.0717 39.1965 57.5996 39.0006 57.1072 39.0001H51.5358C51.0434 39.0006 50.5713 39.1965 50.2231 39.5446C49.875 39.8928 49.6791 40.3649 49.6786 40.8573V46.4287C49.6791 46.9211 49.875 47.3932 50.2231 47.7414C50.5713 48.0895 51.0434 48.2854 51.5358 48.2859H57.1072C57.5996 48.2854 58.0717 48.0895 58.4199 47.7414C58.768 47.3932 58.9639 46.9211 58.9644 46.4287V42.9614ZM51.5358 46.4287V40.8573H57.1072V42.3193L54.9808 43.175L54.6641 42.6188C54.605 42.5106 54.525 42.4152 54.4286 42.3382C54.3323 42.2613 54.2216 42.2043 54.1029 42.1706C53.9843 42.1369 53.8602 42.1271 53.7377 42.1419C53.6153 42.1567 53.4971 42.1957 53.3899 42.2567C53.2827 42.3177 53.1888 42.3994 53.1135 42.4971C53.0383 42.5948 52.9832 42.7065 52.9516 42.8257C52.92 42.9449 52.9124 43.0692 52.9294 43.1914C52.9463 43.3135 52.9874 43.4311 53.0503 43.5371L53.7681 44.7986C53.8792 44.9939 54.0574 45.1422 54.2695 45.2161C54.4816 45.2901 54.7134 45.2846 54.9218 45.2007L57.1081 44.3209V46.4287H51.5358Z" fill="#989898"/>
<path d="M38.3436 47.5492C38.5178 47.7233 38.7539 47.8211 39.0002 47.8211C39.2464 47.8211 39.4825 47.7233 39.6567 47.5492L42.2502 44.9557L44.8436 47.5492C45.0188 47.7184 45.2533 47.812 45.4968 47.8099C45.7403 47.8078 45.9732 47.7101 46.1453 47.5379C46.3175 47.3658 46.4152 47.1329 46.4173 46.8894C46.4194 46.6459 46.3258 46.4114 46.1567 46.2362L43.5632 43.6427L46.1567 41.0492C46.3258 40.8741 46.4194 40.6396 46.4173 40.3961C46.4152 40.1526 46.3175 39.9197 46.1453 39.7476C45.9732 39.5754 45.7403 39.4777 45.4968 39.4756C45.2533 39.4735 45.0188 39.5671 44.8436 39.7362L42.2502 42.3297L39.6567 39.7362C39.4815 39.5671 39.247 39.4735 39.0035 39.4756C38.76 39.4777 38.5271 39.5754 38.355 39.7476C38.1828 39.9197 38.0851 40.1526 38.083 40.3961C38.0809 40.6396 38.1745 40.8741 38.3436 41.0492L40.9371 43.6427L38.3436 46.2362C38.1696 46.4104 38.0718 46.6465 38.0718 46.8927C38.0718 47.139 38.1696 47.3751 38.3436 47.5492ZM58.2281 51.8077C58.0539 51.6336 57.8178 51.5358 57.5716 51.5358C57.3254 51.5358 57.0892 51.6336 56.9151 51.8077L54.3216 54.4012L51.7281 51.8077C51.5529 51.6385 51.3184 51.5449 51.0749 51.5471C50.8314 51.5492 50.5986 51.6468 50.4264 51.819C50.2542 51.9912 50.1566 52.224 50.1545 52.4675C50.1523 52.711 50.2459 52.9455 50.4151 53.1207L53.0086 55.7142L50.4151 58.3077C50.3264 58.3933 50.2556 58.4958 50.207 58.6091C50.1583 58.7224 50.1327 58.8442 50.1316 58.9675C50.1306 59.0908 50.1541 59.2131 50.2007 59.3272C50.2474 59.4413 50.3164 59.545 50.4036 59.6322C50.4908 59.7194 50.5944 59.7883 50.7085 59.835C50.8227 59.8817 50.9449 59.9052 51.0682 59.9041C51.1915 59.9031 51.3134 59.8774 51.4267 59.8288C51.54 59.7801 51.6424 59.7094 51.7281 59.6207L54.3216 57.0272L56.9151 59.6207C57.0902 59.7898 57.3248 59.8834 57.5682 59.8813C57.8117 59.8792 58.0446 59.7815 58.2168 59.6094C58.3889 59.4372 58.4866 59.2043 58.4887 58.9608C58.4908 58.7174 58.3972 58.4828 58.2281 58.3077L55.6346 55.7142L58.2281 53.1207C58.4022 52.9465 58.5 52.7104 58.5 52.4642C58.5 52.218 58.4022 51.9818 58.2281 51.8077Z" fill="#7210FF"/>
<path d="M0.928571 70.5715C1.44141 70.5715 1.85714 70.1558 1.85714 69.6429C1.85714 69.1301 1.44141 68.7144 0.928571 68.7144C0.415736 68.7144 0 69.1301 0 69.6429C0 70.1558 0.415736 70.5715 0.928571 70.5715Z" fill="#989898"/>
<path d="M5.10707 68.7144H3.71422C3.46794 68.7144 3.23176 68.8122 3.05762 68.9863C2.88348 69.1605 2.78564 69.3967 2.78564 69.6429C2.78564 69.8892 2.88348 70.1254 3.05762 70.2995C3.23176 70.4737 3.46794 70.5715 3.71422 70.5715H5.10707C5.35335 70.5715 5.58953 70.4737 5.76367 70.2995C5.93781 70.1254 6.03564 69.8892 6.03564 69.6429C6.03564 69.3967 5.93781 69.1605 5.76367 68.9863C5.58953 68.8122 5.35335 68.7144 5.10707 68.7144ZM74.2856 68.7144H72.8928C72.6465 68.7144 72.4103 68.8122 72.2362 68.9863C72.062 69.1605 71.9642 69.3967 71.9642 69.6429C71.9642 69.8892 72.062 70.1254 72.2362 70.2995C72.4103 70.4737 72.6465 70.5715 72.8928 70.5715H74.2856C74.5319 70.5715 74.7681 70.4737 74.9422 70.2995C75.1164 70.1254 75.2142 69.8892 75.2142 69.6429C75.2142 69.3967 75.1164 69.1605 74.9422 68.9863C74.7681 68.8122 74.5319 68.7144 74.2856 68.7144Z" fill="#989898"/>
<path d="M77.0716 70.5715C77.5845 70.5715 78.0002 70.1558 78.0002 69.6429C78.0002 69.1301 77.5845 68.7144 77.0716 68.7144C76.5588 68.7144 76.1431 69.1301 76.1431 69.6429C76.1431 70.1558 76.5588 70.5715 77.0716 70.5715Z" fill="#989898"/>
<path d="M54.8573 72.4287H51C50.7661 72.4468 50.5477 72.5525 50.3884 72.7247C50.2291 72.8968 50.1406 73.1227 50.1406 73.3573C50.1406 73.5918 50.2291 73.8177 50.3884 73.9899C50.5477 74.162 50.7661 74.2677 51 74.2859H54.8573C55.0911 74.2677 55.3095 74.162 55.4688 73.9899C55.6281 73.8177 55.7166 73.5918 55.7166 73.3573C55.7166 73.1227 55.6281 72.8968 55.4688 72.7247C55.3095 72.5525 55.0911 72.4468 54.8573 72.4287ZM27.0001 72.4287H23.1428C22.909 72.4468 22.6906 72.5525 22.5313 72.7247C22.3719 72.8968 22.2834 73.1227 22.2834 73.3573C22.2834 73.5918 22.3719 73.8177 22.5313 73.9899C22.6906 74.162 22.909 74.2677 23.1428 74.2859H27.0001C27.234 74.2677 27.4524 74.162 27.6117 73.9899C27.771 73.8177 27.8595 73.5918 27.8595 73.3573C27.8595 73.1227 27.771 72.8968 27.6117 72.7247C27.4524 72.5525 27.234 72.4468 27.0001 72.4287ZM48.2858 72.4287H29.7143C29.4681 72.4287 29.2319 72.5265 29.0577 72.7007C28.8836 72.8748 28.7858 73.111 28.7858 73.3573C28.7858 73.6036 28.8836 73.8397 29.0577 74.0139C29.2319 74.188 29.4681 74.2859 29.7143 74.2859H37.115V75.2144H33.4286C33.1823 75.2144 32.9461 75.3123 32.772 75.4864C32.5979 75.6605 32.5 75.8967 32.5 76.143C32.5 76.3893 32.5979 76.6255 32.772 76.7996C32.9461 76.9737 33.1823 77.0716 33.4286 77.0716H45.0358C45.282 77.0716 45.5182 76.9737 45.6924 76.7996C45.8665 76.6255 45.9643 76.3893 45.9643 76.143C45.9643 75.8967 45.8665 75.6605 45.6924 75.4864C45.5182 75.3123 45.282 75.2144 45.0358 75.2144H40.885V74.2859H48.2858C48.532 74.2859 48.7682 74.188 48.9424 74.0139C49.1165 73.8397 49.2143 73.6036 49.2143 73.3573C49.2143 73.111 49.1165 72.8748 48.9424 72.7007C48.7682 72.5265 48.532 72.4287 48.2858 72.4287Z" fill="#7210FF"/>
<path d="M69.9776 68.7142H68.5518C68.6587 68.4163 68.7136 68.1022 68.7143 67.7856V25.0714C68.7134 24.3328 68.4197 23.6247 67.8974 23.1025C67.3752 22.5803 66.6671 22.2865 65.9286 22.2856H65V24.1428H65.9286C66.1748 24.143 66.4108 24.2409 66.5849 24.415C66.759 24.5891 66.8569 24.8252 66.8571 25.0714V67.7856C66.8569 68.0318 66.759 68.2679 66.5849 68.442C66.4108 68.6161 66.1748 68.714 65.9286 68.7142H17.6429C17.3967 68.714 17.1606 68.6161 16.9865 68.442C16.8124 68.2679 16.7145 68.0318 16.7143 67.7856V66.8571H14.8571V67.7856C14.8578 68.1022 14.9128 68.4163 15.0196 68.7142H8.02239C7.89029 68.6969 7.75603 68.7081 7.62857 68.7468C7.50111 68.7856 7.38339 68.8511 7.28327 68.939C7.18315 69.0269 7.10293 69.1351 7.04798 69.2565C6.99303 69.3779 6.9646 69.5096 6.9646 69.6428C6.9646 69.776 6.99303 69.9077 7.04798 70.0291C7.10293 70.1504 7.18315 70.2587 7.28327 70.3465C7.38339 70.4344 7.50111 70.5 7.62857 70.5387C7.75603 70.5775 7.89029 70.5886 8.02239 70.5714H69.9771C70.1092 70.5886 70.2435 70.5775 70.371 70.5387C70.4984 70.5 70.6161 70.4344 70.7163 70.3465C70.8164 70.2587 70.8966 70.1504 70.9516 70.0291C71.0065 69.9077 71.0349 69.776 71.0349 69.6428C71.0349 69.5096 71.0065 69.3779 70.9516 69.2565C70.8966 69.1351 70.8164 69.0269 70.7163 68.939C70.6161 68.8511 70.4984 68.7856 70.371 68.7468C70.2435 68.7081 70.1097 68.6969 69.9776 68.7142ZM53.0446 8.93743C53.3201 8.93743 53.5894 8.85574 53.8185 8.70269C54.0475 8.54964 54.226 8.33211 54.3315 8.0776C54.4369 7.82308 54.4645 7.54303 54.4107 7.27284C54.357 7.00265 54.2243 6.75447 54.0295 6.55967C53.8347 6.36488 53.5866 6.23222 53.3164 6.17848C53.0462 6.12474 52.7661 6.15232 52.5116 6.25774C52.2571 6.36316 52.0396 6.54169 51.8865 6.77074C51.7335 6.9998 51.6518 7.26909 51.6518 7.54457C51.6521 7.91387 51.799 8.26793 52.0601 8.52906C52.3213 8.7902 52.6753 8.93706 53.0446 8.93743ZM53.0446 6.84814C53.1824 6.84814 53.317 6.88899 53.4316 6.96551C53.5461 7.04204 53.6353 7.15081 53.6881 7.27806C53.7408 7.40532 53.7546 7.54534 53.7277 7.68044C53.7008 7.81553 53.6345 7.93962 53.5371 8.03702C53.4397 8.13442 53.3156 8.20075 53.1805 8.22762C53.0454 8.25449 52.9054 8.2407 52.7781 8.18799C52.6509 8.13528 52.5421 8.04601 52.4656 7.93149C52.3891 7.81696 52.3482 7.68231 52.3482 7.54457C52.3483 7.35991 52.4217 7.18284 52.5523 7.05226C52.6829 6.92168 52.86 6.84827 53.0446 6.84814ZM29.7143 1.16064C29.5306 1.16064 29.3511 1.2151 29.1984 1.31714C29.0457 1.41917 28.9267 1.56419 28.8564 1.73387C28.7861 1.90354 28.7677 2.09025 28.8036 2.27037C28.8394 2.4505 28.9278 2.61595 29.0577 2.74582C29.1875 2.87568 29.353 2.96412 29.5331 2.99995C29.7133 3.03577 29.9 3.01739 30.0696 2.9471C30.2393 2.87682 30.3843 2.75781 30.4864 2.6051C30.5884 2.4524 30.6429 2.27287 30.6429 2.08922C30.6426 1.84302 30.5447 1.60698 30.3706 1.43289C30.1965 1.2588 29.9605 1.16089 29.7143 1.16064ZM29.7143 2.5535C29.6225 2.5535 29.5327 2.52627 29.4563 2.47526C29.38 2.42424 29.3205 2.35173 29.2853 2.26689C29.2502 2.18205 29.241 2.0887 29.2589 1.99864C29.2768 1.90858 29.3211 1.82585 29.386 1.76092C29.4509 1.69598 29.5336 1.65177 29.6237 1.63385C29.7138 1.61594 29.8071 1.62513 29.892 1.66027C29.9768 1.69541 30.0493 1.75492 30.1003 1.83127C30.1513 1.90762 30.1786 1.99739 30.1786 2.08922C30.1784 2.21231 30.1295 2.33034 30.0424 2.41738C29.9554 2.50442 29.8374 2.55338 29.7143 2.5535ZM65.6964 1.16064C65.5128 1.16064 65.3332 1.2151 65.1805 1.31714C65.0278 1.41917 64.9088 1.56419 64.8385 1.73387C64.7683 1.90354 64.7499 2.09025 64.7857 2.27037C64.8215 2.4505 64.91 2.61595 65.0398 2.74582C65.1697 2.87568 65.3351 2.96412 65.5153 2.99995C65.6954 3.03577 65.8821 3.01739 66.0518 2.9471C66.2214 2.87682 66.3665 2.75781 66.4685 2.6051C66.5705 2.4524 66.625 2.27287 66.625 2.08922C66.6248 1.84302 66.5268 1.60698 66.3528 1.43289C66.1787 1.2588 65.9426 1.16089 65.6964 1.16064ZM65.6964 2.5535C65.6046 2.5535 65.5148 2.52627 65.4385 2.47526C65.3621 2.42424 65.3026 2.35173 65.2675 2.26689C65.2323 2.18205 65.2231 2.0887 65.2411 1.99864C65.259 1.90858 65.3032 1.82585 65.3681 1.76092C65.4331 1.69598 65.5158 1.65177 65.6058 1.63385C65.6959 1.61594 65.7893 1.62513 65.8741 1.66027C65.9589 1.69541 66.0314 1.75492 66.0825 1.83127C66.1335 1.90762 66.1607 1.99739 66.1607 2.08922C66.1606 2.21231 66.1116 2.33034 66.0246 2.41738C65.9375 2.50442 65.8195 2.55338 65.6964 2.5535ZM76.1429 11.3749C75.9592 11.3749 75.7797 11.4294 75.627 11.5314C75.4743 11.6335 75.3552 11.7785 75.285 11.9482C75.2147 12.1178 75.1963 12.3045 75.2321 12.4847C75.268 12.6648 75.3564 12.8302 75.4863 12.9601C75.6161 13.09 75.7816 13.1784 75.9617 13.2142C76.1418 13.2501 76.3285 13.2317 76.4982 13.1614C76.6679 13.0911 76.8129 12.9721 76.9149 12.8194C77.017 12.6667 77.0714 12.4872 77.0714 12.3035C77.0712 12.0573 76.9733 11.8213 76.7992 11.6472C76.6251 11.4731 76.389 11.3752 76.1429 11.3749ZM76.1429 12.7678C76.051 12.7678 75.9613 12.7406 75.8849 12.6895C75.8086 12.6385 75.7491 12.566 75.7139 12.4812C75.6788 12.3963 75.6696 12.303 75.6875 12.2129C75.7054 12.1229 75.7496 12.0401 75.8146 11.9752C75.8795 11.9103 75.9622 11.8661 76.0523 11.8481C76.1423 11.8302 76.2357 11.8394 76.3205 11.8746C76.4054 11.9097 76.4779 11.9692 76.5289 12.0456C76.5799 12.1219 76.6071 12.2117 76.6071 12.3035C76.607 12.4266 76.5581 12.5446 76.471 12.6317C76.384 12.7187 76.266 12.7677 76.1429 12.7678ZM19.7577 11.2589C19.7577 11.0752 19.7032 10.8957 19.6012 10.743C19.4992 10.5903 19.3541 10.4713 19.1845 10.401C19.0148 10.3307 18.8281 10.3123 18.6479 10.3481C18.4678 10.384 18.3024 10.4724 18.1725 10.6023C18.0426 10.7321 17.9542 10.8976 17.9184 11.0777C17.8825 11.2578 17.9009 11.4445 17.9712 11.6142C18.0415 11.7839 18.1605 11.9289 18.3132 12.0309C18.4659 12.133 18.6455 12.1874 18.8291 12.1874C19.0753 12.1872 19.3113 12.0893 19.4854 11.9152C19.6595 11.7411 19.7574 11.5051 19.7577 11.2589ZM18.3648 11.2589C18.3648 11.167 18.392 11.0773 18.4431 11.0009C18.4941 10.9246 18.5666 10.8651 18.6514 10.8299C18.7363 10.7948 18.8296 10.7856 18.9197 10.8035C19.0097 10.8214 19.0925 10.8656 19.1574 10.9306C19.2223 10.9955 19.2666 11.0782 19.2845 11.1683C19.3024 11.2583 19.2932 11.3517 19.258 11.4365C19.2229 11.5214 19.1634 11.5939 19.087 11.6449C19.0107 11.6959 18.9209 11.7231 18.8291 11.7231C18.706 11.723 18.588 11.6741 18.5009 11.587C18.4139 11.5 18.3649 11.382 18.3648 11.2589Z" fill="#989898"/>
<path d="M2.84976 17.2996L3.54016 16.3919L3.10419 16.1449L2.6608 17.1617H2.64641L2.19605 16.1519L1.75266 16.4063L2.43562 17.2926V17.307L1.3673 17.1691V17.6631L2.44258 17.5252V17.5396L1.75266 18.4255L2.16633 18.6873L2.63898 17.6631H2.65337L3.08933 18.6799L3.54712 18.4185L2.84976 17.5466V17.5322L3.94641 17.6631V17.1691L2.84976 17.314V17.2996ZM38.5334 10.326L38.1359 10.8363L38.3746 10.9871L38.6467 10.397H38.6546L38.9057 10.983L39.1694 10.8321L38.7678 10.3302V10.3218L39.3993 10.397V10.1129L38.7678 10.1965V10.1881L39.1653 9.66532L38.9141 9.52279L38.6592 10.1083H38.6508L38.3913 9.52697L38.1359 9.67368L38.5292 10.1839V10.1923L37.914 10.1129V10.397L38.5334 10.3176V10.326ZM72.1059 22.1523V21.668L71.0301 21.8106V21.7962L71.7071 20.9057L71.2794 20.6633L70.8449 21.6606H70.8305L70.3889 20.6703L69.9539 20.9201L70.6239 21.7892V21.8036L69.576 21.668V22.1523L70.6308 22.0172V22.0316L69.9539 22.9007L70.3602 23.1575L70.8235 22.1523H70.8374L71.2651 23.15L71.714 22.8938L71.0301 22.0385V22.0241L72.1059 22.1523ZM2.55262 3.63797L3.13669 2.86957L2.76758 2.66064L2.39291 3.52097H2.38037L1.99966 2.66668L1.62405 2.88211L2.20208 3.63193V3.644L1.29858 3.52747V3.94532L2.20812 3.82832V3.84086L1.62405 4.59068L1.97458 4.81214L2.37433 3.94532H2.38641L2.75551 4.80564L3.14273 4.58464L2.55262 3.84689V3.83436L3.48026 3.94532V3.52747L2.55262 3.65004V3.63797Z" fill="#7210FF"/>
</svg>
