<svg width="120" height="120" viewBox="0 0 120 120" fill="none" xmlns="http://www.w3.org/2000/svg">
    <g clip-path="url(#wa24ueopsa)">
        <path d="M24.286 46.25a1.429 1.429 0 1 0 0-2.857h-2.857A1.429 1.429 0 0 0 20 44.822v5.714a1.429 1.429 0 0 0 1.429 1.428h1.428v2.858H21.43a1.428 1.428 0 1 0 0 2.857h2.857a1.429 1.429 0 0 0 1.428-1.429v-5.714a1.428 1.428 0 0 0-1.428-1.429h-1.429V46.25h1.429z" fill="#7210FF"/>
        <path d="M67.857 22.857H52.143a4.282 4.282 0 0 0-4.286 4.268v8.536a4.282 4.282 0 0 0 4.286 4.268h15.714a4.281 4.281 0 0 0 4.286-4.268v-8.536a4.281 4.281 0 0 0-4.286-4.268zm1.428 12.804a1.427 1.427 0 0 1-1.428 1.422H52.143a1.428 1.428 0 0 1-1.429-1.422v-8.536a1.427 1.427 0 0 1 1.429-1.423h15.714a1.428 1.428 0 0 1 1.428 1.423v8.536z" fill="#989898"/>
        <path d="m62.625 30.858-4.492-2.363a.683.683 0 0 0-1.003.584l-.12 4.593a.683.683 0 0 0 .983.63l4.611-2.23a.68.68 0 0 0 .02-1.214z" fill="#7210FF"/>
        <path d="M53.929 46.33a1.424 1.424 0 0 0 1.32-1.968 1.424 1.424 0 0 0-1.32-.877h-2.857a1.426 1.426 0 0 0-1.429 1.423v5.69a1.425 1.425 0 0 0 1.429 1.423H52.5v2.846h-1.428a1.422 1.422 0 1 0 0 2.845h2.857a1.426 1.426 0 0 0 1.428-1.423V50.6a1.426 1.426 0 0 0-1.428-1.423H52.5v-2.845h1.429z" fill="#989898"/>
        <path d="M62.5 46.33a1.424 1.424 0 1 0 0-2.845h-2.857a1.426 1.426 0 0 0-1.428 1.423v11.381a1.426 1.426 0 0 0 1.428 1.423H62.5a1.424 1.424 0 1 0 0-2.846h-1.428v-8.535H62.5zm-15.714.712a3.568 3.568 0 0 0-3.572-3.557h-2.142a1.426 1.426 0 0 0-1.429 1.423v11.381a1.426 1.426 0 0 0 1.429 1.423h2.142a3.569 3.569 0 0 0 3.572-3.557v-.711a4.236 4.236 0 0 0-1.1-2.845 4.236 4.236 0 0 0 1.1-2.846v-.711zm-2.857 7.113a.714.714 0 0 1-.715.712H42.5V52.02a1.427 1.427 0 0 1 1.429 1.423v.711zm0-6.402a1.427 1.427 0 0 1-1.429 1.423v-2.845h.715a.713.713 0 0 1 .714.711v.711z" fill="#7210FF"/>
        <path d="M91.072 47.042a3.569 3.569 0 0 0-3.572-3.557h-2.143a1.425 1.425 0 0 0-1.428 1.423v11.381a1.426 1.426 0 0 0 1.428 1.423H87.5a3.568 3.568 0 0 0 3.572-3.557v-.711a4.236 4.236 0 0 0-1.1-2.845 4.236 4.236 0 0 0 1.1-2.846v-.711zm-2.858 7.113a.714.714 0 0 1-.714.712h-.714V52.02a1.427 1.427 0 0 1 1.428 1.423v.711zm0-6.402a1.427 1.427 0 0 1-1.428 1.423V46.33h.714a.713.713 0 0 1 .714.71v.712z" fill="#989898"/>
        <path d="M97.857 46.33a1.424 1.424 0 0 0 .546-2.738 1.422 1.422 0 0 0-.546-.107H95a1.426 1.426 0 0 0-1.429 1.423v11.381A1.426 1.426 0 0 0 95 57.712h2.857a1.424 1.424 0 1 0 0-2.846h-1.429v-2.845h.858a1.424 1.424 0 1 0 0-2.845h-.858v-2.845h1.429z" fill="#7210FF"/>
        <path d="M75.357 47.042a3.568 3.568 0 0 0-3.571-3.557h-3.572a1.426 1.426 0 0 0-1.428 1.423V56.29a1.429 1.429 0 1 0 2.857 0v-4.268h1.428a1.427 1.427 0 0 1 1.43 1.423v2.845a1.429 1.429 0 1 0 2.856 0v-2.845a4.236 4.236 0 0 0-1.1-2.845 4.236 4.236 0 0 0 1.1-2.846v-.711zm-2.857.711a1.427 1.427 0 0 1-1.428 1.423h-1.43v-2.845h2.144a.714.714 0 0 1 .714.711v.711zm-42.857-4.268a1.426 1.426 0 0 0-1.429 1.423V56.29a1.426 1.426 0 0 0 1.429 1.423h5.714a1.426 1.426 0 0 0 1.429-1.423V44.91a1.429 1.429 0 1 0-2.857 0v9.958H31.07v-9.959a1.426 1.426 0 0 0-1.428-1.423z" fill="#989898"/>
        <path d="M81.072 56.29V44.907a1.429 1.429 0 1 0-2.858 0V56.29a1.429 1.429 0 1 0 2.858 0z" fill="#7210FF"/>
        <path d="M51.23 60.913H18.573a1.427 1.427 0 0 1-1.429-1.423V41.707a1.427 1.427 0 0 1 1.429-1.422h28.154a7.083 7.083 0 0 1-1.49-2.846H18.571a4.281 4.281 0 0 0-4.286 4.268V59.49a4.282 4.282 0 0 0 4.286 4.268h30.935a7.11 7.11 0 0 1 1.724-2.845zm50.199-23.474H74.765a7.085 7.085 0 0 1-1.49 2.846h28.154a1.426 1.426 0 0 1 1.428 1.422V59.49a1.426 1.426 0 0 1-1.428 1.423H61.435a7.111 7.111 0 0 1 1.724 2.845h38.27a4.28 4.28 0 0 0 4.286-4.268V41.707a4.282 4.282 0 0 0-4.286-4.268zM59.875 11.786a2.143 2.143 0 1 0 0-4.285 2.143 2.143 0 0 0 0 4.285zm0-3.214a1.071 1.071 0 1 1 0 2.142 1.071 1.071 0 0 1 0-2.142zM31.542 1.429a1.428 1.428 0 1 0 0 2.857 1.428 1.428 0 0 0 0-2.857zm0 2.143a.714.714 0 1 1 0-1.43.714.714 0 0 1 0 1.43zm66.39-2.143a1.429 1.429 0 1 0 0 2.858 1.429 1.429 0 0 0 0-2.858zm0 2.143a.714.714 0 1 1 0-1.43.714.714 0 0 1 0 1.43zM79.36 14.635a1.428 1.428 0 1 0 0 2.856 1.428 1.428 0 0 0 0-2.856zm0 2.143a.714.714 0 1 1 0-1.428.714.714 0 0 1 0 1.428zM5.59 8.928a1.429 1.429 0 1 0-2.858 0 1.429 1.429 0 0 0 2.858 0zm-2.143 0a.714.714 0 1 1 1.428 0 .714.714 0 0 1-1.428 0z" fill="#989898"/>
        <path d="m35.25 24.244 1.063-1.397-.67-.38-.682 1.565h-.023l-.693-1.554-.682.391 1.05 1.364v.022l-1.643-.212v.76l1.654-.212v.022l-1.06 1.363.636.403.727-1.576h.022l.67 1.564.705-.402-1.073-1.341v-.022l1.687.201v-.76l-1.687.224v-.023zM6.596 32.252l-.612.785.367.233.419-.908h.013l.386.901.405-.232-.618-.772v-.013l.972.116v-.438l-.972.129v-.013l.612-.804-.386-.22-.393.901h-.013l-.398-.894-.394.225.606.786v.013l-.946-.122v.437l.952-.123v.013zM101.824 28.786v-.745l-1.655.219v-.022l1.041-1.37-.658-.372-.668 1.534h-.022l-.68-1.524-.669.384 1.03 1.337v.022l-1.611-.208v.745l1.623-.208v.022l-1.042 1.337.624.395.714-1.546h.021l.658 1.535.691-.395-1.052-1.315v-.022l1.655.197zM115.84 13.063l.899-1.183-.568-.32-.576 1.323h-.019l-.587-1.315-.577.332.889 1.153v.019l-1.39-.18v.644l1.4-.18v.019l-.899 1.153.539.341.615-1.333h.019l.567 1.323.596-.34-.908-1.135v-.018l1.428.17v-.643l-1.428.188v-.018z" fill="#7210FF"/>
        <path d="M1.429 108.571a1.428 1.428 0 1 0 0-2.856 1.428 1.428 0 0 0 0 2.856zM7.857 105.714H5.714a1.429 1.429 0 0 0 0 2.857h2.143a1.428 1.428 0 1 0 0-2.857zm106.429 0h-2.143a1.428 1.428 0 0 0 0 2.857h2.143a1.427 1.427 0 1 0 0-2.857zM118.572 108.571a1.428 1.428 0 1 0 0-2.855 1.428 1.428 0 0 0 0 2.855z" fill="#989898"/>
        <path d="M84.396 111.429h-5.934a1.434 1.434 0 0 0 0 2.857h5.934a1.434 1.434 0 0 0 0-2.857zm-42.858 0h-5.934a1.428 1.428 0 0 0-1.318 1.428 1.43 1.43 0 0 0 1.318 1.429h5.934a1.433 1.433 0 0 0 0-2.857zm32.748 0H45.714a1.428 1.428 0 1 0 0 2.857H57.1v1.428h-5.672a1.429 1.429 0 0 0 0 2.858h17.858a1.429 1.429 0 0 0 0-2.858H62.9v-1.428h11.386a1.429 1.429 0 0 0 0-2.857z" fill="#7210FF"/>
        <path d="M107.658 105.714H77.09a5.612 5.612 0 0 0 .768-2.833V84.386a4.297 4.297 0 0 0-5.896-3.96 4.294 4.294 0 0 0-5.612-2.892 4.294 4.294 0 0 0-5.718-3.565v-8.077a4.3 4.3 0 0 0-8.6 0V84.36l-1.365-1.826a4.75 4.75 0 0 0-7.357-.291 4.658 4.658 0 0 0-.367 5.696l9.732 17.671c.02.036.046.068.067.104h-40.4a1.45 1.45 0 0 0-1.5.834 1.446 1.446 0 0 0 .363 1.677 1.436 1.436 0 0 0 1.137.346h95.316a1.428 1.428 0 0 0 1.137-.346 1.44 1.44 0 0 0-1.137-2.511zm-52.477-1.472-9.767-17.733a1.581 1.581 0 0 0-.081-.13 1.827 1.827 0 0 1 .127-2.26 1.885 1.885 0 0 1 2.916.114l3.939 5.27a1.43 1.43 0 0 0 2.575-.849V65.892a1.443 1.443 0 0 1 2.885 0v24.185a1.429 1.429 0 0 0 2.857 0V77.984a1.443 1.443 0 0 1 2.885 0v12.093a1.429 1.429 0 0 0 2.857 0V81.54a1.443 1.443 0 0 1 2.885 0v8.536a1.428 1.428 0 1 0 2.857 0v-5.69a1.442 1.442 0 0 1 2.885 0v18.494a2.857 2.857 0 0 1-2.76 2.833h-14.71a2.866 2.866 0 0 1-2.35-1.472z" fill="#989898"/>
    </g>
    <defs>
        <clipPath id="wa24ueopsa">
            <path fill="#fff" d="M0 0h120v120H0z"/>
        </clipPath>
    </defs>
</svg>
