<svg width="14" height="14" viewBox="0 0 14 14" fill="none" xmlns="http://www.w3.org/2000/svg">
    <g clip-path="url(#or46446yza)">
        <path d="M8.646 2.351.943 10.055a.307.307 0 0 0-.08.14l-.854 3.428a.304.304 0 0 0 .367.367l3.427-.854a.303.303 0 0 0 .141-.08l7.704-7.703-3.002-3.002zm4.91-1.05-.857-.857c-.573-.573-1.572-.573-2.145 0l-1.05 1.05 3.002 3.002 1.05-1.05c.286-.287.444-.668.444-1.073 0-.405-.158-.786-.444-1.072z" fill="#fff"/>
    </g>
    <defs>
        <clipPath id="or46446yza">
            <path fill="#fff" d="M0 0h14v14H0z"/>
        </clipPath>
    </defs>
</svg>
