<svg width="24" height="25" viewBox="0 0 24 25" fill="none" xmlns="http://www.w3.org/2000/svg">
<g id="ic_ electric num" clip-path="url(#clip0_3444_10487)">
<path id="Vector" d="M17.9241 2.58077C17.6668 2.39876 17.3107 2.45985 17.1287 2.71713L16.169 4.0739L14.3072 2.75703L15.2669 1.40026C15.4489 1.14297 15.3878 0.786826 15.1305 0.604812C14.8732 0.422798 14.517 0.483886 14.335 0.741173L13.3754 2.09794L12.9053 1.76543C12.7818 1.67804 12.6286 1.64325 12.4794 1.66891C12.3302 1.69445 12.1973 1.77826 12.11 1.90179L9.82681 5.12979C9.46827 5.63659 9.32892 6.25453 9.43436 6.86971C9.5398 7.48488 9.87703 8.02114 10.3839 8.37963L10.7144 8.61338L5.94881 15.0168C5.82 15.1899 5.79978 15.4208 5.89669 15.6136C5.99359 15.8064 6.19088 15.9281 6.40664 15.9281H15.691L11.2629 21.8781L11.4778 20.0458C11.5145 19.7328 11.2905 19.4492 10.9775 19.4125C10.6647 19.3755 10.381 19.5998 10.3442 19.9128L9.88084 23.8628C9.85681 24.0677 9.94518 24.2695 10.1119 24.3908C10.2112 24.463 10.329 24.5 10.4476 24.5C10.5284 24.5 10.6095 24.4829 10.6854 24.4481L14.3686 22.7595C14.6551 22.6281 14.7808 22.2894 14.6495 22.0029C14.5181 21.7163 14.1794 21.5907 13.8929 21.7219L12.2366 22.4814L17.2849 15.6981C17.4137 15.525 17.4339 15.2941 17.337 15.1013C17.2401 14.9086 17.0428 14.7868 16.827 14.7868L7.54248 14.7868L11.6462 9.27263L12.1741 9.64596C12.6809 10.0045 13.2988 10.1438 13.9141 10.0384C14.5293 9.93297 15.0655 9.59568 15.424 9.08888L17.7071 5.86089C17.8891 5.6036 17.8281 5.24745 17.5708 5.06544L17.1007 4.73299L18.0604 3.37622C18.2425 3.11888 18.1814 2.76273 17.9241 2.58077ZM14.4923 8.42974C14.3098 8.68768 14.036 8.85947 13.7213 8.91339C13.4066 8.96752 13.0912 8.89654 12.8333 8.71409L11.0429 7.44771C10.7849 7.26526 10.6132 6.99145 10.5593 6.67677C10.5053 6.36204 10.5761 6.04665 10.7586 5.78871L12.7122 3.02665L16.4459 5.66762L14.4923 8.42974Z" fill="#989898"/>
</g>
<defs>
<clipPath id="clip0_3444_10487">
<rect width="24" height="24" fill="white" transform="translate(0 0.5)"/>
</clipPath>
</defs>
</svg>
