<svg width="40" height="40" viewBox="0 0 40 40" fill="none" xmlns="http://www.w3.org/2000/svg">
<path fill-rule="evenodd" clip-rule="evenodd" d="M32.7475 7.21387C33.036 7.21387 33.2699 7.44779 33.2699 7.73627C33.2699 8.02475 33.036 8.25867 32.7475 8.25867H29.1813V12.97H32.7475C33.036 12.97 33.2699 13.2039 33.2699 13.4924C33.2699 13.7809 33.036 14.0148 32.7475 14.0148H29.1813V18.7261H32.7475C33.036 18.7261 33.2699 18.96 33.2699 19.2485C33.2699 19.537 33.036 19.7709 32.7475 19.7709H28.6589C28.3705 19.7709 28.1365 19.537 28.1365 19.2485V14.0147H25.7197C25.4312 14.0147 25.1973 13.7808 25.1973 13.4923C25.1973 13.2039 25.4312 12.9699 25.7197 12.9699H28.1365V7.73627C28.1365 7.44779 28.3705 7.21387 28.6589 7.21387H32.7475Z" stroke="black"/>
<path fill-rule="evenodd" clip-rule="evenodd" d="M9.43164 29.6064C11.806 27.558 13.8713 25.1754 17.2675 25.163L24.0979 25.136C25.5087 25.1144 25.4804 26.8796 24.8928 27.3712C24.6983 27.5338 24.4638 27.6288 24.3028 27.6306L20.71 27.6632C20.4801 27.6649 20.2952 27.8528 20.297 28.0827C20.2988 28.3126 20.4867 28.4975 20.7165 28.4957L24.8317 28.4632C24.9216 28.4622 26.062 28.0488 27.3768 26.8993L32.3225 22.576C33.484 22.3041 34.0261 23.427 33.2952 24.4081L27.1817 30.6724C27.0444 30.8623 26.8515 30.9826 26.6272 31.0638C26.318 31.1633 25.9906 31.2144 25.6487 31.2269L18.0336 31.5531C17.4276 31.576 17.0873 31.9196 16.6555 32.181L12.7912 34.3033L9.43164 29.6064Z" fill="#FFBCAB" stroke="black"/>
<path fill-rule="evenodd" clip-rule="evenodd" d="M10.9421 27.7714L14.9358 33.2032C15.2135 33.5809 15.1317 34.1173 14.7539 34.3949L11.8195 36.5525C11.4417 36.8302 10.9054 36.7484 10.6277 36.3706L6.63402 30.9389C6.35626 30.5611 6.4381 30.0248 6.81586 29.7471L9.75034 27.5896C10.1281 27.3118 10.6644 27.3937 10.9421 27.7714Z" fill="#989898" stroke="black"/>
<path d="M32.9837 9.12179C33.749 9.12179 34.3693 8.50143 34.3693 7.73619C34.3693 6.97094 33.749 6.35059 32.9837 6.35059C32.2185 6.35059 31.5981 6.97094 31.5981 7.73619C31.5981 8.50143 32.2185 9.12179 32.9837 9.12179Z" fill="#E5A800" stroke="black"/>
<path d="M32.9837 14.8781C33.749 14.8781 34.3693 14.2578 34.3693 13.4925C34.3693 12.7273 33.749 12.1069 32.9837 12.1069C32.2185 12.1069 31.5981 12.7273 31.5981 13.4925C31.5981 14.2578 32.2185 14.8781 32.9837 14.8781Z" fill="#E5A800" stroke="black"/>
<path d="M32.9837 20.634C33.749 20.634 34.3693 20.0136 34.3693 19.2484C34.3693 18.4831 33.749 17.8628 32.9837 17.8628C32.2185 17.8628 31.5981 18.4831 31.5981 19.2484C31.5981 20.0136 32.2185 20.634 32.9837 20.634Z" fill="#E5A800" stroke="black"/>
<path fill-rule="evenodd" clip-rule="evenodd" d="M6.61475 8.20654H23.5348V20.9678C23.5348 21.3902 23.1892 21.7358 22.7668 21.7358H7.38283C6.96043 21.7358 6.61483 21.3902 6.61483 20.9678L6.61475 8.20654Z" fill="#E6E6E6" stroke="black"/>
<path fill-rule="evenodd" clip-rule="evenodd" d="M5.63086 9.07688V8.32728C5.63086 8.0032 5.80614 7.72584 6.09886 7.58672L15.1537 3.2832L24.0553 7.58536C24.3453 7.72552 24.5184 8.00136 24.5184 8.3236V9.07696C24.5184 9.31784 24.3219 9.51432 24.081 9.51432H6.06822C5.82726 9.51424 5.63086 9.31776 5.63086 9.07688Z" fill="#E5A800" stroke="black"/>
<path fill-rule="evenodd" clip-rule="evenodd" d="M15.5217 13.2734H20.0235C20.2697 13.2734 20.4705 13.4742 20.4705 13.7205V17.9822H15.0747V13.7205C15.0747 13.4742 15.2755 13.2734 15.5217 13.2734Z" fill="#00AF46" stroke="black"/>
<path fill-rule="evenodd" clip-rule="evenodd" d="M15.0747 17.2954H20.4705V21.736H15.0747V17.2954Z" fill="#00AF46" stroke="black"/>
<path fill-rule="evenodd" clip-rule="evenodd" d="M9.67871 17.2954H15.0746V21.736H9.67871V17.2954Z" fill="#00AF46" stroke="black"/>
</svg>
