<svg width="24" height="24" viewBox="0 0 24 24" fill="none" xmlns="http://www.w3.org/2000/svg">
    <path fill-rule="evenodd" clip-rule="evenodd" d="m10.737 13.449-1.147-1.8 2.259-2.512 4.136 4.317h-5.248v-.005zm-.39 0L7.643 9.195 4.76 13.45h5.585z" fill="#0065A3"/>
    <path fill-rule="evenodd" clip-rule="evenodd" d="M4.283 13.61V4.63c0-.157.127-.284.283-.284h11.653c.157 0 .283.127.283.283v8.98a.378.378 0 0 0-.01-.077.279.279 0 0 0-.268-.2H4.561a.278.278 0 0 0-.268.2c-.005.024-.01.049-.01.078zm11.649 2.873H4.844v-2.59h11.093v2.59h-.005zM3.59 17.785h13.595V3.605H3.59v14.18z" fill="#DEDEFF"/>
    <path fill-rule="evenodd" clip-rule="evenodd" d="M16.215 13.893H4.56a.283.283 0 0 1-.283-.283V4.63c0-.157.127-.284.283-.284h11.654c.156 0 .283.127.283.283v8.98a.286.286 0 0 1-.283.284zm-11.371-.561h11.093v-8.42H4.844v8.42z" fill="#333"/>
    <path fill-rule="evenodd" clip-rule="evenodd" d="M10.649 13.893a.277.277 0 0 1-.24-.132L7.64 9.405l-2.844 4.2a.282.282 0 0 1-.39.073.282.282 0 0 1-.073-.39l3.083-4.556a.28.28 0 0 1 .468.01l3 4.717a.278.278 0 0 1-.088.385.24.24 0 0 1-.146.049z" fill="#333"/>
    <path fill-rule="evenodd" clip-rule="evenodd" d="M16.215 13.727a.289.289 0 0 1-.205-.088l-4.156-4.337-2.259 2.513a.274.274 0 0 1-.395.02.274.274 0 0 1-.02-.396l2.459-2.737a.278.278 0 0 1 .41-.004l4.366 4.556a.278.278 0 0 1-.01.395.258.258 0 0 1-.19.078zM9.868 8.483a1.24 1.24 0 0 1-1.239-1.24 1.24 1.24 0 0 1 1.24-1.238 1.24 1.24 0 0 1 1.238 1.239 1.24 1.24 0 0 1-1.239 1.239zm0-1.917a.677.677 0 0 0-.678.678c0 .376.303.678.678.678a.677.677 0 0 0 .678-.678.68.68 0 0 0-.678-.678z" fill="#333"/>
    <path fill-rule="evenodd" clip-rule="evenodd" d="M16.215 17.044H4.56a.283.283 0 0 1-.283-.283V13.61c0-.156.127-.283.283-.283h11.654c.156 0 .283.127.283.283v3.151a.286.286 0 0 1-.283.283zm-11.371-.561h11.093v-2.59H4.844v2.59z" fill="#333"/>
    <path fill-rule="evenodd" clip-rule="evenodd" d="M17.468 18.346H3.312a.283.283 0 0 1-.283-.282V3.327c0-.156.127-.283.283-.283h14.156c.156 0 .283.127.283.283v14.741a.285.285 0 0 1-.283.278zm-13.878-.56h13.595V3.604H3.59v14.18z" fill="#333"/>
    <path fill-rule="evenodd" clip-rule="evenodd" d="M19.62 17.137a.283.283 0 0 1-.283-.283V9.298h-1.874a.283.283 0 0 1 0-.566h2.156c.157 0 .283.127.283.283v7.839a.283.283 0 0 1-.283.283z" fill="#333"/>
    <path fill-rule="evenodd" clip-rule="evenodd" d="M19.62 19.888H9.448a.283.283 0 0 1-.283-.283v-1.541a.283.283 0 0 1 .566 0v1.258h9.61v-2.19h-1.874a.283.283 0 0 1 0-.566h2.156c.157 0 .283.127.283.283v2.76a.286.286 0 0 1-.288.279z" fill="#333"/>
    <path fill-rule="evenodd" clip-rule="evenodd" d="M20.712 21.03H8.356a.283.283 0 0 1-.283-.284v-2.678a.283.283 0 0 1 .566 0v2.4h11.795V8.161h-2.966a.283.283 0 0 1 0-.566h3.25c.155 0 .282.127.282.283v12.868a.29.29 0 0 1-.288.283z" fill="#333"/>
    <path fill-rule="evenodd" clip-rule="evenodd" d="m7.883 8.742 1.541 2.424 2.215-2.463a.278.278 0 0 1 .41-.005l3.883 4.048V4.912H4.844v7.625l2.57-3.8a.283.283 0 0 1 .469.005zm1.985-.259A1.24 1.24 0 0 1 8.63 7.244a1.24 1.24 0 0 1 1.24-1.239 1.24 1.24 0 0 1 1.238 1.24 1.24 1.24 0 0 1-1.239 1.238z" fill="#33DDFE"/>
    <path d="M9.868 7.922a.678.678 0 1 0 0-1.356.678.678 0 0 0 0 1.356z" fill="#FEF274"/>
    <path fill-rule="evenodd" clip-rule="evenodd" d="M15.932 13.893H4.844v2.59h11.088v-2.59zm1.536 4.453H9.732v.981h9.61v-2.19h-1.59v.927a.286.286 0 0 1-.284.282z" fill="#91E200"/>
    <path fill-rule="evenodd" clip-rule="evenodd" d="M19.62 19.888H9.448a.283.283 0 0 1-.283-.283v-1.259h-.532v2.118H20.43V8.16h-2.688v.576h1.874c.156 0 .283.127.283.283v10.59a.272.272 0 0 1-.279.278z" fill="#DEDEFF"/>
    <path fill-rule="evenodd" clip-rule="evenodd" d="M17.746 9.298h1.59v7.278h-1.59V9.298z" fill="#33DDFE"/>
</svg>
