<svg width="40" height="40" viewBox="0 0 40 40" fill="none" xmlns="http://www.w3.org/2000/svg">
<g clip-path="url(#clip0_2543_4701)">
<path opacity="0.1" d="M40 15.0398C40 14.2235 39.3358 13.5594 38.5196 13.5594H34.8309C34.5073 13.5594 34.2449 13.8217 34.2449 14.1453C34.2449 14.4689 34.5073 14.7312 34.8309 14.7312H38.5196C38.6897 14.7312 38.8281 14.8696 38.8281 15.0398V35.3482L30.7456 25.4103C30.4632 25.0632 30.0447 24.864 29.5972 24.864H22.7693C22.4458 24.864 22.1834 25.1264 22.1834 25.45C22.1834 25.7736 22.4458 26.0359 22.7693 26.0359H29.5971C29.6904 26.0359 29.7776 26.0774 29.8364 26.1497L38.1822 36.4114H9.41908C9.3258 36.4114 9.23854 36.3699 9.17971 36.2975L1.24307 26.539C1.13213 26.4025 1.17869 26.2648 1.20385 26.2119C1.229 26.1589 1.30658 26.0359 1.48244 26.0359H19.8766C20.2002 26.0359 20.4626 25.7736 20.4626 25.45C20.4626 25.1264 20.2002 24.864 19.8766 24.864H9.57978V20.3742C9.66291 20.3764 9.74627 20.3778 9.82994 20.3778H16.7158C17.2073 20.3778 17.6464 20.0845 17.8345 19.6304C18.0225 19.1763 17.9195 18.6584 17.572 18.3108L16.5811 17.32C17.9554 15.7579 18.7346 13.7936 18.8046 11.7058H20.7365C20.819 11.7058 20.8965 11.7379 20.9547 11.7961L22.5987 13.4402C22.468 13.7613 22.3953 14.1121 22.3953 14.4797C22.3953 16.0052 23.6364 17.2463 25.1619 17.2463C26.6025 17.2463 27.789 16.1392 27.9166 14.7312H31.9382C32.2617 14.7312 32.5241 14.4689 32.5241 14.1453C32.5241 13.8217 32.2617 13.5594 31.9382 13.5594H27.7705C27.3904 12.4851 26.3649 11.7132 25.162 11.7132C24.4332 11.7132 23.7696 11.9969 23.275 12.4592L21.7833 10.9675C21.5037 10.6879 21.132 10.5339 20.7365 10.5339H18.7677C18.6241 9.02841 18.1067 7.59069 17.2471 6.33391C17.0644 6.0668 16.6998 5.99836 16.4327 6.18102C16.1656 6.36367 16.0971 6.72836 16.2798 6.99546C17.1686 8.29506 17.6385 9.81731 17.6385 11.3975C17.6385 13.4831 16.8262 15.4441 15.3514 16.9189C15.1225 17.1477 15.1225 17.5187 15.3514 17.7475L16.7433 19.1394C16.7532 19.1493 16.7617 19.1578 16.7517 19.1819C16.7418 19.206 16.7297 19.206 16.7158 19.206H9.82994C5.52435 19.206 2.0215 15.7031 2.02142 11.3975C2.02142 9.31388 2.83414 7.35359 4.31007 5.87766C5.78599 4.40174 7.74628 3.58893 9.82994 3.58893C11.4842 3.58893 13.0651 4.1001 14.4015 5.06697C14.6638 5.25673 15.0301 5.1979 15.2197 4.93572C15.4094 4.67353 15.3507 4.30721 15.0885 4.11752C13.5509 3.00503 11.7325 2.41699 9.82994 2.41699C7.43324 2.41699 5.17865 3.35167 3.4814 5.04892C1.78423 6.74625 0.849555 9.00091 0.849555 11.3975C0.849555 15.8655 4.12952 19.5812 8.40792 20.2649V24.864H1.48244C0.905648 24.864 0.393388 25.1876 0.145577 25.7086C-0.102154 26.2294 -0.0300458 26.831 0.333935 27.2785L8.27058 37.037C8.55292 37.3842 8.97159 37.5834 9.41908 37.5834H39.414C39.7289 37.5873 40.005 37.3125 39.9999 36.9971V15.0398H40ZM25.162 12.885C26.0413 12.885 26.7567 13.6004 26.7567 14.4798C26.7567 15.3591 26.0413 16.0745 25.162 16.0745C24.2826 16.0745 23.5672 15.3591 23.5672 14.4798C23.5672 13.6004 24.2826 12.885 25.162 12.885Z" fill="#7210FF"/>
<path d="M21.6186 31.7555L23.6412 34.4131C23.8981 34.7507 24.3049 34.9523 24.7291 34.9523H32.6211C32.9948 34.9523 33.3301 34.7443 33.4961 34.4094C33.6621 34.0746 33.6246 33.6818 33.3983 33.3843L31.3757 30.7267C31.1188 30.3891 30.7121 30.1875 30.2878 30.1875H22.3957C22.022 30.1875 21.6867 30.3955 21.5207 30.7305C21.3548 31.0655 21.3923 31.4582 21.6186 31.7555ZM30.2878 31.3594C30.3484 31.3594 30.4065 31.3883 30.4432 31.4365L32.227 33.7804H24.7291C24.6685 33.7804 24.6104 33.7516 24.5738 33.7034L22.7899 31.3594H30.2878Z" fill="#7210FF"/>
<path d="M15.8293 34.3662C15.8293 34.6898 16.0917 34.9521 16.4153 34.9521H20.0002C20.3238 34.9521 20.5861 34.6898 20.5861 34.3662C20.5861 34.0426 20.3238 33.7803 20.0002 33.7803H16.4153C16.0917 33.7803 15.8293 34.0426 15.8293 34.3662Z" fill="#7210FF"/>
<path d="M18.6921 33.0088C19.0156 33.0088 19.278 32.7464 19.278 32.4229C19.278 32.0993 19.0156 31.8369 18.6921 31.8369H17.1704C16.8468 31.8369 16.5845 32.0993 16.5845 32.4229C16.5845 32.7464 16.8468 33.0088 17.1704 33.0088H18.6921Z" fill="#7210FF"/>
<path d="M13.978 9.00731C13.978 8.53778 13.7951 8.0963 13.4631 7.76443C13.1311 7.4324 12.6897 7.24951 12.2202 7.24951C11.7507 7.24951 11.3092 7.4324 10.9772 7.76443L9.82998 8.91168L8.68288 7.76435C8.35085 7.43232 7.90945 7.24951 7.43992 7.24951C6.9704 7.24951 6.52892 7.4324 6.19697 7.76435C5.86494 8.09638 5.68213 8.53778 5.68213 9.00731C5.68213 9.47683 5.86494 9.91824 6.19697 10.2503L7.34414 11.3975L6.19697 12.5447C5.86494 12.8767 5.68213 13.3181 5.68213 13.7877C5.68213 14.2572 5.86502 14.6987 6.19697 15.0305C6.529 15.3626 6.9704 15.5454 7.43992 15.5454C7.90945 15.5454 8.35093 15.3626 8.68288 15.0306L9.83006 13.8834L10.9773 15.0306C11.3093 15.3626 11.7507 15.5454 12.2203 15.5454C12.6898 15.5454 13.1312 15.3626 13.4632 15.0306C13.7953 14.6986 13.9781 14.2572 13.9781 13.7877C13.9781 13.3181 13.7953 12.8767 13.4632 12.5447L12.316 11.3974L13.4632 10.2502C13.7952 9.91824 13.978 9.47683 13.978 9.00731ZM12.6345 9.4216L11.0729 10.9831C10.8441 11.212 10.8441 11.583 11.0729 11.8117L12.6345 13.3733C12.7452 13.484 12.8061 13.6311 12.8061 13.7876C12.8061 13.9441 12.7452 14.0912 12.6345 14.2019C12.5238 14.3125 12.3767 14.3735 12.2202 14.3735C12.0637 14.3735 11.9165 14.3126 11.8059 14.2019L10.2443 12.6403C10.1345 12.5304 9.98545 12.4687 9.83006 12.4687C9.67467 12.4687 9.52561 12.5304 9.41576 12.6403L7.85422 14.2019C7.74359 14.3125 7.59649 14.3734 7.43992 14.3734C7.28336 14.3734 7.13626 14.3125 7.02563 14.2018C6.91493 14.0912 6.85399 13.9441 6.85399 13.7875C6.85399 13.631 6.91493 13.4838 7.02563 13.3732L8.5871 11.8117C8.81593 11.5828 8.81593 11.2118 8.5871 10.9831L7.02563 9.42152C6.91493 9.31082 6.85399 9.16371 6.85399 9.00723C6.85399 8.85075 6.91493 8.70356 7.02563 8.59294C7.13626 8.48223 7.28336 8.4213 7.43992 8.4213C7.59649 8.4213 7.74359 8.48223 7.85422 8.59294L9.41569 10.1545C9.52553 10.2644 9.67459 10.3261 9.82998 10.3261C9.98537 10.3261 10.1344 10.2644 10.2443 10.1545L11.8058 8.59294C11.9165 8.48223 12.0636 8.4213 12.2201 8.4213C12.3767 8.4213 12.5237 8.48223 12.6344 8.59301C12.7451 8.70364 12.806 8.85075 12.806 9.00731C12.8061 9.16379 12.7452 9.3109 12.6345 9.4216Z" fill="#7210FF"/>
<path d="M32.799 12.451C34.0709 12.451 35.1058 11.4162 35.1058 10.1442C35.1058 8.87225 34.0709 7.8374 32.799 7.8374C31.527 7.8374 30.4922 8.87225 30.4922 10.1442C30.4922 11.4162 31.527 12.451 32.799 12.451ZM32.799 9.00928C33.4248 9.00928 33.9339 9.51842 33.9339 10.1442C33.9339 10.77 33.4248 11.2791 32.799 11.2791C32.1732 11.2791 31.6641 10.77 31.6641 10.1442C31.6641 9.51842 32.1732 9.00928 32.799 9.00928Z" fill="#7210FF"/>
<path d="M26.8926 8.14451C27.007 8.25889 27.157 8.31615 27.3069 8.31615C27.4568 8.31615 27.6068 8.25897 27.7212 8.14451L28.0383 7.82748L28.3553 8.14451C28.4697 8.25897 28.6197 8.31615 28.7696 8.31615C28.9195 8.31615 29.0695 8.25897 29.1839 8.14451C29.4127 7.91568 29.4127 7.54475 29.1839 7.31592L28.8668 6.99889L29.1839 6.68186C29.4127 6.45303 29.4127 6.08201 29.1839 5.85326C28.955 5.62443 28.584 5.62443 28.3553 5.85326L28.0383 6.17029L27.7212 5.85326C27.4924 5.62443 27.1214 5.62443 26.8926 5.85326C26.6638 6.08209 26.6638 6.45303 26.8926 6.68186L27.2097 6.99889L26.8926 7.31592C26.6637 7.54475 26.6637 7.91576 26.8926 8.14451Z" fill="#7210FF"/>
<path d="M2.21221 23.0621C2.32658 23.1765 2.47658 23.2338 2.6265 23.2338C2.77643 23.2338 2.92643 23.1766 3.0408 23.0621L3.59275 22.5102L4.14471 23.0621C4.25908 23.1765 4.40908 23.2338 4.559 23.2338C4.70893 23.2338 4.85893 23.1766 4.9733 23.0621C5.20213 22.8333 5.20213 22.4623 4.9733 22.2335L4.42135 21.6816L4.9733 21.1296C5.20213 20.9008 5.20213 20.5298 4.9733 20.301C4.74447 20.0722 4.37346 20.0722 4.14471 20.301L3.59275 20.853L3.0408 20.301C2.81197 20.0722 2.44096 20.0722 2.21221 20.301C1.98338 20.5298 1.98338 20.9009 2.21221 21.1296L2.76416 21.6816L2.21221 22.2335C1.9833 22.4623 1.9833 22.8333 2.21221 23.0621Z" fill="#7210FF"/>
</g>
<defs>
<clipPath id="clip0_2543_4701">
<rect width="40" height="40" fill="white"/>
</clipPath>
</defs>
</svg>
