<svg width="24" height="25" viewBox="0 0 24 25" fill="none" xmlns="http://www.w3.org/2000/svg">
<g id="ic_garden">
<g id="Layer 24">
<path id="Vector" d="M15.0437 7.26569C14.2328 7.26307 13.4279 7.12653 12.6616 6.86159L12.2617 6.70845L12.4149 6.3086C12.4531 6.21077 13.3719 3.88397 15.4393 2.9609C17.5066 2.03784 19.8547 2.9056 19.9525 2.9609L20.3566 3.10978L20.1992 3.50964C20.1609 3.61173 19.2421 5.93853 17.1748 6.86159C16.5009 7.14503 15.7746 7.28274 15.0437 7.26569ZM13.423 6.198C14.1334 6.38092 15.5839 6.62338 16.826 6.06614C18.0681 5.5089 18.8678 4.2583 19.2081 3.60747C18.4935 3.42456 17.0429 3.1821 15.8051 3.73509C14.5205 4.30083 13.742 5.54718 13.423 6.198Z" fill="#989898"/>
<path id="Vector_2" d="M11.5566 7.95062L11.1312 7.89958C11.0249 7.89958 8.54067 7.57204 7.13693 5.79822C5.7332 4.02441 5.99693 1.54448 6.00544 1.42537L6.05648 1L6.48186 1.05105C6.58395 1.05105 9.06814 1.38284 10.4719 3.17792C11.8756 4.973 11.6161 7.43166 11.6034 7.54651L11.5566 7.95062ZM6.83067 1.98262C6.83067 2.72277 6.94977 4.18606 7.80477 5.26651C8.58557 6.14276 9.63107 6.74018 10.7824 6.968C10.7824 6.23211 10.6675 4.76882 9.80829 3.68411C8.94903 2.60366 7.54955 2.15277 6.83067 1.98262Z" fill="#989898"/>
<path id="Vector_3" d="M10.4469 13.7911C10.334 13.7911 10.2258 13.7462 10.1461 13.6665C10.0663 13.5867 10.0215 13.4785 10.0215 13.3657C10.0215 13.1105 10.0555 7.09141 12.8672 6.15559C12.9739 6.12051 13.09 6.12899 13.1904 6.17919C13.2908 6.22938 13.3673 6.31723 13.4032 6.42357C13.4243 6.47899 13.4336 6.5382 13.4304 6.59741C13.4273 6.65662 13.4118 6.71452 13.385 6.76739C13.3581 6.82026 13.3205 6.86693 13.2746 6.90442C13.2287 6.94191 13.1754 6.96938 13.1182 6.98507C11.2636 7.58059 10.8722 11.7961 10.8722 13.3657C10.8722 13.4785 10.8274 13.5867 10.7476 13.6665C10.6679 13.7462 10.5597 13.7911 10.4469 13.7911Z" fill="#989898"/>
<path id="Vector_4" d="M15.2392 24.0003H5.65128C5.54479 24.0008 5.44202 23.9612 5.36326 23.8896C5.2845 23.8179 5.23549 23.7193 5.22591 23.6132L4.49001 15.1058C4.48468 15.0468 4.49172 14.9873 4.5107 14.9312C4.52968 14.8751 4.56016 14.8235 4.60021 14.7799C4.64025 14.7362 4.68897 14.7014 4.74325 14.6777C4.79752 14.654 4.85615 14.6419 4.91538 14.6421H15.9751C16.0344 14.6419 16.093 14.654 16.1473 14.6777C16.2015 14.7014 16.2503 14.7362 16.2903 14.7799C16.3303 14.8235 16.3608 14.8751 16.3798 14.9312C16.3988 14.9873 16.4058 15.0468 16.4005 15.1058L15.6603 23.6132C15.6508 23.7186 15.6024 23.8166 15.5246 23.8881C15.4467 23.9597 15.345 23.9997 15.2392 24.0003ZM6.04262 23.1496H14.8479L15.5115 15.4928H5.37904L6.04262 23.1496Z" fill="#989898"/>
<path id="Vector_5" d="M16.8272 15.4927H4.066C3.95318 15.4927 3.84499 15.4479 3.76521 15.3681C3.68544 15.2883 3.64062 15.1801 3.64062 15.0673V13.3658C3.64062 13.253 3.68544 13.1448 3.76521 13.065C3.84499 12.9852 3.95318 12.9404 4.066 12.9404H16.8272C16.9401 12.9404 17.0482 12.9852 17.128 13.065C17.2078 13.1448 17.2526 13.253 17.2526 13.3658V15.0673C17.2526 15.1801 17.2078 15.2883 17.128 15.3681C17.0482 15.4479 16.9401 15.4927 16.8272 15.4927ZM4.49137 14.6419H16.4019V13.7912H4.49137V14.6419Z" fill="#989898"/>
</g>
</g>
</svg>
