<svg width="24" height="25" viewBox="0 0 24 25" fill="none" xmlns="http://www.w3.org/2000/svg">
<g id="ic_gas num">
<path id="Vector" d="M18.2897 8.5378C18.1862 8.43655 18.0444 8.3743 17.8884 8.3743C17.8517 8.3743 17.8157 8.37805 17.7804 8.38405L17.7842 8.3833C17.5982 8.4208 17.4474 8.54605 17.3754 8.71255L17.3739 8.7163C17.0259 9.5098 16.4972 10.1683 15.8379 10.6611L15.8252 10.6701C15.8799 10.3026 15.9114 9.8788 15.9114 9.4483C15.9114 8.1358 15.6197 6.89155 15.0977 5.7763L15.1202 5.82955C14.2052 3.9193 12.6722 2.4268 10.7852 1.58605L10.7297 1.5643C10.6637 1.53505 10.5872 1.51855 10.5069 1.51855C10.1957 1.51855 9.94366 1.77055 9.94366 2.0818C9.94366 2.11555 9.94666 2.14855 9.95266 2.1808L9.95191 2.17705C9.95416 2.23405 9.95566 2.30155 9.95566 2.36905C9.95566 3.97105 9.24541 5.4073 8.12266 6.38005L8.11591 6.38605C7.72066 6.78655 7.29841 7.1653 6.87766 7.54405C5.91916 8.33755 5.08516 9.23005 4.37566 10.2178L4.34716 10.2598C3.56266 11.5363 3.09766 13.0836 3.09766 14.7381C3.09766 15.5571 3.21166 16.3498 3.42466 17.1013L3.40966 17.0406C3.96166 19.2988 5.34916 21.1656 7.21741 22.3341L7.25341 22.3551C8.61616 23.2251 10.2759 23.7463 12.0572 23.7553H12.0594C12.0624 23.7553 12.0669 23.7553 12.0707 23.7553C12.4494 23.7553 12.8229 23.7306 13.1882 23.6818L13.1454 23.6863C16.5429 23.1898 19.2977 20.8753 20.4174 17.7771L20.4377 17.7141C20.7219 16.8726 20.8854 15.9036 20.8854 14.8963C20.8854 12.4198 19.8947 10.1743 18.2874 8.53555L18.2889 8.53705L18.2897 8.5378ZM19.3719 17.3533C18.3767 20.1148 15.9699 22.1383 13.0449 22.5658L13.0022 22.5711C12.7202 22.6071 12.3939 22.6273 12.0632 22.6273C10.4994 22.6273 9.04291 22.1698 7.81966 21.3816L7.85041 21.4003C6.19066 20.3646 4.98241 18.7378 4.51216 16.8216L4.50166 16.7706C4.32466 16.1623 4.22266 15.4633 4.22266 14.7403C4.22266 13.3131 4.62016 11.9781 5.31016 10.8411L5.29141 10.8748C5.97466 9.9298 6.74491 9.11005 7.60816 8.3998L7.63066 8.3818C8.06866 7.9888 8.50666 7.5943 8.91841 7.1773C10.0779 6.1183 10.8722 4.6783 11.1039 3.05605L11.1084 3.0193C12.4104 3.79855 13.4379 4.9198 14.0822 6.2593L14.1017 6.30505C14.5344 7.2268 14.7872 8.3068 14.7872 9.44605C14.7872 10.2186 14.6709 10.9641 14.4549 11.6661L14.4692 11.6128C14.4534 11.6616 14.4452 11.7178 14.4452 11.7763C14.4452 12.0868 14.6972 12.3388 15.0077 12.3388C15.0834 12.3388 15.1562 12.3238 15.2214 12.2968L15.2177 12.2983C16.3989 11.8086 17.3597 10.9836 18.0054 9.9433L18.0197 9.9178C19.1057 11.2671 19.7627 13.0018 19.7627 14.8896C19.7627 15.7708 19.6194 16.6183 19.3554 17.4111L19.3719 17.3548V17.3533Z" fill="#989898"/>
</g>
</svg>
