<svg width="16" height="16" viewBox="0 0 16 16" fill="none" xmlns="http://www.w3.org/2000/svg">
<path d="M8.00016 15.1668C4.04683 15.1668 0.833496 11.9535 0.833496 8.00016C0.833496 4.04683 4.04683 0.833496 8.00016 0.833496C11.9535 0.833496 15.1668 4.04683 15.1668 8.00016C15.1668 11.9535 11.9535 15.1668 8.00016 15.1668ZM8.00016 1.8335C4.60016 1.8335 1.8335 4.60016 1.8335 8.00016C1.8335 11.4002 4.60016 14.1668 8.00016 14.1668C11.4002 14.1668 14.1668 11.4002 14.1668 8.00016C14.1668 4.60016 11.4002 1.8335 8.00016 1.8335Z" fill="#3E3A39"/>
<path d="M6.00016 14.5H5.33349C5.06016 14.5 4.83349 14.2733 4.83349 14C4.83349 13.7267 5.04682 13.5067 5.32016 13.5C4.27349 9.92667 4.27349 6.07333 5.32016 2.5C5.04682 2.49333 4.83349 2.27333 4.83349 2C4.83349 1.72667 5.06016 1.5 5.33349 1.5H6.00016C6.16016 1.5 6.31349 1.58 6.40682 1.70667C6.50016 1.84 6.52682 2.00667 6.47349 2.16C5.22016 5.92667 5.22016 10.0733 6.47349 13.8467C6.52682 14 6.50016 14.1667 6.40682 14.3C6.31349 14.42 6.16016 14.5 6.00016 14.5Z" fill="#3E3A39"/>
<path d="M10.0001 14.4998C9.94677 14.4998 9.89344 14.4931 9.8401 14.4731C9.5801 14.3865 9.43344 14.0998 9.52677 13.8398C10.7801 10.0731 10.7801 5.92646 9.52677 2.15313C9.4401 1.89313 9.5801 1.60646 9.8401 1.51979C10.1068 1.43313 10.3868 1.57313 10.4734 1.83313C11.8001 5.80646 11.8001 10.1798 10.4734 14.1465C10.4068 14.3665 10.2068 14.4998 10.0001 14.4998Z" fill="#3E3A39"/>
<path d="M8 11.4667C6.14 11.4667 4.28667 11.2067 2.5 10.68C2.49333 10.9467 2.27333 11.1667 2 11.1667C1.72667 11.1667 1.5 10.94 1.5 10.6667V10C1.5 9.84003 1.58 9.68669 1.70667 9.59336C1.84 9.50003 2.00667 9.47336 2.16 9.52669C5.92667 10.78 10.08 10.78 13.8467 9.52669C14 9.47336 14.1667 9.50003 14.3 9.59336C14.4333 9.68669 14.5067 9.84003 14.5067 10V10.6667C14.5067 10.94 14.28 11.1667 14.0067 11.1667C13.7333 11.1667 13.5133 10.9534 13.5067 10.68C11.7133 11.2067 9.86 11.4667 8 11.4667Z" fill="#3E3A39"/>
<path d="M14 6.50007C13.9467 6.50007 13.8934 6.4934 13.84 6.4734C10.0734 5.22007 5.92002 5.22007 2.15335 6.4734C1.88669 6.56007 1.60669 6.42007 1.52002 6.16007C1.44002 5.8934 1.58002 5.6134 1.84002 5.52674C5.81335 4.20007 10.1867 4.20007 14.1534 5.52674C14.4134 5.6134 14.56 5.90007 14.4667 6.16007C14.4067 6.36674 14.2067 6.50007 14 6.50007Z" fill="#3E3A39"/>
</svg>
