<svg width="40" height="40" viewBox="0 0 40 40" fill="none" xmlns="http://www.w3.org/2000/svg">
<g id="ic_hall" clip-path="url(#clip0_3429_14362)">
<path id="Vector" d="M3.83398 3.3335C3.55784 3.3335 3.33398 3.55735 3.33398 3.8335V32.8335C3.33398 33.1096 3.55784 33.3335 3.83398 33.3335H7.83399C8.11013 33.3335 8.33399 33.1096 8.33399 32.8335V32.1668C8.33399 31.8907 8.11013 31.6668 7.83399 31.6668H5.50065C5.22451 31.6668 5.00065 31.443 5.00065 31.1668V22.1668C5.00065 21.8907 5.22451 21.6668 5.50065 21.6668H9.50065C9.77679 21.6668 10.0007 21.443 10.0007 21.1668V15.5002C10.0007 15.224 10.2245 15.0002 10.5007 15.0002H17.834C18.1101 15.0002 18.334 14.7763 18.334 14.5002V13.8335C18.334 13.5574 18.1101 13.3335 17.834 13.3335H10.5007C10.2245 13.3335 10.0007 13.1096 10.0007 12.8335V5.50016C10.0007 5.22402 10.2245 5.00016 10.5007 5.00016H34.5007C34.7768 5.00016 35.0007 5.22402 35.0007 5.50016V12.8335C35.0007 13.1096 34.7768 13.3335 34.5007 13.3335H25.5007C25.2245 13.3335 25.0007 13.5574 25.0007 13.8335V14.5002C25.0007 14.7763 25.2245 15.0002 25.5007 15.0002H34.5007C34.7768 15.0002 35.0007 15.224 35.0007 15.5002V22.8335C35.0007 23.1096 34.7768 23.3335 34.5007 23.3335H28.834C28.5578 23.3335 28.334 23.5574 28.334 23.8335V24.5002C28.334 24.7763 28.5578 25.0002 28.834 25.0002H34.5007C34.7768 25.0002 35.0007 25.224 35.0007 25.5002V34.5002C35.0007 34.7763 34.7768 35.0002 34.5007 35.0002H18.834C18.5578 35.0002 18.334 34.7763 18.334 34.5002V23.8335C18.334 23.5574 18.1101 23.3335 17.834 23.3335H17.1673C16.8912 23.3335 16.6673 23.5574 16.6673 23.8335V31.1668C16.6673 31.443 16.4435 31.6668 16.1673 31.6668H13.834C13.5578 31.6668 13.334 31.8907 13.334 32.1668V32.8335C13.334 33.1096 13.5578 33.3335 13.834 33.3335H16.1673C16.4435 33.3335 16.6673 33.5574 16.6673 33.8335V36.1668C16.6673 36.443 16.8912 36.6668 17.1673 36.6668H36.1673C36.4435 36.6668 36.6673 36.443 36.6673 36.1668V3.8335C36.6673 3.55735 36.4435 3.3335 36.1673 3.3335H3.83398ZM8.33399 9.50016C8.33399 9.77631 8.11013 10.0002 7.83399 10.0002H5.50065C5.22451 10.0002 5.00065 9.77631 5.00065 9.50016V8.8335C5.00065 8.55735 5.22451 8.3335 5.50065 8.3335H7.83399C8.11013 8.3335 8.33399 8.55735 8.33399 8.8335V9.50016ZM5.50065 20.0002C5.22451 20.0002 5.00065 19.7763 5.00065 19.5002V18.8335C5.00065 18.5574 5.22451 18.3335 5.50065 18.3335H7.83399C8.11013 18.3335 8.33399 18.5574 8.33399 18.8335V19.5002C8.33399 19.7763 8.11013 20.0002 7.83399 20.0002H5.50065ZM8.33399 16.1668C8.33399 16.443 8.11013 16.6668 7.83399 16.6668H5.50065C5.22451 16.6668 5.00065 16.443 5.00065 16.1668V15.5002C5.00065 15.224 5.22451 15.0002 5.50065 15.0002H7.83399C8.11013 15.0002 8.33399 15.224 8.33399 15.5002V16.1668ZM5.50065 13.3335C5.22451 13.3335 5.00065 13.1096 5.00065 12.8335V12.1668C5.00065 11.8907 5.22451 11.6668 5.50065 11.6668H7.83399C8.11013 11.6668 8.33399 11.8907 8.33399 12.1668V12.8335C8.33399 13.1096 8.11013 13.3335 7.83399 13.3335H5.50065ZM8.33399 6.16683C8.33399 6.44297 8.11013 6.66683 7.83399 6.66683H5.50065C5.22451 6.66683 5.00065 6.44297 5.00065 6.16683V5.50016C5.00065 5.22402 5.22451 5.00016 5.50065 5.00016H7.83399C8.11013 5.00016 8.33399 5.22402 8.33399 5.50016V6.16683Z" fill="#7210FF"/>
</g>
<defs>
<clipPath id="clip0_3429_14362">
<rect width="40" height="40" fill="white"/>
</clipPath>
</defs>
</svg>
