<svg width="120" height="120" viewBox="0 0 120 120" fill="none" xmlns="http://www.w3.org/2000/svg">
    <g clip-path="url(#m0cqzacb8a)">
        <path d="M17.472 64.082a1.391 1.391 0 0 1 .686-2.22l.453-.128c-.124-.19-.25-.382-.364-.562a7.147 7.147 0 0 1-.872-2.058 4.235 4.235 0 0 0-2.081 6.818c1.539 1.813 16.244 15.917 22.68 22.629a687.055 687.055 0 0 0-10.369-14.435c-1.102-1.065-8.689-8.342-10.133-10.044z" fill="#989898"/>
        <path d="M35.873 80.64c-1.409-3.41-2.915-7.107-4.468-10.989-.748-1.012-7.047-9.501-8.325-11.528a1.445 1.445 0 0 1 1.052-2.184l1.79-.301a894.37 894.37 0 0 1-1.036-2.723l-1.188.2a4.288 4.288 0 0 0-3.035 6.532c1.337 2.12 11.642 16.01 15.21 20.993zm18.353-14.165a9.854 9.854 0 0 0 4.098-1.043c.4-.245 1.62-.993 1.257-2.226a57.06 57.06 0 0 0-4.583-10.792 2.863 2.863 0 0 0-3.14-1.409c-3.706.852-9.13 1.571-12.032 1.923a2.885 2.885 0 0 0-2.33 3.831 184.657 184.657 0 0 0 4.224 10.442 2.931 2.931 0 0 0 3.574 1.526 62.83 62.83 0 0 1 7.446-2.054c.416-.086.936-.141 1.486-.198zm-9.894-.43a187 187 0 0 1-4.165-10.28h.002c2.96-.36 8.496-1.094 12.326-1.974 1.637 2.983 3 6.11 4.072 9.34-.854.284-1.742.453-2.64.501-.594.063-1.21.127-1.763.242a64.795 64.795 0 0 0-7.832 2.17zm30.163 4.109a2.846 2.846 0 0 0-.274 2.465 184.426 184.426 0 0 0 4.223 10.441 2.914 2.914 0 0 0 3.575 1.526 63.227 63.227 0 0 1 7.444-2.055c.481-.085.966-.143 1.454-.173a8.34 8.34 0 0 0 3.772-.943c.404-.244 1.632-.988 1.264-2.23a64.906 64.906 0 0 0-4.23-10.913 2.864 2.864 0 0 0-3.14-1.407c-3.706.851-9.13 1.57-12.032 1.923a2.829 2.829 0 0 0-2.056 1.366zm2.399 1.47c2.959-.359 8.495-1.093 12.325-1.974a60.877 60.877 0 0 1 3.725 9.458 7.567 7.567 0 0 1-2.264.403 15.1 15.1 0 0 0-1.792.222 65.157 65.157 0 0 0-7.831 2.17 186.227 186.227 0 0 1-4.165-10.278h.002z" fill="#7210FF"/>
        <path d="M60.713 52.503c.358.002 20.909-3.584 20.958-3.593a1.428 1.428 0 1 0-.485-2.816L60.47 49.666a1.429 1.429 0 0 0-1.164 1.651 1.454 1.454 0 0 0 1.406 1.186z" fill="#989898"/>
        <path d="M61.45 57.032a1.448 1.448 0 0 0 1.65 1.166l20.714-3.572a1.429 1.429 0 0 0-.485-2.816l-20.714 3.572a1.427 1.427 0 0 0-1.165 1.65z" fill="#7210FF"/>
        <path d="M63.59 62.74a1.453 1.453 0 0 0 1.645 1.174l21.429-3.572a1.429 1.429 0 0 0-.47-2.819l-21.43 3.572a1.43 1.43 0 0 0-1.173 1.645zm6.379 11.022a1.425 1.425 0 0 0-1.695-1.1l-20.715 4.411a1.43 1.43 0 0 0-1.099 1.696 1.454 1.454 0 0 0 1.695 1.1l20.714-4.412a1.428 1.428 0 0 0 1.1-1.695z" fill="#989898"/>
        <path d="M72.111 79.317a1.426 1.426 0 0 0-1.695-1.1l-20.714 4.411a1.428 1.428 0 0 0-1.1 1.695 1.451 1.451 0 0 0 1.696 1.1l20.714-4.411a1.426 1.426 0 0 0 1.1-1.695z" fill="#7210FF"/>
        <path d="M73.28 83.716 51.85 88.181a1.429 1.429 0 0 0-1.107 1.69 1.45 1.45 0 0 0 1.69 1.108l21.43-4.465a1.429 1.429 0 1 0-.584-2.798zm40.171-70.145a2.145 2.145 0 0 0 2.102-2.56 2.144 2.144 0 0 0-4.245.418 2.146 2.146 0 0 0 2.143 2.142zm0-3.214a1.07 1.07 0 0 1 .758 1.83 1.072 1.072 0 1 1-.758-1.83zM64.127 30.318a1.428 1.428 0 1 0 0 2.857 1.428 1.428 0 0 0 0-2.857zm0 2.143a.714.714 0 1 1 0-1.429.714.714 0 0 1 0 1.43zm47.857 12.143a1.428 1.428 0 1 0 0 2.855 1.428 1.428 0 0 0 0-2.855zm0 2.143a.711.711 0 0 1-.66-.441.711.711 0 0 1 .155-.779.714.714 0 1 1 .505 1.22zM13.413 43.89a1.429 1.429 0 1 0 0 2.858 1.429 1.429 0 0 0 0-2.858zm0 2.142a.714.714 0 1 1 0-1.428.714.714 0 0 1 0 1.428zm29.54-29.595a1.429 1.429 0 1 0 1.992 2.048 1.429 1.429 0 0 0-1.992-2.048zm1.494 1.536a.715.715 0 1 1-.997-1.025.715.715 0 0 1 .997 1.025z" fill="#989898"/>
        <path d="M6.686 13.898 7.75 12.5l-.671-.38-.682 1.564h-.022l-.693-1.553-.682.392 1.05 1.363v.022l-1.643-.213v.76l1.655-.212v.023L4.999 15.63l.637.403.727-1.577h.021l.671 1.565.704-.402-1.073-1.341v-.022l1.688.2v-.76l-1.688.224v-.022zM97.54 32.509l-.613.785.367.232.419-.908h.013l.385.901.406-.232-.618-.772v-.013l.972.116v-.437l-.972.128v-.012l.612-.805-.386-.22-.393.902h-.013l-.398-.895-.394.226.606.785v.013l-.947-.122v.437l.953-.122v.013zM90.397 17.515v-.745l-1.655.22v-.023l1.041-1.37-.657-.373-.669 1.534h-.022l-.68-1.523-.669.384 1.031 1.337v.022l-1.612-.208v.745l1.623-.208v.022l-1.042 1.337.625.395.713-1.546h.022l.657 1.535.691-.394-1.052-1.316v-.022l1.655.197zM29.8 31.808l.9-1.181-.568-.322-.577 1.324h-.02l-.585-1.315-.577.331.89 1.154v.019l-1.392-.18v.643l1.4-.18v.02l-.898 1.153.538.34.616-1.333h.018l.568 1.324.596-.34-.908-1.136v-.018l1.428.17v-.643l-1.428.19v-.02z" fill="#7210FF"/>
        <path d="M1.429 100.714a1.429 1.429 0 1 0 0-2.858 1.429 1.429 0 0 0 0 2.858zM7.857 97.857H5.714a1.428 1.428 0 1 0 0 2.857h2.143a1.428 1.428 0 1 0 0-2.857zm106.429 0h-2.143a1.428 1.428 0 1 0 0 2.857h2.143a1.427 1.427 0 1 0 0-2.857zM118.571 100.714a1.43 1.43 0 1 0 0-2.858 1.43 1.43 0 0 0 0 2.858z" fill="#989898"/>
        <path d="M84.396 103.571h-5.934a1.433 1.433 0 0 0 0 2.857h5.934A1.428 1.428 0 0 0 85.714 105a1.434 1.434 0 0 0-1.318-1.429zm-42.858 0h-5.934a1.434 1.434 0 0 0 0 2.857h5.934a1.434 1.434 0 0 0 0-2.857zm32.748 0H45.714a1.429 1.429 0 0 0 0 2.857H57.1v1.429h-5.672A1.432 1.432 0 0 0 50 109.286a1.43 1.43 0 0 0 1.428 1.428h17.858a1.428 1.428 0 1 0 0-2.857H62.9v-1.429h11.386a1.428 1.428 0 1 0 0-2.857z" fill="#7210FF"/>
        <path d="M107.658 97.857H62.115c14.334-3.375 38.316-8.69 40.488-9.965 2.53-1.49 3.407-2.602 3.026-3.84a380.725 380.725 0 0 0-16.96-43.788 4.249 4.249 0 0 0-4.807-2.294c-15.782 3.658-42.256 6.676-52.905 7.803a4.279 4.279 0 0 0-3.545 5.771c7.713 20.417 16.1 40.148 18.935 46.313H12.342a1.442 1.442 0 0 0-1.137 2.512 1.433 1.433 0 0 0 1.137.345h95.316a1.428 1.428 0 0 0 1.137-.345 1.442 1.442 0 0 0-1.137-2.512zm-58.535-.804c-2.627-5.644-11.18-25.716-19.038-46.518a1.453 1.453 0 0 1 1.173-1.92c10.702-1.133 37.317-4.168 53.252-7.862a1.403 1.403 0 0 1 1.587.753 379.387 379.387 0 0 1 16.487 42.37.719.719 0 0 1-.262.791c-.376.274-.766.528-1.168.762-2.55 1.498-14.573 4.054-25.18 6.31-10.024 2.132-20.389 4.335-25.101 6.046a1.388 1.388 0 0 1-.336.072h-.28a1.4 1.4 0 0 1-1.134-.804z" fill="#989898"/>
    </g>
    <defs>
        <clipPath id="m0cqzacb8a">
            <path fill="#fff" d="M0 0h120v120H0z"/>
        </clipPath>
    </defs>
</svg>
