<svg width="88" height="88" viewBox="0 0 88 88" fill="none" xmlns="http://www.w3.org/2000/svg">
    <g id="ic_icon-contact-form">
        <g id="Group">
            <path id="Vector" opacity="0.1" d="M48.8164 70.363L49.3105 70.4867L48.8164 70.6105C45.9232 71.3354 43.6653 73.594 42.9406 76.4872L42.8162 76.9807L42.6923 76.4872C41.9675 73.594 39.709 71.3354 36.815 70.6105L36.3228 70.4867L36.815 70.363C39.709 69.638 41.9675 67.3787 42.6923 64.4872L42.8162 63.9941L42.9406 64.4872C43.6653 67.3787 45.9232 69.638 48.8164 70.363Z" fill="#7210FF"/>
            <path id="Vector_2" opacity="0.1" d="M49.3415 17.1449L49.7406 17.2449L49.3415 17.345C47.0044 17.9305 45.1804 19.7552 44.595 22.0922L44.4945 22.4909L44.3943 22.0922C43.8089 19.755 41.9844 17.9305 39.6467 17.345L39.249 17.2449L39.6467 17.1449C41.9846 16.5593 43.8089 14.7342 44.3943 12.3984L44.4945 12L44.595 12.3984C45.1804 14.7342 47.0044 16.5593 49.3415 17.1449Z" fill="#7210FF"/>
            <path id="Vector_3" opacity="0.1" d="M22.2497 34.912L22.5364 34.9838L22.2497 35.0557C20.5708 35.4762 19.2608 36.7869 18.8402 38.4657L18.768 38.752L18.696 38.4657C18.2754 36.7868 16.965 35.4762 15.2857 35.0557L15 34.9838L15.2857 34.912C16.9649 34.4914 18.2754 33.1803 18.696 31.5025L18.768 31.2163L18.8402 31.5025C19.2606 33.1803 20.5708 34.4912 22.2497 34.912Z" fill="#7210FF"/>
            <path id="Vector_4" d="M58.2379 19.671L58.5211 19.742L58.2379 19.813C56.5794 20.2286 55.285 21.5233 54.8696 23.1817L54.7985 23.4646L54.7275 23.1817C54.3121 21.5233 53.0175 20.2286 51.3584 19.813L51.0762 19.742L51.3584 19.671C53.0173 19.2554 54.3119 17.9603 54.7275 16.3028L54.7985 16.02L54.8698 16.3028C55.285 17.9603 56.5794 19.2554 58.2379 19.671Z" fill="#7210FF"/>
            <path id="Vector_5" d="M31.7904 66.8907L32.0455 66.9547L31.7904 67.0186C30.2975 67.3926 29.1324 68.5581 28.7586 70.051L28.6945 70.3057L28.6305 70.051C28.2565 68.5581 27.0912 67.3926 25.5978 67.0186L25.3438 66.9547L25.5978 66.8907C27.091 66.5167 28.2565 65.3509 28.6305 63.8589L28.6945 63.6045L28.7586 63.8589C29.1324 65.3509 30.2975 66.5166 31.7904 66.8907Z" fill="#7210FF"/>
            <path id="Subtract" opacity="0.8" fill-rule="evenodd" clip-rule="evenodd" d="M70.1604 33.4019H23.7925V29.7242C23.7925 27.3373 25.7283 25.4019 28.116 25.4019H65.8377C68.2253 25.4019 70.1604 27.3375 70.1604 29.7242V33.4019ZM55.8667 29.2368C55.8667 29.9487 55.2896 30.5259 54.5776 30.5259C53.8657 30.5259 53.2886 29.9487 53.2886 29.2368C53.2886 28.5249 53.8657 27.9478 54.5776 27.9478C55.2896 27.9478 55.8667 28.5249 55.8667 29.2368ZM59.8101 30.5259C60.522 30.5259 61.0991 29.9487 61.0991 29.2368C61.0991 28.5249 60.522 27.9478 59.8101 27.9478C59.0981 27.9478 58.521 28.5249 58.521 29.2368C58.521 29.9487 59.0981 30.5259 59.8101 30.5259ZM65.0423 30.5259C65.7547 30.5259 66.3315 29.9489 66.3315 29.2368C66.3315 28.5247 65.7546 27.9478 65.0423 27.9478C64.3306 27.9478 63.7534 28.5247 63.7534 29.2368C63.7534 29.9489 64.3304 30.5259 65.0423 30.5259Z" fill="#7210FF"/>
            <path id="Subtract_2" fill-rule="evenodd" clip-rule="evenodd" d="M28.0857 61.4936H65.8073C68.1948 61.4936 70.1301 59.5581 70.1301 57.1706V33.4019H23.7622V57.1706C23.7622 59.5581 25.6979 61.4936 28.0857 61.4936ZM28.4507 39.0713H38.7623C39.2369 39.0713 39.6217 38.6866 39.6217 38.2119C39.6217 37.7372 39.2369 37.3525 38.7623 37.3525H28.4507C27.9761 37.3525 27.5913 37.7372 27.5913 38.2119C27.5913 38.6866 27.9761 39.0713 28.4507 39.0713ZM65.4414 36.3213H43.4995V40.1025H65.4414V36.3213ZM28.4507 45.2588H38.7623C39.2369 45.2588 39.6217 44.8741 39.6217 44.3994C39.6217 43.9247 39.2369 43.54 38.7623 43.54H28.4507C27.9761 43.54 27.5913 43.9247 27.5913 44.3994C27.5913 44.8741 27.9761 45.2588 28.4507 45.2588ZM65.4414 42.5088H43.4995V46.29H65.4414V42.5088ZM28.4507 51.4463H38.7623C39.2369 51.4463 39.6217 51.0616 39.6217 50.5869C39.6217 50.1122 39.2369 49.7275 38.7623 49.7275H28.4507C27.9761 49.7275 27.5913 50.1122 27.5913 50.5869C27.5913 51.0616 27.9761 51.4463 28.4507 51.4463ZM65.4414 48.6963H43.4995V52.4775H65.4414V48.6963ZM49.3354 54.6748H59.8198V58.2981H49.3354V54.6748Z" fill="#7210FF"/>
        </g>
    </g>
</svg>
