<svg width="16" height="17" viewBox="0 0 16 17" fill="none" xmlns="http://www.w3.org/2000/svg">
<path d="M11.6335 15.6668C10.8802 15.6668 10.0868 15.4868 9.26683 15.1402C8.46683 14.8002 7.66016 14.3335 6.8735 13.7668C6.0935 13.1935 5.34016 12.5535 4.62683 11.8535C3.92016 11.1402 3.28016 10.3868 2.7135 9.6135C2.14016 8.8135 1.68016 8.0135 1.3535 7.24016C1.00683 6.4135 0.833496 5.6135 0.833496 4.86016C0.833496 4.34016 0.926829 3.84683 1.10683 3.38683C1.2935 2.9135 1.5935 2.4735 2.00016 2.0935C2.5135 1.58683 3.10016 1.3335 3.72683 1.3335C3.98683 1.3335 4.2535 1.3935 4.48016 1.50016C4.74016 1.62016 4.96016 1.80016 5.12016 2.04016L6.66683 4.22016C6.80683 4.4135 6.9135 4.60016 6.98683 4.78683C7.0735 4.98683 7.12016 5.18683 7.12016 5.38016C7.12016 5.6335 7.04683 5.88016 6.90683 6.1135C6.80683 6.2935 6.6535 6.48683 6.46016 6.68016L6.00683 7.1535C6.0135 7.1735 6.02016 7.18683 6.02683 7.20016C6.10683 7.34016 6.26683 7.58016 6.5735 7.94016C6.90016 8.3135 7.20683 8.6535 7.5135 8.96683C7.90683 9.3535 8.2335 9.66016 8.54016 9.9135C8.92016 10.2335 9.16683 10.3935 9.3135 10.4668L9.30016 10.5002L9.78683 10.0202C9.9935 9.8135 10.1935 9.66016 10.3868 9.56016C10.7535 9.3335 11.2202 9.2935 11.6868 9.48683C11.8602 9.56016 12.0468 9.66016 12.2468 9.80016L14.4602 11.3735C14.7068 11.5402 14.8868 11.7535 14.9935 12.0068C15.0935 12.2602 15.1402 12.4935 15.1402 12.7268C15.1402 13.0468 15.0668 13.3668 14.9268 13.6668C14.7868 13.9668 14.6135 14.2268 14.3935 14.4668C14.0135 14.8868 13.6002 15.1868 13.1202 15.3802C12.6602 15.5668 12.1602 15.6668 11.6335 15.6668ZM3.72683 2.3335C3.36016 2.3335 3.02016 2.4935 2.6935 2.8135C2.38683 3.10016 2.1735 3.4135 2.04016 3.7535C1.90016 4.10016 1.8335 4.46683 1.8335 4.86016C1.8335 5.48016 1.98016 6.1535 2.2735 6.84683C2.5735 7.5535 2.9935 8.28683 3.52683 9.02016C4.06016 9.7535 4.66683 10.4668 5.3335 11.1402C6.00016 11.8002 6.72016 12.4135 7.46016 12.9535C8.18016 13.4802 8.92016 13.9068 9.6535 14.2135C10.7935 14.7002 11.8602 14.8135 12.7402 14.4468C13.0802 14.3068 13.3802 14.0935 13.6535 13.7868C13.8068 13.6202 13.9268 13.4402 14.0268 13.2268C14.1068 13.0602 14.1468 12.8868 14.1468 12.7135C14.1468 12.6068 14.1268 12.5002 14.0735 12.3802C14.0535 12.3402 14.0135 12.2668 13.8868 12.1802L11.6735 10.6068C11.5402 10.5135 11.4202 10.4468 11.3068 10.4002C11.1602 10.3402 11.1002 10.2802 10.8735 10.4202C10.7402 10.4868 10.6202 10.5868 10.4868 10.7202L9.98016 11.2202C9.72016 11.4735 9.32016 11.5335 9.0135 11.4202L8.8335 11.3402C8.56016 11.1935 8.24016 10.9668 7.88683 10.6668C7.56683 10.3935 7.22016 10.0735 6.80016 9.66016C6.4735 9.32683 6.14683 8.9735 5.80683 8.58016C5.4935 8.2135 5.26683 7.90016 5.12683 7.64016L5.04683 7.44016C5.00683 7.28683 4.9935 7.20016 4.9935 7.10683C4.9935 6.86683 5.08016 6.6535 5.24683 6.48683L5.74683 5.96683C5.88016 5.8335 5.98016 5.70683 6.04683 5.5935C6.10016 5.50683 6.12016 5.4335 6.12016 5.36683C6.12016 5.3135 6.10016 5.2335 6.06683 5.1535C6.02016 5.04683 5.94683 4.92683 5.8535 4.80016L4.30683 2.6135C4.24016 2.52016 4.16016 2.4535 4.06016 2.40683C3.9535 2.36016 3.84016 2.3335 3.72683 2.3335ZM9.30016 10.5068L9.1935 10.9602L9.3735 10.4935C9.34016 10.4868 9.3135 10.4935 9.30016 10.5068Z" fill="#7210FF"/>
</svg>
