<svg width="16" height="16" viewBox="0 0 16 16" fill="none" xmlns="http://www.w3.org/2000/svg">
<path d="M10.0002 15.1668H6.00016C2.38016 15.1668 0.833496 13.6202 0.833496 10.0002V6.00016C0.833496 2.38016 2.38016 0.833496 6.00016 0.833496H10.0002C13.6202 0.833496 15.1668 2.38016 15.1668 6.00016V10.0002C15.1668 13.6202 13.6202 15.1668 10.0002 15.1668ZM6.00016 1.8335C2.92683 1.8335 1.8335 2.92683 1.8335 6.00016V10.0002C1.8335 13.0735 2.92683 14.1668 6.00016 14.1668H10.0002C13.0735 14.1668 14.1668 13.0735 14.1668 10.0002V6.00016C14.1668 2.92683 13.0735 1.8335 10.0002 1.8335H6.00016Z" fill="#7210FF"/>
<path d="M3.9998 12.4998C3.87313 12.4998 3.74646 12.4531 3.64646 12.3531C3.45313 12.1598 3.45313 11.8398 3.64646 11.6465L11.6465 3.64646C11.8398 3.45313 12.1598 3.45313 12.3531 3.64646C12.5465 3.8398 12.5465 4.1598 12.3531 4.35313L4.35313 12.3531C4.25313 12.4531 4.12646 12.4998 3.9998 12.4998Z" fill="#7210FF"/>
<path d="M12.0002 7.16667C11.7268 7.16667 11.5002 6.94 11.5002 6.66667V4.5H9.3335C9.06016 4.5 8.8335 4.27333 8.8335 4C8.8335 3.72667 9.06016 3.5 9.3335 3.5H12.0002C12.2735 3.5 12.5002 3.72667 12.5002 4V6.66667C12.5002 6.94 12.2735 7.16667 12.0002 7.16667Z" fill="#7210FF"/>
<path d="M6.66667 12.5002H4C3.72667 12.5002 3.5 12.2735 3.5 12.0002V9.3335C3.5 9.06016 3.72667 8.8335 4 8.8335C4.27333 8.8335 4.5 9.06016 4.5 9.3335V11.5002H6.66667C6.94 11.5002 7.16667 11.7268 7.16667 12.0002C7.16667 12.2735 6.94 12.5002 6.66667 12.5002Z" fill="#7210FF"/>
</svg>
