<svg width="120" height="120" viewBox="0 0 120 120" fill="none" xmlns="http://www.w3.org/2000/svg">
    <g clip-path="url(#lm9939r7ya)">
        <path d="M63.571 100.357a1.429 1.429 0 0 0 0 2.857h5.715a1.428 1.428 0 1 0 0-2.857H63.57zm-5.104-23.829a1.43 1.43 0 0 0 2.247-1.17v-5.7c1.259.013 2.961.018 3.644-.017 1.307-.066 3.5-.741 3.5-4.519v-5.56c-.92.35-1.88.586-2.858.703v4.857c0 1.626-.418 1.647-.786 1.666-1.088.053-4.902-.002-4.908-.002a1.447 1.447 0 0 0-1.449 1.428v4.403l-7.976-5.574a1.43 1.43 0 0 0-.819-.257h-15.49a1.666 1.666 0 0 1-1.43-1.664V48.181a1.414 1.414 0 0 1 1.43-1.395H51.52a12.01 12.01 0 0 1 .703-2.857H33.571a4.274 4.274 0 0 0-4.285 4.252v16.941a4.524 4.524 0 0 0 4.285 4.52h15.041l9.855 6.886z" fill="#989898"/>
        <path d="M63.57 38.929a9.287 9.287 0 1 0 9.287 9.286 9.296 9.296 0 0 0-9.287-9.286zm0 15.714A6.429 6.429 0 1 1 70 48.215a6.435 6.435 0 0 1-6.43 6.428z" fill="#7210FF"/>
        <path d="M64.424 44.065a1.423 1.423 0 0 0-1.517.19L60.99 45.83a1.428 1.428 0 0 0 1.395 2.446v2.794a1.428 1.428 0 1 0 2.857 0v-5.714a1.428 1.428 0 0 0-.82-1.292z" fill="#989898"/>
        <path d="M48.789 5.357a2.143 2.143 0 1 0 0-4.286 2.143 2.143 0 0 0 0 4.286zm0-3.214a1.072 1.072 0 1 1 0 2.143 1.072 1.072 0 0 1 0-2.143zm66.429 32.5a1.428 1.428 0 1 0 0 2.857 1.428 1.428 0 0 0 0-2.857zm0 2.143a.712.712 0 0 1-.701-.854.717.717 0 0 1 .974-.52.718.718 0 0 1 .231 1.165.712.712 0 0 1-.504.209zM68.789 9.643a1.428 1.428 0 1 0 0 2.857 1.428 1.428 0 0 0 0-2.857zm0 2.143a.714.714 0 1 1 0-1.429.714.714 0 0 1 0 1.429zm47.143-7.857a1.429 1.429 0 1 0 0 2.857 1.429 1.429 0 0 0 0-2.857zm0 2.142a.717.717 0 0 1-.701-.853.718.718 0 0 1 .974-.52.716.716 0 0 1 .232 1.164.716.716 0 0 1-.505.21zM8.789 5.357a1.429 1.429 0 1 0-2.857 0 1.429 1.429 0 0 0 2.857 0zm-2.143 0a.714.714 0 1 1 1.429 0 .714.714 0 0 1-1.429 0z" fill="#7210FF"/>
        <path d="m7.777 26.794 1.062-1.397-.67-.38-.683 1.564h-.022l-.693-1.553-.682.391 1.05 1.364v.022l-1.643-.212v.76l1.655-.212v.022l-1.062 1.363.637.403.727-1.576h.022l.67 1.564.705-.402-1.073-1.341v-.023l1.687.202v-.76l-1.687.223v-.022zM32.915 23.262l-.611.785.367.232.418-.908h.012l.387.901.406-.231-.618-.773v-.013l.971.116v-.437l-.971.128v-.013l.611-.804-.386-.219-.392.901h-.013l-.4-.895-.392.226.605.785v.013l-.947-.122v.437l.953-.122v.013zM105.218 25.152v-.745l-1.655.22v-.023l1.041-1.37-.658-.373-.668 1.535h-.022l-.68-1.524-.669.384 1.031 1.338v.022l-1.612-.209v.745l1.623-.208v.022l-1.042 1.338.625.395.713-1.547h.021l.658 1.535.691-.394-1.052-1.316v-.022l1.655.197zM92.677 5.776l.899-1.182-.568-.322-.577 1.324h-.019l-.586-1.315-.577.332.889 1.153v.019l-1.39-.18v.644l1.4-.18v.019l-.9 1.153.54.341.615-1.333h.018l.568 1.323.596-.34-.908-1.135v-.02l1.427.172v-.643l-1.427.188v-.018z" fill="#989898"/>
        <path d="M1.429 108.929a1.429 1.429 0 1 0-.001-2.858 1.429 1.429 0 0 0 0 2.858zM7.857 106.071H5.714a1.429 1.429 0 0 0 0 2.858h2.143a1.429 1.429 0 0 0 0-2.858zm106.429 0h-2.143a1.428 1.428 0 0 0 0 2.858h2.143a1.428 1.428 0 0 0 0-2.858zM118.571 108.929a1.43 1.43 0 1 0 0-2.859 1.43 1.43 0 0 0 0 2.859z" fill="#7210FF"/>
        <path d="M84.396 111.786h-5.934a1.434 1.434 0 0 0 0 2.857h5.934a1.434 1.434 0 0 0 0-2.857zm-42.858 0h-5.934a1.428 1.428 0 0 0-1.318 1.428 1.43 1.43 0 0 0 1.318 1.429h5.934a1.433 1.433 0 0 0 0-2.857zm32.748 0H45.714a1.428 1.428 0 1 0 0 2.857H57.1v1.428h-5.672a1.429 1.429 0 0 0 0 2.858h17.858a1.429 1.429 0 0 0 0-2.858H62.9v-1.428h11.386a1.429 1.429 0 0 0 0-2.857z" fill="#989898"/>
        <path d="M107.658 106.071H89.941a5.67 5.67 0 0 0 .773-2.857v-80A5.72 5.72 0 0 0 85 17.5H47.857a5.72 5.72 0 0 0-5.714 5.714v17.857H45V23.214a2.86 2.86 0 0 1 2.857-2.857h5.882l.204 1.628a4.73 4.73 0 0 0 4.629 4.086h15.714a4.73 4.73 0 0 0 4.629-4.086l.203-1.628H85a2.86 2.86 0 0 1 2.857 2.857v80A2.86 2.86 0 0 1 85 106.071H47.857A2.86 2.86 0 0 1 45 103.214V72.5h-2.857v30.714c0 1.004.267 1.99.773 2.857H12.342a1.444 1.444 0 0 0-1.627 1.429 1.436 1.436 0 0 0 1.021 1.378c.196.06.403.077.606.051h95.316a1.445 1.445 0 0 0 1.628-1.429 1.43 1.43 0 0 0-.129-.594 1.431 1.431 0 0 0-.893-.784 1.445 1.445 0 0 0-.606-.051zM76.08 21.631a1.908 1.908 0 0 1-1.794 1.583H58.57a1.907 1.907 0 0 1-1.794-1.583l-.159-1.274h19.62l-.158 1.274z" fill="#7210FF"/>
    </g>
    <defs>
        <clipPath id="lm9939r7ya">
            <path fill="#fff" d="M0 0h120v120H0z"/>
        </clipPath>
    </defs>
</svg>
