<svg width="40" height="40" viewBox="0 0 40 40" fill="none" xmlns="http://www.w3.org/2000/svg">
<g clip-path="url(#clip0_2540_4491)">
<path d="M5.65569 32.4168C5.42687 32.1879 5.05585 32.1879 4.82711 32.4168L3.22704 34.0175C2.99821 34.2465 2.99821 34.6176 3.22704 34.8465C3.34141 34.9609 3.49141 35.0182 3.64133 35.0182C3.79125 35.0182 3.94125 34.961 4.05563 34.8465L5.65569 33.2457C5.88452 33.0169 5.88452 32.6457 5.65569 32.4168Z" fill="#7210FF"/>
<path d="M7.1821 31.4758C7.33203 31.4758 7.48202 31.4186 7.5964 31.3041L10.3743 28.525C10.6032 28.2961 10.6032 27.9249 10.3743 27.6961C10.1455 27.4672 9.77451 27.4672 9.54576 27.6961L6.76781 30.4752C6.53898 30.7041 6.53898 31.0753 6.76781 31.3041C6.88219 31.4186 7.03218 31.4758 7.1821 31.4758Z" fill="#7210FF"/>
<path d="M11.4882 29.639L5.16942 35.9603C4.9406 36.1893 4.9406 36.5604 5.16942 36.7893C5.2838 36.9037 5.4338 36.961 5.58372 36.961C5.73364 36.961 5.88364 36.9038 5.99801 36.7893L12.3168 30.4679C12.5456 30.239 12.5456 29.8678 12.3168 29.639C12.088 29.4101 11.717 29.4101 11.4882 29.639Z" fill="#7210FF"/>
<path opacity="0.1" d="M39.2117 32.4317L36.1235 29.3421C35.5583 28.7767 34.7544 28.537 33.9746 28.7005L32.7585 28.9528L31.1883 27.382C30.9595 27.153 30.5885 27.153 30.3598 27.382C30.1309 27.6109 30.1309 27.982 30.3598 28.2109L32.1535 30.0054C32.2931 30.145 32.4934 30.2051 32.6868 30.1649L34.2138 29.8481C34.6063 29.7659 35.0104 29.8866 35.2949 30.1711L38.3831 33.2607C38.7434 33.6211 38.8986 34.135 38.7981 34.6351L38.631 35.4654L34.615 31.4477C34.4754 31.3081 34.275 31.2482 34.0817 31.2881L32.1449 31.6899C31.9163 31.7373 31.7376 31.916 31.6902 32.1447L31.2879 34.0829C31.2477 34.2764 31.3076 34.4769 31.4473 34.6166L35.4633 38.6343L34.6334 38.8014C34.134 38.9019 33.6207 38.7468 33.2603 38.3863L30.172 35.2967C29.8875 35.0121 29.7666 34.6076 29.8486 34.2139L30.165 32.6868C30.2051 32.4934 30.1452 32.2929 30.0055 32.1533L24.8375 26.9832C24.8754 26.9569 24.9135 26.9308 24.951 26.9038L26.0526 27.5655C26.5195 27.8458 27.0675 27.9276 27.5958 27.7956C28.1242 27.6637 28.5695 27.3337 28.8498 26.8668L30.0553 24.8581C30.3769 24.3224 30.4706 23.6934 30.3193 23.087C30.168 22.4808 29.7897 21.9697 29.2541 21.6479L28.4102 21.141C28.4601 20.7665 28.4853 20.3875 28.4853 20.0096C28.4853 19.6317 28.4601 19.2527 28.4102 18.8782L29.5114 18.2168C30.4751 17.6379 30.7884 16.3826 30.2098 15.4184L29.2834 13.8749L33.7908 9.36572L36.3829 8.06847C36.4668 8.0265 36.5394 7.96492 36.5946 7.88903L39.7328 3.57284C40.1314 3.01167 40.0676 2.25097 39.5809 1.76406L38.2377 0.420627C37.7511 -0.0662098 36.9907 -0.130064 36.4245 0.272442L32.1154 3.40816C32.0395 3.46342 31.978 3.53602 31.936 3.61996L30.6394 6.2132L24.2141 12.6411C23.9375 12.4825 23.6525 12.3393 23.3595 12.2128V10.9289C23.3595 9.80433 22.445 8.88943 21.3208 8.88943H18.6789C17.5548 8.88943 16.6403 9.80433 16.6403 10.9289V12.2128C16.4983 12.2741 16.3582 12.3393 16.22 12.4081L10.6849 6.8708L10.9376 5.65438C11.1002 4.8725 10.8601 4.06843 10.2954 3.50343L8.23704 1.44502C7.32916 0.536377 6.06589 0.016089 4.76848 0.016089C4.76317 0.016089 4.7577 0.016089 4.75238 0.016089C3.46364 0.0203876 2.26615 0.517385 1.38054 1.41556C0.490309 2.31835 0 3.51437 0 4.78325C0 6.06439 0.498434 7.26901 1.40374 8.17555L3.51458 10.2866C4.07903 10.8512 4.8827 11.0916 5.66457 10.9297L6.88057 10.6769L10.4767 14.2745L9.79008 15.4185C9.21149 16.3826 9.52477 17.638 10.4884 18.2169L11.5896 18.8784C11.5397 19.2529 11.5145 19.632 11.5145 20.0098C11.5145 20.3876 11.5398 20.7666 11.5896 21.1412L10.4884 21.8026C9.82875 22.1989 9.47407 22.9121 9.50133 23.6319L1.43179 31.7056C0.513277 32.6245 0.00742182 33.8461 0.00742182 35.1455C0.00742182 36.4448 0.513277 37.6665 1.43179 38.5854C2.3799 39.5339 3.62489 40.008 4.87027 40.008C6.11542 40.008 7.36088 39.5337 8.30876 38.5855C8.54501 38.3431 16.6272 30.2757 16.8653 30.0202C17.2039 30.6784 17.8895 31.1299 18.6788 31.1299H21.3208C22.4449 31.1299 23.3594 30.215 23.3594 29.0904V27.8065C23.5078 27.7425 23.654 27.674 23.7983 27.6017L28.9532 32.7587L28.7012 33.9754C28.5383 34.7568 28.7783 35.5606 29.3433 36.1258L32.4315 39.2154C33.0399 39.8091 33.9497 40.1364 34.8646 39.9508L36.7661 39.5678C36.9778 39.5252 37.1489 39.3694 37.2114 39.1626C37.2738 38.9558 37.2175 38.7314 37.0649 38.5787L32.4995 34.0114L32.7594 32.7597L34.0099 32.5003L38.5753 37.0676C38.7281 37.2204 38.9524 37.2766 39.1591 37.2142C39.3658 37.1518 39.5214 36.9805 39.5641 36.7687L39.9469 34.8662C40.1249 33.9805 39.8501 33.0703 39.2117 32.4317ZM31.5351 6.97499C31.5797 6.93044 31.6167 6.87901 31.6448 6.82274L32.9201 4.27226L37.1085 1.22439C37.2018 1.15811 37.3282 1.16882 37.4091 1.24963L38.7521 2.59322C38.8331 2.67419 38.8437 2.80065 38.7812 2.88873L35.7307 7.08409L33.1812 8.35992C33.125 8.38806 33.0736 8.4251 33.029 8.46965L28.6383 12.8621C28.3664 12.5489 28.0063 12.3262 27.5956 12.2236C27.0726 12.093 26.5302 12.1721 26.0664 12.4458L31.5351 6.97499ZM7.48533 9.62402C7.34572 9.48436 7.14502 9.42449 6.95174 9.46458L5.42652 9.78182C5.03285 9.86334 4.62762 9.7422 4.34309 9.45747L2.23248 7.3467C1.5485 6.66181 1.17187 5.75145 1.17187 4.78325C1.17187 3.8245 1.54225 2.92093 2.21483 2.23894C2.87959 1.56476 3.78216 1.19172 4.75629 1.18844H4.76863C5.75722 1.18844 6.7187 1.5836 7.40846 2.27395L9.46696 4.33252C9.75141 4.61708 9.87227 5.02201 9.79047 5.41576L9.47329 6.94216C9.43305 7.1356 9.49297 7.33623 9.63266 7.47597L15.1789 13.0245C15.1354 13.0546 15.0919 13.0846 15.0489 13.1155L13.9474 12.4538C12.9918 11.8698 11.6512 12.2191 11.0987 13.2385L7.48533 9.62402ZM15.927 29.3069L7.48018 37.7565C6.04105 39.1961 3.6995 39.1961 2.26045 37.7565C1.56327 37.059 1.17937 36.1317 1.17937 35.1455C1.17937 34.1592 1.56335 33.232 2.26053 32.5345L9.94024 24.8509L11.1501 26.8668C11.7288 27.831 12.9836 28.1443 13.9473 27.5656L15.0489 26.9039C15.5462 27.2621 16.0791 27.5643 16.6403 27.8065C16.6732 28.3538 16.336 28.8309 15.927 29.3069ZM22.5677 26.8621C22.339 26.9479 22.1876 27.1666 22.1876 27.4109V29.0904C22.1876 29.5685 21.7987 29.9575 21.3208 29.9575H18.6788C18.2009 29.9575 17.812 29.5685 17.812 29.0904V27.4109C17.812 27.1666 17.6606 26.9479 17.4319 26.8621C16.7174 26.594 16.051 26.216 15.4512 25.7387C15.345 25.6542 15.216 25.6113 15.0864 25.6113C14.9824 25.6113 14.878 25.639 14.7848 25.695L13.344 26.5605C12.9342 26.8066 12.4006 26.6734 12.1546 26.2634L10.7947 23.9975C10.5487 23.5875 10.6819 23.0538 11.0916 22.8077L12.5315 21.9429C12.7407 21.8172 12.8501 21.575 12.8062 21.3349C12.7266 20.8997 12.6863 20.4538 12.6863 20.0098C12.6863 19.5658 12.7266 19.1199 12.8062 18.6846C12.8501 18.4445 12.7407 18.2023 12.5315 18.0767L11.0916 17.2118C10.6819 16.9657 10.5487 16.4319 10.7947 16.0221L12.1547 13.7561C12.4007 13.3461 12.9342 13.2128 13.3439 13.459L14.7848 14.3245C14.9943 14.4503 15.2599 14.4329 15.4512 14.2807C16.051 13.8034 16.7174 13.4255 17.4319 13.1573C17.6606 13.0715 17.812 12.8528 17.812 12.6085V10.929C17.812 10.4508 18.2009 10.0619 18.6788 10.0619H21.3208C21.7987 10.0619 22.1876 10.4508 22.1876 10.929V12.6085C22.1876 12.8528 22.339 13.0715 22.5677 13.1573C23.2822 13.4255 23.9487 13.8034 24.5485 14.2807C24.7397 14.4328 25.0053 14.4502 25.2149 14.3245L26.6557 13.459C26.8542 13.3397 27.0873 13.305 27.3119 13.3612C27.5365 13.4173 27.7259 13.5576 27.845 13.7562L29.2049 16.0221C29.4509 16.432 29.3177 16.9657 28.9081 17.2118L27.4681 18.0767C27.2589 18.2023 27.1495 18.4445 27.1934 18.6847C27.2729 19.1199 27.3133 19.5657 27.3133 20.0098C27.3133 20.4539 27.2729 20.8997 27.1934 21.3348C27.1495 21.575 27.2589 21.8172 27.4681 21.9429L28.6508 22.6533C29.2024 22.9846 29.3816 23.703 29.0505 24.2548L27.8449 26.2635C27.7258 26.4621 27.5364 26.6023 27.3118 26.6584C27.0873 26.7145 26.8542 26.6797 26.6557 26.5605L25.2148 25.695C25.0053 25.5693 24.7397 25.5867 24.5484 25.7389C23.9487 26.216 23.2823 26.5939 22.5677 26.8621Z" fill="#7210FF"/>
<path d="M6.37816 3.19889C5.5945 2.38169 4.07779 2.30048 3.21045 3.19889C2.78741 3.62211 2.55444 4.18483 2.55444 4.78336C2.55444 5.38188 2.78741 5.94461 3.21045 6.36782L5.02364 8.18176C5.13513 8.2632 5.28395 8.38723 5.55715 8.3412L7.49386 7.93869C7.72237 7.89125 7.90089 7.71258 7.94838 7.48398L8.35073 5.5464C8.39088 5.35296 8.33096 5.15233 8.19135 5.01267L6.37816 3.19889ZM6.87917 6.86912L5.62856 7.12907L4.03904 5.5389C3.83732 5.3371 3.72623 5.06878 3.72623 4.78336C3.72623 4.49793 3.83732 4.22962 4.03904 4.02782C4.37654 3.69581 5.07208 3.56029 5.5495 4.02782L7.13894 5.61791L6.87917 6.86912Z" fill="#7210FF"/>
<path d="M23.7992 16.2088C23.4893 15.8987 23.0773 15.728 22.639 15.728C22.2007 15.728 21.7888 15.8988 21.4789 16.2088L19.9998 17.6886L18.5207 16.2088C18.2108 15.8987 17.7988 15.728 17.3605 15.728C16.9223 15.728 16.5103 15.8988 16.2005 16.2088C15.5608 16.8487 15.5608 17.8899 16.2005 18.5299L17.6797 20.0097L16.2005 21.4895C15.5608 22.1294 15.5608 23.1706 16.2005 23.8106C16.5103 24.1206 16.9223 24.2913 17.3605 24.2913C17.7988 24.2913 18.2108 24.1206 18.5206 23.8106L19.9998 22.3308L21.479 23.8106C21.7889 24.1206 22.2009 24.2913 22.6391 24.2913C23.0773 24.2913 23.4893 24.1206 23.7992 23.8106C24.4388 23.1706 24.4388 22.1294 23.7992 21.4895L22.3199 20.0097L23.7992 18.5299C24.4388 17.8899 24.4388 16.8487 23.7992 16.2088ZM22.9705 17.7009L21.077 19.5952C20.8482 19.8241 20.8482 20.1953 21.077 20.4241L22.9705 22.3184C23.1532 22.5012 23.1532 22.7988 22.9705 22.9816C22.882 23.0701 22.7642 23.1189 22.639 23.1189C22.5138 23.1189 22.3961 23.0701 22.3075 22.9816L20.414 21.0873C20.3042 20.9773 20.1551 20.9156 19.9997 20.9156C19.8443 20.9156 19.6953 20.9773 19.5854 21.0873L17.6919 22.9816C17.6034 23.0701 17.4858 23.1189 17.3605 23.1189C17.2353 23.1189 17.1176 23.0701 17.0291 22.9816C16.8463 22.7988 16.8463 22.5012 17.0291 22.3184L18.9226 20.4241C19.1514 20.1952 19.1514 19.8241 18.9226 19.5952L17.0291 17.7009C16.8463 17.5181 16.8463 17.2206 17.0291 17.0377C17.1176 16.9491 17.2352 16.9004 17.3605 16.9004C17.4857 16.9004 17.6034 16.9492 17.6919 17.0378L19.5854 18.9321C19.6952 19.042 19.8443 19.1038 19.9997 19.1038C20.155 19.1038 20.3041 19.042 20.4139 18.9321L22.3074 17.0378C22.396 16.9492 22.5136 16.9005 22.6389 16.9005C22.7641 16.9005 22.8818 16.9493 22.9703 17.0379C23.1533 17.2206 23.1533 17.518 22.9705 17.7009Z" fill="#7210FF"/>
</g>
<defs>
<clipPath id="clip0_2540_4491">
<rect width="40" height="40" fill="white"/>
</clipPath>
</defs>
</svg>
