<svg width="40" height="40" viewBox="0 0 40 40" fill="none" xmlns="http://www.w3.org/2000/svg">
<path opacity="0.1" d="M8.75 24.375H5C4.65625 24.375 4.375 24.6562 4.375 25V28.75C4.375 29.0938 4.65625 29.375 5 29.375H8.75C9.09375 29.375 9.375 29.0938 9.375 28.75V25C9.375 24.6562 9.09375 24.375 8.75 24.375ZM8.125 28.125H5.625V25.625H8.125V28.125Z" fill="#7210FF"/>
<path opacity="0.1" d="M8.75 4.375H5C4.65625 4.375 4.375 4.65625 4.375 5V8.75C4.375 9.09375 4.65625 9.375 5 9.375H8.75C9.09375 9.375 9.375 9.09375 9.375 8.75V5C9.375 4.65625 9.09375 4.375 8.75 4.375ZM8.125 8.125H5.625V5.625H8.125V8.125Z" fill="#7210FF"/>
<path opacity="0.1" d="M1.875 20H5.625V18.75H2.5V16.25H1.25V19.375C1.25 19.7188 1.53125 20 1.875 20Z" fill="#7210FF"/>
<path opacity="0.1" d="M5.625 17.5V14.375C5.625 14.0312 5.34375 13.75 5 13.75H3.75V15H4.375V17.5H5.625Z" fill="#7210FF"/>
<path opacity="0.1" d="M6.875 18.75H8.125V20H6.875V18.75Z" fill="#7210FF"/>
<path opacity="0.1" d="M6.875 13.75H8.125V15H6.875V13.75Z" fill="#7210FF"/>
<path opacity="0.1" d="M13.75 28.75V31.875C13.75 32.2188 14.0312 32.5 14.375 32.5H17.5V31.25H15V28.75H13.75Z" fill="#7210FF"/>
<path opacity="0.1" d="M16.25 28.75H17.5V30H16.25V28.75Z" fill="#7210FF"/>
<path d="M1.875 32.5H11.875C12.2188 32.5 12.5 32.2188 12.5 31.875V21.875C12.5 21.5312 12.2188 21.25 11.875 21.25H1.875C1.53125 21.25 1.25 21.5312 1.25 21.875V31.875C1.25 32.2188 1.53125 32.5 1.875 32.5ZM2.5 22.5H11.25V31.25H2.5V22.5Z" fill="#7210FF"/>
<path d="M1.875 12.5H11.875C12.2188 12.5 12.5 12.2188 12.5 11.875V1.875C12.5 1.53125 12.2188 1.25 11.875 1.25H1.875C1.53125 1.25 1.25 1.53125 1.25 1.875V11.875C1.25 12.2188 1.53125 12.5 1.875 12.5ZM2.5 2.5H11.25V11.25H2.5V2.5Z" fill="#7210FF"/>
<path opacity="0.1" d="M13.125 15.625H11.875V16.25H10.625V13.75H9.375V16.875C9.375 17.2188 9.65625 17.5 10 17.5H12.5C12.8438 17.5 13.125 17.2188 13.125 16.875V15.625Z" fill="#7210FF"/>
<path opacity="0.1" d="M9.375 18.75H13.125V20H9.375V18.75Z" fill="#7210FF"/>
<path opacity="0.1" d="M17.5 23.75H16.25V26.25H13.75V27.5H16.875C17.2188 27.5 17.5 27.2188 17.5 26.875V23.75Z" fill="#7210FF"/>
<path opacity="0.1" d="M13.75 23.75H15V25H13.75V23.75Z" fill="#7210FF"/>
<path opacity="0.1" d="M13.75 21.25H15V22.5H13.75V21.25Z" fill="#7210FF"/>
<path opacity="0.1" d="M15.625 21.25H18.125V22.5H15.625V21.25Z" fill="#7210FF"/>
<path opacity="0.1" d="M13.75 2.5H15.625V5H16.875V2.5H18.75V1.25H13.75V2.5Z" fill="#7210FF"/>
<path opacity="0.1" d="M13.75 3.75H15V5H13.75V3.75Z" fill="#7210FF"/>
<path opacity="0.1" d="M17.5 3.75H18.75V5H17.5V3.75Z" fill="#7210FF"/>
<path opacity="0.1" d="M18.75 6.25H14.375C14.0312 6.25 13.75 6.53125 13.75 6.875V10H15V7.5H18.75V6.25Z" fill="#7210FF"/>
<path opacity="0.1" d="M16.25 8.75H18.75V10H16.25V8.75Z" fill="#7210FF"/>
<path opacity="0.1" d="M17.5 11.25H18.75V12.5H17.5V11.25Z" fill="#7210FF"/>
<path opacity="0.1" d="M13.75 11.25H16.25V12.5H13.75V11.25Z" fill="#7210FF"/>
<path opacity="0.1" d="M1.25 13.75H2.5V15H1.25V13.75Z" fill="#7210FF"/>
<path opacity="0.1" d="M18.125 17.5H16.875V18.75H14.375V20H17.5C17.8438 20 18.125 19.7188 18.125 19.375V17.5Z" fill="#7210FF"/>
<path opacity="0.1" d="M18.125 13.75H15C14.6562 13.75 14.375 14.0312 14.375 14.375V17.5H15.625V15H18.125V13.75Z" fill="#7210FF"/>
<path opacity="0.1" d="M6.875 16.25H8.125V17.5H6.875V16.25Z" fill="#7210FF"/>
<path opacity="0.1" d="M11.875 13.75H13.125V15H11.875V13.75Z" fill="#7210FF"/>
<path opacity="0.1" d="M31.25 17.5V14.375C31.25 14.0312 30.9688 13.75 30.625 13.75H26.875V15H30V17.5H31.25Z" fill="#7210FF"/>
<path opacity="0.1" d="M26.875 16.25H28.125V17.5H26.875V16.25Z" fill="#7210FF"/>
<path opacity="0.1" d="M24.375 13.75H25.625V15H24.375V13.75Z" fill="#7210FF"/>
<path opacity="0.1" d="M23.125 18.75V16.875C23.125 16.5312 22.8438 16.25 22.5 16.25H20C19.6562 16.25 19.375 16.5312 19.375 16.875V18.125H20.625V17.5H21.875V18.75H23.125Z" fill="#7210FF"/>
<path opacity="0.1" d="M19.375 13.75H23.125V15H19.375V13.75Z" fill="#7210FF"/>
<path opacity="0.1" d="M24.375 16.25H25.625V17.5H24.375V16.25Z" fill="#7210FF"/>
<path opacity="0.1" d="M19.375 18.75H20.625V20H19.375V18.75Z" fill="#7210FF"/>
<path d="M36.75 22.7554C36.75 22.7531 36.7475 22.7519 36.7457 22.7532L35.83 23.44C35.7858 23.4731 35.7769 23.5358 35.8094 23.5804C36.0323 23.8862 36.2458 24.2271 36.4458 24.5876C36.4725 24.6358 36.533 24.6538 36.5815 24.6277L37.5054 24.129C37.5541 24.1026 37.5722 24.0417 37.5453 23.9933C37.2969 23.5461 37.032 23.1323 36.7505 22.757C36.7502 22.7565 36.75 22.7559 36.75 22.7554V22.7554Z" fill="#7210FF"/>
<path opacity="0.1" d="M37 25.8363C37 25.8371 37.0001 25.8379 37.0004 25.8387C37.3314 26.7696 37.5 27.7504 37.5 28.75C37.5 33.575 33.575 37.5 28.75 37.5C23.925 37.5 20 33.575 20 28.75C20 23.925 23.925 20 28.75 20C30.929 20 33.011 20.8063 34.6139 22.2636C34.6547 22.3007 34.718 22.2985 34.7556 22.2581L35.4694 21.4919C35.507 21.4515 35.5047 21.3881 35.464 21.3509C33.6299 19.675 31.2477 18.75 28.75 18.75C23.2375 18.75 18.75 23.2375 18.75 28.75C18.75 34.2625 23.2375 38.75 28.75 38.75C34.2625 38.75 38.75 34.2625 38.75 28.75C38.75 27.6398 38.5675 26.5474 38.2081 25.5068C38.1901 25.4546 38.1328 25.4275 38.0808 25.4461L37.0047 25.8296C37.0019 25.8306 37 25.8333 37 25.8363V25.8363Z" fill="#7210FF"/>
<path d="M32.1271 24.627C32.088 24.5879 32.0246 24.588 31.9856 24.6271L28.8208 27.7978C28.7817 27.837 28.7183 27.837 28.6792 27.7978L25.5145 24.6271C25.4754 24.588 25.4121 24.5879 25.373 24.627L24.6271 25.373C24.588 25.412 24.588 25.4754 24.6271 25.5145L27.7979 28.6792C27.837 28.7183 27.837 28.7817 27.7979 28.8208L24.6271 31.9855C24.588 32.0246 24.588 32.0879 24.6271 32.127L25.373 32.873C25.4121 32.912 25.4754 32.912 25.5145 32.8729L28.6792 29.7022C28.7183 29.663 28.7817 29.663 28.8208 29.7022L31.9856 32.8729C32.0246 32.912 32.088 32.912 32.1271 32.873L32.873 32.127C32.9121 32.0879 32.912 32.0246 32.8729 31.9855L29.7022 28.8208C29.663 28.7817 29.663 28.7183 29.7022 28.6792L32.8729 25.5145C32.912 25.4754 32.9121 25.412 32.873 25.373L32.1271 24.627Z" fill="#7210FF"/>
<path opacity="0.1" d="M27.5 4.375H23.75C23.4062 4.375 23.125 4.65625 23.125 5V8.75C23.125 9.09375 23.4062 9.375 23.75 9.375H27.5C27.8438 9.375 28.125 9.09375 28.125 8.75V5C28.125 4.65625 27.8438 4.375 27.5 4.375ZM26.875 8.125H24.375V5.625H26.875V8.125Z" fill="#7210FF"/>
<path d="M20 1.875V11.875C20 12.2188 20.2812 12.5 20.625 12.5H30.625C30.9688 12.5 31.25 12.2188 31.25 11.875V1.875C31.25 1.53125 30.9688 1.25 30.625 1.25H20.625C20.2812 1.25 20 1.53125 20 1.875ZM21.25 2.5H30V11.25H21.25V2.5Z" fill="#7210FF"/>
</svg>
