<svg width="40" height="40" viewBox="0 0 40 40" fill="none" xmlns="http://www.w3.org/2000/svg">
    <g clip-path="url(#clip0_2347_3748)">
        <path d="M20 12.0312C18.4239 12.0312 16.8833 12.4986 15.5728 13.3742C14.2623 14.2498 13.241 15.4944 12.6378 16.9505C12.0347 18.4066 11.8769 20.0088 12.1844 21.5546C12.4918 23.1004 13.2508 24.5203 14.3652 25.6348C15.4797 26.7492 16.8996 27.5082 18.4454 27.8156C19.9912 28.1231 21.5934 27.9653 23.0495 27.3622C24.5056 26.759 25.7502 25.7377 26.6258 24.4272C27.5014 23.1167 27.9688 21.5761 27.9688 20C27.9661 17.8874 27.1256 15.8621 25.6318 14.3682C24.1379 12.8744 22.1126 12.0339 20 12.0312ZM20 26.557C18.7035 26.557 17.4362 26.1726 16.3581 25.4523C15.2801 24.7321 14.4399 23.7084 13.9437 22.5106C13.4475 21.3128 13.3176 19.9948 13.5704 18.7232C13.8232 17.4516 14.4474 16.2836 15.364 15.3667C16.2807 14.4498 17.4486 13.8254 18.7201 13.5722C19.9917 13.3191 21.3097 13.4487 22.5076 13.9447C23.7055 14.4406 24.7294 15.2806 25.4499 16.3584C26.1704 17.4362 26.5552 18.7035 26.5555 20C26.5536 21.738 25.8623 23.4044 24.6334 24.6334C23.4044 25.8623 21.7381 26.5536 20 26.5555V26.557Z" fill="#7210FF"/>
        <path opacity="0.1" d="M38.4859 17.4789L34.6516 16.7516C34.5439 16.2792 34.4111 15.8129 34.2539 15.3547C35.2581 14.857 36.1298 14.1281 36.7974 13.2279C37.4649 12.3276 37.9093 11.2818 38.0938 10.1763C38.2783 9.07087 38.1978 7.93741 37.8589 6.86915C37.5199 5.80089 36.9322 4.82835 36.1441 4.03151C35.356 3.23467 34.39 2.6363 33.3255 2.2856C32.2611 1.93491 31.1285 1.84191 30.0211 2.01426C28.9137 2.18661 27.863 2.61938 26.9555 3.27697C26.0479 3.93457 25.3095 4.79821 24.8008 5.79687C24.2934 5.61792 23.7761 5.4682 23.2516 5.34843L22.5242 1.51406C22.4935 1.35215 22.4072 1.20604 22.2803 1.10093C22.1534 0.99582 21.9937 0.938296 21.8289 0.938278H18.1742C18.0096 0.938478 17.8501 0.996085 17.7233 1.10118C17.5966 1.20627 17.5104 1.35228 17.4797 1.51406L16.7524 5.34843C15.0406 5.72357 13.4088 6.39912 11.9328 7.34375L8.71095 5.14531C8.5742 5.05338 8.40969 5.01197 8.24571 5.02823C8.08174 5.04448 7.92855 5.11738 7.81251 5.23437L5.23439 7.8125C5.11811 7.92912 5.04609 8.08259 5.03069 8.24655C5.0153 8.41051 5.05749 8.57471 5.15001 8.71093L7.34376 11.932C6.40045 13.4083 5.72622 15.04 5.35236 16.7516L1.51798 17.4789C1.35607 17.5096 1.20996 17.5959 1.10485 17.7229C0.999742 17.8498 0.942218 18.0094 0.9422 18.1742V21.8258C0.942218 21.9906 0.999742 22.1502 1.10485 22.2771C1.20996 22.4041 1.35607 22.4903 1.51798 22.5211L5.35236 23.2484C5.726 24.9598 6.40024 26.5913 7.34376 28.0672L5.14611 31.2891C5.05407 31.4257 5.01254 31.5902 5.02865 31.7542C5.04477 31.9181 5.11751 32.0714 5.23439 32.1875L7.81251 34.7695C7.92903 34.8859 8.08246 34.9581 8.24642 34.9736C8.41038 34.9892 8.57464 34.9471 8.71095 34.8547L11.9328 32.6602C13.4092 33.6032 15.0409 34.2774 16.7524 34.6516L17.4797 38.4859C17.5104 38.6477 17.5966 38.7937 17.7233 38.8988C17.8501 39.0039 18.0096 39.0615 18.1742 39.0617H21.8258C21.9906 39.0617 22.1502 39.0042 22.2772 38.8991C22.4041 38.794 22.4904 38.6478 22.5211 38.4859L23.2484 34.6516C24.9599 34.2774 26.5916 33.6032 28.068 32.6602L31.2891 34.8547C31.4254 34.9471 31.5896 34.9892 31.7536 34.9736C31.9176 34.9581 32.071 34.8859 32.1875 34.7695L34.7695 32.1875C34.8859 32.071 34.9581 31.9175 34.9736 31.7536C34.9892 31.5896 34.9471 31.4254 34.8547 31.2891L32.6602 28.0672C33.6038 26.5914 34.278 24.9598 34.6516 23.2484L38.4859 22.5211C38.6479 22.4903 38.794 22.4041 38.8991 22.2771C39.0042 22.1502 39.0617 21.9906 39.0617 21.8258V18.1742C39.0617 18.0094 39.0042 17.8498 38.8991 17.7229C38.794 17.5959 38.6479 17.5096 38.4859 17.4789ZM31.1016 3.11015C32.27 3.11015 33.4122 3.45664 34.3838 4.1058C35.3553 4.75496 36.1125 5.67763 36.5597 6.75714C37.0068 7.83666 37.1238 9.02452 36.8959 10.1705C36.6679 11.3165 36.1053 12.3692 35.279 13.1954C34.4528 14.0216 33.4001 14.5843 32.2541 14.8123C31.1081 15.0402 29.9203 14.9232 28.8408 14.4761C27.7612 14.0289 26.8386 13.2717 26.1894 12.3002C25.5402 11.3286 25.1938 10.1864 25.1938 9.01797C25.1956 7.45169 25.8187 5.95009 26.9262 4.84257C28.0337 3.73504 29.5353 3.11201 31.1016 3.11015ZM37.6469 21.2406L33.9211 21.9477C33.7811 21.9737 33.6522 22.0416 33.5516 22.1425C33.451 22.2433 33.3834 22.3724 33.3578 22.5125C33.0161 24.3632 32.2895 26.1215 31.225 27.6734C31.1442 27.7907 31.101 27.9298 31.101 28.0723C31.101 28.2147 31.1442 28.3538 31.225 28.4711L33.3594 31.6016L31.6016 33.3594L28.4719 31.2281C28.3543 31.1479 28.2153 31.1051 28.0731 31.1051C27.9308 31.1051 27.7918 31.1479 27.6742 31.2281C26.1217 32.2918 24.3632 33.0179 22.5125 33.3594C22.3724 33.385 22.2433 33.4526 22.1425 33.5532C22.0416 33.6537 21.9737 33.7826 21.9477 33.9227L21.2406 37.6484H18.7602L18.057 33.9227C18.0304 33.7829 17.9623 33.6543 17.8615 33.5539C17.7608 33.4534 17.6321 33.3856 17.4922 33.3594C15.6414 33.0174 13.8829 32.2908 12.3305 31.2266C12.2132 31.1458 12.0741 31.1025 11.9317 31.1025C11.7892 31.1025 11.6501 31.1458 11.5328 31.2266L8.39923 33.3594L6.64454 31.6016L8.77657 28.4711C8.85671 28.3534 8.89957 28.2143 8.89957 28.0719C8.89957 27.9295 8.85671 27.7904 8.77657 27.6727C7.7124 26.1221 6.98554 24.3655 6.64298 22.5164C6.61736 22.3763 6.54978 22.2472 6.4492 22.1464C6.34861 22.0455 6.21976 21.9776 6.0797 21.9516L2.35392 21.2445V18.7594L6.0797 18.0523C6.21933 18.0259 6.34767 17.9578 6.4478 17.8569C6.54794 17.7561 6.61517 17.6273 6.64064 17.4875C6.98271 15.6366 7.70958 13.878 8.77423 12.3258C8.85441 12.2082 8.89729 12.0692 8.89729 11.9269C8.89729 11.7847 8.85441 11.6457 8.77423 11.5281L6.64454 8.39843L8.39845 6.64453L11.5289 8.77656C11.6467 8.8566 11.7858 8.89939 11.9281 8.89939C12.0705 8.89939 12.2096 8.8566 12.3274 8.77656C13.8791 7.71096 15.6374 6.98326 17.4883 6.64062C17.6284 6.615 17.7575 6.54742 17.8583 6.44684C17.9592 6.34625 18.0271 6.2174 18.0531 6.07734L18.7563 2.35234H21.2367L21.9438 6.07734C21.97 6.21793 22.0385 6.34717 22.1402 6.44782C22.2418 6.54846 22.3717 6.61572 22.5125 6.64062C23.1126 6.75899 23.7036 6.91928 24.2813 7.12031C23.9406 8.32282 23.9253 9.59419 24.2368 10.8046C24.5483 12.015 25.1755 13.121 26.0543 14.0096C26.9331 14.8983 28.0321 15.5378 29.2389 15.8628C30.4458 16.1877 31.7172 16.1866 32.9235 15.8594C33.1046 16.3919 33.2502 16.9358 33.3594 17.4875C33.385 17.6276 33.4526 17.7567 33.5532 17.8575C33.6538 17.9584 33.7826 18.0263 33.9227 18.0523L37.6484 18.7594L37.6469 21.2406Z" fill="#7210FF"/>
        <path d="M28.3875 11.732C28.4422 11.7868 28.5072 11.8303 28.5787 11.8599C28.6502 11.8896 28.7269 11.9048 28.8043 11.9048C28.8817 11.9048 28.9584 11.8896 29.0299 11.8599C29.1014 11.8303 29.1664 11.7868 29.2211 11.732L31.1015 9.85156L32.982 11.732C33.0926 11.8426 33.2425 11.9047 33.3988 11.9047C33.5551 11.9047 33.7051 11.8426 33.8156 11.732C33.9261 11.6215 33.9882 11.4716 33.9882 11.3152C33.9882 11.1589 33.9261 11.009 33.8156 10.8984L31.9351 9.01797L33.8156 7.13672C33.926 7.02618 33.988 6.87629 33.988 6.72004C33.9879 6.56378 33.9258 6.41395 33.8152 6.30352C33.7047 6.19308 33.5548 6.13108 33.3985 6.13115C33.2423 6.13122 33.0924 6.19337 32.982 6.30391L31.1015 8.18438L29.2187 6.30391C29.1083 6.19337 28.9585 6.13122 28.8022 6.13115C28.646 6.13108 28.4961 6.19308 28.3855 6.30352C28.275 6.41395 28.2128 6.56378 28.2128 6.72004C28.2127 6.87629 28.2747 7.02618 28.3851 7.13672L30.2656 9.01797L28.3875 10.8984C28.2772 11.0091 28.2153 11.159 28.2153 11.3152C28.2153 11.4715 28.2772 11.6213 28.3875 11.732Z" fill="#7210FF"/>
    </g>
    <defs>
        <clipPath id="clip0_2347_3748">
            <rect width="40" height="40" fill="white"/>
        </clipPath>
    </defs>
</svg>
