<svg width="40" height="40" viewBox="0 0 40 40" fill="none" xmlns="http://www.w3.org/2000/svg">
<g clip-path="url(#clip0_2346_3713)">
<path opacity="0.1" d="M10.9375 29.375H3.29594C1.57719 29.375 0.3125 28.0444 0.3125 26.3256V5.07563C0.3125 3.35688 1.57719 1.875 3.29594 1.875H36.4209C38.1397 1.875 39.6875 3.35688 39.6875 5.07563V26.3256C39.6875 28.0444 38.1397 29.375 36.4209 29.375H28.75" stroke="#7210FF" stroke-miterlimit="10" stroke-linecap="round" stroke-linejoin="round"/>
<path opacity="0.1" d="M15.275 17.2234L1.18909 28.6266" stroke="#7210FF" stroke-miterlimit="10" stroke-linecap="round" stroke-linejoin="round"/>
<path opacity="0.1" d="M38.5275 28.6262L24.4419 17.2234" stroke="#7210FF" stroke-miterlimit="10" stroke-linecap="round" stroke-linejoin="round"/>
<path d="M38.5275 2.77469L22.6212 15.6513L19.8584 17.8881L1.18811 2.77406" stroke="#7210FF" stroke-miterlimit="10" stroke-linecap="round" stroke-linejoin="round"/>
<path opacity="0.1" d="M21.7756 12.0019L19.8584 13.5541L5.52435 1.95062" stroke="#7210FF" stroke-miterlimit="10" stroke-linecap="round" stroke-linejoin="round"/>
<path opacity="0.1" d="M34.1925 1.95062L24.2115 10.03" stroke="#7210FF" stroke-miterlimit="10" stroke-linecap="round" stroke-linejoin="round"/>
<path d="M26.8784 24.2466C27.9578 25.7003 28.5962 27.5009 28.5962 29.4503C28.5962 34.2762 24.684 38.1884 19.8584 38.1884C15.0328 38.1884 11.1206 34.2759 11.1206 29.4503C11.1206 24.6247 15.0328 20.7125 19.8584 20.7125C21.5972 20.7125 23.2175 21.2203 24.5787 22.0962" stroke="#7210FF" stroke-miterlimit="10" stroke-linecap="round" stroke-linejoin="round"/>
<path opacity="0.1" d="M22.2862 26.1469L19.8581 28.5747L17.43 26.1469C17.1884 25.9053 16.7962 25.905 16.5537 26.1469C16.3122 26.3884 16.3122 26.7812 16.5537 27.0231L18.9819 29.4512L16.554 31.8787C16.3122 32.1206 16.3122 32.5134 16.5537 32.7553C16.7956 32.9969 17.1881 32.9969 17.4303 32.755L19.8581 30.3272L22.2862 32.7553C22.5278 32.9969 22.9203 32.9969 23.1622 32.7553C23.4044 32.5131 23.4037 32.1209 23.1622 31.8791L20.7344 29.4512L23.1622 27.0231C23.404 26.7809 23.4044 26.3887 23.1625 26.1466C22.9206 25.905 22.5281 25.905 22.2862 26.1469Z" stroke="#7210FF" stroke-miterlimit="10" stroke-linecap="round" stroke-linejoin="round"/>
</g>
<defs>
<clipPath id="clip0_2346_3713">
<rect width="40" height="40" fill="white"/>
</clipPath>
</defs>
</svg>
