<svg width="40" height="40" viewBox="0 0 40 40" fill="none" xmlns="http://www.w3.org/2000/svg">
<g clip-path="url(#clip0_2346_3637)">
<path d="M25.4169 25.2392C25.1643 25.037 24.7955 25.078 24.5933 25.3307C24.3911 25.5834 24.4322 25.9521 24.6848 26.1543C25.0469 26.444 25.5026 26.5982 25.8854 26.6724V26.8806C25.8854 27.2042 26.1477 27.4665 26.4714 27.4665C26.7951 27.4665 27.0573 27.2042 27.0573 26.8806V26.6475C27.7926 26.4452 28.3462 25.8866 28.4811 25.1513C28.6704 24.1202 27.9741 23.362 27.2001 23.0681C27.1511 23.0495 27.1045 23.0312 27.0573 23.0127V21.7735C27.1898 21.8259 27.2719 21.8768 27.279 21.8813C27.5467 22.0591 27.9082 21.9884 28.0886 21.7218C28.27 21.4538 28.1998 21.0895 27.9318 20.9081C27.909 20.8927 27.5708 20.6684 27.0573 20.5516V20.4091C27.0573 20.0855 26.7951 19.8232 26.4714 19.8232C26.1477 19.8232 25.8854 20.0855 25.8854 20.4091V20.5445C25.8786 20.546 25.8719 20.5472 25.8651 20.5488C25.179 20.7084 24.6829 21.2263 24.5708 21.9004C24.4673 22.5217 24.7197 23.1227 25.2138 23.4315C25.398 23.5466 25.6225 23.6659 25.8854 23.7884V25.4661C25.7122 25.4136 25.5412 25.3386 25.4169 25.2392ZM27.3285 24.9398C27.2998 25.096 27.2092 25.2528 27.0573 25.3697V24.3102C27.2741 24.4713 27.3736 24.6936 27.3285 24.9398ZM25.8349 22.4377C25.7466 22.3825 25.7022 22.2407 25.7267 22.0928C25.7397 22.0152 25.7778 21.8992 25.8854 21.8077V22.4678C25.8688 22.4578 25.8507 22.4476 25.8349 22.4377Z" fill="#7210FF"/>
<path opacity="0.1" d="M39.9891 19.3427C39.8227 14.2509 37.7464 9.4618 34.1425 5.85758C30.3648 2.08023 25.3423 0 20.0001 0C14.6578 0 9.63523 2.08023 5.8575 5.85766C2.08023 9.63531 0 14.6579 0 20.0001C0 25.3423 2.08023 30.3648 5.85758 34.1426C9.4618 37.7464 14.2509 39.8227 19.3427 39.9891C19.5645 39.9964 19.7854 40.0001 20.0064 40C24.8359 39.9999 29.4679 38.2741 33.1136 35.1023C33.3577 34.8899 33.3834 34.5198 33.171 34.2757C32.9587 34.0316 32.5885 34.0058 32.3444 34.2183C28.7557 37.3403 24.1512 38.9748 19.381 38.8179C14.5877 38.6612 10.0792 36.7066 6.68625 33.314C3.13023 29.7576 1.17188 25.0293 1.17188 20.0001C1.17188 14.9709 3.13023 10.2426 6.68617 6.68625C10.2425 3.13031 14.9709 1.17188 20.0001 1.17188C25.0293 1.17188 29.7576 3.13023 33.3139 6.68617C36.7066 10.0792 38.6613 14.5877 38.8179 19.381C38.9738 24.152 37.3404 28.7558 34.2183 32.3444C34.0059 32.5885 34.0316 32.9586 34.2757 33.171C34.5199 33.3836 34.89 33.3577 35.1023 33.1136C38.4193 29.301 40.1548 24.4104 39.9891 19.3427Z" fill="#7210FF"/>
<path d="M3.69763 20.0001C3.69763 16.1248 5.07513 12.3751 7.5763 9.44194C7.7863 9.19577 7.75685 8.82585 7.5106 8.61593C7.26435 8.406 6.89451 8.43522 6.68459 8.68163C4.00279 11.8266 2.52576 15.8463 2.52576 20.0001C2.52576 24.1924 4.0274 28.2408 6.75412 31.3994C6.86052 31.5226 7.01341 31.5962 7.17623 31.6021C7.18341 31.6023 7.19052 31.6025 7.19771 31.6025C7.35279 31.6025 7.50193 31.5409 7.61201 31.4309L31.4308 7.61202C31.546 7.49679 31.608 7.3389 31.602 7.17616C31.596 7.01343 31.5226 6.86054 31.3993 6.75413C28.2399 4.02749 24.1916 2.52585 20 2.52585C15.8462 2.52585 11.8266 4.0028 8.68154 6.68468C8.43529 6.89468 8.40591 7.26452 8.61583 7.51069C8.82583 7.75694 9.1956 7.78624 9.44185 7.57639C12.3751 5.07522 16.1247 3.69772 20 3.69772C23.6986 3.69772 27.2774 4.95069 30.1474 7.23811L25.0018 12.3837H15.0555C14.7319 12.3837 14.4696 12.646 14.4696 12.9697C14.4696 13.2933 14.7319 13.5556 15.0555 13.5556H23.8301L16.6689 20.7168C16.6498 20.5047 16.6401 20.2898 16.6401 20.0728C16.6401 18.9381 16.9124 17.8287 17.4073 16.9483C17.6461 16.5223 17.6406 16.0153 17.3927 15.5922C17.1422 15.1648 16.6976 14.9096 16.2033 14.9096H11.0822C10.3239 14.9096 9.70701 15.5266 9.70701 16.2848V23.861C9.70701 24.6192 10.3239 25.2362 11.0822 25.2362H12.1496L10.7964 26.5894H8.3531V13.5555H12.3211C12.6447 13.5555 12.907 13.2932 12.907 12.9695C12.907 12.6458 12.6447 12.3836 12.3211 12.3836H7.76716C7.44357 12.3836 7.18123 12.6458 7.18123 12.9695V27.1751C7.18123 27.4987 7.44357 27.761 7.76716 27.761H9.62451L7.23794 30.1476C4.9506 27.2781 3.69763 23.6994 3.69763 20.0001ZM11.0822 24.0641C10.9701 24.0641 10.8789 23.9729 10.8789 23.8608V16.2845C10.8789 16.1724 10.9701 16.0812 11.0822 16.0812H16.2033C16.3097 16.0812 16.3634 16.1534 16.3816 16.1844C16.4074 16.2283 16.4289 16.2971 16.3854 16.3746C15.7854 17.4419 15.4682 18.7207 15.4682 20.0726C15.4682 20.6443 15.5265 21.2052 15.6401 21.7455L13.3215 24.064L11.0822 24.0641Z" fill="#7210FF"/>
<path opacity="0.1" d="M8.60065 33.2459C11.7599 35.9729 15.8083 37.4747 20.0001 37.4747C24.6677 37.4747 29.056 35.6569 32.3567 32.3565V32.3564C35.6571 29.0559 37.4748 24.6676 37.4748 20C37.4748 15.8081 35.973 11.7597 33.246 8.60054C33.1396 8.47726 32.9867 8.40374 32.8239 8.3978C32.6617 8.39312 32.5033 8.4539 32.3881 8.56898L8.56916 32.388C8.45401 32.5033 8.39197 32.6611 8.39791 32.8238C8.40393 32.9866 8.47737 33.1395 8.60065 33.2459ZM26.5332 16.0813H28.9181C29.0301 16.0813 29.1212 16.1725 29.1212 16.2845V17.8797C28.3142 17.5073 27.417 17.2979 26.4714 17.2979C26.031 17.2979 25.601 17.3432 25.1856 17.429L26.5332 16.0813ZM21.2963 23.6448C21.2963 20.7912 23.6179 18.4697 26.4714 18.4697C29.325 18.4697 31.6466 20.7912 31.6466 23.6448C31.6466 26.4984 29.325 28.8199 26.4714 28.8199C23.6179 28.82 21.2963 26.4984 21.2963 23.6448ZM20.8513 26.5891H16.0254L20.2556 22.359C20.1698 22.7744 20.1245 23.2044 20.1245 23.6448C20.1245 24.7071 20.3881 25.7085 20.8513 26.5891ZM31.647 19.9777C31.2692 19.4462 30.8127 18.9744 30.2931 18.5812V16.2844C30.2931 15.5262 29.6762 14.9094 28.9181 14.9094H27.7051L29.059 13.5555H31.647V19.9777ZM14.8535 27.761H21.646C22.811 29.1248 24.5414 29.9919 26.4714 29.9919C28.4015 29.9919 30.1319 29.1248 31.297 27.761H32.2329C32.5566 27.761 32.8188 27.4987 32.8188 27.1751V12.9695C32.8188 12.6459 32.5566 12.3836 32.2329 12.3836H30.2309L32.7621 9.85234C35.0497 12.7223 36.3028 16.3011 36.3028 20C36.3028 24.3545 34.6071 28.4486 31.5279 31.5277H31.528C28.4487 34.6069 24.3546 36.3027 20.0001 36.3027C16.3013 36.3027 12.7224 35.0496 9.85244 32.762L14.8535 27.761Z" fill="#7210FF"/>
</g>
<defs>
<clipPath id="clip0_2346_3637">
<rect width="40" height="40" fill="white"/>
</clipPath>
</defs>
</svg>
