<svg width="40" height="40" viewBox="0 0 40 40" fill="none" xmlns="http://www.w3.org/2000/svg">
<path opacity="0.1" d="M33.9838 20.4688C33.8268 20.4694 33.6734 20.4225 33.5437 20.3343C33.4139 20.246 33.3139 20.1205 33.2569 19.9744L32.7059 18.5778C32.6836 18.5202 32.6501 18.4675 32.6074 18.4229C32.5647 18.3783 32.5135 18.3425 32.4569 18.3177C32.4003 18.2929 32.3394 18.2796 32.2776 18.2784C32.2158 18.2773 32.1544 18.2883 32.0969 18.311C32.0395 18.3336 31.987 18.3674 31.9426 18.4104C31.8983 18.4534 31.8628 18.5048 31.8384 18.5615C31.8139 18.6183 31.8009 18.6793 31.8001 18.7411C31.7993 18.8029 31.8107 18.8642 31.8337 18.9216L32.385 20.3181C32.5106 20.6396 32.7305 20.9155 33.0158 21.1096C33.3012 21.3038 33.6386 21.4069 33.9838 21.4056C34.626 21.4064 35.2417 21.6618 35.6959 22.116C36.15 22.5701 36.4055 23.1859 36.4062 23.8281V29.0625C36.4062 29.2697 36.3239 29.4684 36.1774 29.6149C36.0309 29.7614 35.8322 29.8437 35.625 29.8438H32.32C32.335 29.6894 32.3438 29.5331 32.3438 29.375C32.3437 28.0904 31.8334 26.8583 30.925 25.95C30.0167 25.0416 28.7846 24.5312 27.5 24.5312C26.2154 24.5312 24.9833 25.0416 24.075 25.95C23.1666 26.8583 22.6563 28.0904 22.6562 29.375C22.6562 29.5331 22.665 29.6894 22.68 29.8438H17.32C17.335 29.6894 17.3438 29.5331 17.3438 29.375C17.3438 28.0904 16.8334 26.8583 15.925 25.95C15.0167 25.0416 13.7846 24.5312 12.5 24.5312C11.2154 24.5312 9.98333 25.0416 9.07495 25.95C8.16657 26.8583 7.65625 28.0904 7.65625 29.375C7.65625 29.5331 7.665 29.6894 7.68 29.8438H4.375C4.1678 29.8438 3.96909 29.7614 3.82257 29.6149C3.67606 29.4684 3.59375 29.2697 3.59375 29.0625V26.4347C3.59524 25.1015 4.1255 23.8234 5.06819 22.8807C6.01088 21.938 7.28902 21.4077 8.62219 21.4062C9.02385 21.4063 9.41285 21.2657 9.72163 21.0088C10.0304 20.7519 10.2395 20.395 10.3125 20L10.6094 18.3872C10.9865 16.3393 12.0692 14.4883 13.6694 13.1558C15.2696 11.8234 17.2861 11.0937 19.3684 11.0938H22.6841C23.3241 11.0937 23.9622 11.1626 24.5875 11.2991C24.709 11.3256 24.836 11.3028 24.9406 11.2356C25.0453 11.1685 25.1189 11.0626 25.1455 10.9411C25.172 10.8196 25.1492 10.6926 25.082 10.588C25.0149 10.4833 24.909 10.4096 24.7875 10.3831C24.0965 10.2323 23.3913 10.1562 22.6841 10.1563H19.3684C17.0671 10.1562 14.8384 10.9625 13.0698 12.4351C11.3012 13.9076 10.1045 15.9533 9.6875 18.2166L9.39031 19.8291C9.35722 20.0087 9.26227 20.171 9.12195 20.2878C8.98162 20.4047 8.8048 20.4687 8.62219 20.4688C7.04046 20.4705 5.52401 21.0996 4.40555 22.2181C3.2871 23.3365 2.65799 24.853 2.65625 26.4347V29.0625C2.65675 29.5182 2.83799 29.9551 3.16021 30.2773C3.48243 30.5995 3.91931 30.7808 4.375 30.7812H7.86594C8.16819 31.7748 8.78175 32.6449 9.61613 33.2632C10.4505 33.8815 11.4615 34.2153 12.5 34.2153C13.5385 34.2153 14.5495 33.8815 15.3839 33.2632C16.2182 32.6449 16.8318 31.7748 17.1341 30.7812H22.8659C23.1682 31.7748 23.7818 32.6449 24.6161 33.2632C25.4505 33.8815 26.4615 34.2153 27.5 34.2153C28.5385 34.2153 29.5495 33.8815 30.3839 33.2632C31.2182 32.6449 31.8318 31.7748 32.1341 30.7812H35.625C36.0807 30.7808 36.5176 30.5995 36.8398 30.2773C37.162 29.9551 37.3433 29.5182 37.3438 29.0625V23.8287C37.3427 22.938 36.9883 22.0839 36.3584 21.4541C35.7286 20.8242 34.8745 20.4698 33.9838 20.4688ZM12.5 33.2812C11.7274 33.2812 10.9722 33.0522 10.3298 32.6229C9.68742 32.1937 9.18675 31.5836 8.8911 30.8699C8.59544 30.1561 8.51808 29.3707 8.66881 28.6129C8.81953 27.8552 9.19157 27.1592 9.73786 26.6129C10.2842 26.0666 10.9802 25.6945 11.7379 25.5438C12.4957 25.3931 13.2811 25.4704 13.9949 25.7661C14.7086 26.0618 15.3187 26.5624 15.7479 27.2048C16.1772 27.8472 16.4062 28.6024 16.4062 29.375C16.4051 30.4106 15.9932 31.4035 15.2609 32.1359C14.5285 32.8682 13.5356 33.2801 12.5 33.2812ZM27.5 33.2812C26.7274 33.2812 25.9722 33.0522 25.3298 32.6229C24.6874 32.1937 24.1868 31.5836 23.8911 30.8699C23.5954 30.1561 23.5181 29.3707 23.6688 28.6129C23.8195 27.8552 24.1916 27.1592 24.7379 26.6129C25.2842 26.0666 25.9802 25.6945 26.7379 25.5438C27.4957 25.3931 28.2811 25.4704 28.9949 25.7661C29.7086 26.0618 30.3187 26.5624 30.7479 27.2048C31.1772 27.8472 31.4062 28.6024 31.4062 29.375C31.4051 30.4106 30.9932 31.4035 30.2609 32.1359C29.5285 32.8682 28.5356 33.2801 27.5 33.2812Z" fill="#7210FF"/>
<path d="M20.7844 20V12.1875C20.7844 12.0632 20.735 11.944 20.6471 11.856C20.5592 11.7681 20.44 11.7188 20.3156 11.7188H19.3688C17.4326 11.719 15.5577 12.3974 14.0697 13.6362C12.5817 14.875 11.5746 16.5959 11.2235 18.5L10.9638 19.9156C10.9514 19.9832 10.954 20.0527 10.9715 20.1192C10.989 20.1856 11.0209 20.2474 11.0649 20.3002C11.1089 20.353 11.1639 20.3954 11.2262 20.4246C11.2884 20.4537 11.3563 20.4688 11.425 20.4688H20.3156C20.44 20.4688 20.5592 20.4194 20.6471 20.3315C20.735 20.2435 20.7844 20.1243 20.7844 20ZM19.8469 19.5312H11.9875L12.1453 18.6694C12.4569 16.9809 13.35 15.455 14.6696 14.3565C15.9892 13.258 17.6518 12.6564 19.3688 12.6562H19.8469V19.5312Z" fill="#7210FF"/>
<path d="M31.4719 20.2634C31.5151 20.2 31.5422 20.127 31.5506 20.0507C31.5591 19.9744 31.5487 19.8972 31.5203 19.8259L31.0259 18.5759C30.9782 18.4634 30.8884 18.374 30.7757 18.3267C30.6629 18.2794 30.5362 18.2781 30.4225 18.3229C30.3087 18.3677 30.217 18.4552 30.1669 18.5667C30.1167 18.6782 30.1121 18.8048 30.154 18.9197L30.395 19.5284H22.6594V12.6534H22.6844C23.3202 12.6531 23.9535 12.7341 24.5687 12.8947C24.6291 12.9129 24.6924 12.9188 24.7551 12.912C24.8178 12.9051 24.8784 12.8857 24.9334 12.8549C24.9884 12.8241 25.0366 12.7826 25.0751 12.7327C25.1137 12.6829 25.1418 12.6258 25.1578 12.5648C25.1737 12.5038 25.1773 12.4403 25.1681 12.3779C25.159 12.3156 25.1373 12.2557 25.1045 12.2019C25.0717 12.1481 25.0284 12.1015 24.9771 12.0648C24.9259 12.0281 24.8678 12.0021 24.8062 11.9884C24.1135 11.8075 23.4004 11.7162 22.6844 11.7166H22.1906C22.0663 11.7166 21.9471 11.7659 21.8592 11.8538C21.7712 11.9418 21.7219 12.061 21.7219 12.1853V20C21.7219 20.1243 21.7712 20.2435 21.8592 20.3314C21.9471 20.4194 22.0663 20.4687 22.1906 20.4687H31.0844C31.1608 20.4687 31.2361 20.45 31.3036 20.4142C31.3711 20.3784 31.4289 20.3267 31.4719 20.2634Z" fill="#7210FF"/>
<path opacity="0.1" d="M31.5625 17.6563C32.7059 17.6563 33.8237 17.3172 34.7744 16.6819C35.7251 16.0467 36.4661 15.1438 36.9037 14.0874C37.3412 13.031 37.4557 11.8686 37.2327 10.7471C37.0096 9.62568 36.459 8.59556 35.6505 7.78704C34.8419 6.97852 33.8118 6.42791 32.6904 6.20484C31.5689 5.98177 30.4065 6.09625 29.3501 6.53382C28.2937 6.97139 27.3908 7.71239 26.7556 8.66311C26.1203 9.61383 25.7813 10.7316 25.7812 11.875C25.783 13.4078 26.3926 14.8772 27.4765 15.961C28.5603 17.0449 30.0298 17.6545 31.5625 17.6563ZM31.5625 7.03125C32.5205 7.03125 33.457 7.31533 34.2535 7.84757C35.0501 8.37981 35.6709 9.1363 36.0375 10.0214C36.4042 10.9065 36.5001 11.8804 36.3132 12.82C36.1263 13.7596 35.665 14.6226 34.9875 15.3001C34.3101 15.9775 33.4471 16.4388 32.5075 16.6257C31.5679 16.8126 30.594 16.7167 29.7089 16.35C28.8238 15.9834 28.0673 15.3626 27.5351 14.566C27.0028 13.7695 26.7188 12.833 26.7188 11.875C26.7202 10.5908 27.2309 9.35958 28.139 8.45151C29.0471 7.54343 30.2783 7.03266 31.5625 7.03125Z" fill="#7210FF"/>
<path d="M28.125 21.4062C28.0007 21.4062 27.8815 21.4556 27.7935 21.5435C27.7056 21.6315 27.6562 21.7507 27.6562 21.875C27.6562 21.9993 27.7056 22.1185 27.7935 22.2065C27.8815 22.2944 28.0007 22.3438 28.125 22.3438H30C30.1243 22.3438 30.2435 22.2944 30.3315 22.2065C30.4194 22.1185 30.4688 21.9993 30.4688 21.875C30.4688 21.7507 30.4194 21.6315 30.3315 21.5435C30.2435 21.4556 30.1243 21.4062 30 21.4062H28.125Z" fill="#7210FF"/>
<path d="M17.5 21.4062C17.3757 21.4062 17.2565 21.4556 17.1685 21.5435C17.0806 21.6315 17.0312 21.7507 17.0312 21.875C17.0312 21.9993 17.0806 22.1185 17.1685 22.2065C17.2565 22.2944 17.3757 22.3438 17.5 22.3438H19.375C19.4993 22.3438 19.6185 22.2944 19.7065 22.2065C19.7944 22.1185 19.8438 21.9993 19.8438 21.875C19.8438 21.7507 19.7944 21.6315 19.7065 21.5435C19.6185 21.4556 19.4993 21.4062 19.375 21.4062H17.5Z" fill="#7210FF"/>
<path d="M12.5 27.0312C12.0365 27.0312 11.5833 27.1687 11.1979 27.4262C10.8125 27.6838 10.5121 28.0498 10.3347 28.4781C10.1573 28.9064 10.1109 29.3776 10.2013 29.8322C10.2917 30.2869 10.5149 30.7045 10.8427 31.0323C11.1705 31.3601 11.5881 31.5833 12.0428 31.6737C12.4974 31.7641 12.9687 31.7177 13.3969 31.5403C13.8252 31.363 14.1912 31.0625 14.4488 30.6771C14.7063 30.2917 14.8438 29.8385 14.8438 29.375C14.8431 28.7536 14.5959 28.1578 14.1566 27.7184C13.7172 27.2791 13.1214 27.0319 12.5 27.0312ZM12.5 30.7812C12.2219 30.7812 11.95 30.6988 11.7187 30.5443C11.4875 30.3897 11.3072 30.1701 11.2008 29.9131C11.0944 29.6562 11.0665 29.3734 11.1208 29.1007C11.175 28.8279 11.309 28.5773 11.5056 28.3806C11.7023 28.184 11.9529 28.05 12.2257 27.9958C12.4984 27.9415 12.7812 27.9694 13.0381 28.0758C13.2951 28.1822 13.5147 28.3625 13.6693 28.5937C13.8238 28.825 13.9063 29.0969 13.9063 29.375C13.9058 29.7478 13.7575 30.1053 13.4939 30.3689C13.2303 30.6325 12.8728 30.7808 12.5 30.7812Z" fill="#7210FF"/>
<path d="M27.5 27.0312C27.0365 27.0312 26.5833 27.1687 26.1979 27.4262C25.8125 27.6838 25.5121 28.0498 25.3347 28.4781C25.1573 28.9064 25.1109 29.3776 25.2013 29.8322C25.2917 30.2869 25.5149 30.7045 25.8427 31.0323C26.1705 31.3601 26.5881 31.5833 27.0428 31.6737C27.4974 31.7641 27.9687 31.7177 28.3969 31.5403C28.8252 31.363 29.1912 31.0625 29.4488 30.6771C29.7063 30.2917 29.8438 29.8385 29.8438 29.375C29.8431 28.7536 29.5959 28.1578 29.1566 27.7184C28.7172 27.2791 28.1214 27.0319 27.5 27.0312ZM27.5 30.7812C27.2219 30.7812 26.95 30.6988 26.7187 30.5443C26.4875 30.3897 26.3072 30.1701 26.2008 29.9131C26.0944 29.6562 26.0665 29.3734 26.1208 29.1007C26.175 28.8279 26.309 28.5773 26.5056 28.3806C26.7023 28.184 26.9529 28.05 27.2257 27.9958C27.4984 27.9415 27.7812 27.9694 28.0381 28.0758C28.2951 28.1822 28.5147 28.3625 28.6693 28.5937C28.8238 28.825 28.9063 29.0969 28.9063 29.375C28.9058 29.7478 28.7575 30.1053 28.4939 30.3689C28.2303 30.6325 27.8728 30.7808 27.5 30.7812Z" fill="#7210FF"/>
<path d="M28.731 14.7066C28.7745 14.7501 28.8262 14.7847 28.8831 14.8082C28.94 14.8318 29.0009 14.844 29.0625 14.844C29.1241 14.844 29.1851 14.8318 29.242 14.8082C29.2989 14.7847 29.3506 14.7501 29.3941 14.7066L31.5625 12.5378L33.731 14.7066C33.7745 14.7501 33.8262 14.7846 33.8831 14.8082C33.94 14.8318 34.001 14.8439 34.0625 14.8439C34.1241 14.8439 34.1851 14.8318 34.242 14.8082C34.2989 14.7846 34.3505 14.7501 34.3941 14.7066C34.4376 14.663 34.4722 14.6113 34.4957 14.5544C34.5193 14.4975 34.5314 14.4366 34.5314 14.375C34.5314 14.3134 34.5193 14.2524 34.4957 14.1956C34.4722 14.1387 34.4376 14.087 34.3941 14.0434L32.2253 11.875L34.3941 9.70656C34.482 9.61862 34.5314 9.49936 34.5314 9.375C34.5314 9.25064 34.482 9.13137 34.3941 9.04343C34.3062 8.9555 34.1869 8.9061 34.0625 8.9061C33.9382 8.9061 33.8189 8.9555 33.731 9.04343L31.5625 11.2122L29.3941 9.04343C29.3062 8.9555 29.1869 8.9061 29.0625 8.9061C28.9382 8.9061 28.8189 8.9555 28.731 9.04343C28.643 9.13137 28.5936 9.25064 28.5936 9.375C28.5936 9.49936 28.643 9.61862 28.731 9.70656L30.8997 11.875L28.731 14.0434C28.6874 14.087 28.6529 14.1387 28.6293 14.1955C28.6057 14.2524 28.5936 14.3134 28.5936 14.375C28.5936 14.4366 28.6057 14.4976 28.6293 14.5544C28.6529 14.6113 28.6874 14.663 28.731 14.7066Z" fill="#7210FF"/>
</svg>
