<svg width="120" height="120" viewBox="0 0 120 120" fill="none" xmlns="http://www.w3.org/2000/svg">
    <g clip-path="url(#4rhqm8lzya)">
        <path d="M71.786 80H48.928a1.428 1.428 0 1 0 0 2.857h22.858a1.428 1.428 0 1 0 0-2.857zm3.078-39.014-3.528-.415-1.907-3.343a2.72 2.72 0 0 0-2.293-1.514H52.864a2.721 2.721 0 0 0-2.293 1.514l-1.942 3.407-3.536.43 2.993-5.25a5.548 5.548 0 0 1 4.778-2.958h14.272a5.55 5.55 0 0 1 4.778 2.957l2.95 5.172z" fill="#7210FF"/>
        <path d="M113.451 11.429a2.14 2.14 0 0 0 1.98-1.323 2.142 2.142 0 0 0-.465-2.335 2.142 2.142 0 1 0-1.515 3.658zm0-3.215a1.07 1.07 0 0 1 .757 1.83 1.066 1.066 0 0 1-1.167.232 1.072 1.072 0 0 1 .41-2.062zm-48.61 13.449a1.428 1.428 0 1 0 0 2.856 1.428 1.428 0 0 0 0-2.856zm0 2.142a.714.714 0 1 1 0-1.428.714.714 0 0 1 0 1.428zm47.143 19.37a1.432 1.432 0 0 0-1.32.883 1.43 1.43 0 0 0 1.867 1.866 1.43 1.43 0 0 0-.547-2.748zm0 2.144a.717.717 0 0 1-.66-.441.711.711 0 0 1 .155-.779.713.713 0 1 1 .505 1.22zM7.818 41.428a1.428 1.428 0 1 0 0 2.856 1.428 1.428 0 0 0 0-2.856zm0 2.142a.714.714 0 1 1 0-1.428.714.714 0 0 1 0 1.428zM42.952 15.01a1.429 1.429 0 1 0 1.992 2.048 1.429 1.429 0 0 0-1.992-2.048zm1.495 1.536a.714.714 0 1 1-.997-1.024.714.714 0 0 1 .996 1.024z" fill="#989898"/>
        <path d="m6.686 12.47 1.062-1.398-.67-.38-.682 1.564h-.023l-.692-1.552-.683.391 1.051 1.364v.022l-1.643-.213v.76l1.655-.212v.023L4.998 14.2l.638.403.727-1.576h.021l.67 1.565.705-.402-1.073-1.342v-.022l1.687.2v-.76l-1.687.224v-.022zM93.664 38.197l-.612.785.367.231.418-.907h.013l.387.9.405-.23-.617-.774v-.012l.97.116v-.438l-.97.129v-.013l.61-.805-.386-.218-.392.9h-.013l-.399-.894-.393.225.605.785v.013l-.946-.122v.438l.953-.122v.013zM90.397 16.087v-.745l-1.655.219v-.022l1.041-1.37-.657-.373-.669 1.534h-.022l-.68-1.523-.669.384 1.031 1.337v.022l-1.612-.208v.745l1.623-.208v.022l-1.042 1.337.625.395.713-1.546h.022l.657 1.535.691-.395-1.052-1.315v-.023l1.655.198zM31.011 32.706l.899-1.182-.567-.322-.577 1.324h-.019l-.586-1.315-.578.331.89 1.154v.019l-1.391-.18v.643l1.4-.18v.02l-.898 1.153.538.34.616-1.333h.018l.567 1.324.596-.34-.908-1.135v-.02l1.428.17v-.642l-1.428.19v-.02z" fill="#7210FF"/>
        <path d="M1.429 102.857a1.428 1.428 0 1 0 0-2.856 1.428 1.428 0 0 0 0 2.856zM7.857 100H5.714a1.432 1.432 0 0 0-1.428 1.429 1.43 1.43 0 0 0 1.428 1.428h2.143a1.428 1.428 0 1 0 0-2.857zm106.429 0h-2.143a1.432 1.432 0 0 0-1.429 1.429 1.43 1.43 0 0 0 1.429 1.428h2.143a1.427 1.427 0 1 0 0-2.857zM118.572 102.857a1.428 1.428 0 1 0 0-2.855 1.428 1.428 0 0 0 0 2.855z" fill="#989898"/>
        <path d="M84.396 105.714h-5.934a1.433 1.433 0 0 0 0 2.857h5.934a1.428 1.428 0 0 0 1.318-1.428 1.434 1.434 0 0 0-1.318-1.429zm-42.858 0h-5.934a1.434 1.434 0 0 0 0 2.857h5.934a1.434 1.434 0 0 0 0-2.857zm32.748 0H45.714a1.429 1.429 0 0 0 0 2.857H57.1V110h-5.672A1.432 1.432 0 0 0 50 111.429a1.428 1.428 0 0 0 1.428 1.428h17.858a1.428 1.428 0 1 0 0-2.857H62.9v-1.429h11.386a1.428 1.428 0 1 0 0-2.857z" fill="#7210FF"/>
        <path d="M107.658 100h-9.172c.056-.254.084-.512.085-.772v-3.65c.28-.12.513-.329.665-.593 4.271-7.593 3.771-18.743 3.357-23.178a5.684 5.684 0 0 0-1.679-3.522l-4.107-4.028c.214.014.436.021.65.021a17.821 17.821 0 0 0 7.257-1.879 1.544 1.544 0 0 0 .95-1.214c.55-4.05-3.478-6.25-5.7-6.85a1.343 1.343 0 0 0-.536-.043c-2.642.307-4.457 2.093-5.607 3.786A44.484 44.484 0 0 0 87.093 44.7a5.693 5.693 0 0 0-3.265-2.107c-1.692-.4-4.835-1.057-8.964-1.607l-3.528-.414a107.99 107.99 0 0 0-10.972-.572c-3.92.006-7.837.218-11.736.636l-3.535.429c-3.979.543-7.05 1.164-8.743 1.543a5.735 5.735 0 0 0-3.264 2.057 43.652 43.652 0 0 0-6.908 13.421c-1.142-1.693-2.957-3.486-5.607-3.793a1.354 1.354 0 0 0-.535.043c-2.222.6-6.25 2.8-5.7 6.85a1.54 1.54 0 0 0 .95 1.215 17.824 17.824 0 0 0 7.257 1.878c.214 0 .435-.007.65-.021l-4.107 4.028a5.684 5.684 0 0 0-1.679 3.522c-.414 4.435-.914 15.585 3.357 23.178.152.264.385.473.664.593v3.65c.002.26.03.518.086.772h-9.172a1.442 1.442 0 0 0-1.5 2.023 1.445 1.445 0 0 0 1.5.834h95.316a1.445 1.445 0 0 0 1.499-.834 1.437 1.437 0 0 0-.362-1.677 1.435 1.435 0 0 0-1.137-.346zm-23.372-.772v-3.514h11.428v3.514A.749.749 0 0 1 95 100H85a.748.748 0 0 1-.714-.772zM99.75 72.071c.043.457.086.993.121 1.593-.021.007-.043.007-.064.014l-15.5 6.464-5.7-5.164c12.071-.993 18.843-2.728 21.057-3.378.043.154.072.312.086.47zm-17.9 10.478-4.329 4.593H42.478l-4.721-5.014 7.493-6.786a.374.374 0 0 0 .071-.078c4.207.264 8.95.436 14.272.45h.814a237.705 237.705 0 0 0 14.271-.45c.02.03.044.056.072.078l7.093 6.422c.485.45.421.336.007.785zm17.636-25.37c.785.263 3.078 1.185 3.342 2.956-1.8.8-5.1 1.836-7.442.943.65-1.336 2-3.5 4.1-3.9zM35.336 46.42c.411-.52.989-.883 1.635-1.029a111.65 111.65 0 0 1 23.393-2.535c7.674 0 15.325.842 22.814 2.514.65.15 1.229.521 1.636 1.05a43.429 43.429 0 0 1 7 15.007H28.193a42.216 42.216 0 0 1 7.143-15.007zM17.17 60.135c.272-1.757 2.565-2.693 3.35-2.957 2.107.407 3.45 2.564 4.093 3.893-2.343.907-5.643-.129-7.443-.936zm10.072 4.15h65.514l4.971 4.879C93.407 70.278 81.243 72.828 60 72.857c-21.193-.029-33.393-2.579-37.729-3.693l4.972-4.879zm-6.993 7.786c.014-.16.043-.317.086-.471 2.214.65 8.985 2.385 21.057 3.378l-5.907 5.35-15.272-6.636a.403.403 0 0 0-.086-.028c.036-.6.079-1.136.122-1.593zm.228 12.607a24.527 24.527 0 0 1-.335-3.064 53.136 53.136 0 0 1-.136-4.9l14.771 6.421 6.043 6.415a1.442 1.442 0 0 0 1.043.45h36.272a1.44 1.44 0 0 0 1.042-.45l6.143-6.522c.087-.093.161-.196.222-.307l14.45-6.022a53.61 53.61 0 0 1-.136 4.915s-.157 1.957-.336 3.064a27.127 27.127 0 0 1-2.385 8.179H22.864a27.128 27.128 0 0 1-2.386-8.179zm15.236 11.036v3.514A.749.749 0 0 1 35 100H25a.748.748 0 0 1-.714-.772v-3.514h11.428zm2.857 3.514v-3.514h42.857v3.514c.002.26.03.518.086.772H38.486c.056-.254.084-.512.085-.772z" fill="#989898"/>
        <path d="M73.082 100c.322-.669.489-1.4.49-2.143v-2.143h-2.858v2.143A2.15 2.15 0 0 1 68.573 100H51.429a2.15 2.15 0 0 1-2.143-2.143v-2.143h-2.857v2.143c0 .742.168 1.474.49 2.143h26.163zm-38.646-7.143h-3.221l-2.593-4.993a2.769 2.769 0 0 0-1.686-1.357l-6.457-1.829a24.507 24.507 0 0 1-.336-3.064l7.572 2.15a5.601 5.601 0 0 1 3.442 2.786l3.279 6.307zm65.421-11.243s-.157 1.957-.335 3.064l-6.458 1.83a2.77 2.77 0 0 0-1.685 1.356l-2.593 4.993h-3.222l3.28-6.307a5.6 5.6 0 0 1 3.442-2.786l7.571-2.15z" fill="#7210FF"/>
    </g>
    <defs>
        <clipPath id="4rhqm8lzya">
            <path fill="#fff" d="M0 0h120v120H0z"/>
        </clipPath>
    </defs>
</svg>
