<svg width="40" height="40" viewBox="0 0 40 40" fill="none" xmlns="http://www.w3.org/2000/svg">
<g clip-path="url(#clip0_2346_3559)">
<path opacity="0.1" d="M30 20C27.3488 20.003 24.807 21.0576 22.9323 22.9323C21.0576 24.807 20.003 27.3488 20 30C20 38.0593 29.0401 42.7122 35.5867 38.295C35.7241 38.2023 35.8191 38.0588 35.8507 37.8961C35.8823 37.7333 35.848 37.5647 35.7553 37.4273C35.6626 37.2899 35.5191 37.1949 35.3563 37.1633C35.1936 37.1317 35.025 37.166 34.8876 37.2587C29.1373 41.1387 21.25 37.0298 21.25 30C21.2526 27.6802 22.1753 25.4561 23.8157 23.8157C25.4561 22.1753 27.6802 21.2526 30 21.25C35.889 21.25 40.1416 27 38.338 32.6598C38.3125 32.7381 38.3027 32.8208 38.3093 32.9029C38.3158 32.9851 38.3385 33.0651 38.3761 33.1385C38.4137 33.2118 38.4654 33.277 38.5283 33.3303C38.5912 33.3835 38.664 33.4239 38.7425 33.4489C38.821 33.4739 38.9037 33.4832 38.9858 33.4761C39.0679 33.469 39.1478 33.4458 39.2209 33.4078C39.294 33.3697 39.3589 33.3176 39.4117 33.2543C39.4646 33.1911 39.5045 33.1181 39.529 33.0394C41.5888 26.5765 36.7344 20 30 20Z" fill="#7210FF"/>
<path d="M34.817 25.183C34.7589 25.125 34.69 25.079 34.6142 25.0475C34.5384 25.0161 34.4571 25 34.375 25C34.2929 25 34.2117 25.0161 34.1358 25.0475C34.06 25.079 33.9911 25.125 33.9331 25.183L30 29.1161L26.067 25.183C26.0089 25.125 25.94 25.079 25.8642 25.0476C25.7884 25.0161 25.7071 25 25.625 25C25.5429 25 25.4617 25.0161 25.3858 25.0476C25.31 25.079 25.2411 25.125 25.1831 25.183C25.125 25.2411 25.079 25.31 25.0476 25.3858C25.0162 25.4616 25 25.5429 25 25.625C25 25.7071 25.0162 25.7883 25.0476 25.8642C25.079 25.94 25.125 26.0089 25.1831 26.0669L29.1161 30L25.1831 33.933C25.096 34.0206 25.0368 34.1319 25.0128 34.253C24.9889 34.3742 25.0014 34.4997 25.0486 34.6137C25.0959 34.7278 25.1758 34.8254 25.2784 34.8941C25.3809 34.9628 25.5015 34.9997 25.625 35C26.0955 35 25.918 34.8701 30 30.8839C34.0817 34.8698 33.9045 35 34.375 35C34.4985 34.9997 34.6191 34.9628 34.7217 34.8941C34.8242 34.8254 34.9042 34.7278 34.9514 34.6137C34.9987 34.4997 35.0111 34.3742 34.9872 34.253C34.9633 34.1319 34.904 34.0206 34.817 33.933L30.8839 30L34.817 26.0669C34.875 26.0089 34.9211 25.94 34.9525 25.8642C34.9839 25.7883 35 25.7071 35 25.625C35 25.5429 34.9839 25.4616 34.9525 25.3858C34.9211 25.31 34.875 25.2411 34.817 25.183Z" fill="#7210FF"/>
<path d="M37.5 36.25C37.8452 36.25 38.125 35.9702 38.125 35.625C38.125 35.2798 37.8452 35 37.5 35C37.1548 35 36.875 35.2798 36.875 35.625C36.875 35.9702 37.1548 36.25 37.5 36.25Z" fill="#7210FF"/>
<path d="M11.875 1.25C12.2202 1.25 12.5 0.970178 12.5 0.625C12.5 0.279822 12.2202 0 11.875 0C11.5298 0 11.25 0.279822 11.25 0.625C11.25 0.970178 11.5298 1.25 11.875 1.25Z" fill="#7210FF"/>
<path d="M3.125 16.25C3.47018 16.25 3.75 15.9702 3.75 15.625C3.75 15.2798 3.47018 15 3.125 15C2.77982 15 2.5 15.2798 2.5 15.625C2.5 15.9702 2.77982 16.25 3.125 16.25Z" fill="#7210FF"/>
<path opacity="0.1" d="M14.375 1.25H25V18.75C25 18.9158 25.0658 19.0747 25.1831 19.1919C25.3003 19.3092 25.4592 19.375 25.625 19.375C25.7908 19.375 25.9497 19.3092 26.0669 19.1919C26.1842 19.0747 26.25 18.9158 26.25 18.75V0.625C26.25 0.45924 26.1842 0.300269 26.0669 0.183058C25.9497 0.065848 25.7908 0 25.625 0L14.375 0C14.2092 0 14.0503 0.065848 13.9331 0.183058C13.8158 0.300269 13.75 0.45924 13.75 0.625C13.75 0.79076 13.8158 0.949732 13.9331 1.06694C14.0503 1.18415 14.2092 1.25 14.375 1.25Z" fill="#7210FF"/>
<path opacity="0.1" d="M8.125 8.75C8.29076 8.75 8.44973 8.68415 8.56694 8.56694C8.68415 8.44973 8.75 8.29076 8.75 8.125V1.25H9.375C9.54076 1.25 9.69973 1.18415 9.81694 1.06694C9.93415 0.949732 10 0.79076 10 0.625C10 0.45924 9.93415 0.300269 9.81694 0.183058C9.69973 0.065848 9.54076 0 9.375 0L8.125 0C7.95924 0 7.80027 0.065848 7.68306 0.183058C7.56585 0.300269 7.5 0.45924 7.5 0.625V8.125C7.5 8.29076 7.56585 8.44973 7.68306 8.56694C7.80027 8.68415 7.95924 8.75 8.125 8.75Z" fill="#7210FF"/>
<path d="M28.125 8.75H36.25V20.625C36.25 20.7908 36.3158 20.9497 36.4331 21.0669C36.5503 21.1842 36.7092 21.25 36.875 21.25C37.0408 21.25 37.1997 21.1842 37.3169 21.0669C37.4342 20.9497 37.5 20.7908 37.5 20.625V8.125C37.5 7.95924 37.4342 7.80027 37.3169 7.68306C37.1997 7.56585 37.0408 7.5 36.875 7.5H28.125C27.9592 7.5 27.8003 7.56585 27.6831 7.68306C27.5658 7.80027 27.5 7.95924 27.5 8.125C27.5 8.29076 27.5658 8.44973 27.6831 8.56694C27.8003 8.68415 27.9592 8.75 28.125 8.75Z" fill="#7210FF"/>
<path d="M19.375 35H16.25V33.75H18.125C18.2908 33.75 18.4497 33.6842 18.5669 33.5669C18.6842 33.4497 18.75 33.2908 18.75 33.125C18.75 32.9592 18.6842 32.8003 18.5669 32.6831C18.4497 32.5658 18.2908 32.5 18.125 32.5H16.25V31.25H18.125C18.2908 31.25 18.4497 31.1842 18.5669 31.0669C18.6842 30.9497 18.75 30.7908 18.75 30.625C18.75 30.4592 18.6842 30.3003 18.5669 30.1831C18.4497 30.0658 18.2908 30 18.125 30H16.25V28.75H18.125C18.2908 28.75 18.4497 28.6842 18.5669 28.5669C18.6842 28.4497 18.75 28.2908 18.75 28.125C18.75 27.9592 18.6842 27.8003 18.5669 27.6831C18.4497 27.5658 18.2908 27.5 18.125 27.5H16.25V26.25H19.375C19.5408 26.25 19.6997 26.1842 19.8169 26.0669C19.9342 25.9497 20 25.7908 20 25.625C20 25.4592 19.9342 25.3003 19.8169 25.1831C19.6997 25.0658 19.5408 25 19.375 25H16.25V23.75H20.625C20.7908 23.75 20.9497 23.6842 21.0669 23.5669C21.1842 23.4497 21.25 23.2908 21.25 23.125C21.25 22.9592 21.1842 22.8003 21.0669 22.6831C20.9497 22.5658 20.7908 22.5 20.625 22.5H16.25V11.25H16.875C17.0408 11.25 17.1997 11.1842 17.3169 11.0669C17.4342 10.9497 17.5 10.7908 17.5 10.625C17.5 10.4592 17.4342 10.3003 17.3169 10.1831C17.1997 10.0658 17.0408 10 16.875 10H1.875C1.70924 10 1.55027 10.0658 1.43306 10.1831C1.31585 10.3003 1.25 10.4592 1.25 10.625C1.25 10.7908 1.31585 10.9497 1.43306 11.0669C1.55027 11.1842 1.70924 11.25 1.875 11.25H2.5V13.125C2.5 13.2908 2.56585 13.4497 2.68306 13.5669C2.80027 13.6842 2.95924 13.75 3.125 13.75C3.29076 13.75 3.44973 13.6842 3.56694 13.5669C3.68415 13.4497 3.75 13.2908 3.75 13.125V11.25H15V35H13.75V29.375C13.75 29.2092 13.6842 29.0503 13.5669 28.9331C13.4497 28.8158 13.2908 28.75 13.125 28.75H5.625C5.45924 28.75 5.30027 28.8158 5.18306 28.9331C5.06585 29.0503 5 29.2092 5 29.375V35H3.75V18.125C3.75 17.9592 3.68415 17.8003 3.56694 17.6831C3.44973 17.5658 3.29076 17.5 3.125 17.5C2.95924 17.5 2.80027 17.5658 2.68306 17.6831C2.56585 17.8003 2.5 17.9592 2.5 18.125V35H0.625C0.45924 35 0.300269 35.0658 0.183058 35.1831C0.065848 35.3003 0 35.4592 0 35.625C0 35.7908 0.065848 35.9497 0.183058 36.0669C0.300269 36.1842 0.45924 36.25 0.625 36.25H19.375C19.5408 36.25 19.6997 36.1842 19.8169 36.0669C19.9342 35.9497 20 35.7908 20 35.625C20 35.4592 19.9342 35.3003 19.8169 35.1831C19.6997 35.0658 19.5408 35 19.375 35ZM8.75 35H6.25V30H8.75V35ZM12.5 35H10V30H12.5V35Z" fill="#7210FF"/>
<path opacity="0.1" d="M5 26.875C5 27.0408 5.06585 27.1997 5.18306 27.3169C5.30027 27.4342 5.45924 27.5 5.625 27.5H8.125C8.29076 27.5 8.44973 27.4342 8.56694 27.3169C8.68415 27.1997 8.75 27.0408 8.75 26.875V24.375C8.75 24.2092 8.68415 24.0503 8.56694 23.9331C8.44973 23.8158 8.29076 23.75 8.125 23.75H5.625C5.45924 23.75 5.30027 23.8158 5.18306 23.9331C5.06585 24.0503 5 24.2092 5 24.375V26.875ZM6.25 25H7.5V26.25H6.25V25Z" fill="#7210FF"/>
<path opacity="0.1" d="M10 26.875C10 27.0408 10.0658 27.1997 10.1831 27.3169C10.3003 27.4342 10.4592 27.5 10.625 27.5H13.125C13.2908 27.5 13.4497 27.4342 13.5669 27.3169C13.6842 27.1997 13.75 27.0408 13.75 26.875V24.375C13.75 24.2092 13.6842 24.0503 13.5669 23.9331C13.4497 23.8158 13.2908 23.75 13.125 23.75H10.625C10.4592 23.75 10.3003 23.8158 10.1831 23.9331C10.0658 24.0503 10 24.2092 10 24.375V26.875ZM11.25 25H12.5V26.25H11.25V25Z" fill="#7210FF"/>
<path opacity="0.1" d="M5 21.875C5 22.0408 5.06585 22.1997 5.18306 22.3169C5.30027 22.4342 5.45924 22.5 5.625 22.5H8.125C8.29076 22.5 8.44973 22.4342 8.56694 22.3169C8.68415 22.1997 8.75 22.0408 8.75 21.875V19.375C8.75 19.2092 8.68415 19.0503 8.56694 18.9331C8.44973 18.8158 8.29076 18.75 8.125 18.75H5.625C5.45924 18.75 5.30027 18.8158 5.18306 18.9331C5.06585 19.0503 5 19.2092 5 19.375V21.875ZM6.25 20H7.5V21.25H6.25V20Z" fill="#7210FF"/>
<path opacity="0.1" d="M10 21.875C10 22.0408 10.0658 22.1997 10.1831 22.3169C10.3003 22.4342 10.4592 22.5 10.625 22.5H13.125C13.2908 22.5 13.4497 22.4342 13.5669 22.3169C13.6842 22.1997 13.75 22.0408 13.75 21.875V19.375C13.75 19.2092 13.6842 19.0503 13.5669 18.9331C13.4497 18.8158 13.2908 18.75 13.125 18.75H10.625C10.4592 18.75 10.3003 18.8158 10.1831 18.9331C10.0658 19.0503 10 19.2092 10 19.375V21.875ZM11.25 20H12.5V21.25H11.25V20Z" fill="#7210FF"/>
<path opacity="0.1" d="M5.625 17.5H8.125C8.29076 17.5 8.44973 17.4342 8.56694 17.3169C8.68415 17.1997 8.75 17.0408 8.75 16.875V14.375C8.75 14.2092 8.68415 14.0503 8.56694 13.9331C8.44973 13.8158 8.29076 13.75 8.125 13.75H5.625C5.45924 13.75 5.30027 13.8158 5.18306 13.9331C5.06585 14.0503 5 14.2092 5 14.375V16.875C5 17.0408 5.06585 17.1997 5.18306 17.3169C5.30027 17.4342 5.45924 17.5 5.625 17.5ZM6.25 15H7.5V16.25H6.25V15Z" fill="#7210FF"/>
<path opacity="0.1" d="M10.625 17.5H13.125C13.2908 17.5 13.4497 17.4342 13.5669 17.3169C13.6842 17.1997 13.75 17.0408 13.75 16.875V14.375C13.75 14.2092 13.6842 14.0503 13.5669 13.9331C13.4497 13.8158 13.2908 13.75 13.125 13.75H10.625C10.4592 13.75 10.3003 13.8158 10.1831 13.9331C10.0658 14.0503 10 14.2092 10 14.375V16.875C10 17.0408 10.0658 17.1997 10.1831 17.3169C10.3003 17.4342 10.4592 17.5 10.625 17.5ZM11.25 15H12.5V16.25H11.25V15Z" fill="#7210FF"/>
<path opacity="0.1" d="M10.625 5C10.7908 5 10.9497 4.93415 11.0669 4.81694C11.1842 4.69973 11.25 4.54076 11.25 4.375V3.125C11.25 2.95924 11.1842 2.80027 11.0669 2.68306C10.9497 2.56585 10.7908 2.5 10.625 2.5C10.4592 2.5 10.3003 2.56585 10.1831 2.68306C10.0658 2.80027 10 2.95924 10 3.125V4.375C10 4.54076 10.0658 4.69973 10.1831 4.81694C10.3003 4.93415 10.4592 5 10.625 5Z" fill="#7210FF"/>
<path opacity="0.1" d="M13.125 5C13.2908 5 13.4497 4.93415 13.5669 4.81694C13.6842 4.69973 13.75 4.54076 13.75 4.375V3.125C13.75 2.95924 13.6842 2.80027 13.5669 2.68306C13.4497 2.56585 13.2908 2.5 13.125 2.5C12.9592 2.5 12.8003 2.56585 12.6831 2.68306C12.5658 2.80027 12.5 2.95924 12.5 3.125V4.375C12.5 4.54076 12.5658 4.69973 12.6831 4.81694C12.8003 4.93415 12.9592 5 13.125 5Z" fill="#7210FF"/>
<path d="M16.25 3.125C16.25 2.95924 16.1842 2.80027 16.0669 2.68306C15.9497 2.56585 15.7908 2.5 15.625 2.5C15.4592 2.5 15.3003 2.56585 15.1831 2.68306C15.0658 2.80027 15 2.95924 15 3.125V4.375C15 4.54076 15.0658 4.69973 15.1831 4.81694C15.3003 4.93415 15.4592 5 15.625 5C15.7908 5 15.9497 4.93415 16.0669 4.81694C16.1842 4.69973 16.25 4.54076 16.25 4.375V3.125Z" fill="#7210FF"/>
<path d="M18.75 3.125C18.75 2.95924 18.6842 2.80027 18.5669 2.68306C18.4497 2.56585 18.2908 2.5 18.125 2.5C17.9592 2.5 17.8003 2.56585 17.6831 2.68306C17.5658 2.80027 17.5 2.95924 17.5 3.125V4.375C17.5 4.54076 17.5658 4.69973 17.6831 4.81694C17.8003 4.93415 17.9592 5 18.125 5C18.2908 5 18.4497 4.93415 18.5669 4.81694C18.6842 4.69973 18.75 4.54076 18.75 4.375V3.125Z" fill="#7210FF"/>
<path opacity="0.1" d="M21.25 3.125C21.25 2.95924 21.1842 2.80027 21.0669 2.68306C20.9497 2.56585 20.7908 2.5 20.625 2.5C20.4592 2.5 20.3003 2.56585 20.1831 2.68306C20.0658 2.80027 20 2.95924 20 3.125V4.375C20 4.54076 20.0658 4.69973 20.1831 4.81694C20.3003 4.93415 20.4592 5 20.625 5C20.7908 5 20.9497 4.93415 21.0669 4.81694C21.1842 4.69973 21.25 4.54076 21.25 4.375V3.125Z" fill="#7210FF"/>
<path opacity="0.1" d="M23.75 3.125C23.75 2.95924 23.6842 2.80027 23.5669 2.68306C23.4497 2.56585 23.2908 2.5 23.125 2.5C22.9592 2.5 22.8003 2.56585 22.6831 2.68306C22.5658 2.80027 22.5 2.95924 22.5 3.125V4.375C22.5 4.54076 22.5658 4.69973 22.6831 4.81694C22.8003 4.93415 22.9592 5 23.125 5C23.2908 5 23.4497 4.93415 23.5669 4.81694C23.6842 4.69973 23.75 4.54076 23.75 4.375V3.125Z" fill="#7210FF"/>
<path opacity="0.1" d="M10.625 8.75C10.7908 8.75 10.9497 8.68415 11.0669 8.56694C11.1842 8.44973 11.25 8.29076 11.25 8.125V6.875C11.25 6.70924 11.1842 6.55027 11.0669 6.43306C10.9497 6.31585 10.7908 6.25 10.625 6.25C10.4592 6.25 10.3003 6.31585 10.1831 6.43306C10.0658 6.55027 10 6.70924 10 6.875V8.125C10 8.29076 10.0658 8.44973 10.1831 8.56694C10.3003 8.68415 10.4592 8.75 10.625 8.75Z" fill="#7210FF"/>
<path opacity="0.1" d="M13.125 8.75C13.2908 8.75 13.4497 8.68415 13.5669 8.56694C13.6842 8.44973 13.75 8.29076 13.75 8.125V6.875C13.75 6.70924 13.6842 6.55027 13.5669 6.43306C13.4497 6.31585 13.2908 6.25 13.125 6.25C12.9592 6.25 12.8003 6.31585 12.6831 6.43306C12.5658 6.55027 12.5 6.70924 12.5 6.875V8.125C12.5 8.29076 12.5658 8.44973 12.6831 8.56694C12.8003 8.68415 12.9592 8.75 13.125 8.75Z" fill="#7210FF"/>
<path opacity="0.1" d="M15.625 6.25C15.4592 6.25 15.3003 6.31585 15.1831 6.43306C15.0658 6.55027 15 6.70924 15 6.875V8.125C15 8.29076 15.0658 8.44973 15.1831 8.56694C15.3003 8.68415 15.4592 8.75 15.625 8.75C15.7908 8.75 15.9497 8.68415 16.0669 8.56694C16.1842 8.44973 16.25 8.29076 16.25 8.125V6.875C16.25 6.70924 16.1842 6.55027 16.0669 6.43306C15.9497 6.31585 15.7908 6.25 15.625 6.25Z" fill="#7210FF"/>
<path opacity="0.1" d="M18.75 6.875C18.75 6.70924 18.6842 6.55027 18.5669 6.43306C18.4497 6.31585 18.2908 6.25 18.125 6.25C17.9592 6.25 17.8003 6.31585 17.6831 6.43306C17.5658 6.55027 17.5 6.70924 17.5 6.875V8.125C17.5 8.29076 17.5658 8.44973 17.6831 8.56694C17.8003 8.68415 17.9592 8.75 18.125 8.75C18.2908 8.75 18.4497 8.68415 18.5669 8.56694C18.6842 8.44973 18.75 8.29076 18.75 8.125V6.875Z" fill="#7210FF"/>
<path opacity="0.1" d="M21.25 6.875C21.25 6.70924 21.1842 6.55027 21.0669 6.43306C20.9497 6.31585 20.7908 6.25 20.625 6.25C20.4592 6.25 20.3003 6.31585 20.1831 6.43306C20.0658 6.55027 20 6.70924 20 6.875V8.125C20 8.29076 20.0658 8.44973 20.1831 8.56694C20.3003 8.68415 20.4592 8.75 20.625 8.75C20.7908 8.75 20.9497 8.68415 21.0669 8.56694C21.1842 8.44973 21.25 8.29076 21.25 8.125V6.875Z" fill="#7210FF"/>
<path opacity="0.1" d="M23.75 6.875C23.75 6.70924 23.6842 6.55027 23.5669 6.43306C23.4497 6.31585 23.2908 6.25 23.125 6.25C22.9592 6.25 22.8003 6.31585 22.6831 6.43306C22.5658 6.55027 22.5 6.70924 22.5 6.875V8.125C22.5 8.29076 22.5658 8.44973 22.6831 8.56694C22.8003 8.68415 22.9592 8.75 23.125 8.75C23.2908 8.75 23.4497 8.68415 23.5669 8.56694C23.6842 8.44973 23.75 8.29076 23.75 8.125V6.875Z" fill="#7210FF"/>
<path opacity="0.1" d="M18.125 13.75C17.9592 13.75 17.8003 13.8158 17.6831 13.9331C17.5658 14.0503 17.5 14.2092 17.5 14.375V20.625C17.5 20.7908 17.5658 20.9497 17.6831 21.0669C17.8003 21.1842 17.9592 21.25 18.125 21.25C18.2908 21.25 18.4497 21.1842 18.5669 21.0669C18.6842 20.9497 18.75 20.7908 18.75 20.625V14.375C18.75 14.2092 18.6842 14.0503 18.5669 13.9331C18.4497 13.8158 18.2908 13.75 18.125 13.75Z" fill="#7210FF"/>
<path opacity="0.1" d="M20.625 13.75C20.4592 13.75 20.3003 13.8158 20.1831 13.9331C20.0658 14.0503 20 14.2092 20 14.375V20.625C20 20.7908 20.0658 20.9497 20.1831 21.0669C20.3003 21.1842 20.4592 21.25 20.625 21.25C20.7908 21.25 20.9497 21.1842 21.0669 21.0669C21.1842 20.9497 21.25 20.7908 21.25 20.625V14.375C21.25 14.2092 21.1842 14.0503 21.0669 13.9331C20.9497 13.8158 20.7908 13.75 20.625 13.75Z" fill="#7210FF"/>
<path opacity="0.1" d="M23.125 13.75C22.9592 13.75 22.8003 13.8158 22.6831 13.9331C22.5658 14.0503 22.5 14.2092 22.5 14.375V20.625C22.5 20.7908 22.5658 20.9497 22.6831 21.0669C22.8003 21.1842 22.9592 21.25 23.125 21.25C23.2908 21.25 23.4497 21.1842 23.5669 21.0669C23.6842 20.9497 23.75 20.7908 23.75 20.625V14.375C23.75 14.2092 23.6842 14.0503 23.5669 13.9331C23.4497 13.8158 23.2908 13.75 23.125 13.75Z" fill="#7210FF"/>
<path opacity="0.1" d="M21.25 10.625C21.25 10.4592 21.1842 10.3003 21.0669 10.1831C20.9497 10.0658 20.7908 10 20.625 10C20.4592 10 20.3003 10.0658 20.1831 10.1831C20.0658 10.3003 20 10.4592 20 10.625V11.875C20 12.0408 20.0658 12.1997 20.1831 12.3169C20.3003 12.4342 20.4592 12.5 20.625 12.5C20.7908 12.5 20.9497 12.4342 21.0669 12.3169C21.1842 12.1997 21.25 12.0408 21.25 11.875V10.625Z" fill="#7210FF"/>
<path opacity="0.1" d="M23.75 10.625C23.75 10.4592 23.6842 10.3003 23.5669 10.1831C23.4497 10.0658 23.2908 10 23.125 10C22.9592 10 22.8003 10.0658 22.6831 10.1831C22.5658 10.3003 22.5 10.4592 22.5 10.625V11.875C22.5 12.0408 22.5658 12.1997 22.6831 12.3169C22.8003 12.4342 22.9592 12.5 23.125 12.5C23.2908 12.5 23.4497 12.4342 23.5669 12.3169C23.6842 12.1997 23.75 12.0408 23.75 11.875V10.625Z" fill="#7210FF"/>
<path opacity="0.1" d="M28.125 11.25H34.375C34.5408 11.25 34.6997 11.1842 34.8169 11.0669C34.9342 10.9497 35 10.7908 35 10.625C35 10.4592 34.9342 10.3003 34.8169 10.1831C34.6997 10.0658 34.5408 10 34.375 10H28.125C27.9592 10 27.8003 10.0658 27.6831 10.1831C27.5658 10.3003 27.5 10.4592 27.5 10.625C27.5 10.7908 27.5658 10.9497 27.6831 11.0669C27.8003 11.1842 27.9592 11.25 28.125 11.25Z" fill="#7210FF"/>
<path opacity="0.1" d="M28.125 13.75H34.375C34.5408 13.75 34.6997 13.6842 34.8169 13.5669C34.9342 13.4497 35 13.2908 35 13.125C35 12.9592 34.9342 12.8003 34.8169 12.6831C34.6997 12.5658 34.5408 12.5 34.375 12.5H28.125C27.9592 12.5 27.8003 12.5658 27.6831 12.6831C27.5658 12.8003 27.5 12.9592 27.5 13.125C27.5 13.2908 27.5658 13.4497 27.6831 13.5669C27.8003 13.6842 27.9592 13.75 28.125 13.75Z" fill="#7210FF"/>
<path opacity="0.1" d="M28.125 16.25H34.375C34.5408 16.25 34.6997 16.1842 34.8169 16.0669C34.9342 15.9497 35 15.7908 35 15.625C35 15.4592 34.9342 15.3003 34.8169 15.1831C34.6997 15.0658 34.5408 15 34.375 15H28.125C27.9592 15 27.8003 15.0658 27.6831 15.1831C27.5658 15.3003 27.5 15.4592 27.5 15.625C27.5 15.7908 27.5658 15.9497 27.6831 16.0669C27.8003 16.1842 27.9592 16.25 28.125 16.25Z" fill="#7210FF"/>
<path opacity="0.1" d="M28.125 18.75H34.375C34.5408 18.75 34.6997 18.6842 34.8169 18.5669C34.9342 18.4497 35 18.2908 35 18.125C35 17.9592 34.9342 17.8003 34.8169 17.6831C34.6997 17.5658 34.5408 17.5 34.375 17.5H28.125C27.9592 17.5 27.8003 17.5658 27.6831 17.6831C27.5658 17.8003 27.5 17.9592 27.5 18.125C27.5 18.2908 27.5658 18.4497 27.6831 18.5669C27.8003 18.6842 27.9592 18.75 28.125 18.75Z" fill="#7210FF"/>
</g>
<defs>
<clipPath id="clip0_2346_3559">
<rect width="40" height="40" fill="white"/>
</clipPath>
</defs>
</svg>
