<svg width="40" height="40" viewBox="0 0 40 40" fill="none" xmlns="http://www.w3.org/2000/svg">
<path opacity="0.1" d="M30.9684 26.7947C-0.676396 26.7906 5.82112 26.7914 4.92016 26.7914L14.5858 12.9642L20.8964 21.9917L24.255 17.1887L30.9684 26.7947Z" fill="#7210FF"/>
<path opacity="0.1" d="M22.5917 12.353C22.5917 13.0216 22.0492 13.5672 21.3805 13.5672C20.709 13.5672 20.1664 13.0217 20.1664 12.353C20.1664 11.6815 20.709 11.1389 21.3805 11.1389C22.0492 11.139 22.5917 11.6815 22.5917 12.353Z" fill="#7210FF"/>
<path d="M1.97093 15.499C2.18296 15.499 2.35453 15.3272 2.35453 15.1154V13.8342C2.35453 13.6224 2.18296 13.4506 1.97093 13.4506C1.7589 13.4506 1.58734 13.6224 1.58734 13.8342V15.1154C1.58734 15.3272 1.7589 15.499 1.97093 15.499Z" fill="#7210FF"/>
<path opacity="0.1" d="M3.81218 30.1298H23.3342C23.5462 30.1298 23.7178 29.958 23.7178 29.7463C23.7178 29.5345 23.5462 29.3627 23.3342 29.3627H3.81218C3.00828 29.3627 2.35453 28.7071 2.35453 27.9011V16.6575C2.35453 16.4456 2.18296 16.2739 1.97093 16.2739C1.7589 16.2739 1.58734 16.4457 1.58734 16.6575V27.9011C1.58734 29.13 2.58531 30.1298 3.81218 30.1298Z" fill="#7210FF"/>
<path opacity="0.1" d="M1.97093 10.8573C2.18296 10.8573 2.35453 10.6855 2.35453 10.4737V6.48023C2.35453 5.6765 3.0082 5.02258 3.81218 5.02258H32.0767C32.8806 5.02258 33.5344 5.6765 33.5344 6.48023V20.9961C33.5344 21.208 33.7059 21.3797 33.918 21.3797C34.13 21.3797 34.3015 21.2079 34.3015 20.9961V6.48023C34.3015 5.25335 33.3036 4.25539 32.0767 4.25539H3.81218C2.58531 4.25539 1.58734 5.25335 1.58734 6.48023V10.4737C1.58734 10.6855 1.7589 10.8573 1.97093 10.8573Z" fill="#7210FF"/>
<path d="M30.9679 20.9998C31.1799 20.9998 31.3514 20.828 31.3514 20.6163V7.58892C31.3514 7.37704 31.1799 7.20531 30.9679 7.20531H4.92105C4.70901 7.20531 4.53748 7.37711 4.53748 7.58892V26.7961C4.53748 27.0053 4.72998 27.1797 4.92105 27.1797H23.5069C23.6976 27.1797 23.8485 27.0383 23.8784 26.8563C23.8818 26.836 23.8906 26.8176 23.8906 26.7963C23.8906 26.6373 23.7941 26.5008 23.6564 26.4427C23.6104 26.4233 23.56 26.4125 23.507 26.4125C11.4526 26.4095 7.14074 26.4089 5.65725 26.4088L14.584 13.633L20.4286 21.9913L18.9198 24.1489C18.7984 24.3226 18.8407 24.5617 19.0142 24.6831C19.1895 24.8055 19.428 24.7608 19.5484 24.5888C21.5631 21.7077 20.8719 22.6962 24.2554 17.8577L27.0749 21.891C27.1963 22.0644 27.4353 22.1073 27.6091 21.9857C27.7826 21.8643 27.8249 21.6252 27.7035 21.4515L24.569 16.9671C24.4297 16.7663 24.0894 16.754 23.9401 16.9671L22.57 18.9292L20.8966 21.322L14.8982 12.7435C14.7547 12.5378 14.4124 12.5388 14.2697 12.7437L5.30467 25.5738V7.9725H30.5842V20.6163C30.5842 20.8281 30.7558 20.9998 30.9679 20.9998Z" fill="#7210FF"/>
<path d="M22.9754 12.3531C22.9754 11.4722 22.2599 10.7554 21.3806 10.7554C20.4996 10.7554 19.7829 11.4722 19.7829 12.3531C19.7829 13.2341 20.4996 13.9508 21.3806 13.9508C22.2599 13.9508 22.9754 13.2341 22.9754 12.3531ZM21.3806 13.1837C20.9228 13.1837 20.5501 12.8111 20.5501 12.3531C20.5501 11.8952 20.9228 11.5226 21.3806 11.5226C21.8369 11.5226 22.2081 11.8952 22.2081 12.3531C22.2081 12.8111 21.8369 13.1837 21.3806 13.1837Z" fill="#7210FF"/>
<path opacity="0.1" d="M21.7627 10.0861V9.63039C21.7627 9.41854 21.5912 9.24681 21.3791 9.24681C21.1671 9.24681 20.9955 9.41862 20.9955 9.63039V10.0861C20.9955 10.298 21.1671 10.4697 21.3791 10.4697C21.5912 10.4697 21.7627 10.298 21.7627 10.0861Z" fill="#7210FF"/>
<path opacity="0.1" d="M20.9955 14.6202V15.0757C20.9955 15.2876 21.1671 15.4593 21.3791 15.4593C21.5912 15.4593 21.7627 15.2875 21.7627 15.0757V14.6202C21.7627 14.4083 21.5912 14.2366 21.3791 14.2366C21.1671 14.2366 20.9955 14.4083 20.9955 14.6202Z" fill="#7210FF"/>
<path opacity="0.1" d="M23.2533 11.0213L23.5755 10.6992C23.7254 10.5493 23.7254 10.3066 23.5755 10.1567C23.4257 10.0069 23.1829 10.0069 23.0331 10.1567L22.7109 10.4789C22.561 10.6288 22.561 10.8715 22.7109 11.0213C22.8607 11.1712 23.1035 11.1712 23.2533 11.0213Z" fill="#7210FF"/>
<path opacity="0.1" d="M19.7252 14.5495L20.0474 14.2273C20.1972 14.0775 20.1972 13.8348 20.0474 13.6849C19.8976 13.5351 19.6548 13.5351 19.505 13.6849L19.1828 14.0071C19.033 14.157 19.033 14.3997 19.1828 14.5495C19.3326 14.6994 19.5754 14.6994 19.7252 14.5495Z" fill="#7210FF"/>
<path opacity="0.1" d="M24.4854 12.3531C24.4854 12.1413 24.3139 11.9695 24.1018 11.9695H23.6459C23.4339 11.9695 23.2623 12.1414 23.2623 12.3531C23.2623 12.565 23.4339 12.7367 23.6459 12.7367H24.1018C24.3139 12.7367 24.4854 12.565 24.4854 12.3531Z" fill="#7210FF"/>
<path opacity="0.1" d="M18.2728 12.3531C18.2728 12.565 18.4444 12.7367 18.6564 12.7367H19.1119C19.324 12.7367 19.4956 12.5649 19.4956 12.3531C19.4956 12.1413 19.324 11.9695 19.1119 11.9695H18.6564C18.4444 11.9695 18.2728 12.1413 18.2728 12.3531Z" fill="#7210FF"/>
<path opacity="0.1" d="M23.0331 14.5495C23.1829 14.6994 23.4257 14.6994 23.5755 14.5495C23.7254 14.3997 23.7254 14.157 23.5755 14.0071L23.2533 13.6849C23.1035 13.5351 22.8607 13.5351 22.7109 13.6849C22.561 13.8348 22.561 14.0775 22.7109 14.2273L23.0331 14.5495Z" fill="#7210FF"/>
<path opacity="0.1" d="M19.505 11.0214C19.655 11.1709 19.8975 11.171 20.0474 11.0212C20.1972 10.8714 20.1972 10.6284 20.0474 10.4785L19.7252 10.1566C19.5753 10.0071 19.3326 10.0069 19.1828 10.1567C19.0329 10.3066 19.0329 10.5495 19.1828 10.6994L19.505 11.0214Z" fill="#7210FF"/>
<path opacity="0.1" d="M24.4207 28.7473C24.4207 32.6057 27.5585 35.7446 31.4156 35.7446C35.2738 35.7446 38.4127 32.6057 38.4127 28.7473C38.4127 24.8905 35.2738 21.7527 31.4156 21.7527C27.5584 21.7527 24.4207 24.8905 24.4207 28.7473ZM37.6454 28.7473C37.6454 32.1826 34.8508 34.9774 31.4155 34.9774C27.9813 34.9774 25.1878 32.1826 25.1878 28.7473C25.1878 25.3136 27.9813 22.5199 31.4155 22.5199C34.8508 22.5198 37.6454 25.3136 37.6454 28.7473Z" fill="#7210FF"/>
<path d="M29.865 26.6547C29.7152 26.5049 29.4724 26.5049 29.3226 26.6547C29.1727 26.8045 29.1727 27.0473 29.3226 27.1971L30.8741 28.7486L29.3226 30.3001C29.1727 30.4499 29.1727 30.6927 29.3226 30.8425C29.4724 30.9924 29.7152 30.9924 29.865 30.8425L31.4165 29.291L32.968 30.8425C33.1178 30.9924 33.3606 30.9924 33.5104 30.8425C33.6602 30.6927 33.6602 30.4499 33.5104 30.3001L31.9589 28.7486L33.5104 27.1971C33.6602 27.0473 33.6602 26.8045 33.5104 26.6547C33.3606 26.5049 33.1178 26.5049 32.968 26.6547L31.4165 28.2062L29.865 26.6547Z" fill="#7210FF"/>
</svg>
