<svg width="40" height="40" viewBox="0 0 40 40" fill="none" xmlns="http://www.w3.org/2000/svg">
<g clip-path="url(#clip0_2346_3609)">
<path d="M27.7734 15.273C27.7734 15.5966 28.0357 15.859 28.3594 15.859H32.2944C32.618 15.859 32.8803 15.5966 32.8803 15.273C32.8803 14.9495 32.618 14.6871 32.2944 14.6871H28.3594C28.0357 14.6871 27.7734 14.9495 27.7734 15.273Z" fill="#7210FF"/>
<path d="M30.9375 24.0621C30.6138 24.0621 30.3516 24.3245 30.3516 24.648C30.3516 24.9716 30.6138 25.234 30.9375 25.234H34.8438C35.1674 25.234 35.4297 24.9716 35.4297 24.648C35.4297 24.3245 35.1674 24.0621 34.8438 24.0621H30.9375Z" fill="#7210FF"/>
<path d="M16.5234 30.7031C17.5078 30.7031 18.4629 30.5083 19.3623 30.1239C19.6598 29.9968 19.798 29.6524 19.6708 29.3548C19.5437 29.0573 19.1994 28.919 18.9017 29.0462C18.1488 29.3681 17.3486 29.5312 16.5234 29.5312C13.1849 29.5312 10.4688 26.8151 10.4688 23.4766C10.4688 20.138 13.1849 17.4219 16.5234 17.4219C19.862 17.4219 22.5781 20.138 22.5781 23.4766C22.5781 25.0206 21.9974 26.4899 20.943 27.6139C20.7216 27.8499 20.7334 28.2207 20.9694 28.4421C21.2055 28.6635 21.5763 28.6517 21.7977 28.4157C23.0566 27.0737 23.75 25.3196 23.75 23.4766C23.75 19.4918 20.5082 16.25 16.5234 16.25C12.5387 16.25 9.29688 19.4918 9.29688 23.4766C9.29688 27.4613 12.5387 30.7031 16.5234 30.7031Z" fill="#7210FF"/>
<path d="M19.6795 20.3452C19.5545 20.2202 19.385 20.15 19.2082 20.15C19.0314 20.15 18.8619 20.2202 18.7369 20.3452L16.5415 22.5405L14.3462 20.3452C14.2205 20.2238 14.0521 20.1566 13.8773 20.1581C13.7025 20.1596 13.5353 20.2297 13.4117 20.3533C13.2881 20.4769 13.2179 20.6441 13.2164 20.8189C13.2149 20.9937 13.2821 21.1621 13.4035 21.2879L15.5989 23.4832L13.4035 25.6785C13.3399 25.74 13.2891 25.8136 13.2541 25.8949C13.2192 25.9763 13.2008 26.0637 13.2 26.1523C13.1993 26.2408 13.2161 26.3286 13.2497 26.4105C13.2832 26.4924 13.3327 26.5669 13.3953 26.6295C13.4579 26.6921 13.5323 26.7416 13.6142 26.7751C13.6962 26.8086 13.784 26.8255 13.8725 26.8247C13.961 26.8239 14.0485 26.8055 14.1298 26.7706C14.2111 26.7357 14.2847 26.6849 14.3462 26.6212L16.5415 24.4259L18.7369 26.6212C18.8626 26.7426 19.031 26.8098 19.2058 26.8083C19.3806 26.8068 19.5478 26.7367 19.6714 26.6131C19.795 26.4895 19.8651 26.3223 19.8667 26.1475C19.8682 25.9727 19.801 25.8043 19.6795 25.6785L17.4842 23.4832L19.6795 21.2879C19.8045 21.1628 19.8747 20.9933 19.8747 20.8165C19.8747 20.6397 19.8045 20.4702 19.6795 20.3452Z" fill="#7210FF"/>
<path opacity="0.1" d="M39.4141 12.1852C39.7375 12.1852 40 11.9227 40 11.5992V2.92969C40 1.31406 38.6859 0 37.0703 0H15.4297C13.8141 0 12.5 1.31406 12.5 2.92969V14.7938C9.22734 16.3164 6.95312 19.6352 6.95312 23.4766C6.95312 25.4102 7.52969 27.2109 8.52031 28.718L7.32359 29.9147C6.75969 29.7144 6.10492 29.8395 5.6543 30.2901L3.76391 32.1805C3.53508 32.4093 3.53508 32.7803 3.76391 33.0091C3.99281 33.2379 4.36375 33.2379 4.59258 33.0091L6.48289 31.1187C6.64969 30.9518 6.92141 30.9516 7.08836 31.1187L8.88102 32.9113C8.96188 32.9922 9.00641 33.0997 9.00641 33.2141C9.00641 33.3284 8.96188 33.4359 8.88094 33.5168L4.06656 38.3313C3.74625 38.6516 3.32039 38.828 2.86742 38.8282C2.86719 38.8282 2.86711 38.8282 2.86695 38.8282C2.41422 38.8282 1.98859 38.6519 1.66844 38.3318C1.34813 38.0115 1.1718 37.5855 1.1718 37.1325C1.1718 36.6794 1.3482 36.2535 1.66852 35.9331L2.65898 34.9427C2.88781 34.7138 2.88781 34.3428 2.65891 34.1141C2.43016 33.8852 2.05914 33.8852 1.83031 34.1141L0.839922 35.1045C0.298281 35.6461 0 36.3663 0 37.1324C0 37.8985 0.298281 38.6187 0.839922 39.1604C1.38141 39.7018 2.10125 40 2.86703 40H2.86773C3.63367 39.9998 4.35375 39.7014 4.89531 39.1598L9.70961 34.3455C10.0119 34.0432 10.1784 33.6414 10.1784 33.2141C10.1784 33.028 10.1468 32.8466 10.0862 32.6763L11.282 31.4805C11.6695 31.7344 12.0766 31.9617 12.5 32.1586V37.0703C12.5 38.6859 13.8141 40 15.4297 40H31.6016C31.757 40 31.9062 39.9383 32.0156 39.8281L39.8281 32.0156C39.9383 31.9062 40 31.757 40 31.6016V14.3336C40 14.0102 39.7375 13.7477 39.4141 13.7477C39.0906 13.7477 38.8281 14.0102 38.8281 14.3336V31.0156H33.9453C32.3297 31.0156 31.0156 32.3297 31.0156 33.9453V38.8281H15.4297C14.4602 38.8281 13.6719 38.0398 13.6719 37.0703V32.6125C14.5727 32.8945 15.5313 33.0469 16.5234 33.0469C20.0188 33.0469 23.0812 31.1641 24.7523 28.3594H34.8438C35.1672 28.3594 35.4297 28.0969 35.4297 27.7734C35.4297 27.45 35.1672 27.1875 34.8438 27.1875H25.3453C25.607 26.5672 25.8055 25.9133 25.932 25.2344H28.2812C28.6047 25.2344 28.8672 24.9719 28.8672 24.6484C28.8672 24.325 28.6047 24.0625 28.2812 24.0625H26.0766C26.0883 23.8687 26.0938 23.6734 26.0938 23.4766C26.0938 23.0125 26.0609 22.5562 25.9969 22.1094H34.8438C35.1672 22.1094 35.4297 21.8469 35.4297 21.5234C35.4297 21.2 35.1672 20.9375 34.8438 20.9375H25.7523C25.5641 20.2531 25.3008 19.5984 24.9727 18.9844H32.2945C32.618 18.9844 32.8805 18.7219 32.8805 18.3984C32.8805 18.075 32.618 17.8125 32.2945 17.8125H24.2336C23.6898 17.0734 23.0422 16.4156 22.3117 15.8594H25.8102C26.1336 15.8594 26.3961 15.5969 26.3961 15.2734C26.3961 14.95 26.1336 14.6875 25.8102 14.6875H20.3117C19.1492 14.1844 17.8687 13.9062 16.5234 13.9062C15.5313 13.9062 14.5727 14.0578 13.6719 14.3398V2.92969C13.6719 1.96016 14.4602 1.17188 15.4297 1.17188H37.0703C38.0398 1.17188 38.8281 1.96016 38.8281 2.92969V11.5992C38.8281 11.9227 39.0906 12.1852 39.4141 12.1852ZM32.1875 33.9453C32.1875 32.9758 32.9758 32.1875 33.9453 32.1875H37.9992L32.1875 37.9992V33.9453ZM9.36586 31.7388L8.26117 30.6341L9.22969 29.6656C9.56719 30.0625 9.9375 30.4328 10.3344 30.7703L9.36586 31.7388ZM16.5234 15.0781C21.1547 15.0781 24.9219 18.8453 24.9219 23.4766C24.9219 28.107 21.1547 31.875 16.5234 31.875C11.893 31.875 8.125 28.107 8.125 23.4766C8.125 18.8453 11.893 15.0781 16.5234 15.0781Z" fill="#7210FF"/>
<path d="M21.253 7.0975C20.9296 7.0975 20.6674 7.35954 20.6671 7.68289L20.6662 8.60852C20.6659 8.93211 20.928 9.19469 21.2516 9.195H21.2521C21.5755 9.195 21.8378 8.93297 21.8381 8.60961L21.8389 7.68399C21.8392 7.36039 21.5771 7.09782 21.2535 7.0975C21.2533 7.0975 21.2532 7.0975 21.253 7.0975Z" fill="#7210FF"/>
<path d="M31.2527 7.10945C30.9293 7.10945 30.6671 7.3714 30.6668 7.69484L30.6658 8.62039C30.6655 8.94398 30.9276 9.20656 31.2511 9.20687H31.2518C31.5751 9.20687 31.8374 8.94492 31.8377 8.62148L31.8386 7.69594C31.839 7.37234 31.5768 7.10976 31.2533 7.10945C31.2531 7.10945 31.2529 7.10945 31.2527 7.10945Z" fill="#7210FF"/>
<path d="M26.2526 8.01804C25.8847 8.02023 25.5224 8.10429 25.1978 8.26859C24.9092 8.41476 24.7935 8.76726 24.9397 9.05601C25.0859 9.34476 25.4385 9.46023 25.7271 9.31414C25.8899 9.23172 26.0658 9.19 26.25 9.19H26.2513C26.436 9.19015 26.6123 9.23234 26.7752 9.31531C26.8603 9.35867 26.9511 9.37914 27.0405 9.37914C27.2538 9.37914 27.4596 9.26211 27.5631 9.0589C27.7099 8.77054 27.5951 8.41773 27.3067 8.27093C26.9827 8.10586 26.6182 8.01843 26.2526 8.01804Z" fill="#7210FF"/>
</g>
<defs>
<clipPath id="clip0_2346_3609">
<rect width="40" height="40" fill="white"/>
</clipPath>
</defs>
</svg>
