<svg width="57" height="56" viewBox="0 0 57 56" fill="none" xmlns="http://www.w3.org/2000/svg">
<g clip-path="url(#clip0_1713_3528)">
<path d="M21.5 35C15.27 35 2.83337 38.1267 2.83337 44.3333V49H40.1667V44.3333C40.1667 38.1267 27.73 35 21.5 35ZM7.50004 44.3333C8.01337 42.6533 15.2234 39.6667 21.5 39.6667C27.8 39.6667 35.0334 42.6767 35.5 44.3333H7.50004Z" fill="#989898"/>
<path d="M11.5601 21.0002H12.1667C12.1667 26.1568 16.3434 30.3335 21.5001 30.3335C26.6567 30.3335 30.8334 26.1568 30.8334 21.0002H31.4401C32.0701 21.0002 32.5834 20.4868 32.5834 19.8568V19.8102C32.5834 19.1802 32.0701 18.6668 31.4401 18.6668H30.8334C30.8334 15.2135 28.9434 12.2502 26.1667 10.6168V12.8335C26.1667 13.4868 25.6534 14.0002 25.0001 14.0002C24.3467 14.0002 23.8334 13.4868 23.8334 12.8335V9.66016C23.0867 9.4735 22.3167 9.3335 21.5001 9.3335C20.6834 9.3335 19.9134 9.4735 19.1667 9.66016V12.8335C19.1667 13.4868 18.6534 14.0002 18.0001 14.0002C17.3467 14.0002 16.8334 13.4868 16.8334 12.8335V10.6168C14.0567 12.2502 12.1667 15.2135 12.1667 18.6668H11.5601C10.9301 18.6668 10.4167 19.1802 10.4167 19.8102V19.8802C10.4167 20.4868 10.9301 21.0002 11.5601 21.0002ZM26.1667 21.0002C26.1667 23.5668 24.0667 25.6668 21.5001 25.6668C18.9334 25.6668 16.8334 23.5668 16.8334 21.0002H26.1667Z" fill="#989898"/>
<path d="M51.7867 14.5367L53.9567 12.6L52.2067 9.56667L49.43 10.4767C49.1033 10.22 48.73 10.01 48.3333 9.84667L47.75 7H44.25L43.6667 9.84667C43.27 10.01 42.8967 10.22 42.5467 10.4767L39.7933 9.56667L38.0433 12.6L40.2133 14.5367C40.1667 14.9333 40.1667 15.3533 40.2133 15.75L38.0433 17.7333L39.7933 20.7667L42.5933 19.88C42.8967 20.1133 43.2467 20.3 43.5967 20.4633L44.25 23.3333H47.75L48.38 20.4867C48.7533 20.3233 49.08 20.1367 49.4067 19.9033L52.1833 20.79L53.9333 17.7567L51.7633 15.7733C51.8333 15.33 51.81 14.9333 51.7867 14.5367ZM46 18.0833C44.39 18.0833 43.0833 16.7767 43.0833 15.1667C43.0833 13.5567 44.39 12.25 46 12.25C47.61 12.25 48.9167 13.5567 48.9167 15.1667C48.9167 16.7767 47.61 18.0833 46 18.0833Z" fill="#7210FF"/>
<path d="M45.7667 25.1768L43.7833 25.8302C43.55 25.6435 43.2933 25.5035 43.0133 25.3868L42.5933 23.3335H40.0967L39.6767 25.3635C39.3967 25.4802 39.1167 25.6435 38.8833 25.8068L36.9233 25.1535L35.6633 27.3235L37.2033 28.7002C37.18 29.0035 37.18 29.2835 37.2033 29.5635L35.6633 30.9868L36.9233 33.1568L38.93 32.5268C39.1633 32.6902 39.3967 32.8302 39.6533 32.9468L40.0733 35.0002H42.57L43.0133 32.9702C43.27 32.8535 43.5267 32.7135 43.76 32.5502L45.7433 33.1802L47.0033 31.0102L45.4633 29.5868C45.4867 29.2835 45.4867 29.0035 45.4633 28.7235L47.0033 27.3468L45.7667 25.1768ZM41.3333 31.2435C40.19 31.2435 39.2567 30.3102 39.2567 29.1668C39.2567 28.0235 40.19 27.0902 41.3333 27.0902C42.4767 27.0902 43.41 28.0235 43.41 29.1668C43.41 30.3102 42.4767 31.2435 41.3333 31.2435Z" fill="#989898"/>
</g>
<defs>
<clipPath id="clip0_1713_3528">
<rect width="56" height="56" fill="white" transform="translate(0.5)"/>
</clipPath>
</defs>
</svg>
