<svg width="120" height="120" viewBox="0 0 120 120" fill="none" xmlns="http://www.w3.org/2000/svg">
    <g clip-path="url(#bdqm56w81a)">
        <path d="m45.386 24.404-.102.076a4.314 4.314 0 0 0-.619 6.313l7.489 8.387c-.002.017-.005.034-.006.052L49.14 50.891a4.443 4.443 0 0 0 .79 3.859 4.292 4.292 0 0 0 7.284-.775L60 48.243l2.786 5.731a4.292 4.292 0 0 0 7.284.776 4.444 4.444 0 0 0 .79-3.86l-3.009-11.654c0-.02-.004-.038-.005-.057l7.479-8.377a4.312 4.312 0 0 0-.61-6.32 4.098 4.098 0 0 0-5.422.406l-4.025 4.045a1.43 1.43 0 0 0 1.015 2.437 1.428 1.428 0 0 0 1.01-.421l4.03-4.05a1.264 1.264 0 0 1 1.675-.133 1.439 1.439 0 0 1 .573 1.163c.001.355-.13.698-.369.96l-7.946 8.9c-.019.021-.032.046-.05.068H54.793c-.018-.022-.032-.047-.051-.068l-7.95-8.904a1.458 1.458 0 0 1 .209-2.12l.1-.075a1.279 1.279 0 0 1 1.632.07l4.743 4.245a1.43 1.43 0 0 0 1.905-2.129l-4.742-4.245a4.16 4.16 0 0 0-5.253-.227zm19.897 16.31 2.811 10.891A1.606 1.606 0 0 1 67.813 53a1.433 1.433 0 0 1-1.143.572 1.462 1.462 0 0 1-1.313-.848l-4.072-8.372a1.429 1.429 0 0 0-2.57 0l-4.071 8.373a1.463 1.463 0 0 1-1.314.847A1.43 1.43 0 0 1 52.188 53a1.603 1.603 0 0 1-.282-1.395l2.81-10.89h10.567z" fill="#989898"/>
        <path d="M60 29.286a5.721 5.721 0 0 0 5.714-5.714v-1.429a5.714 5.714 0 1 0-11.428 0v1.429A5.72 5.72 0 0 0 60 29.286zm-2.857-7.143a2.857 2.857 0 1 1 5.714 0v1.429a2.857 2.857 0 0 1-5.714 0v-1.429zM53.57 65.714v1.429a6.429 6.429 0 1 0 12.857 0v-1.429a6.429 6.429 0 0 0-12.857 0zm10 0v1.429a3.571 3.571 0 0 1-7.143 0v-1.429a3.571 3.571 0 0 1 7.143 0zm15-30.714a1.429 1.429 0 0 0-1.428 1.429v11.428a1.428 1.428 0 1 0 2.857 0V36.43A1.429 1.429 0 0 0 78.57 35z" fill="#7210FF"/>
        <path d="M84.285 40.714a1.428 1.428 0 0 0-1.428 1.429v5.714a1.428 1.428 0 1 0 2.857 0v-5.714a1.429 1.429 0 0 0-1.428-1.429z" fill="#989898"/>
        <path d="M41.429 49.286a1.429 1.429 0 0 0 1.428-1.429V36.43a1.429 1.429 0 1 0-2.857 0v11.428a1.429 1.429 0 0 0 1.429 1.429z" fill="#7210FF"/>
        <path d="M35.714 40.714a1.429 1.429 0 0 0-1.428 1.429v5.714a1.428 1.428 0 1 0 2.857 0v-5.714a1.429 1.429 0 0 0-1.429-1.429zm50.715-35a2.143 2.143 0 1 0 0-4.285 2.143 2.143 0 0 0 0 4.285zm0-3.214a1.071 1.071 0 1 1 0 2.143 1.071 1.071 0 0 1 0-2.143zM32.857 27.143a1.428 1.428 0 1 0 0 2.856 1.428 1.428 0 0 0 0-2.856zm0 2.143a.714.714 0 1 1 0-1.429.714.714 0 0 1 0 1.429zm2.143-25a1.429 1.429 0 1 0 0 2.858 1.429 1.429 0 0 0 0-2.858zm0 2.143A.714.714 0 1 1 35 5a.714.714 0 0 1 0 1.428zm78.571 32.857a1.428 1.428 0 1 0 0 2.855 1.428 1.428 0 0 0 0-2.855zm0 2.143a.711.711 0 0 1-.659-.441.709.709 0 0 1 .52-.974.716.716 0 0 1 .854.7.714.714 0 0 1-.715.715zM7.857 10A1.429 1.429 0 1 0 5 10a1.429 1.429 0 0 0 2.857 0zm-2.143 0a.714.714 0 1 1 1.429 0 .714.714 0 0 1-1.429 0z" fill="#989898"/>
        <path d="m61.725 7.104 1.062-1.397-.67-.38-.682 1.564h-.023l-.692-1.553-.683.392 1.051 1.363v.022l-1.643-.212v.76l1.654-.213v.023l-1.062 1.363.637.403.727-1.576h.022l.67 1.565.705-.403-1.073-1.34v-.023l1.687.2v-.76l-1.687.224v-.022zM8.698 39.395l-.611.785.367.232.418-.908h.012l.387.902.406-.233-.618-.772v-.013l.971.116v-.437l-.971.129v-.013l.611-.804-.386-.22-.392.9h-.013l-.4-.893-.392.225.605.785v.013l-.947-.122v.437l.953-.122v.013zM94.286 21.938v-.745l-1.655.219v-.022l1.042-1.37-.658-.373-.668 1.534h-.023l-.68-1.523-.669.384 1.031 1.337v.022l-1.612-.208v.745l1.623-.208v.022l-1.042 1.337.625.395.713-1.546h.022l.657 1.535.691-.395-1.052-1.315v-.023l1.655.198zM112.459 3.99l.899-1.182-.568-.322-.577 1.324h-.019l-.586-1.314-.577.331.889 1.154v.018l-1.39-.18v.644l1.4-.18v.019l-.899 1.154.539.34.615-1.333h.018l.568 1.323.596-.34-.908-1.135v-.019l1.428.17V3.82l-1.428.188V3.99z" fill="#7210FF"/>
        <path d="M1.429 108.571a1.428 1.428 0 1 0 0-2.856 1.428 1.428 0 0 0 0 2.856zM7.857 105.714H5.714a1.429 1.429 0 0 0 0 2.857h2.143a1.428 1.428 0 1 0 0-2.857zm106.429 0h-2.143a1.428 1.428 0 0 0 0 2.857h2.143a1.427 1.427 0 1 0 0-2.857zM118.572 108.571a1.428 1.428 0 1 0 0-2.855 1.428 1.428 0 0 0 0 2.855z" fill="#989898"/>
        <path d="M84.396 111.429h-5.934a1.434 1.434 0 0 0 0 2.857h5.934a1.434 1.434 0 0 0 0-2.857zm-42.858 0h-5.934a1.428 1.428 0 0 0-1.318 1.428 1.43 1.43 0 0 0 1.318 1.429h5.934a1.433 1.433 0 0 0 0-2.857zm32.748 0H45.714a1.428 1.428 0 1 0 0 2.857H57.1v1.428h-5.672a1.429 1.429 0 0 0 0 2.858h17.858a1.429 1.429 0 0 0 0-2.858H62.9v-1.428h11.386a1.429 1.429 0 0 0 0-2.857z" fill="#7210FF"/>
        <path d="M107.658 105.714H67.936l1.152-11.526a1.425 1.425 0 0 0 .92-1.33l-.005-12.108 8.569-7.573A4.216 4.216 0 0 0 80 69.992a4.27 4.27 0 0 0-1.919-3.569 4.35 4.35 0 0 0-5.174.319l-8.606 7.312a1.429 1.429 0 0 0 1.85 2.178l8.609-7.315a1.472 1.472 0 0 1 1.75-.108 1.394 1.394 0 0 1 .633 1.183 1.374 1.374 0 0 1-.469 1.049l-8.563 7.569a2.84 2.84 0 0 0-.961 2.128v10.69H52.138V80.704a2.857 2.857 0 0 0-.875-2.05l-7.929-7.608a1.411 1.411 0 0 1 .154-2.233c.24-.158.522-.242.81-.24.347-.004.684.12.947.346l8.606 7.313a1.429 1.429 0 0 0 1.85-2.178l-8.6-7.307a4.414 4.414 0 0 0-5.188-.319 4.268 4.268 0 0 0-.52 6.714l7.888 7.562v12.153a1.428 1.428 0 0 0 1.428 1.429h.212l1.143 11.428H12.342a1.45 1.45 0 0 0-1.5.835 1.437 1.437 0 0 0 .363 1.677 1.434 1.434 0 0 0 1.137.345h95.316a1.428 1.428 0 0 0 1.137-.345 1.454 1.454 0 0 0 .49-1.083 1.43 1.43 0 0 0-.49-1.083 1.45 1.45 0 0 0-1.137-.346zM66.207 94.286l-1.143 11.428h-3.636V94.286h4.779zm-12.414 0h4.778v11.428h-3.635l-1.143-11.428z" fill="#989898"/>
    </g>
    <defs>
        <clipPath id="bdqm56w81a">
            <path fill="#fff" d="M0 0h120v120H0z"/>
        </clipPath>
    </defs>
</svg>
