<svg width="40" height="40" viewBox="0 0 40 40" fill="none" xmlns="http://www.w3.org/2000/svg">
<path opacity="0.1" d="M36.7188 20.9109C36.7049 20.6693 36.6403 20.4334 36.5291 20.2184C36.4179 20.0035 36.2626 19.8144 36.0735 19.6634L26.245 11.8381C26.6494 10.819 26.7983 9.7164 26.6786 8.62653C26.559 7.53666 26.1744 6.49264 25.5584 5.58557C24.9425 4.6785 24.114 3.93595 23.1451 3.42271C22.1762 2.90947 21.0964 2.64114 20 2.64114C18.9036 2.64114 17.8238 2.90947 16.855 3.42271C15.8861 3.93595 15.0575 4.6785 14.4416 5.58557C13.8257 6.49264 13.4411 7.53666 13.3214 8.62653C13.2017 9.7164 13.3506 10.819 13.755 11.8381L3.92783 19.6634C3.73851 19.8142 3.58317 20.0033 3.47198 20.2182C3.36078 20.4332 3.29624 20.6692 3.28259 20.9109C3.26893 21.1525 3.30646 21.3943 3.39272 21.6205C3.47898 21.8466 3.61202 22.052 3.78315 22.2231L3.88158 22.3216C4.17956 22.6193 4.57651 22.7973 4.99706 22.8216C5.41761 22.846 5.83246 22.7151 6.16283 22.4537L7.34283 21.5194V35.625C7.34341 36.0807 7.52468 36.5175 7.84688 36.8397C8.16909 37.1619 8.60592 37.3432 9.06158 37.3437H30.9375C31.3932 37.3432 31.83 37.1619 32.1522 36.8397C32.4744 36.5175 32.6557 36.0807 32.6563 35.625V21.5197L33.836 22.4537C34.1663 22.7151 34.5812 22.846 35.0017 22.8216C35.4223 22.7973 35.8192 22.6193 36.1172 22.3216L36.2156 22.2231C36.3871 22.0521 36.5206 21.8468 36.6073 21.6207C36.694 21.3946 36.732 21.1527 36.7188 20.9109ZM20 3.59374C21.1434 3.59374 22.2612 3.9328 23.2119 4.56806C24.1626 5.20331 24.9036 6.10622 25.3412 7.1626C25.7788 8.21899 25.8933 9.3814 25.6702 10.5029C25.4471 11.6243 24.8965 12.6544 24.088 13.463C23.2795 14.2715 22.2493 14.8221 21.1279 15.0452C20.0064 15.2682 18.844 15.1537 17.7876 14.7162C16.7312 14.2786 15.8283 13.5376 15.1931 12.5869C14.5578 11.6362 14.2188 10.5184 14.2188 9.37499C14.2205 7.84224 14.8302 6.37277 15.914 5.28895C16.9978 4.20513 18.4673 3.59548 20 3.59374ZM35.5538 21.5603L35.4556 21.6587C35.3202 21.7942 35.1396 21.8752 34.9483 21.8863C34.757 21.8973 34.5683 21.8377 34.4181 21.7187L25.6035 14.7403C25.5059 14.6647 25.3824 14.6307 25.2598 14.6456C25.1373 14.6606 25.0256 14.7232 24.949 14.82C24.8724 14.9168 24.837 15.0399 24.8506 15.1626C24.8642 15.2853 24.9256 15.3976 25.0216 15.4753L31.7188 20.7772V35.625C31.7188 35.8322 31.6365 36.0309 31.4899 36.1774C31.3434 36.3239 31.1447 36.4062 30.9375 36.4062H9.06252C8.85532 36.4062 8.65661 36.3239 8.51009 36.1774C8.36358 36.0309 8.28127 35.8322 8.28127 35.625V20.7772L14.9785 15.4753C15.0744 15.3976 15.1359 15.2853 15.1494 15.1626C15.163 15.0399 15.1277 14.9168 15.0511 14.82C14.9744 14.7232 14.8627 14.6606 14.7402 14.6456C14.6177 14.6307 14.4942 14.6647 14.3966 14.7403L5.58158 21.7187C5.4314 21.8376 5.24279 21.8972 5.05157 21.8861C4.86036 21.8751 4.67986 21.7941 4.5444 21.6587L4.44627 21.5603C4.36854 21.4825 4.30811 21.3892 4.26892 21.2865C4.22974 21.1837 4.21269 21.0739 4.21888 20.9641C4.22508 20.8543 4.25438 20.747 4.30487 20.6493C4.35536 20.5517 4.42591 20.4657 4.5119 20.3972L14.1722 12.7047C14.7578 13.734 15.6056 14.5899 16.6293 15.1852C17.653 15.7806 18.8161 16.0942 20.0003 16.0942C21.1846 16.0942 22.3477 15.7806 23.3714 15.1852C24.3951 14.5899 25.2429 13.734 25.8285 12.7047L35.4888 20.3972C35.5748 20.4657 35.6453 20.5517 35.6958 20.6493C35.7463 20.747 35.7756 20.8543 35.7818 20.9641C35.788 21.0739 35.7709 21.1837 35.7317 21.2865C35.6926 21.3892 35.6321 21.4825 35.5544 21.5603H35.5538Z" fill="#7210FF"/>
<path d="M16.5435 12.8316C16.587 12.8751 16.6387 12.9097 16.6956 12.9332C16.7525 12.9568 16.8134 12.969 16.875 12.969C16.9366 12.969 16.9976 12.9568 17.0545 12.9332C17.1114 12.9097 17.1631 12.8751 17.2066 12.8316L20 10.0378L22.7935 12.8316C22.837 12.8751 22.8887 12.9096 22.9456 12.9332C23.0025 12.9568 23.0635 12.9689 23.125 12.9689C23.1866 12.9689 23.2476 12.9568 23.3045 12.9332C23.3614 12.9096 23.413 12.8751 23.4566 12.8316C23.5001 12.788 23.5347 12.7363 23.5582 12.6794C23.5818 12.6225 23.5939 12.5616 23.5939 12.5C23.5939 12.4384 23.5818 12.3774 23.5582 12.3206C23.5347 12.2637 23.5001 12.212 23.4566 12.1684L20.6628 9.375L23.4566 6.58156C23.5001 6.53802 23.5347 6.48633 23.5582 6.42944C23.5818 6.37255 23.5939 6.31157 23.5939 6.25C23.5939 6.18842 23.5818 6.12745 23.5582 6.07056C23.5347 6.01367 23.5001 5.96198 23.4566 5.91843C23.413 5.87489 23.3614 5.84035 23.3045 5.81679C23.2476 5.79323 23.1866 5.7811 23.125 5.7811C23.0635 5.7811 23.0025 5.79323 22.9456 5.81679C22.8887 5.84035 22.837 5.87489 22.7935 5.91843L20 8.71219L17.2066 5.91843C17.1187 5.8305 16.9994 5.7811 16.875 5.7811C16.7507 5.7811 16.6314 5.8305 16.5435 5.91843C16.4555 6.00637 16.4061 6.12564 16.4061 6.25C16.4061 6.37436 16.4555 6.49362 16.5435 6.58156L19.3372 9.375L16.5435 12.1684C16.4999 12.212 16.4654 12.2637 16.4418 12.3205C16.4182 12.3774 16.4061 12.4384 16.4061 12.5C16.4061 12.5616 16.4182 12.6226 16.4418 12.6794C16.4654 12.7363 16.4999 12.788 16.5435 12.8316Z" fill="#7210FF"/>
<path d="M21.4003 32.3187C21.3145 30.9576 21.1278 29.6047 20.8419 28.2712C20.6424 27.3462 20.2093 26.4876 19.584 25.7774C18.9586 25.0672 18.1617 24.529 17.2694 24.214C17.8318 23.8068 18.2508 23.2319 18.4665 22.5719C18.6821 21.9118 18.6834 21.2005 18.47 20.5397C18.2565 19.8789 17.8395 19.3027 17.2785 18.8935C16.7175 18.4842 16.0414 18.2631 15.347 18.2617C14.6526 18.2603 13.9756 18.4787 13.413 18.8856C12.8504 19.2926 12.431 19.8672 12.2149 20.5271C11.9988 21.187 11.9972 21.8983 12.2102 22.5593C12.4232 23.2202 12.8399 23.7967 13.4006 24.2062C12.5028 24.5183 11.7003 25.056 11.0703 25.7677C10.4403 26.4794 10.0039 27.3412 9.80312 28.2703C9.51698 29.6046 9.33032 30.9583 9.24468 32.3203C9.21849 32.7243 9.27608 33.1294 9.41386 33.51C9.55164 33.8907 9.76662 34.2388 10.0453 34.5325C10.3236 34.8277 10.6592 35.0632 11.0315 35.2244C11.4039 35.3855 11.8052 35.4691 12.2109 35.47H18.4344C18.8403 35.4692 19.2417 35.3857 19.6142 35.2245C19.9868 35.0633 20.3225 34.8278 20.6009 34.5325C20.8796 34.2385 21.0945 33.8901 21.232 33.5092C21.3696 33.1282 21.4269 32.7229 21.4003 32.3187ZM12.9891 21.5625C12.9876 21.0972 13.1243 20.642 13.3818 20.2544C13.6392 19.8669 14.0059 19.5644 14.4353 19.3854C14.8648 19.2063 15.3377 19.1588 15.7942 19.2487C16.2507 19.3386 16.6703 19.5619 16.9998 19.8904C17.3293 20.2189 17.5539 20.6378 17.6452 21.094C17.7365 21.5502 17.6904 22.0233 17.5127 22.4533C17.3349 22.8833 17.0336 23.2509 16.6468 23.5095C16.2601 23.7682 15.8053 23.9062 15.34 23.9062C14.7177 23.9065 14.1206 23.6599 13.6799 23.2205C13.2392 22.7811 12.9907 22.1848 12.9891 21.5625ZM19.9178 33.8897C19.7282 34.0931 19.4985 34.2552 19.2432 34.3656C18.9879 34.476 18.7125 34.5324 18.4344 34.5312H12.2109C11.9336 34.5315 11.6592 34.475 11.4046 34.3652C11.1499 34.2555 10.9204 34.0948 10.7301 33.8931C10.5399 33.6913 10.3929 33.4528 10.2982 33.1922C10.2036 32.9315 10.1632 32.6543 10.1797 32.3775C10.2623 31.0621 10.4425 29.7546 10.7187 28.4659C10.9363 27.4467 11.4952 26.5321 12.303 25.8735C13.1107 25.2149 14.119 24.8516 15.1612 24.8437H15.4841C16.5261 24.852 17.5342 25.2155 18.3417 25.8742C19.1493 26.5329 19.7079 27.4474 19.9253 28.4665C20.2012 29.7548 20.3815 31.0617 20.4647 32.3765C20.4828 32.6528 20.4436 32.9299 20.3495 33.1903C20.2554 33.4507 20.1084 33.6888 19.9178 33.8897Z" fill="#7210FF"/>
<path opacity="0.1" d="M21.4266 21.5625C21.4272 22.0772 21.5492 22.5845 21.7827 23.0432C22.0162 23.5019 22.3546 23.8991 22.7703 24.2025C21.9462 24.4835 21.2016 24.9583 20.5991 25.5869C20.513 25.6765 20.466 25.7967 20.4685 25.9211C20.4711 26.0454 20.5229 26.1636 20.6125 26.2497C20.7022 26.3358 20.8224 26.3827 20.9467 26.3802C21.071 26.3777 21.1892 26.3259 21.2753 26.2362C21.6957 25.7947 22.2017 25.4435 22.7624 25.2041C23.323 24.9647 23.9266 24.8421 24.5363 24.8437H24.8591C25.9012 24.852 26.9093 25.2155 27.7168 25.8742C28.5243 26.5329 29.0829 27.4474 29.3003 28.4666C29.5762 29.7548 29.7565 31.0617 29.8397 32.3766C29.8566 32.6535 29.8165 32.931 29.722 33.1918C29.6275 33.4527 29.4806 33.6914 29.2902 33.8933C29.0999 34.0952 28.8703 34.256 28.6154 34.3657C28.3606 34.4754 28.0859 34.5318 27.8085 34.5312H21.586C21.4616 34.5312 21.3424 34.5806 21.2545 34.6685C21.1666 34.7564 21.1172 34.8757 21.1172 35C21.1172 35.1243 21.1666 35.2435 21.2545 35.3314C21.3424 35.4194 21.4616 35.4687 21.586 35.4687H27.8094C28.2153 35.4679 28.6168 35.3844 28.9893 35.2232C29.3618 35.062 29.6975 34.8266 29.976 34.5312C30.2546 34.2374 30.4694 33.8891 30.6069 33.5082C30.7445 33.1274 30.8018 32.7222 30.7753 32.3181C30.6895 30.957 30.5029 29.6041 30.2169 28.2706C30.0173 27.3457 29.5842 26.4873 28.9589 25.7771C28.3335 25.067 27.5367 24.5289 26.6444 24.2141C27.0972 23.883 27.4576 23.4414 27.6911 22.9315C27.9247 22.4215 28.0236 21.8602 27.9785 21.3012C27.9333 20.7421 27.7456 20.2039 27.4333 19.738C27.1209 19.2721 26.6944 18.8941 26.1944 18.64C25.6943 18.3859 25.1375 18.2642 24.5771 18.2866C24.0166 18.3089 23.4713 18.4746 22.9931 18.7677C22.5149 19.0608 22.1198 19.4716 21.8455 19.9609C21.5713 20.4502 21.4271 21.0016 21.4266 21.5625ZM27.066 21.5625C27.0674 22.0278 26.9307 22.483 26.6733 22.8706C26.4158 23.2581 26.0491 23.5605 25.6197 23.7396C25.1902 23.9186 24.7173 23.9662 24.2608 23.8763C23.8043 23.7864 23.3847 23.5631 23.0552 23.2346C22.7257 22.9061 22.5011 22.4872 22.4098 22.031C22.3185 21.5747 22.3646 21.1017 22.5424 20.6717C22.7201 20.2417 23.0214 19.8741 23.4082 19.6154C23.7949 19.3568 24.2498 19.2187 24.715 19.2187C25.3374 19.2185 25.9344 19.4651 26.3751 19.9045C26.8159 20.3439 27.0643 20.9402 27.066 21.5625Z" fill="#7210FF"/>
</svg>
