<svg width="40" height="40" viewBox="0 0 40 40" fill="none" xmlns="http://www.w3.org/2000/svg">
<path opacity="0.1" d="M23.1672 12.258H14.8993C13.676 12.258 12.6813 13.2527 12.6813 14.4752C12.6813 15.6986 13.6759 16.6933 14.8993 16.6933H23.1672C24.3898 16.6933 25.3844 15.6987 25.3844 14.4752C25.3845 13.2527 24.3898 12.258 23.1672 12.258ZM23.1672 15.8772H14.8993C14.1263 15.8772 13.4974 15.2484 13.4974 14.4753C13.4974 13.703 14.1263 13.0742 14.8993 13.0742H23.1672C23.9395 13.0742 24.5683 13.703 24.5683 14.4753C24.5683 15.2484 23.9396 15.8772 23.1672 15.8772Z" fill="#7210FF"/>
<path d="M35.9628 25.4181V9.89992C37.1348 9.79859 38.0613 8.82289 38.0613 7.62523V5.09476C38.0613 3.82992 37.0316 2.80023 35.7667 2.80023H2.299C1.03416 2.80023 0.00524902 3.82992 0.00524902 5.09476V7.62515C0.00524902 8.82281 0.931108 9.79844 2.10291 9.89984V30.5934C2.10291 32.3795 3.55259 33.8332 5.3347 33.8332H28.4978C29.4946 35.8254 31.5496 37.1997 33.9242 37.1997C37.2715 37.1997 39.9948 34.4764 39.9948 31.1291C39.9948 28.4977 38.3088 26.2584 35.9628 25.4181ZM0.821343 7.62523V5.09476C0.821343 4.27945 1.48439 3.61633 2.29892 3.61633H35.7667C36.582 3.61633 37.2452 4.27945 37.2452 5.09476V7.62515C37.2452 8.44047 36.582 9.10359 35.7667 9.10359H2.299C1.48447 9.10359 0.821343 8.44054 0.821343 7.62523ZM5.3347 33.0172C4.0029 33.0172 2.91908 31.9301 2.91908 30.5936V9.92133H35.1467V25.1822C34.7517 25.1011 34.3428 25.0584 33.9242 25.0584C30.5776 25.0584 27.8543 27.7817 27.8543 31.1291C27.8543 31.7885 27.9635 32.4222 28.1588 33.0171H5.3347V33.0172ZM33.9242 36.3836C31.0271 36.3836 28.6704 34.0261 28.6704 31.1291C28.6704 28.232 31.0271 25.8745 33.9242 25.8745C36.8212 25.8745 39.1787 28.232 39.1787 31.1291C39.1787 34.0261 36.8212 36.3836 33.9242 36.3836Z" fill="#7210FF"/>
<path opacity="0.1" d="M36.2896 28.7645C36.1303 28.6051 35.872 28.6051 35.7126 28.7645L33.9246 30.5525L32.1365 28.7645C31.9771 28.6051 31.7188 28.6051 31.5595 28.7645C31.4001 28.9238 31.4001 29.1821 31.5595 29.3415L33.3475 31.1295L31.5603 32.9168C31.4009 33.0762 31.4009 33.3345 31.5603 33.4938C31.7196 33.6532 31.9778 33.6532 32.1373 33.4938L33.9246 31.7066L35.7118 33.4938C35.8712 33.6532 36.1294 33.6532 36.2888 33.4938C36.4482 33.3345 36.4482 33.0762 36.2888 32.9168L34.5016 31.1295L36.2896 29.3415C36.449 29.182 36.449 28.9238 36.2896 28.7645Z" fill="#7210FF"/>
</svg>
