<svg width="40" height="40" viewBox="0 0 40 40" fill="none" xmlns="http://www.w3.org/2000/svg">
<g clip-path="url(#clip0_2346_3551)">
<path d="M20.2593 10.4298C20.2593 9.20985 19.2668 8.21742 18.0469 8.21742C16.827 8.21742 15.8345 9.20985 15.8345 10.4298C15.8345 11.6497 16.827 12.6422 18.0469 12.6422C19.2668 12.6422 20.2593 11.6497 20.2593 10.4298ZM17.0063 10.4298C17.0063 9.85602 17.4731 9.3893 18.0469 9.3893C18.6206 9.3893 19.0874 9.8561 19.0874 10.4298C19.0874 11.0036 18.6206 11.4703 18.0469 11.4703C17.4731 11.4703 17.0063 11.0036 17.0063 10.4298Z" fill="#7210FF"/>
<path d="M11.7104 12.0876C12.0341 12.0876 12.2963 11.8253 12.2963 11.5016C12.2963 11.178 12.0341 10.9157 11.7104 10.9157H7.74274C7.41906 10.9157 7.1568 11.178 7.1568 11.5016C7.1568 11.8253 7.41906 12.0876 7.74274 12.0876H11.7104Z" fill="#7210FF"/>
<path d="M28.351 12.1282C28.6747 12.1282 28.9369 11.8659 28.9369 11.5423C28.9369 11.2186 28.6747 10.9563 28.351 10.9563H24.3834C24.0598 10.9563 23.7975 11.2186 23.7975 11.5423C23.7975 11.8659 24.0598 12.1282 24.3834 12.1282H28.351Z" fill="#7210FF"/>
<path d="M25.4401 22.6202C25.3765 22.4242 25.2145 22.2761 25.0137 22.2301L20.7804 21.2598L18.5495 17.5336C18.3733 17.2359 17.8165 17.1079 17.5441 17.5336L15.3133 21.2598L11.0799 22.2301C10.7312 22.3278 10.4604 22.7441 10.7692 23.1863L13.6237 26.4595L13.2382 30.7854C13.2149 31.1044 13.5262 31.5429 14.0516 31.3763L18.0469 29.673L22.0419 31.3763C22.2933 31.4976 22.8883 31.3362 22.8554 30.7854L22.4699 26.4595L25.3244 23.1863C25.4598 23.0311 25.5037 22.8161 25.4401 22.6202ZM21.4226 25.8774C21.3176 25.9977 21.2664 26.1556 21.2805 26.3146L21.6012 29.9145L18.2766 28.497C18.1697 28.5077 18.3194 28.3959 17.817 28.497L14.4924 29.9145L14.8131 26.3146C14.8272 26.1556 14.7759 25.9977 14.6711 25.8774L12.2957 23.1537L15.8186 22.3462C15.9741 22.3106 16.1084 22.213 16.1904 22.0761L18.0469 18.9752L19.9033 22.0761C19.9853 22.213 20.1196 22.3106 20.2751 22.3462L23.798 23.1537L21.4226 25.8774Z" fill="#7210FF"/>
<path opacity="0.1" d="M36.0938 24.812V5.1843C36.0938 3.56883 34.7795 2.25461 33.1641 2.25461H28.2812V1.91406C28.2812 0.858594 27.4227 0 26.3672 0C25.3117 0 24.4531 0.858594 24.4531 1.91406V2.25461H11.6406V1.91406C11.6406 0.858594 10.782 0 9.72656 0C8.67109 0 7.8125 0.858594 7.8125 1.91406V2.25461H2.92969C1.31422 2.25461 0 3.56883 0 5.1843V34.5864C0 36.2019 1.31422 37.5161 2.92969 37.5161H15.0663C15.39 37.5161 15.6523 37.2538 15.6523 36.9302C15.6523 36.6065 15.39 36.3442 15.0663 36.3442H2.92969C1.96047 36.3442 1.17188 35.5556 1.17188 34.5864V5.1843C1.17188 4.21508 1.96047 3.42648 2.92969 3.42648H7.8125V5.38555H4.49891C3.69148 5.38555 3.03469 6.04234 3.03469 6.84977V8.93523C3.03469 9.25891 3.29695 9.52117 3.62063 9.52117C3.9443 9.52117 4.20656 9.25891 4.20656 8.93523V6.84984C4.20656 6.68867 4.33773 6.5575 4.49891 6.5575H7.8125V6.60156C7.8125 7.65703 8.67109 8.51562 9.72656 8.51562C10.782 8.51562 11.6406 7.65703 11.6406 6.60156V6.5575H24.4531V6.60156C24.4531 7.65703 25.3117 8.51562 26.3672 8.51562C27.4227 8.51562 28.2812 7.65703 28.2812 6.60156V6.5575H31.5948C31.756 6.5575 31.8872 6.68867 31.8872 6.84984V14.3232H28.4442C28.1205 14.3232 27.8583 14.5855 27.8583 14.9091C27.8583 15.2328 28.1205 15.4951 28.4442 15.4951H31.8872V23.5949C28.9804 23.5525 26.1472 25.1478 24.6865 27.7037C24.5248 27.984 24.6209 28.3423 24.9013 28.504C25.1813 28.6655 25.5399 28.5695 25.7016 28.2891C26.9553 26.1157 29.2909 24.7656 31.7969 24.7656C35.6739 24.7656 38.8281 27.9198 38.8281 31.7969C38.8281 35.6739 35.6739 38.8281 31.7969 38.8281C27.9198 38.8281 24.7656 35.6739 24.7656 31.7969C24.7656 31.4387 24.7928 31.0788 24.8463 30.7271C24.8951 30.4072 24.6753 30.1083 24.3554 30.0596C24.0354 30.0109 23.7366 30.2305 23.6879 30.5505C23.6254 30.9605 23.5938 31.3798 23.5938 31.7969C23.5938 32.2798 23.636 32.753 23.7165 33.2132H4.49891C4.33773 33.2132 4.20656 33.082 4.20656 32.9209V15.4951H25.6901C26.0138 15.4951 26.276 15.2328 26.276 14.9091C26.276 14.5855 26.0138 14.3232 25.6901 14.3232H4.20656V11.6895C4.20656 11.3659 3.9443 11.1036 3.62063 11.1036C3.29695 11.1036 3.03469 11.3659 3.03469 11.6895V32.9209C3.03469 33.7283 3.69156 34.3851 4.49891 34.3851H24.0124C24.2455 35.0845 24.5705 35.7423 24.9729 36.3442H17.8223C17.4987 36.3442 17.2364 36.6065 17.2364 36.9302C17.2364 37.2538 17.4987 37.5161 17.8223 37.5161H25.9223C27.4135 39.0473 29.4959 40 31.7969 40C36.3201 40 40 36.3201 40 31.7969C40 28.848 38.4358 26.2581 36.0938 24.812ZM10.4688 6.60156C10.4688 7.01078 10.1358 7.34375 9.72656 7.34375C9.31734 7.34375 8.98438 7.01078 8.98438 6.60156V1.91406C8.98438 1.50484 9.31734 1.17188 9.72656 1.17188C10.1358 1.17188 10.4688 1.50484 10.4688 1.91406V6.60156ZM11.6406 5.38562V3.42648H24.4531V5.38555L11.6406 5.38562ZM27.1094 6.60156C27.1094 7.01078 26.7764 7.34375 26.3672 7.34375C25.958 7.34375 25.625 7.01078 25.625 6.60156V1.91406C25.625 1.50484 25.958 1.17188 26.3672 1.17188C26.7764 1.17188 27.1094 1.50484 27.1094 1.91406V6.60156ZM31.5948 5.38562H28.2812V3.42648H33.1641C34.1333 3.42648 34.9219 4.21508 34.9219 5.1843V24.2128C34.3321 23.9689 33.7081 23.7916 33.0591 23.6909V6.84984C33.0591 6.0425 32.4022 5.38562 31.5948 5.38562Z" fill="#7210FF"/>
<path d="M28.0013 35.5925C28.6333 36.2184 29.7571 36.312 30.4872 35.5924L31.7578 34.3218L33.0284 35.5925C33.7138 36.2777 34.829 36.2777 35.5143 35.5924C36.1996 34.9071 36.1996 33.7919 35.5143 33.1066C35.5143 33.1066 35.5143 33.1066 35.5143 33.1065L34.2436 31.8359L35.5143 30.5653C36.1996 29.88 36.1996 28.7648 35.5143 28.0794C34.829 27.3941 33.7137 27.3941 33.0283 28.0795L31.7578 29.3501L30.4872 28.0794C29.8018 27.3941 28.6866 27.3941 28.0012 28.0795C27.316 28.7648 27.316 29.88 28.0013 30.5654L29.2719 31.8359L28.0012 33.1066C27.316 33.7919 27.316 34.9071 28.0013 35.5925ZM28.8298 33.9352L30.5147 32.2503C30.6247 32.1404 30.6864 31.9914 30.6864 31.8359C30.6864 31.6805 30.6247 31.5316 30.5147 31.4216L28.8299 29.7368C28.6015 29.5083 28.6015 29.1365 28.8298 28.9081C29.0128 28.7395 29.3545 28.6428 29.6585 28.908L31.3433 30.593C31.4533 30.7029 31.6022 30.7646 31.7577 30.7646C31.9132 30.7646 32.0621 30.7029 32.1721 30.593L33.8568 28.9081C34.0854 28.6798 34.4571 28.6797 34.6855 28.908C34.914 29.1366 34.914 29.5084 34.6856 29.7367L33.0007 31.4216C32.8908 31.5315 32.829 31.6805 32.829 31.8359C32.829 31.9914 32.8908 32.1403 33.0007 32.2503L34.6855 33.9351C34.914 34.1636 34.914 34.5354 34.6856 34.7638C34.4571 34.9921 34.0854 34.9922 33.8569 34.7638L32.1721 33.0789C32.0622 32.969 31.9132 32.9073 31.7577 32.9073C31.6022 32.9073 31.4533 32.969 31.3433 33.0789L29.6586 34.7638C29.4301 34.9921 29.0583 34.9922 28.8299 34.7638C28.6015 34.5354 28.6015 34.1636 28.8298 33.9352Z" fill="#7210FF"/>
</g>
<defs>
<clipPath id="clip0_2346_3551">
<rect width="40" height="40" fill="white"/>
</clipPath>
</defs>
</svg>
