<svg width="40" height="40" viewBox="0 0 40 40" fill="none" xmlns="http://www.w3.org/2000/svg">
<path opacity="0.1" d="M33.66 23.8C33.38 23.8 33.1067 23.8467 32.86 23.94L27.18 25.9933C27.2133 25.8267 27.2333 25.66 27.2333 25.4867C27.2333 23.9467 25.98 22.6867 24.4333 22.6867H19.6467L17.0933 21.1533C16.4333 20.76 15.68 20.5533 14.9267 20.5533H11.0267V19.4467C11.0267 19.08 10.7267 18.78 10.36 18.78H4.66667C4.3 18.78 4 19.08 4 19.4467V32.24C4 32.6067 4.3 32.9067 4.66667 32.9067H10.3533C10.72 32.9067 11.02 32.6067 11.02 32.24V31.4667L19.2667 33.3933C19.7 33.54 20.1533 33.6133 20.6067 33.6133C20.9733 33.6133 21.3333 33.5667 21.6933 33.4733C21.72 33.4667 21.7467 33.46 21.7733 33.4467L34.5267 28.3267C35.12 28.0867 35.5933 27.6133 35.8333 27.02C36.0733 26.42 36.06 25.7667 35.7867 25.18C35.4133 24.34 34.5733 23.8 33.66 23.8ZM9.68667 31.5733H5.33333V20.1133H9.68667V31.5733ZM34.5933 26.52C34.4867 26.78 34.2867 26.98 34.0267 27.0867L21.3133 32.1933C20.7733 32.3267 20.2067 32.3067 19.6267 32.1133L11.02 30.1V21.8867H14.92C15.4333 21.8867 15.9533 22.0267 16.4 22.2933L19.1067 23.92C19.2133 23.98 19.3267 24.0133 19.4533 24.0133H24.4267C25.2333 24.0133 25.8933 24.6733 25.8933 25.48C25.8933 26.2867 25.2333 26.9467 24.4267 26.9467H19.4533C19.0867 26.9467 18.7867 27.2467 18.7867 27.6133C18.7867 27.98 19.0867 28.28 19.4533 28.28H24.4267C24.9333 28.28 25.4 28.1333 25.8067 27.9L33.3067 25.1933C33.4133 25.1533 33.5267 25.1333 33.6533 25.1333C34.0467 25.1333 34.4067 25.3667 34.5667 25.7267C34.6933 25.98 34.6933 26.26 34.5933 26.52Z" fill="#7210FF"/>
<path d="M16.6667 13.72C16.6667 17.7667 19.9534 21.0533 24 21.0533C28.0467 21.0533 31.3334 17.7667 31.3334 13.72C31.3334 9.67334 28.0467 6.38667 24 6.38667C19.9534 6.38667 16.6667 9.68001 16.6667 13.72ZM24 7.72001C27.3067 7.72001 30 10.4133 30 13.72C30 17.0267 27.3067 19.72 24 19.72C20.6934 19.72 18 17.0267 18 13.72C18 10.4133 20.6934 7.72001 24 7.72001Z" fill="#7210FF"/>
<path opacity="0.1" d="M26.8245 10.8755C26.7122 10.7631 26.5598 10.7 26.4009 10.7C26.2419 10.7 26.0895 10.7631 25.9772 10.8755L24.0037 12.8489L22.0303 10.8755C21.9173 10.7663 21.7659 10.7059 21.6088 10.7073C21.4517 10.7086 21.3014 10.7716 21.1903 10.8828C21.0791 10.9939 21.0161 11.1442 21.0147 11.3013C21.0134 11.4584 21.0738 11.6098 21.183 11.7228L23.1564 13.6963L21.183 15.6697C21.1257 15.7249 21.0801 15.7911 21.0487 15.8642C21.0172 15.9373 21.0007 16.0159 21 16.0955C20.9993 16.1751 21.0145 16.254 21.0446 16.3276C21.0748 16.4013 21.1193 16.4682 21.1755 16.5245C21.2318 16.5807 21.2987 16.6252 21.3724 16.6554C21.446 16.6855 21.5249 16.7007 21.6045 16.7C21.6841 16.6993 21.7627 16.6828 21.8358 16.6513C21.9089 16.6199 21.975 16.5743 22.0303 16.517L24.0037 14.5436L25.9772 16.517C26.0902 16.6262 26.2416 16.6866 26.3987 16.6852C26.5558 16.6839 26.7061 16.6209 26.8172 16.5097C26.9284 16.3986 26.9914 16.2483 26.9927 16.0912C26.9941 15.9341 26.9337 15.7827 26.8245 15.6697L24.8511 13.6963L26.8245 11.7228C26.9369 11.6105 27 11.4581 27 11.2991C27 11.1402 26.9369 10.9878 26.8245 10.8755Z" fill="#7210FF"/>
</svg>
