<svg width="40" height="40" viewBox="0 0 40 40" fill="none" xmlns="http://www.w3.org/2000/svg">
<path d="M8.71094 10C8.71094 8.98766 7.88734 8.16406 6.875 8.16406C5.86266 8.16406 5.03906 8.98766 5.03906 10C5.03906 11.0123 5.86266 11.8359 6.875 11.8359C7.88734 11.8359 8.71094 11.0123 8.71094 10ZM6.21094 10C6.21094 9.63383 6.50883 9.33594 6.875 9.33594C7.24117 9.33594 7.53906 9.63383 7.53906 10C7.53906 10.3662 7.24117 10.6641 6.875 10.6641C6.50883 10.6641 6.21094 10.3662 6.21094 10Z" fill="#7210FF"/>
<path d="M36.25 21.9141C35.2377 21.9141 34.4141 22.7377 34.4141 23.75C34.4141 24.7623 35.2377 25.5859 36.25 25.5859C37.2623 25.5859 38.0859 24.7623 38.0859 23.75C38.0859 22.7377 37.2623 21.9141 36.25 21.9141ZM36.25 24.4141C35.8838 24.4141 35.5859 24.1162 35.5859 23.75C35.5859 23.3838 35.8838 23.0859 36.25 23.0859C36.6162 23.0859 36.9141 23.3838 36.9141 23.75C36.9141 24.1162 36.6162 24.4141 36.25 24.4141Z" fill="#7210FF"/>
<path opacity="0.1" d="M36.2109 16.875C36.2109 13.4502 33.4247 10.6641 30 10.6641C26.5753 10.6641 23.7891 13.4502 23.7891 16.875C23.7891 20.0399 26.1688 22.6585 29.2328 23.0378C29.3352 23.0504 29.4141 23.1364 29.4141 23.2396V24.8391C29.4141 24.9495 29.3245 25.0391 29.2141 25.0391H15.2C15.0895 25.0391 15 25.1286 15 25.2391V26.0109C15 26.1214 15.0895 26.2109 15.2 26.2109H29.6744C29.7275 26.2109 29.7783 26.232 29.8158 26.2695L31.994 28.4476C32.12 28.5736 32.0307 28.7891 31.8525 28.7891H8.14745C7.96927 28.7891 7.88004 28.5736 8.00603 28.4476L10.1842 26.2695C10.2217 26.232 10.2725 26.2109 10.3256 26.2109H13.55C13.6605 26.2109 13.75 26.1214 13.75 26.0109V25.2391C13.75 25.1286 13.6605 25.0391 13.55 25.0391H10.7859C10.6755 25.0391 10.5859 24.9495 10.5859 24.8391V15.625C10.5859 10.4341 14.8091 6.21094 20 6.21094C22.9561 6.21094 25.756 7.61425 27.5307 9.97488C27.5971 10.0632 27.7219 10.0838 27.8116 10.0194L28.4384 9.56878C28.5281 9.5043 28.5487 9.37918 28.4825 9.29073C27.1488 7.50806 25.296 6.2086 23.2183 5.5431C23.1373 5.51717 23.0812 5.44369 23.0739 5.359C22.9386 3.78158 21.6119 2.53906 20 2.53906C18.3892 2.53906 17.0632 3.77986 16.9263 5.35573C16.919 5.44037 16.8626 5.51382 16.7817 5.53971C12.5133 6.90496 9.41406 10.9096 9.41406 15.625V25.2994C9.41406 25.3525 9.39299 25.4033 9.35548 25.4408L5.72264 29.0737C5.68513 29.1112 5.66406 29.1621 5.66406 29.2151V33.5109C5.66406 33.6214 5.75361 33.7109 5.86406 33.7109H15.5301C15.6301 33.7109 15.7143 33.7851 15.7318 33.8836C16.0917 35.9138 17.868 37.4609 20 37.4609C22.132 37.4609 23.9084 35.9138 24.2682 33.8836C24.2857 33.7851 24.3699 33.7109 24.4699 33.7109H34.1359C34.2464 33.7109 34.3359 33.6214 34.3359 33.5109V29.2152C34.3359 29.1621 34.3149 29.1113 34.2774 29.0738L30.6445 25.4409C30.607 25.4034 30.5859 25.3525 30.5859 25.2995V23.2396C30.5859 23.1364 30.6648 23.0505 30.7672 23.0378C33.8312 22.6585 36.2109 20.04 36.2109 16.875ZM20 3.71094C20.8061 3.71094 21.497 4.21193 21.7785 4.91886C21.8315 5.05177 21.7116 5.17861 21.5702 5.15723C21.0539 5.07922 20.5292 5.03906 20 5.03906C19.4668 5.03906 18.9427 5.07872 18.4304 5.15518C18.289 5.1763 18.1693 5.0493 18.2225 4.91649C18.5046 4.21083 19.1948 3.71094 20 3.71094ZM24.9609 16.875C24.9609 14.0965 27.2215 11.8359 30 11.8359C32.7785 11.8359 35.0391 14.0965 35.0391 16.875C35.0391 19.6535 32.7785 21.9141 30 21.9141C27.2215 21.9141 24.9609 19.6535 24.9609 16.875ZM20 36.2891C18.5393 36.2891 17.3074 35.2938 16.9449 33.9461C16.9124 33.8251 17.0071 33.7109 17.1324 33.7109H22.8677C22.993 33.7109 23.0877 33.8251 23.0552 33.9461C22.6926 35.2938 21.4606 36.2891 20 36.2891ZM7.03594 32.5391C6.92548 32.5391 6.83594 32.4495 6.83594 32.3391V30.1609C6.83594 30.0505 6.92548 29.9609 7.03594 29.9609H32.9641C33.0745 29.9609 33.1641 30.0505 33.1641 30.1609V32.3391C33.1641 32.4495 33.0745 32.5391 32.9641 32.5391H7.03594Z" fill="#7210FF"/>
<path d="M31.1308 20.2406C31.3261 20.4359 31.6426 20.4359 31.8379 20.2406L33.3656 18.7129C33.5609 18.5176 33.5609 18.2011 33.3656 18.0058L32.5884 17.2285C32.3931 17.0333 32.3931 16.7167 32.5884 16.5214L33.3656 15.7442C33.5609 15.5489 33.5609 15.2323 33.3656 15.0371L31.8379 13.5093C31.6426 13.3141 31.3261 13.3141 31.1308 13.5093L30.3535 14.2866C30.1583 14.4818 29.8417 14.4818 29.6464 14.2866L28.8692 13.5093C28.6739 13.3141 28.3573 13.3141 28.1621 13.5093L26.6343 15.0371C26.4391 15.2323 26.4391 15.5489 26.6343 15.7442L27.4116 16.5214C27.6068 16.7167 27.6068 17.0333 27.4116 17.2285L26.6343 18.0058C26.4391 18.2011 26.4391 18.5176 26.6343 18.7129L28.1621 20.2406C28.3573 20.4359 28.6739 20.4359 28.8692 20.2406L29.6464 19.4634C29.8417 19.2681 30.1583 19.2681 30.3535 19.4634L31.1308 20.2406ZM28.2268 18.6482C28.0673 18.4887 28.0673 18.23 28.2268 18.0705L29.0688 17.2285C29.264 17.0333 29.264 16.7167 29.0688 16.5214L28.2268 15.6794C28.0673 15.5199 28.0673 15.2613 28.2268 15.1018C28.3863 14.9423 28.6449 14.9423 28.8044 15.1018L29.6464 15.9438C29.8417 16.139 30.1583 16.139 30.3535 15.9438L31.1955 15.1018C31.355 14.9423 31.6137 14.9423 31.7732 15.1018C31.9327 15.2613 31.9327 15.5199 31.7732 15.6794L30.9312 16.5214C30.7359 16.7167 30.7359 17.0333 30.9312 17.2285L31.7732 18.0705C31.9327 18.23 31.9327 18.4887 31.7732 18.6482C31.6137 18.8077 31.355 18.8077 31.1955 18.6482L30.3535 17.8062C30.1583 17.6109 29.8417 17.6109 29.6464 17.8062L28.8044 18.6482C28.6449 18.8077 28.3863 18.8077 28.2268 18.6482Z" fill="#7210FF"/>
<path d="M16.875 21.9141H18.125V23.0859H16.875V21.9141Z" fill="#7210FF"/>
<path d="M19.375 22.4141C19.375 22.1379 19.5989 21.9141 19.875 21.9141H20.125C20.4011 21.9141 20.625 22.1379 20.625 22.4141V22.5859C20.625 22.8621 20.4011 23.0859 20.125 23.0859H19.875C19.5989 23.0859 19.375 22.8621 19.375 22.5859V22.4141Z" fill="#7210FF"/>
<path d="M21.875 22.4141C21.875 22.1379 22.0989 21.9141 22.375 21.9141H22.625C22.9011 21.9141 23.125 22.1379 23.125 22.4141V22.5859C23.125 22.8621 22.9011 23.0859 22.625 23.0859H22.375C22.0989 23.0859 21.875 22.8621 21.875 22.5859V22.4141Z" fill="#7210FF"/>
<path d="M2.46094 15.5C2.46094 15.2239 2.23708 15 1.96094 15H1.78906C1.51292 15 1.28906 15.2239 1.28906 15.5V15.7891C1.28906 16.0652 1.0652 16.2891 0.789062 16.2891H0.5C0.223858 16.2891 0 16.5129 0 16.7891V16.9609C0 17.2371 0.223858 17.4609 0.5 17.4609H0.789062C1.0652 17.4609 1.28906 17.6848 1.28906 17.9609V18.25C1.28906 18.5261 1.51292 18.75 1.78906 18.75H1.96094C2.23708 18.75 2.46094 18.5261 2.46094 18.25V17.9609C2.46094 17.6848 2.6848 17.4609 2.96094 17.4609H3.25C3.52614 17.4609 3.75 17.2371 3.75 16.9609V16.7891C3.75 16.5129 3.52614 16.2891 3.25 16.2891H2.96094C2.6848 16.2891 2.46094 16.0652 2.46094 15.7891V15.5Z" fill="#7210FF"/>
<path d="M40 9.28906C40 9.01292 39.7761 8.78906 39.5 8.78906H39.2109C38.9348 8.78906 38.7109 8.5652 38.7109 8.28906V8C38.7109 7.72386 38.4871 7.5 38.2109 7.5H38.0391C37.7629 7.5 37.5391 7.72386 37.5391 8V8.28906C37.5391 8.5652 37.3152 8.78906 37.0391 8.78906H36.75C36.4739 8.78906 36.25 9.01292 36.25 9.28906V9.46094C36.25 9.73708 36.4739 9.96094 36.75 9.96094H37.0391C37.3152 9.96094 37.5391 10.1848 37.5391 10.4609V10.75C37.5391 11.0261 37.7629 11.25 38.0391 11.25H38.2109C38.4871 11.25 38.7109 11.0261 38.7109 10.75V10.4609C38.7109 10.1848 38.9348 9.96094 39.2109 9.96094H39.5C39.7761 9.96094 40 9.73708 40 9.46094V9.28906Z" fill="#7210FF"/>
</svg>
