<svg width="57" height="56" viewBox="0 0 57 56" fill="none" xmlns="http://www.w3.org/2000/svg">
<g clip-path="url(#clip0_1713_3521)">
<path d="M51.8334 44.3332V46.6665L33.1667 52.4998L16.8334 47.9732V51.3332H2.83337V25.6665H21.43L35.8034 31.0332C38.4167 32.0132 40.1667 34.5332 40.1667 37.3332H44.8334C48.7067 37.3332 51.8334 40.4598 51.8334 44.3332ZM12.1667 46.6665V30.3332H7.50004V46.6665H12.1667ZM46.9334 43.3298C46.56 42.5598 45.7434 42.0232 44.8334 42.0232H32.35C31.09 42.0232 29.8534 41.8132 28.6634 41.4165L23.11 39.5732L24.58 35.1398L30.1334 36.9832C30.8567 37.2165 35.5 37.3332 35.5 37.3332C35.5 36.4698 34.9634 35.6998 34.17 35.3965L20.59 30.3332H16.8334V43.1198L33.0967 47.6232L46.9334 43.3298Z" fill="#989898"/>
<g clip-path="url(#clip1_1713_3521)">
<path d="M42.5 2.3335L36.0833 12.8335H48.9167L42.5 2.3335ZM42.5 6.8135L44.7517 10.5002H40.2367L42.5 6.8135ZM48.9167 15.1668C46.0117 15.1668 43.6667 17.5118 43.6667 20.4168C43.6667 23.3218 46.0117 25.6668 48.9167 25.6668C51.8217 25.6668 54.1667 23.3218 54.1667 20.4168C54.1667 17.5118 51.8217 15.1668 48.9167 15.1668ZM48.9167 23.3335C47.3067 23.3335 46 22.0268 46 20.4168C46 18.8068 47.3067 17.5002 48.9167 17.5002C50.5267 17.5002 51.8333 18.8068 51.8333 20.4168C51.8333 22.0268 50.5267 23.3335 48.9167 23.3335ZM32 25.0835H41.3333V15.7502H32V25.0835ZM34.3333 18.0835H39V22.7502H34.3333V18.0835Z" fill="#7210FF"/>
</g>
</g>
<defs>
<clipPath id="clip0_1713_3521">
<rect width="56" height="56" fill="white" transform="translate(0.5)"/>
</clipPath>
<clipPath id="clip1_1713_3521">
<rect width="28" height="28" fill="white" transform="translate(28.5)"/>
</clipPath>
</defs>
</svg>
