<svg width="16" height="16" viewBox="0 0 16 16" fill="none" xmlns="http://www.w3.org/2000/svg">
<g clip-path="url(#clip0_178_5470)">
<path d="M4 6.66683V5.3335C4 3.12683 4.66667 1.3335 8 1.3335C11.3333 1.3335 12 3.12683 12 5.3335V6.66683M8 12.3335C8.44203 12.3335 8.86595 12.1579 9.17851 11.8453C9.49107 11.5328 9.66667 11.1089 9.66667 10.6668C9.66667 10.2248 9.49107 9.80088 9.17851 9.48832C8.86595 9.17576 8.44203 9.00016 8 9.00016C7.55797 9.00016 7.13405 9.17576 6.82149 9.48832C6.50893 9.80088 6.33333 10.2248 6.33333 10.6668C6.33333 11.1089 6.50893 11.5328 6.82149 11.8453C7.13405 12.1579 7.55797 12.3335 8 12.3335Z" stroke="#989898" stroke-width="1.5" stroke-linecap="round" stroke-linejoin="round"/>
<path d="M11.3333 14.6665H4.66659C1.99992 14.6665 1.33325 13.9998 1.33325 11.3332V9.99984C1.33325 7.33317 1.99992 6.6665 4.66659 6.6665H11.3333C13.9999 6.6665 14.6666 7.33317 14.6666 9.99984V11.3332C14.6666 13.9998 13.9999 14.6665 11.3333 14.6665Z" stroke="#989898" stroke-width="1.5" stroke-linecap="round" stroke-linejoin="round"/>
</g>
<defs>
<clipPath id="clip0_178_5470">
<rect width="16" height="16" fill="white"/>
</clipPath>
</defs>
</svg>
