<svg width="56" height="56" viewBox="0 0 56 56" fill="none" xmlns="http://www.w3.org/2000/svg">
<path opacity="0.4" d="M49 4.66675V32.9001C49 37.3334 46.6667 39.6667 42.2333 39.6667H13.7667C9.33332 39.6667 7 37.3334 7 32.9001V4.66675H49Z" fill="#7210FF"/>
<path d="M51.3327 6.41675H4.66602C3.70935 6.41675 2.91602 5.62341 2.91602 4.66675C2.91602 3.71008 3.70935 2.91675 4.66602 2.91675H51.3327C52.2893 2.91675 53.0827 3.71008 53.0827 4.66675C53.0827 5.62341 52.2893 6.41675 51.3327 6.41675Z" fill="#7210FF"/>
<path d="M38.8973 52.1267C38.594 52.7334 37.964 53.0834 37.334 53.0834C37.0773 53.0834 36.7973 53.0134 36.564 52.8968L28.0006 48.6267L19.4373 52.8968C19.2039 53.0134 18.924 53.0834 18.6673 53.0834C18.0373 53.0834 17.4073 52.7334 17.1039 52.1267C16.6606 51.2401 17.0107 50.19 17.8973 49.77L26.2506 45.5934V39.6667H29.7506V45.5934L38.1039 49.77C38.9906 50.19 39.3407 51.2401 38.8973 52.1267Z" fill="#7210FF"/>
<path d="M17.4995 27.4167C17.0095 27.4167 16.4962 27.2068 16.1462 26.7868C15.5162 26.0401 15.6328 24.9434 16.3795 24.3134L23.7295 18.1768C24.4062 17.6168 25.2695 17.3834 26.0862 17.5234C26.9262 17.6634 27.6495 18.1767 28.0929 18.9234L30.5428 23.0067L37.3795 17.3134C38.1261 16.6834 39.2228 16.8 39.8528 17.5467C40.4828 18.2934 40.3662 19.39 39.6195 20.02L32.2695 26.1567C31.5928 26.7167 30.7295 26.95 29.9129 26.81C29.0729 26.67 28.3495 26.1568 27.9061 25.4101L25.4562 21.3268L18.6195 27.02C18.2929 27.2767 17.8962 27.4167 17.4995 27.4167Z" fill="#7210FF"/>
</svg>
