<svg width="24" height="25" viewBox="0 0 24 25" fill="none" xmlns="http://www.w3.org/2000/svg">
<g id="ic_parking">
<path id="Vector" d="M19.4397 21.8602C20.5001 21.8602 21.3597 21.0006 21.3597 19.9402V5.06018C21.3597 3.99975 20.5001 3.14018 19.4397 3.14018H4.55969C3.49926 3.14018 2.63969 3.99975 2.63969 5.06018V19.9402C2.63969 21.0006 3.49926 21.8602 4.55969 21.8602H19.4397ZM19.4397 22.8202H4.55969C2.96908 22.8202 1.67969 21.5308 1.67969 19.9402V5.06018C1.67969 3.46957 2.96908 2.18018 4.55969 2.18018H19.4397C21.0303 2.18018 22.3197 3.46957 22.3197 5.06018V19.9402C22.3197 21.5308 21.0303 22.8202 19.4397 22.8202Z" fill="#989898"/>
<path id="Vector_2" d="M8.82422 5.90822V19.3482C8.82422 19.6133 9.03912 19.8282 9.30422 19.8282C9.56932 19.8282 9.78422 19.6133 9.78422 19.3482V5.90822C9.78422 5.64312 9.56932 5.42822 9.30422 5.42822C9.03912 5.42822 8.82422 5.64312 8.82422 5.90822Z" fill="#989898"/>
<path id="Vector_3" d="M13.0159 12.3119C14.7389 12.3119 16.1359 10.9149 16.1359 9.19187C16.1359 7.50194 14.7658 6.13188 13.0759 6.13188H9.78617V12.3119H13.0159ZM13.0159 13.2719H9.30617C9.04107 13.2719 8.82617 13.057 8.82617 12.7919V5.65187C8.82617 5.38677 9.04107 5.17188 9.30617 5.17188H13.0759C15.296 5.17188 17.0959 6.97173 17.0959 9.19187C17.0959 11.4451 15.2691 13.2719 13.0159 13.2719Z" fill="#989898"/>
</g>
</svg>
