<svg width="16" height="16" viewBox="0 0 16 16" fill="none" xmlns="http://www.w3.org/2000/svg">
    <path d="M6 1.333A3.17 3.17 0 0 0 2.833 4.5c0 1.713 1.34 3.1 3.087 3.16a.538.538 0 0 1 .147 0h.046A3.159 3.159 0 0 0 9.167 4.5 3.17 3.17 0 0 0 6 1.333zm3.387 8.1c-1.86-1.24-4.894-1.24-6.767 0-.847.566-1.313 1.333-1.313 2.153 0 .82.466 1.58 1.306 2.14.934.627 2.16.94 3.387.94 1.227 0 2.453-.313 3.387-.94.84-.567 1.306-1.327 1.306-2.153-.006-.82-.466-1.58-1.306-2.14zm3.94-4.541a2.386 2.386 0 0 1-2.087 2.58h-.033c-.04 0-.08 0-.114.013a2.392 2.392 0 0 1-1.686-.553 3.05 3.05 0 0 0 1-2.533 3.093 3.093 0 0 0-.514-1.454 2.395 2.395 0 0 1 3.434 1.947z" fill="#989898"/>
    <path d="M14.659 11.06c-.054.647-.467 1.207-1.16 1.587-.667.366-1.507.54-2.34.52.48-.434.76-.974.813-1.547.067-.827-.327-1.62-1.113-2.253a5.504 5.504 0 0 0-1.534-.84c1.474-.427 3.327-.14 4.467.78.613.493.927 1.113.867 1.753z" fill="#989898"/>
</svg>
