<svg width="20" height="20" viewBox="0 0 20 20" fill="none" xmlns="http://www.w3.org/2000/svg">
<path d="M11.6666 6.66667H15.8333M12.5 10H15.8333M14.1666 13.3333H15.8333M14.1666 17.5H5.83329C2.49996 17.5 1.66663 16.6667 1.66663 13.3333V6.66667C1.66663 3.33333 2.49996 2.5 5.83329 2.5H14.1666C17.5 2.5 18.3333 3.33333 18.3333 6.66667V13.3333C18.3333 16.6667 17.5 17.5 14.1666 17.5Z" stroke="#989898" stroke-width="1.5" stroke-linecap="round" stroke-linejoin="round"/>
<path d="M9.99996 13.6083C9.94387 13.0233 9.68485 12.4764 9.2678 12.0624C8.85076 11.6484 8.30198 11.3934 7.71663 11.3416C7.29543 11.2999 6.87115 11.2999 6.44996 11.3416C5.86518 11.395 5.31728 11.6505 4.90054 12.0642C4.4838 12.4779 4.22427 13.0239 4.16663 13.6083M7.08329 9.40827C7.48333 9.40827 7.86698 9.24935 8.14985 8.96649C8.43271 8.68362 8.59163 8.29997 8.59163 7.89993C8.59163 7.4999 8.43271 7.11625 8.14985 6.83338C7.86698 6.55052 7.48333 6.3916 7.08329 6.3916C6.68326 6.3916 6.29961 6.55052 6.01674 6.83338C5.73387 7.11625 5.57496 7.4999 5.57496 7.89993C5.57496 8.29997 5.73387 8.68362 6.01674 8.96649C6.29961 9.24935 6.68326 9.40827 7.08329 9.40827Z" stroke="#989898" stroke-width="1.5" stroke-linecap="round" stroke-linejoin="round"/>
</svg>
