<svg width="151" height="124" viewBox="0 0 151 124" fill="none" xmlns="http://www.w3.org/2000/svg">
    <path d="M97.157 8v30.899h30.899V8H97.157zm24.719 24.719h-18.539v-18.54h18.539v18.54z" fill="#7210FF"/>
    <path d="M109.517 20.36h6.179v6.18h-6.179v-6.18zm-12.36 92.696h30.899V82.157H97.157v30.899zm6.18-24.72h18.539v18.54h-18.539v-18.54z" fill="#7210FF"/>
    <path d="M109.517 94.517h6.179v6.179h-6.179v-6.18zM23 113.056h30.899V82.157H23v30.899zm6.18-24.719h18.539v18.539h-18.54V88.337z" fill="#7210FF"/>
    <path d="M35.36 94.517h6.18v6.179h-6.18v-6.18zm24.718 12.359h15.45v6.18h-15.45v-6.18zm0-12.36h9.27v6.18h-9.27v-6.18zM41.54 69.798h6.18v6.18h-6.18v-6.18zm-6.18 0h-6.18V57.438H23v18.54h12.36v-6.18zm86.517 0h-6.18v6.18h12.36V57.438h-6.18v12.36zm-24.719 0h12.36v6.18h-12.36v-6.18zm-21.63 0h15.45v6.18h-15.45v-6.18zm6.18 37.079h9.27v6.18h-9.27v-6.18zm3.09-12.36h-9.27v6.18h15.45V82.157h-6.18v12.36zm-24.718-6.18h15.449v-6.179h-9.27v-12.36H53.9v6.18h6.18v12.36zM81.707 20.36h9.27v6.18h-9.27v-6.18zm15.45 24.72h6.179v6.18h-6.18v-6.18zm0 12.359h6.179v6.18h-6.18v-6.18z" fill="#7210FF"/>
    <path d="M109.517 63.618h6.179v-12.36h12.36v-6.18h-18.539v18.54zm-33.99-24.72h9.27v24.72h6.18V32.719h-15.45v6.18zM47.72 63.619h27.809v-6.18h-21.63v-6.18H47.72v12.36zm-12.36 0h6.18v-18.54H23v6.18h12.36v12.36zm12.36-30.899h6.18v12.36h-6.18v-12.36zm12.36 12.36h15.449v6.18h-15.45v-6.18zm6.18-18.54h9.269v-6.18h-15.45V38.9h6.18v-12.36zM75.527 8h15.45v6.18h-15.45V8zM29.18 14.18h12.36V8H23v18.54h6.18V14.18zM60.078 8h9.27v6.18h-9.27V8z" fill="#7210FF"/>
    <path d="M35.36 26.54h18.539V8h-6.18v12.36h-12.36v6.18zM23 32.718h18.54v6.18H23v-6.18z" fill="#7210FF"/>
    <mask id="nhrsarzc1a" fill="#fff">
        <path d="M128 101h23v23h-23v-23z"/>
    </mask>
    <path d="M151 124v1h1v-1h-1zm-1-23v23h2v-23h-2zm1 22h-23v2h23v-2z" fill="#7210FF" mask="url(#nhrsarzc1a)"/>
    <mask id="aljxylcnzb" fill="#fff">
        <path d="M0 0h23v23H0V0z"/>
    </mask>
    <path d="M0 0v-1h-1v1h1zm0 1h23v-2H0v2zm1 22V0h-2v23h2z" fill="#7210FF" mask="url(#aljxylcnzb)"/>
    <mask id="vcz3p0q92c" fill="#fff">
        <path d="M128 0h23v23h-23V0z"/>
    </mask>
    <path d="M151 0h1v-1h-1v1zm-23 1h23v-2h-23v2zm22-1v23h2V0h-2z" fill="#7210FF" mask="url(#vcz3p0q92c)"/>
    <mask id="42esipm2md" fill="#fff">
        <path d="M0 101h23v23H0v-23z"/>
    </mask>
    <path d="M0 124h-1v1h1v-1zm23-1H0v2h23v-2zm-22 1v-23h-2v23h2z" fill="#7210FF" mask="url(#42esipm2md)"/>
</svg>
