<svg width="129" height="129" viewBox="0 0 129 129" fill="none" xmlns="http://www.w3.org/2000/svg">
    <path d="m31.876 118.514 27.642.364 47.326.623c5.77.076 9.034-6.585 5.436-11.094a6.83 6.83 0 0 1-.825-7.204l3.129-6.553c5.032-10.537-.88-23.035-12.221-25.836l-.488-.12a18.846 18.846 0 0 1-14.33-18.542l.055-4.169c.148-11.243-7.505-21.094-18.441-23.738l-7.612-1.84c-13.45-3.25-26.653 6.184-27.925 19.954l-.212 2.3a17.214 17.214 0 0 1-6.346 11.823L16 63.393a4.888 4.888 0 0 0-.27 7.381 4.888 4.888 0 0 1-.393 7.476l-6.308 4.758a11.524 11.524 0 0 0-2.68 15.55l6.195 9.388a23.534 23.534 0 0 0 19.333 10.568zm-3.65-101.527 1.186 3.162a.536.536 0 0 1-.108.555l-1.756 1.89c-.378.407.041 1.057.577.897l2.539-.76a.56.56 0 0 1 .534.12l2.177 1.954c.41.367 1.04-.009.897-.534l-.791-2.91a.536.536 0 0 1 .105-.486l1.536-1.832c.346-.412-.07-1.029-.591-.877l-2.265.66a.56.56 0 0 1-.525-.119l-2.64-2.307c-.431-.378-1.075.054-.875.587zM19.393 36.21l.088 1.882a.3.3 0 0 1-.152.276l-1.257.703c-.27.15-.16.568.153.575l1.478.031a.313.313 0 0 1 .263.156l.821 1.41c.155.266.554.174.568-.13l.079-1.68a.299.299 0 0 1 .139-.24l1.13-.71c.254-.159.14-.557-.164-.566l-1.316-.039a.313.313 0 0 1-.258-.152l-1.006-1.678c-.164-.275-.58-.156-.566.162zm97.898 18.88.93 1.638a.3.3 0 0 1-.011.316l-.803 1.195c-.172.257.116.579.397.443l1.333-.64a.31.31 0 0 1 .304.02l1.371.886c.258.166.573-.096.448-.373l-.691-1.535a.3.3 0 0 1 .016-.276l.686-1.144c.154-.258-.128-.562-.403-.432l-1.19.561a.313.313 0 0 1-.3-.019l-1.656-1.04c-.271-.171-.588.123-.431.4z" fill="#E7E8FF"/>
    <path d="M49.54 14.398a4.52 4.52 0 0 1 4.579-4.46l50.847.67a4.52 4.52 0 0 1 4.46 4.579l-1.311 99.504a4.519 4.519 0 0 1-4.579 4.46l-50.846-.669a4.52 4.52 0 0 1-4.46-4.58l1.31-99.504z" fill="#fff"/>
    <path fill-rule="evenodd" clip-rule="evenodd" d="M49.163 14.393a4.897 4.897 0 0 1 4.96-4.831l50.848.67a4.896 4.896 0 0 1 4.831 4.96l-1.31 99.504a4.897 4.897 0 0 1-4.961 4.832l-50.846-.67a4.896 4.896 0 0 1-4.832-4.961l1.31-99.504zm4.95-4.078a4.143 4.143 0 0 0-4.197 4.088l-1.31 99.504a4.143 4.143 0 0 0 4.088 4.198l50.847.67a4.144 4.144 0 0 0 4.198-4.089l1.31-99.504a4.143 4.143 0 0 0-4.088-4.197l-50.847-.67z" fill="#000"/>
    <path d="m67.576 13.736-1.882-3.646 27.697.365-2.322 3.756a3.767 3.767 0 0 1-3.254 1.786l-16.941-.223a3.767 3.767 0 0 1-3.297-2.038z" fill="#000"/>
    <path d="m108.721 12.903-58.8-.774c1.973-1.92 3.837-2.258 4.522-2.187l49.816.656c2.396.032 3.973 1.55 4.462 2.305zm-1.399 104.169-58.36-.768c1.996 2.004 3.16 2.387 3.874 2.333l50.551.666c2.489.033 3.406-1.477 3.935-2.231zm-52.676-93.69a1.13 1.13 0 0 1 1.145-1.115l19.1.252a1.13 1.13 0 0 1 1.116 1.145v.028a1.13 1.13 0 0 1-1.146 1.115l-19.1-.251a1.13 1.13 0 0 1-1.116-1.145v-.029zm17.01 85.192a1.13 1.13 0 0 1 1.144-1.115l11.676.153a1.13 1.13 0 0 1-.03 2.26l-11.675-.154a1.13 1.13 0 0 1-1.116-1.144z" fill="#000"/>
    <path fill-rule="evenodd" clip-rule="evenodd" d="M55.723 31.139a.754.754 0 0 0-.763.743l-.142 10.735-.753-.01.142-10.735a1.506 1.506 0 0 1 1.526-1.486l11.3.148-.01.754-11.3-.15zm47.081.62L90.751 31.6l.01-.753 12.052.159a1.507 1.507 0 0 1 1.487 1.526l-.141 10.734-.754-.01.142-10.734a.753.753 0 0 0-.743-.763zm-48.365 39.67L54.3 81.975a.754.754 0 0 0 .744.764l11.3.149-.01.753-11.3-.15a1.506 1.506 0 0 1-1.487-1.525l.139-10.546.753.01zm48.448 11.186.139-10.546.753.01-.138 10.546a1.507 1.507 0 0 1-1.527 1.487l-12.052-.159.01-.753 12.052.159a.753.753 0 0 0 .763-.744zm2.854-66.521-.04 3.08-.754-.01.041-3.08.753.01zm-1.93.36-.036 2.695-.753-.01.036-2.695.753.01zm-1.936.745-.025 1.925-.753-.01.025-1.925.753.01zm-1.935.744-.016 1.156-.753-.01.015-1.155.754.01z" fill="#000"/>
    <path d="M62.438 93.384a1.13 1.13 0 0 1 1.145-1.115l30.131.396a1.13 1.13 0 0 1 1.115 1.145l-.11 8.287a1.13 1.13 0 0 1-1.144 1.114l-30.131-.396a1.13 1.13 0 0 1-1.115-1.145l.109-8.286z" fill="#E7E8FF"/>
    <path fill-rule="evenodd" clip-rule="evenodd" d="M59.586 35.41c-.085.09-.196 3.356-.247 7.257l-.094 7.092 6.591.086 6.591.087.096-7.259.096-7.258-6.44-.085c-3.542-.047-6.509-.01-6.593.08zm15.05 2.16-.027 2.127.908.012.91.012-.027 2.002-.026 2.002.909.012.91.012.013-1 .013-1.002 1.022.013 1.023.014-.013 1.001-.013 1.001.909.012.91.012-.016 1.127-.014 1.126.908.012.91.012.028-2.128.028-2.127-.91-.012-.909-.012.014-1.001.013-1.002.909.012.909.012.028-2.127.028-2.128-4.66-.061-4.658-.061-.029 2.127zm11.297 5.28-.095 7.259 6.477.085 6.478.085.095-7.259.096-7.258-6.478-.086-6.477-.085-.096 7.259zm-15.228-.2-.07 5.256-4.772-.063-4.773-.063.067-5.09c.037-2.799.136-5.163.22-5.254.085-.09 2.234-.137 4.776-.104l4.621.061-.069 5.256zm9.555-3.943.057 1.065-1.037-.014-1.035-.014.013-.959c.007-.528.086-1.039.177-1.136.09-.097.526-.138.967-.092.77.082.805.13.858 1.15zm16.81 4.29L97 48.252l-4.659-.062-4.659-.06.07-5.257.068-5.257 4.66.062 4.659.061-.07 5.256zm-33.867-.321-.041 3.129 2.841.037 2.84.038.042-3.13.041-3.128-2.84-.038-2.842-.037-.041 3.129zm26.365.347-.041 3.129 2.84.037 2.842.038.041-3.13.041-3.128-2.841-.037-2.84-.038-.042 3.129zM74.444 52.21l-.11 8.26-2.84-.037-2.841-.037-.014 1-.013 1.002 2.841.038 2.841.037-.013 1.001-.013 1.002.909.011.91.012.012-1.001.014-1.001.909.012 2.775.036.013-1 .013-1.002-2.775-.036-.909-.012.028-2.128.028-2.128 1.819.024 1.817.024.014-1.001.013-1.001 2.954.039 2.956.039-.027 2.002-.026 2.002 1.818.024 1.818.024-.014 1.127-.015 1.126-2.841-.037-2.842-.038.013-1.001.014-1.001-.91-.012-.908-.012-.013 1-.014 1.002.91.012.908.012-.028 2.128-.028 2.127-.909-.012-.909-.012.015-1.126.015-1.126-.897-.012-1.035-.014-.028 2.128-1.876.048-1.876.048-.013.99c-.013.99-.015.992-.923.98l-.909-.012-.013 1.001-.013 1.001.909.012.91.012-.029 2.128-.028 2.127-.91-.012-.908-.012-.04 3.004-.039 3.003 2.727.036 2.728.036.013-1 .013-1.002-.91-.012-.908-.012.013-1.001.013-1.001-.909-.012-.91-.012.014-1.002.013-1 1.805.023 1.805.024.085-1.063.084-1.063 1.802-.034-.029 2.186 1.949.025.028-2.185.966.003 4.718-.006-.015 1.131-.015 1.132-1.819-.024-1.818-.024-.013 1.001-.013 1.002.909.012.909.012-.013 1-.013 1.002-.91-.012-.908-.012-.014 1.001-.013 1.001.91.012.908.012.014-1.01.013-1.013 1.874.098 1.874.097-.012.94-.013.938.984.013.983.012-.048-2.003-.047-2.004 2.784.037 2.784.037.013-1.001.013-1.001-1.818-.024-1.818-.024.015-1.127.014-1.126.91.012.909.012.013-1.001c.013-.999.01-1.001-.883-1.013-.892-.012-.896-.007-.98 1.051-.083 1.052-.093 1.063-.957 1.051l-.872-.011-.01-2.066-.009-2.065.966.013.966.012.028-2.127.028-2.128.91.012.908.012.014-1 .013-1.002-.91-.012-.908-.012-.014 1.001-.013 1.001-.966-.012-.966-.012.1-2.002.101-2.002-1.04-.014-1.04-.014.015-1.126.015-1.126 1.023.013 1.022.014-.013 1.001-.013 1.001.909.012.91.012.012-1 .014-1.002-.91-.012-.909-.012.013-1.001.013-1.002-1.022-.013-1.023-.013.013-1.002.014-1.001-4.66-.061-4.659-.062.013-.986c.013-.982.008-.988-.952-1.077l-.965-.09-.039-2.065-.038-2.066-.9-.012-.9-.012-.028 2.128-.028 2.127-.91-.012-.909-.012.041-3.129.042-3.128-.91-.012-.909-.012-.108 8.26zm7.543-3.155-.013 1.002.908.012.91.012.013-1.002.013-1-.91-.013-.908-.012-.013 1.001zm-22.798 4.958-.026 2.002.91.012.908.012.013-1.001.013-1.002 1.932.026 1.932.025-.041 3.129-.041 3.129-1.932-.025-1.932-.026.013-1.001.013-1.002-.909-.011-.909-.012-.026 2.002-.027 2.002 3.742.05 3.74.049.094-2.064.093-2.065 2.785-.033 2.785-.034.013-.993.013-.994-1.818-.024-1.818-.024.013-1 .013-1.002 1.818.024 1.819.024.013-1.001.013-1.002-1.818-.023-1.819-.024-.013 1.001-.013 1.001-1.932-.025-1.932-.026.013-1 .013-1.002-2.84-.038-2.841-.037-.027 2.003zm35.924-.529-.013 1.001.91.012.908.012-.026 2.003-.027 2.002.91.012.909.012.04-3.004.039-3.003-1.819-.024-1.818-.024-.013 1.001zm-5.708 1.928-.013 1-.91-.011-.909-.012.013-1.001.014-1.001.909.012.91.012-.014 1zm1.963 6.284-.013 1.001-1.023-.013-1.023-.014.014-1 .013-1.002 1.022.014 1.023.013-.013 1.001zm-3.918 4.079-.015 1.126 1.932.026 1.932.025-.014 1.002-.013 1-1.932-.025-1.932-.025.014-1.001.013-1.002-1.023-.013-1.023-.013.013-.96c.007-.528.082-1.034.166-1.124.085-.09.546-.16 1.025-.153l.871.011-.014 1.126zm-28.493 5.883-.094 7.134 6.591.087 6.591.087.094-7.134.094-7.133-6.591-.087-6.591-.087-.094 7.133zm37.853-5.697c.056.888.105.945.91 1.028l.851.09.014-1.017.013-1.016-.923-.012-.923-.012.058.939zm-26.489 5.847-.067 5.131-4.774-.063-4.773-.062.068-5.132.068-5.13 4.773.062 4.773.063-.068 5.131zm7.555-4.03-.013 1-.91-.012-.909-.012.013-1 .014-1.002.909.012.909.012-.013 1.001zm5.682.074-.013 1.001-.91-.012-.909-.012.014-1 .013-1.002.909.012.909.012-.013 1.001zM62.82 71.71l-.041 3.13 2.84.037 2.841.037.042-3.129.04-3.128-2.84-.038-2.841-.037-.041 3.128zm18.81 4.379-.04 3.003.91.012.908.012.04-3.003.013-1.001-.91-.012-.908-.012-.013 1zm15.137 1.367c-.085.091-.16.54-.165 1-.01.806.02.834.898.846l.91.012.012-1.001c.013-.968-.012-1.002-.744-1.011-.417-.006-.827.064-.911.154z" fill="#000"/>
    <path d="M115.646 85.558c5.227 4.612-.575 24.387-4.129 33.698l-5.418-.071c.278-21.079 3.012-39.394 9.547-33.627z" fill="#fff"/>
    <path fill-rule="evenodd" clip-rule="evenodd" d="M113.366 84.788c.602.009 1.293.305 2.08 1 1.21 1.067 1.822 3.058 1.956 5.687.135 2.614-.207 5.782-.826 9.114-1.219 6.566-3.503 13.708-5.266 18.359l-4.903-.065c.149-10.418.902-20.111 2.414-26.508.767-3.243 1.716-5.577 2.834-6.748.549-.576 1.117-.847 1.711-.84zm-5.135 7.445c-1.543 6.527-2.296 16.404-2.435 26.948l-.004.306 5.932.078.076-.199c1.782-4.666 4.127-11.956 5.373-18.665.622-3.352.973-6.575.836-9.257-.137-2.667-.76-4.878-2.164-6.117-.847-.747-1.671-1.14-2.47-1.15-.808-.012-1.528.366-2.158 1.026-1.241 1.3-2.218 3.781-2.986 7.03z" fill="#000"/>
    <path d="M121.294 101.034c3.543 4.342-4.193 13.854-8.48 18.458l-3.142-.041c2.176-8.82 6.396-24.821 11.622-18.417z" fill="#000"/>
    <path fill-rule="evenodd" clip-rule="evenodd" d="m113.689 87.887-2.092 12.165-2.47-3.298-.484.368 2.812 3.756-2.011 11.693-1.577-2.176-.49.361 1.923 2.652-1.009 5.867.598.104 2.033-11.821 2.942-1.206-.229-.567-2.591 1.063 2.079-12.086 2.715-1.965-.353-.497-2.214 1.602 1.016-5.911-.598-.104z" fill="#000"/>
    <path fill-rule="evenodd" clip-rule="evenodd" d="m117.271 106.171 1.667-3.548.548.262-3.572 7.603 2.437.032-.008.612-2.715-.036-3.946 8.399-.549-.262 1.971-4.193-.599-2.691.592-.134.429 1.927 3.37-7.173-1.02-3.065.575-.195.82 2.462z" fill="#fff"/>
    <path d="m30.662 66.266-.544 4.559c.464.544 1.878 1.611 3.828 1.52 1.95-.092 3.387-1.292 3.86-1.881l-.768-4.497c2.438-.114 2.88-2.779 2.956-5.238.075-2.458-.866-10.724-7.514-8.146-5.317 2.063-3.428 9.982-1.818 13.683z" fill="#fff"/>
    <path fill-rule="evenodd" clip-rule="evenodd" d="M36.347 52.702c-.93-.41-2.15-.457-3.757.166-2.487.964-3.322 3.295-3.313 5.94.009 2.646.868 5.509 1.663 7.336l.033.076-.537 4.502c.496.515 1.773 1.399 3.496 1.318 1.731-.081 3.04-1.095 3.552-1.665l-.803-4.696.343-.017c.551-.025.974-.193 1.306-.455.335-.265.595-.639.793-1.1.4-.932.53-2.162.567-3.387.037-1.203-.178-3.825-1.201-5.812-.51-.989-1.205-1.793-2.142-2.206zm2.68 1.925c1.09 2.116 1.308 4.856 1.27 6.111-.038 1.235-.168 2.566-.617 3.61-.226.527-.54.994-.975 1.338a2.72 2.72 0 0 1-1.313.553l.737 4.309-.086.108c-.512.635-2.023 1.897-4.083 1.993-2.064.097-3.563-1.027-4.072-1.626l-.087-.102.55-4.609c-.806-1.877-1.672-4.782-1.681-7.5-.01-2.755.87-5.415 3.701-6.513 1.717-.666 3.108-.646 4.22-.156 1.107.489 1.89 1.42 2.437 2.484z" fill="#000"/>
    <path d="m35.774 63.003-.613 3.05c-2.786.698-3.724.742-4.874.23-1.151-.513-2.909-6.096-3.226-8.914-.316-2.817 2.078-3.874 3.365-4.5 7.565-7.154 11.538-2.43 11.275.037-.21 1.974-3.11 3.23-4.532 3.611-.193 1.268-.652 3.845-.945 4.01-.366.206-1.032-2.028-2.088-.468-.845 1.248.74 2.483 1.638 2.944z" fill="#000"/>
    <path d="m70.713 41.103-.172 13.117a.303.303 0 0 0 .45.27l3.354-1.869a.306.306 0 0 0 .156-.27l-.169-14.044a.303.303 0 0 0-.508-.22l-3.013 2.796a.306.306 0 0 0-.098.22z" fill="#fff"/>
    <path fill-rule="evenodd" clip-rule="evenodd" d="M73.618 37.863a.606.606 0 0 1 1.018.44l.168 14.044a.61.61 0 0 1-.312.54l-3.354 1.87a.607.607 0 0 1-.9-.542L70.41 41.1a.61.61 0 0 1 .196-.44l3.012-2.796zm.411.448-3.012 2.796-.173 13.116 3.354-1.869-.169-14.043z" fill="#000"/>
    <path d="M73.025 50.815c-.312.902-1.664 2.872-2.301 3.744l3.342 2.686c.257-.5 1-1.874 1.92-3.372 1.151-1.872 1.534-2.433 1.408-7.152-.1-3.776-1.931-5.31-2.93-5.511l-.074 5.66c-.12-.316-.39-1.703-1.3-.96-1.139.928.325 3.778-.065 4.905z" fill="#fff"/>
    <path fill-rule="evenodd" clip-rule="evenodd" d="m74.166 40.838.359.073c1.185.24 3.07 1.94 3.173 5.802.062 2.36 0 3.715-.233 4.721-.23.99-.624 1.63-1.17 2.518a57.107 57.107 0 0 0-1.96 3.433l-.17.33-3.858-3.1.172-.236a38.87 38.87 0 0 0 1.262-1.846c.46-.718.855-1.407.998-1.818.07-.205.065-.527 0-.967-.039-.267-.094-.545-.151-.837-.037-.183-.074-.373-.11-.569-.087-.487-.158-.998-.126-1.454.031-.458.17-.908.546-1.215.266-.217.543-.325.82-.27.157.03.283.107.385.201l.063-4.766zm.596.797-.069 5.239-.586.106c-.018-.049-.038-.113-.057-.173l-.002-.009a6.56 6.56 0 0 0-.07-.215 1.909 1.909 0 0 0-.194-.42c-.078-.117-.141-.154-.182-.162-.034-.006-.132-.01-.322.145-.192.157-.297.411-.323.784-.026.375.031.822.118 1.303.031.173.067.353.102.533.06.306.122.614.163.893.064.441.096.897-.029 1.256-.17.49-.605 1.238-1.06 1.948a39.545 39.545 0 0 1-1.111 1.64l2.83 2.273c.345-.648.99-1.813 1.759-3.063l.032-.053c.56-.91.906-1.473 1.113-2.364.214-.922.28-2.207.217-4.567-.085-3.212-1.443-4.664-2.329-5.094z" fill="#000"/>
    <path d="M18.318 74.472c5.324-5.364 11.7-5.13 17.704-5.05 2.993.216 9.658.432 12.371-.438 3.392-1.087 8.67-2.905 10.378-4.392 1.708-1.487 8.589-11.02 10.472-11.562 1.884-.542 6.71 3.485 6.692 4.806-.018 1.32-6.94 16.703-9.808 19.496-2.87 2.793-11.769 8.903-13.282 9.827.3 1.976.917 7.169.984 12.124.142 5.251.186 15.22-.536 19.207l-41.755-.549c-1.548-5.814-3.656-16.734-3.483-19.26.232-3.394 3.608-17.503 10.263-24.209z" fill="#fff"/>
    <path fill-rule="evenodd" clip-rule="evenodd" d="M70.962 53.645c-.707-.317-1.275-.426-1.636-.322-.167.048-.438.217-.808.531-.36.305-.78.719-1.245 1.211-.93.986-2.014 2.268-3.098 3.586-.541.658-1.082 1.324-1.601 1.965l-.052.063c-.5.618-.982 1.21-1.425 1.75-.909 1.103-1.677 2.001-2.127 2.394-.456.397-1.134.803-1.928 1.203a34.51 34.51 0 0 1-2.717 1.196c-1.967.78-4.141 1.508-5.84 2.053-1.405.45-3.793.613-6.169.64a80.67 80.67 0 0 1-6.307-.189l-.436-.006c-5.884-.08-11.948-.164-17.04 4.968-3.28 3.305-5.77 8.457-7.47 13.233-1.7 4.775-2.592 9.122-2.705 10.78-.041.597.053 1.723.251 3.196.197 1.463.491 3.241.84 5.125.68 3.671 1.564 7.731 2.322 10.617l41.267.543c.327-2.001.485-5.329.544-8.827.061-3.641.015-7.441-.056-10.063v-.004c-.067-4.938-.682-10.116-.98-12.083l-.031-.201.172-.106c.747-.455 3.342-2.208 6.114-4.2 2.776-1.994 5.7-4.207 7.115-5.585.681-.664 1.633-2.111 2.688-3.97 1.048-1.848 2.179-4.067 3.223-6.244a130.422 130.422 0 0 0 2.692-5.97 44.6 44.6 0 0 0 .821-2.094c.097-.273.172-.5.221-.677.053-.186.07-.289.07-.326.001-.083-.04-.232-.165-.453a4.801 4.801 0 0 0-.534-.728c-.463-.535-1.107-1.132-1.814-1.674-.707-.543-1.467-1.022-2.156-1.332zm5.03 3.431c.143.25.25.516.246.764-.002.127-.04.3-.093.484-.055.196-.134.437-.234.717-.198.56-.484 1.285-.833 2.123a131.168 131.168 0 0 1-2.705 6c-1.047 2.184-2.185 4.417-3.242 6.28-1.051 1.852-2.04 3.375-2.794 4.107-1.453 1.415-4.414 3.654-7.183 5.644-2.594 1.863-5.045 3.526-5.98 4.117.31 2.118.893 7.15.959 11.965.07 2.629.117 6.437.055 10.089-.061 3.644-.23 7.157-.596 9.179l-.046.254-42.242-.556-.06-.223c-.776-2.917-1.692-7.108-2.391-10.887-.35-1.889-.647-3.677-.845-5.154-.197-1.467-.301-2.652-.256-3.32.12-1.735 1.03-6.14 2.74-10.943 1.71-4.803 4.236-10.058 7.612-13.46 5.276-5.316 11.577-5.228 17.42-5.146l.502.007h.018c1.49.108 3.896.216 6.265.188 2.383-.027 4.685-.192 5.992-.611 1.694-.544 3.854-1.267 5.801-2.04.974-.386 1.891-.783 2.668-1.174.782-.393 1.404-.772 1.803-1.119.403-.351 1.136-1.203 2.057-2.321.441-.537.921-1.13 1.423-1.748l.05-.062c.52-.64 1.062-1.308 1.605-1.968 1.085-1.32 2.18-2.615 3.124-3.617.472-.5.911-.931 1.295-1.257.374-.317.73-.564 1.033-.652.58-.166 1.323.026 2.05.352.744.334 1.543.843 2.276 1.404.732.562 1.409 1.186 1.904 1.76.248.285.455.566.603.824z" fill="#000"/>
    <path d="M62.124 80.676c1.889-6.618 5.74-8.353 7.428-8.394-.64 1.124-2.15 3.67-3.066 4.866-.916 1.196-3.29 2.85-4.362 3.528zM9.076 106.62c2.19-6.765 1.03-11.75.176-13.396-.324.876-1.017 3.194-1.197 5.457-.18 2.262.606 6.235 1.021 7.939zm5.696-19.362c-2.298 9.362-2.35 22.711-1.984 30.699l1.35.018c-.65-16.851.126-27.394.634-30.717z" fill="#000"/>
</svg>
