<svg width="40" height="40" viewBox="0 0 40 40" fill="none" xmlns="http://www.w3.org/2000/svg">
<path d="M22.0271 13.8105H21.697C21.5035 12.9647 21.1662 12.1736 20.712 11.4645L20.9548 11.2216C21.2346 10.9417 21.2346 10.488 20.9548 10.2081L19.6645 8.91781C19.3846 8.63797 18.9309 8.63797 18.651 8.91781L18.399 9.16984C17.6913 8.72406 16.9037 8.39422 16.0623 8.20656V7.84563C16.0623 7.44984 15.7415 7.12891 15.3457 7.12891H13.5209C13.1251 7.12891 12.8043 7.44984 12.8043 7.84563V8.20656C11.9629 8.39422 11.1751 8.72422 10.4676 9.16984L10.2155 8.91781C9.9357 8.63797 9.48195 8.63797 9.20211 8.91781L7.9118 10.2081C7.63195 10.488 7.63195 10.9417 7.9118 11.2216L8.15477 11.4645C7.70055 12.1734 7.3632 12.9645 7.16977 13.8105H6.83961C6.44383 13.8105 6.12305 14.1312 6.12305 14.5272V16.352C6.12305 16.7478 6.44383 17.0687 6.83961 17.0687H7.15258C7.33867 17.925 7.6718 18.7264 8.12445 19.445L7.91195 19.6575C7.63211 19.9373 7.63211 20.3911 7.91195 20.6709L9.20227 21.9612C9.48211 22.2411 9.93586 22.2411 10.2157 21.9612L10.4191 21.7578C11.1391 22.2191 11.9438 22.5595 12.8045 22.7514V23.0336C12.8045 23.4294 13.1254 23.7502 13.521 23.7502H15.3459C15.7416 23.7502 16.0624 23.4294 16.0624 23.0336V22.7514C16.923 22.5594 17.7277 22.2191 18.4477 21.7578L18.6512 21.9612C18.931 22.2411 19.3848 22.2411 19.6646 21.9612L20.9549 20.6709C21.2348 20.3911 21.2348 19.9373 20.9549 19.6575L20.7424 19.445C21.1951 18.7264 21.5282 17.925 21.7143 17.0687H22.0273C22.423 17.0687 22.7438 16.748 22.7438 16.352V14.527C22.7437 14.1312 22.4229 13.8105 22.0271 13.8105ZM14.4332 19.1652C12.3755 19.1652 10.7074 17.497 10.7074 15.4394C10.7074 13.3817 12.3755 11.7136 14.4332 11.7136C16.4909 11.7136 18.159 13.3817 18.159 15.4394C18.159 17.497 16.4909 19.1652 14.4332 19.1652Z" fill="#7210FF"/>
<path d="M15.3459 23.9844H13.5212C12.9968 23.9844 12.5701 23.5578 12.5701 23.0334V22.9367C11.8227 22.7508 11.1123 22.4548 10.4532 22.055L10.3813 22.1267C10.0105 22.4977 9.40727 22.4975 9.03648 22.1267L7.74617 20.8364C7.37539 20.4656 7.37539 19.8623 7.74617 19.4916L7.82805 19.4097C7.43586 18.7523 7.14664 18.0453 6.96602 17.303H6.83961C6.31523 17.303 5.88867 16.8764 5.88867 16.352V14.527C5.88867 14.0027 6.31523 13.5761 6.83961 13.5761H6.98523C7.1718 12.8434 7.46445 12.1461 7.85742 11.4986L7.74617 11.3873C7.37539 11.0166 7.37539 10.4133 7.74617 10.0425L9.03648 8.75219C9.40742 8.38141 10.0105 8.38125 10.3813 8.75219L10.5027 8.87344C11.1484 8.48828 11.8423 8.20234 12.5701 8.02109V7.84547C12.5701 7.32109 12.9968 6.89453 13.5212 6.89453H15.346C15.8704 6.89453 16.297 7.32125 16.297 7.84547V8.02109C17.0249 8.20234 17.7187 8.48828 18.3643 8.87344L18.4857 8.75203C18.8565 8.38141 19.4598 8.38125 19.8305 8.75203L21.1209 10.0425C21.4916 10.4133 21.4916 11.0166 21.1209 11.3873L21.0096 11.4986C21.4026 12.1461 21.6952 12.8434 21.8818 13.5761H22.0274C22.5518 13.5761 22.9784 14.0027 22.9784 14.527V16.3519C22.9784 16.8763 22.5518 17.3028 22.0274 17.3028H21.901C21.7204 18.0452 21.431 18.7523 21.039 19.4095L21.1209 19.4914C21.4916 19.8622 21.4916 20.4655 21.1209 20.8363L19.8305 22.1266C19.4596 22.4975 18.8563 22.4972 18.4857 22.1266L18.414 22.0548C17.7549 22.4547 17.0445 22.7506 16.2971 22.9366V23.0333C16.297 23.5578 15.8702 23.9844 15.3459 23.9844ZM10.4193 21.5233C10.4629 21.5233 10.5068 21.5355 10.5457 21.5603C11.256 22.0153 12.0332 22.3391 12.8557 22.5227C12.9629 22.5466 13.039 22.6416 13.039 22.7514V23.0336C13.039 23.2995 13.2554 23.5158 13.5213 23.5158H15.3462C15.6121 23.5158 15.8284 23.2994 15.8284 23.0336V22.7514C15.8284 22.6416 15.9046 22.5466 16.0116 22.5227C16.8341 22.3392 17.6113 22.0155 18.3216 21.5603C18.4141 21.5009 18.5359 21.5141 18.6138 21.592L18.8173 21.7955C19.0052 21.9834 19.3112 21.9836 19.4993 21.7955L20.7896 20.5052C20.9776 20.317 20.9776 20.0112 20.7896 19.8231L20.5771 19.6106C20.4996 19.5333 20.4862 19.4125 20.5445 19.32C20.9912 18.6106 21.3079 17.8364 21.4855 17.0187C21.509 16.9111 21.6043 16.8342 21.7146 16.8342H22.0276C22.2935 16.8342 22.5098 16.6178 22.5098 16.352V14.527C22.5098 14.2611 22.2934 14.0448 22.0276 14.0448H21.6974C21.588 14.0448 21.4934 13.9694 21.469 13.8628C21.2841 13.0548 20.9632 12.2905 20.5151 11.5911C20.4557 11.4984 20.4688 11.3767 20.5468 11.2989L20.7898 11.0559C20.9777 10.8678 20.9777 10.562 20.7898 10.3739L19.4995 9.08359C19.3113 8.89562 19.0054 8.89578 18.8174 9.08359L18.5654 9.33563C18.488 9.41297 18.3674 9.42656 18.2748 9.36813C17.5765 8.92844 16.8152 8.61453 16.012 8.43531C15.9048 8.41141 15.8287 8.31641 15.8287 8.20656V7.84547C15.8287 7.57953 15.6123 7.36328 15.3465 7.36328H13.5212C13.2552 7.36328 13.0388 7.57969 13.0388 7.84547V8.20656C13.0388 8.31641 12.9626 8.41141 12.8555 8.43531C12.0523 8.61453 11.2909 8.92844 10.5926 9.36813C10.4999 9.42656 10.3793 9.41297 10.302 9.33563L10.0499 9.08359C9.86195 8.89562 9.55586 8.89578 9.36789 9.08359L8.07758 10.3739C7.88961 10.562 7.88961 10.8678 8.07758 11.0559L8.32055 11.2989C8.39852 11.3767 8.41164 11.4983 8.35227 11.5911C7.90414 12.2906 7.5832 13.0548 7.3982 13.8628C7.37383 13.9694 7.27898 14.0448 7.16977 14.0448H6.83961C6.57367 14.0448 6.35742 14.2612 6.35742 14.527V16.3519C6.35742 16.6178 6.57383 16.8341 6.83961 16.8341H7.15258C7.26273 16.8341 7.3582 16.9109 7.38164 17.0187C7.5593 17.8361 7.87602 18.6103 8.32273 19.3198C8.38117 19.4123 8.36758 19.5331 8.29023 19.6105L8.07773 19.823C7.88977 20.0111 7.88977 20.3169 8.07773 20.505L9.36805 21.7953C9.55586 21.9833 9.86195 21.9833 10.0501 21.7953L10.2535 21.5919C10.2987 21.5466 10.3587 21.5233 10.4193 21.5233ZM14.4335 19.3995C12.2499 19.3995 10.4734 17.623 10.4734 15.4394C10.4734 13.2558 12.2499 11.4792 14.4335 11.4792C16.6171 11.4792 18.3937 13.2558 18.3937 15.4394C18.3937 17.623 16.6171 19.3995 14.4335 19.3995ZM14.4335 11.9481C12.5084 11.9481 10.9421 13.5144 10.9421 15.4395C10.9421 17.3647 12.5084 18.9309 14.4335 18.9309C16.3587 18.9309 17.9249 17.3647 17.9249 15.4395C17.9249 13.5144 16.3587 11.9481 14.4335 11.9481Z" fill="black"/>
<path d="M7.45687 4.11621C7.45687 4.11621 7.98937 6.09418 9.52281 6.1859C9.52281 6.1859 7.47594 6.89293 7.44141 8.40496C7.44141 8.40496 7.03859 6.28434 5.42188 6.20824C5.42188 6.20824 7.30484 5.92309 7.45687 4.11621Z" fill="#FFDB47"/>
<path d="M7.44124 8.6394C7.32984 8.6394 7.23265 8.56033 7.21124 8.44924C7.20749 8.42987 6.82155 6.50908 5.41093 6.44268C5.29046 6.4369 5.19405 6.34096 5.1878 6.22065C5.18171 6.10033 5.26765 5.99487 5.38687 5.9769C5.45577 5.96612 7.08905 5.69299 7.22343 4.09674C7.23296 3.98346 7.32249 3.89346 7.43577 3.88315C7.54859 3.87377 7.65327 3.94533 7.68312 4.05518C7.68812 4.0733 8.19234 5.87174 9.53687 5.95221C9.64843 5.95893 9.73952 6.04346 9.75499 6.15424C9.7703 6.26487 9.70515 6.37112 9.59968 6.40783C9.58077 6.4144 7.70624 7.08127 7.67577 8.4108C7.67296 8.53065 7.58046 8.62893 7.46093 8.63877C7.45437 8.63908 7.4478 8.6394 7.44124 8.6394ZM6.23171 6.18158C6.83765 6.48924 7.20515 7.0794 7.41702 7.56862C7.73374 6.94018 8.34546 6.50815 8.8153 6.2519C8.16937 5.96408 7.75546 5.36877 7.51312 4.88893C7.23312 5.57018 6.68968 5.96205 6.23171 6.18158Z" fill="black"/>
<path d="M4.06633 6.76953C4.06633 6.76953 4.44305 8.16859 5.52758 8.23344C5.52758 8.23344 4.07977 8.73359 4.05539 9.80297C4.05539 9.80297 3.77039 8.30297 2.62695 8.24922C2.62695 8.24922 3.95867 8.0475 4.06633 6.76953Z" fill="#FFDB47"/>
<path d="M4.05524 10.0376C3.94384 10.0376 3.84634 9.95837 3.82524 9.84696C3.82274 9.83431 3.55899 8.5279 2.61602 8.48353C2.49555 8.47775 2.39915 8.38181 2.3929 8.2615C2.38665 8.14103 2.47274 8.03571 2.5918 8.01759C2.63805 8.01025 3.74243 7.82337 3.83274 6.74978C3.84227 6.63634 3.93196 6.54618 4.04524 6.53603C4.15915 6.52634 4.26274 6.59837 4.29243 6.70821C4.29571 6.72056 4.64055 7.94571 5.54149 7.99962C5.65305 8.00634 5.74446 8.09087 5.75962 8.20165C5.77493 8.31243 5.70962 8.41853 5.60399 8.45509C5.59134 8.45946 4.30993 8.91634 4.28946 9.80853C4.28665 9.92837 4.19399 10.0268 4.07446 10.0368C4.06821 10.0374 4.0618 10.0376 4.05524 10.0376ZM3.34915 8.23634C3.67837 8.44462 3.89977 8.76681 4.04399 9.06134C4.25899 8.71259 4.59321 8.45634 4.88227 8.28446C4.52493 8.08618 4.2754 7.76103 4.11024 7.46821C3.92696 7.82556 3.6393 8.07368 3.34915 8.23634Z" fill="black"/>
<path d="M4.06633 2.60449C4.06633 2.60449 4.44305 4.00355 5.52758 4.06855C5.52758 4.06855 4.07977 4.56871 4.05539 5.63809C4.05539 5.63809 3.77039 4.13809 2.62695 4.08434C2.6268 4.08418 3.95867 3.88246 4.06633 2.60449Z" fill="#FFDB47"/>
<path d="M4.05509 5.87257C3.94368 5.87257 3.84618 5.79335 3.82509 5.68195C3.82259 5.66929 3.55884 4.36304 2.61587 4.31851C2.49555 4.31273 2.39915 4.21679 2.3929 4.09648C2.38665 3.97601 2.47274 3.8707 2.5918 3.85257C2.63805 3.84523 3.74243 3.65836 3.83274 2.58476C3.84227 2.47132 3.93196 2.38117 4.04524 2.37101C4.15915 2.36117 4.26274 2.43351 4.29243 2.5432C4.29571 2.55554 4.64055 3.7807 5.54149 3.83461C5.65305 3.84132 5.74446 3.92585 5.75962 4.03664C5.77493 4.14742 5.70977 4.25351 5.60399 4.29007C5.59134 4.29445 4.30993 4.75148 4.28946 5.64351C4.28665 5.76336 4.19399 5.86179 4.07446 5.87179C4.06805 5.87226 4.06165 5.87257 4.05509 5.87257ZM3.34899 4.07132C3.67821 4.2796 3.89962 4.60164 4.04384 4.89632C4.25884 4.54757 4.59321 4.29132 4.88212 4.11929C4.52477 3.92085 4.27524 3.59586 4.11009 3.30304C3.9268 3.66039 3.63915 3.90867 3.34899 4.07132Z" fill="black"/>
<path d="M15.6753 8.21436H35.5251V24.8439H15.6753V8.21436Z" fill="white"/>
<path d="M35.5251 25.0783H15.6753C15.5458 25.0783 15.4409 24.9734 15.4409 24.8439V8.21436C15.4409 8.08482 15.5458 7.97998 15.6753 7.97998H35.5251C35.6547 7.97998 35.7595 8.08482 35.7595 8.21436V24.8439C35.7595 24.9734 35.6545 25.0783 35.5251 25.0783ZM15.9097 24.6095H35.2908V8.44873H15.9097V24.6095Z" fill="black"/>
<path d="M22.4161 2.53906H18.6878L13.8276 8.21422H37.3729L32.5129 2.53906H24.6676H22.4161Z" fill="#FFDB47"/>
<path d="M37.3728 8.44859H13.8277C13.7363 8.44859 13.653 8.39531 13.6147 8.31219C13.5764 8.22906 13.5902 8.13125 13.6497 8.06172L18.5097 2.38656C18.5542 2.33453 18.6192 2.30469 18.6877 2.30469H22.416C22.5455 2.30469 22.6503 2.40953 22.6503 2.53906C22.6503 2.66859 22.5455 2.77344 22.416 2.77344H18.7956L14.3369 7.97984H36.8636L32.405 2.77344H24.6675C24.538 2.77344 24.4331 2.66859 24.4331 2.53906C24.4331 2.40953 24.538 2.30469 24.6675 2.30469H32.5128C32.5813 2.30469 32.6463 2.33453 32.6908 2.38656L37.5508 8.06172C37.6103 8.13125 37.6239 8.22906 37.5858 8.31219C37.5475 8.39531 37.4644 8.44859 37.3728 8.44859Z" fill="black"/>
<path d="M28.3982 20.9601V24.8393H22.8022V20.9601C22.8022 19.4143 24.0544 18.1621 25.6002 18.1621C26.373 18.1621 27.0721 18.4746 27.5788 18.9815C28.0857 19.4882 28.3982 20.1871 28.3982 20.9601Z" fill="#C3C9FB"/>
<path d="M28.3982 25.0737H22.8022C22.6727 25.0737 22.5679 24.9688 22.5679 24.8393V20.9601C22.5679 19.288 23.9282 17.9277 25.6002 17.9277C26.4105 17.9277 27.1721 18.243 27.7446 18.8157C28.3172 19.3882 28.6326 20.1499 28.6326 20.9601V24.8393C28.6326 24.9687 28.5276 25.0737 28.3982 25.0737ZM23.0366 24.6049H28.1638V20.9601C28.1638 20.2751 27.8972 19.6312 27.4132 19.1471C26.9291 18.663 26.2852 18.3965 25.6002 18.3965C24.1866 18.3965 23.0366 19.5465 23.0366 20.9601V24.6049Z" fill="black"/>
<path d="M25.6001 25.0737C25.4706 25.0737 25.3657 24.9688 25.3657 24.8393V18.1621C25.3657 18.0326 25.4706 17.9277 25.6001 17.9277C25.7296 17.9277 25.8345 18.0326 25.8345 18.1621V24.8393C25.8345 24.9687 25.7296 25.0737 25.6001 25.0737Z" fill="black"/>
<path d="M17.7236 18.6514H21.9682V19.5911H17.7236V18.6514Z" fill="#C7C4CC"/>
<path d="M21.9682 19.8254H17.7236C17.5941 19.8254 17.4893 19.7206 17.4893 19.5911V18.6514C17.4893 18.5218 17.5941 18.417 17.7236 18.417H21.9682C22.0977 18.417 22.2025 18.5218 22.2025 18.6514V19.5911C22.2025 19.7204 22.0977 19.8254 21.9682 19.8254ZM17.958 19.3567H21.7338V18.8857H17.958V19.3567Z" fill="black"/>
<path d="M21.9682 18.6513H17.7236V15.3296C17.7236 14.8199 18.1368 14.4067 18.6464 14.4067H21.0454C21.555 14.4067 21.9682 14.8199 21.9682 15.3296V18.6513Z" fill="#C3C9FB"/>
<path d="M21.9682 18.8856H17.7236C17.5941 18.8856 17.4893 18.7808 17.4893 18.6513V15.3296C17.4893 14.6916 18.0083 14.1724 18.6464 14.1724H21.0452C21.6833 14.1724 22.2024 14.6914 22.2024 15.3296V18.6513C22.2025 18.7806 22.0977 18.8856 21.9682 18.8856ZM17.958 18.4169H21.7338V15.3296C21.7338 14.95 21.4249 14.6411 21.0454 14.6411H18.6466C18.2669 14.6411 17.9582 14.95 17.9582 15.3296L17.958 18.4169Z" fill="black"/>
<path d="M21.9682 16.7637H17.7236C17.5941 16.7637 17.4893 16.6588 17.4893 16.5293C17.4893 16.3998 17.5941 16.2949 17.7236 16.2949H21.9682C22.0977 16.2949 22.2025 16.3998 22.2025 16.5293C22.2025 16.6587 22.0977 16.7637 21.9682 16.7637Z" fill="black"/>
<path d="M19.8462 18.8856C19.7167 18.8856 19.6118 18.7808 19.6118 18.6513V14.4067C19.6118 14.2772 19.7167 14.1724 19.8462 14.1724C19.9757 14.1724 20.0806 14.2772 20.0806 14.4067V18.6513C20.0806 18.7806 19.9756 18.8856 19.8462 18.8856Z" fill="black"/>
<path d="M29.2324 18.6514H33.477V19.5911H29.2324V18.6514Z" fill="#C7C4CC"/>
<path d="M33.4765 19.8254H29.2319C29.1024 19.8254 28.9976 19.7206 28.9976 19.5911V18.6514C28.9976 18.5218 29.1024 18.417 29.2319 18.417H33.4765C33.606 18.417 33.7108 18.5218 33.7108 18.6514V19.5911C33.7108 19.7204 33.606 19.8254 33.4765 19.8254ZM29.4665 19.3567H33.2422V18.8857H29.4665V19.3567Z" fill="black"/>
<path d="M33.477 18.6513H29.2324V15.3296C29.2324 14.8199 29.6455 14.4067 30.1552 14.4067H32.5541C33.0638 14.4067 33.477 14.8199 33.477 15.3296V18.6513Z" fill="#C3C9FB"/>
<path d="M33.4765 18.8856H29.2319C29.1024 18.8856 28.9976 18.7808 28.9976 18.6513V15.3296C28.9976 14.6916 29.5166 14.1724 30.1547 14.1724H32.5537C33.1916 14.1724 33.7108 14.6914 33.7108 15.3296V18.6513C33.7108 18.7806 33.606 18.8856 33.4765 18.8856ZM29.4665 18.4169H33.2422V15.3296C33.2422 14.95 32.9333 14.6411 32.5538 14.6411H30.1549C29.7752 14.6411 29.4665 14.95 29.4665 15.3296V18.4169Z" fill="black"/>
<path d="M33.4765 16.7637H29.2319C29.1024 16.7637 28.9976 16.6588 28.9976 16.5293C28.9976 16.3998 29.1024 16.2949 29.2319 16.2949H33.4765C33.606 16.2949 33.7108 16.3998 33.7108 16.5293C33.7108 16.6587 33.606 16.7637 33.4765 16.7637Z" fill="black"/>
<path d="M31.3545 18.8856C31.225 18.8856 31.1201 18.7808 31.1201 18.6513V14.4067C31.1201 14.2772 31.225 14.1724 31.3545 14.1724C31.484 14.1724 31.5889 14.2772 31.5889 14.4067V18.6513C31.5889 18.7806 31.484 18.8856 31.3545 18.8856Z" fill="black"/>
<path d="M7.84277 32.3507L11.4625 33.9274L13.997 35.0341L18.5079 36.9987C19.6225 37.4393 20.8368 37.5687 22.0198 37.3708L36.3184 34.2683C36.7748 34.1919 37.0451 33.9099 37.2057 33.5926C37.5917 32.8307 37.2861 31.863 36.532 31.4635C36.2421 31.3107 35.9111 31.2324 35.5664 31.2441L28.1606 31.5282L18.7529 27.078C16.7021 26.1085 14.4203 25.7383 12.1696 26.0087L10.45 26.2163C9.79371 26.2946 9.12387 26.1869 8.52449 25.9029L7.84293 25.5796L7.84277 32.3507Z" fill="white"/>
<path d="M20.9313 37.6945C20.0731 37.6945 19.2226 37.5332 18.4213 37.2164L7.74869 32.5653C7.66322 32.5281 7.60791 32.4437 7.60791 32.3504V25.5792C7.60791 25.4988 7.64916 25.424 7.71697 25.381C7.78494 25.3381 7.8701 25.3329 7.9426 25.3673L8.62432 25.6906C9.18353 25.9556 9.80541 26.0565 10.4215 25.9831L12.1409 25.7754C14.4392 25.4996 16.7599 25.8764 18.8524 26.8657L28.2084 31.2914L35.5568 31.0095C35.9353 30.997 36.3107 31.0818 36.6407 31.2559C37.5149 31.719 37.8618 32.8146 37.4143 33.6982C37.1885 34.1442 36.8229 34.4212 36.3567 34.4993L22.069 37.5998C21.6909 37.6629 21.3104 37.6945 20.9313 37.6945ZM8.07682 32.1968L18.6012 36.7835C19.6696 37.206 20.841 37.3301 21.9809 37.1395L36.2684 34.039C36.6015 33.9829 36.836 33.8029 36.9962 33.4865C37.3235 32.8403 37.0604 32.0085 36.4218 31.6703C36.1645 31.5345 35.8715 31.4689 35.5738 31.4779L28.169 31.762C28.1301 31.7631 28.0938 31.7556 28.0598 31.7396L18.652 27.2895C16.6396 26.3381 14.4078 25.9756 12.197 26.2409L10.4774 26.4485C9.77307 26.5328 9.0626 26.4171 8.42369 26.1143L8.07666 25.9498L8.07682 32.1968Z" fill="black"/>
<path d="M25.8367 33.5974C25.3756 33.5974 24.9206 33.5278 24.4992 33.4634C23.015 33.2363 21.7317 32.9199 20.373 32.5849C19.08 32.2662 17.743 31.9365 16.0517 31.6313C15.9244 31.6084 15.8397 31.4865 15.8626 31.3592C15.8856 31.2318 16.0078 31.1478 16.1348 31.1701C17.8406 31.4778 19.185 31.8092 20.4851 32.1298C21.8333 32.4621 23.1066 32.776 24.57 32.9999C25.2228 33.0999 25.963 33.2129 26.6237 33.0331C27.2001 32.8762 27.8009 32.3898 27.8339 31.7637C27.8408 31.6345 27.952 31.5348 28.0803 31.542C28.2095 31.5489 28.3087 31.6592 28.302 31.7884C28.2553 32.6762 27.4631 33.2904 26.7469 33.4854C26.4464 33.5673 26.1403 33.5974 25.8367 33.5974Z" fill="black"/>
<path d="M2.68555 27.1313V35.0783H6.2782C7.14258 35.0783 7.84336 34.3775 7.84336 33.5131V24.03C7.84336 23.1656 7.14258 22.4648 6.2782 22.4648H2.68555V24.8023V27.1313Z" fill="#C3C9FB"/>
<path d="M6.2782 35.3128H2.68555C2.55602 35.3128 2.45117 35.208 2.45117 35.0784V27.1314C2.45117 27.0019 2.55602 26.897 2.68555 26.897C2.81508 26.897 2.91992 27.0019 2.91992 27.1314V34.8441H6.2782C7.01195 34.8441 7.60898 34.247 7.60898 33.5133V24.0302C7.60898 23.2963 7.01195 22.6992 6.2782 22.6992H2.91992V24.8023C2.91992 24.9319 2.81508 25.0367 2.68555 25.0367C2.55602 25.0367 2.45117 24.9319 2.45117 24.8023V22.4648C2.45117 22.3353 2.55602 22.2305 2.68555 22.2305H6.2782C7.27055 22.2305 8.07773 23.0378 8.07773 24.0302V33.5133C8.07773 34.5055 7.27039 35.3128 6.2782 35.3128Z" fill="black"/>
<path d="M6.44475 32.4624C6.44475 33.1144 5.91615 33.6431 5.26412 33.6431C4.61209 33.6431 4.0835 33.1146 4.0835 32.4624C4.0835 31.8103 4.61209 31.2817 5.26412 31.2817C5.91615 31.2817 6.44475 31.8103 6.44475 32.4624Z" fill="#FFDB47"/>
<path d="M5.26428 33.8774C4.48397 33.8774 3.84912 33.2425 3.84912 32.4624C3.84912 31.6821 4.48397 31.0474 5.26428 31.0474C6.04459 31.0474 6.67928 31.6822 6.67928 32.4624C6.67928 33.2427 6.04459 33.8774 5.26428 33.8774ZM5.26428 31.5161C4.7424 31.5161 4.31787 31.9406 4.31787 32.4624C4.31787 32.9841 4.7424 33.4086 5.26428 33.4086C5.786 33.4086 6.21053 32.9841 6.21053 32.4624C6.21053 31.9406 5.786 31.5161 5.26428 31.5161Z" fill="black"/>
<path d="M32.9468 8.44824V14.2404C33.3921 14.4014 33.7108 14.8295 33.7108 15.3295V19.5904C33.7108 19.7201 33.6062 19.8248 33.4765 19.8248H32.9468V24.6092H35.2905V8.44824H32.9468Z" fill="#DDDDDD"/>
<path d="M36.8642 7.97969H34.5204L30.061 2.77344H32.4048L36.8642 7.97969Z" fill="#FFCD00"/>
</svg>
