<svg width="40" height="40" viewBox="0 0 40 40" fill="none" xmlns="http://www.w3.org/2000/svg">
<path d="M18.7818 7.35208C19.1676 6.48645 19.3606 6.05363 19.6293 5.92035C19.8626 5.80455 20.1366 5.80455 20.3699 5.92035C20.6386 6.05363 20.8316 6.48645 21.2174 7.35208L24.2908 14.247C24.4049 14.5029 24.4619 14.6308 24.5503 14.7288C24.6283 14.8155 24.7238 14.8848 24.8303 14.9323C24.9508 14.986 25.0901 15.0007 25.3688 15.0301L32.8759 15.8224C33.8184 15.9219 34.2896 15.9716 34.4994 16.1859C34.6816 16.3721 34.7663 16.6328 34.7283 16.8905C34.6846 17.1872 34.3326 17.5043 33.6286 18.1388L28.0208 23.1925C27.8128 23.38 27.7086 23.4738 27.6428 23.588C27.5844 23.6892 27.5479 23.8013 27.5358 23.9173C27.5219 24.0485 27.5509 24.1855 27.6091 24.4597L29.1754 31.8442C29.3721 32.7713 29.4704 33.2348 29.3314 33.5005C29.2106 33.7315 28.9889 33.8925 28.7321 33.936C28.4364 33.986 28.0259 33.7493 27.2049 33.2758L20.6658 29.5042C20.4231 29.3642 20.3018 29.2943 20.1728 29.2668C20.0586 29.2427 19.9406 29.2427 19.8264 29.2668C19.6974 29.2943 19.5761 29.3642 19.3334 29.5042L12.7943 33.2758C11.9733 33.7493 11.5628 33.986 11.2672 33.936C11.0103 33.8925 10.7886 33.7315 10.6678 33.5005C10.5289 33.2348 10.6272 32.7713 10.8238 31.8442L12.3901 24.4597C12.4482 24.1855 12.4773 24.0485 12.4635 23.9173C12.4513 23.8013 12.4148 23.6892 12.3565 23.588C12.2906 23.4738 12.1865 23.38 11.9784 23.1925L6.37069 18.1388C5.66667 17.5043 5.31465 17.1872 5.27089 16.8905C5.23289 16.6328 5.31757 16.3721 5.4998 16.1859C5.7096 15.9716 6.18085 15.9219 7.12335 15.8224L14.6305 15.0301C14.9091 15.0007 15.0484 14.986 15.1689 14.9323C15.2755 14.8848 15.3709 14.8155 15.449 14.7288C15.5373 14.6308 15.5943 14.5029 15.7084 14.247L18.7818 7.35208Z" fill="#989898" stroke="#7210FF" stroke-width="2" stroke-linecap="round" stroke-linejoin="round"/>
</svg>
