<svg width="76" height="76" viewBox="0 0 76 76" fill="none" xmlns="http://www.w3.org/2000/svg">
    <path d="M38 21.997a.904.904 0 0 0 .905-.905v-2.714a.905.905 0 1 0-1.81 0v2.714a.905.905 0 0 0 .905.905z" fill="#989898"/>
    <path d="M33.741 22.185a.905.905 0 0 0 1.28-1.28l-1.81-1.81a.905.905 0 0 0-1.28 1.28l1.81 1.81zm7.878.253a.903.903 0 0 0 .64-.253l1.809-1.81a.905.905 0 0 0-1.28-1.28l-1.809 1.81a.894.894 0 0 0 .64 1.533zm-8.438 11.83-.826 4.765a.906.906 0 0 0 1.31.957L38 37.735l4.335 2.255a.906.906 0 0 0 1.31-.957l-.826-4.765 3.5-3.376a.905.905 0 0 0-.5-1.547l-4.845-.696-2.164-4.341a.905.905 0 0 0-1.62 0l-2.165 4.341-4.845.697a.905.905 0 0 0-.499 1.546l3.5 3.376zm2.57-3.896a.905.905 0 0 0 .682-.491L38 26.738l1.566 3.143a.904.904 0 0 0 .682.491l3.483.501-2.514 2.425a.906.906 0 0 0-.264.807l.597 3.436-3.133-1.629a.904.904 0 0 0-.835 0l-3.132 1.63.596-3.437a.905.905 0 0 0-.263-.807l-2.515-2.424 3.484-.502z" fill="#7210FF"/>
    <path d="m29.53 34.961-2.975-.413-1.322-2.562a.905.905 0 0 0-1.608 0l-1.323 2.562-2.974.413a.905.905 0 0 0-.492 1.559l2.127 1.981-.5 2.788a.906.906 0 0 0 1.296.969l2.67-1.342 2.669 1.342a.904.904 0 0 0 1.297-.968l-.5-2.789 2.126-1.981a.905.905 0 0 0-.492-1.559zm-3.23 2.553a.904.904 0 0 0-.274.822l.268 1.493-1.46-.733a.904.904 0 0 0-.812 0l-1.459.733.268-1.493a.905.905 0 0 0-.274-.822l-1.096-1.022 1.554-.216a.907.907 0 0 0 .68-.48l.733-1.422.734 1.421a.906.906 0 0 0 .68.481l1.555.216-1.097 1.022z" fill="#989898"/>
    <path d="m17.319 39.98-2.032-.292-.906-1.81a.904.904 0 0 0-1.619 0l-.906 1.81-2.032.291a.905.905 0 0 0-.499 1.548l1.463 1.405-.344 1.982a.905.905 0 0 0 1.307.957l1.82-.943 1.82.943a.905.905 0 0 0 1.308-.958l-.344-1.98 1.462-1.406a.906.906 0 0 0-.498-1.548zm-2.565 1.98a.903.903 0 0 0-.264.809l.114.656-.616-.319a.904.904 0 0 0-.833 0l-.616.319.114-.656a.906.906 0 0 0-.264-.808l-.473-.454.665-.095a.904.904 0 0 0 .681-.49l.31-.618.309.617a.904.904 0 0 0 .68.49l.666.096-.473.454z" fill="#7210FF"/>
    <path d="m56.673 34.961-2.975-.413-1.322-2.562a.906.906 0 0 0-1.608 0l-1.323 2.562-2.974.413a.905.905 0 0 0-.492 1.559l2.127 1.981-.5 2.788a.904.904 0 0 0 1.296.969l2.67-1.342 2.669 1.342a.904.904 0 0 0 1.297-.968l-.5-2.789 2.126-1.981a.905.905 0 0 0-.491-1.559zm-3.23 2.553a.905.905 0 0 0-.274.822l.268 1.493-1.46-.733a.904.904 0 0 0-.811 0l-1.46.733.268-1.493a.905.905 0 0 0-.274-.822l-1.096-1.022 1.554-.216a.906.906 0 0 0 .68-.48l.733-1.422.734 1.421a.906.906 0 0 0 .68.481l1.555.216-1.097 1.022z" fill="#989898"/>
    <path d="M66.909 40.597a.905.905 0 0 0-.733-.618l-2.031-.291-.907-1.81a.906.906 0 0 0-1.618 0l-.907 1.81-2.031.291a.905.905 0 0 0-.5 1.548l1.464 1.405-.346 1.982a.905.905 0 0 0 1.308.957l1.82-.943 1.822.943a.905.905 0 0 0 1.307-.958l-.345-1.98 1.463-1.406a.904.904 0 0 0 .234-.93zm-3.298 1.364a.906.906 0 0 0-.264.808l.114.656-.616-.319a.904.904 0 0 0-.832 0l-.617.319.115-.656a.905.905 0 0 0-.265-.808l-.472-.454.665-.095a.904.904 0 0 0 .68-.49l.31-.618.31.617a.904.904 0 0 0 .68.49l.665.096-.473.454z" fill="#7210FF"/>
    <path d="M.905 68.592a.905.905 0 1 0 0-1.81.905.905 0 0 0 0 1.81zM4.976 66.783H3.62a.905.905 0 1 0 0 1.81h1.357a.905.905 0 1 0 0-1.81zm67.405 0h-1.357a.905.905 0 1 0 0 1.81h1.357a.905.905 0 1 0 0-1.81zM75.095 68.592a.905.905 0 1 0 0-1.81.905.905 0 0 0 0 1.81z" fill="#989898"/>
    <path d="M53.45 70.402h-3.758a.908.908 0 0 0 0 1.81h3.758a.907.907 0 0 0 0-1.81zm-27.142 0h-3.759a.907.907 0 0 0 0 1.81h3.759a.907.907 0 0 0 0-1.81zm20.74 0H28.951a.905.905 0 1 0 0 1.81h7.211v.904h-3.592a.905.905 0 1 0 0 1.81h11.31a.905.905 0 1 0 0-1.81h-4.044v-.905h7.21a.905.905 0 0 0 0-1.81z" fill="#7210FF"/>
    <path d="M68.183 66.783H50.215v-1.81a1.806 1.806 0 0 0-1.219-1.702c.522-2.27.778-4.592.763-6.92 0-.08-.074-3.963-.074-3.963a3.135 3.135 0 0 0-3.154-3.037h-.041a3.612 3.612 0 0 0-.23.012 3.184 3.184 0 0 0-2.539-1.262.829.829 0 0 1-.16.003 3.18 3.18 0 0 0-2.395-1.266V44.14c-.024-1.792-1.296-3.143-2.96-3.143h-.035a2.826 2.826 0 0 0-2.01.85 3.247 3.247 0 0 0-.875 2.328v6.991a3.565 3.565 0 0 0-1.376-.28 3.123 3.123 0 0 0-2.971 1.933c-.462 1.283-.026 2.824 1.332 4.712l3.562 5.833a1.805 1.805 0 0 0-1 1.61v1.809H7.818a.914.914 0 0 0-.95 1.28.912.912 0 0 0 .95.53h60.366a.914.914 0 0 0 .72-1.591.913.913 0 0 0-.72-.22zM33.778 56.529c-.567-.928-2.186-2.918-.572-3.669.84-.39 1.711.045 2.358.634.26.24.501.5.72.779a.457.457 0 0 0 .81-.276v-9.833c-.01-.703.355-1.348 1.098-1.358h.014c.734 0 1.141.661 1.15 1.358v5.552s.006.115.02.115c.003 0 .006-.006.01-.02.007-.03.016-.058.026-.087a1.863 1.863 0 0 1 1.586-1.08h.018a1.312 1.312 0 0 1 1.345 1.254l.01.97s.007.04.02.04c.008 0 .017-.012.028-.05a1.332 1.332 0 0 1 1.282-.948h.02a1.314 1.314 0 0 1 1.345 1.255l.098 1.05s.013.036.025.036c.006 0 .011-.007.016-.031a1.326 1.326 0 0 1 1.307-1.059h.018a1.313 1.313 0 0 1 1.346 1.253l.068 4.583.006-.62a28.34 28.34 0 0 1-.788 6.787H37.83l-4.053-6.635zm2.865 8.444h11.762v1.81H36.643v-1.81zM26.829 11.48a1.357 1.357 0 1 0 0-2.713 1.357 1.357 0 0 0 0 2.713zm0-2.036a.679.679 0 1 1 0 1.358.679.679 0 0 1 0-1.358zm29.719 4.75a.905.905 0 1 0 0 1.81.905.905 0 0 0 0-1.81zm0 1.358a.453.453 0 1 1 0-.906.453.453 0 0 1 0 .906zm7.916 13.119a.905.905 0 1 0 0 1.81.905.905 0 0 0 0-1.81zm0 1.357a.453.453 0 1 1 0-.905.453.453 0 0 1 0 .905zM62.09 1.074a.905.905 0 1 0 0 1.81.905.905 0 0 0 0-1.81zm0 1.358a.452.452 0 1 1 0-.905.452.452 0 0 1 0 .905zm-49.648.904a.904.904 0 1 0-1.809 0 .904.904 0 0 0 1.809 0zm-1.357 0a.452.452 0 1 1 .904 0 .452.452 0 0 1-.904 0z" fill="#989898"/>
    <path d="m3.116 17.478.673-.884-.425-.24-.432.99h-.014l-.44-.984-.431.248.665.863v.014l-1.04-.134v.481l1.047-.134v.014l-.672.863.403.255.46-.998h.014l.425.991.446-.255-.68-.85v-.013l1.07.127v-.48l-1.07.14v-.014zM14.739 28.7l-.387.497.232.147.265-.575h.008l.245.57.257-.146-.392-.49v-.008l.616.074v-.277l-.616.081v-.008l.388-.51-.245-.138-.248.57h-.009l-.253-.566-.248.143.383.497v.008l-.6-.077v.277l.604-.077v.008zm59.59-13.618v-.472l-1.049.139v-.014l.66-.868-.417-.236-.423.971h-.014l-.43-.965-.425.244.653.847v.014l-1.02-.132v.472l1.027-.132v.014l-.66.847.396.25.452-.98h.013l.417.973.438-.25-.667-.833v-.014l1.048.124zM43.766 5.184l.569-.749-.36-.204-.365.839H43.6l-.371-.833-.366.21.563.73v.013l-.88-.114v.407l.886-.114v.012l-.569.731.342.216.39-.845h.01l.36.838.378-.215-.575-.719v-.012l.904.108v-.407l-.904.12v-.012z" fill="#7210FF"/>
</svg>
