<?xml version="1.0" encoding="utf-8"?>
<!-- Generator: Adobe Illustrator 25.0.1, SVG Export Plug-In . SVG Version: 6.00 Build 0)  -->
<svg version="1.1" id="Layer_1" xmlns="http://www.w3.org/2000/svg" xmlns:xlink="http://www.w3.org/1999/xlink" x="0px" y="0px"
	 viewBox="0 0 264.4 185.6" style="enable-background:new 0 0 264.4 185.6;" xml:space="preserve">
<style type="text/css">
	.st0{fill:#FFFFFF;}
</style>
<g>
	<path class="st0" d="M201.1,163.6c-46.1,1.8-91.8,1.8-137.9,0c0,1.7,0,3.3,0,4.8c0.2,8.9-6.2,17.8-17.2,17.2
		c-7.3-0.4-14.6,0-22-0.1C15.1,185.4,8.5,179,8.3,170c-0.2-6.9,0-13.8-0.1-20.6c0-1.5-0.3-3-0.8-4.3c-4.5-12-7-24.4-7.3-37.2
		c-0.4-15,4.5-27.9,16.7-37.4c0.2-0.2,0.3-0.4,0.6-0.8c-3.8-1.7-7.5-3.2-11.1-5c-5.3-2.6-7-9.4-3.4-13.9c1-1.2,2.5-2.5,4-2.8
		c5-1,10-1.8,15.1-2.3c4.2-0.4,7.3,1.4,9.4,5.1c0.4,0.8,1,1.4,1.7,2.5c0.5-0.9,0.8-1.5,1.1-2.1c3.4-7.9,6.7-15.9,10.3-23.8
		c4.4-9.8,11-17.8,21.4-21.6c4.6-1.7,9.8-2.2,14.7-2.8c26.3-3,52.8-3.7,79.2-2.1c11,0.7,22,1.6,32.9,3.2c12,1.7,20.2,9.3,25.6,19.8
		c4.4,8.6,7.9,17.7,11.8,26.6c0.4,0.9,0.8,1.7,1.3,2.8c0.5-0.7,1-1.1,1.2-1.6c2.4-4.8,6.4-6.7,11.5-6c4.5,0.6,9.1,1.2,13.5,2.3
		c3.6,0.9,5.4,3.8,5.8,7.4c0.4,3.9-1.7,7.6-5.3,9.3c-3.6,1.7-7.2,3.2-11,5c0.3,0.4,0.5,0.8,0.8,1c12.7,10.1,17.3,23.7,16.4,39.3
		c-0.7,12.4-3.1,24.5-7.7,36.1c-0.4,0.9-0.4,2.1-0.4,3.1c0,6.4,0,12.9,0,19.3c-0.1,10.7-6.5,17-17.2,17c-7.1,0-14.1-0.2-21.2,0.1
		c-10.3,0.4-16.5-7.9-16.7-16.4C201.1,167.5,201.1,165.7,201.1,163.6z M225.7,64.3c-0.6-1.4-0.9-2.2-1.3-3.1
		c-4.1-9.5-8-19-12.2-28.4c-4.3-9.5-11.2-16.4-22-17.7c-9.9-1.2-19.8-2.2-29.7-2.8c-23.3-1.5-46.7-1.1-70,1c-5.4,0.5-10.7,1-16,1.7
		C62.9,16.7,56.1,24,51.7,33.9C48,42.1,44.6,50.4,41,58.7c-0.7,1.7-1.5,3.5-2.4,5.7C101.1,60.6,163.1,60.2,225.7,64.3z M49.7,124.2
		c4.4,0,8.8-0.1,13.2,0c3.5,0.1,6.3-1.4,7.9-4.4c4.5-8.5,2.3-13.8-6.1-17.4c-9.2-3.9-18.9-6.2-28.7-7.6C30.5,94,26.8,96,24.6,101
		c-2.9,6.4-0.4,16.8,5.4,20.8c1.9,1.3,4.5,2.1,6.8,2.3C41.1,124.4,45.4,124.1,49.7,124.2z M214.4,124.1c4.4,0,8.8,0,13.2,0
		c3.2,0,5.9-1.1,8.1-3.4c3.8-4,5.7-9,5.4-14.5c-0.4-8.5-6-12.8-14.3-11.4c-0.8,0.1-1.6,0.3-2.3,0.4c-9.6,2-19.3,3.9-28,8.8
		c-4,2.2-5.3,5.3-5,9.6c0.6,6.4,4.7,10.3,11,10.3C206.4,124.2,210.4,124.1,214.4,124.1z"/>
</g>
</svg>
