<svg width="40" height="40" viewBox="0 0 40 40" fill="none" xmlns="http://www.w3.org/2000/svg">
<g clip-path="url(#clip0_2543_4781)">
<g opacity="0.1">
<path d="M5.86792 34.4373H5.74448C4.17105 34.4373 2.89136 33.1576 2.89136 31.5842V29.9928C2.89136 28.4193 4.17105 27.1396 5.74448 27.1396H5.86792C7.44058 27.1396 8.72026 28.4193 8.72026 29.9928V31.5842C8.72026 33.1576 7.44058 34.4373 5.86792 34.4373ZM5.74448 27.8311C4.55308 27.8311 3.58276 28.8014 3.58276 29.9928V31.5842C3.58276 32.7756 4.55308 33.7459 5.74448 33.7459H5.86792C7.05933 33.7459 8.02886 32.7756 8.02886 31.5842V29.9928C8.02886 28.8014 7.05933 27.8311 5.86792 27.8311H5.74448Z" fill="#7210FF"/>
<path d="M11.2655 39.9997H0.346777C0.156152 39.9997 0.00146484 39.845 0.00146484 39.6544V37.8989C0.00146484 36.4255 1.20068 35.2271 2.67334 35.2271H4.3249C4.43584 35.2271 4.53896 35.2802 4.60381 35.3692L5.80537 37.0185L7.00693 35.3692C7.07178 35.2802 7.1749 35.2271 7.28584 35.2271H8.93818C10.4116 35.2271 11.6101 36.4263 11.6101 37.8989V39.6544C11.6108 39.845 11.4562 39.9997 11.2655 39.9997ZM0.692871 39.3083H10.9202V37.8989C10.9202 36.806 10.0319 35.9177 8.93896 35.9177H7.46162L6.08428 37.8075C5.95459 37.9856 5.65615 37.9856 5.52646 37.8075L4.14912 35.9177H2.67334C1.58037 35.9177 0.69209 36.806 0.69209 37.8989V39.3083H0.692871Z" fill="#7210FF"/>
<path d="M8.37412 30.7896H6.70771C5.98975 30.7896 5.33584 30.4685 4.90225 29.9396C4.596 30.4482 4.03896 30.7896 3.40381 30.7896H3.2374C3.04678 30.7896 2.89209 30.6349 2.89209 30.4443C2.89209 30.2536 3.04678 30.0989 3.2374 30.0989H3.40381C3.98584 30.0989 4.45928 29.6255 4.45928 29.0435C4.45928 28.8724 4.58428 28.7278 4.75303 28.7013C4.92568 28.6716 5.08428 28.7771 5.13584 28.9403C5.35068 29.6333 5.98272 30.0989 6.7085 30.0989H8.37568C8.56631 30.0989 8.721 30.2536 8.721 30.4443C8.72021 30.6349 8.56553 30.7896 8.37412 30.7896Z" fill="#7210FF"/>
<path d="M2.48518 39.9996C2.29455 39.9996 2.13987 39.8449 2.13987 39.6543V38.7653L0.690648 36.4895C0.588304 36.3285 0.63596 36.1153 0.796898 36.0121C0.957054 35.9098 1.17112 35.9567 1.27424 36.1184L2.77737 38.4785C2.81252 38.5332 2.83127 38.5981 2.83127 38.6637V39.6535C2.83127 39.8449 2.67658 39.9996 2.48518 39.9996Z" fill="#7210FF"/>
<path d="M9.12656 39.9996C8.93594 39.9996 8.78125 39.8449 8.78125 39.6543V38.6637C8.78125 38.5981 8.8 38.5332 8.83516 38.4785L10.3383 36.1184C10.4406 35.9567 10.6555 35.9098 10.8156 36.0121C10.9766 36.1145 11.0242 36.3278 10.9219 36.4895L9.47266 38.7645V39.6535C9.47266 39.8449 9.31797 39.9996 9.12656 39.9996Z" fill="#7210FF"/>
</g>
<path d="M34.2553 34.4373H34.1327C32.5592 34.4373 31.2795 33.1576 31.2795 31.5842V29.9928C31.2795 28.4193 32.5592 27.1396 34.1327 27.1396H34.2553C35.8288 27.1396 37.1084 28.4193 37.1084 29.9928V31.5842C37.1084 33.1576 35.8288 34.4373 34.2553 34.4373ZM34.1327 27.8311C32.9413 27.8311 31.9709 28.8014 31.9709 29.9928V31.5842C31.9709 32.7756 32.9413 33.7459 34.1327 33.7459H34.2553C35.4467 33.7459 36.417 32.7756 36.417 31.5842V29.9928C36.417 28.8014 35.4467 27.8311 34.2553 27.8311H34.1327Z" fill="#7210FF"/>
<path d="M39.653 39.9997H28.7342C28.5436 39.9997 28.3889 39.845 28.3889 39.6544V37.8989C28.3889 36.4255 29.5881 35.2271 31.0608 35.2271H32.7131C32.8241 35.2271 32.9272 35.2802 32.992 35.3692L34.1936 37.0185L35.3952 35.3692C35.46 35.2802 35.5631 35.2271 35.6741 35.2271H37.3256C38.7991 35.2271 39.9975 36.4263 39.9975 37.8989V39.6544C39.9983 39.845 39.8436 39.9997 39.653 39.9997ZM29.0803 39.3083H39.3077V37.8989C39.3077 36.806 38.4194 35.9177 37.3264 35.9177H35.8506L34.4733 37.8075C34.3436 37.9856 34.0452 37.9856 33.9155 37.8075L32.5381 35.9177H31.0608C29.9678 35.9177 29.0795 36.806 29.0795 37.8989V39.3083H29.0803Z" fill="#7210FF"/>
<path d="M36.7631 30.7896H35.0959C34.3779 30.7896 33.7232 30.4685 33.2896 29.9396C32.9834 30.4482 32.4264 30.7896 31.7912 30.7896H31.6256C31.435 30.7896 31.2803 30.6349 31.2803 30.4443C31.2803 30.2536 31.435 30.0989 31.6256 30.0989H31.7912C32.3732 30.0989 32.8467 29.6255 32.8467 29.0435C32.8467 28.8724 32.9717 28.7278 33.1404 28.7013C33.3146 28.6716 33.4717 28.7771 33.5232 28.9403C33.7381 29.6333 34.3709 30.0989 35.0967 30.0989H36.7639C36.9545 30.0989 37.1092 30.2536 37.1092 30.4443C37.1084 30.6349 36.9537 30.7896 36.7631 30.7896Z" fill="#7210FF"/>
<path d="M30.8734 39.9998C30.6827 39.9998 30.5281 39.8451 30.5281 39.6545V38.7655L29.0788 36.4904C28.9765 36.3295 29.0241 36.1162 29.1851 36.0131C29.3452 35.9108 29.5585 35.9576 29.6624 36.1194L31.1656 38.4795C31.2007 38.5342 31.2195 38.599 31.2195 38.6647V39.6545C31.2187 39.8451 31.064 39.9998 30.8734 39.9998Z" fill="#7210FF"/>
<path d="M37.5147 39.9996C37.3241 39.9996 37.1694 39.8449 37.1694 39.6543V38.6637C37.1694 38.5981 37.1882 38.5332 37.2233 38.4785L38.7272 36.1184C38.8296 35.9567 39.0444 35.9098 39.2046 36.0121C39.3655 36.1145 39.4132 36.3293 39.3108 36.4895L37.8608 38.7645V39.6535C37.8601 39.8449 37.7054 39.9996 37.5147 39.9996Z" fill="#7210FF"/>
<path d="M5.86792 7.29688H5.74448C4.17105 7.29688 2.89136 6.01719 2.89136 4.44453V2.85313C2.89136 1.27969 4.17105 0 5.74448 0H5.86792C7.44058 0 8.72026 1.27969 8.72026 2.85313V4.44453C8.72026 6.01719 7.44058 7.29688 5.86792 7.29688ZM5.74448 0.691406C4.55308 0.691406 3.58276 1.66172 3.58276 2.85313V4.44453C3.58276 5.63594 4.55308 6.60547 5.74448 6.60547H5.86792C7.05933 6.60547 8.02886 5.63594 8.02886 4.44453V2.85313C8.02886 1.66172 7.05933 0.691406 5.86792 0.691406H5.74448Z" fill="#7210FF"/>
<path d="M11.2655 12.8601H0.346777C0.156152 12.8601 0.00146484 12.7054 0.00146484 12.5147V10.7585C0.00146484 9.28506 1.20068 8.0874 2.67334 8.0874H4.3249C4.43584 8.0874 4.53896 8.14053 4.60381 8.22959L5.80537 9.87881L7.00693 8.22959C7.07178 8.14053 7.1749 8.0874 7.28584 8.0874H8.93818C10.4116 8.0874 11.6101 9.28506 11.6101 10.7585V12.5147C11.6108 12.7054 11.4562 12.8601 11.2655 12.8601ZM0.692871 12.1687H10.9202V10.7585C10.9202 9.66709 10.0319 8.77803 8.93896 8.77803H7.46162L6.08428 10.6679C5.95459 10.846 5.65615 10.846 5.52646 10.6679L4.14912 8.77803H2.67334C1.58037 8.77803 0.69209 9.66631 0.69209 10.7585V12.1687H0.692871Z" fill="#7210FF"/>
<path d="M8.37412 3.64846H6.70771C5.98975 3.64846 5.33584 3.32736 4.90225 2.79846C4.596 3.30783 4.03896 3.64846 3.40381 3.64846H3.2374C3.04678 3.64846 2.89209 3.49377 2.89209 3.30314C2.89209 3.11252 3.04678 2.95783 3.2374 2.95783H3.40381C3.98584 2.95783 4.45928 2.48439 4.45928 1.90236C4.45928 1.73127 4.58428 1.58674 4.75303 1.56017C4.92568 1.53049 5.08428 1.63596 5.13584 1.79924C5.35068 2.49221 5.98272 2.95783 6.7085 2.95783H8.37568C8.56631 2.95783 8.721 3.11252 8.721 3.30314C8.72021 3.49377 8.56553 3.64846 8.37412 3.64846Z" fill="#7210FF"/>
<path d="M2.48518 12.8599C2.29455 12.8599 2.13987 12.7052 2.13987 12.5146V11.6248L0.690648 9.34822C0.588304 9.18728 0.63596 8.974 0.796898 8.87087C0.957054 8.76775 1.17112 8.8154 1.27424 8.97712L2.77737 11.3373C2.81252 11.392 2.83127 11.4568 2.83127 11.5224V12.5131C2.83127 12.7052 2.67658 12.8599 2.48518 12.8599Z" fill="#7210FF"/>
<path d="M9.12656 12.8601C8.93594 12.8601 8.78125 12.7054 8.78125 12.5148V11.5234C8.78125 11.4577 8.8 11.3929 8.83516 11.3382L10.3383 8.97805C10.4406 8.81711 10.6555 8.76946 10.8156 8.8718C10.9766 8.97414 11.0242 9.18742 10.9219 9.34914L9.47266 11.6241V12.514C9.47266 12.7054 9.31797 12.8601 9.12656 12.8601Z" fill="#7210FF"/>
<g opacity="0.1">
<path d="M34.2553 7.29688H34.1327C32.5592 7.29688 31.2795 6.01719 31.2795 4.44453V2.85313C31.2795 1.27969 32.5592 0 34.1327 0H34.2553C35.8288 0 37.1084 1.27969 37.1084 2.85313V4.44453C37.1084 6.01719 35.8288 7.29688 34.2553 7.29688ZM34.1327 0.691406C32.9413 0.691406 31.9709 1.66172 31.9709 2.85313V4.44453C31.9709 5.63594 32.9413 6.60547 34.1327 6.60547H34.2553C35.4467 6.60547 36.417 5.63594 36.417 4.44453V2.85313C36.417 1.66172 35.4467 0.691406 34.2553 0.691406H34.1327Z" fill="#7210FF"/>
<path d="M39.653 12.8601H28.7342C28.5436 12.8601 28.3889 12.7054 28.3889 12.5147V10.7585C28.3889 9.28506 29.5881 8.0874 31.0608 8.0874H32.7131C32.8241 8.0874 32.9272 8.14053 32.992 8.22959L34.1936 9.87881L35.3952 8.22959C35.46 8.14053 35.5631 8.0874 35.6741 8.0874H37.3256C38.7991 8.0874 39.9975 9.28506 39.9975 10.7585V12.5147C39.9983 12.7054 39.8436 12.8601 39.653 12.8601ZM29.0803 12.1687H39.3077V10.7585C39.3077 9.66709 38.4194 8.77803 37.3264 8.77803H35.8506L34.4733 10.6679C34.3436 10.846 34.0452 10.846 33.9155 10.6679L32.5381 8.77803H31.0608C29.9678 8.77803 29.0795 9.66631 29.0795 10.7585V12.1687H29.0803Z" fill="#7210FF"/>
<path d="M36.7631 3.64846H35.0959C34.3779 3.64846 33.7232 3.32736 33.2896 2.79846C32.9834 3.30705 32.4264 3.64846 31.7912 3.64846H31.6256C31.435 3.64846 31.2803 3.49377 31.2803 3.30314C31.2803 3.11252 31.435 2.95783 31.6256 2.95783H31.7912C32.3732 2.95783 32.8467 2.48439 32.8467 1.90236C32.8467 1.73127 32.9717 1.58674 33.1404 1.56017C33.3146 1.53049 33.4717 1.63596 33.5232 1.79924C33.7381 2.49221 34.3709 2.95783 35.0967 2.95783H36.7639C36.9545 2.95783 37.1092 3.11252 37.1092 3.30314C37.1084 3.49377 36.9537 3.64846 36.7631 3.64846Z" fill="#7210FF"/>
<path d="M30.8734 12.8603C30.6827 12.8603 30.5281 12.7056 30.5281 12.515V11.6252L29.0788 9.35017C28.9765 9.18923 29.0241 8.97595 29.1851 8.87283C29.3452 8.7697 29.5585 8.81736 29.6624 8.97908L31.1656 11.3392C31.2007 11.3939 31.2195 11.4588 31.2195 11.5244V12.515C31.2187 12.7056 31.064 12.8603 30.8734 12.8603Z" fill="#7210FF"/>
<path d="M37.5147 12.8599C37.3241 12.8599 37.1694 12.7052 37.1694 12.5146V11.5232C37.1694 11.4576 37.1882 11.3927 37.2233 11.3381L38.7272 8.9779C38.8296 8.81618 39.0444 8.77008 39.2046 8.87165C39.3655 8.97399 39.4132 9.18883 39.3108 9.34899L37.8608 11.624V12.5138C37.8601 12.7052 37.7054 12.8599 37.5147 12.8599Z" fill="#7210FF"/>
</g>
<path d="M20.0007 29.7174C14.6437 29.7174 10.2859 25.3596 10.2859 20.0025C10.2859 14.6455 14.6437 10.2861 20.0007 10.2861C25.3578 10.2861 29.7156 14.6447 29.7156 20.0025C29.7156 25.3604 25.3578 29.7174 20.0007 29.7174ZM20.0007 10.9775C15.025 10.9775 10.9765 15.026 10.9765 20.0025C10.9765 24.9783 15.025 29.0268 20.0007 29.0268C24.9765 29.0268 29.025 24.9783 29.025 20.0025C29.0242 15.026 24.9757 10.9775 20.0007 10.9775Z" fill="#7210FF"/>
<g opacity="0.1">
<path d="M20.0007 27.6873C15.7624 27.6873 12.314 24.2389 12.314 20.0021C12.314 15.7639 15.7624 12.3154 20.0007 12.3154C24.239 12.3154 27.6874 15.7639 27.6874 20.0021C27.6866 24.2389 24.239 27.6873 20.0007 27.6873ZM20.0007 13.0061C16.1437 13.0061 13.0054 16.1443 13.0054 20.0014C13.0054 23.8584 16.1437 26.9959 20.0007 26.9959C23.8577 26.9959 26.996 23.8584 26.996 20.0014C26.996 16.1443 23.8569 13.0061 20.0007 13.0061Z" fill="#7210FF"/>
</g>
<path d="M17.2663 23.0818C17.178 23.0818 17.0889 23.0482 17.0217 22.9811C16.8874 22.8459 16.8866 22.6264 17.0217 22.4912L22.4905 17.0217C22.6256 16.8881 22.8452 16.8865 22.9803 17.0217C23.1147 17.1568 23.1155 17.3764 22.9803 17.5115L17.5116 22.9811C17.4436 23.0475 17.3545 23.0818 17.2663 23.0818Z" fill="#7210FF"/>
<path d="M22.735 23.0819C22.6467 23.0819 22.5577 23.0483 22.4905 22.9812L17.0217 17.5116C16.8866 17.3765 16.8874 17.1569 17.0217 17.0218C17.1569 16.8866 17.3764 16.8866 17.5116 17.0218L22.9803 22.4913C23.1155 22.6265 23.1147 22.846 22.9803 22.9812C22.9124 23.0483 22.8225 23.0819 22.735 23.0819Z" fill="#7210FF"/>
<g opacity="0.1">
<path d="M29.3373 7.53525C29.2662 7.53525 29.1951 7.51338 29.1342 7.46885C26.4694 5.52354 23.3108 4.49541 20.0006 4.49541C16.6905 4.49541 13.5319 5.52354 10.8655 7.46885C10.7131 7.58135 10.4959 7.54775 10.3826 7.39307C10.2701 7.23916 10.3037 7.02354 10.4584 6.91025C13.242 4.87822 16.542 3.80322 19.9998 3.80322C23.4576 3.80322 26.7576 4.87822 29.5405 6.91025C29.6951 7.02275 29.7287 7.23916 29.6162 7.39307C29.549 7.48603 29.4436 7.53525 29.3373 7.53525Z" fill="#7210FF"/>
</g>
<g opacity="0.1">
<path d="M5.27178 26.2217C5.13506 26.2217 5.00459 26.1396 4.95068 26.0037C4.18818 24.0943 3.80225 22.0748 3.80225 20.0014C3.80225 17.9365 4.18584 15.9248 4.94053 14.0232C5.01084 13.8467 5.2085 13.7592 5.38975 13.8295C5.56709 13.8998 5.65381 14.1014 5.5835 14.2787C4.86006 16.0982 4.49365 18.024 4.49365 20.0014C4.49365 21.9865 4.86318 23.9201 5.59365 25.7482C5.66396 25.9256 5.57725 26.1264 5.3999 26.1975C5.3585 26.2139 5.31397 26.2217 5.27178 26.2217Z" fill="#7210FF"/>
</g>
<g opacity="0.1">
<path d="M20.0006 36.1994C16.2654 36.1994 12.6201 34.8978 9.73732 32.5345C9.58966 32.4142 9.56778 32.1963 9.68888 32.0486C9.81075 31.9009 10.0287 31.8791 10.1748 32.0002C12.935 34.2627 16.4248 35.5088 20.0006 35.5088C23.5764 35.5088 27.0662 34.2634 29.8256 32.0002C29.9725 31.8814 30.1904 31.9002 30.3115 32.0486C30.4318 32.1963 30.4108 32.4134 30.2631 32.5345C27.3803 34.8978 23.7358 36.1994 20.0006 36.1994Z" fill="#7210FF"/>
</g>
<g opacity="0.1">
<path d="M34.7289 26.2211C34.6859 26.2211 34.6421 26.2133 34.6007 26.1968C34.4234 26.1258 34.3367 25.925 34.407 25.7476C35.1367 23.9203 35.507 21.9875 35.507 20.0015C35.507 18.0242 35.1406 16.0992 34.4171 14.2789C34.3468 14.1015 34.4335 13.9 34.6109 13.8297C34.7906 13.7601 34.9898 13.8468 35.0601 14.0234C35.8156 15.925 36.1984 17.9367 36.1984 20.0015C36.1984 22.075 35.8125 24.0953 35.05 26.0031C34.996 26.139 34.8656 26.2211 34.7289 26.2211Z" fill="#7210FF"/>
</g>
</g>
<defs>
<clipPath id="clip0_2543_4781">
<rect width="40" height="40" fill="white"/>
</clipPath>
</defs>
</svg>
