<svg width="20" height="20" viewBox="0 0 20 20" fill="none" xmlns="http://www.w3.org/2000/svg">
<g clip-path="url(#clip0_941_4188)">
<path d="M8.3335 10.8334C8.3335 11.2754 8.50909 11.6993 8.82165 12.0119C9.13421 12.3244 9.55814 12.5 10.0002 12.5C10.4422 12.5 10.8661 12.3244 11.1787 12.0119C11.4912 11.6993 11.6668 11.2754 11.6668 10.8334C11.6668 10.3913 11.4912 9.9674 11.1787 9.65484C10.8661 9.34228 10.4422 9.16669 10.0002 9.16669C9.55814 9.16669 9.13421 9.34228 8.82165 9.65484C8.50909 9.9674 8.3335 10.3913 8.3335 10.8334Z" stroke="#222222" stroke-width="1.5" stroke-linecap="round" stroke-linejoin="round"/>
<path d="M6.6665 17.5V16.6667C6.6665 16.2246 6.8421 15.8007 7.15466 15.4882C7.46722 15.1756 7.89114 15 8.33317 15H11.6665C12.1085 15 12.5325 15.1756 12.845 15.4882C13.1576 15.8007 13.3332 16.2246 13.3332 16.6667V17.5" stroke="#222222" stroke-width="1.5" stroke-linecap="round" stroke-linejoin="round"/>
<path d="M12.5 4.16667C12.5 4.60869 12.6756 5.03262 12.9882 5.34518C13.3007 5.65774 13.7246 5.83333 14.1667 5.83333C14.6087 5.83333 15.0326 5.65774 15.3452 5.34518C15.6577 5.03262 15.8333 4.60869 15.8333 4.16667C15.8333 3.72464 15.6577 3.30072 15.3452 2.98816C15.0326 2.67559 14.6087 2.5 14.1667 2.5C13.7246 2.5 13.3007 2.67559 12.9882 2.98816C12.6756 3.30072 12.5 3.72464 12.5 4.16667Z" stroke="#222222" stroke-width="1.5" stroke-linecap="round" stroke-linejoin="round"/>
<path d="M14.1665 8.33331H15.8332C16.2752 8.33331 16.6991 8.50891 17.0117 8.82147C17.3242 9.13403 17.4998 9.55795 17.4998 9.99998V10.8333" stroke="#222222" stroke-width="1.5" stroke-linecap="round" stroke-linejoin="round"/>
<path d="M4.1665 4.16667C4.1665 4.60869 4.3421 5.03262 4.65466 5.34518C4.96722 5.65774 5.39114 5.83333 5.83317 5.83333C6.2752 5.83333 6.69912 5.65774 7.01168 5.34518C7.32424 5.03262 7.49984 4.60869 7.49984 4.16667C7.49984 3.72464 7.32424 3.30072 7.01168 2.98816C6.69912 2.67559 6.2752 2.5 5.83317 2.5C5.39114 2.5 4.96722 2.67559 4.65466 2.98816C4.3421 3.30072 4.1665 3.72464 4.1665 4.16667Z" stroke="#222222" stroke-width="1.5" stroke-linecap="round" stroke-linejoin="round"/>
<path d="M2.5 10.8333V9.99998C2.5 9.55795 2.67559 9.13403 2.98816 8.82147C3.30072 8.50891 3.72464 8.33331 4.16667 8.33331H5.83333" stroke="#222222" stroke-width="1.5" stroke-linecap="round" stroke-linejoin="round"/>
</g>
<defs>
<clipPath id="clip0_941_4188">
<rect width="20" height="20" fill="white"/>
</clipPath>
</defs>
</svg>
