<?xml version="1.0" encoding="utf-8"?>
<!-- Generator: Adobe Illustrator 25.0.1, SVG Export Plug-In . SVG Version: 6.00 Build 0)  -->
<svg version="1.1" id="Layer_1" xmlns="http://www.w3.org/2000/svg" xmlns:xlink="http://www.w3.org/1999/xlink" x="0px" y="0px"
	 viewBox="0 0 245 245.1" style="enable-background:new 0 0 245 245.1;" xml:space="preserve">
<style type="text/css">
	.st0{fill:#FFFFFF;}
</style>
<g>
	<path class="st0" d="M122.4,245.1C54.6,244.7-0.1,190,0,122.6C0.1,54.6,54.8,0,122.6,0c63.6,0,119.2,49.1,122.2,116.4
		C248.2,191.3,188.5,245,122.4,245.1z M148.2,175.2c-1.5,1.7-2.6,3.3-4,4.7c-3.1,2.9-6.2,6.1-9.8,8.4c-1.6,1-4.7,1.2-6.3,0.3
		c-1.1-0.7-1.5-3.9-1.1-5.7c5.2-26.9,10.6-53.8,16-80.7c2.1-10.4,2.2-10.6-8.4-9.6c-12.9,1.2-25.8,2.8-38.8,4
		c-3.8,0.3-4.1,2.8-4.3,5.5c-0.2,3.5,2.5,2.8,4.6,2.9c2.2,0.1,4.3-0.1,6.5,0c5.9,0.3,8.4,3.5,7.3,9.2c-2.6,13.5-5.4,27-7.9,40.5
		c-2.3,12.1-5.1,24.1-6.4,36.4c-1.5,13.8,6.2,19.9,19.7,16.7c14-3.3,25-11.3,34.6-21.7C154.8,180.6,154.7,180.4,148.2,175.2z
		 M112.4,56.1c-0.1,10.9,8.7,19.8,19.5,19.9c10.8,0.1,19.7-8.8,19.7-19.7c0-11-8.6-19.8-19.5-19.9C121.3,36.4,112.4,45.2,112.4,56.1
		z"/>
</g>
</svg>
