<svg width="25" height="26" viewBox="0 0 25 26" fill="none" xmlns="http://www.w3.org/2000/svg">
    <g id="ic_switch_compound" clip-path="url(#clip0_3221_6774)">
        <path id="Vector" d="M15.465 25.625C15.2683 25.6223 15.0781 25.5542 14.9244 25.4314C14.7707 25.3087 14.6622 25.1382 14.616 24.947C14.5 24.463 14.767 23.967 15.233 23.833C17.529 23.201 19.561 21.796 21.01 19.836C22.4661 17.8546 23.249 15.4589 23.244 13C23.244 6.827 18.419 1.804 12.488 1.804C7.45301 1.804 4.15101 4.866 2.60501 6.718H6.02301C6.50001 6.718 6.89501 7.129 6.89501 7.626C6.89501 8.122 6.52301 8.546 6.03501 8.546H0.884008C0.801311 8.54556 0.719117 8.5331 0.640007 8.509C0.539785 8.47532 0.445346 8.42642 0.360008 8.364C0.257743 8.29203 0.1741 8.19674 0.116008 8.086C0.0546425 7.96883 0.0153234 7.84138 7.51166e-06 7.71V2.118C7.51166e-06 1.622 0.395007 1.21 0.872007 1.21C1.34901 1.21 1.74401 1.622 1.74401 2.118V5.011C3.64001 2.893 7.21001 0 12.5 0C19.395 0 25 5.834 25 13.012C25 18.919 21.174 24.1 15.686 25.601C15.6134 25.6149 15.5389 25.6229 15.465 25.625ZM11.675 26C11.651 26 11.616 26 11.593 25.988C10.3464 25.9002 9.12167 25.6143 7.96501 25.141C7.74674 25.0514 7.57301 24.8787 7.48201 24.661C7.38804 24.44 7.38196 24.1914 7.46501 23.966C7.64001 23.506 8.15101 23.264 8.59301 23.446C9.59301 23.858 10.651 24.1 11.721 24.184H11.733C12.198 24.209 12.546 24.62 12.546 25.104V25.153C12.5298 25.3801 12.4313 25.5934 12.269 25.753C12.1099 25.9089 11.8967 25.9974 11.674 26H11.675ZM5.26701 23.398C5.06779 23.4 4.87432 23.3312 4.72101 23.204C3.73994 22.3863 2.88564 21.4275 2.18601 20.359C2.11757 20.2615 2.06917 20.1513 2.04359 20.0349C2.01801 19.9185 2.01578 19.7983 2.03701 19.681C2.05754 19.5636 2.10104 19.4515 2.16501 19.351C2.22795 19.2522 2.31028 19.1671 2.40701 19.101C2.50054 19.0355 2.60623 18.9894 2.71786 18.9653C2.82949 18.9413 2.9448 18.9398 3.05701 18.961C3.28523 19.0055 3.48655 19.1385 3.61701 19.331C4.22056 20.2531 4.96144 21.0776 5.81401 21.776C6.01201 21.946 6.14001 22.199 6.14001 22.478C6.14239 22.6865 6.07674 22.8901 5.95301 23.058C5.87306 23.1642 5.7694 23.2503 5.6503 23.3093C5.53119 23.3683 5.39994 23.3987 5.26701 23.398ZM1.38401 17.49C1.1963 17.4901 1.01377 17.4285 0.864514 17.3146C0.715262 17.2008 0.607566 17.041 0.558008 16.86C0.186594 15.6111 -0.00136954 14.3149 7.51166e-06 13.012C7.51166e-06 12.516 0.395007 12.104 0.872007 12.104C1.34901 12.104 1.74401 12.516 1.74401 13.012C1.74401 14.138 1.90701 15.252 2.22101 16.317C2.24401 16.401 2.25601 16.498 2.25601 16.595C2.25601 16.995 2.01201 17.333 1.65101 17.455C1.564 17.4788 1.47421 17.4899 1.38401 17.49Z" fill="#DC3027"/>
        <g id="Clip path group">
            <mask id="mask0_3221_6774" style="mask-type:luminance" maskUnits="userSpaceOnUse" x="6" y="6" width="14" height="14">
                <g id="egf22k6dra">
                    <path id="Vector_2" d="M6 6H19.2V19.2H6V6Z" fill="white"/>
                </g>
            </mask>
            <g mask="url(#mask0_3221_6774)">
                <g id="Group">
                    <path id="Vector_3" fill-rule="evenodd" clip-rule="evenodd" d="M10.526 6.16602C9.781 6.16602 9.067 6.45502 8.541 6.96802L6 9.44702V10.582C6 11.383 6.353 12.104 6.915 12.605C6.62769 12.8584 6.39753 13.17 6.23979 13.5191C6.08204 13.8683 6.0003 14.2469 6 14.63V15.764L8.54 18.243C9.067 18.757 9.781 19.045 10.526 19.045C11.347 19.045 12.086 18.701 12.6 18.152C12.866 18.4352 13.1873 18.6605 13.5441 18.8142C13.9009 18.9678 14.2855 19.0464 14.674 19.045C15.419 19.045 16.133 18.757 16.659 18.243L19.2 15.764V14.63C19.2 13.828 18.847 13.107 18.284 12.606C18.847 12.106 19.2 11.384 19.2 10.582V9.44802L16.66 6.96902C16.1278 6.4531 15.4152 6.16533 14.674 6.16702C13.852 6.16702 13.114 6.51102 12.6 7.06002C12.334 6.77688 12.0127 6.55149 11.6559 6.39786C11.2991 6.24424 10.9145 6.16466 10.526 6.16602ZM14.5 12.606C14.4683 12.5774 14.4373 12.548 14.407 12.518L12.6 10.755L10.793 12.518C10.7627 12.5477 10.7317 12.5767 10.7 12.605L10.793 12.692L12.6 14.455L14.407 12.692C14.437 12.662 14.469 12.634 14.5 12.606ZM13.333 15.763V16.305C13.333 17.028 13.933 17.613 14.674 17.613C15.03 17.613 15.371 17.475 15.622 17.23L17.733 15.17V14.629C17.733 13.906 17.133 13.321 16.393 13.321C16.037 13.321 15.696 13.458 15.444 13.704L13.334 15.764L13.333 15.763ZM11.867 15.763L9.756 13.703C9.50155 13.4568 9.16103 13.3198 8.807 13.321C8.067 13.321 7.467 13.906 7.467 14.629V15.171L9.577 17.231C9.829 17.475 10.17 17.613 10.526 17.613C11.266 17.613 11.866 17.028 11.866 16.305V15.763H11.867ZM11.867 8.90502V9.44702L9.756 11.507C9.50171 11.7536 9.16117 11.891 8.807 11.89C8.067 11.89 7.467 11.304 7.467 10.582V10.04L9.577 7.98002C9.829 7.73502 10.17 7.59702 10.526 7.59702C11.266 7.59702 11.866 8.18302 11.866 8.90502H11.867ZM15.444 11.506L13.334 9.44702V8.90502C13.334 8.18302 13.934 7.59702 14.674 7.59702C15.03 7.59702 15.371 7.73502 15.622 7.98002L17.733 10.04V10.582C17.733 11.304 17.133 11.89 16.393 11.89C16.037 11.89 15.696 11.751 15.444 11.506Z" fill="#C7C4CC" />
                </g>
            </g>
        </g>
    </g>
    <defs>
        <clipPath id="clip0_3221_6774">
            <rect width="25" height="26" fill="white"/>
        </clipPath>
    </defs>
</svg>
