<svg width="208" height="208" viewBox="0 0 208 208" fill="none" xmlns="http://www.w3.org/2000/svg">
<path d="M50 138.667H43.3334V146M164.667 62V69.3334H158M39.7195 78.0295C44.5787 66.0024 52.7145 55.5797 63.2022 47.946C73.6898 40.3123 86.1195 35.7719 99.0583 34.8445C111.997 33.917 124.927 36.6375 136.397 42.6973C147.866 48.7572 157.397 57.9154 163.922 69.1264M168.286 129.975C163.427 142.002 155.29 152.424 144.803 160.058C134.315 167.692 121.898 172.227 108.96 173.154C96.0215 174.081 83.0792 171.362 71.6101 165.301C60.1409 159.241 50.6032 150.085 44.0782 138.874" stroke="#7210FF" stroke-width="2" stroke-linecap="round" stroke-linejoin="round"/>
</svg>
