<svg width="20" height="20" viewBox="0 0 20 20" fill="none" xmlns="http://www.w3.org/2000/svg">
<path d="M1.6665 8.12484C1.32484 8.12484 1.0415 7.8415 1.0415 7.49984V5.4165C1.0415 2.99984 3.00817 1.0415 5.4165 1.0415H7.49984C7.8415 1.0415 8.12484 1.32484 8.12484 1.6665C8.12484 2.00817 7.8415 2.2915 7.49984 2.2915H5.4165C3.6915 2.2915 2.2915 3.6915 2.2915 5.4165V7.49984C2.2915 7.8415 2.00817 8.12484 1.6665 8.12484Z" fill="#7210FF"/>
<path d="M18.3333 8.12484C17.9917 8.12484 17.7083 7.8415 17.7083 7.49984V5.4165C17.7083 3.6915 16.3083 2.2915 14.5833 2.2915H12.5C12.1583 2.2915 11.875 2.00817 11.875 1.6665C11.875 1.32484 12.1583 1.0415 12.5 1.0415H14.5833C16.9917 1.0415 18.9583 2.99984 18.9583 5.4165V7.49984C18.9583 7.8415 18.675 8.12484 18.3333 8.12484Z" fill="#7210FF"/>
<path d="M14.5835 18.9585H13.3335C12.9918 18.9585 12.7085 18.6752 12.7085 18.3335C12.7085 17.9918 12.9918 17.7085 13.3335 17.7085H14.5835C16.3085 17.7085 17.7085 16.3085 17.7085 14.5835V13.3335C17.7085 12.9918 17.9918 12.7085 18.3335 12.7085C18.6752 12.7085 18.9585 12.9918 18.9585 13.3335V14.5835C18.9585 17.0002 16.9918 18.9585 14.5835 18.9585Z" fill="#7210FF"/>
<path d="M7.49984 18.9583H5.4165C3.00817 18.9583 1.0415 17 1.0415 14.5833V12.5C1.0415 12.1583 1.32484 11.875 1.6665 11.875C2.00817 11.875 2.2915 12.1583 2.2915 12.5V14.5833C2.2915 16.3083 3.6915 17.7083 5.4165 17.7083H7.49984C7.8415 17.7083 8.12484 17.9917 8.12484 18.3333C8.12484 18.675 7.8415 18.9583 7.49984 18.9583Z" fill="#7210FF"/>
<path d="M7.50016 9.37516H5.8335C4.6585 9.37516 3.9585 8.67516 3.9585 7.50016V5.8335C3.9585 4.6585 4.6585 3.9585 5.8335 3.9585H7.50016C8.67516 3.9585 9.37516 4.6585 9.37516 5.8335V7.50016C9.37516 8.67516 8.67516 9.37516 7.50016 9.37516ZM5.8335 5.2085C5.34183 5.2085 5.2085 5.34183 5.2085 5.8335V7.50016C5.2085 7.99183 5.34183 8.12516 5.8335 8.12516H7.50016C7.99183 8.12516 8.12516 7.99183 8.12516 7.50016V5.8335C8.12516 5.34183 7.99183 5.2085 7.50016 5.2085H5.8335Z" fill="#7210FF"/>
<path d="M14.1667 9.37516H12.5C11.325 9.37516 10.625 8.67516 10.625 7.50016V5.8335C10.625 4.6585 11.325 3.9585 12.5 3.9585H14.1667C15.3417 3.9585 16.0417 4.6585 16.0417 5.8335V7.50016C16.0417 8.67516 15.3417 9.37516 14.1667 9.37516ZM12.5 5.2085C12.0083 5.2085 11.875 5.34183 11.875 5.8335V7.50016C11.875 7.99183 12.0083 8.12516 12.5 8.12516H14.1667C14.6583 8.12516 14.7917 7.99183 14.7917 7.50016V5.8335C14.7917 5.34183 14.6583 5.2085 14.1667 5.2085H12.5Z" fill="#7210FF"/>
<path d="M7.50016 16.0417H5.8335C4.6585 16.0417 3.9585 15.3417 3.9585 14.1667V12.5C3.9585 11.325 4.6585 10.625 5.8335 10.625H7.50016C8.67516 10.625 9.37516 11.325 9.37516 12.5V14.1667C9.37516 15.3417 8.67516 16.0417 7.50016 16.0417ZM5.8335 11.875C5.34183 11.875 5.2085 12.0083 5.2085 12.5V14.1667C5.2085 14.6583 5.34183 14.7917 5.8335 14.7917H7.50016C7.99183 14.7917 8.12516 14.6583 8.12516 14.1667V12.5C8.12516 12.0083 7.99183 11.875 7.50016 11.875H5.8335Z" fill="#7210FF"/>
<path d="M14.1667 16.0417H12.5C11.325 16.0417 10.625 15.3417 10.625 14.1667V12.5C10.625 11.325 11.325 10.625 12.5 10.625H14.1667C15.3417 10.625 16.0417 11.325 16.0417 12.5V14.1667C16.0417 15.3417 15.3417 16.0417 14.1667 16.0417ZM12.5 11.875C12.0083 11.875 11.875 12.0083 11.875 12.5V14.1667C11.875 14.6583 12.0083 14.7917 12.5 14.7917H14.1667C14.6583 14.7917 14.7917 14.6583 14.7917 14.1667V12.5C14.7917 12.0083 14.6583 11.875 14.1667 11.875H12.5Z" fill="#7210FF"/>
</svg>
