<?xml version="1.0" encoding="utf-8"?>
<!-- Generator: Adobe Illustrator 25.0.1, SVG Export Plug-In . SVG Version: 6.00 Build 0)  -->
<svg version="1.1" id="Layer_1" xmlns="http://www.w3.org/2000/svg" xmlns:xlink="http://www.w3.org/1999/xlink" x="0px" y="0px"
	 viewBox="0 0 210.6 210.6" style="enable-background:new 0 0 210.6 210.6;" xml:space="preserve">
<style type="text/css">
	.st0{fill:#FFFFFF;}
</style>
<g>
	<path class="st0" d="M210.6,105.4c0,58.1-47.2,105.3-105.5,105.3C47,210.7,0,163.3,0,104.7C0,47.1,47.5,0,105.7,0
		C163.5,0,210.6,47.3,210.6,105.4z M105.1,196.2c50.2,0,91.1-40.7,91.1-90.7c0.1-50.1-40.7-91.1-90.5-91.2
		C55.4,14.4,14.5,55,14.4,105.1C14.4,155.3,55.1,196.2,105.1,196.2z"/>
	<path class="st0" d="M94,102.8c0.8-1.7,1.7-3.5,2.7-5.4c5.1-10.2,13.3-15.6,24.7-15.7c13-0.2,26-0.2,39.1,0
		c10,0.1,17.7,4.6,22.9,13.1c1.6,2.6,2.2,5.7,3.2,8.6c1.8,5.2,3.5,10.4,5.1,15.6c0.4,1.3,0.5,2.9,0.2,4.2c-1.4,7.5-4,14.6-7.4,21.5
		c-0.2,0.4-0.5,0.9-1,1.7c-3.5-10.3-6.9-20.2-10.4-30.1c-0.3,0-0.6,0.1-0.8,0.1c-0.1,0.8-0.2,1.6-0.2,2.4c0,14,0,28.1,0.1,42.1
		c0,1.6-0.5,2.7-1.5,3.9c-8.7,9.4-18.8,16.6-30.8,21.8c-0.4-0.8-0.7-1.5-1.1-2.2c-2.8-6.2-5.6-12.4-8.5-18.5
		c-3.2-6.9-8.7-10.4-16.3-10.6c-5.7-0.1-11.4-0.1-17.1,0c-7.7,0.2-13.2,3.7-16.5,10.7c-3.1,6.8-6.2,13.5-9.4,20.4
		c-0.6-0.2-1-0.3-1.5-0.5C58.6,181.3,49.2,174.5,41,166c-1-1.1-0.9-2-0.6-3.1c2.2-8.2,4.5-16.4,6.7-24.5c0.2-0.7,0.2-1.5,0.4-2.2
		c-0.3-0.1-0.6-0.2-1-0.3c-3,8.6-5.9,17.2-9,26.2c-1.9-2.5-3.6-4.7-5.2-7c-1.9-2.9-4.5-5.7-5-8.9c-0.5-3,1.2-6.4,2.2-9.6
		c2.2-7.3,4.3-14.7,6.8-22c0.9-2.4,2.7-4.8,4.6-6.6c4.4-4.2,9.5-7.2,16-7.1c9.2,0,18.4-0.3,27.6-0.1C87.5,100.9,90.6,102.1,94,102.8
		z M105.3,120.2c-8.6,0-15.5,6.9-15.5,15.5c0,8.6,6.9,15.4,15.5,15.4c8.4,0,15.3-6.9,15.3-15.4C120.8,127.1,113.9,120.2,105.3,120.2
		z"/>
	<path class="st0" d="M70.7,50.8c12,0,21.7,9.7,21.7,21.8c0,12-9.8,21.8-21.8,21.7c-12.1,0-21.8-9.7-21.8-21.7
		C48.8,60.5,58.5,50.9,70.7,50.8z"/>
	<path class="st0" d="M162.4,54.3c0.1,12-9.6,21.8-21.7,21.9c-12,0.1-21.8-9.7-21.9-21.7c0-12.2,9.7-22,21.8-22
		C152.7,32.5,162.4,42.2,162.4,54.3z"/>
	<path class="st0" d="M122.7,180.8c1.8,3.2,3.6,6.4,5.6,9.9c-2.1,0.5-4.1,1-6.1,1.4c0-3.9,0-7.5,0-11.2
		C122.4,180.9,122.5,180.8,122.7,180.8z"/>
	<path class="st0" d="M88.5,181c0,3.6,0,7.2,0,11c-1.9-0.4-3.8-0.8-6.2-1.3c1.9-3.4,3.8-6.6,5.6-9.9C88.1,180.9,88.3,180.9,88.5,181
		z"/>
</g>
</svg>
