<svg width="28" height="28" viewBox="0 0 28 28" fill="none" xmlns="http://www.w3.org/2000/svg">
    <g clip-path="url(#cwlxz68qna)">
        <path d="M2.625 14.438h12.25v9.624H2.625v-9.625z" fill="#AAE1F9"/>
        <path d="M1.313 24.063h14.874v.875a1.75 1.75 0 0 1-1.75 1.75H3.063a1.75 1.75 0 0 1-1.75-1.75v-.875z" fill="#F9E109"/>
        <path d="M4.375 17.938v-3.5h-1.75v9.624h12.25v-1.75H8.75a4.375 4.375 0 0 1-4.375-4.375z" fill="#57B7EB"/>
        <path d="M3.938 25.375a1.313 1.313 0 0 1-1.313-1.313H1.312v.875a1.75 1.75 0 0 0 1.75 1.75h11.376a1.75 1.75 0 0 0 1.688-1.312H3.937z" fill="#FCBC04"/>
        <path d="M25.813 14.875h-5.25a.875.875 0 0 0-.875.875V21c0 .483.391.875.875.875h5.25a.875.875 0 0 0 .875-.875v-5.25a.875.875 0 0 0-.875-.875z" fill="#C4F236"/>
        <path d="M23.188 19.688a1.312 1.312 0 1 0 0-2.625 1.312 1.312 0 0 0 0 2.625z" fill="#57B7EB"/>
        <path d="M21 17.063v-2.188h-.438a.875.875 0 0 0-.875.875V21a.875.875 0 0 0 .875.875h5.25a.875.875 0 0 0 .875-.875v-.438H24.5a3.5 3.5 0 0 1-3.5-3.5z" fill="#A1D51C"/>
        <path d="M23.625 18.375a.438.438 0 1 0 0-.875.438.438 0 0 0 0 .875z" fill="#AAE1F9"/>
        <path d="M1.313 5.25h5.25v7h-5.25v-7z" fill="#C4F236"/>
        <path d="M11.813 7.875a3.5 3.5 0 1 0 0-7 3.5 3.5 0 0 0 0 7z" fill="#F89C8D"/>
        <path d="M10.938 5.688V3.063l2.624 1.312-2.624 1.313z" fill="#AAE1F9"/>
        <path d="M13.125 6.562a3.5 3.5 0 0 1-3.5-3.5 3.456 3.456 0 0 1 .46-1.728 3.5 3.5 0 1 0 4.79 4.791 3.456 3.456 0 0 1-1.75.437z" fill="#F8664F"/>
        <path d="M25.813 1.313h-5.25a.875.875 0 0 0-.875.875v5.25c0 .483.391.875.875.875h5.25a.875.875 0 0 0 .875-.876v-5.25a.875.875 0 0 0-.875-.874z" fill="#AAE1F9"/>
        <path d="M21 3.5V1.312h-.438a.875.875 0 0 0-.875.875v5.25a.875.875 0 0 0 .875.875h5.25a.875.875 0 0 0 .875-.874V7H24.5A3.5 3.5 0 0 1 21 3.5z" fill="#57B7EB"/>
        <path d="M2.625 8.313V5.25H1.312v7h5.25v-1.313H5.25a2.625 2.625 0 0 1-2.625-2.624z" fill="#A1D51C"/>
        <path d="m8.34 18.885 1.515-.875 1.75 3.03a.875.875 0 1 1-1.515.876l-1.75-3.031z" fill="#F8664F"/>
        <path d="m10.964 19.928-1.107-1.92-1.518.874 1.037 1.794.757-.437.83-.31z" fill="#CC5144"/>
        <path d="m17.61 16.564-7.477 2.8-2.188-3.789 6.164-5.075 3.5 6.064z" fill="#C4F236"/>
        <path d="m6.052 16.67 1.895-1.095 2.187 3.79-1.894 1.093a1.313 1.313 0 0 1-1.793-.48l-.875-1.516a1.313 1.313 0 0 1 .48-1.793z" fill="#F89C8D"/>
        <path d="m4.811 18.899.758-.438.875 1.516-.758.437a.875.875 0 1 1-.875-1.515z" fill="#CC5144"/>
        <path d="M10.64 18.025a.905.905 0 0 0-.131.061l-.836.482.46.796 7.476-2.8-.547-.945-6.422 2.406z" fill="#A1D51C"/>
        <path d="M9.432 18.707A2.188 2.188 0 0 1 6.17 16.6l-.118.07a1.312 1.312 0 0 0-.482 1.793l.875 1.514a1.313 1.313 0 0 0 1.794.482l1.895-1.094-.46-.797-.24.14z" fill="#F8664F"/>
        <path d="M16.188 23.625h-.875v-4.288a.438.438 0 0 0-.876 0v4.288H3.063v-8.75h3.64a.438.438 0 0 0 0-.875H2.624a.438.438 0 0 0-.438.438v9.187h-.874a.438.438 0 0 0-.438.438v.875a2.187 2.187 0 0 0 2.188 2.187h11.374a2.188 2.188 0 0 0 2.188-2.188v-.875a.438.438 0 0 0-.438-.437zm-.438 1.313a1.313 1.313 0 0 1-1.313 1.312h-.874v-.438a.438.438 0 0 0-.876 0v.438H4.814v-.438a.438.438 0 0 0-.875 0v.438h-.876a1.313 1.313 0 0 1-1.312-1.313V24.5h14v.438zM23.625 3.5h.875a.438.438 0 0 0 0-.875h-.875a1.313 1.313 0 0 0-1.313 1.313v.437h-.437a.438.438 0 0 0 0 .875h.438v1.313a.438.438 0 0 0 .875 0V5.25h.437a.438.438 0 0 0 0-.875h-.438v-.438a.438.438 0 0 1 .438-.437z" fill="#39519D"/>
        <path d="M25.813.875h-5.25a1.313 1.313 0 0 0-1.313 1.313v.874a.438.438 0 0 0 .875 0v-.874a.438.438 0 0 1 .438-.438h5.25a.438.438 0 0 1 .437.438v5.25a.438.438 0 0 1-.438.437h-5.25a.438.438 0 0 1-.437-.438V4.813a.438.438 0 0 0-.875 0v2.625a1.313 1.313 0 0 0 1.313 1.313h5.25a1.313 1.313 0 0 0 1.312-1.313v-5.25A1.313 1.313 0 0 0 25.812.875zm-4.375 17.5a1.75 1.75 0 1 0 3.499 0 1.75 1.75 0 0 0-3.5 0zm2.625 0a.874.874 0 1 1-1.75 0 .874.874 0 0 1 1.75 0z" fill="#39519D"/>
        <path d="M25.813 14.438h-5.25a1.313 1.313 0 0 0-1.313 1.312V21a1.313 1.313 0 0 0 1.313 1.313h5.25A1.313 1.313 0 0 0 27.125 21v-.875a.437.437 0 0 0-.875 0V21a.438.438 0 0 1-.438.438h-5.25a.438.438 0 0 1-.437-.438v-5.25a.437.437 0 0 1 .438-.438h5.25a.438.438 0 0 1 .437.438v2.625a.438.438 0 0 0 .875 0V15.75a1.313 1.313 0 0 0-1.313-1.313zM10.706 6.059a.438.438 0 0 0 .428.018l2.625-1.313a.438.438 0 0 0 0-.778l-2.625-1.313a.437.437 0 0 0-.634.39v2.625a.439.439 0 0 0 .206.371zm.669-2.288 1.207.604-1.207.604V3.77z" fill="#39519D"/>
        <path d="M11.813 8.313a3.938 3.938 0 1 0 0-7.876 3.938 3.938 0 0 0 0 7.875zm0-7a3.062 3.062 0 1 1 0 6.124 3.062 3.062 0 0 1 0-6.125zm4.374 8.75a.438.438 0 0 0 .35-.176l1.313-1.75a.438.438 0 0 0-.7-.525l-1.312 1.75a.438.438 0 0 0 .35.7zm.963 1.574a.439.439 0 0 0 .613.088l1.75-1.313a.438.438 0 0 0-.526-.7l-1.75 1.313a.438.438 0 0 0-.087.612zm4.288.963a.438.438 0 0 0-.525-.35l-2.188.438a.44.44 0 0 0 .087.874h.088l2.188-.437a.438.438 0 0 0 .35-.525zm-20.125.088h5.25A.438.438 0 0 0 7 12.25v-7a.437.437 0 0 0-.438-.438h-5.25a.438.438 0 0 0-.437.438v7a.438.438 0 0 0 .438.438zm.437-7h4.375v6.125H1.75V5.686z" fill="#39519D"/>
        <path d="M4.813 6.563h-.875a.437.437 0 1 0 0 .875h.874a.437.437 0 1 0 0-.875zm0 1.75h-1.75a.437.437 0 1 0 0 .874h1.75a.437.437 0 1 0 0-.874zm0 1.75h-1.75a.438.438 0 0 0 0 .874h1.75a.438.438 0 0 0 0-.874zm10.99 2.493a.439.439 0 1 0-.762.438l1.93 3.338-7 2.625h-.066l-1.137.656-.757.438a.875.875 0 0 1-1.195-.32l-.875-1.514a.875.875 0 0 1 .328-1.154l1.514-.875 1.094 1.894a.438.438 0 0 0 .6.16.438.438 0 0 0 .161-.598l-1.129-1.95L14 11.164l.18.31a.438.438 0 1 0 .76-.437l-.437-.757a.436.436 0 0 0-.302-.21.436.436 0 0 0-.359.092l-6.125 5.049-1.863 1.076a1.75 1.75 0 0 0-.805 1.982l-.438.25a1.312 1.312 0 1 0 1.313 2.274l.437-.249a1.697 1.697 0 0 0 1.225.516c.308.001.61-.08.875-.236l.38-.219.876 1.518a1.313 1.313 0 0 0 2.27-1.312l-.796-1.387 6.563-2.463a.439.439 0 0 0 .227-.626l-2.179-3.78zM5.469 20.033a.437.437 0 0 1-.333.044.437.437 0 0 1-.322-.363.438.438 0 0 1 .217-.438l.38-.218.438.756-.38.22zm5.757 1.225a.436.436 0 0 1-.492.639.437.437 0 0 1-.265-.201l-.875-1.519.727-.415h.035l.87 1.496z" fill="#39519D"/>
    </g>
    <defs>
        <clipPath id="cwlxz68qna">
            <path fill="#fff" d="M0 0h28v28H0z"/>
        </clipPath>
    </defs>
</svg>
