<svg width="56" height="56" viewBox="0 0 56 56" fill="none" xmlns="http://www.w3.org/2000/svg">
<path d="M35.9109 12.1567L39.2008 18.7367C39.6442 19.6467 40.8342 20.5101 41.8375 20.6967L47.7876 21.6768C51.5909 22.3068 52.4775 25.0601 49.7475 27.8134L45.1042 32.4567C44.3342 33.2267 43.8909 34.7434 44.1476 35.8401L45.4775 41.5801C46.5275 46.1067 44.1009 47.8801 40.1109 45.5001L34.5342 42.1868C33.5308 41.5801 31.8509 41.5801 30.8475 42.1868L25.2708 45.5001C21.2808 47.8568 18.8542 46.1067 19.9042 41.5801L21.2342 35.8401C21.4909 34.7668 21.0475 33.2501 20.2775 32.4567L15.6342 27.8134C12.9042 25.0834 13.7909 22.3301 17.5942 21.6768L23.5442 20.6967C24.5475 20.5334 25.7375 19.6467 26.1809 18.7367L29.4709 12.1567C31.2209 8.58675 34.1142 8.58675 35.9109 12.1567Z" fill="#7210FF"/>
<path opacity="0.4" d="M18.666 13.4167H4.66602C3.70935 13.4167 2.91602 12.6234 2.91602 11.6667C2.91602 10.7101 3.70935 9.91675 4.66602 9.91675H18.666C19.6227 9.91675 20.416 10.7101 20.416 11.6667C20.416 12.6234 19.6227 13.4167 18.666 13.4167Z" fill="#7210FF"/>
<path opacity="0.4" d="M11.666 46.0833H4.66602C3.70935 46.0833 2.91602 45.2899 2.91602 44.3333C2.91602 43.3766 3.70935 42.5833 4.66602 42.5833H11.666C12.6227 42.5833 13.416 43.3766 13.416 44.3333C13.416 45.2899 12.6227 46.0833 11.666 46.0833Z" fill="#7210FF"/>
<path opacity="0.4" d="M6.99935 29.75H4.66602C3.70935 29.75 2.91602 28.9567 2.91602 28C2.91602 27.0433 3.70935 26.25 4.66602 26.25H6.99935C7.95602 26.25 8.74935 27.0433 8.74935 28C8.74935 28.9567 7.95602 29.75 6.99935 29.75Z" fill="#7210FF"/>
</svg>
