<svg width="394" height="117" viewBox="0 0 394 117" fill="none" xmlns="http://www.w3.org/2000/svg">
    <path d="M383.842 79.7419V37.5254H377.575V32.4609H370.574V79.7419H367.493V64.9592H360.49V79.7419H356.36V46.5284H327.935V79.7419H327.372V74.2414H311.339V79.7419H306.368V37.5254H290.334V79.7419H285.993V60.104H274.86V44.6994H258.826V79.7419H255.325V59.0474H250.705V34.1492H237.471V29.0847H221.438V79.7419H214.575V47.6552H198.542V79.7419H195.041V22.9653H179.008V79.7419H171.656V37.5254H165.354V29.0847H152.751V79.7419H146.099V44.6994H111.653V79.7419H108.5V36.2594H85.3951V79.7419H83.0146V59.0474H70.4131V72.1315H62.6412V43.0108H50.0363V72.1315H46.4649V56.0949H35.3346V43.0108H22.7301V34.1492H10.127V110.115H10.1283V113.49H159.053V113.491H171.656V113.49H290.334V113.491H306.368V113.49H376.84V113.491H383.842V113.49H383.843V79.7419H383.842Z" fill="#7210FF" fill-opacity="0.1"/>
    <path d="M72.108 113.492H40.9551V57.8633H72.108V113.492ZM41.4447 113H71.6184V58.3555H41.4447V113Z" fill="#7210FF" fill-opacity="0.5"/>
    <path d="M50.0265 67.1893H45.3145V62.4556H50.0265V67.1893ZM45.8041 66.6974H49.5369V62.9474H45.8041V66.6974ZM58.6469 67.1893H53.9351V62.4556H58.6469V67.1893ZM54.4251 66.6974H58.1573V62.9474H54.4251V66.6974ZM67.2679 67.1893H62.5558V62.4556H67.2679V67.1893ZM63.0454 66.6974H66.7783V62.9474H63.0454V66.6974ZM58.6469 76.9792H53.9351V72.2454H58.6469V76.9792ZM54.4251 76.4873H58.1573V72.7373H54.4251V76.4873ZM67.2679 76.9792H62.5558V72.2454H67.2679V76.9792ZM63.0454 76.4873H66.7783V72.7373H63.0454V76.4873ZM50.0265 86.769H45.3145V82.0352H50.0265V86.769ZM45.8041 86.2771H49.5369V82.5271H45.8041V86.2771ZM58.6469 86.769H53.9351V82.0352H58.6469V86.769ZM54.4251 86.2771H58.1573V82.5271H54.4251V86.2771ZM67.2679 86.769H62.5558V82.0352H67.2679V86.769ZM63.0454 86.2771H66.7783V82.5271H63.0454V86.2771ZM58.6469 96.5592H53.9351V91.8254H58.6469V96.5592ZM54.4251 96.0673H58.1573V92.3173H54.4251V96.0673ZM67.2679 96.5592H62.5558V91.8254H67.2679V96.5592ZM63.0454 96.0673H66.7783V92.3173H63.0454V96.0673Z" fill="#7210FF" fill-opacity="0.5"/>
    <path d="M235.106 113.492H212.041V27.2275L212.115 27.1549C212.527 26.7524 212.98 26.3962 213.469 26.0926C213.933 25.8051 214.425 25.567 214.938 25.382L214.997 25.3603L215.02 25.3643V6.19896L215.147 6.12874C215.211 6.0943 215.274 6.06086 215.339 6.02776L215.43 5.98028C216.814 5.26294 218.223 4.59302 219.653 3.97168C220.318 3.68211 221.024 3.38787 221.813 3.07289L221.871 3.05751C222.44 2.98308 223.01 2.91341 223.581 2.84852C225.73 2.61795 227.889 2.49085 230.05 2.46767L230.298 2.46533V3.39255C230.505 3.59284 230.802 4.0837 231.28 5.49008C231.322 5.60444 231.345 5.73651 231.351 5.88865C231.351 5.99499 231.351 6.09129 231.356 6.18793C231.356 6.63465 231.359 7.07469 231.368 7.51472C231.371 8.10122 231.375 8.68437 231.382 9.26752C231.746 9.42209 232.097 9.60371 232.433 9.81088C232.923 10.1131 233.377 10.4697 233.787 10.8739L233.861 10.9464V53.7029C234.578 55.3982 235.089 56.9591 235.094 56.9738L235.106 57.0497L235.106 113.492ZM212.531 113H234.616V57.0898C234.247 55.9949 233.839 54.9142 233.391 53.8497L233.371 53.7531V11.1554C233.006 10.8056 232.606 10.4954 232.176 10.2302C231.816 10.0092 231.439 9.81897 231.047 9.66141L230.896 9.59988L230.894 9.43672C230.887 8.7983 230.881 8.15987 230.878 7.52142C230.869 7.08065 230.865 6.63981 230.865 6.19896C230.861 6.10634 230.861 6.00201 230.861 5.89869C230.859 5.81526 230.844 5.73265 230.817 5.65359C230.267 4.03087 229.994 3.7637 229.924 3.7199L229.807 3.64768V2.96255C227.76 2.99197 225.685 3.11769 223.634 3.33771C223.071 3.40291 222.515 3.46845 221.965 3.54135C221.193 3.85031 220.5 4.13854 219.847 4.42343C218.428 5.0403 217.029 5.70519 215.654 6.41697L215.562 6.46512L215.51 6.49254V25.9137L215.241 25.8876C215.175 25.8809 215.11 25.8743 215.045 25.8656C214.585 26.0363 214.143 26.2523 213.725 26.5106C213.296 26.7773 212.896 27.0872 212.53 27.4355V113H212.531Z" fill="#7210FF" fill-opacity="0.5"/>
    <path d="M221.204 16.6884H219.793V7.42188H221.204V16.6884ZM220.282 16.1965H220.714V7.91373H220.282V16.1965ZM227.602 16.6884H226.19V7.42188H227.602V16.6884ZM226.68 16.1965H227.112V7.91373H226.68V16.1965ZM218.364 27.583H216.952V18.3161H218.364V27.583ZM217.442 27.0911H217.874V18.8083H217.442V27.0911ZM224.671 27.583H223.259V18.3161H224.671V27.583ZM223.749 27.0911H224.181V18.8083H223.749V27.0911ZM230.433 27.583H229.021V18.3161H230.433V27.583ZM229.511 27.0911H229.943V18.8083H229.511V27.0911ZM215.894 52.7364H214.482V29.6592H215.894V52.7364ZM214.972 52.2445H215.404V30.1513H214.972V52.2445ZM220.928 52.7364H219.517V29.6592H220.928V52.7364ZM220.007 52.2445H220.439V30.1513H220.007V52.2445ZM227.141 52.7364H225.729V29.6592H227.141V52.7364ZM226.219 52.2445H226.651V30.1513H226.219V52.2445ZM232.08 52.7364H230.669V29.6592H232.08V52.7364ZM231.159 52.2445H231.591V30.1513H231.159V52.2445ZM215.433 107.774H214.021V57.6694H215.433V107.774ZM214.511 107.282H214.943V58.1613H214.511V107.282ZM219.821 107.774H218.41V57.6694H219.821V107.774ZM218.9 107.282H219.332V58.1613H218.9V107.282ZM224.21 107.774H222.799V57.6694H224.21V107.774ZM223.288 107.282H223.72V58.1613H223.288V107.282ZM228.228 107.774H226.816V57.6694H228.228V107.774ZM227.306 107.282H227.739V58.1613H227.306V107.282ZM231.62 107.774H230.208V57.6694H231.62V107.774ZM230.698 107.282H231.13V58.1613H230.698V107.282Z" fill="#7210FF" fill-opacity="0.5"/>
    <path d="M132.004 113.492H104.877V62.6519H132.004V113.492ZM105.367 113H131.515V63.1441H105.367V113Z" fill="#7210FF" fill-opacity="0.5"/>
    <path d="M112.442 67.4937H106.604V65.439H112.442V67.4937ZM107.093 67.0018H111.952V65.9312H107.093V67.0018ZM120.95 67.4937H115.112V65.439H120.95V67.4937ZM115.602 67.0018H120.461V65.9312H115.602V67.0018ZM129.459 67.4937H123.621V65.439H129.459V67.4937ZM124.11 67.0018H128.969V65.9312H124.11V67.0018ZM112.442 73.3891H106.604V71.3343H112.442V73.3891ZM107.093 72.8972H111.952V71.8265H107.093V72.8972ZM120.95 73.3891H115.112V71.3343H120.95V73.3891ZM115.602 72.8972H120.461V71.8265H115.602V72.8972ZM129.459 73.3891H123.621V71.3343H129.459V73.3891ZM124.11 72.8972H128.969V71.8265H124.11V72.8972ZM112.442 79.2844H106.604V77.2297H112.442V79.2844ZM107.093 78.7926H111.952V77.7219H107.093V78.7926ZM120.95 79.2844H115.112V77.2297H120.95V79.2844ZM115.602 78.7926H120.461V77.7219H115.602V78.7926ZM129.459 79.2844H123.621V77.2297H129.459V79.2844ZM124.11 78.7926H128.969V77.7219H124.11V78.7926ZM112.442 85.1801H106.604V83.1251H112.442V85.1801ZM107.093 84.6883H111.952V83.6169H107.093V84.6883ZM120.95 85.1801H115.112V83.1251H120.95V85.1801ZM115.602 84.6883H120.461V83.6169H115.602V84.6883ZM129.459 85.1801H123.621V83.1251H129.459V85.1801ZM124.11 84.6883H128.969V83.6169H124.11V84.6883ZM112.442 91.0755H106.604V89.0208H112.442V91.0755ZM107.093 90.5836H111.952V89.513H107.093V90.5836ZM120.95 91.0755H115.112V89.0208H120.95V91.0755ZM115.602 90.5836H120.461V89.513H115.602V90.5836ZM129.459 91.0755H123.621V89.0208H129.459V91.0755ZM124.11 90.5836H128.969V89.513H124.11V90.5836ZM112.442 96.9709H106.604V94.9161H112.442V96.9709ZM107.093 96.479H111.952V95.4083H107.093V96.479ZM120.95 96.9709H115.112V94.9161H120.95V96.9709ZM115.602 96.479H120.461V95.4083H115.602V96.479ZM129.459 96.9709H123.621V94.9161H129.459V96.9709ZM124.11 96.479H128.969V95.4083H124.11V96.479Z" fill="#7210FF" fill-opacity="0.5"/>
    <path d="M101.012 113.489H73.8848V40.5176H101.012V113.489ZM74.3744 112.997H100.523V41.0098H74.3744V112.997Z" fill="#7210FF" fill-opacity="0.5"/>
    <path d="M95.8084 41.0095H79.0857V37.9292H95.8084V41.0095ZM79.5753 40.5173H95.3188V38.4207H79.5753V40.5173ZM80.3541 47.914H77.2188V44.7642H80.3541V47.914ZM77.7084 47.4221H79.8645V45.256H77.7084V47.4221ZM85.7163 47.914H82.5809V44.7642H85.7163V47.914ZM83.0705 47.4221H85.2267V45.256H83.0705V47.4221ZM80.3541 52.7337H77.2188V49.5838H80.3541V52.7337ZM77.7084 52.2418H79.8645V50.0757H77.7084V52.2418ZM85.7163 52.7337H82.5809V49.5838H85.7163V52.7337ZM83.0705 52.2418H85.2267V50.0757H83.0705V52.2418ZM92.3133 47.914H89.1779V44.7642H92.3133V47.914ZM89.6675 47.4221H91.8236V45.256H89.6675V47.4221ZM97.6757 47.914H94.5403V44.7642H97.6757V47.914ZM95.0299 47.4221H97.1861V45.256H95.0299V47.4221ZM92.3133 52.7337H89.1779V49.5838H92.3133V52.7337ZM89.6675 52.2418H91.8236V50.0757H89.6675V52.2418ZM97.6757 52.7337H94.5403V49.5838H97.6757V52.7337ZM95.0299 52.2418H97.1861V50.0757H95.0299V52.2418ZM80.3541 62.0607H77.2188V58.9109H80.3541V62.0607ZM77.7084 61.5688H79.8645V59.4028H77.7084V61.5688ZM85.7163 62.0607H82.5809V58.9109H85.7163V62.0607ZM83.0705 61.5688H85.2267V59.4028H83.0705V61.5688ZM80.3541 66.8804H77.2188V63.7306H80.3541V66.8804ZM77.7084 66.3885H79.8645V64.2224H77.7084V66.3885ZM85.7163 66.8804H82.5809V63.7306H85.7163V66.8804ZM83.0705 66.3885H85.2267V64.2224H83.0705V66.3885ZM92.3133 62.0607H89.1779V58.9109H92.3133V62.0607ZM89.6675 61.5688H91.8236V59.4028H89.6675V61.5688ZM97.6757 62.0607H94.5403V58.9109H97.6757V62.0607ZM95.0299 61.5688H97.1861V59.4028H95.0299V61.5688ZM92.3133 66.8804H89.1779V63.7306H92.3133V66.8804ZM89.6675 66.3885H91.8236V64.2224H89.6675V66.3885ZM97.6757 66.8804H94.5403V63.7306H97.6757V66.8804ZM95.0299 66.3885H97.1861V64.2224H95.0299V66.3885ZM80.3541 76.2071H77.2188V73.0573H80.3541V76.2071ZM77.7084 75.7153H79.8645V73.5492H77.7084V75.7153ZM85.7163 76.2071H82.5809V73.0573H85.7163V76.2071ZM83.0705 75.7153H85.2267V73.5492H83.0705V75.7153ZM80.3541 81.0275H77.2188V77.877H80.3541V81.0275ZM77.7084 80.5356H79.8645V78.3692H77.7084V80.5356ZM85.7163 81.0275H82.5809V77.877H85.7163V81.0275ZM83.0705 80.5356H85.2267V78.3692H83.0705V80.5356ZM92.3133 76.2071H89.1779V73.0573H92.3133V76.2071ZM89.6675 75.7153H91.8236V73.5492H89.6675V75.7153ZM97.6757 76.2071H94.5403V73.0573H97.6757V76.2071ZM95.0299 75.7153H97.1861V73.5492H95.0299V75.7153ZM92.3133 81.0275H89.1779V77.877H92.3133V81.0275ZM89.6675 80.5356H91.8236V78.3692H89.6675V80.5356ZM97.6757 81.0275H94.5403V77.877H97.6757V81.0275ZM95.0299 80.5356H97.1861V78.3692H95.0299V80.5356ZM80.3541 90.3542H77.2188V87.2044H80.3541V90.3542ZM77.7084 89.8623H79.8645V87.6962H77.7084V89.8623ZM85.7163 90.3542H82.5809V87.2044H85.7163V90.3542ZM83.0705 89.8623H85.2267V87.6962H83.0705V89.8623ZM80.3541 95.1742H77.2188V92.0244H80.3541V95.1742ZM77.7084 94.682H79.8645V92.5159H77.7084V94.682ZM85.7163 95.1742H82.5809V92.0244H85.7163V95.1742ZM83.0705 94.682H85.2267V92.5159H83.0705V94.682ZM92.3133 90.3542H89.1779V87.2044H92.3133V90.3542ZM89.6675 89.8623H91.8236V87.6962H89.6675V89.8623ZM97.6757 90.3542H94.5403V87.2044H97.6757V90.3542ZM95.0299 89.8623H97.1861V87.6962H95.0299V89.8623ZM92.3133 95.1742H89.1779V92.0244H92.3133V95.1742ZM89.6675 94.682H91.8236V92.5159H89.6675V94.682ZM97.6757 95.1742H94.5403V92.0244H97.6757V95.1742ZM95.0299 94.682H97.1861V92.5159H95.0299V94.682Z" fill="#7210FF" fill-opacity="0.5"/>
    <path d="M167.131 113.491H140.004V47.7676H167.131V113.491ZM140.494 112.999H166.642V48.2598H140.494V112.999Z" fill="#7210FF" fill-opacity="0.5"/>
    <path d="M144.393 110.997H142.232V50.2612H144.393V110.997ZM142.722 110.506H143.903V50.7531H142.722V110.506ZM149.52 110.997H147.36V50.2612H149.52V110.997ZM147.849 110.506H149.03V50.7531H147.849V110.506ZM154.647 110.997H152.487V50.2612H154.647V110.997ZM152.977 110.506H154.157V50.7531H152.977V110.506ZM159.774 110.997H157.614V50.2612H159.774V110.997ZM158.104 110.506H159.284V50.7531H158.104V110.506ZM164.901 110.997H162.741V50.2612H164.901V110.997ZM163.231 110.506H164.412V50.7531H163.231V110.506Z" fill="#7210FF" fill-opacity="0.5"/>
    <path d="M203.942 113.491H176.783V45.0193L203.942 30.2573V113.491ZM177.273 112.999H203.452V31.0826L177.273 45.3122V112.999Z" fill="#7210FF" fill-opacity="0.5"/>
    <path d="M183.156 56.6736H180.369V48.0889H183.156V56.6736ZM180.859 56.1817H182.666V48.5811H180.859V56.1817ZM191.755 56.6736H188.97V48.0889H191.755V56.6736ZM189.459 56.1817H191.266V48.5811H189.459V56.1817ZM200.356 56.6736H197.569V48.0889H200.356V56.6736ZM198.059 56.1817H199.866V48.5811H198.059V56.1817ZM183.156 69.8881H180.369V61.3034H183.156V69.8881ZM180.859 69.3962H182.666V61.7956H180.859V69.3962ZM191.755 69.8881H188.97V61.3034H191.755V69.8881ZM189.459 69.3962H191.266V61.7956H189.459V69.3962ZM200.356 69.8881H197.569V61.3034H200.356V69.8881ZM198.059 69.3962H199.866V61.7956H198.059V69.3962ZM183.156 83.1029H180.369V74.5182H183.156V83.1029ZM180.859 82.6107H182.666V75.0101H180.859V82.6107ZM191.755 83.1029H188.97V74.5182H191.755V83.1029ZM189.459 82.6107H191.266V75.0101H189.459V82.6107ZM200.356 83.1029H197.569V74.5182H200.356V83.1029ZM198.059 82.6107H199.866V75.0101H198.059V82.6107ZM183.156 96.3174H180.369V87.7327H183.156V96.3174ZM180.859 95.8256H182.666V88.2249H180.859V95.8256ZM191.755 96.3174H188.97V87.7327H191.755V96.3174ZM189.459 95.8256H191.266V88.2249H189.459V95.8256ZM200.356 96.3174H197.569V87.7327H200.356V96.3174ZM198.059 95.8256H199.866V88.2249H198.059V95.8256Z" fill="#7210FF" fill-opacity="0.5"/>
    <path d="M274.87 113.492H247.742V13.2104H274.87V113.492ZM248.232 113H274.38V13.7023H248.232V113Z" fill="#7210FF" fill-opacity="0.5"/>
    <path d="M271.92 19.2276H250.691V16.999H271.92V19.2276ZM251.181 18.7358H271.431V17.4912H251.181V18.7358ZM271.92 26.5194H250.691V24.2914H271.92V26.5194ZM251.181 26.0275H271.431V24.7833H251.181V26.0275ZM271.92 33.8114H250.691V31.5835H271.92V33.8114ZM251.181 33.3195H271.431V32.0753H251.181V33.3195ZM271.92 41.1031H250.691V38.8752H271.92V41.1031ZM251.181 40.6113H271.431V39.367H251.181V40.6113ZM271.92 48.3955H250.691V46.1676H271.92V48.3955ZM251.181 47.9036H271.431V46.6594H251.181V47.9036ZM271.92 55.6876H250.691V53.4596H271.92V55.6876ZM251.181 55.1957H271.431V53.9515H251.181V55.1957ZM271.92 62.9793H250.691V60.7513H271.92V62.9793ZM251.181 62.4874H271.431V61.2432H251.181V62.4874ZM271.92 70.2716H250.691V68.043H271.92V70.2716ZM251.181 69.7798H271.431V68.5352H251.181V69.7798ZM271.92 77.5637H250.691V75.3358H271.92V77.5637ZM251.181 77.0715H271.431V75.8273H251.181V77.0715ZM271.92 84.8554H250.691V82.6275H271.92V84.8554ZM251.181 84.3635H271.431V83.1194H251.181V84.3635ZM271.92 92.1475H250.691V89.9195H271.92V92.1475ZM251.181 91.6553H271.431V90.411H251.181V91.6553ZM271.92 99.4398H250.691V97.2119H271.92V99.4398ZM251.181 98.9477H271.431V97.7034H251.181V98.9477ZM271.92 106.732H250.691V104.504H271.92V106.732ZM251.181 106.24H271.431V104.995H251.181V106.24Z" fill="#7210FF" fill-opacity="0.5"/>
    <path d="M310.237 113.492H283.109V30.3599H310.237V113.492ZM283.599 113H309.748V30.8517H283.599V113Z" fill="#7210FF" fill-opacity="0.5"/>
    <path d="M297.169 37.7727H294.89C294.759 37.7725 294.633 37.7201 294.54 37.6269C294.447 37.5337 294.395 37.4073 294.395 37.2755V34.9853C294.395 34.7112 294.617 34.4878 294.89 34.4878H297.169C297.442 34.4878 297.664 34.7112 297.664 34.9853V37.2755C297.664 37.4073 297.612 37.5337 297.519 37.6269C297.426 37.7201 297.3 37.7725 297.169 37.7727ZM294.89 34.9797L294.884 37.2755L297.169 37.2808C297.17 37.2808 297.172 37.2803 297.173 37.2793C297.174 37.2783 297.175 37.2769 297.175 37.2755V34.9853L294.89 34.9797ZM302.224 37.7727H299.944C299.671 37.7727 299.449 37.5497 299.449 37.2755V34.9853C299.449 34.7112 299.671 34.4878 299.944 34.4878H302.224C302.497 34.4878 302.719 34.7112 302.719 34.9853V37.2755C302.719 37.4073 302.667 37.5337 302.574 37.6269C302.481 37.7201 302.355 37.7725 302.224 37.7727ZM299.944 34.9797L299.939 37.2755L302.224 37.2808C302.227 37.2808 302.23 37.2785 302.23 37.2755V34.9853L299.944 34.9797ZM307.279 37.7727H305C304.868 37.7725 304.742 37.7201 304.65 37.6269C304.557 37.5337 304.505 37.4073 304.504 37.2755V34.9853C304.504 34.7112 304.727 34.4878 305 34.4878H307.279C307.551 34.4878 307.774 34.7112 307.774 34.9853V37.2755C307.774 37.4073 307.721 37.5337 307.628 37.6269C307.536 37.7201 307.41 37.7725 307.279 37.7727ZM304.999 34.9797L304.994 37.2755L307.279 37.2808C307.279 37.2809 307.28 37.2808 307.281 37.2805C307.281 37.2803 307.282 37.2799 307.282 37.2794C307.283 37.2789 307.283 37.2783 307.284 37.2776C307.284 37.2769 307.284 37.2762 307.284 37.2755V34.9853L304.999 34.9797ZM292.114 42.9144H289.835C289.704 42.9141 289.578 42.8616 289.485 42.7683C289.392 42.6751 289.34 42.5487 289.34 42.4168V40.1274C289.34 39.8532 289.562 39.6298 289.835 39.6298H292.114C292.387 39.6298 292.609 39.8532 292.609 40.1274V42.4168C292.609 42.5487 292.557 42.6751 292.464 42.7683C292.371 42.8616 292.246 42.9141 292.114 42.9144ZM289.835 40.1213L289.829 42.4168L292.114 42.4225C292.117 42.4225 292.12 42.4202 292.12 42.4168V40.1274L289.835 40.1213ZM297.169 42.9144H294.89C294.759 42.9142 294.633 42.8617 294.54 42.7685C294.447 42.6752 294.395 42.5487 294.395 42.4168V40.1274C294.395 39.8532 294.617 39.6298 294.89 39.6298H297.169C297.442 39.6298 297.664 39.8532 297.664 40.1274V42.4168C297.664 42.5487 297.612 42.6752 297.519 42.7685C297.426 42.8617 297.3 42.9142 297.169 42.9144ZM294.89 40.1213L294.884 42.4168L297.169 42.4225C297.171 42.4225 297.172 42.4219 297.173 42.4209C297.174 42.4198 297.175 42.4183 297.175 42.4168V40.1274L294.89 40.1213ZM302.224 42.9144H299.944C299.813 42.9141 299.687 42.8616 299.594 42.7683C299.502 42.6751 299.45 42.5487 299.449 42.4168V40.1274C299.449 39.8532 299.671 39.6298 299.944 39.6298H302.224C302.497 39.6298 302.719 39.8532 302.719 40.1274V42.4168C302.719 42.5487 302.667 42.6752 302.574 42.7685C302.481 42.8617 302.355 42.9142 302.224 42.9144ZM299.944 40.1213L299.939 42.4168L302.224 42.4225C302.227 42.4225 302.23 42.4195 302.23 42.4168V40.1274L299.944 40.1213ZM292.114 48.0554H289.835C289.562 48.0554 289.34 47.8324 289.34 47.5582V45.268C289.34 44.9939 289.562 44.7708 289.835 44.7708H292.114C292.387 44.7708 292.609 44.9939 292.609 45.268V47.5582C292.609 47.8324 292.387 48.0554 292.114 48.0554ZM289.835 45.263L289.829 47.5585L292.114 47.5639C292.116 47.5639 292.117 47.5633 292.118 47.5623C292.119 47.5613 292.12 47.5599 292.12 47.5585V45.2684L289.835 45.263ZM297.169 48.0554H294.89C294.759 48.0552 294.633 48.0028 294.54 47.9096C294.447 47.8164 294.395 47.69 294.395 47.5582V45.268C294.395 44.9939 294.617 44.7708 294.89 44.7708H297.169C297.442 44.7708 297.664 44.9939 297.664 45.268V47.5582C297.664 47.69 297.612 47.8164 297.519 47.9096C297.426 48.0028 297.3 48.0552 297.169 48.0554ZM294.89 45.263L294.884 47.5585L297.169 47.5639C297.17 47.5639 297.172 47.5633 297.173 47.5623C297.174 47.5613 297.175 47.56 297.175 47.5585V45.2684L294.89 45.263ZM302.224 48.0554H299.944C299.671 48.0554 299.449 47.8324 299.449 47.5582V45.268C299.449 44.9939 299.671 44.7708 299.944 44.7708H302.224C302.497 44.7708 302.719 44.9939 302.719 45.268V47.5582C302.719 47.69 302.667 47.8164 302.574 47.9096C302.481 48.0028 302.355 48.0552 302.224 48.0554ZM299.944 45.263L299.939 47.5585L302.224 47.5639C302.227 47.5639 302.23 47.5615 302.23 47.5585V45.2684L299.944 45.263ZM307.279 48.0554H305C304.868 48.0552 304.742 48.0028 304.65 47.9096C304.557 47.8164 304.505 47.69 304.504 47.5582V45.268C304.504 44.9939 304.727 44.7708 305 44.7708H307.279C307.551 44.7708 307.774 44.9939 307.774 45.268V47.5582C307.774 47.69 307.721 47.8164 307.628 47.9096C307.536 48.0028 307.41 48.0552 307.279 48.0554ZM304.999 45.263L304.994 47.5585L307.279 47.5639C307.279 47.5639 307.28 47.5638 307.281 47.5636C307.281 47.5633 307.282 47.5629 307.282 47.5624C307.283 47.5619 307.283 47.5613 307.284 47.5606C307.284 47.56 307.284 47.5592 307.284 47.5585V45.2684L304.999 45.263ZM292.114 53.1971H289.835C289.562 53.1971 289.34 52.9741 289.34 52.6999V50.4097C289.34 50.1355 289.562 49.9122 289.835 49.9122H292.114C292.387 49.9122 292.609 50.1355 292.609 50.4097V52.6999C292.609 52.9741 292.387 53.1971 292.114 53.1971ZM289.835 50.404L289.829 52.6999L292.114 52.7052C292.116 52.7052 292.117 52.7047 292.118 52.7036C292.119 52.7026 292.12 52.7013 292.12 52.6999V50.4097L289.835 50.404ZM297.169 53.1971H294.89C294.759 53.1969 294.633 53.1445 294.54 53.0513C294.447 52.9581 294.395 52.8317 294.395 52.6999V50.4097C294.395 50.1355 294.617 49.9122 294.89 49.9122H297.169C297.442 49.9122 297.664 50.1355 297.664 50.4097V52.6999C297.664 52.8317 297.612 52.9581 297.519 53.0513C297.426 53.1445 297.3 53.1969 297.169 53.1971ZM294.89 50.404L294.884 52.6999L297.169 52.7052C297.17 52.7052 297.172 52.7047 297.173 52.7037C297.174 52.7027 297.175 52.7013 297.175 52.6999V50.4097L294.89 50.404ZM302.224 53.1971H299.944C299.671 53.1971 299.449 52.9741 299.449 52.6999V50.4097C299.449 50.1355 299.671 49.9122 299.944 49.9122H302.224C302.497 49.9122 302.719 50.1355 302.719 50.4097V52.6999C302.719 52.8317 302.667 52.9581 302.574 53.0513C302.481 53.1445 302.355 53.1969 302.224 53.1971ZM299.944 50.404L299.939 52.6999L302.224 52.7052C302.227 52.7052 302.23 52.7029 302.23 52.6999V50.4097L299.944 50.404ZM307.279 53.1971H305C304.868 53.1969 304.742 53.1445 304.65 53.0513C304.557 52.9581 304.505 52.8317 304.504 52.6999V50.4097C304.504 50.1355 304.727 49.9122 305 49.9122H307.279C307.551 49.9122 307.774 50.1355 307.774 50.4097V52.6999C307.774 52.8317 307.721 52.9581 307.628 53.0513C307.536 53.1445 307.41 53.1969 307.279 53.1971ZM304.999 50.404L304.994 52.6999L307.279 52.7052C307.279 52.7053 307.28 52.7052 307.281 52.7049C307.281 52.7047 307.282 52.7043 307.282 52.7038C307.283 52.7033 307.283 52.7027 307.284 52.702C307.284 52.7013 307.284 52.7006 307.284 52.6999V50.4097L304.999 50.404ZM292.114 58.3388H289.835C289.704 58.3385 289.578 58.286 289.485 58.1927C289.392 58.0995 289.34 57.9731 289.34 57.8412V55.5517C289.34 55.2776 289.562 55.0542 289.835 55.0542H292.114C292.387 55.0542 292.609 55.2776 292.609 55.5517V57.8412C292.609 57.9731 292.557 58.0995 292.464 58.1927C292.371 58.286 292.246 58.3385 292.114 58.3388ZM289.835 55.5457L289.829 57.8412L292.114 57.8469C292.117 57.8469 292.12 57.8446 292.12 57.8412V55.5517L289.835 55.5457ZM297.169 58.3388H294.89C294.759 58.3386 294.633 58.2861 294.54 58.1928C294.447 58.0996 294.395 57.9731 294.395 57.8412V55.5517C294.395 55.2776 294.617 55.0542 294.89 55.0542H297.169C297.442 55.0542 297.664 55.2776 297.664 55.5517V57.8412C297.664 57.9731 297.612 58.0996 297.519 58.1928C297.426 58.2861 297.3 58.3386 297.169 58.3388ZM294.89 55.5457L294.884 57.8412L297.169 57.8469C297.171 57.8469 297.172 57.8463 297.173 57.8452C297.174 57.8442 297.175 57.8427 297.175 57.8412V55.5517L294.89 55.5457ZM302.224 58.3388H299.944C299.813 58.3385 299.687 58.286 299.594 58.1927C299.502 58.0995 299.45 57.9731 299.449 57.8412V55.5517C299.449 55.2776 299.671 55.0542 299.944 55.0542H302.224C302.497 55.0542 302.719 55.2776 302.719 55.5517V57.8412C302.719 57.9731 302.667 58.0996 302.574 58.1928C302.481 58.2861 302.355 58.3386 302.224 58.3388ZM299.944 55.5457L299.939 57.8412L302.224 57.8469C302.227 57.8469 302.23 57.8439 302.23 57.8412V55.5517L299.944 55.5457Z" fill="#7210FF" fill-opacity="0.5"/>
    <path d="M353.011 113.492H325.883V17.3174L328.078 16.1965L353.011 3.4458L353.011 113.492ZM326.372 113H352.521V4.24831L326.372 17.619V113Z" fill="#7210FF" fill-opacity="0.5"/>
    <path d="M327.945 16.8168V0.00439453L346.215 4.60941V7.47534L346.081 7.54355L327.945 16.8168ZM328.435 0.634695V16.0146L345.725 7.17407V4.99294L328.435 0.634695ZM349.703 21.933H340.67V19.6753H349.703V21.933ZM341.16 21.4412H349.214V20.1672H341.16V21.4412ZM336.526 21.933H334.278V19.6753H336.526V21.933ZM334.768 21.4412H336.037V20.1672H334.768V21.4412ZM331.82 21.933H329.572V19.6753H331.82V21.933ZM330.062 21.4412H331.33V20.1672H330.062V21.4412ZM336.526 28.3336H334.278V26.0759H336.526V28.3336ZM334.768 27.8418H336.037V26.5678H334.768V27.8418ZM331.82 28.3336H329.572V26.0759H331.82V28.3336ZM330.062 27.8418H331.33V26.5678H330.062V27.8418ZM336.526 34.7346H334.278V32.4769H336.526V34.7346ZM334.768 34.2424H336.037V32.9684H334.768V34.2424ZM331.82 34.7346H329.572V32.4769H331.82V34.7346ZM330.062 34.2424H331.33V32.9684H330.062V34.2424ZM336.526 41.1352H334.278V38.8775H336.526V41.1352ZM334.768 40.6433H336.037V39.3694H334.768V40.6433ZM331.82 41.1352H329.572V38.8775H331.82V41.1352ZM330.062 40.6433H331.33V39.3694H330.062V40.6433ZM336.526 47.5361H334.278V45.2784H336.526V47.5361ZM334.768 47.0439H336.037V45.77H334.768V47.0439ZM331.82 47.5361H329.572V45.2784H331.82V47.5361ZM330.062 47.0439H331.33V45.77H330.062V47.0439ZM336.526 53.9371H334.278V51.6787H336.526V53.9371ZM334.768 53.4452H336.037V52.1706H334.768V53.4452ZM331.82 53.9371H329.572V51.6787H331.82V53.9371ZM330.062 53.4452H331.33V52.1706H330.062V53.4452ZM336.526 60.338H334.278V58.0803H336.526V60.338ZM334.768 59.8462H336.037V58.5722H334.768V59.8462ZM331.82 60.338H329.572V58.0803H331.82V60.338ZM330.062 59.8462H331.33V58.5722H330.062V59.8462ZM349.703 28.3336H340.67V26.0759H349.703V28.3336ZM341.16 27.8418H349.214V26.5678H341.16V27.8418ZM349.703 34.7346H340.67V32.4769H349.703V34.7346ZM341.16 34.2424H349.214V32.9684H341.16V34.2424ZM349.703 41.1352H340.67V38.8775H349.703V41.1352ZM341.16 40.6433H349.214V39.3694H341.16V40.6433ZM349.703 47.5361H340.67V45.2784H349.703V47.5361ZM341.16 47.0439H349.214V45.77H341.16V47.0439ZM349.703 53.9371H340.67V51.6787H349.703V53.9371ZM341.16 53.4452H349.214V52.1706H341.16V53.4452ZM349.703 60.338H340.67V58.0803H349.703V60.338ZM341.16 59.8462H349.214V58.5722H341.16V59.8462Z" fill="#7210FF" fill-opacity="0.5"/>
    <path d="M393.97 116.674H0V113.102H393.97V116.674ZM0.665689 116.005H393.304V113.77H0.665689V116.005Z" fill="#7210FF" fill-opacity="0.8"/>
</svg>
