<?xml version="1.0" encoding="utf-8"?>
<!-- Generator: Adobe Illustrator 25.0.1, SVG Export Plug-In . SVG Version: 6.00 Build 0)  -->
<svg version="1.1" id="Layer_1" xmlns="http://www.w3.org/2000/svg" xmlns:xlink="http://www.w3.org/1999/xlink" x="0px" y="0px"
	 viewBox="0 0 223.1 209.4" style="enable-background:new 0 0 223.1 209.4;" xml:space="preserve">
<style type="text/css">
	.st0{fill:#FFFFFF;}
</style>
<g>
	<path class="st0" d="M28.9,209.4c-2.2-0.1-4.4-0.1-6.6-0.2c-4.2-0.1-8.5-0.2-12.7-0.3c-0.3,0-0.7,0-1-0.1c-3.6-1-8.2-6.2-8.2-9.8
		c0-7.7-0.4-15.5-0.4-23.2c0-34.8,0.1-69.5,0.2-104.3c0-1.8,1.1-3.2,2.1-4.6c2.2-3.1,5.2-5,9.2-5.1c3.9-0.1,7.9-0.2,11.8-0.2
		c0.1,0,0.2,0,0.4,0.1c0,3.4,0,6.8,0,10.3c-0.3,0-0.6,0.1-0.8,0.1c-1.5,0-3,0.1-4.4,0c-3-0.3-5.4,0.9-7.3,3.1
		c-0.2,0.2-0.3,0.6-0.4,0.9c-0.1,0.3,0,0.6,0,0.9c0,39,0,78.1,0,117.1c0,1,0.3,1.7,1.1,2.4c1.8,1.9,3.9,2.6,6.5,2.4
		c1.7-0.1,3.4-0.1,5.1,0c0.8,0,1.2-0.3,1.5-1c9.6-19.4,19.2-38.8,28.9-58.2c3-6.1,6.3-12,9.5-18c0.7-1.3,1.6-2.4,2.5-3.5
		c1-1.2,2.2-1.8,3.8-1.9c7.2-0.1,14.3-0.4,21.5-0.5c22.5-0.2,44.9-0.3,67.4-0.5c1.7,0,3.4,0,5.3,0c0-10.1,0-20,0-30
		c3.5,0.1,5.8,1.9,7.9,4.2c2.1,2.2,2.3,4.8,2.4,7.6c0.2,5.7,0.3,11.5,0.4,17.2c0,0.4,0,0.8,0.1,1.3c0.5,0,1,0,1.4,0
		c11.7,0,23.4,0,35.1,0.1c2,0,4.1,0.1,6.1,0.2c3,0.2,4.6,1.5,5.5,4.4c0.1,0.3,0.2,0.5,0.3,0.8c0,0.8,0,1.7,0,2.5
		c-0.3,0.5-0.6,1.1-0.8,1.6c-12.9,24.7-25.8,49.3-38.6,74c-2,3.8-4.7,6.8-8.4,9.1c-0.8,0.5-1.5,0.7-2.4,0.7c-21.7,0-43.3,0-65,0.1
		c-2.7,0-5.3,0.1-8,0.1C76.3,209.4,52.6,209.4,28.9,209.4z"/>
	<path class="st0" d="M32.5,164.6c-0.2-0.8-0.6-1.6-0.7-2.4c-0.2-7.9-0.4-15.8-0.4-23.7c0-36.9,0-73.8,0.1-110.8
		c0-6.3,0.2-12.6,0.3-18.9c0.1-4.5,4-8.4,8.5-8.5C48,0.2,55.7,0,63.4,0c19.7,0,39.4,0.1,59.1,0.2c3.9,0,4,0,6.6,2.9
		c8.7,9.4,17.4,18.8,26,28.3c0.4,0.4,0.6,1.1,0.6,1.7c0,24.8,0,49.6,0,74.4c0,0.4,0,0.7,0,1.2c-2.7,0-5.4,0-8.1,0
		c0-0.4-0.1-0.8-0.1-1.2c-0.1-20-0.2-40.1-0.4-60.1c0-2.6-0.3-5.1-0.4-7.7c0-1.2-0.7-1.5-1.8-1.6c-6.4-0.1-12.8-0.3-19.2-0.4
		c-1.3,0-2.6-0.1-3.8-1c-1.4-1.1-1.9-2.3-1.9-4.2c0.1-6.9,0-13.7-0.1-20.6c0-0.2,0-0.4,0-0.6c-0.1-2.5-0.4-2.8-2.9-2.9
		c-17-0.2-34.1-0.4-51.1-0.4c-7.8,0-15.6,0.3-23.3,0.4c-2.4,0-2.4,0.1-2.4,2.4c-0.2,22.9-0.4,45.8-0.4,68.6c-0.1,23.5,0,47,0,70.5
		c0,0.7-0.2,1.4-0.5,2.1c-1.9,3.8-3.9,7.5-5.8,11.3c-0.2,0.4-0.5,0.7-0.7,1.1C32.8,164.6,32.7,164.6,32.5,164.6z"/>
	<path class="st0" d="M93.6,88.4c-13.3,0-26.6,0-39.9,0c-0.8,0-1.8,0-2.3-0.4c-1.3-1-2.4-2.2-2.6-4c-0.2-1.8,0.3-3.5,1.7-4.7
		c0.5-0.4,1.3-0.8,2-0.8c8.3-0.2,16.7-0.4,25-0.5c18.9-0.1,37.7,0,56.6-0.1c2.4,0,3.2,1.7,4.3,3.2c1,1.4,0.8,3.1-0.2,4.5
		c-0.7,0.9-1.5,1.8-2.3,2.5c-0.3,0.3-1,0.3-1.5,0.3C120.8,88.4,107.2,88.4,93.6,88.4z"/>
	<path class="st0" d="M92.5,57.3c-12.9,0-25.7,0-38.6,0.1c-1.8,0-3-0.6-4-1.9c-1.3-1.7-1.5-3.5-0.8-5.5c0.6-1.6,1.9-2.4,3.5-2.4
		c4.2-0.2,8.3-0.4,12.5-0.4c19.9,0,39.8,0,59.6,0c3.3,0,6.6,0.3,9.9,0.3c1.9,0,3.1,1,3.8,2.7c0.7,1.8,0.6,3.4-0.6,4.9
		c-0.9,1.2-2.1,2-3.7,2c-5.1,0.2-10.2,0.4-15.3,0.4c-8.8,0.1-17.6,0-26.4,0C92.5,57.5,92.5,57.4,92.5,57.3z"/>
</g>
</svg>
