<svg width="22" height="21" viewBox="0 0 22 21" fill="none" xmlns="http://www.w3.org/2000/svg">
<g clip-path="url(#clip0_411_2373)">
<path d="M15.6582 7.80485L18.882 8.989L16.201 16.2888C15.9501 16.9753 14.5895 19.1237 13.642 19.5619L13.412 20.1891C13.3842 20.2646 13.334 20.3299 13.2681 20.376C13.2022 20.4222 13.1237 20.4472 13.0432 20.4475C12.997 20.4472 12.9512 20.439 12.9078 20.4232C12.8107 20.3871 12.7318 20.3141 12.6882 20.2202C12.6445 20.1263 12.6396 20.019 12.6744 19.9215L12.8919 19.3286C12.411 18.3945 12.7698 15.6816 12.9805 15.1079L15.6582 7.80485ZM20.3212 0.0836273C19.8739 -0.0307554 19.4001 0.0240225 18.9907 0.237457C18.5812 0.450891 18.265 0.807956 18.1026 1.24018L16.1608 6.53039L19.3838 7.71286L21.3248 2.42349C21.4446 1.97744 21.4107 1.50405 21.2287 1.07958C21.0466 0.655116 20.727 0.30429 20.3212 0.0836273ZM14.4908 7.5339C14.5877 7.57 14.6907 7.58663 14.794 7.58283C14.8972 7.57903 14.9988 7.55488 15.0927 7.51176C15.1866 7.46864 15.2711 7.4074 15.3413 7.33156C15.4115 7.25571 15.4661 7.16675 15.5019 7.06978L17.5507 1.54374C17.6231 1.34812 17.6149 1.13175 17.5277 0.942222C17.4406 0.752693 17.2818 0.605534 17.0862 0.533119C16.8905 0.460705 16.6742 0.468965 16.4846 0.556084C16.2951 0.643203 16.1479 0.802044 16.0755 0.997664L14.0267 6.5237C13.9907 6.62049 13.9742 6.72343 13.978 6.82663C13.9819 6.92982 14.0061 7.03124 14.0492 7.12507C14.0923 7.21891 14.1535 7.30332 14.2293 7.37347C14.3051 7.44362 14.3939 7.49814 14.4908 7.5339ZM11.1926 17.8961C10.9334 17.6301 10.6279 17.4136 10.2911 17.2571C9.99145 17.1373 9.67037 17.0804 9.34779 17.0899H9.26416C9.19219 16.8834 9.06617 16.7 8.89923 16.5588C8.73229 16.4176 8.53054 16.3238 8.315 16.2871C8.05438 16.2476 7.78843 16.2621 7.53366 16.3298C7.27889 16.3974 7.04073 16.5166 6.83398 16.6801C6.86492 16.5045 6.9176 16.2954 6.95356 16.1449C7.10802 15.6758 7.15992 15.179 7.10576 14.6881C7.07043 14.5073 6.97634 14.3431 6.83812 14.2213C6.6999 14.0994 6.52529 14.0265 6.34142 14.0141C5.43509 14.0439 4.56483 14.3763 3.86942 14.9583C3.13267 15.4558 2.66018 15.7527 2.1902 15.5846C1.61653 15.3806 1.55882 13.8285 1.83479 12.4444C2.08567 11.1984 2.5406 8.87862 3.71722 7.82492C4.11361 7.47035 4.68729 7.0865 5.15894 7.27299C5.71338 7.49042 6.17166 8.40362 6.27368 9.4916C6.28235 9.60216 6.31292 9.7099 6.36362 9.80854C6.41432 9.90717 6.48414 9.99474 6.569 10.0661C6.65386 10.1375 6.75208 10.1913 6.85793 10.2244C6.96379 10.2575 7.07517 10.2692 7.18559 10.2588C7.29601 10.2485 7.40326 10.2162 7.5011 10.164C7.59895 10.1118 7.68543 10.0407 7.75551 9.9547C7.82559 9.86875 7.87788 9.76971 7.90933 9.66336C7.94078 9.55701 7.95075 9.44546 7.93868 9.33522C7.77059 7.55816 6.94102 6.17163 5.77025 5.71419C5.06862 5.44157 3.95305 5.36798 2.60081 6.57805C1.12731 7.88848 0.585413 10.1255 0.189861 12.115C-0.00749771 13.1084 -0.48835 16.405 1.62573 17.1568C2.91357 17.6159 3.95974 16.9059 4.80353 16.3406C4.9574 16.2369 5.10877 16.1349 5.25595 16.0437C5.15242 16.3373 5.11137 16.6492 5.13542 16.9596C5.15947 17.2699 5.24809 17.5718 5.3956 17.8459C5.94168 18.6671 6.71356 18.7566 7.68864 18.1143C7.72627 18.0901 7.77227 18.0616 7.81073 18.0307C7.92312 18.2675 8.114 18.4581 8.35096 18.5701C8.65124 18.7035 8.97749 18.7684 9.30597 18.7599C9.4081 18.7568 9.51024 18.7655 9.61037 18.7858C9.77299 18.8664 9.91908 18.9768 10.0411 19.1111C10.1866 19.2525 10.3402 19.3854 10.501 19.5092C10.6784 19.6423 10.9015 19.6994 11.121 19.6681C11.3406 19.6367 11.5387 19.5194 11.6718 19.342C11.8048 19.1645 11.862 18.9415 11.8306 18.7219C11.7992 18.5024 11.6819 18.3043 11.5045 18.1712C11.3958 18.085 11.2917 17.9932 11.1926 17.8961Z" fill="#7210FF"/>
</g>
<defs>
<clipPath id="clip0_411_2373">
<rect width="21.3983" height="20.45" fill="white"/>
</clipPath>
</defs>
</svg>
