<svg width="12" height="12" viewBox="0 0 12 12" fill="none" xmlns="http://www.w3.org/2000/svg">
<path d="M2.87066 8C2.92566 7.755 2.82566 7.405 2.65066 7.23L1.43566 6.015C1.05566 5.635 0.905662 5.23 1.01566 4.88C1.13066 4.53 1.48566 4.29 2.01566 4.2L3.57566 3.94C3.80066 3.9 4.07566 3.7 4.18066 3.495L5.04066 1.77C5.29066 1.275 5.63066 1 6.00066 1C6.37066 1 6.71066 1.275 6.96066 1.77L7.82066 3.495C7.88566 3.625 8.02066 3.75 8.16566 3.835L2.78066 9.22C2.71066 9.29 2.59066 9.225 2.61066 9.125L2.87066 8ZM9.35066 7.231C9.17066 7.411 9.07066 7.756 9.13066 8.001L9.47566 9.506C9.62066 10.131 9.53066 10.601 9.22066 10.826C9.08899 10.918 8.93125 10.9654 8.77066 10.961C8.51566 10.961 8.21566 10.866 7.88566 10.671L6.42066 9.801C6.19066 9.666 5.81066 9.666 5.58066 9.801L4.11566 10.671C3.56066 10.996 3.08566 11.051 2.78066 10.826C2.66566 10.741 2.58066 10.626 2.52566 10.476L8.60566 4.396C8.83566 4.166 9.16066 4.061 9.47566 4.116L9.98066 4.201C10.5107 4.291 10.8657 4.531 10.9807 4.881C11.0907 5.231 10.9407 5.636 10.5607 6.016L9.35066 7.231Z" fill="#F39A4A"/>
</svg>
