<?xml version="1.0" encoding="utf-8"?>
<!-- Generator: Adobe Illustrator 25.0.1, SVG Export Plug-In . SVG Version: 6.00 Build 0)  -->
<svg version="1.1" id="Layer_1" xmlns="http://www.w3.org/2000/svg" xmlns:xlink="http://www.w3.org/1999/xlink" x="0px" y="0px"
	 viewBox="0 0 225 225" style="enable-background:new 0 0 225 225;" xml:space="preserve">
<style type="text/css">
	.st0{fill:#FFFFFF;}
</style>
<g>
	<path class="st0" d="M225,212c0,4.3,0,8.6,0,13c-75,0-150,0-225,0c0-4.3,0-8.7,0-13c3-2.9,6.1-5.8,9.1-8.8c0.3,0.3,0.7,0.5,1,0.8
		c0-2,0-4,0-6c0-61.3,0-122.6-0.1-184C10.1,7.6,11.9,2.7,18,0c35.7,0,71.3,0,107,0c6.2,2.6,8.2,7.3,8.1,13.9
		c-0.3,14-0.1,28-0.1,41.9c0,1.8,0,3.5,0,5.7c2.7,0,4.6,0,6.6,0c20.3,0,40.6,0,60.9,0c11.1,0,14.3,3.2,14.3,14.2
		c0,40.9,0,81.9,0,122.8c0,2,0,3.9,0,5.9c0.5-0.3,0.9-0.6,1.4-0.9C219.2,206.3,222.1,209.2,225,212z M30.7,112.4
		c0,26.2,0,52.3,0,78.5c0,10.7,3.2,13.9,14.1,13.9c18.2,0,36.3,0,54.5,0c9.5,0,13.4-3.8,13.4-13.3c0-52.6,0-105.3,0-157.9
		c0-9.3-3.8-13.1-13-13.1c-18.5,0-37,0-55.5,0c-10.2,0-13.5,3.3-13.5,13.5C30.7,60.1,30.7,86.2,30.7,112.4z M133,142.8
		c0,16.5,0,33,0,49.5c0,8.5,3.7,12.4,12,12.4c12.5,0.1,25,0.1,37.5,0c7.9-0.1,11.8-3.9,11.8-11.6c0.1-33.3,0.1-66.6,0-99.9
		c0-7.6-3.8-11.2-11.5-11.3c-12.7-0.1-25.3-0.1-38,0c-8.2,0.1-11.8,3.8-11.8,12C133,110.2,133,126.5,133,142.8z"/>
	<path class="st0" d="M71.5,163.9c8.2,0,16.3-0.1,24.5,0c7.3,0.1,11.3,4,11.2,10.5c-0.2,6.1-4.3,9.7-11.4,9.7c-16.2,0-32.3,0-48.5,0
		c-6.8,0-11.2-4-11.3-10c-0.1-6.1,4.2-10.1,11-10.2C55.2,163.8,63.3,163.9,71.5,163.9z"/>
	<path class="st0" d="M71.4,102.1c-8.2,0-16.3,0-24.5,0c-6.6,0-10.8-3.9-10.9-9.7c-0.1-6,4.3-10.4,10.9-10.4c16.5-0.1,33-0.1,49.5,0
		c6.8,0,10.9,4.1,10.8,10.4c-0.1,6-4.1,9.7-10.8,9.8C88.1,102.2,79.7,102.1,71.4,102.1z"/>
	<path class="st0" d="M72,143.1c-8.2,0-16.3,0-24.5,0c-7.3,0-11.6-3.9-11.5-10.2c0.1-6,4.4-9.9,11.3-10c16.3,0,32.7-0.1,49,0
		c6.9,0,11,4,10.9,10.2c-0.1,6.2-4.2,9.9-11.2,9.9C88,143.1,80,143.1,72,143.1z"/>
	<path class="st0" d="M71.5,61.2c-8.2,0-16.3,0.1-24.5,0c-6.9-0.1-11.1-4-11-10.1c0-5.9,4.5-10,11.3-10.1c16.3-0.1,32.7-0.1,49,0
		c6.8,0,11,4.2,11,10.3c-0.1,6.2-4.1,9.9-11.2,9.9C87.8,61.3,79.7,61.2,71.5,61.2z"/>
	<path class="st0" d="M163.5,153.2c-5.2,0-10.3,0.2-15.5,0c-5.7-0.2-9.8-4.4-10-9.7c-0.2-5.3,4.3-10.2,10.1-10.3
		c10.5-0.2,20.9-0.2,31.4,0c5.6,0.1,9.6,4.7,9.6,10.1c0,5.6-3.8,9.6-9.6,9.9C174.2,153.4,168.8,153.2,163.5,153.2
		C163.5,153.2,163.5,153.2,163.5,153.2z"/>
	<path class="st0" d="M163.6,194.2c-5.2,0-10.3,0.1-15.5,0c-5.7-0.2-9.9-4.3-10.1-9.6c-0.2-5.3,4.3-10.3,10-10.4
		c10.5-0.2,20.9-0.2,31.4,0c5.8,0.1,9.9,4.9,9.7,10.5c-0.2,5.6-4.1,9.4-10,9.6C173.9,194.3,168.8,194.2,163.6,194.2z"/>
	<path class="st0" d="M163.7,112.3c-5.1,0-10.3,0.1-15.4,0c-5.7-0.1-9.5-3.7-10.1-9c-0.6-4.8,3.1-10.4,8.4-10.7
		c11.4-0.5,22.9-0.6,34.3,0c5.5,0.3,8.7,5.3,8.3,10.6c-0.4,5.2-4.3,8.9-9.9,9.1C174,112.4,168.8,112.3,163.7,112.3z"/>
</g>
</svg>
