<svg width="28" height="28" viewBox="0 0 28 28" fill="none" xmlns="http://www.w3.org/2000/svg">
    <g clip-path="url(#ch17zydjfa)">
        <path d="M27.392 12.744a1.995 1.995 0 0 0 .508-2.058 1.995 1.995 0 0 0-1.621-1.367l-6.78-.985a.886.886 0 0 1-.667-.485L15.8 1.706A1.997 1.997 0 0 0 14 .587a1.996 1.996 0 0 0-1.8 1.12L9.168 7.848a.886.886 0 0 1-.668.485l-6.78.986A1.996 1.996 0 0 0 .1 10.687a1.996 1.996 0 0 0 .508 2.058l4.905 4.781c.21.204.305.498.256.785l-1.157 6.752a1.966 1.966 0 0 0 .438 1.628 2.03 2.03 0 0 0 2.475.488l6.063-3.188a.908.908 0 0 1 .825 0l6.064 3.188c.288.154.608.234.934.234.593 0 1.155-.264 1.54-.722a1.965 1.965 0 0 0 .439-1.628L22.23 18.31a.886.886 0 0 1 .256-.785l4.905-4.782z" fill="#7210FF"/>
    </g>
    <defs>
        <clipPath id="ch17zydjfa">
            <path fill="#fff" d="M0 0h28v28H0z"/>
        </clipPath>
    </defs>
</svg>
