<svg width="16" height="16" viewBox="0 0 16 16" fill="none" xmlns="http://www.w3.org/2000/svg">
<path d="M5.33301 3.8335C5.05967 3.8335 4.83301 3.60683 4.83301 3.3335V1.3335C4.83301 1.06016 5.05967 0.833496 5.33301 0.833496C5.60634 0.833496 5.83301 1.06016 5.83301 1.3335V3.3335C5.83301 3.60683 5.60634 3.8335 5.33301 3.8335Z" fill="#7210FF"/>
<path d="M10.667 3.8335C10.3937 3.8335 10.167 3.60683 10.167 3.3335V1.3335C10.167 1.06016 10.3937 0.833496 10.667 0.833496C10.9403 0.833496 11.167 1.06016 11.167 1.3335V3.3335C11.167 3.60683 10.9403 3.8335 10.667 3.8335Z" fill="#7210FF"/>
<path d="M5.66667 9.66679C5.49333 9.66679 5.32 9.59345 5.19333 9.47345C5.07333 9.34679 5 9.18012 5 9.00012C5 8.91346 5.02 8.82679 5.05333 8.74679C5.08667 8.66679 5.13333 8.59346 5.19333 8.5268C5.44 8.28013 5.88667 8.28013 6.14 8.5268C6.26 8.65346 6.33333 8.82679 6.33333 9.00012C6.33333 9.04012 6.32667 9.0868 6.32 9.13347C6.31334 9.17347 6.3 9.21346 6.28 9.25346C6.26667 9.29346 6.24667 9.33346 6.22 9.37346C6.19333 9.40679 6.16667 9.44012 6.14 9.47345C6.01333 9.59345 5.84 9.66679 5.66667 9.66679Z" fill="#7210FF"/>
<path d="M7.99967 9.66655C7.91301 9.66655 7.82634 9.64656 7.74634 9.61322C7.65968 9.57989 7.59301 9.53321 7.52634 9.47321C7.40634 9.34654 7.33301 9.17988 7.33301 8.99988C7.33301 8.91322 7.35301 8.82655 7.38634 8.74655C7.41968 8.66655 7.46634 8.59322 7.52634 8.52655C7.59301 8.46655 7.65968 8.41987 7.74634 8.38654C7.99301 8.28654 8.28634 8.33989 8.47301 8.52655C8.59301 8.65322 8.66634 8.82655 8.66634 8.99988C8.66634 9.03988 8.65968 9.08656 8.65301 9.13322C8.64634 9.17322 8.63301 9.21322 8.61301 9.25322C8.59967 9.29322 8.57968 9.33321 8.55301 9.37321C8.53301 9.40655 8.49967 9.43988 8.47301 9.47321C8.34634 9.59321 8.17301 9.66655 7.99967 9.66655Z" fill="#7210FF"/>
<path d="M5.66667 12C5.58 12 5.49334 11.98 5.41334 11.9467C5.32667 11.9134 5.25333 11.8667 5.19333 11.8067C5.13333 11.7467 5.08667 11.6734 5.05333 11.5867C5.02 11.5067 5 11.42 5 11.3334C5 11.2467 5.02 11.16 5.05333 11.08C5.08667 10.9933 5.13333 10.92 5.19333 10.86C5.25333 10.8 5.32667 10.7533 5.41334 10.72C5.57334 10.6533 5.76 10.6467 5.92 10.72C6.00666 10.7533 6.08 10.8 6.14 10.86C6.2 10.92 6.24667 10.9933 6.28 11.08C6.31333 11.16 6.33333 11.2467 6.33333 11.3334C6.33333 11.42 6.31333 11.5067 6.28 11.5867C6.24667 11.6734 6.2 11.7467 6.14 11.8067C6.08 11.8667 6.00666 11.9134 5.92 11.9467C5.84 11.98 5.75333 12 5.66667 12Z" fill="#7210FF"/>
<path d="M13.6663 6.56006H2.33301C2.05967 6.56006 1.83301 6.33339 1.83301 6.06006C1.83301 5.78673 2.05967 5.56006 2.33301 5.56006H13.6663C13.9397 5.56006 14.1663 5.78673 14.1663 6.06006C14.1663 6.33339 13.9397 6.56006 13.6663 6.56006Z" fill="#7210FF"/>
<path d="M11.9997 15.8333C11.2197 15.8333 10.4797 15.5533 9.91301 15.04C9.67301 14.84 9.45967 14.5867 9.28634 14.2933C8.99301 13.8133 8.83301 13.2467 8.83301 12.6667C8.83301 10.92 10.253 9.5 11.9997 9.5C12.9063 9.5 13.773 9.89332 14.373 10.5733C14.8863 11.16 15.1663 11.9 15.1663 12.6667C15.1663 13.2467 15.0063 13.8133 14.7063 14.3C14.1463 15.2467 13.1063 15.8333 11.9997 15.8333ZM11.9997 10.5C10.8063 10.5 9.83301 11.4733 9.83301 12.6667C9.83301 13.06 9.93968 13.4467 10.1463 13.78C10.2597 13.98 10.4063 14.1467 10.5663 14.2867C10.9663 14.6467 11.4663 14.8333 11.9997 14.8333C12.7663 14.8333 13.4597 14.44 13.853 13.7867C14.0597 13.4467 14.1663 13.0667 14.1663 12.6667C14.1663 12.1467 13.973 11.64 13.6263 11.2333C13.213 10.7667 12.6197 10.5 11.9997 10.5Z" fill="#7210FF"/>
<path d="M11.4973 13.9133C11.3307 13.9133 11.164 13.8266 11.0706 13.6733C10.9306 13.4333 11.004 13.1266 11.244 12.9866L11.7507 12.6799C11.804 12.6466 11.8307 12.5933 11.8307 12.5399V11.9199C11.8307 11.6466 12.0573 11.4199 12.3307 11.4199C12.604 11.4199 12.8307 11.6399 12.8307 11.9133V12.5333C12.8307 12.9399 12.6107 13.3266 12.264 13.5333L11.7507 13.8399C11.6773 13.8933 11.584 13.9133 11.4973 13.9133Z" fill="#7210FF"/>
<path d="M10.2467 15.1668H5.33333C2.9 15.1668 1.5 13.7668 1.5 11.3335V5.66683C1.5 3.2335 2.9 1.8335 5.33333 1.8335H10.6667C13.1 1.8335 14.5 3.2335 14.5 5.66683V10.9068C14.5 11.1135 14.3733 11.3002 14.1733 11.3735C13.98 11.4468 13.76 11.3935 13.62 11.2335C13.2067 10.7668 12.6133 10.5002 11.9933 10.5002C10.8 10.5002 9.82667 11.4735 9.82667 12.6668C9.82667 13.0602 9.93333 13.4468 10.14 13.7802C10.2533 13.9802 10.4 14.1468 10.56 14.2868C10.72 14.4202 10.78 14.6402 10.7067 14.8402C10.6467 15.0335 10.46 15.1668 10.2467 15.1668ZM5.33333 2.8335C3.42667 2.8335 2.5 3.76016 2.5 5.66683V11.3335C2.5 13.2402 3.42667 14.1668 5.33333 14.1668H9.21333C8.96667 13.7135 8.83333 13.2002 8.83333 12.6668C8.83333 10.9202 10.2533 9.50016 12 9.50016C12.5267 9.50016 13.0467 9.6335 13.5 9.88017V5.66683C13.5 3.76016 12.5733 2.8335 10.6667 2.8335H5.33333Z" fill="#7210FF"/>
</svg>
