<svg width="40" height="40" viewBox="0 0 40 40" fill="none" xmlns="http://www.w3.org/2000/svg">
<g clip-path="url(#clip0_4235_11038)">
<path fill-rule="evenodd" clip-rule="evenodd" d="M29.6286 25.2451C29.9331 25.2451 30.1822 25.4943 30.1822 25.7895C30.1822 26.094 29.9331 26.3339 29.6286 26.3339H27.0265C26.722 26.3339 26.4821 26.094 26.4821 25.7895C26.4821 25.4943 26.722 25.2451 27.0265 25.2451H29.6286ZM22.6528 25.2451C22.9481 25.2451 23.1972 25.4943 23.1972 25.7895C23.1972 26.094 22.9481 26.3339 22.6528 26.3339H20.5213C20.2261 26.3339 19.9769 26.094 19.9769 25.7895C19.9769 25.4943 20.2261 25.2451 20.5213 25.2451H22.6528ZM16.1476 25.2451C16.4521 25.2451 16.7013 25.4943 16.7013 25.7895C16.7013 26.094 16.4521 26.3339 16.1476 26.3339H14.0254C13.7209 26.3339 13.481 26.094 13.481 25.7895C13.481 25.4943 13.7209 25.2451 14.0254 25.2451H16.1476ZM9.65167 25.2451C9.95617 25.2451 10.1961 25.4943 10.1961 25.7895C10.1961 26.094 9.95617 26.3339 9.65167 26.3339H7.52941C7.22491 26.3339 6.98501 26.094 6.98501 25.7895C6.98501 25.4943 7.22491 25.2451 7.52941 25.2451H9.65167ZM3.15571 25.2451C3.46021 25.2451 3.70012 25.4943 3.70012 25.7895C3.70012 26.094 3.46021 26.3339 3.15571 26.3339H0.544406C0.239908 26.3339 0 26.094 0 25.7895C0 25.4943 0.239908 25.2451 0.544406 25.2451H3.15571Z" fill="#8733FF"/>
<path fill-rule="evenodd" clip-rule="evenodd" d="M24.2954 27.9765C24.2954 27.6813 24.5353 27.4321 24.8398 27.4321C25.1351 27.4321 25.3842 27.6813 25.3842 27.9765V33.5036C25.3842 33.7989 25.1351 34.048 24.8398 34.048C24.5353 34.048 24.2954 33.7989 24.2954 33.5036V27.9765Z" fill="#8733FF"/>
<path fill-rule="evenodd" clip-rule="evenodd" d="M11.2939 27.9765C11.2939 27.6813 11.5431 27.4321 11.8384 27.4321C12.1428 27.4321 12.3828 27.6813 12.3828 27.9765V33.5036C12.3828 33.7989 12.1428 34.048 11.8384 34.048C11.5431 34.048 11.2939 33.7989 11.2939 33.5036V27.9765Z" fill="#8733FF"/>
<path fill-rule="evenodd" clip-rule="evenodd" d="M5.88715 23.6028C5.88715 23.9073 5.64724 24.1472 5.34275 24.1472C5.03825 24.1472 4.79834 23.9073 4.79834 23.6028V18.0849C4.79834 17.7804 5.03825 17.5405 5.34275 17.5405C5.64724 17.5405 5.88715 17.7804 5.88715 18.0849V23.6028Z" fill="#8733FF"/>
<path fill-rule="evenodd" clip-rule="evenodd" d="M18.8789 23.6028C18.8789 23.9073 18.6389 24.1472 18.3344 24.1472C18.0392 24.1472 17.79 23.9073 17.79 23.6028V18.0849C17.79 17.7804 18.0392 17.5405 18.3344 17.5405C18.6389 17.5405 18.8789 17.7804 18.8789 18.0849V23.6028Z" fill="#8733FF"/>
<path d="M31.3171 19.3031C36.1125 19.3031 39.9999 15.4157 39.9999 10.6203C39.9999 5.82493 36.1125 1.9375 31.3171 1.9375C26.5217 1.9375 22.6343 5.82493 22.6343 10.6203C22.6343 15.4157 26.5217 19.3031 31.3171 19.3031Z" fill="#8733FF"/>
<path d="M31.3169 18.2603C35.5364 18.2603 38.957 14.8397 38.957 10.6201C38.957 6.40059 35.5364 2.97998 31.3169 2.97998C27.0974 2.97998 23.6768 6.40059 23.6768 10.6201C23.6768 14.8397 27.0974 18.2603 31.3169 18.2603Z" fill="#7210FF"/>
<path d="M31.3173 17.1995C34.9508 17.1995 37.8963 14.254 37.8963 10.6205C37.8963 6.98703 34.9508 4.0415 31.3173 4.0415C27.6838 4.0415 24.7383 6.98703 24.7383 10.6205C24.7383 14.254 27.6838 17.1995 31.3173 17.1995Z" fill="white"/>
<path fill-rule="evenodd" clip-rule="evenodd" d="M30.8926 3.87544V5.23184C30.8926 5.46252 31.0863 5.65629 31.317 5.65629C31.5569 5.65629 31.7415 5.46252 31.7415 5.23184V3.87544C31.6031 3.87544 31.4647 3.86621 31.317 3.86621C31.1786 3.86621 31.031 3.87544 30.8926 3.87544Z" fill="#7210FF"/>
<path fill-rule="evenodd" clip-rule="evenodd" d="M34.3158 4.56738L33.6422 5.73924C33.5223 5.94224 33.5961 6.2006 33.7991 6.32055C34.0021 6.44051 34.2605 6.36669 34.3804 6.16369L35.054 4.99183C34.9341 4.91802 34.8141 4.8442 34.6941 4.77038C34.565 4.70579 34.445 4.63197 34.3158 4.56738Z" fill="#7210FF"/>
<path fill-rule="evenodd" clip-rule="evenodd" d="M36.9363 6.8833L35.7737 7.55689C35.5707 7.66761 35.4969 7.9352 35.6169 8.1382C35.7368 8.3412 35.9952 8.41502 36.1982 8.29507L37.37 7.62148C37.3054 7.4923 37.2316 7.36312 37.167 7.24316C37.0932 7.12321 37.0194 6.99403 36.9363 6.8833Z" fill="#7210FF"/>
<path fill-rule="evenodd" clip-rule="evenodd" d="M38.0529 10.187H36.7057C36.475 10.187 36.2812 10.3808 36.2812 10.6207C36.2812 10.8514 36.475 11.0451 36.7057 11.0451H38.0529C38.0621 10.9067 38.0713 10.7591 38.0713 10.6207C38.0713 10.4731 38.0621 10.3346 38.0529 10.187Z" fill="#7210FF"/>
<path fill-rule="evenodd" clip-rule="evenodd" d="M37.37 13.6191L36.1982 12.9456C35.9952 12.8256 35.7368 12.8902 35.6169 13.1024C35.4969 13.3054 35.5707 13.5638 35.7737 13.6837L36.9363 14.3573C37.0194 14.2374 37.0932 14.1174 37.167 13.9882C37.2316 13.8683 37.3054 13.7483 37.37 13.6191Z" fill="#7210FF"/>
<path fill-rule="evenodd" clip-rule="evenodd" d="M35.054 16.2398L34.3804 15.068C34.2605 14.865 34.0021 14.8004 33.7991 14.9111C33.5961 15.031 33.5223 15.2986 33.6422 15.5016L34.3158 16.6643C34.445 16.5997 34.5742 16.5351 34.6941 16.4613C34.8141 16.3875 34.9341 16.3136 35.054 16.2398Z" fill="#7210FF"/>
<path fill-rule="evenodd" clip-rule="evenodd" d="M31.7415 17.3565V16.0094C31.7415 15.7695 31.5569 15.5757 31.317 15.5757C31.0863 15.5757 30.8926 15.7695 30.8926 16.0094V17.3565C31.031 17.3658 31.1786 17.3658 31.317 17.3658C31.4647 17.3658 31.6031 17.3658 31.7415 17.3565Z" fill="#7210FF"/>
<path fill-rule="evenodd" clip-rule="evenodd" d="M28.3183 16.6643L28.9918 15.5016C29.1118 15.2986 29.038 15.031 28.835 14.9111C28.632 14.8004 28.3736 14.865 28.2537 15.068L27.5801 16.2398L27.9399 16.4613C28.0691 16.5351 28.1891 16.5997 28.3183 16.6643Z" fill="#7210FF"/>
<path fill-rule="evenodd" clip-rule="evenodd" d="M25.6974 14.3573L26.8693 13.6837C27.0723 13.5638 27.1368 13.3054 27.0169 13.1024C26.9062 12.8902 26.6386 12.8256 26.4356 12.9456L25.2729 13.6191C25.3375 13.7483 25.4021 13.8683 25.4759 13.9882C25.5405 14.1174 25.6236 14.2374 25.6974 14.3573Z" fill="#7210FF"/>
<path fill-rule="evenodd" clip-rule="evenodd" d="M24.581 11.0451H25.9282C26.1681 11.0451 26.3526 10.8514 26.3526 10.6207C26.3526 10.3808 26.1681 10.187 25.9282 10.187H24.581C24.5718 10.3346 24.5718 10.4731 24.5718 10.6207C24.5718 10.7591 24.5718 10.9067 24.581 11.0451Z" fill="#7210FF"/>
<path fill-rule="evenodd" clip-rule="evenodd" d="M25.2729 7.62148L26.4356 8.29507C26.6386 8.41502 26.9062 8.3412 27.0169 8.1382C27.1368 7.9352 27.0723 7.66761 26.8693 7.55689L25.6974 6.8833C25.6236 6.99403 25.5405 7.12321 25.4759 7.24316C25.4021 7.36312 25.3375 7.4923 25.2729 7.62148Z" fill="#7210FF"/>
<path fill-rule="evenodd" clip-rule="evenodd" d="M27.5801 4.99183L28.2537 6.16369C28.3736 6.36669 28.632 6.44051 28.835 6.32055C29.038 6.2006 29.1118 5.94224 28.9918 5.73924L28.3183 4.56738C28.1891 4.63197 28.0691 4.70579 27.9399 4.77038C27.82 4.8442 27.7 4.91802 27.5801 4.99183Z" fill="#7210FF"/>
<path fill-rule="evenodd" clip-rule="evenodd" d="M30.957 6.74502C30.957 6.53279 31.1231 6.3667 31.3446 6.3667C31.5568 6.3667 31.7229 6.53279 31.7229 6.74502V9.57777C31.7229 9.79 31.5568 9.96532 31.3446 9.96532C31.1231 9.96532 30.957 9.79 30.957 9.57777V6.74502ZM31.5199 11.7C31.4184 11.5155 31.483 11.2848 31.6583 11.1741C31.8428 11.0726 32.0828 11.1372 32.1843 11.3217L32.9962 12.715C33.0977 12.8996 33.0424 13.1395 32.8578 13.241C32.6733 13.3517 32.4334 13.2871 32.3319 13.1026L31.5199 11.7Z" fill="#FFCD00"/>
<path fill-rule="evenodd" clip-rule="evenodd" d="M31.3173 9.43018C31.6494 9.43018 31.9447 9.55936 32.1569 9.78081C32.3784 9.99304 32.5076 10.2883 32.5076 10.6205C32.5076 10.9434 32.3784 11.2479 32.1569 11.4602C32.1569 11.4694 32.1477 11.4694 32.1385 11.4786C31.9263 11.6816 31.6402 11.8108 31.3173 11.8108C30.9943 11.8108 30.699 11.6724 30.4776 11.4602C30.2654 11.2387 30.127 10.9434 30.127 10.6205C30.127 10.2883 30.2654 9.99304 30.4776 9.78081C30.6898 9.55936 30.9943 9.43018 31.3173 9.43018Z" fill="#7210FF"/>
<path d="M5.34261 27.9767C6.55038 27.9767 7.52946 26.9976 7.52946 25.7899C7.52946 24.5821 6.55038 23.603 5.34261 23.603C4.13485 23.603 3.15576 24.5821 3.15576 25.7899C3.15576 26.9976 4.13485 27.9767 5.34261 27.9767Z" fill="#00AF46"/>
<path d="M11.8387 27.9767C13.0465 27.9767 14.0256 26.9976 14.0256 25.7899C14.0256 24.5821 13.0465 23.603 11.8387 23.603C10.6309 23.603 9.65186 24.5821 9.65186 25.7899C9.65186 26.9976 10.6309 27.9767 11.8387 27.9767Z" fill="#FFCD00"/>
<path d="M18.3343 27.9767C19.5421 27.9767 20.5212 26.9976 20.5212 25.7899C20.5212 24.5821 19.5421 23.603 18.3343 23.603C17.1265 23.603 16.1475 24.5821 16.1475 25.7899C16.1475 26.9976 17.1265 27.9767 18.3343 27.9767Z" fill="#00AF46"/>
<path d="M24.8397 27.9767C26.0474 27.9767 27.0265 26.9976 27.0265 25.7899C27.0265 24.5821 26.0474 23.603 24.8397 23.603C23.6319 23.603 22.6528 24.5821 22.6528 25.7899C22.6528 26.9976 23.6319 27.9767 24.8397 27.9767Z" fill="#FFCD00"/>
<path fill-rule="evenodd" clip-rule="evenodd" d="M20.8168 18.6295H15.8525C15.5572 18.6295 15.3081 18.3804 15.3081 18.0851V14.0713C15.3081 13.7668 15.5572 13.5269 15.8525 13.5269H20.8168C21.1213 13.5269 21.3612 13.7668 21.3612 14.0713V18.0851C21.3612 18.3804 21.1213 18.6295 20.8168 18.6295Z" fill="#00AF46"/>
<path fill-rule="evenodd" clip-rule="evenodd" d="M22.3574 32.9595H27.3216C27.6169 32.9595 27.866 33.1994 27.866 33.5039V37.5177C27.866 37.8222 27.6169 38.0621 27.3216 38.0621H22.3574C22.0529 38.0621 21.813 37.8222 21.813 37.5177V33.5039C21.813 33.1994 22.0529 32.9595 22.3574 32.9595Z" fill="#FFCD00"/>
<path fill-rule="evenodd" clip-rule="evenodd" d="M9.35642 32.9595H14.3207C14.6252 32.9595 14.8651 33.1994 14.8651 33.5039V37.5177C14.8651 37.8222 14.6252 38.0621 14.3207 38.0621H9.35642C9.06115 38.0621 8.81201 37.8222 8.81201 37.5177V33.5039C8.81201 33.1994 9.06115 32.9595 9.35642 32.9595Z" fill="#FFCD00"/>
<path fill-rule="evenodd" clip-rule="evenodd" d="M7.82457 18.6295H2.86032C2.55583 18.6295 2.31592 18.3804 2.31592 18.0851V14.0713C2.31592 13.7668 2.55583 13.5269 2.86032 13.5269H7.82457C8.12907 13.5269 8.36897 13.7668 8.36897 14.0713V18.0851C8.36897 18.3804 8.12907 18.6295 7.82457 18.6295Z" fill="#00AF46"/>
</g>
<defs>
<clipPath id="clip0_4235_11038">
<rect width="40" height="40" fill="white"/>
</clipPath>
</defs>
</svg>
