<svg width="73" height="72" viewBox="0 0 73 72" fill="none" xmlns="http://www.w3.org/2000/svg">
<g clip-path="url(#clip0_2474_4232)">
<path d="M36.5 72C56.3823 72 72.5 55.8823 72.5 36C72.5 16.1177 56.3823 0 36.5 0C16.6177 0 0.5 16.1177 0.5 36C0.5 55.8823 16.6177 72 36.5 72Z" fill="#DC3027" fill-opacity="0.1"/>
<path d="M47.8259 10.5122V61.4851C47.8259 62.8181 46.7453 63.8986 45.4123 63.8986H17.7861C16.4531 63.8986 15.3726 62.8181 15.3726 61.4851V10.5122C15.3726 9.1792 16.4531 8.09863 17.7861 8.09863H45.4123C46.7453 8.09863 47.8259 9.1792 47.8259 10.5122Z" fill="#DC3027" fill-opacity="0.1"/>
<path d="M15.3726 55.9312V61.4853C15.3726 62.8183 16.4531 63.8988 17.7861 63.8988H45.4123C46.7453 63.8988 47.8259 62.8183 47.8259 61.4853V55.9312H15.3726Z" fill="#DC3027" fill-opacity="0.1"/>
<path opacity="0.1" d="M47.8266 10.5116V61.4876C47.8266 62.8196 46.7466 63.8996 45.4146 63.8996H41.0586C42.3906 63.8996 43.4706 62.8196 43.4706 61.4876V10.5116C43.4706 9.17947 42.3906 8.09961 41.0586 8.09961H45.4146C46.7466 8.09961 47.8266 9.17961 47.8266 10.5116Z" fill="#DC3027"/>
<path d="M53.8726 23.2819C53.8726 26.503 51.266 29.1144 48.0448 29.1144C44.8237 29.1144 42.217 26.503 42.217 23.2819C42.217 20.0655 44.8237 17.4541 48.0448 17.4541C51.2658 17.4541 53.8726 20.0655 53.8726 23.2819Z" fill="#DC3027" fill-opacity="0.1"/>
<path opacity="0.1" d="M53.8747 23.283C53.8747 26.505 51.2647 29.1152 48.0427 29.1152C47.5837 29.1152 47.1427 29.0612 46.7107 28.9532C49.2847 28.3592 51.2017 26.046 51.2017 23.2832C51.2017 20.5292 49.2847 18.2162 46.7107 17.6132C47.1427 17.505 47.5837 17.4512 48.0427 17.4512C51.2647 17.451 53.8747 20.07 53.8747 23.283Z" fill="#DC3027"/>
<path d="M49.6653 25.3825C49.6653 25.5325 49.6053 25.6725 49.5053 25.7726C49.3953 25.8726 49.2653 25.9227 49.1252 25.9227H47.005C46.8649 25.9227 46.725 25.8626 46.6249 25.7627C46.5249 25.6627 46.475 25.5326 46.475 25.3827C46.475 25.2326 46.5249 25.1026 46.6249 25.0026C46.7249 24.8926 46.8549 24.8425 47.005 24.8425H47.5751V22.0223L47.2351 22.1923C47.1249 22.2323 47.0451 22.2524 46.965 22.2524C46.815 22.2524 46.6849 22.2023 46.575 22.1023C46.475 22.0023 46.425 21.8623 46.425 21.7124C46.425 21.4923 46.535 21.3123 46.7351 21.2123L47.6652 20.7222C47.7652 20.6723 47.8752 20.6523 47.9753 20.6523H48.1152C48.2752 20.6523 48.4153 20.7023 48.5253 20.8124C48.6353 20.9225 48.6953 21.0624 48.6953 21.2224V24.8428H49.1253C49.2654 24.8428 49.4055 24.8929 49.5054 25.0029C49.6054 25.1024 49.6653 25.2325 49.6653 25.3825Z" fill="#DC3027"/>
<path d="M57.6271 22.6089H56.8422C56.4696 22.6089 56.1672 22.9112 56.1672 23.2839C56.1672 23.6565 56.4696 23.9589 56.8422 23.9589H57.6271C57.9997 23.9589 58.3021 23.6565 58.3021 23.2839C58.3022 22.9112 57.9999 22.6089 57.6271 22.6089Z" fill="#DC3027"/>
<path d="M36.9165 11.7699H37.631C38.0036 11.7699 38.306 11.4676 38.306 11.0949C38.306 10.7223 38.0036 10.4199 37.631 10.4199H36.9165C36.5438 10.4199 36.2415 10.7223 36.2415 11.0949C36.2415 11.4676 36.5439 11.7699 36.9165 11.7699Z" fill="#DC3027"/>
<path d="M25.5673 11.7699H32.581C32.9537 11.7699 33.256 11.4676 33.256 11.0949C33.256 10.7223 32.9537 10.4199 32.581 10.4199H25.5673C25.1947 10.4199 24.8923 10.7223 24.8923 11.0949C24.8923 11.4676 25.1947 11.7699 25.5673 11.7699Z" fill="#DC3027"/>
<path d="M30.5146 60.5897H32.6837C33.0564 60.5897 33.3587 60.2874 33.3587 59.9147C33.3587 59.5421 33.0564 59.2397 32.6837 59.2397H30.5146C30.1419 59.2397 29.8396 59.5421 29.8396 59.9147C29.8396 60.2874 30.1419 60.5897 30.5146 60.5897Z" fill="#DC3027"/>
<path d="M54.5474 23.2821C54.5474 19.8504 51.8739 17.0385 48.5013 16.8021V10.5115C48.5013 8.80912 47.117 7.4248 45.4146 7.4248H17.7845C16.0821 7.4248 14.6978 8.80912 14.6978 10.5115V61.4854V61.4881C14.6978 63.1905 16.0821 64.5748 17.7845 64.5748H45.4146C47.117 64.5748 48.5013 63.1905 48.5013 61.4881V29.7663C51.8741 29.5298 54.5474 26.7162 54.5474 23.2821ZM17.7845 8.77481H45.4146C46.3727 8.77481 47.1513 9.55345 47.1513 10.5115V16.8477C43.9883 17.2853 41.5422 19.9999 41.5422 23.282C41.5422 26.5665 43.9884 29.2829 47.1513 29.7206V55.2557H16.0479V10.5115C16.0479 9.55359 16.8265 8.77481 17.7845 8.77481ZM47.1505 61.4854C47.1505 62.4443 46.3709 63.2238 45.4121 63.2238H17.7863C16.8274 63.2238 16.0478 62.4442 16.0478 61.4854V56.6057H47.1505V61.4854ZM48.0444 28.4395C45.2038 28.4395 42.8922 26.1262 42.8922 23.2821C42.8922 20.4406 45.2038 18.129 48.0444 18.129C50.8859 18.129 53.1975 20.4406 53.1975 23.2821C53.1974 26.1262 50.8859 28.4395 48.0444 28.4395Z" fill="#DC3027"/>
<path d="M55.3384 15.9907C55.0747 15.7271 54.6475 15.7271 54.3838 15.9907L53.7888 16.5857C53.5251 16.8494 53.5251 17.2765 53.7888 17.5401C53.9207 17.672 54.093 17.7378 54.2661 17.7378C54.4392 17.7378 54.6115 17.6719 54.7434 17.5401L55.3384 16.9451C55.602 16.6815 55.602 16.2544 55.3384 15.9907Z" fill="#DC3027"/>
<path d="M54.384 30.5779C54.516 30.7098 54.6882 30.7756 54.8613 30.7756C55.0344 30.7756 55.2067 30.7096 55.3386 30.5779C55.6023 30.3142 55.6023 29.887 55.3386 29.6233L54.7436 29.0283C54.48 28.7646 54.0527 28.7646 53.7891 29.0283C53.5254 29.292 53.5254 29.7191 53.7891 29.9827L54.384 30.5779Z" fill="#DC3027"/>
<path d="M49.1253 24.8422H48.6953V21.2218C48.6953 21.0618 48.6353 20.9217 48.5253 20.8117C48.4153 20.7016 48.2752 20.6519 48.1152 20.6519H47.9753C47.8753 20.6519 47.7652 20.6717 47.6652 20.7217L46.7351 21.2118C46.535 21.3118 46.425 21.4918 46.425 21.7117C46.425 21.8618 46.475 22.0019 46.575 22.1017C46.6849 22.2018 46.815 22.2517 46.965 22.2517C47.0451 22.2517 47.1249 22.2318 47.2351 22.1917L47.5751 22.0217V24.8421H47.005C46.8549 24.8421 46.725 24.892 46.6249 25.0021C46.5249 25.1021 46.475 25.232 46.475 25.3821C46.475 25.5321 46.5249 25.6622 46.6249 25.7622C46.7249 25.8622 46.8649 25.9221 47.005 25.9221H49.1252C49.2653 25.9221 49.3952 25.8721 49.5053 25.7722C49.6053 25.672 49.6653 25.5321 49.6653 25.3821C49.6653 25.2322 49.6053 25.1021 49.5053 25.0021C49.4053 24.892 49.2654 24.8422 49.1253 24.8422Z" fill="#DC3027"/>
<path d="M39.6202 34.401C39.5655 34.4061 39.5132 34.4148 39.4601 34.4334C39.4239 34.4462 39.3921 34.4636 39.359 34.482C39.3305 34.4979 39.2988 34.5038 39.272 34.524L36.9552 36.2896C36.659 36.5155 36.6019 36.9392 36.8278 37.2362C37.0528 37.5315 37.4755 37.5904 37.7743 37.3636L38.8401 36.5511C38.7788 36.8506 38.7162 37.1497 38.6172 37.4383C38.4317 38.0078 38.184 38.5403 37.8746 39.0282C36.5062 41.2403 34.1304 42.5605 31.5183 42.5605C28.7032 42.5605 26.1535 41.0075 24.8649 38.507C24.6935 38.1774 24.2902 38.0438 23.9552 38.2161C23.6239 38.3875 23.4939 38.7943 23.6643 39.1258C25.1857 42.0771 28.1951 43.9105 31.5182 43.9105C34.6014 43.9105 37.4069 42.3504 39.0189 39.7445C39.3845 39.1671 39.6806 38.5316 39.8969 37.8663C40.0139 37.5262 40.1017 37.1757 40.1741 36.8206L40.9103 37.7872C41.043 37.9612 41.2442 38.0527 41.4482 38.0527C41.5906 38.0527 41.7338 38.0078 41.8568 37.9147C42.153 37.6889 42.2102 37.2652 41.9842 36.9682L40.2185 34.6514C40.2076 34.637 40.1914 34.6303 40.1796 34.617C40.1548 34.5893 40.1264 34.5681 40.0975 34.5449C40.0562 34.5119 40.0163 34.4809 39.9696 34.4587C39.9418 34.4453 39.9121 34.4386 39.8823 34.4292C39.8273 34.4119 39.7736 34.3985 39.7159 34.3956C39.704 34.3949 39.6939 34.3887 39.6816 34.3887C39.6598 34.3887 39.6414 34.3989 39.6202 34.401Z" fill="#DC3027"/>
<path d="M22.7968 35.4478C22.8029 35.4564 22.8129 35.4591 22.8192 35.4674C22.8755 35.5405 22.943 35.6006 23.0241 35.6457C23.0341 35.6513 23.042 35.6596 23.0521 35.6646C23.1418 35.7087 23.2394 35.7387 23.3461 35.7387C23.3589 35.7387 23.3696 35.7321 23.3823 35.7313C23.4491 35.7281 23.515 35.7149 23.5798 35.6914C23.606 35.6817 23.6285 35.6685 23.653 35.6558C23.681 35.6416 23.7108 35.633 23.7372 35.6148L26.0277 34.016C26.3327 33.8024 26.4082 33.3815 26.1948 33.0755C25.9812 32.7705 25.5628 32.6958 25.2543 32.9084L24.1656 33.6688C24.2269 33.3461 24.2962 33.025 24.4 32.7133C24.581 32.171 24.8227 31.6551 25.1207 31.1743C26.4883 28.9207 28.8797 27.5751 31.5183 27.5751C34.3018 27.5751 36.8383 29.1061 38.14 31.5715C38.3131 31.902 38.7228 32.0294 39.0514 31.8536C39.3819 31.6795 39.5076 31.2718 39.3335 30.9422C37.798 28.0321 34.8037 26.2251 31.5183 26.2251C28.4034 26.2251 25.5804 27.8133 23.9694 30.4693C23.6205 31.0326 23.3339 31.6435 23.1194 32.2851C23.0195 32.5854 22.9424 32.892 22.8756 33.2009L22.3047 32.3825C22.0911 32.0775 21.6718 32.0028 21.3642 32.2154C21.0591 32.4291 20.9836 32.8499 21.1972 33.1559L22.7968 35.4478Z" fill="#DC3027"/>
</g>
<defs>
<clipPath id="clip0_2474_4232">
<rect width="72" height="72" fill="white" transform="translate(0.5)"/>
</clipPath>
</defs>
</svg>
