<svg width="56" height="56" viewBox="0 0 56 56" fill="none" xmlns="http://www.w3.org/2000/svg">
<path d="M24.7326 9.68347V14.0001H21.2793C17.5227 14.0001 15.6327 15.89 15.6327 19.6467V42.0001H9.68274C6.34607 42.0001 4.66602 40.32 4.66602 36.9834V9.68347C4.66602 6.34681 6.34607 4.66675 9.68274 4.66675H19.716C23.0527 4.66675 24.7326 6.34681 24.7326 9.68347Z" fill="#7210FF"/>
<path opacity="0.4" d="M40.5294 19.6466V45.6867C40.5294 49.4434 38.6628 51.3333 34.9062 51.3333H21.2794C17.5228 51.3333 15.6328 49.4434 15.6328 45.6867V19.6466C15.6328 15.89 17.5228 14 21.2794 14H34.9062C38.6628 14 40.5294 15.89 40.5294 19.6466Z" fill="#7210FF"/>
<path d="M51.3342 9.68347V36.9834C51.3342 40.32 49.6541 42.0001 46.3175 42.0001H40.5308V19.6467C40.5308 15.89 38.6642 14.0001 34.9076 14.0001H31.2676V9.68347C31.2676 6.34681 32.9475 4.66675 36.2842 4.66675H46.3175C49.6541 4.66675 51.3342 6.34681 51.3342 9.68347Z" fill="#7210FF"/>
<path d="M32.6673 27.4167H23.334C22.3773 27.4167 21.584 26.6234 21.584 25.6667C21.584 24.7101 22.3773 23.9167 23.334 23.9167H32.6673C33.624 23.9167 34.4173 24.7101 34.4173 25.6667C34.4173 26.6234 33.624 27.4167 32.6673 27.4167Z" fill="#7210FF"/>
<path d="M32.6673 34.4167H23.334C22.3773 34.4167 21.584 33.6234 21.584 32.6667C21.584 31.7101 22.3773 30.9167 23.334 30.9167H32.6673C33.624 30.9167 34.4173 31.7101 34.4173 32.6667C34.4173 33.6234 33.624 34.4167 32.6673 34.4167Z" fill="#7210FF"/>
<path d="M29.75 44.3333V51.3333H26.25V44.3333C26.25 43.3766 27.0433 42.5833 28 42.5833C28.9567 42.5833 29.75 43.3766 29.75 44.3333Z" fill="#7210FF"/>
</svg>
