<svg width="16" height="16" viewBox="0 0 16 16" fill="none" xmlns="http://www.w3.org/2000/svg">
<g clip-path="url(#clip0_3791_9468)">
<path d="M8.66634 14.6668H3.33301C1.99967 14.6668 1.33301 14.0002 1.33301 12.6668V7.3335C1.33301 6.00016 1.99967 5.3335 3.33301 5.3335H6.66634V12.6668C6.66634 14.0002 7.33301 14.6668 8.66634 14.6668Z" stroke="#7210FF" stroke-miterlimit="10" stroke-linecap="round" stroke-linejoin="round"/>
<path d="M9.33301 5.33317V8.6665M11.9997 5.33317V8.6665M6.73967 2.6665C6.68634 2.8665 6.66634 3.0865 6.66634 3.33317V5.33317H3.33301V3.99984C3.33301 3.2665 3.93301 2.6665 4.66634 2.6665H6.73967Z" stroke="#7210FF" stroke-miterlimit="10" stroke-linecap="round" stroke-linejoin="round"/>
<path d="M11.333 11.3335H9.99967C9.63301 11.3335 9.33301 11.6335 9.33301 12.0002V14.6668H11.9997V12.0002C11.9997 11.6335 11.6997 11.3335 11.333 11.3335Z" stroke="#7210FF" stroke-miterlimit="10" stroke-linecap="round" stroke-linejoin="round"/>
<path d="M4 8.6665V11.3332" stroke="#7210FF" stroke-miterlimit="10" stroke-linecap="round" stroke-linejoin="round"/>
<path d="M6.66699 12.6668V3.3335C6.66699 2.00016 7.33366 1.3335 8.66699 1.3335H12.667C14.0003 1.3335 14.667 2.00016 14.667 3.3335V12.6668C14.667 14.0002 14.0003 14.6668 12.667 14.6668H8.66699C7.33366 14.6668 6.66699 14.0002 6.66699 12.6668Z" stroke="#7210FF" stroke-miterlimit="10" stroke-linecap="round" stroke-linejoin="round"/>
</g>
<defs>
<clipPath id="clip0_3791_9468">
<rect width="16" height="16" fill="white"/>
</clipPath>
</defs>
</svg>
