<svg width="40" height="40" viewBox="0 0 40 40" fill="none" xmlns="http://www.w3.org/2000/svg">
<path fill-rule="evenodd" clip-rule="evenodd" d="M19.4229 36.5402C19.8767 36.8444 20.1669 37.3584 20.1669 37.9303V39.2817C20.1669 39.5313 19.9645 39.7337 19.7149 39.7337H11.4401C11.1905 39.7337 10.9882 39.5313 10.9882 39.2817V37.9303C10.9882 37.3584 11.2783 36.8444 11.7322 36.5402H8.63575C7.83812 36.5402 7.18869 35.8906 7.18869 35.093V32.8515H4.94714C4.1496 32.8515 3.5 32.202 3.5 31.4044V4.9354C3.50082 4.81081 3.54786 4.69971 3.63643 4.6118L7.85227 0.395962C7.9401 0.307145 8.05317 0.258954 8.18237 0.259776H27.4483C28.2458 0.259694 28.8954 0.90929 28.8954 1.70683V3.9483H31.1369C31.9344 3.9483 32.584 4.5979 32.584 5.39544V31.6878L35.7677 33.3903C36.3845 33.7202 36.7128 34.4504 36.347 35.0413L35.4425 36.6079C35.0891 37.2201 34.2919 37.2532 33.737 36.9082L32.2668 35.9943C31.9968 36.3324 31.5837 36.5402 31.137 36.5402H19.423H19.4229Z" fill="black"/>
<path fill-rule="evenodd" clip-rule="evenodd" d="M12.7861 14.6664H19.6075V10.3047C19.6075 8.42967 18.0719 6.89404 16.1969 6.89404C14.3218 6.89404 12.7861 8.42967 12.7861 10.3047V14.6664ZM14.6202 11.3689C14.6202 11.6185 14.4178 11.8209 14.1682 11.8209C13.9186 11.8209 13.7162 11.6185 13.7162 11.3689V10.5305C13.7162 9.16528 14.8316 8.04989 16.1969 8.04989C16.4465 8.04989 16.6488 8.25228 16.6488 8.50187C16.6488 8.75146 16.4465 8.95385 16.1969 8.95385C15.3306 8.95385 14.6203 9.66414 14.6203 10.5304V11.3688L14.6202 11.3689Z" fill="#FFCD00"/>
<path fill-rule="evenodd" clip-rule="evenodd" d="M13.9342 21.292C13.2393 20.0883 12.5445 18.8849 11.8496 17.6814C11.738 17.501 11.6176 17.4014 11.3889 17.4014C11.1915 17.4014 11.0404 17.4872 10.9418 17.6579C9.5473 20.0733 8.15272 22.4888 6.75821 24.9042C6.56257 25.2679 6.76068 25.7001 7.19111 25.7001H15.5868C15.9843 25.7001 16.2377 25.2818 16.0331 24.9275L13.9343 21.292L13.9342 21.292ZM10.937 24.4568C10.937 24.2071 11.1393 24.0047 11.3889 24.0047C11.6385 24.0047 11.8409 24.2071 11.8409 24.4567C11.8409 24.7063 11.6385 24.9088 11.3889 24.9088C11.1393 24.9088 10.937 24.7065 10.937 24.4568ZM10.937 19.4208C10.937 19.1712 11.1393 18.9688 11.3889 18.9688C11.6385 18.9688 11.8409 19.1712 11.8409 19.4208V22.7909C11.8409 23.0405 11.6385 23.2429 11.3889 23.2429C11.1393 23.2429 10.937 23.0405 10.937 22.7909V19.4208Z" fill="#FFCD00"/>
<path fill-rule="evenodd" clip-rule="evenodd" d="M24.2197 27.2155L27.9903 29.2318V1.70667C27.9903 1.40815 27.7457 1.16357 27.4472 1.16357H8.62656V3.94017C8.62656 4.73779 7.97705 5.3873 7.17942 5.3873H4.40283V31.4044C4.40283 31.703 4.64732 31.9475 4.94593 31.9475H16.9626L16.76 31.8306C16.5446 31.7058 16.4711 31.4299 16.5958 31.2144L17.31 29.9775C17.6486 29.391 18.3369 29.1138 18.9772 29.2797C20.1759 27.7516 21.1118 26.1336 21.7848 24.4259C21.3182 23.9545 21.2122 23.2178 21.5529 22.6286L22.2677 21.3922C22.3918 21.1779 22.6668 21.1042 22.8814 21.2275L27.1608 23.6972C27.3763 23.822 27.4498 24.0979 27.325 24.3134L26.6109 25.5503C26.2714 26.1383 25.5804 26.4153 24.9391 26.2468C24.6895 26.5608 24.4497 26.8837 24.2197 27.2155ZM22.3082 10.7559C22.0586 10.7559 21.8562 10.5536 21.8562 10.304C21.8562 10.0544 22.0586 9.85199 22.3082 9.85199H24.2979C24.5475 9.85199 24.7499 10.0544 24.7499 10.304C24.7499 10.5536 24.5475 10.7559 24.2979 10.7559H22.3082ZM20.8377 6.30195C20.6612 6.47843 20.375 6.47843 20.1986 6.30195C20.0221 6.12547 20.0221 5.83928 20.1986 5.6628L21.6056 4.25579C21.782 4.07931 22.0682 4.07931 22.2447 4.25579C22.4212 4.43228 22.4212 4.71846 22.2447 4.89495L20.8377 6.30195ZM16.6486 4.19231C16.6486 4.4419 16.4462 4.64429 16.1966 4.64429C15.947 4.64429 15.7446 4.4419 15.7446 4.19231V2.20257C15.7446 1.95297 15.947 1.75059 16.1966 1.75059C16.4462 1.75059 16.6486 1.95297 16.6486 2.20257V4.19231ZM12.1946 5.6628C12.3711 5.83928 12.3711 6.12547 12.1946 6.30195C12.0181 6.47843 11.7319 6.47843 11.5555 6.30195L10.1485 4.89495C9.97197 4.71846 9.97197 4.43228 10.1485 4.25579C10.3249 4.07931 10.6111 4.07931 10.7876 4.25579L12.1946 5.6628ZM10.085 9.85191C10.3346 9.85191 10.5369 10.0543 10.5369 10.3039C10.5369 10.5535 10.3346 10.7559 10.085 10.7559H8.09522C7.84563 10.7559 7.64324 10.5535 7.64324 10.3039C7.64324 10.0543 7.84563 9.85191 8.09522 9.85191H10.085ZM13.6189 18.9461L16.8132 24.479C17.3739 25.45 16.647 26.6041 15.5865 26.6041H7.19077C6.09528 26.6041 5.39783 25.3923 5.97842 24.4541C7.14891 22.4267 8.30723 20.3829 9.4871 18.3589V16.8058C9.4871 15.6278 10.4494 14.6656 11.6273 14.6656H11.8819V10.3039C11.8819 7.92985 13.8226 5.9892 16.1965 5.9892C18.5705 5.9892 20.5112 7.92993 20.5112 10.3039V14.6656H20.7658C21.9439 14.6656 22.9061 15.6278 22.9061 16.8058V18.4941C22.9061 18.7437 22.7037 18.9461 22.4541 18.9461H13.6189ZM8.68133 28.6865C8.43174 28.6865 8.22935 28.4841 8.22935 28.2345C8.22935 27.9849 8.43174 27.7825 8.68133 27.7825H14.0961C14.3457 27.7825 14.5481 27.9849 14.5481 28.2345C14.5481 28.4841 14.3457 28.6865 14.0961 28.6865H8.68133ZM7.72499 30.7689C7.4754 30.7689 7.27301 30.5665 7.27301 30.3169C7.27301 30.0673 7.4754 29.8649 7.72499 29.8649H15.0524C15.302 29.8649 15.5043 30.0673 15.5043 30.3169C15.5043 30.5665 15.302 30.7689 15.0524 30.7689H7.72499Z" fill="white"/>
<path fill-rule="evenodd" clip-rule="evenodd" d="M12.6293 17.2315L13.0974 18.0423H22.0025V16.806C22.0025 16.127 21.4453 15.5698 20.7663 15.5698H11.6278C10.9488 15.5698 10.3916 16.1269 10.3916 16.806V16.9069C11.0419 16.2569 12.2171 16.4028 12.6293 17.2315Z" fill="#FFCD00"/>
<path fill-rule="evenodd" clip-rule="evenodd" d="M12.019 35.6362C12.019 35.1272 11.9784 34.7249 12.3902 34.313C12.6193 34.0839 12.9358 33.9418 13.2846 33.9418H17.868C18.5656 33.9418 19.1336 34.5098 19.1336 35.2074V35.6362H31.1356C31.2694 35.6362 31.3903 35.589 31.4851 35.5092L27.2094 32.8516H22.3942L21.6537 34.1361C21.529 34.3516 21.253 34.4251 21.0375 34.3003L18.5282 32.8516H8.09131V35.0932C8.09131 35.3918 8.3358 35.6363 8.63441 35.6363H12.0189L12.019 35.6362Z" fill="#7210FF"/>
<path fill-rule="evenodd" clip-rule="evenodd" d="M18.23 36.2577V35.2073C18.23 35.0087 18.067 34.8457 17.8683 34.8457H13.2849C13.0863 34.8457 12.9233 35.0087 12.9233 35.2073V36.2577H18.23Z" fill="white"/>
<path fill-rule="evenodd" clip-rule="evenodd" d="M18.494 37.1618C17.8709 37.1618 12.6943 37.1467 12.5405 37.1712C12.171 37.23 11.8916 37.5507 11.8916 37.9304V38.8298H19.2624V37.9304C19.2624 37.5051 18.9141 37.1618 18.494 37.1618Z" fill="#7210FF"/>
<path fill-rule="evenodd" clip-rule="evenodd" d="M28.8945 29.7151L31.6792 31.2041V5.39515C31.6792 5.09654 31.4346 4.85205 31.1361 4.85205H28.8946V29.7151H28.8945Z" fill="#7210FF"/>
<path fill-rule="evenodd" clip-rule="evenodd" d="M25.7552 31.9477L22.6192 29.9985C22.4494 30.3592 22.2889 30.7277 22.1377 31.1038C22.3653 31.3345 22.5093 31.6323 22.5534 31.9477H25.7552Z" fill="white"/>
<path fill-rule="evenodd" clip-rule="evenodd" d="M22.0163 29.1807L22.6062 28.0805C23.0615 27.292 23.566 26.5427 24.1196 25.8328L22.5545 24.9292C21.8751 26.6059 20.9576 28.1938 19.8018 29.693L21.3722 30.5997C21.572 30.1139 21.7867 29.6408 22.0162 29.1806L22.0163 29.1807Z" fill="#FFCD00"/>
<path fill-rule="evenodd" clip-rule="evenodd" d="M23.0239 29.1868L34.2129 36.1417C34.3463 36.2246 34.5912 36.2807 34.6629 36.1566L35.5801 34.5659C35.6513 34.443 35.484 34.2598 35.3431 34.1845C31.4698 32.1133 27.5965 30.042 23.7232 27.9707L23.0239 29.1868V29.1868Z" fill="#FFCD00"/>
<path fill-rule="evenodd" clip-rule="evenodd" d="M25.0085 25.3065C25.3048 25.4635 25.6567 25.4001 25.8312 25.0978L26.32 24.2512L22.8234 22.2324L22.334 23.0801C22.173 23.3589 22.2705 23.7245 22.551 23.8866L25.0085 25.3065Z" fill="#FFCD00"/>
<path fill-rule="evenodd" clip-rule="evenodd" d="M18.9261 30.2291C18.7664 30.1512 18.6543 30.1012 18.4504 30.1558C18.3038 30.1951 18.1723 30.2896 18.0914 30.4297L17.603 31.2755L21.0996 33.2943C21.1869 33.1432 21.6173 32.4302 21.6444 32.3147C21.7078 32.0455 21.6132 31.7783 21.3716 31.6409L18.9261 30.229V30.2291Z" fill="#FFCD00"/>
<path fill-rule="evenodd" clip-rule="evenodd" d="M5.04248 4.48327H7.17992C7.47853 4.48327 7.72302 4.23878 7.72302 3.94017V1.80273L5.04248 4.48327Z" fill="#FFCD00"/>
</svg>
