<svg width="24" height="24" viewBox="0 0 24 24" fill="none" xmlns="http://www.w3.org/2000/svg">
    <path d="M24 18.857c0 .784-.635 1.419-1.419 1.419H1.42A1.419 1.419 0 0 1 0 18.857V5.143c0-.783.635-1.419 1.419-1.419H22.58c.784 0 1.419.636 1.419 1.42v13.713z" fill="#fff"/>
    <path d="m5.327 12.095-.564-2.703c-.096-.373-.376-.484-.727-.498H1.453l-.023.123c2.012.488 3.343 1.665 3.897 3.079z" fill="#F79F1A"/>
    <path d="M11.313 8.948H9.644l-1.042 6.119h1.666l1.045-6.119zM6.344 15.06 8.97 8.953H7.203L5.57 13.126l-.175-.63c-.32-.759-1.235-1.85-2.309-2.536l1.493 5.102 1.765-.002zm9.73-1.994c.007-.694-.439-1.224-1.4-1.662-.584-.282-.94-.47-.936-.758 0-.253.302-.525.955-.525.546-.009.94.11 1.248.234l.15.07.227-1.326a4.324 4.324 0 0 0-1.495-.256c-1.648 0-2.808.83-2.819 2.02-.01.879.83 1.369 1.462 1.662.649.298.867.49.863.758-.005.41-.518.597-.997.597-.668 0-1.022-.093-1.57-.321l-.214-.098-.234 1.37c.389.17 1.109.32 1.857.326 1.752 0 2.891-.819 2.904-2.09zm1.984 1.084 2.136.002c.05.213.203.917.203.917h1.547l-1.35-6.115h-1.288c-.4 0-.697.11-.873.507l-2.477 5.608h1.752s.285-.754.35-.92zm1.143-2.963c-.008.016.138-.354.222-.585l.113.528.385 1.767h-1.384c.139-.351.664-1.71.664-1.71zm3.38-7.463H1.42C.635 3.724 0 4.36 0 5.144v1.472h24V5.143c0-.783-.635-1.419-1.419-1.419z" fill="#059BBF"/>
    <path d="M22.581 20.276H1.42A1.419 1.419 0 0 1 0 18.857v-1.472h24v1.472c0 .784-.635 1.419-1.419 1.419z" fill="#F79F1A"/>
    <path opacity=".15" d="M1.009 18.857V5.143c0-.783.635-1.419 1.418-1.419H1.42C.635 3.724 0 4.36 0 5.144v13.713c0 .784.635 1.419 1.419 1.419h1.008a1.419 1.419 0 0 1-1.418-1.419z" fill="#202121"/>
</svg>
