<svg width="24" height="25" viewBox="0 0 24 25" fill="none" xmlns="http://www.w3.org/2000/svg">
<g id="ic_calendar">
<g id="vuesax/outline/calendar-2">
<g id="calendar-2">
<path id="Vector" d="M8 6.25C7.59 6.25 7.25 5.91 7.25 5.5V2.5C7.25 2.09 7.59 1.75 8 1.75C8.41 1.75 8.75 2.09 8.75 2.5V5.5C8.75 5.91 8.41 6.25 8 6.25Z" fill="#989898"/>
<path id="Vector_2" d="M16 6.25C15.59 6.25 15.25 5.91 15.25 5.5V2.5C15.25 2.09 15.59 1.75 16 1.75C16.41 1.75 16.75 2.09 16.75 2.5V5.5C16.75 5.91 16.41 6.25 16 6.25Z" fill="#989898"/>
<path id="Vector_3" d="M20.5 10.3398H3.5C3.09 10.3398 2.75 9.99984 2.75 9.58984C2.75 9.17984 3.09 8.83984 3.5 8.83984H20.5C20.91 8.83984 21.25 9.17984 21.25 9.58984C21.25 9.99984 20.91 10.3398 20.5 10.3398Z" fill="#989898"/>
<path id="Vector_4" d="M16 23.25H8C4.35 23.25 2.25 21.15 2.25 17.5V9C2.25 5.35 4.35 3.25 8 3.25H16C19.65 3.25 21.75 5.35 21.75 9V17.5C21.75 21.15 19.65 23.25 16 23.25ZM8 4.75C5.14 4.75 3.75 6.14 3.75 9V17.5C3.75 20.36 5.14 21.75 8 21.75H16C18.86 21.75 20.25 20.36 20.25 17.5V9C20.25 6.14 18.86 4.75 16 4.75H8Z" fill="#989898"/>
<path id="Vector_5" d="M8.5 15C8.37 15 8.24 14.97 8.12 14.92C8 14.87 7.89001 14.8 7.79001 14.71C7.70001 14.61 7.62999 14.5 7.57999 14.38C7.52999 14.26 7.5 14.13 7.5 14C7.5 13.74 7.61001 13.48 7.79001 13.29C7.89001 13.2 8 13.13 8.12 13.08C8.3 13 8.50001 12.98 8.70001 13.02C8.76001 13.03 8.82 13.05 8.88 13.08C8.94 13.1 9 13.13 9.06 13.17C9.11 13.21 9.15999 13.25 9.20999 13.29C9.24999 13.34 9.29999 13.39 9.32999 13.44C9.36999 13.5 9.40001 13.56 9.42001 13.62C9.45001 13.68 9.47001 13.74 9.48001 13.8C9.49001 13.87 9.5 13.93 9.5 14C9.5 14.26 9.38999 14.52 9.20999 14.71C9.01999 14.89 8.76 15 8.5 15Z" fill="#989898"/>
<path id="Vector_6" d="M12 14.9999C11.74 14.9999 11.48 14.8899 11.29 14.7099C11.25 14.6599 11.21 14.6099 11.17 14.5599C11.13 14.4999 11.1 14.4399 11.08 14.3799C11.05 14.3199 11.03 14.2599 11.02 14.1999C11.01 14.1299 11 14.0699 11 13.9999C11 13.8699 11.03 13.7399 11.08 13.6199C11.13 13.4999 11.2 13.3899 11.29 13.2899C11.57 13.0099 12.02 12.9199 12.38 13.0799C12.51 13.1299 12.61 13.1999 12.71 13.2899C12.89 13.4799 13 13.7399 13 13.9999C13 14.0699 12.99 14.1299 12.98 14.1999C12.97 14.2599 12.95 14.3199 12.92 14.3799C12.9 14.4399 12.87 14.4999 12.83 14.5599C12.79 14.6099 12.75 14.6599 12.71 14.7099C12.61 14.7999 12.51 14.8699 12.38 14.9199C12.26 14.9699 12.13 14.9999 12 14.9999Z" fill="#989898"/>
<path id="Vector_7" d="M8.5 18.4999C8.37 18.4999 8.24 18.4699 8.12 18.4199C8 18.3699 7.89001 18.2999 7.79001 18.2099C7.70001 18.1099 7.62999 18.0099 7.57999 17.8799C7.52999 17.7599 7.5 17.6299 7.5 17.4999C7.5 17.2399 7.61001 16.9799 7.79001 16.7899C7.89001 16.6999 8 16.6299 8.12 16.5799C8.49 16.4199 8.92999 16.5099 9.20999 16.7899C9.24999 16.8399 9.29999 16.8899 9.32999 16.9399C9.36999 16.9999 9.40001 17.0599 9.42001 17.1199C9.45001 17.1799 9.47001 17.2399 9.48001 17.3099C9.49001 17.3699 9.5 17.4399 9.5 17.4999C9.5 17.7599 9.38999 18.0199 9.20999 18.2099C9.01999 18.3899 8.76 18.4999 8.5 18.4999Z" fill="#989898"/>
</g>
</g>
</g>
</svg>
