<svg width="25" height="24" viewBox="0 0 25 24" fill="none" xmlns="http://www.w3.org/2000/svg">
    <g opacity="1">

        <path
            d="M22.5 10.75H2.5C2.09 10.75 1.75 10.41 1.75 10C1.75 9.59 2.09 9.25 2.5 9.25H22.5C22.91 9.25 23.25 9.59 23.25 10C23.25 10.41 22.91 10.75 22.5 10.75Z"
            fill="#7210FF" />
        <path
            d="M12.0502 21.2498H6.94025C2.96025 21.2498 1.74023 20.0498 1.74023 16.1098V7.88977C1.74023 4.73977 2.41022 2.98977 5.98022 2.77977C6.28022 2.76977 6.60025 2.75977 6.94025 2.75977H18.0502C22.0302 2.75977 23.2502 3.95976 23.2502 7.89977V12.3098C23.2502 12.7198 22.9102 13.0598 22.5002 13.0598C22.0902 13.0598 21.7502 12.7198 21.7502 12.3098V7.89977C21.7502 4.80977 21.2002 4.25977 18.0502 4.25977H6.94025C6.62025 4.25977 6.33023 4.26977 6.05023 4.27977C3.88023 4.40977 3.24023 4.89977 3.24023 7.89977V16.1198C3.24023 19.2098 3.79025 19.7598 6.94025 19.7598H12.0502C12.4602 19.7598 12.8002 20.0998 12.8002 20.5098C12.8002 20.9198 12.4702 21.2498 12.0502 21.2498Z"
            fill="#7210FF" />
        <path
            d="M10.5 16.75H6.5C6.09 16.75 5.75 16.41 5.75 16C5.75 15.59 6.09 15.25 6.5 15.25H10.5C10.91 15.25 11.25 15.59 11.25 16C11.25 16.41 10.91 16.75 10.5 16.75Z"
            fill="#7210FF" />
        <path
            d="M18.5 22.75C16.84 22.75 15.28 21.87 14.44 20.44C13.99 19.72 13.75 18.87 13.75 18C13.75 15.38 15.88 13.25 18.5 13.25C21.12 13.25 23.25 15.38 23.25 18C23.25 18.87 23.01 19.72 22.56 20.45C21.72 21.87 20.16 22.75 18.5 22.75ZM18.5 14.75C16.71 14.75 15.25 16.21 15.25 18C15.25 18.59 15.41 19.17 15.72 19.67C16.3 20.65 17.37 21.25 18.5 21.25C19.63 21.25 20.7 20.65 21.28 19.68C21.59 19.17 21.75 18.6 21.75 18C21.75 16.21 20.29 14.75 18.5 14.75Z"
            fill="#7210FF" />
        <path
            d="M17.9289 19.7401C17.7389 19.7401 17.549 19.6701 17.399 19.5201L16.4089 18.5301C16.1189 18.2401 16.1189 17.7601 16.4089 17.4701C16.6989 17.1801 17.1789 17.1801 17.4689 17.4701L17.9489 17.9501L19.5489 16.4701C19.8489 16.1901 20.3289 16.2101 20.6089 16.5101C20.8889 16.8101 20.8689 17.2901 20.5689 17.5701L18.4389 19.54C18.2889 19.67 18.1089 19.7401 17.9289 19.7401Z"
            fill="#7210FF" />
    </g>
</svg>
