<svg width="25" height="24" viewBox="0 0 25 24" fill="none" xmlns="http://www.w3.org/2000/svg">
<path d="M10.4493 22.7499H8.2793C7.8893 22.7499 7.1093 22.6298 6.6593 22.1898L4.9593 20.8799L5.8793 19.6898L7.6493 21.0599C7.7793 21.1699 8.0493 21.2499 8.2793 21.2499H10.4493C10.8193 21.2499 11.2393 20.9399 11.3193 20.6199L12.7093 16.3899C12.7493 16.2899 12.7793 16.1399 12.7093 16.0299C12.6493 15.9399 12.5093 15.8899 12.3393 15.8899H10.0493C9.6593 15.8899 9.2993 15.7199 9.0393 15.4299C8.7793 15.1299 8.6693 14.7498 8.7293 14.3398L9.01929 12.4999C9.05929 12.3299 8.9393 12.1198 8.7793 12.0698C8.6493 12.0198 8.4293 12.1099 8.3793 12.1799L6.0293 15.6699L4.7793 14.8298L7.1193 11.3398C7.5593 10.6798 8.5193 10.3799 9.2593 10.6599C10.1093 10.9399 10.6693 11.8999 10.4693 12.7799L10.2193 14.3799H12.3093C12.9793 14.3799 13.5593 14.6599 13.9093 15.1599C14.2493 15.6399 14.3193 16.2699 14.0993 16.8699L12.7293 21.0299C12.5293 21.9699 11.5093 22.7499 10.4493 22.7499Z" fill="#7210FF"/>
<path d="M4.21976 22.1199H3.64977C2.08977 22.1199 1.75977 21.1199 1.75977 20.2799V14.6799C1.75977 13.8399 2.08977 12.8398 3.64977 12.8398H4.21976C5.77976 12.8398 6.10976 13.8399 6.10976 14.6799V20.2799C6.10976 21.1199 5.77976 22.1199 4.21976 22.1199ZM3.28976 20.5798C3.29976 20.5798 3.39976 20.6199 3.63976 20.6199H4.20976C4.46976 20.6199 4.55977 20.5798 4.57977 20.5698C4.57977 20.5598 4.60976 20.4899 4.60976 20.2799V14.6799C4.60976 14.4699 4.57976 14.3899 4.56976 14.3799C4.56976 14.3999 4.46976 14.3398 4.21976 14.3398H3.64977C3.38977 14.3398 3.29976 14.3799 3.27976 14.3899C3.27976 14.3999 3.24976 14.4699 3.24976 14.6799V20.2799C3.24976 20.4899 3.27976 20.5698 3.28976 20.5798Z" fill="#7210FF"/>
<path d="M16.3102 13.4399C16.1102 13.4399 15.9102 13.41 15.7202 13.34C14.8702 13.06 14.3102 12.1 14.5102 11.22L14.7602 9.62H12.6702C12.0002 9.62 11.4202 9.33997 11.0702 8.83997C10.7302 8.35997 10.6602 7.73 10.8802 7.13L12.2502 2.96997C12.4802 2.02997 13.5102 1.25 14.5602 1.25H16.7302C17.1202 1.25 17.9002 1.37006 18.3502 1.81006L20.0502 3.12L19.1302 4.31006L17.3602 2.93994C17.2302 2.82994 16.9602 2.75 16.7302 2.75H14.5602C14.1902 2.75 13.7702 3.06 13.6902 3.38L12.3002 7.60999C12.2602 7.70999 12.2302 7.85997 12.3002 7.96997C12.3602 8.05997 12.5002 8.10999 12.6702 8.10999H14.9602C15.3502 8.10999 15.7102 8.27995 15.9702 8.56995C16.2302 8.86995 16.3402 9.25003 16.2802 9.66003L15.9902 11.5C15.9502 11.67 16.0702 11.8801 16.2302 11.9301C16.3702 11.9801 16.5802 11.8999 16.6302 11.8199L18.9802 8.32996L20.2302 9.17004L17.8902 12.66C17.5302 13.14 16.9102 13.4399 16.3102 13.4399Z" fill="#7210FF"/>
<path d="M21.3604 11.1599H20.7904C19.2304 11.1599 18.9004 10.1598 18.9004 9.31982V3.71985C18.9004 2.87985 19.2304 1.87988 20.7904 1.87988H21.3604C22.9204 1.87988 23.2504 2.87985 23.2504 3.71985V9.31982C23.2504 10.1598 22.9204 11.1599 21.3604 11.1599ZM20.4304 9.61987C20.4404 9.61987 20.5404 9.65991 20.7804 9.65991H21.3504C21.6104 9.65991 21.7004 9.61986 21.7204 9.60986C21.7204 9.59986 21.7504 9.52982 21.7504 9.31982V3.71985C21.7504 3.50985 21.7204 3.43992 21.7104 3.41992C21.7204 3.45992 21.6104 3.37988 21.3604 3.37988H20.7904C20.5304 3.37988 20.4404 3.41993 20.4204 3.42993C20.4204 3.43993 20.3904 3.50985 20.3904 3.71985V9.31982C20.3904 9.52982 20.4204 9.59987 20.4304 9.61987Z" fill="#7210FF"/>
</svg>
