<svg width="16" height="16" viewBox="0 0 16 16" fill="none" xmlns="http://www.w3.org/2000/svg">
<path d="M10.0603 2.21999C10.1869 2.21999 10.3136 2.26666 10.4136 2.36666C10.6069 2.55999 10.6069 2.87999 10.4136 3.07333L6.06693 7.41999C5.74692 7.73999 5.74692 8.25999 6.06693 8.57999L10.4136 12.9267C10.6069 13.12 10.6069 13.44 10.4136 13.6333C10.2203 13.8267 9.90026 13.8267 9.70693 13.6333L5.36026 9.28666C5.02026 8.94666 4.82692 8.48666 4.82692 7.99999C4.82692 7.51332 5.01359 7.05332 5.36026 6.71332L9.70693 2.36666C9.80693 2.27332 9.93359 2.21999 10.0603 2.21999Z" fill="#CAC8CC"/>
</svg>
