<svg width="16" height="16" viewBox="0 0 16 16" fill="none" xmlns="http://www.w3.org/2000/svg">
<path d="M9.99967 15.1666H5.99967C2.37967 15.1666 0.833008 13.6199 0.833008 9.99992V5.99992C0.833008 2.37992 2.37967 0.833252 5.99967 0.833252H9.99967C13.6197 0.833252 15.1663 2.37992 15.1663 5.99992V9.99992C15.1663 13.6199 13.6197 15.1666 9.99967 15.1666ZM5.99967 1.83325C2.92634 1.83325 1.83301 2.92658 1.83301 5.99992V9.99992C1.83301 13.0733 2.92634 14.1666 5.99967 14.1666H9.99967C13.073 14.1666 14.1663 13.0733 14.1663 9.99992V5.99992C14.1663 2.92658 13.073 1.83325 9.99967 1.83325H5.99967Z" fill="#7210FF"/>
<path d="M4.00029 12.5C3.87362 12.5 3.74695 12.4534 3.64695 12.3534C3.45362 12.16 3.45362 11.84 3.64695 11.6467L11.647 3.64671C11.8403 3.45338 12.1603 3.45338 12.3536 3.64671C12.547 3.84004 12.547 4.16004 12.3536 4.35338L4.35362 12.3534C4.25362 12.4534 4.12695 12.5 4.00029 12.5Z" fill="#7210FF"/>
<path d="M11.9997 7.16667C11.7263 7.16667 11.4997 6.94 11.4997 6.66667V4.5H9.33301C9.05967 4.5 8.83301 4.27333 8.83301 4C8.83301 3.72667 9.05967 3.5 9.33301 3.5H11.9997C12.273 3.5 12.4997 3.72667 12.4997 4V6.66667C12.4997 6.94 12.273 7.16667 11.9997 7.16667Z" fill="#7210FF"/>
<path d="M6.66667 12.4999H4C3.72667 12.4999 3.5 12.2733 3.5 11.9999V9.33325C3.5 9.05992 3.72667 8.83325 4 8.83325C4.27333 8.83325 4.5 9.05992 4.5 9.33325V11.4999H6.66667C6.94 11.4999 7.16667 11.7266 7.16667 11.9999C7.16667 12.2733 6.94 12.4999 6.66667 12.4999Z" fill="#7210FF"/>
</svg>
