<svg width="40" height="40" viewBox="0 0 40 40" fill="none" xmlns="http://www.w3.org/2000/svg">
<path d="M29.083 37.9166C27.1997 37.9166 25.2163 37.4666 23.1663 36.5999C21.1663 35.7499 19.1497 34.5833 17.183 33.1666C15.233 31.7333 13.3497 30.1333 11.5663 28.3833C9.79967 26.5999 8.19967 24.7166 6.78301 22.7833C5.34967 20.7833 4.19967 18.7833 3.38301 16.8499C2.51634 14.7833 2.08301 12.7833 2.08301 10.8999C2.08301 9.59992 2.31634 8.36659 2.76634 7.21659C3.23301 6.03325 3.98301 4.93325 4.99967 3.98325C6.28301 2.71659 7.74968 2.08325 9.31634 2.08325C9.96634 2.08325 10.633 2.23325 11.1997 2.49992C11.8497 2.79992 12.3997 3.24992 12.7997 3.84992L16.6663 9.29992C17.0163 9.78325 17.283 10.2499 17.4663 10.7166C17.683 11.2166 17.7997 11.7166 17.7997 12.1999C17.7997 12.8333 17.6163 13.4499 17.2663 14.0333C17.0163 14.4833 16.633 14.9666 16.1497 15.4499L15.0163 16.6333C15.033 16.6833 15.0497 16.7166 15.0663 16.7499C15.2663 17.0999 15.6663 17.6999 16.433 18.5999C17.2497 19.5333 18.0163 20.3833 18.783 21.1666C19.7663 22.1333 20.583 22.8999 21.3497 23.5333C22.2997 24.3333 22.9163 24.7333 23.283 24.9166L23.2497 24.9999L24.4663 23.7999C24.983 23.2833 25.483 22.8999 25.9663 22.6499C26.883 22.0833 28.0497 21.9832 29.2163 22.4666C29.6497 22.6499 30.1163 22.8999 30.6163 23.2499L36.1497 27.1833C36.7663 27.5999 37.2163 28.1333 37.483 28.7666C37.733 29.3999 37.8497 29.9833 37.8497 30.5666C37.8497 31.3666 37.6663 32.1666 37.3163 32.9166C36.9663 33.6666 36.533 34.3166 35.983 34.9166C35.033 35.9666 33.9997 36.7166 32.7997 37.1999C31.6497 37.6666 30.3997 37.9166 29.083 37.9166ZM9.31634 4.58325C8.39968 4.58325 7.54967 4.98325 6.73301 5.78325C5.96634 6.49992 5.43301 7.28325 5.09967 8.13325C4.74967 8.99992 4.58301 9.91659 4.58301 10.8999C4.58301 12.4499 4.94967 14.1333 5.68301 15.8666C6.43301 17.6333 7.48301 19.4666 8.81634 21.2999C10.1497 23.1333 11.6663 24.9166 13.333 26.5999C14.9997 28.2499 16.7997 29.7833 18.6497 31.1333C20.4497 32.4499 22.2997 33.5166 24.133 34.2832C26.983 35.4999 29.6497 35.7833 31.8497 34.8666C32.6997 34.5166 33.4497 33.9833 34.133 33.2166C34.5163 32.7999 34.8163 32.3499 35.0663 31.8166C35.2663 31.3999 35.3663 30.9666 35.3663 30.5333C35.3663 30.2666 35.3163 29.9999 35.183 29.6999C35.133 29.5999 35.033 29.4166 34.7163 29.1999L29.183 25.2666C28.8497 25.0333 28.5497 24.8666 28.2663 24.7499C27.8997 24.5999 27.7497 24.4499 27.183 24.7999C26.8497 24.9666 26.5497 25.2166 26.2163 25.5499L24.9497 26.7999C24.2997 27.4333 23.2997 27.5833 22.533 27.2999L22.083 27.0999C21.3997 26.7333 20.5997 26.1666 19.7163 25.4166C18.9163 24.7333 18.0497 23.9333 16.9997 22.8999C16.183 22.0666 15.3663 21.1833 14.5163 20.1999C13.733 19.2833 13.1663 18.4999 12.8163 17.8499L12.6163 17.3499C12.5163 16.9666 12.483 16.7499 12.483 16.5166C12.483 15.9166 12.6997 15.3833 13.1163 14.9666L14.3663 13.6666C14.6997 13.3333 14.9497 13.0166 15.1163 12.7333C15.2497 12.5166 15.2997 12.3333 15.2997 12.1666C15.2997 12.0333 15.2497 11.8333 15.1663 11.6333C15.0497 11.3666 14.8663 11.0666 14.633 10.7499L10.7663 5.28325C10.5997 5.04992 10.3997 4.88325 10.1497 4.76659C9.88301 4.64992 9.59968 4.58325 9.31634 4.58325ZM23.2497 25.0166L22.983 26.1499L23.433 24.9833C23.3497 24.9666 23.283 24.9833 23.2497 25.0166Z" fill="#7210FF"/>
</svg>
