<svg width="205" height="48" viewBox="0 0 205 48" fill="none" xmlns="http://www.w3.org/2000/svg">
<path d="M105.604 16.0082C105.604 17.0237 105.275 18.0165 104.659 18.8608C104.042 19.7052 103.166 20.3634 102.141 20.752C101.116 21.1406 99.9874 21.2423 98.899 21.0442C97.8106 20.8461 96.8109 20.357 96.0262 19.6389C95.2415 18.9208 94.7071 18.0059 94.4906 17.0099C94.2741 16.0139 94.3852 14.9815 94.8099 14.0432C95.2346 13.105 95.9537 12.3031 96.8764 11.7389C97.7991 11.1747 98.8839 10.8735 99.9936 10.8735C101.482 10.8735 102.909 11.4145 103.961 12.3774C105.013 13.3404 105.604 14.6464 105.604 16.0082Z" fill="#F28705"/>
<path d="M161.064 35.9079V14.1304H172.565V17.4334H166.614V22.2053H172.364V25.5109H166.614V32.6074H172.565V35.9079H161.064Z" fill="#F28705"/>
<path d="M180.262 27.8969L175.547 14.1304H180.962L183.003 22.7877H183.07L185.108 14.1304H190.526L185.811 27.8969V35.9079H180.262V27.8969Z" fill="#F28705"/>
<path d="M193.508 35.9079V14.1304H205V17.4334H199.057V22.2053H204.808V25.5109H199.057V32.6074H205V35.9079H193.508Z" fill="#F28705"/>
<path d="M86.8862 27.8408V30.8372C86.8862 35.0753 84.4157 37.1138 79.539 37.1138C75.7092 37.1138 72.2617 35.6807 72.2617 30.4847V20.1618C72.2617 14.9658 75.7092 13.5327 79.539 13.5327C83.7541 13.5327 86.8862 14.6797 86.8862 19.587V22.0726H81.1079V18.9509C81.1079 18.0262 80.7924 17.1627 79.539 17.1627C78.3555 17.1627 78.0428 18.0236 78.0428 18.9509V31.6956C78.0428 32.6203 78.3555 33.4838 79.539 33.4838C80.7924 33.4838 81.1079 32.6229 81.1079 31.6956L81.1413 27.8408H86.8862Z" fill="#32009A"/>
<path d="M97.0176 36.6744V13.9797H102.799V36.6744H97.0176Z" fill="#32009A"/>
<path d="M112.652 17.4207V13.9797H126.512V17.4207H122.473V36.6744H116.692V17.4207H112.652Z" fill="#32009A"/>
<path d="M140.892 28.3184L135.984 13.9797H141.634L143.759 22.9973H143.828L145.953 13.9797H151.594L146.684 28.3184V36.6744H140.892V28.3184Z" fill="#32009A"/>
<path d="M59.0568 36.594C58.7777 36.313 58.4985 36.0422 58.197 35.7714V24.5518L52.6895 20.5616V17.6724L45.0269 12.1086V0L29.2971 8.38915L13.5672 0V12.1086L5.90186 17.6724V19.9715C4.01484 21.3382 1.87937 22.8862 0.665086 23.7676V35.567L0.438977 35.7663C0.246042 35.9401 0.109276 36.1593 0.0437416 36.3997C-0.0217931 36.6402 -0.0135539 36.8924 0.0675518 37.1289C0.148657 37.3653 0.299483 37.5766 0.503418 37.7396C0.707353 37.9026 0.956485 38.0109 1.22338 38.0526H1.28479C1.51077 38.0852 1.74192 38.0696 1.96026 38.0072C2.17861 37.9447 2.37827 37.837 2.54374 37.6924C7.69956 33.2424 14.7368 29.8806 22.1342 27.9519C26.7783 26.7506 31.6902 26.7162 36.3539 27.8523C43.8294 29.666 50.7131 32.8158 55.9164 37.4932C53.1752 40.0196 49.6636 42.237 45.5685 44.0379C45.3108 44.1613 45.0927 44.344 44.9356 44.5679C44.7784 44.7919 44.6878 45.0494 44.6724 45.3152C44.6798 45.5419 44.7495 45.7632 44.8751 45.9587C45.0007 46.1542 45.1781 46.3176 45.391 46.4337C45.6039 46.5498 45.8453 46.6149 46.093 46.623C46.3406 46.6311 46.5865 46.582 46.8079 46.4801C51.7767 44.2193 60.8238 39.1817 59.0568 36.594ZM3.59053 25.0474L5.90186 23.3716V31.5819C5.16492 32.0443 4.38052 32.6038 3.59053 33.1862V25.0474ZM8.82731 29.901V18.9497L13.5728 15.5163V27.7348H13.6314C11.9867 28.3744 10.3828 29.0984 8.82731 29.9036V29.901ZM16.5457 26.6465V4.44237L26.3995 9.93465L26.4721 9.97553L22.5194 12.0856V24.9937C21.2391 25.2816 19.9755 25.6068 18.7286 25.9696C17.9917 26.1816 17.2659 26.409 16.5457 26.6491V26.6465ZM36.0859 24.9912C35.6811 24.8992 35.2764 24.8149 34.8716 24.7357V16.3057L31.8959 18.4388V24.1865C31.0334 24.0486 30.1652 23.931 29.2971 23.8135C28.0316 23.6552 26.7652 23.53 25.4979 23.438V13.7537L29.579 11.3907L32.1918 9.93465L42.0485 4.44237V26.6491C41.3255 26.409 40.5997 26.1816 39.8655 25.9696C38.6187 25.6068 37.3551 25.2816 36.0747 24.9937L36.0859 24.9912ZM45.0381 27.722V15.5061L49.7836 18.9395V29.9036C48.2315 29.0908 46.6303 28.359 44.9879 27.7118L45.0381 27.722ZM52.7007 23.9566L55.2855 25.8291V33.3446C54.4537 32.7264 53.5921 32.138 52.7007 31.5794V23.9566Z" fill="#32009A"/>
<path fill-rule="evenodd" clip-rule="evenodd" d="M29.616 43.1233C30.3415 43.1237 31.0569 42.9676 31.7041 42.6676C32.3513 42.3676 32.9121 41.9321 33.341 41.3966C33.7698 40.861 34.0546 40.2405 34.1723 39.5853C34.2899 38.9302 34.2371 38.2589 34.0181 37.6259C33.8342 37.8954 33.5881 38.1249 33.297 38.2981C33.0058 38.4713 32.6768 38.584 32.333 38.6284C31.9892 38.6728 31.6389 38.6478 31.3068 38.5551C30.9747 38.4624 30.6688 38.3043 30.4105 38.0918C30.1523 37.8794 29.9481 37.6178 29.8121 37.3254C29.6762 37.033 29.6119 36.7169 29.6237 36.3993C29.6355 36.0818 29.7231 35.7704 29.8804 35.4871C30.0378 35.2039 30.261 34.9556 30.5343 34.7597C29.8639 34.6352 29.1716 34.6486 28.5074 34.7988C27.8433 34.949 27.2239 35.2323 26.694 35.6283C26.1641 36.0243 25.7369 36.523 25.4433 37.0885C25.1496 37.6539 24.9969 38.272 24.9961 38.898C24.9961 40.0182 25.4821 41.0925 26.3474 41.8848C27.2127 42.6771 28.3863 43.1226 29.6104 43.1233H29.616Z" fill="#F28705"/>
<path fill-rule="evenodd" clip-rule="evenodd" d="M36.9979 42.0096C36.6546 41.8687 36.269 41.8397 35.9053 41.9276C35.5415 42.0155 35.2217 42.2148 34.9992 42.4924C34.921 42.592 34.8373 42.6917 34.7508 42.7887C34.7312 42.8117 34.7089 42.8322 34.6866 42.8551C34.6196 42.9292 34.5498 43.0033 34.4772 43.0748L34.4102 43.1387C34.3283 43.2187 34.2446 43.2954 34.159 43.3686L34.1255 43.3967C33.9164 43.5736 33.6955 43.7382 33.4639 43.8897C33.3522 43.9613 33.235 44.0328 33.1177 44.0992L33.0926 44.1145C32.7323 44.3188 32.3508 44.49 31.9537 44.6254C31.9246 44.6372 31.8948 44.6474 31.8644 44.6561L31.5852 44.743L31.4401 44.7813L31.2028 44.84L31.0297 44.8758L30.8064 44.9167C30.6948 44.9345 30.5831 44.9499 30.4687 44.9626L30.2509 44.9856H30.0751L29.821 44.9984H29.6759C29.5531 44.9984 29.4302 44.9984 29.3074 44.9984H29.2739C29.1204 44.9984 28.9696 44.978 28.8161 44.9626C27.4654 44.8036 26.2002 44.2702 25.1902 43.4342C24.1803 42.5981 23.474 41.4993 23.1662 40.2853C23.1522 40.2316 23.1383 40.1805 23.1271 40.1269V40.0835C23.0619 39.7777 23.0236 39.4676 23.0127 39.1562V39.1383C23.0127 39.0565 23.0127 38.9773 23.0127 38.8981C23.0127 38.87 23.0127 38.8419 23.0127 38.8164C23.0127 38.7909 23.0127 38.7014 23.0127 38.6452C23.0127 38.589 23.0127 38.5328 23.0127 38.4766C23.0127 38.4204 23.0127 38.3872 23.0127 38.3412C23.0127 38.2953 23.0266 38.234 23.0322 38.1803C23.0378 38.1267 23.0462 38.0756 23.0573 38.0219C23.0685 37.9683 23.0573 37.9683 23.0713 37.9402C23.3145 36.6511 24.0033 35.4675 25.0364 34.5635C26.0696 33.6594 27.3925 33.0826 28.8105 32.9179C28.9641 32.9001 29.1176 32.8873 29.2711 32.8822H29.299C29.4247 32.8822 29.5475 32.8822 29.6703 32.8822H29.8182H30.0611C30.1253 32.8822 30.1867 32.8822 30.2509 32.8949L30.4184 32.9128C30.5654 32.9282 30.7106 32.9486 30.8539 32.9741L31.0158 33.0022L31.2224 33.0482L31.4178 33.0968L31.5964 33.1453C31.6746 33.1657 31.7527 33.1913 31.8281 33.2168L31.9677 33.2602C32.0905 33.3037 32.2105 33.3497 32.3306 33.3982C32.459 33.451 32.5846 33.5072 32.7074 33.5668L32.7688 33.5974C32.8665 33.6485 32.967 33.6996 33.048 33.7533L33.1317 33.7993C33.221 33.8529 33.3132 33.9091 33.4109 33.9653L33.4862 34.0113C33.7018 34.154 33.9078 34.3084 34.1031 34.4737L34.212 34.5707C34.2678 34.6193 34.3237 34.6678 34.3767 34.7189C34.4297 34.77 34.4632 34.8032 34.5079 34.8466L34.6307 34.9743C34.6782 35.0254 34.7256 35.074 34.7703 35.1251C34.792 35.1534 34.8153 35.1807 34.8401 35.2068L34.9852 35.3831C35.2036 35.6682 35.5235 35.8751 35.8901 35.9683C36.2567 36.0615 36.6473 36.0352 36.9951 35.894C37.225 35.7998 37.4281 35.6583 37.5886 35.4806C37.749 35.3029 37.8626 35.0938 37.9204 34.8694C37.9782 34.645 37.9786 34.4114 37.9218 34.1868C37.8649 33.9623 37.7522 33.7527 37.5925 33.5745L37.2687 33.2117C37.0377 32.956 36.7927 32.7113 36.5345 32.4786C36.4593 32.3914 36.3741 32.3117 36.2805 32.241L35.8841 31.9446L35.8534 31.9217L35.8283 31.9038C34.1146 30.636 31.9853 29.9316 29.782 29.9036H29.4693C27.2274 29.9237 25.0605 30.6448 23.3281 31.9472C23.2304 32.0187 23.1383 32.0954 23.049 32.172L22.9848 32.2205C22.8647 32.3202 22.7475 32.4224 22.633 32.5245C21.6845 33.3823 20.937 34.4079 20.4362 35.5389C20.411 35.5951 20.3887 35.6539 20.3636 35.7101C20.3385 35.7663 20.2994 35.8633 20.2687 35.9425C20.238 36.0217 20.1989 36.1341 20.1654 36.2312C20.1654 36.2721 20.1347 36.3129 20.1235 36.3538C20.0872 36.4637 20.0565 36.5735 20.023 36.6808L19.9979 36.7728C19.9672 36.88 19.9421 36.9899 19.9197 37.0972C19.9197 37.1329 19.9002 37.1662 19.8946 37.2019C19.8723 37.299 19.8555 37.3961 19.8388 37.4957C19.8388 37.5417 19.8192 37.5902 19.8137 37.6362C19.8081 37.6822 19.7913 37.7971 19.7802 37.8916C19.769 37.9862 19.7606 38.0245 19.755 38.0909C19.7495 38.1573 19.755 38.2084 19.7383 38.2672C19.7215 38.3259 19.7383 38.446 19.7188 38.5354C19.7188 38.5712 19.7188 38.6044 19.7188 38.6401C19.7188 38.7551 19.7188 38.8675 19.7188 38.9824V39.008C19.729 41.2382 20.6396 43.3863 22.2757 45.0393C22.3148 45.0802 22.3567 45.1185 22.3985 45.1593C22.4404 45.2002 22.5381 45.2947 22.6107 45.3612C22.6833 45.4276 22.767 45.4991 22.8452 45.5681L22.968 45.6728C23.0629 45.752 23.1606 45.8261 23.2472 45.9027L23.3281 45.9666C23.4063 46.0253 23.4872 46.0815 23.5682 46.1377L23.7329 46.2553L23.7775 46.2833C25.4247 47.3765 27.4013 47.9761 29.4358 48H29.7624C31.7725 47.9749 33.7259 47.3864 35.3593 46.314L35.4458 46.2604L35.5798 46.1658C35.6719 46.102 35.7641 46.0381 35.859 45.9717L36.2553 45.6754C36.3455 45.6074 36.4278 45.5312 36.501 45.448C36.7637 45.2125 37.0125 44.9644 37.2463 44.7046L37.5701 44.3419C37.7334 44.165 37.8497 43.9559 37.91 43.731C37.9702 43.5061 37.9727 43.2715 37.9172 43.0456C37.8618 42.8197 37.75 42.6086 37.5905 42.4288C37.431 42.2491 37.2281 42.1056 36.9979 42.0096Z" fill="#F28705"/>
</svg>
