<svg width="25" height="24" viewBox="0 0 25 24" fill="none" xmlns="http://www.w3.org/2000/svg">
<path d="M12.5 15.75C10.43 15.75 8.75 14.07 8.75 12C8.75 9.93 10.43 8.25 12.5 8.25C14.57 8.25 16.25 9.93 16.25 12C16.25 14.07 14.57 15.75 12.5 15.75ZM12.5 9.75C11.26 9.75 10.25 10.76 10.25 12C10.25 13.24 11.26 14.25 12.5 14.25C13.74 14.25 14.75 13.24 14.75 12C14.75 10.76 13.74 9.75 12.5 9.75Z" fill="#7210FF"/>
<path d="M15.71 22.1898C15.5 22.1898 15.29 22.1598 15.08 22.1098C14.46 21.9398 13.94 21.5498 13.61 20.9998L13.49 20.7998C12.9 19.7798 12.09 19.7798 11.5 20.7998L11.39 20.9898C11.06 21.5498 10.54 21.9498 9.92 22.1098C9.29 22.2798 8.64 22.1898 8.09 21.8598L6.37 20.8698C5.76 20.5198 5.32 19.9498 5.13 19.2598C4.95 18.5698 5.04 17.8598 5.39 17.2498C5.68 16.7398 5.76 16.2798 5.59 15.9898C5.42 15.6998 4.99 15.5298 4.4 15.5298C2.94 15.5298 1.75 14.3398 1.75 12.8798V11.1198C1.75 9.6598 2.94 8.4698 4.4 8.4698C4.99 8.4698 5.42 8.2998 5.59 8.0098C5.76 7.7198 5.69 7.2598 5.39 6.7498C5.04 6.1398 4.95 5.4198 5.13 4.7398C5.31 4.0498 5.75 3.4798 6.37 3.1298L8.1 2.1398C9.23 1.4698 10.72 1.8598 11.4 3.0098L11.52 3.2098C12.11 4.2298 12.92 4.2298 13.51 3.2098L13.62 3.0198C14.3 1.8598 15.79 1.4698 16.93 2.1498L18.65 3.1398C19.26 3.4898 19.7 4.0598 19.89 4.7498C20.07 5.4398 19.98 6.1498 19.63 6.7598C19.34 7.2698 19.26 7.7298 19.43 8.0198C19.6 8.3098 20.03 8.4798 20.62 8.4798C22.08 8.4798 23.27 9.6698 23.27 11.1298V12.8898C23.27 14.3498 22.08 15.5398 20.62 15.5398C20.03 15.5398 19.6 15.7098 19.43 15.9998C19.26 16.2898 19.33 16.7498 19.63 17.2598C19.98 17.8698 20.08 18.5898 19.89 19.2698C19.71 19.9598 19.27 20.5298 18.65 20.8798L16.92 21.8698C16.54 22.0798 16.13 22.1898 15.71 22.1898ZM12.5 18.4898C13.39 18.4898 14.22 19.0498 14.79 20.0398L14.9 20.2298C15.02 20.4398 15.22 20.5898 15.46 20.6498C15.7 20.7098 15.94 20.6798 16.14 20.5598L17.87 19.5598C18.13 19.4098 18.33 19.1598 18.41 18.8598C18.49 18.5598 18.45 18.2498 18.3 17.9898C17.73 17.0098 17.66 15.9998 18.1 15.2298C18.54 14.4598 19.45 14.0198 20.59 14.0198C21.23 14.0198 21.74 13.5098 21.74 12.8698V11.1098C21.74 10.4798 21.23 9.9598 20.59 9.9598C19.45 9.9598 18.54 9.5198 18.1 8.7498C17.66 7.9798 17.73 6.9698 18.3 5.9898C18.45 5.7298 18.49 5.4198 18.41 5.1198C18.33 4.8198 18.14 4.5798 17.88 4.4198L16.15 3.4298C15.72 3.1698 15.15 3.3198 14.89 3.7598L14.78 3.9498C14.21 4.9398 13.38 5.4998 12.49 5.4998C11.6 5.4998 10.77 4.9398 10.2 3.9498L10.09 3.7498C9.84 3.3298 9.28 3.1798 8.85 3.4298L7.12 4.4298C6.86 4.5798 6.66 4.8298 6.58 5.1298C6.5 5.4298 6.54 5.7398 6.69 5.9998C7.26 6.9798 7.33 7.9898 6.89 8.7598C6.45 9.5298 5.54 9.9698 4.4 9.9698C3.76 9.9698 3.25 10.4798 3.25 11.1198V12.8798C3.25 13.5098 3.76 14.0298 4.4 14.0298C5.54 14.0298 6.45 14.4698 6.89 15.2398C7.33 16.0098 7.26 17.0198 6.69 17.9998C6.54 18.2598 6.5 18.5698 6.58 18.8698C6.66 19.1698 6.85 19.4098 7.11 19.5698L8.84 20.5598C9.05 20.6898 9.3 20.7198 9.53 20.6598C9.77 20.5998 9.97 20.4398 10.1 20.2298L10.21 20.0398C10.78 19.0598 11.61 18.4898 12.5 18.4898Z" fill="#7210FF"/>
</svg>
