<svg width="25" height="24" viewBox="0 0 25 24" fill="none" xmlns="http://www.w3.org/2000/svg">
<path d="M19.4707 22.75H5.4707C1.7207 22.75 1.7207 20.67 1.7207 19V18C1.7207 17.04 2.5107 16.25 3.4707 16.25H21.4707C22.4307 16.25 23.2207 17.04 23.2207 18V19C23.2207 20.67 23.2207 22.75 19.4707 22.75ZM3.4707 17.75C3.3307 17.75 3.2207 17.86 3.2207 18V19C3.2207 20.64 3.2207 21.25 5.4707 21.25H19.4707C21.7207 21.25 21.7207 20.64 21.7207 19V18C21.7207 17.86 21.6107 17.75 21.4707 17.75H3.4707Z" fill="#7210FF"/>
<path d="M21.2195 17.75H3.76953C3.35953 17.75 3.01953 17.41 3.01953 17V13C3.01953 8.9 5.92953 5.3 9.92953 4.45C10.5195 4.32 11.1395 4.25 11.7695 4.25H13.2195C13.8595 4.25 14.4795 4.32 15.0695 4.45C19.0695 5.31 21.9695 8.91 21.9695 13V17C21.9695 17.41 21.6395 17.75 21.2195 17.75ZM4.51953 16.25H20.4695V13C20.4695 9.61 18.0695 6.63 14.7495 5.91C14.2595 5.8 13.7495 5.75 13.2195 5.75H11.7695C11.2495 5.75 10.7395 5.8 10.2495 5.91C6.92953 6.62 4.51953 9.6 4.51953 13V16.25Z" fill="#7210FF"/>
<path d="M10.09 5.93C9.76 5.93 9.46 5.71 9.37 5.38C9.29 5.09 9.25 4.8 9.25 4.5C9.25 2.71 10.71 1.25 12.5 1.25C14.29 1.25 15.75 2.71 15.75 4.5C15.75 4.8 15.71 5.09 15.63 5.38C15.53 5.76 15.15 6 14.75 5.91C14.26 5.8 13.75 5.75 13.22 5.75H11.77C11.25 5.75 10.74 5.8 10.25 5.91C10.2 5.92 10.15 5.93 10.09 5.93ZM11.77 4.25H13.22C13.56 4.25 13.91 4.27 14.24 4.31C14.15 3.43 13.4 2.75 12.5 2.75C11.6 2.75 10.86 3.43 10.76 4.31C11.1 4.27 11.43 4.25 11.77 4.25Z" fill="#7210FF"/>
<path d="M15.5 11.75H9.5C9.09 11.75 8.75 11.41 8.75 11C8.75 10.59 9.09 10.25 9.5 10.25H15.5C15.91 10.25 16.25 10.59 16.25 11C16.25 11.41 15.91 11.75 15.5 11.75Z" fill="#7210FF"/>
</svg>
