<svg width="40" height="40" viewBox="0 0 40 40" fill="none" xmlns="http://www.w3.org/2000/svg">
<g clip-path="url(#clip0_2543_4750)">
<path fill-rule="evenodd" clip-rule="evenodd" d="M19.9995 28.7603C17.0942 28.7603 14.731 31.124 14.731 34.0293C14.7312 36.9344 17.0938 39.2982 19.9994 39.2982C22.9052 39.298 25.2687 36.9345 25.2687 34.0293C25.269 31.1238 22.9049 28.7603 19.9995 28.7603ZM19.9995 39.9999C16.7077 39.9999 14.0293 37.3215 14.0293 34.0293C14.0294 30.7369 16.7074 28.0586 19.9994 28.0586C23.2917 28.0584 25.9705 30.737 25.9705 34.0293C25.9705 37.3213 23.2915 39.9999 19.9995 39.9999Z" fill="#7210FF"/>
<path fill-rule="evenodd" clip-rule="evenodd" d="M19.9997 34.9198C20.0901 34.9198 20.1796 34.9541 20.2481 35.0226L22.0538 36.8281L22.7986 36.0832L20.993 34.2776C20.9273 34.2118 20.8905 34.1227 20.8905 34.0296C20.8907 33.9364 20.9271 33.8473 20.9929 33.7815L22.7986 31.9757L22.0538 31.2307L20.2485 33.0363C20.1111 33.1735 19.889 33.1736 19.752 33.0365L17.946 31.2307L17.2013 31.9757L19.0068 33.7814C19.1437 33.9185 19.1435 34.1407 19.0065 34.2776L17.2013 36.0832L17.946 36.8281L19.7521 35.0224C19.8208 34.954 19.91 34.9198 19.9997 34.9198ZM22.0538 37.6752C21.9642 37.6752 21.8736 37.6411 21.8061 37.5725L19.9997 35.7668L18.1943 37.5724C18.0574 37.7094 17.8351 37.7096 17.698 37.5725L16.4575 36.3313C16.3202 36.1942 16.3202 35.9722 16.4572 35.8352L18.2629 34.0295L16.4575 32.2237C16.3202 32.0868 16.3202 31.8646 16.4572 31.7277L17.698 30.4864C17.8353 30.3496 18.0571 30.3495 18.1942 30.4865L19.9997 32.2921L21.8063 30.4864C21.9425 30.3496 22.1651 30.3496 22.3021 30.4865L23.5431 31.7276C23.6089 31.7933 23.6453 31.8826 23.6453 31.9757C23.6455 32.0688 23.6088 32.1581 23.543 32.2239L21.7377 34.0295L23.5431 35.8351C23.6089 35.9009 23.6453 35.9903 23.6453 36.0834C23.6455 36.1763 23.6088 36.2656 23.543 36.3314L22.3022 37.5724C22.234 37.6409 22.1432 37.6753 22.0538 37.6752Z" fill="#7210FF"/>
<path opacity="0.1" fill-rule="evenodd" clip-rule="evenodd" d="M31.6166 34.3802H25.6198C25.4262 34.3802 25.2688 34.2232 25.2688 34.0294C25.2691 33.8355 25.426 33.6786 25.6197 33.6786L31.6166 33.6784C32.5018 33.6784 33.2226 32.958 33.2226 32.0724L33.2227 2.30786C33.2227 1.42222 32.5016 0.701743 31.6163 0.701743L8.38382 0.701651C7.49781 0.701651 6.77743 1.42231 6.77743 2.30795V32.0722C6.77743 32.9578 7.49744 33.6786 8.38364 33.6786L14.3806 33.6784C14.5743 33.6784 14.7312 33.8356 14.7312 34.0294C14.7313 34.2232 14.574 34.3802 14.3803 34.3802H8.38382C7.11127 34.3802 6.07568 33.3449 6.07568 32.0724L6.07596 2.30786C6.07596 1.03531 7.1109 9.22739e-05 8.38364 9.22739e-05L31.6166 0C32.8892 0 33.9243 1.03541 33.9243 2.30795L33.9245 32.0722C33.9245 33.3449 32.8891 34.3802 31.6166 34.3802Z" fill="#7210FF"/>
<path fill-rule="evenodd" clip-rule="evenodd" d="M19.9997 8.31538C19.8956 8.31538 19.7932 8.2697 19.7237 8.18223L16.9681 4.69732C16.8477 4.54543 16.8729 4.3249 17.0255 4.20467C17.1775 4.08425 17.3974 4.11027 17.518 4.26215L20.2748 7.74679C20.3944 7.89867 20.3687 8.11948 20.2171 8.23971C20.1522 8.29056 20.0754 8.31538 19.9997 8.31538Z" fill="#7210FF"/>
<path fill-rule="evenodd" clip-rule="evenodd" d="M17.2432 8.31577C17.0496 8.31577 16.8921 8.15872 16.8921 7.96494V4.48022C16.8921 4.28635 17.0492 4.12939 17.243 4.12939C17.4369 4.1293 17.5938 4.28645 17.5938 4.48022L17.5939 7.96485C17.5939 8.15854 17.4367 8.31577 17.2432 8.31577ZM19.9989 8.31577C19.8052 8.31577 19.6478 8.15872 19.6478 7.96494L19.6481 4.48022C19.6481 4.28635 19.805 4.12939 19.9987 4.12939C20.1925 4.1293 20.3495 4.28645 20.3495 4.48022L20.3496 7.96485C20.3496 8.15854 20.1925 8.31577 19.9989 8.31577Z" fill="#7210FF"/>
<path fill-rule="evenodd" clip-rule="evenodd" d="M23.1227 6.57323H21.2083C21.0147 6.57323 20.8574 6.41628 20.8574 6.22259C20.8576 6.02863 21.0146 5.87167 21.2083 5.87167L23.1227 5.87158C23.3163 5.87158 23.4733 6.02872 23.4733 6.22259C23.4735 6.41618 23.3162 6.57333 23.1227 6.57323Z" fill="#7210FF"/>
<path fill-rule="evenodd" clip-rule="evenodd" d="M23.5249 8.31537H21.2083C21.0147 8.31537 20.8574 8.15832 20.8574 7.96455L20.8576 4.47982C20.8576 4.28596 21.0146 4.129 21.2083 4.129L23.5249 4.12891C23.7186 4.12891 23.8754 4.28605 23.8754 4.47982C23.8756 4.67351 23.7182 4.83074 23.5245 4.83074L21.5595 4.83056V7.61354H23.5249C23.7186 7.61354 23.8754 7.77077 23.8754 7.96455C23.8756 8.15814 23.7182 8.31537 23.5249 8.31537Z" fill="#7210FF"/>
<path fill-rule="evenodd" clip-rule="evenodd" d="M24.734 8.31568C24.6825 8.31568 24.6302 8.30452 24.5809 8.28062C24.4066 8.1961 24.3343 7.98636 24.4183 7.81196L25.7971 4.96476C25.8815 4.79018 26.0913 4.71728 26.2658 4.8018C26.4407 4.88614 26.5125 5.09606 26.4284 5.27055L25.0497 8.11767C24.9896 8.2427 24.8646 8.31568 24.734 8.31568Z" fill="#7210FF"/>
<path fill-rule="evenodd" clip-rule="evenodd" d="M27.491 8.31561C27.3616 8.31561 27.2361 8.24281 27.1748 8.11769L25.7971 5.2703C25.7124 5.09599 25.7851 4.88616 25.9597 4.80173C26.1342 4.7173 26.3443 4.79029 26.4283 4.96469L27.8073 7.81171C27.8916 7.98629 27.8181 8.19612 27.6436 8.28055C27.5943 8.30435 27.5422 8.3157 27.491 8.31561Z" fill="#7210FF"/>
<path fill-rule="evenodd" clip-rule="evenodd" d="M24.7346 8.31577C24.5409 8.31577 24.3835 8.15872 24.3835 7.96494L24.3838 4.48022C24.3838 4.28635 24.5406 4.12939 24.7343 4.12939C24.9282 4.1293 25.0851 4.28645 25.0851 4.48022L25.0853 7.96485C25.0853 8.15854 24.9281 8.31577 24.7346 8.31577ZM27.4901 8.31577C27.2965 8.31577 27.1392 8.15872 27.1392 7.96494L27.1395 4.48022C27.1395 4.28635 27.2964 4.12939 27.49 4.12939C27.6838 4.1293 27.8409 4.28645 27.8409 4.48022L27.841 7.96485C27.841 8.15854 27.6837 8.31577 27.4901 8.31577Z" fill="#7210FF"/>
<path fill-rule="evenodd" clip-rule="evenodd" d="M29.8406 8.31577C29.5692 8.31577 29.323 8.26991 29.1084 8.17948C28.8734 8.08084 28.688 7.9297 28.5565 7.73048C28.4286 7.53476 28.359 7.31423 28.3499 7.07386C28.3426 6.87999 28.4924 6.71694 28.6861 6.70928C28.8809 6.70282 29.0434 6.85231 29.0507 7.04599C29.0556 7.15958 29.0855 7.25766 29.1431 7.34569C29.1962 7.42643 29.2746 7.48807 29.3806 7.53264C29.5087 7.58681 29.6629 7.61412 29.8402 7.61412C29.9984 7.61393 30.1362 7.58893 30.2623 7.53716C30.3619 7.49573 30.4341 7.44009 30.4816 7.36729C30.5313 7.29181 30.5547 7.21467 30.5547 7.13042C30.5547 6.82204 30.3482 6.715 29.6858 6.52925C29.1222 6.37119 28.3499 6.15499 28.3499 5.31475C28.35 5.09264 28.413 4.88401 28.5364 4.69439C28.6617 4.50246 28.8433 4.35593 29.0763 4.25922C29.2866 4.17295 29.5185 4.12939 29.7662 4.12939C30.0378 4.1293 30.2833 4.17526 30.4971 4.26568C30.7332 4.36432 30.9183 4.51556 31.0499 4.71469C31.1772 4.90994 31.2463 5.13066 31.2564 5.37131C31.264 5.5649 31.113 5.72813 30.9192 5.73588C30.7294 5.74419 30.563 5.59286 30.5547 5.39918C30.5501 5.28531 30.52 5.1875 30.4633 5.09966C30.4095 5.01864 30.3317 4.95709 30.2248 4.91243C30.0971 4.85827 29.9425 4.83114 29.7662 4.83114C29.6082 4.83095 29.4701 4.85624 29.3431 4.90791C29.2439 4.94916 29.1713 5.00507 29.1248 5.07788C29.0758 5.15308 29.0516 5.23041 29.0516 5.31475C29.0519 5.58031 29.2472 5.67766 29.8749 5.85363C30.458 6.01677 31.2564 6.24062 31.2564 7.13042C31.2566 7.35243 31.1934 7.56115 31.0691 7.75078C30.9449 7.94243 30.763 8.08924 30.53 8.18594C30.3191 8.27222 30.0878 8.31577 29.8406 8.31577Z" fill="#7210FF"/>
<path fill-rule="evenodd" clip-rule="evenodd" d="M9.4454 8.55377H14.6417V3.89062H9.4454V8.55377ZM14.9924 9.25542H9.09466C8.90015 9.25542 8.74365 9.09846 8.74365 8.90469L8.74393 3.53988C8.74393 3.34601 8.89987 3.18906 9.09448 3.18906L14.9924 3.18896C15.1865 3.18896 15.3433 3.34611 15.3433 3.53988L15.3435 8.90469C15.3435 9.09837 15.1861 9.2556 14.9924 9.25542Z" fill="#7210FF"/>
<path opacity="0.1" fill-rule="evenodd" clip-rule="evenodd" d="M30.9057 11.9272H9.09466C8.90015 11.9272 8.74365 11.7702 8.74365 11.5765C8.74393 11.3826 8.89987 11.2256 9.09448 11.2256H30.9057C31.0994 11.2256 31.2563 11.3827 31.2563 11.5765C31.2565 11.7702 31.0994 11.9272 30.9057 11.9272Z" fill="#7210FF"/>
<path opacity="0.1" fill-rule="evenodd" clip-rule="evenodd" d="M30.9057 15.7803H9.09466C8.90015 15.7803 8.74365 15.6232 8.74365 15.4295C8.74393 15.2357 8.89987 15.0786 9.09448 15.0786H30.9057C31.0994 15.0786 31.2563 15.2357 31.2563 15.4295C31.2565 15.6232 31.0994 15.7803 30.9057 15.7803Z" fill="#7210FF"/>
<path opacity="0.1" fill-rule="evenodd" clip-rule="evenodd" d="M30.9057 19.6328H9.09466C8.90015 19.6328 8.74365 19.4758 8.74365 19.2821C8.74393 19.0882 8.89987 18.9312 9.09448 18.9312H30.9057C31.0994 18.9312 31.2563 19.0882 31.2563 19.2821C31.2565 19.4758 31.0994 19.6328 30.9057 19.6328Z" fill="#7210FF"/>
<path opacity="0.1" fill-rule="evenodd" clip-rule="evenodd" d="M30.9057 23.4858H9.09466C8.90015 23.4858 8.74365 23.3287 8.74365 23.135C8.74393 22.9412 8.89987 22.7842 9.09448 22.7842H30.9057C31.0994 22.7842 31.2563 22.9412 31.2563 23.135C31.2565 23.3285 31.099 23.4859 30.9057 23.4858Z" fill="#7210FF"/>
<path opacity="0.1" fill-rule="evenodd" clip-rule="evenodd" d="M30.9057 27.3384H9.09466C8.90015 27.3384 8.74365 27.1815 8.74365 26.9876C8.74393 26.7938 8.89987 26.6368 9.09448 26.6368L30.9057 26.6367C31.0994 26.6367 31.2563 26.794 31.2563 26.9876C31.2565 27.1813 31.0994 27.3384 30.9057 27.3384Z" fill="#7210FF"/>
</g>
<defs>
<clipPath id="clip0_2543_4750">
<rect width="40" height="40" fill="white"/>
</clipPath>
</defs>
</svg>
