<svg width="464" height="442" viewBox="0 0 464 442" fill="none" xmlns="http://www.w3.org/2000/svg">
<g opacity="0.4">
<path opacity="0.04" d="M462.589 430.059H256.262V441.21H462.589V430.059Z" fill="#7210FF" stroke="#7210FF" stroke-miterlimit="10" stroke-linecap="round" stroke-linejoin="round"/>
<path opacity="0.04" d="M396.793 430.458V436.969" stroke="#7210FF" stroke-width="0.75" stroke-miterlimit="10" stroke-linecap="round" stroke-linejoin="round"/>
<path opacity="0.04" d="M401.057 430.458V433.98" stroke="#7210FF" stroke-width="0.75" stroke-miterlimit="10" stroke-linecap="round" stroke-linejoin="round"/>
<path opacity="0.04" d="M405.318 430.458V433.98" stroke="#7210FF" stroke-width="0.75" stroke-miterlimit="10" stroke-linecap="round" stroke-linejoin="round"/>
<path opacity="0.04" d="M409.582 430.458V439.495" stroke="#7210FF" stroke-width="0.75" stroke-miterlimit="10" stroke-linecap="round" stroke-linejoin="round"/>
<path opacity="0.04" d="M414.697 430.458V434.682" stroke="#7210FF" stroke-width="0.75" stroke-miterlimit="10" stroke-linecap="round" stroke-linejoin="round"/>
<path opacity="0.1" d="M364.847 277.268H317.195V300.15H364.847V277.268Z" fill="#7210FF" stroke="#7210FF" stroke-miterlimit="10" stroke-linecap="round" stroke-linejoin="round"/>
<path opacity="0.04" d="M364.847 277.268H348.359V300.15H364.847V277.268Z" fill="#7210FF" stroke="#7210FF" stroke-miterlimit="10" stroke-linecap="round" stroke-linejoin="round"/>
<path opacity="0.2" d="M298.964 311.772V265.592H155.914V441.211H249.985H298.964H393.035V311.772H298.964Z" fill="#7210FF" stroke="#7210FF" stroke-miterlimit="10" stroke-linecap="round" stroke-linejoin="round"/>
<path opacity="0.04" d="M393.033 311.772H374.039V441.211H393.033V311.772Z" fill="#7210FF" stroke="#7210FF" stroke-miterlimit="10" stroke-linecap="round" stroke-linejoin="round"/>
<path opacity="0.1" d="M392.884 301.906H298.695V328.588H392.884V301.906Z" fill="#7210FF" stroke="#7210FF" stroke-miterlimit="10" stroke-linecap="round" stroke-linejoin="round"/>
<path opacity="0.1" d="M298.912 266.849H204.723V293.53H298.912V266.849Z" fill="#7210FF" stroke="#7210FF" stroke-miterlimit="10" stroke-linecap="round" stroke-linejoin="round"/>
<path opacity="0.04" d="M304.92 260.435H139.631V287.116H304.92V260.435Z" fill="#7210FF" stroke="#7210FF" stroke-miterlimit="10" stroke-linecap="round" stroke-linejoin="round"/>
<path opacity="0.04" d="M401.556 295.763H298.695V322.444H401.556V295.763Z" fill="#7210FF" stroke="#7210FF" stroke-miterlimit="10" stroke-linecap="round" stroke-linejoin="round"/>
<path opacity="0.04" d="M258.891 260.914V271.478" stroke="#7210FF" stroke-width="0.75" stroke-miterlimit="10" stroke-linecap="round" stroke-linejoin="round"/>
<path opacity="0.04" d="M263.154 260.914V271.478" stroke="#7210FF" stroke-width="0.75" stroke-miterlimit="10" stroke-linecap="round" stroke-linejoin="round"/>
<path opacity="0.04" d="M263.154 274.328V282.395" stroke="#7210FF" stroke-width="0.75" stroke-miterlimit="10" stroke-linecap="round" stroke-linejoin="round"/>
<path opacity="0.04" d="M267.416 260.914V271.478" stroke="#7210FF" stroke-width="0.75" stroke-miterlimit="10" stroke-linecap="round" stroke-linejoin="round"/>
<path opacity="0.04" d="M267.416 274.782V282.263" stroke="#7210FF" stroke-width="0.75" stroke-miterlimit="10" stroke-linecap="round" stroke-linejoin="round"/>
<path opacity="0.04" d="M271.395 274.782V279.496" stroke="#7210FF" stroke-width="0.75" stroke-miterlimit="10" stroke-linecap="round" stroke-linejoin="round"/>
<path opacity="0.04" d="M271.68 260.914V271.478" stroke="#7210FF" stroke-width="0.75" stroke-miterlimit="10" stroke-linecap="round" stroke-linejoin="round"/>
<path opacity="0.04" d="M276.51 268.799V271.477" stroke="#7210FF" stroke-width="0.75" stroke-miterlimit="10" stroke-linecap="round" stroke-linejoin="round"/>
<path opacity="0.04" d="M276.795 260.914V266.92" stroke="#7210FF" stroke-width="0.75" stroke-miterlimit="10" stroke-linecap="round" stroke-linejoin="round"/>
<path opacity="0.04" d="M258.891 273.603V279.858" stroke="#7210FF" stroke-width="0.75" stroke-miterlimit="10" stroke-linecap="round" stroke-linejoin="round"/>
<path opacity="0.04" d="M303.047 295.904V306.47" stroke="#7210FF" stroke-width="0.75" stroke-miterlimit="10" stroke-linecap="round" stroke-linejoin="round"/>
<path opacity="0.04" d="M307.311 295.904V306.47" stroke="#7210FF" stroke-width="0.75" stroke-miterlimit="10" stroke-linecap="round" stroke-linejoin="round"/>
<path opacity="0.04" d="M307.311 309.318V317.387" stroke="#7210FF" stroke-width="0.75" stroke-miterlimit="10" stroke-linecap="round" stroke-linejoin="round"/>
<path opacity="0.04" d="M311.572 295.904V306.47" stroke="#7210FF" stroke-width="0.75" stroke-miterlimit="10" stroke-linecap="round" stroke-linejoin="round"/>
<path opacity="0.04" d="M311.572 309.773V317.252" stroke="#7210FF" stroke-width="0.75" stroke-miterlimit="10" stroke-linecap="round" stroke-linejoin="round"/>
<path opacity="0.04" d="M315.551 309.773V314.485" stroke="#7210FF" stroke-width="0.75" stroke-miterlimit="10" stroke-linecap="round" stroke-linejoin="round"/>
<path opacity="0.04" d="M315.836 295.904V306.47" stroke="#7210FF" stroke-width="0.75" stroke-miterlimit="10" stroke-linecap="round" stroke-linejoin="round"/>
<path opacity="0.04" d="M320.666 303.789V306.469" stroke="#7210FF" stroke-width="0.75" stroke-miterlimit="10" stroke-linecap="round" stroke-linejoin="round"/>
<path opacity="0.04" d="M320.951 295.904V301.91" stroke="#7210FF" stroke-width="0.75" stroke-miterlimit="10" stroke-linecap="round" stroke-linejoin="round"/>
<path opacity="0.04" d="M303.047 308.594V314.849" stroke="#7210FF" stroke-width="0.75" stroke-miterlimit="10" stroke-linecap="round" stroke-linejoin="round"/>
<path opacity="0.1" d="M292.41 344.433H260.871V373.073H292.41V344.433Z" fill="#7210FF"/>
<mask id="mask0_3665_12016" style="mask-type:luminance" maskUnits="userSpaceOnUse" x="260" y="344" width="33" height="30">
<path d="M292.41 344.434H260.871V373.074H292.41V344.434Z" fill="white"/>
</mask>
<g mask="url(#mask0_3665_12016)">
<g opacity="0.6">
<path opacity="0.2" d="M260.871 366.295V371.962L292.41 346.349V344.434H287.79" fill="#7210FF"/>
<path opacity="0.2" d="M292.409 358.258V352.591L267.188 373.074H274.165" fill="#7210FF"/>
</g>
</g>
<path opacity="0.04" d="M292.41 344.433H260.871V373.073H292.41V344.433Z" stroke="#7210FF" stroke-miterlimit="10" stroke-linecap="round" stroke-linejoin="round"/>
<path opacity="0.04" d="M292.41 336.181H260.871V348.638H292.41V336.181Z" fill="#7210FF" stroke="#7210FF" stroke-miterlimit="10" stroke-linecap="round" stroke-linejoin="round"/>
<path opacity="0.1" d="M336.896 344.433H305.357V373.073H336.896V344.433Z" fill="#7210FF"/>
<mask id="mask1_3665_12016" style="mask-type:luminance" maskUnits="userSpaceOnUse" x="305" y="344" width="32" height="30">
<path d="M336.896 344.434H305.357V373.074H336.896V344.434Z" fill="white"/>
</mask>
<g mask="url(#mask1_3665_12016)">
<g opacity="0.6">
<path opacity="0.2" d="M332.276 344.434L305.357 366.295V371.962L336.896 346.349V344.434H332.276Z" fill="#7210FF"/>
<path opacity="0.2" d="M318.653 373.074L336.895 358.258V352.591L311.674 373.074H318.653Z" fill="#7210FF"/>
</g>
</g>
<path opacity="0.04" d="M336.896 344.433H305.357V373.073H336.896V344.433Z" stroke="#7210FF" stroke-miterlimit="10" stroke-linecap="round" stroke-linejoin="round"/>
<path opacity="0.04" d="M336.898 336.181H305.359V348.638H336.898V336.181Z" fill="#7210FF" stroke="#7210FF" stroke-miterlimit="10" stroke-linecap="round" stroke-linejoin="round"/>
<path opacity="0.1" d="M381.385 344.433H349.846V373.073H381.385V344.433Z" fill="#7210FF"/>
<mask id="mask2_3665_12016" style="mask-type:luminance" maskUnits="userSpaceOnUse" x="349" y="344" width="33" height="30">
<path d="M381.385 344.434H349.846V373.074H381.385V344.434Z" fill="white"/>
</mask>
<g mask="url(#mask2_3665_12016)">
<g opacity="0.6">
<path opacity="0.2" d="M376.765 344.434L349.846 366.295V371.962L381.385 346.349V344.434H376.765Z" fill="#7210FF"/>
<path opacity="0.2" d="M363.141 373.074L381.384 358.258V352.591L356.162 373.074H363.141Z" fill="#7210FF"/>
</g>
</g>
<path opacity="0.04" d="M381.385 344.433H349.846V373.073H381.385V344.433Z" stroke="#7210FF" stroke-miterlimit="10" stroke-linecap="round" stroke-linejoin="round"/>
<path opacity="0.04" d="M381.385 336.181H349.846V348.638H381.385V336.181Z" fill="#7210FF" stroke="#7210FF" stroke-miterlimit="10" stroke-linecap="round" stroke-linejoin="round"/>
<path opacity="0.1" d="M292.41 392.672H260.871V421.313H292.41V392.672Z" fill="#7210FF"/>
<mask id="mask3_3665_12016" style="mask-type:luminance" maskUnits="userSpaceOnUse" x="260" y="392" width="33" height="30">
<path d="M292.41 392.671H260.871V421.312H292.41V392.671Z" fill="white"/>
</mask>
<g mask="url(#mask3_3665_12016)">
<g opacity="0.6">
<path opacity="0.2" d="M260.871 414.534V420.201L292.41 394.588V392.671H287.79" fill="#7210FF"/>
<path opacity="0.2" d="M292.409 406.497V400.828L267.188 421.312H274.165" fill="#7210FF"/>
</g>
</g>
<path opacity="0.04" d="M292.41 392.672H260.871V421.313H292.41V392.672Z" stroke="#7210FF" stroke-miterlimit="10" stroke-linecap="round" stroke-linejoin="round"/>
<path opacity="0.04" d="M292.41 384.421H260.871V396.879H292.41V384.421Z" fill="#7210FF" stroke="#7210FF" stroke-miterlimit="10" stroke-linecap="round" stroke-linejoin="round"/>
<path opacity="0.1" d="M336.896 392.672H305.357V421.313H336.896V392.672Z" fill="#7210FF"/>
<mask id="mask4_3665_12016" style="mask-type:luminance" maskUnits="userSpaceOnUse" x="305" y="392" width="32" height="30">
<path d="M336.896 392.671H305.357V421.312H336.896V392.671Z" fill="white"/>
</mask>
<g mask="url(#mask4_3665_12016)">
<g opacity="0.6">
<path opacity="0.2" d="M305.357 414.534V420.201L336.896 394.588V392.671H332.276" fill="#7210FF"/>
<path opacity="0.2" d="M311.674 421.312H318.653L336.895 406.497V400.828" fill="#7210FF"/>
</g>
</g>
<path opacity="0.04" d="M336.896 392.672H305.357V421.313H336.896V392.672Z" stroke="#7210FF" stroke-miterlimit="10" stroke-linecap="round" stroke-linejoin="round"/>
<path opacity="0.04" d="M336.896 384.421H305.357V396.879H336.896V384.421Z" fill="#7210FF" stroke="#7210FF" stroke-miterlimit="10" stroke-linecap="round" stroke-linejoin="round"/>
<path opacity="0.1" d="M381.385 392.672H349.846V421.313H381.385V392.672Z" fill="#7210FF"/>
<mask id="mask5_3665_12016" style="mask-type:luminance" maskUnits="userSpaceOnUse" x="349" y="392" width="33" height="30">
<path d="M381.385 392.671H349.846V421.312H381.385V392.671Z" fill="white"/>
</mask>
<g mask="url(#mask5_3665_12016)">
<g opacity="0.6">
<path opacity="0.2" d="M376.765 392.671L349.846 414.534V420.201L381.385 394.588V392.671H376.765Z" fill="#7210FF"/>
<path opacity="0.2" d="M363.141 421.312L381.384 406.497V400.828L356.162 421.312H363.141Z" fill="#7210FF"/>
</g>
</g>
<path opacity="0.04" d="M381.385 392.672H349.846V421.313H381.385V392.672Z" stroke="#7210FF" stroke-miterlimit="10" stroke-linecap="round" stroke-linejoin="round"/>
<path opacity="0.04" d="M381.385 384.421H349.846V396.879H381.385V384.421Z" fill="#7210FF" stroke="#7210FF" stroke-miterlimit="10" stroke-linecap="round" stroke-linejoin="round"/>
<path opacity="0.1" d="M254.494 22.54H6.05273V441.21H254.494V22.54Z" fill="#7210FF" stroke="#7210FF" stroke-miterlimit="10" stroke-linecap="round" stroke-linejoin="round"/>
<path opacity="0.04" d="M254.491 22.54H111.441V441.21H254.491V22.54Z" fill="#7210FF" stroke="#7210FF" stroke-miterlimit="10" stroke-linecap="round" stroke-linejoin="round"/>
<path opacity="0.2" d="M237.886 22.54H128.047V441.21H237.886V22.54Z" fill="#7210FF" stroke="#7210FF" stroke-miterlimit="10" stroke-linecap="round" stroke-linejoin="round"/>
<path opacity="0.1" d="M254.491 22.54H111.441V51.2184H254.491V22.54Z" fill="#7210FF" stroke="#7210FF" stroke-miterlimit="10" stroke-linecap="round" stroke-linejoin="round"/>
<path opacity="0.1" d="M217.717 389.756H148.221V441.211H217.717V389.756Z" fill="#7210FF"/>
<mask id="mask6_3665_12016" style="mask-type:luminance" maskUnits="userSpaceOnUse" x="148" y="389" width="70" height="53">
<path d="M217.719 389.756H148.223V441.211H217.719V389.756Z" fill="white"/>
</mask>
<g mask="url(#mask6_3665_12016)">
<g opacity="0.6">
<path opacity="0.2" d="M178.659 406.495L148.906 433.581V440.934H149.391L183.016 410.324V406.495H178.659Z" fill="#7210FF"/>
<path opacity="0.2" d="M167.384 440.934L183.015 426.704V418.907L158.82 440.934H167.384Z" fill="#7210FF"/>
</g>
</g>
<path opacity="0.04" d="M217.717 389.756H148.221V441.211H217.717V389.756Z" stroke="#7210FF" stroke-miterlimit="10" stroke-linecap="round" stroke-linejoin="round"/>
<path opacity="0.1" d="M217.717 389.756H182.969V441.211H217.717V389.756Z" fill="#7210FF"/>
<mask id="mask7_3665_12016" style="mask-type:luminance" maskUnits="userSpaceOnUse" x="182" y="389" width="36" height="53">
<path d="M217.717 389.756H182.969V441.211H217.717V389.756Z" fill="white"/>
</mask>
<g mask="url(#mask7_3665_12016)">
<g opacity="0.6">
<path opacity="0.2" d="M212.765 406.495L183.012 433.581V440.934H183.498L217.123 410.324V406.495H212.765Z" fill="#7210FF"/>
<path opacity="0.2" d="M201.493 440.934L217.124 426.704V418.907L192.93 440.934H201.493Z" fill="#7210FF"/>
</g>
</g>
<path opacity="0.04" d="M217.717 389.756H182.969V441.211H217.717V389.756Z" stroke="#7210FF" stroke-miterlimit="10" stroke-linecap="round" stroke-linejoin="round"/>
<path opacity="0.1" d="M54.0955 69.5176H22.5566V98.1583H54.0955V69.5176Z" fill="#7210FF"/>
<mask id="mask8_3665_12016" style="mask-type:luminance" maskUnits="userSpaceOnUse" x="22" y="69" width="33" height="30">
<path d="M54.0955 69.5186H22.5566V98.1592H54.0955V69.5186Z" fill="white"/>
</mask>
<g mask="url(#mask8_3665_12016)">
<g opacity="0.6">
<path opacity="0.2" d="M54.0955 71.4337V69.5186H49.4755L22.5566 91.38V97.0485" fill="#7210FF"/>
<path opacity="0.2" d="M54.0946 83.3443V77.6758L28.873 98.1594H35.8522" fill="#7210FF"/>
</g>
</g>
<path opacity="0.04" d="M54.0955 69.5176H22.5566V98.1583H54.0955V69.5176Z" stroke="#7210FF" stroke-miterlimit="10" stroke-linecap="round" stroke-linejoin="round"/>
<path opacity="0.04" d="M54.0974 61.2656H22.5586V73.7232H54.0974V61.2656Z" fill="#7210FF" stroke="#7210FF" stroke-miterlimit="10" stroke-linecap="round" stroke-linejoin="round"/>
<path opacity="0.1" d="M99.1834 69.5176H67.6445V98.1583H99.1834V69.5176Z" fill="#7210FF"/>
<mask id="mask9_3665_12016" style="mask-type:luminance" maskUnits="userSpaceOnUse" x="67" y="69" width="33" height="30">
<path d="M99.1834 69.5186H67.6445V98.1592H99.1834V69.5186Z" fill="white"/>
</mask>
<g mask="url(#mask9_3665_12016)">
<g opacity="0.6">
<path opacity="0.2" d="M67.6445 91.38V97.0485L99.1834 71.4337V69.5186H94.5634" fill="#7210FF"/>
<path opacity="0.2" d="M99.1825 83.3443V77.6758L73.9609 98.1594H80.9401" fill="#7210FF"/>
</g>
</g>
<path opacity="0.04" d="M99.1834 69.5176H67.6445V98.1583H99.1834V69.5176Z" stroke="#7210FF" stroke-miterlimit="10" stroke-linecap="round" stroke-linejoin="round"/>
<path opacity="0.04" d="M99.1834 61.2656H67.6445V73.7232H99.1834V61.2656Z" fill="#7210FF" stroke="#7210FF" stroke-miterlimit="10" stroke-linecap="round" stroke-linejoin="round"/>
<path opacity="0.1" d="M54.0955 124.5H22.5566V153.141H54.0955V124.5Z" fill="#7210FF"/>
<mask id="mask10_3665_12016" style="mask-type:luminance" maskUnits="userSpaceOnUse" x="22" y="124" width="33" height="30">
<path d="M54.0955 124.501H22.5566V153.142H54.0955V124.501Z" fill="white"/>
</mask>
<g mask="url(#mask10_3665_12016)">
<g opacity="0.6">
<path opacity="0.2" d="M22.5566 146.364V152.031L54.0955 126.416V124.501H49.4755" fill="#7210FF"/>
<path opacity="0.2" d="M54.0946 138.327V132.658L28.873 153.142H35.8522" fill="#7210FF"/>
</g>
</g>
<path opacity="0.04" d="M54.0955 124.5H22.5566V153.141H54.0955V124.5Z" stroke="#7210FF" stroke-miterlimit="10" stroke-linecap="round" stroke-linejoin="round"/>
<path opacity="0.04" d="M54.0974 116.248H22.5586V128.706H54.0974V116.248Z" fill="#7210FF" stroke="#7210FF" stroke-miterlimit="10" stroke-linecap="round" stroke-linejoin="round"/>
<path opacity="0.1" d="M99.1834 124.5H67.6445V153.141H99.1834V124.5Z" fill="#7210FF"/>
<mask id="mask11_3665_12016" style="mask-type:luminance" maskUnits="userSpaceOnUse" x="67" y="124" width="33" height="30">
<path d="M99.1834 124.501H67.6445V153.142H99.1834V124.501Z" fill="white"/>
</mask>
<g mask="url(#mask11_3665_12016)">
<g opacity="0.6">
<path opacity="0.2" d="M99.1834 126.416V124.501H94.5634L67.6445 146.364V152.031" fill="#7210FF"/>
<path opacity="0.2" d="M73.9609 153.142H80.9401L99.1825 138.327V132.658" fill="#7210FF"/>
</g>
</g>
<path opacity="0.04" d="M99.1834 124.5H67.6445V153.141H99.1834V124.5Z" stroke="#7210FF" stroke-miterlimit="10" stroke-linecap="round" stroke-linejoin="round"/>
<path opacity="0.04" d="M99.1834 116.248H67.6445V128.706H99.1834V116.248Z" fill="#7210FF" stroke="#7210FF" stroke-miterlimit="10" stroke-linecap="round" stroke-linejoin="round"/>
<path opacity="0.1" d="M54.0955 179.483H22.5566V208.124H54.0955V179.483Z" fill="#7210FF"/>
<mask id="mask12_3665_12016" style="mask-type:luminance" maskUnits="userSpaceOnUse" x="22" y="179" width="33" height="30">
<path d="M54.0955 179.483H22.5566V208.124H54.0955V179.483Z" fill="white"/>
</mask>
<g mask="url(#mask12_3665_12016)">
<g opacity="0.6">
<path opacity="0.2" d="M22.5566 201.346V207.012L54.0955 181.399V179.483H49.4755" fill="#7210FF"/>
<path opacity="0.2" d="M54.0946 193.309V187.641L28.873 208.124H35.8522" fill="#7210FF"/>
</g>
</g>
<path opacity="0.04" d="M54.0955 179.483H22.5566V208.124H54.0955V179.483Z" stroke="#7210FF" stroke-miterlimit="10" stroke-linecap="round" stroke-linejoin="round"/>
<path opacity="0.04" d="M54.0974 171.232H22.5586V183.69H54.0974V171.232Z" fill="#7210FF" stroke="#7210FF" stroke-miterlimit="10" stroke-linecap="round" stroke-linejoin="round"/>
<path opacity="0.1" d="M99.1834 179.484H67.6445V208.125H99.1834V179.484Z" fill="#7210FF"/>
<mask id="mask13_3665_12016" style="mask-type:luminance" maskUnits="userSpaceOnUse" x="67" y="179" width="33" height="30">
<path d="M99.1834 179.484H67.6445V208.125H99.1834V179.484Z" fill="white"/>
</mask>
<g mask="url(#mask13_3665_12016)">
<g opacity="0.6">
<path opacity="0.2" d="M67.6445 201.347V207.013L99.1834 181.4V179.484H94.5634" fill="#7210FF"/>
<path opacity="0.2" d="M73.9609 208.125H80.9401L99.1825 193.31V187.642" fill="#7210FF"/>
</g>
</g>
<path opacity="0.04" d="M99.1834 179.484H67.6445V208.125H99.1834V179.484Z" stroke="#7210FF" stroke-miterlimit="10" stroke-linecap="round" stroke-linejoin="round"/>
<path opacity="0.04" d="M99.1834 171.232H67.6445V183.69H99.1834V171.232Z" fill="#7210FF" stroke="#7210FF" stroke-miterlimit="10" stroke-linecap="round" stroke-linejoin="round"/>
<path opacity="0.1" d="M54.0955 234.467H22.5566V263.107H54.0955V234.467Z" fill="#7210FF"/>
<mask id="mask14_3665_12016" style="mask-type:luminance" maskUnits="userSpaceOnUse" x="22" y="234" width="33" height="30">
<path d="M54.0955 234.467H22.5566V263.107H54.0955V234.467Z" fill="white"/>
</mask>
<g mask="url(#mask14_3665_12016)">
<g opacity="0.6">
<path opacity="0.2" d="M49.4755 234.467L22.5566 256.328V261.995L54.0955 236.382V234.467H49.4755Z" fill="#7210FF"/>
<path opacity="0.2" d="M35.8522 263.108L54.0946 248.293V242.624L28.873 263.108H35.8522Z" fill="#7210FF"/>
</g>
</g>
<path opacity="0.04" d="M54.0955 234.467H22.5566V263.107H54.0955V234.467Z" stroke="#7210FF" stroke-miterlimit="10" stroke-linecap="round" stroke-linejoin="round"/>
<path opacity="0.04" d="M54.0974 226.215H22.5586V238.672H54.0974V226.215Z" fill="#7210FF" stroke="#7210FF" stroke-miterlimit="10" stroke-linecap="round" stroke-linejoin="round"/>
<path opacity="0.1" d="M99.1834 234.467H67.6445V263.107H99.1834V234.467Z" fill="#7210FF"/>
<mask id="mask15_3665_12016" style="mask-type:luminance" maskUnits="userSpaceOnUse" x="67" y="234" width="33" height="30">
<path d="M99.1834 234.467H67.6445V263.107H99.1834V234.467Z" fill="white"/>
</mask>
<g mask="url(#mask15_3665_12016)">
<g opacity="0.6">
<path opacity="0.2" d="M67.6445 256.328V261.995L99.1834 236.382V234.467H94.5634" fill="#7210FF"/>
<path opacity="0.2" d="M73.9609 263.108H80.9401L99.1825 248.293V242.624" fill="#7210FF"/>
</g>
</g>
<path opacity="0.04" d="M99.1834 234.467H67.6445V263.107H99.1834V234.467Z" stroke="#7210FF" stroke-miterlimit="10" stroke-linecap="round" stroke-linejoin="round"/>
<path opacity="0.04" d="M99.1834 226.215H67.6445V238.672H99.1834V226.215Z" fill="#7210FF" stroke="#7210FF" stroke-miterlimit="10" stroke-linecap="round" stroke-linejoin="round"/>
<path opacity="0.1" d="M54.0955 289.449H22.5566V318.09H54.0955V289.449Z" fill="#7210FF"/>
<mask id="mask16_3665_12016" style="mask-type:luminance" maskUnits="userSpaceOnUse" x="22" y="289" width="33" height="30">
<path d="M54.0955 289.449H22.5566V318.09H54.0955V289.449Z" fill="white"/>
</mask>
<g mask="url(#mask16_3665_12016)">
<g opacity="0.6">
<path opacity="0.2" d="M49.4755 289.449L22.5566 311.311V316.979L54.0955 291.364V289.449H49.4755Z" fill="#7210FF"/>
<path opacity="0.2" d="M35.8522 318.09L54.0946 303.275V297.606L28.873 318.09H35.8522Z" fill="#7210FF"/>
</g>
</g>
<path opacity="0.04" d="M54.0955 289.449H22.5566V318.09H54.0955V289.449Z" stroke="#7210FF" stroke-miterlimit="10" stroke-linecap="round" stroke-linejoin="round"/>
<path opacity="0.04" d="M54.0974 281.197H22.5586V293.655H54.0974V281.197Z" fill="#7210FF" stroke="#7210FF" stroke-miterlimit="10" stroke-linecap="round" stroke-linejoin="round"/>
<path opacity="0.1" d="M99.1834 289.449H67.6445V318.09H99.1834V289.449Z" fill="#7210FF"/>
<mask id="mask17_3665_12016" style="mask-type:luminance" maskUnits="userSpaceOnUse" x="67" y="289" width="33" height="30">
<path d="M99.1834 289.449H67.6445V318.09H99.1834V289.449Z" fill="white"/>
</mask>
<g mask="url(#mask17_3665_12016)">
<g opacity="0.6">
<path opacity="0.2" d="M94.5634 289.449L67.6445 311.311V316.979L99.1834 291.364V289.449H94.5634Z" fill="#7210FF"/>
<path opacity="0.2" d="M80.9401 318.09L99.1825 303.275V297.606L73.9609 318.09H80.9401Z" fill="#7210FF"/>
</g>
</g>
<path opacity="0.04" d="M99.1834 289.449H67.6445V318.09H99.1834V289.449Z" stroke="#7210FF" stroke-miterlimit="10" stroke-linecap="round" stroke-linejoin="round"/>
<path opacity="0.04" d="M99.1834 281.197H67.6445V293.655H99.1834V281.197Z" fill="#7210FF" stroke="#7210FF" stroke-miterlimit="10" stroke-linecap="round" stroke-linejoin="round"/>
<path opacity="0.1" d="M54.0955 344.433H22.5566V373.073H54.0955V344.433Z" fill="#7210FF"/>
<mask id="mask18_3665_12016" style="mask-type:luminance" maskUnits="userSpaceOnUse" x="22" y="344" width="33" height="30">
<path d="M54.0955 344.433H22.5566V373.073H54.0955V344.433Z" fill="white"/>
</mask>
<g mask="url(#mask18_3665_12016)">
<g opacity="0.6">
<path opacity="0.2" d="M49.4755 344.433L22.5566 366.294V371.961L54.0955 346.348V344.433H49.4755Z" fill="#7210FF"/>
<path opacity="0.2" d="M35.8522 373.073L54.0946 358.257V352.59L28.873 373.073H35.8522Z" fill="#7210FF"/>
</g>
</g>
<path opacity="0.04" d="M54.0955 344.433H22.5566V373.073H54.0955V344.433Z" stroke="#7210FF" stroke-miterlimit="10" stroke-linecap="round" stroke-linejoin="round"/>
<path opacity="0.04" d="M54.0974 336.181H22.5586V348.638H54.0974V336.181Z" fill="#7210FF" stroke="#7210FF" stroke-miterlimit="10" stroke-linecap="round" stroke-linejoin="round"/>
<path opacity="0.1" d="M99.1834 344.433H67.6445V373.073H99.1834V344.433Z" fill="#7210FF"/>
<mask id="mask19_3665_12016" style="mask-type:luminance" maskUnits="userSpaceOnUse" x="67" y="344" width="33" height="30">
<path d="M99.1834 344.433H67.6445V373.073H99.1834V344.433Z" fill="white"/>
</mask>
<g mask="url(#mask19_3665_12016)">
<g opacity="0.6">
<path opacity="0.2" d="M94.5634 344.433L67.6445 366.294V371.961L99.1834 346.348V344.433H94.5634Z" fill="#7210FF"/>
<path opacity="0.2" d="M80.9401 373.073L99.1825 358.257V352.59L73.9609 373.073H80.9401Z" fill="#7210FF"/>
</g>
</g>
<path opacity="0.04" d="M99.1834 344.433H67.6445V373.073H99.1834V344.433Z" stroke="#7210FF" stroke-miterlimit="10" stroke-linecap="round" stroke-linejoin="round"/>
<path opacity="0.04" d="M99.1834 336.181H67.6445V348.638H99.1834V336.181Z" fill="#7210FF" stroke="#7210FF" stroke-miterlimit="10" stroke-linecap="round" stroke-linejoin="round"/>
<path opacity="0.1" d="M154.533 69.5176H122.994V98.1583H154.533V69.5176Z" fill="#7210FF"/>
<mask id="mask20_3665_12016" style="mask-type:luminance" maskUnits="userSpaceOnUse" x="122" y="69" width="33" height="30">
<path d="M154.533 69.5186H122.994V98.1592H154.533V69.5186Z" fill="white"/>
</mask>
<g mask="url(#mask20_3665_12016)">
<g opacity="0.6">
<path opacity="0.2" d="M122.994 91.38V97.0485L154.533 71.4337V69.5186H149.913" fill="#7210FF"/>
<path opacity="0.2" d="M154.532 83.3443V77.6758L129.311 98.1594H136.288" fill="#7210FF"/>
</g>
</g>
<path opacity="0.04" d="M154.533 69.5176H122.994V98.1583H154.533V69.5176Z" stroke="#7210FF" stroke-miterlimit="10" stroke-linecap="round" stroke-linejoin="round"/>
<path opacity="0.04" d="M154.535 61.2656H122.996V73.7232H154.535V61.2656Z" fill="#7210FF" stroke="#7210FF" stroke-miterlimit="10" stroke-linecap="round" stroke-linejoin="round"/>
<path opacity="0.1" d="M199.621 69.5176H168.082V98.1583H199.621V69.5176Z" fill="#7210FF"/>
<mask id="mask21_3665_12016" style="mask-type:luminance" maskUnits="userSpaceOnUse" x="168" y="69" width="32" height="30">
<path d="M199.621 69.5186H168.082V98.1592H199.621V69.5186Z" fill="white"/>
</mask>
<g mask="url(#mask21_3665_12016)">
<g opacity="0.6">
<path opacity="0.2" d="M199.621 71.4337V69.5186H195.001L168.082 91.38V97.0485" fill="#7210FF"/>
<path opacity="0.2" d="M199.62 83.3443V77.6758L174.398 98.1594H181.376" fill="#7210FF"/>
</g>
</g>
<path opacity="0.04" d="M199.621 69.5176H168.082V98.1583H199.621V69.5176Z" stroke="#7210FF" stroke-miterlimit="10" stroke-linecap="round" stroke-linejoin="round"/>
<path opacity="0.04" d="M199.621 61.2656H168.082V73.7232H199.621V61.2656Z" fill="#7210FF" stroke="#7210FF" stroke-miterlimit="10" stroke-linecap="round" stroke-linejoin="round"/>
<path opacity="0.1" d="M244.707 69.5176H213.168V98.1583H244.707V69.5176Z" fill="#7210FF"/>
<mask id="mask22_3665_12016" style="mask-type:luminance" maskUnits="userSpaceOnUse" x="213" y="69" width="32" height="30">
<path d="M244.707 69.5186H213.168V98.1592H244.707V69.5186Z" fill="white"/>
</mask>
<g mask="url(#mask22_3665_12016)">
<g opacity="0.6">
<path opacity="0.2" d="M213.168 91.38V97.0485L244.707 71.4337V69.5186H240.087" fill="#7210FF"/>
<path opacity="0.2" d="M219.484 98.1594H226.462L244.706 83.3443V77.6758" fill="#7210FF"/>
</g>
</g>
<path opacity="0.04" d="M244.707 69.5176H213.168V98.1583H244.707V69.5176Z" stroke="#7210FF" stroke-miterlimit="10" stroke-linecap="round" stroke-linejoin="round"/>
<path opacity="0.04" d="M244.707 61.2656H213.168V73.7232H244.707V61.2656Z" fill="#7210FF" stroke="#7210FF" stroke-miterlimit="10" stroke-linecap="round" stroke-linejoin="round"/>
<path opacity="0.1" d="M154.533 124.5H122.994V153.141H154.533V124.5Z" fill="#7210FF"/>
<mask id="mask23_3665_12016" style="mask-type:luminance" maskUnits="userSpaceOnUse" x="122" y="124" width="33" height="30">
<path d="M154.533 124.501H122.994V153.142H154.533V124.501Z" fill="white"/>
</mask>
<g mask="url(#mask23_3665_12016)">
<g opacity="0.6">
<path opacity="0.2" d="M122.994 146.364V152.031L154.533 126.416V124.501H149.913" fill="#7210FF"/>
<path opacity="0.2" d="M129.311 153.142H136.288L154.532 138.327V132.658" fill="#7210FF"/>
</g>
</g>
<path opacity="0.04" d="M154.533 124.5H122.994V153.141H154.533V124.5Z" stroke="#7210FF" stroke-miterlimit="10" stroke-linecap="round" stroke-linejoin="round"/>
<path opacity="0.04" d="M154.535 116.248H122.996V128.706H154.535V116.248Z" fill="#7210FF" stroke="#7210FF" stroke-miterlimit="10" stroke-linecap="round" stroke-linejoin="round"/>
<path opacity="0.1" d="M199.621 124.5H168.082V153.141H199.621V124.5Z" fill="#7210FF"/>
<mask id="mask24_3665_12016" style="mask-type:luminance" maskUnits="userSpaceOnUse" x="168" y="124" width="32" height="30">
<path d="M199.621 124.501H168.082V153.142H199.621V124.501Z" fill="white"/>
</mask>
<g mask="url(#mask24_3665_12016)">
<g opacity="0.6">
<path opacity="0.2" d="M168.082 146.364V152.031L199.621 126.416V124.501H195.001" fill="#7210FF"/>
<path opacity="0.2" d="M174.398 153.142H181.376L199.62 138.327V132.658" fill="#7210FF"/>
</g>
</g>
<path opacity="0.04" d="M199.621 124.5H168.082V153.141H199.621V124.5Z" stroke="#7210FF" stroke-miterlimit="10" stroke-linecap="round" stroke-linejoin="round"/>
<path opacity="0.04" d="M199.621 116.248H168.082V128.706H199.621V116.248Z" fill="#7210FF" stroke="#7210FF" stroke-miterlimit="10" stroke-linecap="round" stroke-linejoin="round"/>
<path opacity="0.1" d="M244.707 124.5H213.168V153.141H244.707V124.5Z" fill="#7210FF"/>
<mask id="mask25_3665_12016" style="mask-type:luminance" maskUnits="userSpaceOnUse" x="213" y="124" width="32" height="30">
<path d="M244.707 124.501H213.168V153.142H244.707V124.501Z" fill="white"/>
</mask>
<g mask="url(#mask25_3665_12016)">
<g opacity="0.6">
<path opacity="0.2" d="M213.168 146.364V152.031L244.707 126.416V124.501H240.087" fill="#7210FF"/>
<path opacity="0.2" d="M244.706 138.327V132.658L219.484 153.142H226.462" fill="#7210FF"/>
</g>
</g>
<path opacity="0.04" d="M244.707 124.5H213.168V153.141H244.707V124.5Z" stroke="#7210FF" stroke-miterlimit="10" stroke-linecap="round" stroke-linejoin="round"/>
<path opacity="0.04" d="M244.707 116.248H213.168V128.706H244.707V116.248Z" fill="#7210FF" stroke="#7210FF" stroke-miterlimit="10" stroke-linecap="round" stroke-linejoin="round"/>
<path opacity="0.1" d="M154.533 179.484H122.994V208.125H154.533V179.484Z" fill="#7210FF"/>
<mask id="mask26_3665_12016" style="mask-type:luminance" maskUnits="userSpaceOnUse" x="122" y="179" width="33" height="30">
<path d="M154.533 179.484H122.994V208.125H154.533V179.484Z" fill="white"/>
</mask>
<g mask="url(#mask26_3665_12016)">
<g opacity="0.6">
<path opacity="0.2" d="M122.994 201.347V207.013L154.533 181.4V179.484H149.913" fill="#7210FF"/>
<path opacity="0.2" d="M154.532 193.31V187.642L129.311 208.125H136.288" fill="#7210FF"/>
</g>
</g>
<path opacity="0.04" d="M154.533 179.484H122.994V208.125H154.533V179.484Z" stroke="#7210FF" stroke-miterlimit="10" stroke-linecap="round" stroke-linejoin="round"/>
<path opacity="0.04" d="M154.533 171.232H122.994V183.69H154.533V171.232Z" fill="#7210FF" stroke="#7210FF" stroke-miterlimit="10" stroke-linecap="round" stroke-linejoin="round"/>
<path opacity="0.1" d="M199.621 179.484H168.082V208.125H199.621V179.484Z" fill="#7210FF"/>
<mask id="mask27_3665_12016" style="mask-type:luminance" maskUnits="userSpaceOnUse" x="168" y="179" width="32" height="30">
<path d="M199.621 179.484H168.082V208.125H199.621V179.484Z" fill="white"/>
</mask>
<g mask="url(#mask27_3665_12016)">
<g opacity="0.6">
<path opacity="0.2" d="M168.082 201.347V207.013L199.621 181.4V179.484H195.001" fill="#7210FF"/>
<path opacity="0.2" d="M199.62 193.31V187.642L174.398 208.125H181.376" fill="#7210FF"/>
</g>
</g>
<path opacity="0.04" d="M199.621 179.484H168.082V208.125H199.621V179.484Z" stroke="#7210FF" stroke-miterlimit="10" stroke-linecap="round" stroke-linejoin="round"/>
<path opacity="0.04" d="M199.621 171.232H168.082V183.69H199.621V171.232Z" fill="#7210FF" stroke="#7210FF" stroke-miterlimit="10" stroke-linecap="round" stroke-linejoin="round"/>
<path opacity="0.1" d="M244.707 179.483H213.168V208.124H244.707V179.483Z" fill="#7210FF"/>
<mask id="mask28_3665_12016" style="mask-type:luminance" maskUnits="userSpaceOnUse" x="213" y="179" width="32" height="30">
<path d="M244.707 179.483H213.168V208.124H244.707V179.483Z" fill="white"/>
</mask>
<g mask="url(#mask28_3665_12016)">
<g opacity="0.6">
<path opacity="0.2" d="M213.168 201.346V207.012L244.707 181.399V179.483H240.087" fill="#7210FF"/>
<path opacity="0.2" d="M219.484 208.124H226.462L244.706 193.309V187.641" fill="#7210FF"/>
</g>
</g>
<path opacity="0.04" d="M244.707 179.483H213.168V208.124H244.707V179.483Z" stroke="#7210FF" stroke-miterlimit="10" stroke-linecap="round" stroke-linejoin="round"/>
<path opacity="0.04" d="M244.707 171.232H213.168V183.69H244.707V171.232Z" fill="#7210FF" stroke="#7210FF" stroke-miterlimit="10" stroke-linecap="round" stroke-linejoin="round"/>
<path opacity="0.1" d="M154.533 234.467H122.994V263.107H154.533V234.467Z" fill="#7210FF"/>
<mask id="mask29_3665_12016" style="mask-type:luminance" maskUnits="userSpaceOnUse" x="122" y="234" width="33" height="30">
<path d="M154.533 234.467H122.994V263.107H154.533V234.467Z" fill="white"/>
</mask>
<g mask="url(#mask29_3665_12016)">
<g opacity="0.6">
<path opacity="0.2" d="M149.913 234.467L122.994 256.328V261.995L154.533 236.382V234.467H149.913Z" fill="#7210FF"/>
<path opacity="0.2" d="M136.288 263.108L154.532 248.293V242.624L129.311 263.108H136.288Z" fill="#7210FF"/>
</g>
</g>
<path opacity="0.04" d="M154.533 234.467H122.994V263.107H154.533V234.467Z" stroke="#7210FF" stroke-miterlimit="10" stroke-linecap="round" stroke-linejoin="round"/>
<path opacity="0.04" d="M154.533 226.215H122.994V238.672H154.533V226.215Z" fill="#7210FF" stroke="#7210FF" stroke-miterlimit="10" stroke-linecap="round" stroke-linejoin="round"/>
<path opacity="0.1" d="M199.621 234.467H168.082V263.107H199.621V234.467Z" fill="#7210FF"/>
<mask id="mask30_3665_12016" style="mask-type:luminance" maskUnits="userSpaceOnUse" x="168" y="234" width="32" height="30">
<path d="M199.621 234.467H168.082V263.107H199.621V234.467Z" fill="white"/>
</mask>
<g mask="url(#mask30_3665_12016)">
<g opacity="0.6">
<path opacity="0.2" d="M168.082 256.328V261.995L199.621 236.382V234.467H195.001" fill="#7210FF"/>
<path opacity="0.2" d="M199.62 248.293V242.624L174.398 263.108H181.376" fill="#7210FF"/>
</g>
</g>
<path opacity="0.04" d="M199.621 234.467H168.082V263.107H199.621V234.467Z" stroke="#7210FF" stroke-miterlimit="10" stroke-linecap="round" stroke-linejoin="round"/>
<path opacity="0.04" d="M199.621 226.215H168.082V238.672H199.621V226.215Z" fill="#7210FF" stroke="#7210FF" stroke-miterlimit="10" stroke-linecap="round" stroke-linejoin="round"/>
<path opacity="0.1" d="M244.707 234.467H213.168V263.107H244.707V234.467Z" fill="#7210FF"/>
<mask id="mask31_3665_12016" style="mask-type:luminance" maskUnits="userSpaceOnUse" x="213" y="234" width="32" height="30">
<path d="M244.707 234.467H213.168V263.107H244.707V234.467Z" fill="white"/>
</mask>
<g mask="url(#mask31_3665_12016)">
<g opacity="0.6">
<path opacity="0.2" d="M213.168 256.328V261.995L244.707 236.382V234.467H240.087" fill="#7210FF"/>
<path opacity="0.2" d="M219.484 263.108H226.462L244.706 248.293V242.624" fill="#7210FF"/>
</g>
</g>
<path opacity="0.04" d="M244.707 234.467H213.168V263.107H244.707V234.467Z" stroke="#7210FF" stroke-miterlimit="10" stroke-linecap="round" stroke-linejoin="round"/>
<path opacity="0.04" d="M244.707 226.215H213.168V238.672H244.707V226.215Z" fill="#7210FF" stroke="#7210FF" stroke-miterlimit="10" stroke-linecap="round" stroke-linejoin="round"/>
<path opacity="0.1" d="M154.535 289.449H122.996V318.09H154.535V289.449Z" fill="#7210FF"/>
<mask id="mask32_3665_12016" style="mask-type:luminance" maskUnits="userSpaceOnUse" x="122" y="289" width="33" height="30">
<path d="M154.535 289.449H122.996V318.09H154.535V289.449Z" fill="white"/>
</mask>
<g mask="url(#mask32_3665_12016)">
<g opacity="0.6">
<path opacity="0.2" d="M149.915 289.449L122.996 311.311V316.979L154.535 291.364V289.449H149.915Z" fill="#7210FF"/>
<path opacity="0.2" d="M136.29 318.09L154.534 303.275V297.606L129.312 318.09H136.29Z" fill="#7210FF"/>
</g>
</g>
<path opacity="0.04" d="M154.535 289.449H122.996V318.09H154.535V289.449Z" stroke="#7210FF" stroke-miterlimit="10" stroke-linecap="round" stroke-linejoin="round"/>
<path opacity="0.04" d="M154.535 281.197H122.996V293.655H154.535V281.197Z" fill="#7210FF" stroke="#7210FF" stroke-miterlimit="10" stroke-linecap="round" stroke-linejoin="round"/>
<path opacity="0.1" d="M199.621 289.449H168.082V318.09H199.621V289.449Z" fill="#7210FF"/>
<mask id="mask33_3665_12016" style="mask-type:luminance" maskUnits="userSpaceOnUse" x="168" y="289" width="32" height="30">
<path d="M199.621 289.449H168.082V318.09H199.621V289.449Z" fill="white"/>
</mask>
<g mask="url(#mask33_3665_12016)">
<g opacity="0.6">
<path opacity="0.2" d="M195.001 289.449L168.082 311.311V316.979L199.621 291.364V289.449H195.001Z" fill="#7210FF"/>
<path opacity="0.2" d="M181.376 318.09L199.62 303.275V297.606L174.398 318.09H181.376Z" fill="#7210FF"/>
</g>
</g>
<path opacity="0.04" d="M199.621 289.449H168.082V318.09H199.621V289.449Z" stroke="#7210FF" stroke-miterlimit="10" stroke-linecap="round" stroke-linejoin="round"/>
<path opacity="0.04" d="M199.621 281.197H168.082V293.655H199.621V281.197Z" fill="#7210FF" stroke="#7210FF" stroke-miterlimit="10" stroke-linecap="round" stroke-linejoin="round"/>
<path opacity="0.1" d="M244.707 289.449H213.168V318.09H244.707V289.449Z" fill="#7210FF"/>
<mask id="mask34_3665_12016" style="mask-type:luminance" maskUnits="userSpaceOnUse" x="213" y="289" width="32" height="30">
<path d="M244.707 289.449H213.168V318.09H244.707V289.449Z" fill="white"/>
</mask>
<g mask="url(#mask34_3665_12016)">
<g opacity="0.6">
<path opacity="0.2" d="M244.707 291.364V289.449H240.087L213.168 311.311V316.979" fill="#7210FF"/>
<path opacity="0.2" d="M219.484 318.09H226.462L244.706 303.275V297.606" fill="#7210FF"/>
</g>
</g>
<path opacity="0.04" d="M244.707 289.449H213.168V318.09H244.707V289.449Z" stroke="#7210FF" stroke-miterlimit="10" stroke-linecap="round" stroke-linejoin="round"/>
<path opacity="0.04" d="M244.707 281.197H213.168V293.655H244.707V281.197Z" fill="#7210FF" stroke="#7210FF" stroke-miterlimit="10" stroke-linecap="round" stroke-linejoin="round"/>
<path opacity="0.1" d="M154.535 344.433H122.996V373.073H154.535V344.433Z" fill="#7210FF"/>
<mask id="mask35_3665_12016" style="mask-type:luminance" maskUnits="userSpaceOnUse" x="122" y="344" width="33" height="30">
<path d="M154.535 344.433H122.996V373.073H154.535V344.433Z" fill="white"/>
</mask>
<g mask="url(#mask35_3665_12016)">
<g opacity="0.6">
<path opacity="0.2" d="M149.915 344.433L122.996 366.294V371.961L154.535 346.348V344.433H149.915Z" fill="#7210FF"/>
<path opacity="0.2" d="M136.29 373.073L154.534 358.257V352.59L129.312 373.073H136.29Z" fill="#7210FF"/>
</g>
</g>
<path opacity="0.04" d="M154.535 344.433H122.996V373.073H154.535V344.433Z" stroke="#7210FF" stroke-miterlimit="10" stroke-linecap="round" stroke-linejoin="round"/>
<path opacity="0.04" d="M154.535 336.181H122.996V348.638H154.535V336.181Z" fill="#7210FF" stroke="#7210FF" stroke-miterlimit="10" stroke-linecap="round" stroke-linejoin="round"/>
<path opacity="0.1" d="M199.621 344.433H168.082V373.073H199.621V344.433Z" fill="#7210FF"/>
<mask id="mask36_3665_12016" style="mask-type:luminance" maskUnits="userSpaceOnUse" x="168" y="344" width="32" height="30">
<path d="M199.621 344.433H168.082V373.073H199.621V344.433Z" fill="white"/>
</mask>
<g mask="url(#mask36_3665_12016)">
<g opacity="0.6">
<path opacity="0.2" d="M195.001 344.433L168.082 366.294V371.961L199.621 346.348V344.433H195.001Z" fill="#7210FF"/>
<path opacity="0.2" d="M181.376 373.073L199.62 358.257V352.59L174.398 373.073H181.376Z" fill="#7210FF"/>
</g>
</g>
<path opacity="0.04" d="M199.621 344.433H168.082V373.073H199.621V344.433Z" stroke="#7210FF" stroke-miterlimit="10" stroke-linecap="round" stroke-linejoin="round"/>
<path opacity="0.04" d="M199.621 336.181H168.082V348.638H199.621V336.181Z" fill="#7210FF" stroke="#7210FF" stroke-miterlimit="10" stroke-linecap="round" stroke-linejoin="round"/>
<path opacity="0.1" d="M244.707 344.433H213.168V373.073H244.707V344.433Z" fill="#7210FF"/>
<mask id="mask37_3665_12016" style="mask-type:luminance" maskUnits="userSpaceOnUse" x="213" y="344" width="32" height="30">
<path d="M244.707 344.433H213.168V373.073H244.707V344.433Z" fill="white"/>
</mask>
<g mask="url(#mask37_3665_12016)">
<g opacity="0.6">
<path opacity="0.2" d="M240.087 344.433L213.168 366.294V371.961L244.707 346.348V344.433H240.087Z" fill="#7210FF"/>
<path opacity="0.2" d="M226.462 373.073L244.706 358.257V352.59L219.484 373.073H226.462Z" fill="#7210FF"/>
</g>
</g>
<path opacity="0.04" d="M244.707 344.433H213.168V373.073H244.707V344.433Z" stroke="#7210FF" stroke-miterlimit="10" stroke-linecap="round" stroke-linejoin="round"/>
<path opacity="0.04" d="M244.707 336.181H213.168V348.638H244.707V336.181Z" fill="#7210FF" stroke="#7210FF" stroke-miterlimit="10" stroke-linecap="round" stroke-linejoin="round"/>
<path opacity="0.1" d="M244.304 389.679H121.443V405.265H244.304V389.679Z" fill="#7210FF" stroke="#7210FF" stroke-miterlimit="10" stroke-linecap="round" stroke-linejoin="round"/>
<path opacity="0.04" d="M244.304 385.171H121.443V400.758H244.304V385.171Z" fill="#7210FF" stroke="#7210FF" stroke-miterlimit="10" stroke-linecap="round" stroke-linejoin="round"/>
<path opacity="0.1" d="M72.8486 1H5.91602V42.2589H72.8486V1Z" fill="#7210FF" stroke="#7210FF" stroke-miterlimit="10" stroke-linecap="round" stroke-linejoin="round"/>
<path opacity="0.04" d="M72.8484 1H49.6895V42.2589H72.8484V1Z" fill="#7210FF" stroke="#7210FF" stroke-miterlimit="10" stroke-linecap="round" stroke-linejoin="round"/>
<path opacity="0.1" d="M242.472 11.0859H214.965V42.2594H242.472V11.0859Z" fill="#7210FF" stroke="#7210FF" stroke-miterlimit="10" stroke-linecap="round" stroke-linejoin="round"/>
<path opacity="0.4" d="M260.543 22.54H0V42.2586H260.543V22.54Z" fill="#7210FF"/>
<path opacity="0.04" d="M260.544 22.54H104.74V42.2586H260.544V22.54Z" fill="#7210FF" stroke="#7210FF" stroke-miterlimit="10" stroke-linecap="round" stroke-linejoin="round"/>
<path opacity="0.04" d="M111.443 22.54V30.8216" stroke="#7210FF" stroke-width="0.75" stroke-miterlimit="10" stroke-linecap="round" stroke-linejoin="round"/>
<path opacity="0.04" d="M115.707 22.54V30.8216" stroke="#7210FF" stroke-width="0.75" stroke-miterlimit="10" stroke-linecap="round" stroke-linejoin="round"/>
<path opacity="0.04" d="M115.707 33.0537V39.3792" stroke="#7210FF" stroke-width="0.75" stroke-miterlimit="10" stroke-linecap="round" stroke-linejoin="round"/>
<path opacity="0.04" d="M119.969 22.54V30.8216" stroke="#7210FF" stroke-width="0.75" stroke-miterlimit="10" stroke-linecap="round" stroke-linejoin="round"/>
<path opacity="0.04" d="M119.969 33.4121V39.2756" stroke="#7210FF" stroke-width="0.75" stroke-miterlimit="10" stroke-linecap="round" stroke-linejoin="round"/>
<path opacity="0.04" d="M123.947 33.4121V37.1065" stroke="#7210FF" stroke-width="0.75" stroke-miterlimit="10" stroke-linecap="round" stroke-linejoin="round"/>
<path opacity="0.04" d="M124.232 22.54V30.8216" stroke="#7210FF" stroke-width="0.75" stroke-miterlimit="10" stroke-linecap="round" stroke-linejoin="round"/>
<path opacity="0.04" d="M129.061 28.7217V30.822" stroke="#7210FF" stroke-width="0.75" stroke-miterlimit="10" stroke-linecap="round" stroke-linejoin="round"/>
<path opacity="0.04" d="M129.348 22.54V27.2485" stroke="#7210FF" stroke-width="0.75" stroke-miterlimit="10" stroke-linecap="round" stroke-linejoin="round"/>
<path opacity="0.04" d="M111.443 32.4863V37.3898" stroke="#7210FF" stroke-width="0.75" stroke-miterlimit="10" stroke-linecap="round" stroke-linejoin="round"/>
</g>
<path d="M306.054 396.731C305.834 396.731 305.619 396.619 305.497 396.416C305.31 396.109 305.409 395.708 305.716 395.522L312.811 391.228L305.716 386.935C305.409 386.748 305.31 386.348 305.497 386.041C305.683 385.733 306.083 385.635 306.391 385.821L315.325 391.228L306.391 396.636C306.285 396.7 306.169 396.731 306.054 396.731Z" fill="#7210FF"/>
<path d="M318.414 396.731C318.193 396.731 317.978 396.619 317.856 396.416C317.67 396.109 317.768 395.708 318.076 395.522L325.17 391.228L318.076 386.935C317.768 386.748 317.67 386.348 317.856 386.041C318.042 385.733 318.442 385.635 318.75 385.821L327.685 391.228L318.75 396.636C318.645 396.7 318.528 396.731 318.414 396.731Z" fill="#7210FF"/>
<path d="M293.695 396.731C293.474 396.731 293.259 396.619 293.137 396.416C292.951 396.109 293.049 395.708 293.357 395.522L300.451 391.228L293.357 386.935C293.049 386.748 292.951 386.348 293.137 386.041C293.323 385.733 293.724 385.635 294.031 385.821L302.966 391.228L294.031 396.636C293.926 396.7 293.81 396.731 293.695 396.731Z" fill="#7210FF"/>
<path opacity="0.1" d="M113.028 157.104L119.527 156.732C125.848 156.732 130.971 161.856 130.971 168.177V181.829C130.971 188.15 125.848 193.274 119.527 193.274L114.718 193.286L116.509 206.414C116.616 207.188 115.762 207.727 115.108 207.298L96.7726 193.274H72.5458C66.2253 193.274 61.1016 188.15 61.1016 181.829V168.177C61.1016 161.856 66.2253 156.732 72.5458 156.732L101.62 157.104H113.028Z" fill="#7210FF"/>
<path d="M115.608 208.102C115.312 208.102 115.015 208.015 114.752 207.842L114.714 207.815L96.553 193.924H72.5465C65.8772 193.924 60.4512 188.499 60.4512 181.829V168.176C60.4512 161.507 65.8772 156.081 72.5465 156.081H101.62C101.98 156.081 102.271 156.373 102.271 156.732C102.271 157.092 101.98 157.383 101.62 157.383H72.5465C66.5952 157.383 61.7534 162.225 61.7534 168.176V181.829C61.7534 187.78 66.5952 192.622 72.5465 192.622H96.9939L115.481 206.763C115.596 206.83 115.697 206.788 115.747 206.756C115.8 206.723 115.885 206.646 115.865 206.502L113.973 192.637L119.526 192.622C125.479 192.622 130.321 187.78 130.321 181.829V168.176C130.321 162.225 125.479 157.383 119.528 157.383H113.029C112.669 157.383 112.378 157.092 112.378 156.732C112.378 156.373 112.669 156.081 113.029 156.081H119.528C126.198 156.081 131.624 161.507 131.624 168.176V181.829C131.624 188.498 126.198 193.924 119.528 193.924L115.465 193.935L117.156 206.325C117.24 206.939 116.967 207.526 116.443 207.858C116.184 208.02 115.896 208.102 115.608 208.102Z" fill="#7210FF"/>
<path d="M114.924 179.762C112.511 179.762 110.549 177.799 110.549 175.387C110.549 172.974 112.511 171.012 114.924 171.012C117.336 171.012 119.299 172.974 119.299 175.387C119.299 177.799 117.336 179.762 114.924 179.762ZM114.924 172.314C113.229 172.314 111.851 173.692 111.851 175.387C111.851 177.081 113.23 178.459 114.924 178.459C116.618 178.459 117.996 177.081 117.996 175.387C117.996 173.692 116.618 172.314 114.924 172.314Z" fill="#7210FF"/>
<path d="M96.1854 179.762C93.7731 179.762 91.8105 177.799 91.8105 175.387C91.8105 172.974 93.7731 171.012 96.1854 171.012C98.5977 171.012 100.56 172.974 100.56 175.387C100.56 177.799 98.5977 179.762 96.1854 179.762ZM96.1854 172.314C94.4911 172.314 93.1127 173.692 93.1127 175.387C93.1127 177.081 94.4911 178.459 96.1854 178.459C97.8797 178.459 99.2581 177.081 99.2581 175.387C99.2582 173.692 97.8797 172.314 96.1854 172.314Z" fill="#7210FF"/>
<path d="M77.1503 179.762C74.7379 179.762 72.7754 177.799 72.7754 175.387C72.7754 172.974 74.7379 171.012 77.1503 171.012C79.5626 171.012 81.5252 172.974 81.5252 175.387C81.5252 177.799 79.5627 179.762 77.1503 179.762ZM77.1503 172.314C75.456 172.314 74.0776 173.692 74.0776 175.387C74.0776 177.081 75.456 178.459 77.1503 178.459C78.8445 178.459 80.223 177.081 80.223 175.387C80.223 173.692 78.8447 172.314 77.1503 172.314Z" fill="#7210FF"/>
<path opacity="0.1" d="M95.215 422.411C74.6221 417 53.9966 367.564 47.8438 347.843C70.3315 345.026 101.879 386.894 95.215 422.411Z" fill="#7210FF"/>
<path d="M95.712 423.215L95.0495 423.041C90.1255 421.747 84.8931 417.924 79.498 411.676C74.9337 406.391 70.2387 399.37 65.5434 390.807C57.0196 375.262 50.3466 358.052 47.2221 348.037L46.9902 347.294L47.7627 347.197C56.8842 346.053 68.0852 351.617 77.7258 362.077C84.762 369.711 90.2458 379.06 93.5845 389.113C97.3007 400.303 98.0848 411.864 95.8522 422.545L95.712 423.215ZM48.7046 348.409C55.7044 370.427 75.5656 415.648 94.7169 421.592C99.394 397.814 88.5591 375.752 76.7685 362.959C67.6895 353.109 57.2692 347.724 48.7046 348.409Z" fill="#7210FF"/>
<path d="M96.9971 440.111C96.6605 440.111 96.3753 439.851 96.3488 439.51C93.6689 405.207 88.2749 384.499 64.87 359.595C64.6238 359.333 64.6365 358.921 64.8985 358.675C65.1605 358.428 65.5725 358.441 65.8189 358.704C77.2631 370.881 84.5047 382.024 89.299 394.834C93.6092 406.352 96.1058 419.683 97.6469 439.409C97.6749 439.767 97.4071 440.081 97.0486 440.109C97.0313 440.11 97.0141 440.111 96.9971 440.111Z" fill="#7210FF"/>
<path opacity="0.1" d="M116.855 415.53C136.689 412.844 157.541 385.62 163.289 366.672C142.63 361.464 114.711 381.627 116.855 415.53Z" fill="#7210FF"/>
<path d="M116.249 416.27L116.205 415.572C115.657 406.906 117.006 398.765 120.215 391.376C123.094 384.747 127.476 378.866 132.887 374.368C142.153 366.666 153.577 363.554 163.448 366.042L164.11 366.209L163.912 366.862C160.923 376.714 154.168 388.217 145.842 397.631C136.363 408.35 126.099 414.936 116.942 416.176L116.249 416.27ZM156.531 366.502C148.805 366.502 140.649 369.609 133.72 375.369C122.564 384.643 116.662 398.975 117.464 414.781C126.136 413.347 135.837 406.979 144.867 396.769C152.889 387.698 159.426 376.678 162.46 367.145C160.533 366.714 158.546 366.502 156.531 366.502Z" fill="#7210FF"/>
<path d="M112.394 439.913C112.377 439.913 112.36 439.913 112.342 439.911C111.984 439.883 111.716 439.569 111.744 439.211C112.506 429.541 113.904 422.459 116.569 414.766C119.683 405.78 123.695 398.529 129.195 391.946C134.434 385.676 141.091 379.96 150.146 373.958C150.445 373.76 150.849 373.841 151.048 374.141C151.247 374.441 151.165 374.845 150.865 375.043C132.972 386.905 123.701 398.162 117.8 415.192C115.173 422.773 113.795 429.762 113.042 439.313C113.016 439.654 112.73 439.913 112.394 439.913Z" fill="#7210FF"/>
<path opacity="0.1" d="M103.267 421.199C98.4266 414.422 83.6627 387.792 91.5288 353.786C96.2678 333.299 107.503 320.629 119.846 318.45C121.298 334.424 122.272 343.941 121.238 365.283C120.391 382.77 113.674 407.07 103.267 421.199Z" fill="#7210FF"/>
<path d="M104.038 439.913C103.702 439.913 103.416 439.654 103.39 439.313C102.154 423.33 101.949 403.131 102.843 385.281C103.628 369.582 105.652 347.688 110.83 332.537C110.946 332.197 111.316 332.016 111.657 332.132C111.997 332.248 112.179 332.618 112.062 332.958C102.8 360.059 102.624 412.514 104.688 439.212C104.716 439.571 104.448 439.884 104.089 439.912C104.072 439.913 104.055 439.913 104.038 439.913Z" fill="#7210FF"/>
<path d="M103.259 422.308L102.737 421.578C101.62 420.013 95.849 411.515 92.0063 397.88C90.1448 391.275 89.0368 384.5 88.7133 377.744C88.327 369.677 89.0609 361.567 90.8944 353.64C93.1914 343.71 97.147 335.134 102.333 328.839C107.353 322.746 113.37 318.932 119.733 317.81L120.43 317.687L120.642 320.016C121.995 334.857 122.889 344.661 121.888 365.315C121.071 382.178 114.593 406.922 103.791 421.586L103.259 422.308ZM119.263 319.226C106.879 321.824 96.5344 335.036 92.1631 353.934C88.8163 368.402 89.1852 383.069 93.2597 397.527C96.6278 409.479 101.481 417.394 103.279 420.071C113.606 405.533 119.794 381.638 120.587 365.252C121.584 344.688 120.693 334.92 119.346 320.134L119.263 319.226Z" fill="#7210FF"/>
<path opacity="0.1" d="M370.149 104.651H151.662C146.7 104.651 142.678 108.674 142.678 113.636V128.825H379.133V113.636C379.133 108.674 375.111 104.651 370.149 104.651Z" fill="#7210FF"/>
<path d="M198.155 120.989C200.379 120.989 202.182 119.187 202.182 116.963C202.182 114.739 200.379 112.937 198.155 112.937C195.932 112.937 194.129 114.739 194.129 116.963C194.129 119.187 195.932 120.989 198.155 120.989Z" fill="#7210FF"/>
<path d="M180.942 120.989C183.166 120.989 184.969 119.187 184.969 116.963C184.969 114.739 183.166 112.937 180.942 112.937C178.719 112.937 176.916 114.739 176.916 116.963C176.916 119.187 178.719 120.989 180.942 120.989Z" fill="#7210FF"/>
<path d="M198.156 121.641C195.577 121.641 193.479 119.543 193.479 116.964C193.479 114.384 195.577 112.286 198.156 112.286C200.735 112.286 202.833 114.384 202.833 116.964C202.833 119.543 200.735 121.641 198.156 121.641ZM198.156 113.588C196.295 113.588 194.781 115.103 194.781 116.964C194.781 118.825 196.295 120.339 198.156 120.339C200.017 120.339 201.531 118.825 201.531 116.964C201.531 115.103 200.017 113.588 198.156 113.588Z" fill="#7210FF"/>
<path d="M180.943 121.641C178.364 121.641 176.266 119.543 176.266 116.964C176.266 114.384 178.364 112.286 180.943 112.286C183.522 112.286 185.621 114.384 185.621 116.964C185.621 119.543 183.522 121.641 180.943 121.641ZM180.943 113.588C179.082 113.588 177.568 115.103 177.568 116.964C177.568 118.825 179.082 120.339 180.943 120.339C182.804 120.339 184.318 118.825 184.318 116.964C184.318 115.103 182.804 113.588 180.943 113.588Z" fill="#7210FF"/>
<path d="M163.525 121.641C160.946 121.641 158.848 119.543 158.848 116.964C158.848 114.384 160.946 112.286 163.525 112.286C166.104 112.286 168.203 114.384 168.203 116.964C168.203 119.543 166.104 121.641 163.525 121.641ZM163.525 113.588C161.664 113.588 160.15 115.103 160.15 116.964C160.15 118.825 161.664 120.339 163.525 120.339C165.386 120.339 166.9 118.825 166.9 116.964C166.9 115.103 165.386 113.588 163.525 113.588Z" fill="#7210FF"/>
<path d="M280.519 336.308H280.518L152.032 336.229C146.515 336.229 142.027 331.994 142.027 326.789V301.841C142.027 301.481 142.319 301.189 142.678 301.189C143.038 301.189 143.33 301.481 143.33 301.841V326.789C143.33 331.276 147.233 334.926 152.032 334.926L280.519 335.006C280.879 335.006 281.17 335.298 281.17 335.658C281.17 336.017 280.878 336.308 280.519 336.308Z" fill="#7210FF"/>
<path d="M142.678 245.273C142.319 245.273 142.027 244.981 142.027 244.622V113.44C142.027 108.235 146.515 104 152.032 104L369.781 104.135C375.297 104.135 379.785 108.37 379.785 113.575V156.418C379.785 156.777 379.494 157.069 379.134 157.069C378.774 157.069 378.483 156.777 378.483 156.418V113.575C378.483 109.088 374.579 105.437 369.781 105.437L152.032 105.302C147.234 105.302 143.33 108.953 143.33 113.44V244.622C143.33 244.981 143.038 245.273 142.678 245.273Z" fill="#7210FF"/>
<path d="M283.366 336.31H283.365L280.518 336.308C280.158 336.308 279.867 336.016 279.867 335.657C279.867 335.297 280.159 335.006 280.518 335.006H280.519L283.366 335.008C283.726 335.008 284.017 335.3 284.017 335.659C284.017 336.019 283.725 336.31 283.366 336.31Z" fill="#7210FF"/>
<path d="M379.134 129.611H379.134L142.678 129.476C142.319 129.476 142.027 129.184 142.027 128.825C142.028 128.465 142.319 128.174 142.678 128.174H142.679L379.135 128.309C379.494 128.309 379.785 128.601 379.785 128.96C379.785 129.32 379.494 129.611 379.134 129.611Z" fill="#7210FF"/>
<path d="M166.6 256.654C170.008 256.654 172.77 253.891 172.77 250.484C172.77 247.076 170.008 244.313 166.6 244.313C163.192 244.313 160.43 247.076 160.43 250.484C160.43 253.891 163.192 256.654 166.6 256.654Z" fill="#7210FF"/>
<path d="M166.599 260.703C160.849 260.703 156.063 265.12 155.602 270.851H177.596C177.135 265.12 172.349 260.703 166.599 260.703Z" fill="#7210FF"/>
<path d="M166.599 257.305C162.837 257.305 159.777 254.245 159.777 250.483C159.777 246.722 162.837 243.662 166.599 243.662C170.36 243.662 173.42 246.722 173.42 250.483C173.42 254.245 170.36 257.305 166.599 257.305ZM166.599 244.964C163.555 244.964 161.08 247.44 161.08 250.484C161.08 253.527 163.555 256.003 166.599 256.003C169.642 256.003 172.118 253.527 172.118 250.484C172.118 247.44 169.642 244.964 166.599 244.964Z" fill="#7210FF"/>
<path d="M178.302 271.502H154.896L154.953 270.799C155.189 267.863 156.511 265.146 158.676 263.149C160.84 261.152 163.654 260.052 166.599 260.052C169.545 260.052 172.359 261.152 174.523 263.149C176.688 265.146 178.01 267.863 178.246 270.799L178.302 271.502ZM156.332 270.2H176.867C176.113 265.186 171.734 261.354 166.599 261.354C161.465 261.354 157.086 265.186 156.332 270.2Z" fill="#7210FF"/>
<path opacity="0.1" d="M229.34 193.375H322.651L312.251 202.543V225.563C312.251 227.195 310.928 228.518 309.296 228.518H229.34C227.708 228.518 226.385 227.195 226.385 225.563V196.33C226.385 194.698 227.708 193.375 229.34 193.375Z" fill="#7210FF"/>
<path d="M176.519 275.805H156.68C156.003 275.805 155.33 275.723 154.679 275.562C154.33 275.475 154.117 275.122 154.203 274.773C154.29 274.424 154.643 274.212 154.992 274.298C155.541 274.434 156.109 274.503 156.68 274.503H176.519C180.379 274.503 183.52 271.362 183.52 267.502V247.663C183.52 243.802 180.379 240.662 176.519 240.662H156.68C152.82 240.662 149.679 243.802 149.679 247.663V249.558C149.679 249.917 149.388 250.209 149.028 250.209C148.669 250.209 148.377 249.917 148.377 249.558V247.663C148.377 243.084 152.102 239.359 156.68 239.359H176.519C181.097 239.359 184.822 243.084 184.822 247.663V267.502C184.822 272.08 181.098 275.805 176.519 275.805Z" fill="#7210FF"/>
<path d="M274.256 275.805H212.516C210.528 275.805 208.91 274.187 208.91 272.198V249.473L198.73 240.499C198.527 240.32 198.456 240.034 198.552 239.78C198.648 239.527 198.89 239.359 199.161 239.359H269.146C269.505 239.359 269.797 239.651 269.797 240.01C269.797 240.37 269.505 240.662 269.146 240.662H200.884L209.992 248.691C210.132 248.814 210.212 248.992 210.212 249.179V272.198C210.212 273.469 211.246 274.502 212.516 274.502H274.256C274.615 274.502 274.907 274.794 274.907 275.153C274.907 275.513 274.615 275.805 274.256 275.805Z" fill="#7210FF"/>
<path d="M274.258 275.805H212.518C210.529 275.805 208.912 274.187 208.912 272.198V249.473L199.362 241.055C199.057 240.786 198.953 240.366 199.097 239.986C199.241 239.605 199.596 239.359 200.003 239.359H266.344C266.704 239.359 266.995 239.651 266.995 240.01C266.995 240.37 266.704 240.662 266.344 240.662H200.886L209.993 248.691C210.134 248.814 210.214 248.992 210.214 249.179V272.198C210.214 273.469 211.247 274.502 212.518 274.502H274.258C274.617 274.502 274.909 274.794 274.909 275.153C274.909 275.513 274.617 275.805 274.258 275.805Z" fill="#7210FF"/>
<path d="M269.147 249.444H247.862C247.502 249.444 247.211 249.152 247.211 248.793C247.211 248.433 247.502 248.142 247.862 248.142H269.147C269.506 248.142 269.798 248.433 269.798 248.793C269.798 249.152 269.506 249.444 269.147 249.444Z" fill="#7210FF"/>
<path d="M234.982 249.444H217.243C216.883 249.444 216.592 249.152 216.592 248.793C216.592 248.433 216.883 248.142 217.243 248.142H234.982C235.342 248.142 235.633 248.433 235.633 248.793C235.633 249.152 235.342 249.444 234.982 249.444Z" fill="#7210FF"/>
<path d="M273.467 258.056H217.243C216.883 258.056 216.592 257.765 216.592 257.405C216.592 257.045 216.883 256.754 217.243 256.754H273.467C273.826 256.754 274.118 257.045 274.118 257.405C274.118 257.765 273.826 258.056 273.467 258.056Z" fill="#7210FF"/>
<path d="M264.442 266.668H217.243C216.883 266.668 216.592 266.377 216.592 266.017C216.592 265.658 216.883 265.366 217.243 265.366H264.442C264.802 265.366 265.093 265.658 265.093 266.017C265.093 266.377 264.802 266.668 264.442 266.668Z" fill="#7210FF"/>
<path d="M166.6 163.277C170.008 163.277 172.77 160.514 172.77 157.107C172.77 153.699 170.008 150.937 166.6 150.937C163.192 150.937 160.43 153.699 160.43 157.107C160.43 160.514 163.192 163.277 166.6 163.277Z" fill="#7210FF"/>
<path d="M166.599 167.326C160.849 167.326 156.063 171.743 155.602 177.474H177.596C177.135 171.743 172.349 167.326 166.599 167.326Z" fill="#7210FF"/>
<path d="M166.599 163.928C162.837 163.928 159.777 160.868 159.777 157.106C159.777 153.345 162.837 150.285 166.599 150.285C170.36 150.285 173.42 153.345 173.42 157.106C173.42 160.868 170.36 163.928 166.599 163.928ZM166.599 151.587C163.555 151.587 161.08 154.063 161.08 157.106C161.08 160.15 163.555 162.626 166.599 162.626C169.642 162.626 172.118 160.15 172.118 157.106C172.118 154.063 169.642 151.587 166.599 151.587Z" fill="#7210FF"/>
<path d="M178.302 178.125H154.896L154.953 177.422C155.189 174.486 156.511 171.769 158.676 169.772C160.84 167.775 163.654 166.675 166.599 166.675C169.545 166.675 172.359 167.775 174.523 169.772C176.688 171.769 178.01 174.486 178.246 177.422L178.302 178.125ZM156.332 176.823H176.867C176.113 171.809 171.734 167.977 166.599 167.977C161.465 167.977 157.086 171.809 156.332 176.823Z" fill="#7210FF"/>
<path d="M176.519 182.428H156.68C152.102 182.428 148.377 178.703 148.377 174.125V154.286C148.377 149.707 152.102 145.982 156.68 145.982H176.519C181.098 145.982 184.822 149.707 184.822 154.286V174.125C184.822 178.703 181.098 182.428 176.519 182.428ZM156.68 147.285C152.82 147.285 149.679 150.425 149.679 154.286V174.125C149.679 177.985 152.82 181.126 156.68 181.126H176.519C180.379 181.126 183.52 177.985 183.52 174.125V154.286C183.52 150.425 180.379 147.285 176.519 147.285H156.68Z" fill="#7210FF"/>
<path d="M292.473 182.428H212.518C210.529 182.428 208.912 180.81 208.912 178.821V156.096L199.362 147.678C199.057 147.409 198.953 146.989 199.097 146.609C199.241 146.228 199.596 145.982 200.003 145.982H292.474C294.462 145.982 296.08 147.6 296.08 149.589V178.821C296.08 180.81 294.462 182.428 292.473 182.428ZM200.886 147.285L210.214 155.508V178.821C210.214 180.092 211.247 181.126 212.518 181.126H292.473C293.744 181.126 294.778 180.092 294.778 178.821V149.589C294.778 148.318 293.744 147.285 292.473 147.285H200.886Z" fill="#7210FF"/>
<path d="M287.83 164.679H258.163C257.803 164.679 257.512 164.388 257.512 164.028C257.512 163.669 257.803 163.377 258.163 163.377H287.83C288.19 163.377 288.481 163.669 288.481 164.028C288.481 164.388 288.19 164.679 287.83 164.679Z" fill="#7210FF"/>
<path d="M247.422 164.679H217.243C216.883 164.679 216.592 164.388 216.592 164.028C216.592 163.669 216.883 163.377 217.243 163.377H247.422C247.782 163.377 248.073 163.669 248.073 164.028C248.073 164.388 247.782 164.679 247.422 164.679Z" fill="#7210FF"/>
<path d="M275.299 173.29H217.243C216.883 173.29 216.592 172.999 216.592 172.639C216.592 172.28 216.883 171.988 217.243 171.988H275.299C275.659 171.988 275.95 172.28 275.95 172.639C275.95 172.999 275.659 173.29 275.299 173.29Z" fill="#7210FF"/>
<path d="M361.385 229.169H345.296C340.717 229.169 336.992 225.444 336.992 220.866V201.027C336.992 196.448 340.717 192.724 345.296 192.724H365.134C369.713 192.724 373.438 196.448 373.438 201.027V208.096C373.438 208.456 373.146 208.748 372.787 208.748C372.427 208.748 372.135 208.456 372.135 208.096V201.027C372.135 197.166 368.995 194.026 365.134 194.026H345.296C341.435 194.026 338.294 197.166 338.294 201.027V220.866C338.294 224.726 341.435 227.867 345.296 227.867H361.385C361.745 227.867 362.036 228.158 362.036 228.518C362.036 228.877 361.745 229.169 361.385 229.169Z" fill="#7210FF"/>
<path opacity="0.1" d="M355.215 209.873C358.623 209.873 361.385 207.11 361.385 203.702C361.385 200.295 358.623 197.532 355.215 197.532C351.807 197.532 349.045 200.295 349.045 203.702C349.045 207.11 351.807 209.873 355.215 209.873Z" fill="#7210FF"/>
<path opacity="0.1" d="M355.214 213.922C360.964 213.922 365.75 218.338 366.212 224.07H344.217C344.678 218.338 349.464 213.922 355.214 213.922Z" fill="#7210FF"/>
<path d="M355.214 210.523C351.453 210.523 348.393 207.463 348.393 203.702C348.393 199.941 351.453 196.881 355.214 196.881C358.975 196.881 362.035 199.941 362.035 203.702C362.035 207.463 358.975 210.523 355.214 210.523ZM355.214 198.183C352.171 198.183 349.695 200.659 349.695 203.702C349.695 206.746 352.171 209.221 355.214 209.221C358.257 209.221 360.733 206.746 360.733 203.702C360.733 200.659 358.257 198.183 355.214 198.183Z" fill="#7210FF"/>
<path d="M366.917 224.721H343.512L343.568 224.018C343.804 221.082 345.127 218.365 347.291 216.368C349.455 214.37 352.269 213.271 355.215 213.271C358.16 213.271 360.974 214.37 363.138 216.368C365.303 218.365 366.625 221.082 366.861 224.018L366.917 224.721ZM344.947 223.419H365.482C364.728 218.405 360.349 214.573 355.215 214.573C350.08 214.573 345.701 218.405 344.947 223.419Z" fill="#7210FF"/>
<path d="M260.907 229.169H229.341C227.352 229.169 225.734 227.551 225.734 225.562V196.33C225.734 194.342 227.352 192.724 229.341 192.724H321.811C322.218 192.724 322.574 192.969 322.718 193.35C322.861 193.73 322.757 194.15 322.452 194.419L312.903 202.837V225.562C312.903 226.271 312.698 226.956 312.309 227.545C312.111 227.845 311.708 227.929 311.407 227.73C311.107 227.533 311.024 227.129 311.222 226.828C311.47 226.453 311.601 226.015 311.601 225.562V202.249L320.929 194.026H229.341C228.07 194.026 227.036 195.06 227.036 196.33V225.562C227.036 226.833 228.07 227.867 229.341 227.867H260.907C261.267 227.867 261.558 228.158 261.558 228.518C261.558 228.877 261.267 229.169 260.907 229.169Z" fill="#7210FF"/>
<path d="M257.49 202.808H233.983C233.624 202.808 233.332 202.516 233.332 202.157C233.332 201.797 233.624 201.506 233.983 201.506H257.49C257.849 201.506 258.141 201.797 258.141 202.157C258.141 202.516 257.849 202.808 257.49 202.808Z" fill="#7210FF"/>
<path d="M304.312 202.808H266.344C265.985 202.808 265.693 202.516 265.693 202.157C265.693 201.797 265.985 201.506 266.344 201.506H304.312C304.671 201.506 304.963 201.797 304.963 202.157C304.963 202.516 304.671 202.808 304.312 202.808Z" fill="#7210FF"/>
<path d="M233.983 211.42C233.629 211.42 233.338 211.136 233.332 210.781C233.326 210.421 233.612 210.124 233.972 210.118L285.317 209.222C285.32 209.222 285.324 209.222 285.328 209.222C285.682 209.222 285.973 209.506 285.979 209.861C285.985 210.221 285.699 210.518 285.339 210.524L233.995 211.42C233.991 211.42 233.987 211.42 233.983 211.42Z" fill="#7210FF"/>
<path d="M278.424 220.033H271.696C271.336 220.033 271.045 219.741 271.045 219.382C271.045 219.022 271.336 218.73 271.696 218.73H278.424C278.783 218.73 279.075 219.022 279.075 219.382C279.075 219.741 278.783 220.033 278.424 220.033Z" fill="#7210FF"/>
<path d="M365.134 323.241H345.296C340.717 323.241 336.992 319.517 336.992 314.938V295.099C336.992 290.521 340.717 286.796 345.296 286.796H365.134C369.713 286.796 373.438 290.521 373.438 295.099V314.938C373.438 319.517 369.713 323.241 365.134 323.241ZM345.296 288.098C341.435 288.098 338.294 291.239 338.294 295.099V314.938C338.294 318.799 341.435 321.939 345.296 321.939H365.134C368.995 321.939 372.135 318.799 372.135 314.938V295.099C372.135 291.239 368.995 288.098 365.134 288.098H345.296Z" fill="#7210FF"/>
<path d="M357.587 303.475C360.736 302.17 362.231 298.561 360.927 295.413C359.623 292.264 356.013 290.769 352.865 292.073C349.716 293.377 348.221 296.987 349.525 300.135C350.83 303.284 354.439 304.779 357.587 303.475Z" fill="#7210FF"/>
<path d="M355.214 307.995C360.964 307.995 365.75 312.412 366.212 318.143H344.217C344.678 312.412 349.464 307.995 355.214 307.995Z" fill="#7210FF"/>
<path d="M355.214 304.596C351.453 304.596 348.393 301.536 348.393 297.774C348.393 294.013 351.453 290.953 355.214 290.953C358.975 290.953 362.035 294.013 362.035 297.774C362.035 301.536 358.975 304.596 355.214 304.596ZM355.214 292.255C352.171 292.255 349.695 294.731 349.695 297.775C349.695 300.818 352.171 303.294 355.214 303.294C358.257 303.294 360.733 300.818 360.733 297.775C360.733 294.731 358.257 292.255 355.214 292.255Z" fill="#7210FF"/>
<path d="M366.917 318.794H343.512L343.568 318.091C343.804 315.155 345.127 312.438 347.291 310.441C349.455 308.444 352.269 307.344 355.215 307.344C358.16 307.344 360.974 308.444 363.138 310.441C365.303 312.438 366.625 315.155 366.861 318.091L366.917 318.794ZM344.947 317.492H365.482C364.728 312.478 360.349 308.646 355.215 308.646C350.08 308.646 345.701 312.478 344.947 317.492Z" fill="#7210FF"/>
<path opacity="0.1" d="M229.34 287.447H321.811C322.103 287.447 322.24 287.81 322.021 288.003L312.251 296.616V319.635C312.251 321.267 310.928 322.59 309.296 322.59H229.34C227.708 322.59 226.385 321.267 226.385 319.635V290.403C226.385 288.77 227.708 287.447 229.34 287.447Z" fill="#7210FF"/>
<path d="M276.378 323.241H229.341C227.352 323.241 225.734 321.623 225.734 319.635V290.402C225.734 288.414 227.352 286.796 229.341 286.796H271.76C272.119 286.796 272.411 287.087 272.411 287.447C272.411 287.807 272.119 288.098 271.76 288.098H229.341C228.07 288.098 227.037 289.132 227.037 290.402V319.635C227.037 320.905 228.07 321.939 229.341 321.939H276.378C276.737 321.939 277.029 322.23 277.029 322.59C277.029 322.95 276.737 323.241 276.378 323.241Z" fill="#7210FF"/>
<path d="M257.49 296.88H233.983C233.624 296.88 233.332 296.589 233.332 296.229C233.332 295.87 233.624 295.578 233.983 295.578H257.49C257.849 295.578 258.141 295.87 258.141 296.229C258.141 296.589 257.849 296.88 257.49 296.88Z" fill="#7210FF"/>
<path d="M304.312 296.88H266.344C265.985 296.88 265.693 296.589 265.693 296.229C265.693 295.87 265.985 295.578 266.344 295.578H304.312C304.671 295.578 304.963 295.87 304.963 296.229C304.963 296.589 304.671 296.88 304.312 296.88Z" fill="#7210FF"/>
<path d="M304.311 305.493H233.983C233.624 305.493 233.332 305.201 233.332 304.842C233.332 304.482 233.624 304.19 233.983 304.19H304.311C304.671 304.19 304.963 304.482 304.963 304.842C304.963 305.201 304.671 305.493 304.311 305.493Z" fill="#7210FF"/>
<path d="M304.312 314.105H271.696C271.336 314.105 271.045 313.813 271.045 313.454C271.045 313.094 271.336 312.803 271.696 312.803H304.312C304.672 312.803 304.963 313.094 304.963 313.454C304.963 313.813 304.672 314.105 304.312 314.105Z" fill="#7210FF"/>
<path opacity="0.41" d="M201.428 415.167H191.503C190.124 415.167 189.006 414.049 189.006 412.67V363.962C189.006 362.583 190.124 361.465 191.503 361.465H276.46C277.839 361.465 278.957 362.583 278.957 363.962V412.67C278.957 414.049 277.839 415.167 276.46 415.167H214.981H201.428Z" fill="#7210FF"/>
<path d="M276.461 415.818H214.982C214.622 415.818 214.331 415.527 214.331 415.167C214.331 414.807 214.622 414.516 214.982 414.516H276.461C277.479 414.516 278.307 413.688 278.307 412.67V363.961C278.307 362.944 277.479 362.116 276.461 362.116H191.503C190.486 362.116 189.658 362.944 189.658 363.961V412.67C189.658 413.688 190.486 414.516 191.503 414.516H201.428C201.788 414.516 202.079 414.807 202.079 415.167C202.079 415.527 201.788 415.818 201.428 415.818H191.503C189.767 415.818 188.355 414.406 188.355 412.67V363.961C188.355 362.226 189.768 360.813 191.503 360.813H276.461C278.197 360.813 279.609 362.226 279.609 363.961V412.67C279.609 414.406 278.197 415.818 276.461 415.818Z" fill="#7210FF"/>
<path d="M233.775 388.778L233.452 388.588C217.192 379.025 189.842 362.908 189.353 362.419C189.099 362.165 189.099 361.753 189.353 361.498C189.595 361.256 189.98 361.245 190.236 361.463C191.374 362.292 221.722 380.177 233.789 387.275L278.102 362.287C278.415 362.11 278.812 362.221 278.989 362.534C279.166 362.847 279.055 363.244 278.742 363.421L233.775 388.778ZM190.242 361.469C190.253 361.478 190.263 361.488 190.274 361.498C190.267 361.491 190.257 361.481 190.242 361.469Z" fill="#7210FF"/>
<path d="M150.722 271.7L155.176 255.279L138.729 259.633L122.281 263.986L129.006 270.752L108.111 291.519L118.369 301.84L139.264 281.072L146.269 288.12L150.722 271.7Z" fill="#7210FF"/>
<path d="M118.367 302.761L107.191 291.517L128.086 270.749L121.025 263.645L156.1 254.361L146.603 289.379L139.262 281.993L118.367 302.761ZM109.033 291.522L118.373 300.919L139.267 280.152L145.936 286.861L154.253 256.197L123.539 264.327L129.928 270.755L109.033 291.522Z" fill="#7210FF"/>
<path d="M437.39 440.92H24.5402C24.2419 440.92 24 440.629 24 440.269C24 439.91 24.2419 439.618 24.5402 439.618H437.39C437.688 439.618 437.93 439.91 437.93 440.269C437.93 440.629 437.688 440.92 437.39 440.92Z" fill="#7210FF"/>
</svg>
