<?xml version="1.0" encoding="utf-8"?>
<!-- Generator: Adobe Illustrator 25.0.1, SVG Export Plug-In . SVG Version: 6.00 Build 0)  -->
<svg version="1.1" id="Layer_1" xmlns="http://www.w3.org/2000/svg" xmlns:xlink="http://www.w3.org/1999/xlink" x="0px" y="0px"
	 viewBox="0 0 1024 500" enable-background="new 0 0 1024 500" xml:space="preserve">
<g>
	<g>
		<linearGradient id="SVGID_1_" gradientUnits="userSpaceOnUse" x1="270.7636" y1="278.1042" x2="469.4127" y2="278.1042">
			<stop  offset="0.2816" style="stop-color:#BA9252"/>
			<stop  offset="1" style="stop-color:#E2CA82"/>
		</linearGradient>
		<path fill="url(#SVGID_1_)" d="M270.76,395.08V154.6l89.88,88.68l73.1-88.68c0,0,53.93,57.52,29.16,137.02l-22.23-15.44
			c0,0,7.05-44.09-9.57-76.54l-67.04,83.03l-66.95-65.92l0.03,184.86L270.76,395.08z"/>
		<linearGradient id="SVGID_2_" gradientUnits="userSpaceOnUse" x1="159.5282" y1="239.2348" x2="414.4543" y2="239.2348">
			<stop  offset="0.2816" style="stop-color:#BA9252"/>
			<stop  offset="1" style="stop-color:#E2CA82"/>
		</linearGradient>
		<path fill="url(#SVGID_2_)" d="M185.25,247.61c0-70.29,56.98-127.27,127.27-127.27c33.11,0,63.27,12.65,85.91,33.38l16.02-20.19
			c-27.06-24.19-62.77-38.91-101.93-38.91c-84.5,0-153,68.5-153,153c0,59.4,33.85,110.89,83.3,136.24v-29.74
			C208.16,331.38,185.25,292.17,185.25,247.61z"/>
		<path fill="#4A4E52" d="M635.34,404.69c-14.21,0.43-26.32-4.28-36.14-14.71c-6.8-7.23-10.24-15.9-10.99-25.66
			c-0.95-12.35,0.91-24.1,7.96-34.67c5.77-8.65,13.77-14.39,23.51-17.43c11.1-3.46,22.46-3.73,33.69-0.44
			c16.83,4.92,29.37,19.16,31.24,37.2c1.1,10.64,0.05,20.82-4.67,30.37c-5.72,11.57-14.98,19.4-27.38,22.99
			c-5.52,1.6-11.37,2.07-17.07,3.06C635.43,405.15,635.38,404.92,635.34,404.69z M610.31,357.56c0.51,4.08,0.67,8.23,1.6,12.21
			c1.33,5.68,3.98,10.72,9.07,14.11c5.42,3.61,11.47,4.4,17.73,3.96c9.73-0.68,16.64-5.64,20.58-14.49
			c3.95-8.87,3.63-18.19,1.89-27.44c-0.97-5.15-3.55-9.71-7.51-13.33c-6.12-5.6-13.6-6.65-21.35-5.73
			c-5.88,0.7-11.09,3.24-15.03,7.98C611.79,341.47,610.71,349.33,610.31,357.56z"/>
		<path fill="#4A4E52" d="M806.4,403.86c-0.96,0.08-1.57,0.17-2.18,0.17c-5.56,0.01-11.11,0.01-16.95,0.01
			c-0.06-1.14-0.16-2.09-0.16-3.04c-0.01-29.28,0.02-58.56-0.08-87.84c-0.01-2.64,0.8-3.28,3.34-3.26
			c11.23,0.06,22.45-0.19,33.68-0.12c7.63,0.05,14.59,2.15,20.52,7.3c4.85,4.21,7.12,9.62,7.74,15.72
			c0.87,8.58-0.86,16.49-7.59,22.54c-1.77,1.59-3.94,2.78-6.03,3.96c-2.44,1.38-2.77,2.03-1.23,4.33
			c4.94,7.36,9.93,14.69,14.91,22.02c3.87,5.7,7.76,11.39,11.63,17.09c0.18,0.27,0.24,0.63,0.47,1.27c-7.2,0-14.17,0.07-21.13-0.09
			c-0.79-0.02-1.75-1.15-2.3-1.98c-7.13-10.63-14.22-21.28-21.25-31.97c-1.1-1.67-2.33-2.56-4.39-2.41c-1.96,0.14-3.96,0.12-5.92,0
			c-2.36-0.15-3.13,0.86-3.11,3.16c0.08,9.97,0.03,19.94,0.03,29.91C806.4,401.6,806.4,402.58,806.4,403.86z M806.4,339.12
			c0.01,0,0.01,0,0.02,0c0,3.68,0.08,7.36-0.03,11.03c-0.06,1.95,0.62,2.82,2.61,2.77c3.32-0.07,6.68,0.29,9.95-0.11
			c5.24-0.64,9.61-3.02,11.73-8.2c3.09-7.52,0.8-17.19-7.77-18.88c-4.83-0.95-9.95-0.5-14.94-0.47c-0.53,0-1.46,1.46-1.5,2.28
			C806.31,331.4,806.4,335.27,806.4,339.12z"/>
		<path fill="#4A4E52" d="M695.61,342.58c0-10.24,0.06-20.49-0.05-30.73c-0.03-2.31,0.74-2.92,2.95-2.86
			c5.03,0.15,10.06,0.12,15.09,0.03c2.06-0.04,2.76,0.58,2.75,2.76c-0.1,18.33-0.11,36.66-0.03,54.99c0.01,2.94,0.37,5.92,0.94,8.8
			c1.29,6.49,5.86,9.87,12,10.53c4.56,0.49,9.33,0.16,13.89-0.59c6.93-1.13,10.22-6.19,11.36-12.67c0.6-3.43,0.75-6.96,0.77-10.45
			c0.08-16.53,0.03-33.06,0.03-49.6c0-3.74,0-3.74,3.87-3.74c4.04,0,8.09,0.04,12.13-0.02c1.69-0.03,2.4,0.56,2.4,2.34
			c-0.06,20.75,0.29,41.52-0.22,62.26c-0.4,16.43-11.95,27.6-27.44,30.24c-10.38,1.77-20.85,1.47-31.07-2.03
			c-10.31-3.53-18.16-13.33-18.76-24.28c-0.32-5.82-0.49-11.64-0.58-17.47C695.54,354.27,695.61,348.42,695.61,342.58z"/>
		<path fill="#4A4E52" d="M326.96,403.81c-0.05-1.02-0.12-1.9-0.12-2.77c-0.01-29.56,0.02-59.11-0.06-88.67
			c-0.01-2.57,0.68-3.39,3.3-3.38c17.34,0.11,34.68,0.1,52.01,0.03c2.32-0.01,3.43,0.43,3.26,3.11c-0.25,4.03-0.2,8.09-0.02,12.12
			c0.1,2.35-0.83,2.88-2.97,2.87c-10.42-0.08-20.84-0.04-31.26-0.03c-3.64,0-3.64,0.02-3.65,3.54c0,4.49,0,8.98,0,13.48
			c0,3.58,0,3.59,3.47,3.59c8.98,0.01,17.97,0.06,26.95-0.03c2.16-0.02,3.04,0.58,2.94,2.88c-0.17,3.86-0.16,7.73-0.01,11.58
			c0.1,2.41-0.64,3.26-3.16,3.22c-9.07-0.14-18.15,0.02-27.22-0.1c-2.3-0.03-3.14,0.51-3.04,2.97c0.21,5.11,0.17,10.24,0.01,15.36
			c-0.07,2.2,0.73,2.75,2.79,2.74c11.86-0.07,23.72,0.02,35.57-0.09c2.24-0.02,2.99,0.64,2.91,2.88c-0.15,4.22-0.08,8.44-0.02,12.67
			c0.02,1.51-0.34,2.28-2.08,2.28c-19.49-0.05-38.99-0.04-58.48-0.06C327.84,404,327.57,403.92,326.96,403.81z"/>
		<path fill="#4A4E52" d="M399.41,309.9c7.12,0,13.73,0,20.71,0c0,1.41,0,2.64,0,3.86c0,22.81,0,45.61,0,68.42
			c0,4.03,0.06,4.09,4.02,4.09c10.77,0.01,21.55-0.01,32.32,0.01c5.27,0.01,4.46-0.51,4.51,4.65c0.04,3.5-0.08,7.01,0.04,10.5
			c0.07,1.98-0.55,2.63-2.59,2.63c-18.77-0.07-37.53-0.08-56.3,0.01c-2.39,0.01-2.79-0.9-2.78-2.99
			c0.08-13.02,0.05-26.04,0.05-39.06c0-16.16,0-32.32,0-48.49C399.41,312.4,399.41,311.26,399.41,309.9z"/>
		<path fill="#4A4E52" d="M577.27,343.7c0-10.42-0.05-20.85,0.04-31.27c0.02-2.29-0.73-2.93-3.32-2.72
			c-4.08,0.34-8.19,0.19-12.28-0.04c-2.65-0.15-3.23,0.77-3.21,3.2c0.11,16.98,0.08,33.96,0.09,50.94c0,0.82-0.17,1.64-0.33,3.14
			c-2.31-3.44-4.09-6.29-6.06-9c-10.06-13.84-20.49-27.42-30.08-41.58c-0.52-0.76-1.04-1.45-1.57-2.08l-2.32-3.28
			c-0.49-0.7-1.29-1.11-2.15-1.11h-2.2h-18.82c0,4.26,0,8.51,0,12.76c0,27.13,0,54.13,0,81.21h18.22c0-4.53,0-8.9,0-13.27
			c0-4.4,0-8.81,0-13.21c0-4.49,0-8.98,0-13.48c0-4.4-0.01-8.81,0.01-13.21c0.02-4.28,0.07-8.56,0.11-12.84
			c0.52-0.15,0.47-0.13,0.99-0.28c1.7,2.72,3.24,5.54,5.09,8.15c6.17,8.7,12.44,17.32,18.66,25.98
			c7.26,10.1,14.52,20.21,21.77,30.32c1.01,1.41,2.21,2.14,4.07,2.04c2.96-0.16,5.93-0.01,8.89-0.05c4.66-0.06,4.39,0.86,4.4-4.53
			C577.28,380.9,577.27,362.3,577.27,343.7z"/>
		<linearGradient id="SVGID_3_" gradientUnits="userSpaceOnUse" x1="431.1138" y1="234.3017" x2="469.2993" y2="234.3017">
			<stop  offset="0" style="stop-color:#BA9252"/>
			<stop  offset="0.0944" style="stop-color:#BB9454"/>
			<stop  offset="1" style="stop-color:#E2CA82"/>
		</linearGradient>
		<path fill="url(#SVGID_3_)" d="M449.5,176.99l-18.39,22.65c0,0,15.42,25.73,9.57,76.54l22.23,15.44
			C462.91,291.62,484.02,234.3,449.5,176.99z"/>
	</g>
	<linearGradient id="SVGID_4_" gradientUnits="userSpaceOnUse" x1="235.7536" y1="206.6422" x2="251.6076" y2="206.6422">
		<stop  offset="0.2816" style="stop-color:#BA9252"/>
		<stop  offset="1" style="stop-color:#E2CA82"/>
	</linearGradient>
	<rect x="235.75" y="198.41" fill="url(#SVGID_4_)" width="15.85" height="16.46"/>
	<linearGradient id="SVGID_5_" gradientUnits="userSpaceOnUse" x1="210.4883" y1="206.6422" x2="226.3422" y2="206.6422">
		<stop  offset="0.2816" style="stop-color:#BA9252"/>
		<stop  offset="1" style="stop-color:#E2CA82"/>
	</linearGradient>
	<rect x="210.49" y="198.41" fill="url(#SVGID_5_)" width="15.85" height="16.46"/>
	<linearGradient id="SVGID_6_" gradientUnits="userSpaceOnUse" x1="235.7536" y1="231.6172" x2="251.6076" y2="231.6172">
		<stop  offset="0.2816" style="stop-color:#BA9252"/>
		<stop  offset="1" style="stop-color:#E2CA82"/>
	</linearGradient>
	<rect x="235.75" y="223.38" fill="url(#SVGID_6_)" width="15.85" height="16.46"/>
	<linearGradient id="SVGID_7_" gradientUnits="userSpaceOnUse" x1="210.4883" y1="231.6172" x2="226.3422" y2="231.6172">
		<stop  offset="0.2816" style="stop-color:#BA9252"/>
		<stop  offset="1" style="stop-color:#E2CA82"/>
	</linearGradient>
	<rect x="210.49" y="223.38" fill="url(#SVGID_7_)" width="15.85" height="16.46"/>
</g>
</svg>
