<svg width="129" height="129" viewBox="0 0 129 129" fill="none" xmlns="http://www.w3.org/2000/svg">
<path d="M79.6064 14.5197C79.5735 12.0235 77.5235 10.0266 75.0273 10.0595L24.1805 10.7291C21.6843 10.7619 19.6876 12.8121 19.7205 15.3083L21.0308 114.812C21.0636 117.308 23.1136 119.305 25.6098 119.273L76.4566 118.603C78.9528 118.57 80.9495 116.52 80.9167 114.023L79.6064 14.5197Z" fill="white"/>
<path fill-rule="evenodd" clip-rule="evenodd" d="M79.4981 14.3934C79.4625 11.6892 77.2413 9.52594 74.5373 9.56154L23.6905 10.2311C20.9865 10.2667 18.8231 12.4877 18.8587 15.1919L20.169 114.696C20.2046 117.4 22.4257 119.564 25.1297 119.528L75.9765 118.858C78.6806 118.823 80.844 116.602 80.8083 113.897L79.4981 14.3934ZM74.5472 10.3148C76.8352 10.2847 78.7145 12.1152 78.7446 14.4033L80.0549 113.907C80.085 116.195 78.2545 118.075 75.9666 118.105L25.1198 118.774C22.8319 118.805 20.9526 116.974 20.9224 114.686L19.6122 15.182C19.582 12.8938 21.4125 11.0145 23.7004 10.9844L74.5472 10.3148Z" fill="black"/>
<path d="M61.0848 13.7361L62.9678 10.0903L35.2706 10.455L37.5919 14.2109C38.2875 15.3363 39.5229 16.0143 40.8457 15.9969L57.7877 15.7738C59.1787 15.7555 60.4465 14.9721 61.0848 13.7361Z" fill="black"/>
<path d="M19.9408 12.9034L78.7396 12.1291C76.7677 10.2085 74.9038 9.87115 74.2184 9.94258L24.4024 10.5986C22.0069 10.6301 20.43 12.1482 19.9408 12.9034ZM21.34 117.073L79.7003 116.304C77.7038 118.308 76.5395 118.692 75.8259 118.638L25.2749 119.303C22.7855 119.336 21.869 117.826 21.34 117.073ZM74.0157 23.3825C74.0074 22.7584 73.4949 22.2592 72.8706 22.2674L53.7702 22.519C53.1458 22.5272 52.6466 23.0397 52.6548 23.6638L52.6552 23.6926C52.6634 24.3166 53.1759 24.8158 53.8003 24.8076L72.9007 24.5561C73.5251 24.5479 74.0243 24.0353 74.016 23.4113L74.0157 23.3825ZM57.0062 108.574C56.998 107.95 56.4855 107.451 55.8611 107.459L44.1853 107.613C43.5614 107.621 43.0622 108.133 43.0704 108.757C43.0787 109.381 43.5912 109.88 44.2151 109.872L55.8909 109.718C56.5153 109.71 57.0144 109.198 57.0062 108.574Z" fill="black"/>
<path fill-rule="evenodd" clip-rule="evenodd" d="M72.9385 31.139C73.3546 31.1335 73.6964 31.4664 73.7019 31.8824L73.8433 42.6167L74.5963 42.6068L74.4549 31.8725C74.444 31.0404 73.7608 30.3748 72.9286 30.3857L61.6291 30.5345L61.639 31.2878L72.9385 31.139ZM25.8582 31.759L37.9107 31.6002L37.9008 30.847L25.8483 31.0057C25.0165 31.0167 24.3507 31.7 24.3616 32.5321L24.503 43.2664L25.2564 43.2565L25.1151 32.5222C25.1096 32.1062 25.4421 31.7644 25.8582 31.759ZM74.2227 71.4296L74.3615 81.9756C74.367 82.3917 74.0341 82.7335 73.618 82.7389L62.3185 82.8877L62.3284 83.6408L73.6279 83.492C74.4601 83.481 75.1255 82.7978 75.1146 81.9656L74.9757 71.4196L74.2227 71.4296ZM25.7747 82.6154L25.6358 72.0693L24.8824 72.0793L25.0212 82.6253C25.0322 83.4575 25.7158 84.1229 26.5476 84.112L38.6001 83.9532L38.5902 83.2002L26.5377 83.3589C26.1216 83.3644 25.7802 83.0314 25.7747 82.6154ZM22.9203 16.0942L22.9609 19.1749L23.7144 19.165L23.6738 16.0843L22.9203 16.0942ZM24.851 16.454L24.8865 19.1496L25.6395 19.1397L25.604 16.4441L24.851 16.454ZM26.7863 17.1988L26.8116 19.1242L27.5651 19.1143L27.5397 17.1888L26.7863 17.1988ZM28.722 17.9436L28.7372 19.0989L29.4907 19.0889L29.4755 17.9337L28.722 17.9436Z" fill="black"/>
<path fill-rule="evenodd" clip-rule="evenodd" d="M69.0762 35.4102C69.1608 35.5007 69.272 38.7662 69.3234 42.6668L69.4168 49.7588L62.8256 49.8456L56.2344 49.9323L56.1389 42.6735L56.0433 35.4148L62.4829 35.33C66.0246 35.2834 68.9916 35.3194 69.0762 35.4102ZM54.0255 37.5693L54.0535 39.6968L53.1447 39.7088L52.2355 39.7207L52.2618 41.7231L52.2882 43.7256L51.379 43.7376L50.4697 43.7496L50.4565 42.7483L50.4433 41.7471L49.4207 41.7606L48.398 41.774L48.4112 42.7752L48.4243 43.7765L47.5151 43.7885L46.6059 43.8005L46.6207 44.9269L46.6355 46.0532L45.7267 46.0652L44.8175 46.0772L44.7894 43.9493L44.7614 41.8219L45.6707 41.8099L46.5795 41.798L46.5663 40.7968L46.5531 39.7956L45.6443 39.8075L44.7351 39.8195L44.7071 37.692L44.679 35.5644L49.3383 35.5031L53.9975 35.4417L54.0255 37.5693ZM42.7288 42.8501L42.8244 50.1089L36.3471 50.1942L29.8694 50.2795L29.7738 43.0207L29.6782 35.762L36.156 35.6767L42.6332 35.5914L42.7288 42.8501ZM57.9569 42.6495L58.0261 47.9058L62.7992 47.8429L67.5723 47.7801L67.5053 42.6908C67.4684 39.8914 67.3691 37.527 67.2846 37.4365C67.2 37.3457 65.0512 37.2989 62.5093 37.3324L57.8877 37.3933L57.9569 42.6495ZM48.4016 38.7073L48.3454 39.772L49.3816 39.7583L50.417 39.7447L50.4043 38.7853C50.3974 38.2574 50.3178 37.7463 50.2272 37.6491C50.1366 37.5519 49.7013 37.5108 49.2599 37.5574C48.4904 37.6391 48.4546 37.6864 48.4016 38.7073ZM31.5923 42.9967L31.6615 48.253L36.3208 48.1916L40.98 48.1303L40.9108 42.874L40.8415 37.6177L36.1823 37.6791L31.5231 37.7404L31.5923 42.9967ZM65.459 42.6759L65.5002 45.8048L62.659 45.8422L59.8183 45.8797L59.7771 42.7507L59.7359 39.622L62.5766 39.5846L65.4178 39.5472L65.459 42.6759ZM39.0939 43.0231L39.1351 46.152L36.2944 46.1894L33.4532 46.2268L33.412 43.0979L33.3708 39.9691L36.212 39.9317L39.0527 39.8943L39.0939 43.0231ZM54.2183 52.2116L54.3271 60.4719L57.1683 60.4344L60.0094 60.397L60.0226 61.3981L60.0358 62.3992L57.1946 62.4366L54.3535 62.4741L54.3666 63.4751L54.3798 64.4767L53.471 64.4886L52.5618 64.5006L52.5486 63.4991L52.5354 62.498L51.6261 62.51L48.851 62.5465L48.8378 61.5454L48.8247 60.5443L51.5998 60.5078L52.509 60.4958L52.481 58.3679L52.453 56.2404L50.6345 56.2643L48.8165 56.2883L48.8033 55.2872L48.7901 54.2861L45.8355 54.325L42.8804 54.3639L42.9068 56.3661L42.9332 58.3687L41.1151 58.3927L39.2966 58.4166L39.3115 59.543L39.3263 60.6694L42.1675 60.632L45.0086 60.5946L44.9954 59.593L44.9823 58.5919L45.8915 58.58L46.8003 58.568L46.8135 59.5691L46.8267 60.5706L45.9179 60.5826L45.0086 60.5946L45.0366 62.7221L45.0647 64.8495L45.9739 64.8376L46.8827 64.8256L46.8679 63.6992L46.8531 62.5728L47.7496 62.561C48.6411 62.5493 48.785 62.5474 48.785 62.5474L48.813 64.6749L50.6892 64.723L52.5653 64.7711L52.5784 65.762C52.5914 66.7513 52.5931 66.7529 53.5007 66.741L54.4095 66.729L54.4227 67.7305L54.4359 68.7316L53.527 68.7436L52.6178 68.7556L52.6458 70.8831L52.6738 73.0106L53.5831 72.9986L54.4919 72.9866L54.5314 75.9903L54.571 78.9936L51.8437 79.0295L49.1164 79.0655L49.1032 78.0644L49.09 77.0633L49.9993 77.0513L50.9081 77.0393L50.8949 76.0382L50.8817 75.0371L51.7909 75.0252L52.7002 75.0132L52.687 74.0117L52.6738 73.0106L50.8685 73.0343L49.0635 73.0581L48.9793 71.9953L48.8954 70.9325L47.0927 70.8986L47.1214 73.0837L45.1734 73.1093L45.1447 70.9243L44.1786 70.9268L39.4613 70.9212L39.4762 72.0527L39.4911 73.1842L41.3096 73.1602L43.1276 73.1363L43.1408 74.1374L43.154 75.1389L42.2452 75.1508L41.3359 75.1628L41.3491 76.1639L41.3623 77.165L42.2716 77.153L43.1804 77.1411L43.1936 78.1422L43.2067 79.1433L42.2979 79.1552L41.3887 79.1672L41.3754 78.1564L41.362 77.1447L39.4878 77.2422L37.614 77.3397L37.6263 78.2786L37.6387 79.217L36.6554 79.23L35.6721 79.2425L35.7198 77.2389L35.7675 75.2349L32.9834 75.272L30.199 75.3095L30.1858 74.308L30.1726 73.3069L31.9911 73.2829L33.8092 73.259L33.7944 72.1326L33.7795 71.0062L32.8703 71.0182L31.9615 71.0301L31.9483 70.029C31.9351 69.0305 31.9372 69.0279 32.8312 69.0161C33.7227 69.0044 33.7274 69.0094 33.8112 70.0672C33.8941 71.1194 33.9035 71.1299 34.7675 71.1185L35.6399 71.107L35.6495 69.0417L35.6587 66.9759L34.6928 66.9887L33.7268 67.0014L33.6988 64.8739L33.6708 62.7464L32.7615 62.7584L31.8527 62.7703L31.8395 61.7692L31.8263 60.7681L32.7351 60.7562L33.6444 60.7442L33.6576 61.7453L33.6708 62.7464L34.6367 62.7341L35.6027 62.7222L35.5022 60.7202L35.4018 58.7181L36.4418 58.7044L37.4819 58.6907L37.467 57.5643L37.4522 56.4379L36.4295 56.4514L35.4068 56.4649L35.42 57.4664L35.4332 58.4675L34.524 58.4795L33.6147 58.4914L33.6015 57.4903L33.5884 56.4888L34.4976 56.4768L35.4068 56.4649L35.3937 55.4638L35.3805 54.4627L36.4032 54.4492L37.4258 54.4357L37.4127 53.4346L37.3995 52.4331L42.0587 52.3718L46.7179 52.3104L46.7049 51.3237C46.692 50.3417 46.697 50.3365 47.6569 50.2472L48.6218 50.1575L48.6607 48.0918L48.6995 46.0261L49.5994 46.0142L50.4994 46.0024L50.5274 48.1299L50.5554 50.2573L51.4646 50.2454L52.3739 50.2334L52.3327 47.1044L52.2915 43.9758L53.2007 43.9638L54.1096 43.9519L54.2183 52.2116ZM46.6751 49.0565L46.6883 50.0581L45.7794 50.07L44.8702 50.082L44.857 49.0805L44.8438 48.0794L45.7531 48.0674L46.6619 48.0554L46.6751 49.0565ZM69.4728 54.0137L69.4991 56.0159L68.5899 56.0279L67.6811 56.0399L67.6679 55.0388L67.6547 54.0377L65.7228 54.0631L63.7909 54.0886L63.8321 57.2171L63.8733 60.3462L65.8052 60.3207L67.7371 60.2953L67.7239 59.2938L67.7108 58.2927L68.6196 58.2807L69.5288 58.2687L69.5552 60.2713L69.5815 62.2735L65.8405 62.3228L62.0998 62.372L62.0061 60.3081L61.9133 58.2437L59.128 58.2101L56.343 58.1765L56.3299 57.183L56.3168 56.1895L58.1349 56.1656L59.9534 56.1416L59.9402 55.1405L59.927 54.1394L58.1085 54.1634L56.2905 54.1873L56.2773 53.1862L56.2641 52.1847L58.0822 52.1608L59.9006 52.1368L59.9138 53.1383L59.927 54.1394L61.8589 54.114L63.7909 54.0886L63.7777 53.0875L63.7645 52.0859L66.6052 52.0485L69.4464 52.0111L69.4728 54.0137ZM33.5488 53.4855L33.562 54.4866L32.6527 54.4986L31.7439 54.5106L31.7703 56.5127L31.7967 58.5154L30.8874 58.5273L29.9782 58.5393L29.9386 55.5356L29.8991 52.5319L31.7176 52.5079L33.5356 52.484L33.5488 53.4855ZM39.2571 55.4129L39.2703 56.414L40.1795 56.402L41.0887 56.39L41.0756 55.3889L41.0624 54.3878L40.1531 54.3998L39.2439 54.4118L39.2571 55.4129ZM37.2941 61.6974L37.3073 62.6985L38.33 62.6851L39.3527 62.6716L39.3395 61.6705L39.3263 60.6694L38.3036 60.6829L37.2809 60.6963L37.2941 61.6974ZM41.2123 65.7762L41.2272 66.9026L39.2953 66.9281L37.3633 66.9535L37.3765 67.955L37.3897 68.9561L39.3216 68.9307L41.2535 68.9052L41.2404 67.9041L41.2272 66.9026L42.2499 66.8892L43.2725 66.8757L43.2599 65.9165C43.253 65.3886 43.1781 64.8824 43.0935 64.7921C43.0094 64.7013 42.5478 64.6325 42.0687 64.6388L41.1975 64.6503L41.2123 65.7762ZM69.7051 71.6597L69.7991 78.7931L63.2079 78.8799L56.6168 78.9667L56.5228 71.8333L56.4289 64.6999L63.0201 64.6131L69.6112 64.5263L69.7051 71.6597ZM31.8515 65.9621C31.7963 66.8507 31.7471 66.9068 30.9421 66.9906L30.0906 67.0797L30.0773 66.0634L30.0639 65.0471L30.9867 65.0349L31.9099 65.0228L31.8515 65.9621ZM58.3409 71.8094L58.4085 76.9406L63.1816 76.8777L67.9547 76.8148L67.8871 71.6836L67.8195 66.5524L63.0464 66.6153L58.2733 66.6782L58.3409 71.8094ZM50.7861 67.7784L50.7993 68.7795L51.7085 68.7676L52.6178 68.7556L52.6046 67.7545L52.5914 66.753L51.6822 66.7649L50.7729 66.7769L50.7861 67.7784ZM45.1042 67.8533L45.1174 68.8544L46.0266 68.8424L46.9355 68.8304L46.9223 67.8293L46.9091 66.8278L46.0003 66.8398L45.091 66.8517L45.1042 67.8533ZM65.8413 71.7106L65.8825 74.8396L63.0413 74.877L60.2006 74.9144L60.1594 71.7854L60.1182 68.6568L62.9589 68.6194L65.8001 68.582L65.8413 71.7106ZM47.031 76.0891L47.0706 79.0924L46.1618 79.1044L45.2525 79.1163L45.213 76.113L45.1998 75.1119L46.109 75.1L47.0179 75.088L47.031 76.0891ZM31.8941 77.4565C31.9787 77.5473 32.0532 77.9967 32.0592 78.456C32.0699 79.2624 32.0398 79.2903 31.161 79.3019L30.2517 79.3139L30.2386 78.3128C30.2258 77.3451 30.2508 77.3113 30.9831 77.3017C31.3996 77.2962 31.8099 77.3657 31.8941 77.4565Z" fill="black"/>
<path d="M13.0156 85.5575C7.78798 90.1704 13.5899 109.945 17.1439 119.256L22.5617 119.185C22.2841 98.1065 19.5501 79.7911 13.0156 85.5575Z" fill="white"/>
<path fill-rule="evenodd" clip-rule="evenodd" d="M15.2953 84.7879C14.6934 84.7967 14.0026 85.0932 13.2158 85.7873C12.0059 86.8549 11.3936 88.846 11.2589 91.4752C11.1248 94.0892 11.4663 97.2574 12.0851 100.589C13.3045 107.155 15.5887 114.297 17.3518 118.948L22.2545 118.883C22.105 108.465 21.3525 98.7716 19.8402 92.3754C19.0735 89.1319 18.1245 86.7976 17.0066 85.6269C16.4571 85.0512 15.8892 84.7796 15.2953 84.7879ZM20.4306 92.2334C21.9734 98.7605 22.7267 108.637 22.8655 119.181L22.8695 119.487L16.937 119.565L16.8612 119.366C15.0796 114.7 12.7342 107.41 11.4888 100.701C10.8659 97.3488 10.5153 94.1264 10.6527 91.4439C10.7894 88.7774 11.4119 86.5664 12.816 85.3273C13.663 84.5799 14.4873 84.1876 15.2869 84.1762C16.0941 84.1652 16.8141 84.5431 17.4439 85.2029C18.6854 86.5032 19.6622 88.984 20.4306 92.2334Z" fill="black"/>
<path d="M7.36764 101.034C3.82449 105.376 11.5598 114.888 15.8469 119.492L18.9891 119.45C16.8137 110.631 12.5932 94.6295 7.36764 101.034Z" fill="black"/>
<path fill-rule="evenodd" clip-rule="evenodd" d="M14.972 87.8868L17.0641 100.052L19.5342 96.7539L20.0187 97.1226L17.2062 100.878L19.2171 112.571L20.7947 110.395L21.2846 110.756L19.3614 113.409L20.3701 119.275L19.7724 119.379L17.7391 107.558L14.7973 106.352L15.0261 105.785L17.6171 106.848L15.5384 94.7625L12.8229 92.7974L13.1766 92.3003L15.3908 93.9024L14.3739 87.9912L14.972 87.8868Z" fill="black"/>
<path fill-rule="evenodd" clip-rule="evenodd" d="M11.3909 106.171L9.72397 102.623L9.17534 102.885L12.7479 110.488L10.3106 110.52L10.3186 111.132L13.0337 111.096L16.98 119.495L17.5286 119.233L15.5581 115.04L16.1564 112.349L15.5645 112.215L15.136 114.142L11.7655 106.969L12.7857 103.904L12.2103 103.709L11.3909 106.171Z" fill="white"/>
<path d="M97.9997 66.266L98.5433 70.8245C98.0799 71.3691 96.6656 72.436 94.7153 72.3444C92.7651 72.2528 91.3291 71.0524 90.8548 70.4634L91.6238 65.9672C89.186 65.8528 88.7439 63.188 88.6682 60.7293C88.5925 58.2705 89.5337 50.0049 96.1812 52.5829C101.499 54.6454 99.6094 62.5644 97.9997 66.266Z" fill="white"/>
<path fill-rule="evenodd" clip-rule="evenodd" d="M92.3139 52.7018C93.2449 52.2912 94.4645 52.2446 96.0717 52.8678C98.558 53.8321 99.3931 56.1628 99.3843 58.809C99.3756 61.4539 98.5158 64.3166 97.7211 66.1441L97.688 66.2199L98.225 70.7222C97.7295 71.2368 96.4521 72.1206 94.7287 72.04C92.9977 71.9587 91.6899 70.9454 91.1776 70.3747L91.9806 65.6787L91.6372 65.6624C91.0859 65.6367 90.6631 65.4687 90.3311 65.2067C89.9959 64.9419 89.7367 64.5681 89.5383 64.1067C89.138 63.1755 89.0088 61.9447 88.9711 60.7204C88.934 59.5168 89.1492 56.8946 90.1725 54.9078C90.6818 53.9193 91.3769 53.1151 92.3139 52.7018ZM89.6336 54.627C88.5434 56.7434 88.3258 59.4834 88.3645 60.7386C88.4025 61.9726 88.5321 63.3037 88.9812 64.3481C89.2076 64.8748 89.5207 65.3423 89.9564 65.6863C90.3183 65.9719 90.7533 66.1631 91.2689 66.2393L90.532 70.5479L90.6186 70.6555C91.1307 71.2915 92.6408 72.5527 94.7009 72.6492C96.7652 72.7461 98.2641 71.6218 98.7735 71.0228L98.8599 70.9213L98.3102 66.3121C99.116 64.4353 99.9823 61.5297 99.9913 58.8115C100 56.057 99.1215 53.3971 96.2898 52.2989C94.5732 51.6331 93.1824 51.6527 92.0696 52.1432C90.963 52.6315 90.1811 53.5639 89.6336 54.627Z" fill="black"/>
<path d="M92.8879 63.0033L93.5002 66.0537C96.2868 66.7507 97.2241 66.7947 98.3748 66.2825C99.5255 65.7699 101.283 60.187 101.6 57.3691C101.916 54.5517 99.5222 53.4951 98.2356 52.8681C90.6708 45.715 86.6975 50.4384 86.9607 52.9057C87.1713 54.8796 90.07 56.1361 91.493 56.5175C91.6857 57.7855 92.1443 60.3624 92.4373 60.5275C92.8037 60.7335 93.4693 58.4986 94.5254 60.0588C95.3703 61.3072 93.7858 62.5419 92.8879 63.0033Z" fill="black"/>
<path d="M57.9476 41.1027L58.1203 54.2196C58.1234 54.4537 57.8739 54.6039 57.67 54.4901L54.316 52.6211C54.2188 52.5665 54.1586 52.4627 54.1601 52.3505L54.3287 38.3074C54.3315 38.0433 54.6443 37.9078 54.8372 38.087L57.8499 40.8826C57.9112 40.9394 57.9465 41.019 57.9476 41.1027Z" fill="white"/>
<path fill-rule="evenodd" clip-rule="evenodd" d="M55.0437 37.8628C54.658 37.5045 54.0324 37.7755 54.0258 38.3037L53.8576 52.3469C53.8547 52.5713 53.9747 52.7788 54.17 52.8876L57.524 54.7571C57.9313 54.9842 58.4303 54.6838 58.4241 54.2152L58.2514 41.0987C58.2492 40.9312 58.179 40.772 58.0564 40.6584L55.0437 37.8628ZM54.6326 38.3111L57.6448 41.1067L57.8176 54.2232L54.464 52.3541L54.6326 38.3111Z" fill="black"/>
<path d="M55.6359 50.8149C55.9484 51.7164 57.2999 53.6863 57.9371 54.5585L54.5949 57.2448C54.3381 56.7448 53.5947 55.3705 52.6741 53.8729C51.5237 52.0011 51.1412 51.4401 51.2666 46.7208C51.3672 42.9452 53.198 41.4114 54.1962 41.2095L54.2707 46.8697C54.3919 46.554 54.661 45.1664 55.5713 45.9093C56.7097 46.8376 55.246 49.6875 55.6359 50.8149Z" fill="white"/>
<path fill-rule="evenodd" clip-rule="evenodd" d="M54.4951 40.8385L54.1366 40.9109C52.9514 41.1506 51.0665 42.8519 50.9637 46.713C50.9012 49.0728 50.9635 50.4281 51.1969 51.4343C51.4267 52.4241 51.8204 53.0641 52.3664 53.9519C52.3828 53.9792 52.3997 54.0065 52.4166 54.0338C53.3325 55.5243 54.0723 56.8918 54.3256 57.3851L54.4955 57.7156L58.3539 54.6144L58.1819 54.3787C57.8663 53.9464 57.3727 53.2412 56.9201 52.5334C56.461 51.8154 56.0654 51.1263 55.9228 50.715C55.8519 50.5102 55.8574 50.1879 55.9219 49.7485C55.9612 49.4808 56.0159 49.2032 56.0739 48.9116C56.11 48.7278 56.1477 48.538 56.1828 48.3424C56.2708 47.8548 56.3416 47.3441 56.3098 46.8881C56.2779 46.4305 56.1395 45.9797 55.7628 45.6727C55.4975 45.4564 55.2205 45.3479 54.943 45.4023C54.7868 45.4332 54.6599 45.5106 54.5579 45.6043L54.4951 40.8385ZM53.8989 41.6355L53.9679 46.8741L54.554 46.9798C54.5728 46.9313 54.5923 46.8676 54.611 46.8076L54.6138 46.7987C54.6345 46.7315 54.6573 46.6588 54.6838 46.5827C54.7376 46.4275 54.8009 46.2772 54.8768 46.1631C54.9553 46.0457 55.0188 46.0093 55.0597 46.0011C55.0931 45.9948 55.1908 45.9914 55.3809 46.1463C55.5734 46.3034 55.6788 46.5573 55.7045 46.9304C55.7306 47.3052 55.6729 47.7517 55.5861 48.2334C55.555 48.4057 55.5197 48.5857 55.4839 48.7665C55.4236 49.0721 55.3625 49.3803 55.3217 49.659C55.2572 50.1001 55.2255 50.5565 55.3501 50.9156C55.5195 51.4057 55.9557 52.1528 56.41 52.8631C56.7952 53.4656 57.2087 54.0651 57.5218 54.5026L54.6923 56.7765C54.3467 56.1278 53.7006 54.9631 52.9326 53.7133L52.9002 53.6604C52.3408 52.7507 51.9947 52.1871 51.7878 51.2957C51.5737 50.3739 51.5072 49.089 51.5701 46.7291C51.6557 43.5167 53.0138 42.0655 53.8989 41.6355Z" fill="black"/>
<path d="M110.343 74.4725C105.019 69.1078 98.6422 69.3425 92.639 69.4215C89.6458 69.6383 82.9807 69.8544 80.2677 68.9845C76.8758 67.8967 71.5982 66.0792 69.8898 64.592C68.1819 63.1047 61.3014 53.5713 59.4179 53.03C57.5344 52.4884 52.709 56.5151 52.7264 57.8357C52.7437 59.1564 59.6652 74.5395 62.5343 77.3323C65.4039 80.1252 74.3027 86.2354 75.8161 87.1591C75.5162 89.1356 74.8995 94.3279 74.8318 99.2835C74.6901 104.534 74.6461 114.503 75.368 118.491L117.124 117.941C118.672 112.127 120.779 101.207 120.606 98.6807C120.374 95.2871 116.998 81.1782 110.343 74.4725Z" fill="white"/>
<path fill-rule="evenodd" clip-rule="evenodd" d="M57.6997 53.6454C58.4068 53.3279 58.9744 53.2196 59.3352 53.3232C59.5031 53.3714 59.7737 53.5402 60.1436 53.8541C60.5033 54.1593 60.9245 54.5729 61.3891 55.0655C62.3182 56.0507 63.4028 57.3328 64.4867 58.6508C65.0279 59.3088 65.5684 59.9749 66.0879 60.6158L66.1395 60.679C66.6405 61.2969 67.122 61.8901 67.5648 62.4287C68.4735 63.5323 69.2414 64.4303 69.692 64.8228C70.1481 65.2198 70.8253 65.6258 71.6202 66.0256C72.4189 66.4274 73.3539 66.8317 74.337 67.2218C76.3033 68.0016 78.478 68.7304 80.1761 69.2749C81.5817 69.7255 83.9695 69.8879 86.3455 69.9155C88.7302 69.9434 91.1485 69.8353 92.6526 69.7266C92.7977 69.7247 92.943 69.7228 93.0883 69.7204C98.973 69.64 105.036 69.5563 110.129 74.6878C113.409 77.9927 115.898 83.1449 117.598 87.9214C119.298 92.6967 120.191 97.0431 120.304 98.7016C120.345 99.2976 120.251 100.424 120.053 101.898C119.856 103.36 119.562 105.139 119.213 107.022C118.533 110.694 117.649 114.753 116.89 117.639L75.6232 118.182C75.2971 116.181 75.139 112.853 75.0798 109.356C75.0187 105.714 75.0648 101.914 75.1357 99.2917L75.1361 99.2879C75.2031 94.3501 75.8179 89.1722 76.1167 87.2051L76.1471 87.0041L75.9742 86.8984C75.2277 86.4429 72.6327 84.6901 69.8609 82.6986C67.0853 80.7043 64.1615 78.4913 62.7459 77.1132C62.0644 76.4495 61.1131 75.0018 60.0581 73.1423C59.0101 71.2949 57.8788 69.0757 56.8349 66.8994C55.7914 64.7234 54.8371 62.5946 54.1432 60.9289C53.7961 60.0956 53.5153 59.3808 53.3214 58.8355C53.2243 58.5625 53.1502 58.3353 53.1004 58.1585C53.048 57.9721 53.031 57.8694 53.0305 57.8318C53.0294 57.7492 53.0702 57.6001 53.1956 57.3795C53.3164 57.1671 53.4977 56.92 53.7296 56.6515C54.1925 56.1158 54.837 55.5192 55.5441 54.9769C56.2512 54.4346 57.0103 53.955 57.6997 53.6454ZM52.6691 57.0761C52.5268 57.3265 52.4206 57.5921 52.4239 57.8397C52.4256 57.9672 52.4647 58.1394 52.5167 58.3245C52.5717 58.5198 52.6511 58.7614 52.7505 59.0408C52.9492 59.6004 53.2348 60.3261 53.5837 61.1644C54.2823 62.8415 55.2411 64.9805 56.2884 67.1644C57.3358 69.3483 58.474 71.581 59.5312 73.4447C60.5818 75.2963 61.5714 76.8188 62.3244 77.5515C63.7779 78.9663 66.7384 81.205 69.508 83.1948C72.1015 85.0582 74.5527 86.7215 75.4873 87.3125C75.1769 89.4305 74.595 94.4627 74.5292 99.2769C74.4584 101.906 74.4121 105.714 74.4737 109.366C74.5348 113.01 74.7043 116.523 75.07 118.545L75.1161 118.799L117.358 118.243L117.417 118.02C118.194 115.103 119.109 110.912 119.809 107.134C120.159 105.245 120.455 103.456 120.654 101.979C120.851 100.512 120.955 99.3268 120.909 98.6598C120.791 96.9247 119.879 92.5197 118.169 87.7158C116.46 82.9131 113.934 77.6581 110.558 74.2567C105.282 68.9405 98.9812 69.0285 93.1373 69.1097C92.9698 69.1119 92.8025 69.1146 92.6356 69.1168L92.6268 69.1169L92.6178 69.1174C91.1281 69.2251 88.7221 69.333 86.3524 69.3053C83.9695 69.2779 81.668 69.113 80.3602 68.6937C78.6664 68.1504 76.507 67.4269 74.5594 66.6541C73.5857 66.2681 72.6685 65.8712 71.8916 65.4801C71.1099 65.0869 70.4872 64.7077 70.0889 64.3612C69.6855 64.01 68.9529 63.1585 68.0321 62.0398C67.5907 61.5029 67.1104 60.911 66.6086 60.2922L66.5583 60.2303C66.0384 59.5893 65.497 58.922 64.954 58.262C63.8689 56.9426 62.7735 55.6467 61.8293 54.6456C61.3575 54.1455 60.9187 53.7139 60.5346 53.3879C60.1613 53.071 59.8049 52.8238 59.5019 52.7364C58.921 52.5696 58.1792 52.7618 57.4524 53.0881C56.7078 53.4226 55.9084 53.9306 55.1762 54.4919C54.4435 55.0536 53.7672 55.6777 53.2717 56.2515C53.024 56.5376 52.8165 56.8176 52.6691 57.0761Z" fill="black"/>
<path d="M66.5376 80.676C64.649 74.0582 60.7985 72.3227 59.1095 72.2819C59.7496 73.406 61.259 75.9521 62.1757 77.1479C63.092 78.3438 65.4652 79.9984 66.5376 80.676ZM119.586 106.62C117.395 99.8548 118.555 94.8704 119.409 93.2237C119.734 94.1 120.427 96.4181 120.607 98.6804C120.787 100.943 120.001 104.916 119.586 106.62ZM113.89 87.2574C116.188 96.62 116.24 109.969 115.874 117.957L114.523 117.975C115.174 101.124 114.398 90.5805 113.89 87.2574Z" fill="black"/>
</svg>
