<?xml version="1.0" encoding="utf-8"?>
<!-- Generator: Adobe Illustrator 25.0.1, SVG Export Plug-In . SVG Version: 6.00 Build 0)  -->
<svg version="1.1" id="Layer_1" xmlns="http://www.w3.org/2000/svg" xmlns:xlink="http://www.w3.org/1999/xlink" x="0px" y="0px"
	 viewBox="0 0 1024 500" enable-background="new 0 0 1024 500" xml:space="preserve">
<g>
	<path fill="none" d="M586.53,263.51c0,0.01,0,0.01,0.01,0.02c0,0,0,0,0.01,0C586.54,263.52,586.54,263.51,586.53,263.51z"/>
	<path fill="#798C8B" d="M210.93,344.26c-0.01-49.35-0.01-98.69-0.01-148.04c0-17.42,0-34.84,0-52.26c0-0.83-0.1-1.69,0.2-2.48
		c-0.25-0.11-0.49-0.26-0.71-0.45c0,68.81,0,137.62,0,206.42c0.22-0.19,0.46-0.34,0.72-0.45
		C210.77,346.13,210.93,345.18,210.93,344.26z"/>
	<path fill="#798C8B" d="M211.34,141.04C211.34,141.04,211.34,141.04,211.34,141.04c-0.31,0-0.61-0.01-0.92-0.01
		c0.22,0.19,0.45,0.33,0.71,0.45C211.19,141.33,211.25,141.19,211.34,141.04z"/>
	<path fill="#798C8B" d="M211.15,347c-0.26,0.11-0.5,0.26-0.72,0.45c0.31-0.02,0.62-0.04,0.94-0.06
		C211.27,347.27,211.2,347.14,211.15,347z"/>
	<path fill="#9AA9A8" d="M811.3,28.59c0.05-0.15,0.05-0.3-0.01-0.45c-68.81,0-137.62,0-206.43,0c0.04,0.18,0.09,0.37,0.13,0.55
		c1.07-0.03,2.15-0.09,3.22-0.09C675.91,28.6,743.61,28.6,811.3,28.59z"/>
	<path fill="#9AA9A8" d="M472.37,28.6c0.38,0,0.77,0.01,1.15,0.01c0.01-0.16,0.01-0.32,0.02-0.48c-50.07,0-100.15,0-150.22,0
		c0.04,0.18,0.09,0.37,0.13,0.55c0.77-0.03,1.53-0.09,2.3-0.09C374.62,28.6,423.49,28.6,472.37,28.6z"/>
	<path fill="#9AA9A8" d="M583.12,28.61c3.15,0,2.89-0.33,2.89,2.78c0.01,10.74,0,21.47,0,32.21c0,0.77-0.04,1.53-0.06,2.3
		c0,0,0,0,0,0c0.8-0.33,0.5-1.04,0.5-1.59c0.01-12.05-0.01-24.11-0.02-36.16c-31.33,0-62.67,0-94,0c0.01,0.17,0.03,0.33,0.04,0.5
		c5.37-0.01,10.74-0.04,16.11-0.04C533.43,28.6,558.27,28.6,583.12,28.61z"/>
	<path fill="#9AA9A8" d="M210.42,28.6c0.19,0.04,0.38,0.07,0.57,0.11c0,0,0,0,0,0c0.84-0.04,1.68-0.1,2.53-0.1
		c29.57-0.01,59.13-0.01,88.7,0c0.84,0,1.69,0.06,2.53,0.09c0.04-0.18,0.09-0.37,0.13-0.55c-30.8,0-61.59,0-92.39,0
		c-0.61,0-1.23,0.01-1.84,0C210.19,28.12,210.52,28.46,210.42,28.6z"/>
	<path fill="#798C8B" d="M210.93,31.7c0-0.91,0.04-1.81,0.06-2.72c-0.2-0.11-0.39-0.23-0.57-0.37c0,31.18,0,62.36,0,93.54
		c0.15-0.13,0.32-0.23,0.49-0.33C210.92,91.77,210.92,61.74,210.93,31.7z"/>
	<path fill="#798C8B" d="M210.91,121.81c-0.17,0.1-0.34,0.2-0.49,0.33c0.16-0.02,0.33-0.04,0.49-0.06
		C210.91,121.99,210.91,121.9,210.91,121.81z"/>
	<path fill="#798C8B" d="M211,28.71c-0.19-0.04-0.38-0.07-0.57-0.11c0.17,0.15,0.37,0.27,0.57,0.37
		C210.99,28.89,210.99,28.8,211,28.71z"/>
	<path fill="#E5E2DA" d="M426.73,471.41c-0.96,0.01-1.63-0.15-1.61-1.35c0.08-8.59-0.14-17.17,0.13-25.76
		c-0.91,0.49-0.55,1.35-0.55,2.06c-0.02,8.5-0.01,17,0,25.5c5.53,0,11.06,0,16.59,0c-0.02-0.18-0.04-0.35-0.06-0.53
		C436.39,471.35,431.56,471.37,426.73,471.41z"/>
	<path fill="#CCC6B6" d="M210.9,446.69c0-1.99,0.04-2,2.1-2.02c3.3-0.02,6.6-0.02,9.9-0.03c0,0,0,0,0,0
		c-0.72-0.63-1.6-0.42-2.41-0.42c-3.35-0.03-6.71-0.01-10.06-0.01c0,9.06,0,18.12,0,27.19c0.17-0.02,0.34-0.04,0.51-0.07
		C210.92,463.12,210.9,454.91,210.9,446.69z"/>
	<path fill="#798C8B" d="M210.42,366.34c0,12.44,0,24.88,0,37.32c0.16-0.02,0.33-0.04,0.49-0.06c-0.01-12.31-0.01-24.63-0.02-36.94
		C210.73,366.57,210.57,366.47,210.42,366.34z"/>
	<path fill="#798C8B" d="M210.89,366.36L210.89,366.36c-0.16-0.01-0.31-0.01-0.47-0.01c0.15,0.12,0.3,0.23,0.47,0.32
		C210.89,366.56,210.89,366.46,210.89,366.36z"/>
	<path fill="#E7E5DD" d="M656.06,448.93c-0.03,6.83-0.01,13.66-0.02,20.5c0,1.8-0.03,1.8-1.87,1.96c0,0.16,0,0.31,0,0.47
		c0.77,0,1.54,0,2.3,0c0.01-8.43,0.01-16.87,0.02-25.3C655.71,447.23,656.07,448.14,656.06,448.93z"/>
	<path fill="#E7E5DD" d="M758.27,469.43c-0.01-6.83,0.01-13.67-0.02-20.5c0-0.8,0.35-1.7-0.43-2.38c0,0,0,0,0,0
		c0.01,8.44,0.01,16.87,0.02,25.31c0.77,0,1.54,0,2.3,0c0-0.16,0-0.31,0-0.47C758.3,471.23,758.28,471.23,758.27,469.43z"/>
	<path fill="#E5E2DA" d="M813.6,471.86c-0.03-0.18-0.06-0.37-0.09-0.55c-5.64,0.18-11.28,0.11-16.92,0.04
		c-0.01,0.17-0.03,0.34-0.04,0.52C802.23,471.86,807.92,471.86,813.6,471.86z"/>
	<path fill="#E5E2DA" d="M292.03,471.34c-0.01,0.17-0.03,0.34-0.04,0.52c5.68,0,11.37,0,17.05,0c-0.02-0.18-0.05-0.36-0.07-0.54
		C303.32,471.33,297.67,471.33,292.03,471.34z"/>
	<path fill="#E5E2DA" d="M531.6,471.86c5.68,0,11.37,0,17.05,0c-0.01-0.17-0.02-0.33-0.03-0.5c-5.64-0.02-11.29-0.04-16.93-0.06
		C531.65,471.49,531.62,471.67,531.6,471.86z"/>
	<path fill="#E9E6DF" d="M599.8,471.39c0,0.16,0,0.31,0,0.47c1.54,0,3.07,0,4.61,0c0-0.15,0-0.3,0-0.46
		C602.87,471.4,601.33,471.39,599.8,471.39L599.8,471.39z"/>
	<path fill="#E5E2DA" d="M228.45,470.45C228.45,470.45,228.45,470.45,228.45,470.45L228.45,470.45c-0.14,1.13-0.94,0.94-1.65,0.93
		c-0.06,0.17-0.14,0.33-0.25,0.47c0.77,0,1.54,0,2.3,0C228.84,471.36,228.93,470.82,228.45,470.45z"/>
	<path fill="#E5E2DA" d="M226.55,471.4c0,0.15,0,0.31,0,0.46c0.11-0.15,0.19-0.31,0.25-0.47
		C226.72,471.39,226.63,471.39,226.55,471.4z"/>
	<path fill="#E8E5DD" d="M381.48,470.91C381.48,470.91,381.48,470.91,381.48,470.91c-0.6,0.72-1.35,0.5-2.08,0.4
		c-0.09,0.2-0.19,0.38-0.33,0.55c0.92,0,1.84,0,2.76,0C381.82,471.5,381.8,471.15,381.48,470.91L381.48,470.91z"/>
	<path fill="#E8E5DD" d="M379.17,471.29c-0.03,0.19-0.07,0.38-0.1,0.57c0.14-0.17,0.24-0.35,0.33-0.55
		C379.32,471.3,379.25,471.29,379.17,471.29z"/>
	<path fill="#E8E5DE" d="M211.04,471.33c-0.16,0.15-0.37,0.18-0.61,0.07c0.08,0.14-0.19,0.45,0.18,0.46c0.86,0.01,1.72,0,2.58,0
		c-0.14-0.17-0.26-0.36-0.36-0.55C212.23,471.32,211.63,471.32,211.04,471.33z"/>
	<path fill="#E8E5DE" d="M212.82,471.31c0.1,0.19,0.22,0.38,0.36,0.55c-0.03-0.19-0.05-0.37-0.08-0.56
		C213.01,471.3,212.92,471.31,212.82,471.31z"/>
	<path fill="#E8E5DE" d="M211.04,471.33c-0.03,0-0.07,0-0.1,0c0,0,0,0,0,0c-0.17,0.02-0.34,0.04-0.51,0.07
		C210.67,471.51,210.87,471.48,211.04,471.33z"/>
	<path fill="#E7E4DD" d="M358.9,471.29c-0.03,0.19-0.07,0.38-0.1,0.57c0.77,0,1.54,0,2.3,0c-0.13-0.15-0.21-0.33-0.28-0.51
		C360.18,471.33,359.54,471.31,358.9,471.29z"/>
	<path fill="#E7E4DD" d="M360.83,471.35c0.07,0.18,0.15,0.36,0.28,0.51c-0.01-0.17-0.02-0.33-0.03-0.5
		C360.99,471.35,360.91,471.35,360.83,471.35z"/>
	<path fill="#365352" d="M472.09,84.71c-0.61,0.07-1.23,0.01-1.84,0.01c-35.24,0-70.49,0-105.73,0c-0.54,0-1.08,0.01-1.61,0
		c-1.8-0.03-1.83-0.03-1.84-1.73c-0.02-5.14-0.02-10.29,0-15.43c0.01-1.57,0.04-1.6,1.7-1.6c4.15-0.02,8.29-0.01,12.44-0.01
		c32.02,0,64.04,0,96.06,0c2.61,0,2.34,0.29,2.34-2.32c0.01-8.37,0.01-16.74,0-25.11c-0.01-3.3-0.06-6.6-0.09-9.9
		c-1.27,1.03-2.78,0.72-4.21,0.72c-26.71,0.02-53.43,0.01-80.14,0.01c-20.57,0-41.14,0.01-61.72-0.01c-1.35,0-2.79,0.29-4-0.65
		c-0.02,0.69-0.05,1.38-0.05,2.07c0,123.47,0,246.93,0,370.4c0,2.83-0.37,2.57,2.59,2.57c48.38,0,96.75,0,145.13,0
		c0.46,0,0.92-0.03,1.38,0c0.75,0.04,1.17-0.21,1.12-1.03c-0.03-0.54,0-1.07,0-1.61c0-10.75,0.01-21.5-0.01-32.25
		c0-3.01,0.37-2.64-2.74-2.64c-35.55-0.01-71.1-0.01-106.66-0.01c-0.69,0-1.38-0.02-2.07,0c-0.79,0.02-1.11-0.37-1.07-1.12
		c0.02-0.38,0-0.77,0-1.15c0-77.78,0-155.56,0-233.34c0-2.57-0.1-2.04,2.04-2.93c20.53-8.52,41.08-17.01,61.6-25.57
		c1.48-0.62,2.66-0.55,4.11,0.05c14.07,5.89,28.17,11.71,42.27,17.53c0.75,0.31,1.46,0.87,2.39,0.7c0.04-0.23,0.12-0.45,0.12-0.68
		c0.01-11.13-0.01-22.27,0.03-33.4C473.63,85.13,473.34,84.57,472.09,84.71z"/>
	<path fill="#365352" d="M327.45,29.34c20.57,0.02,41.14,0.01,61.72,0.01c26.71,0,53.43,0.01,80.14-0.01c1.43,0,2.94,0.31,4.21-0.72
		c-0.38-0.01-0.77-0.01-1.15-0.01c-48.87,0-97.75,0-146.62,0c-0.77,0-1.53,0.06-2.3,0.09C324.67,29.63,326.1,29.34,327.45,29.34z"/>
	<path fill="#365352" d="M808.83,84.73c-29.57-0.01-59.14,0-88.7,0c-0.54,0-1.08,0.01-1.61,0.01c-0.54,0-0.87,0.23-0.88,0.81
		c-0.01,0.46-0.02,0.92-0.02,1.38c0,29.8,0,59.59,0,89.39c0,2.38-0.15,2.23,2.25,2.24c0.31,0,0.61,0,0.92,0c16.67,0,33.33,0,50,0
		c3.68,0,3.09-0.26,3.09,3.02c0.01,60.51,0.01,121.03,0.01,181.54c0,0.46,0.01,0.92,0,1.38c-0.04,1.63-0.05,1.68-1.67,1.69
		c-4.68,0.02-9.37,0.02-14.05,0c-3.57-0.01-3.05,0.33-3.05-3.07c-0.01-54.22-0.01-108.43-0.01-162.65c0-0.61-0.04-1.23,0.01-1.84
		c0.07-0.94-0.22-1.47-1.27-1.37c-0.46,0.05-0.92,0.01-1.38,0.01c-10.75,0-21.5-0.01-32.26,0.01c-2.85,0-2.59-0.4-2.59,2.56
		c0,67.12,0,134.24,0,201.35c0,2.89-0.31,2.54,2.61,2.54c29.41,0.01,58.83,0.01,88.24,0c2.95,0,2.95,0,2.95-2.89
		c0-42.77,0-85.55,0-128.32s0-85.55,0-128.32c0-0.54-0.04-1.08,0.01-1.61c0.09-1.11-0.2-1.79-1.5-1.61
		c-0.45,0.06-0.92,0.01-1.38,0.01c-8.83,0-17.66,0-26.5,0c-8.37,0-16.74,0.01-25.11-0.01c-1.79,0-1.82-0.03-1.82-1.74
		c-0.02-5.15,0.02-10.29-0.02-15.44c-0.01-1.14,0.27-1.76,1.53-1.61c0.53,0.06,1.07,0.01,1.61,0.01c16.74,0,33.48,0,50.23,0
		c0.61,0,1.23-0.03,1.84,0c0.75,0.04,1.17-0.22,1.12-1.04c-0.03-0.46,0-0.92,0-1.38c0-10.83,0.01-21.66,0-32.48
		C811.42,84.4,811.71,84.73,808.83,84.73z"/>
	<path fill="#365352" d="M641.1,84.7c-11.52,0.04-23.03,0.01-34.55,0.03c-1.57,0-1.57,0.05-1.61,1.72c-0.01,0.54,0,1.07,0,1.61
		c0,25.72,0,51.43,0,77.15c0,1-0.07,1.99-0.1,2.99c0.12,0.3,0.1,0.72-0.16,0.73c-0.24,0.01-0.27-0.45-0.19-0.74
		c-0.63-2.84-1.28-5.68-1.9-8.53c-5.27-24.27-10.54-48.54-15.82-72.81c-0.46-2.12-0.48-2.13-2.66-2.13c-10.82,0-21.65-0.01-32.47,0
		c-3.44,0.01-2.97-0.39-2.97,2.88c-0.01,85.67-0.01,171.34-0.01,257.01c0,0.54,0.03,1.08,0,1.61c-0.06,0.88,0.3,1.27,1.2,1.21
		c0.53-0.04,1.07,0,1.61,0c10.67,0,21.34,0.01,32.01-0.01c3.17,0,2.83,0.43,2.83-2.8c0.01-25.79,0-51.59,0.01-77.38
		c0-0.92,0.06-1.84,0.09-2.76c-0.12-0.36-0.21-0.98,0.12-0.98c0.01,0,0.02,0,0.03,0c0-0.01,0-0.01-0.01-0.02
		c0.01,0.01,0.01,0.01,0.01,0.02c0.54,0.03,0.29,0.63,0.3,1c0.13,0.44,0.28,0.88,0.38,1.33c4.98,22.92,9.95,45.84,14.92,68.77
		c0.83,3.82,1.71,7.63,2.51,11.46c0.2,0.99,0.55,1.54,1.65,1.38c0.45-0.06,0.92-0.01,1.38-0.01c10.67,0,21.34,0.01,32.01-0.01
		c3.36-0.01,2.9,0.45,2.9-2.95c0.01-85.6,0.01-171.19,0.01-256.79c0-0.46-0.04-0.93,0.01-1.38C642.74,85.17,642.34,84.7,641.1,84.7z
		"/>
	<path fill="#365352" d="M301.67,29.34c-29.32,0.02-58.64,0.01-87.96,0.01c-0.83,0-1.66,0.03-2.46-0.24
		c0.45,0.83,0.37,1.78,0.37,2.7c0.02,29,0.01,58,0,87c0,0.97,0.11,1.98-0.4,2.86c1.04-0.34,2.12-0.26,3.19-0.26
		c16.2-0.01,32.4-0.01,48.6,0c0.31,0,0.61,0,0.92,0c3.39,0.06,3.84,0.51,3.91,3.88c0.01,0.69,0.01,1.38,0.01,2.07
		c0,77.93,0,155.86,0,233.79c0,5.96,0,5.96-5.99,5.96c-15.66,0-31.33,0-46.99-0.01c-1.22,0-2.45,0.12-3.65-0.25
		c0.43,0.78,0.39,1.69,0.4,2.56c0.02,10.39,0.02,20.78,0,31.17c0,1.06,0.11,2.16-0.7,3.04c0.92,0.04,1.84,0.12,2.75,0.12
		c29.4,0.01,58.81,0.01,88.21,0c3.42,0,2.93,0.38,2.93-2.92c0.01-104.33,0.01-208.66,0.01-312.99c0-0.46,0.01-0.92,0-1.38
		c-0.04-1.65-0.04-1.68-1.63-1.7c-2.23-0.03-4.45-0.01-6.68-0.01c-15.12,0-30.25,0-45.37,0c-2.74,0-2.67,0.35-2.67-2.55
		c0-3.07,0-6.14,0-9.21c0-1.92,0.02-3.84,0-5.76c-0.01-0.83,0.24-1.32,1.17-1.25c0.53,0.04,1.07,0,1.61,0c10.67,0,21.34,0,32.01,0
		c6.6,0,13.21,0.01,19.81-0.01c1.7,0,1.75-0.03,1.75-1.56c-0.01-11.9-0.03-23.8-0.05-35.7C303.84,29.46,302.73,29.34,301.67,29.34z"
		/>
	<path fill="#365352" d="M213.66,122.2c16.89,0.01,33.78,0,50.67,0.01c3.17,0,2.8-0.42,2.8,2.82c0.01,79.45,0,158.9,0,238.35
		c0,0.54-0.03,1.08,0,1.61c0.06,0.9-0.36,1.25-1.23,1.21c-0.61-0.03-1.23,0-1.84,0c-16.81,0-33.62,0-50.44,0.01
		c-0.92,0-1.84-0.12-2.75,0.16v0c0.14,0.15,0.24,0.31,0.33,0.48c1.2,0.37,2.43,0.25,3.65,0.25c15.66,0.01,31.33,0.01,46.99,0.01
		c5.98,0,5.99,0,5.99-5.96c0-77.93,0-155.86,0-233.79c0-0.69,0.01-1.38-0.01-2.07c-0.07-3.37-0.52-3.82-3.91-3.88
		c-0.31-0.01-0.61,0-0.92,0c-16.2,0-32.4,0-48.6,0c-1.07,0-2.15-0.09-3.19,0.26c-0.09,0.15-0.18,0.29-0.31,0.43
		C211.83,122.12,212.75,122.2,213.66,122.2z"/>
	<path fill="#365352" d="M213.52,28.61c-0.84,0-1.68,0.07-2.53,0.1c0,0,0,0,0,0l0,0c0.1,0.13,0.19,0.26,0.26,0.39
		c0.8,0.26,1.63,0.24,2.46,0.24c29.32,0.01,58.64,0.01,87.96-0.01c1.06,0,2.17,0.12,3.08-0.64c-0.84-0.03-1.69-0.09-2.53-0.09
		C272.66,28.6,243.09,28.6,213.52,28.61z"/>
	<path fill="#365352" d="M210.99,28.98c-0.02,0.91-0.06,1.81-0.06,2.72c-0.01,30.04-0.01,60.07-0.02,90.11
		c0.1-0.06,0.2-0.11,0.3-0.16c0,0,0,0,0.01,0c0.51-0.87,0.4-1.89,0.4-2.86c0.02-29,0.02-58,0-87c0-0.91,0.09-1.86-0.37-2.7
		c-0.02-0.01-0.03-0.01-0.05-0.01C211.13,29.06,211.06,29.02,210.99,28.98z"/>
	<path fill="#365352" d="M210.91,121.81c0,0.09,0,0.18,0,0.27c0.12-0.14,0.22-0.28,0.31-0.43c0,0,0,0-0.01,0
		C211.11,121.7,211.01,121.76,210.91,121.81z"/>
	<path fill="#365352" d="M211.21,29.09c0.02,0.01,0.03,0.01,0.05,0.01c-0.07-0.13-0.16-0.26-0.26-0.39l0,0
		c0,0.09-0.01,0.18-0.01,0.26C211.06,29.02,211.13,29.06,211.21,29.09z"/>
	<path fill="#365352" d="M211.62,400.57c0.02-10.39,0.02-20.78,0-31.17c0-0.88,0.04-1.78-0.4-2.56c0,0-0.01,0-0.01,0
		c-0.11-0.05-0.22-0.11-0.32-0.17c0.01,12.31,0.01,24.63,0.02,36.94C211.72,402.73,211.61,401.62,211.62,400.57z"/>
	<path fill="#365352" d="M210.89,366.67c0.1,0.06,0.21,0.12,0.32,0.17c0,0,0.01,0,0.01,0c-0.09-0.16-0.19-0.33-0.33-0.48
		C210.89,366.46,210.89,366.56,210.89,366.67z"/>
	<path fill="#365352" d="M698.86,69.36c0-0.54-0.01-1.08,0-1.61c0.03-1.76,0.03-1.76,1.75-1.79c0.54-0.01,1.07,0,1.61,0
		c35.4,0,70.79,0,106.19,0c0.69,0,1.38-0.02,2.07,0c0.69,0.02,0.96-0.31,0.94-0.98c-0.02-0.46,0-0.92,0-1.38
		c0-10.98,0-21.96-0.01-32.94c0-0.69-0.08-1.37-0.12-2.06c-0.67,0.61-1.51,0.71-2.36,0.74c-0.84,0.03-1.69,0.02-2.53,0.02
		c-65.57,0-131.15,0-196.72-0.02c-1.58,0-3.24,0.39-4.69-0.64c-0.02,11.9-0.02,23.8-0.08,35.7c-0.01,1.19,0.33,1.71,1.55,1.57
		c0.45-0.05,0.92-0.01,1.38-0.01c16.74,0,33.48,0,50.22,0c3.15,0,3.15,0,3.15,3.16c0,110.48,0,220.97,0,331.45
		c0,0.69,0.02,1.38,0,2.07c-0.03,0.78,0.32,1.12,1.09,1.1c0.54-0.02,1.07,0,1.61,0c10.6,0,21.19,0,31.79,0c3.16,0,3.16,0,3.16-3.15
		C698.86,290.17,698.86,179.77,698.86,69.36z"/>
	<path fill="#365352" d="M609.69,29.34c65.57,0.02,131.15,0.02,196.72,0.02c0.84,0,1.69,0.01,2.53-0.02
		c0.85-0.03,1.69-0.13,2.36-0.74c-67.7,0-135.39,0.01-203.09,0.01c-1.07,0-2.15,0.06-3.22,0.09
		C606.44,29.73,608.11,29.34,609.69,29.34z"/>
	<path fill="#365352" d="M641.24,366.19c-0.54,0.03-1.07,0-1.61,0c-8.45,0-16.89,0-25.34,0c-27.34,0-54.67,0-82.01,0
		c-2.26,0-2.26-0.01-2.28-2.26c0-0.15,0-0.31,0-0.46c0-98.28,0-196.57,0-294.85c0-0.54,0.02-1.08,0.01-1.61
		c-0.03-0.79,0.36-1.1,1.12-1.06c0.54,0.03,1.07,0,1.61,0c10.21,0,20.43,0.01,30.64,0c7.52-0.01,15.05-0.03,22.57-0.05c0,0,0,0,0,0
		c-0.94-1.11-0.71-2.47-0.71-3.75c-0.02-9.82,0-19.64-0.02-29.45c0-3.22-0.12-3.34-3.39-3.34c-28.38-0.01-56.76,0-85.15-0.02
		c-1.42,0-2.94,0.33-4.21-0.69c-0.03,0.77-0.08,1.53-0.08,2.3c0,123.39,0,246.78,0,370.18c0,2.9-0.38,2.61,2.53,2.61
		c48.38,0.01,96.75,0,145.13,0c0.54,0,1.08-0.01,1.61-0.01c0.68,0.01,0.96-0.34,0.94-0.99c-0.02-0.46,0-0.92,0-1.38
		c0-10.9,0-21.81,0-32.71c0-0.38-0.03-0.77,0-1.15C642.71,366.45,642.18,366.13,641.24,366.19z"/>
	<path fill="#365352" d="M496.68,29.33c28.38,0.02,56.76,0.01,85.15,0.02c3.27,0,3.38,0.12,3.39,3.34
		c0.01,9.82-0.01,19.64,0.02,29.45c0,1.28-0.23,2.63,0.71,3.75c0.02-0.77,0.06-1.53,0.06-2.3c0-10.74,0.01-21.47,0-32.21
		c0-3.11,0.26-2.78-2.89-2.78c-24.85-0.01-49.7-0.01-74.55,0c-5.37,0-10.74,0.02-16.11,0.04C493.74,29.66,495.26,29.33,496.68,29.33
		z"/>
	<path fill="#365352" d="M381.01,347.45c0.46-0.03,0.92,0,1.38,0c29.56,0,59.12,0,88.68,0c0.46,0,0.92-0.04,1.38,0
		c0.93,0.08,1.23-0.38,1.17-1.23c-0.03-0.38,0-0.77,0-1.15c0-67.33,0-134.66,0-201.99c0-2.64,0.06-2.1-2.02-2.94
		c-14.29-5.75-28.6-11.46-42.87-17.26c-1.47-0.6-2.66-0.61-4.12-0.02c-13.42,5.47-26.86,10.86-40.29,16.28
		c-1.14,0.46-2.26,0.97-3.42,1.36c-0.89,0.29-1.2,0.84-1.15,1.72c0.04,0.61,0,1.23,0,1.84c0,33.4,0,66.79,0,100.19
		c0,33.32,0,66.64,0,99.96c0,0.69,0.03,1.38,0,2.07C379.71,347.19,380.15,347.52,381.01,347.45z M419.55,165.2
		c2.39-1.02,4.83-1.93,7.25-2.89c2.34,0.95,4.7,1.88,7.02,2.87c2.62,1.12,2.25,0.61,2.25,3.27c0.01,46.29,0.01,92.58,0.01,138.88
		c0,2.54-0.01,2.54-2.45,2.54c-4.68,0-9.37,0.01-14.05,0c-2.21,0-2.22-0.02-2.22-2.28c0-17.89,0-35.77,0-53.66
		c0-5.3,0-10.59,0-15.89c0-23.18-0.01-46.37,0.01-69.55C417.37,165.7,416.95,166.3,419.55,165.2z"/>
	<path fill="#B4AA92" d="M214.34,445.4c-2.51,0.04-2.71,0.22-2.72,2.81c-0.03,6.52,0,13.05-0.02,19.57c0,1.14,0.13,2.31-0.43,3.39
		c0,0,0,0-0.01,0.01c0.52-0.31,1.04-0.35,1.56-0.11c-0.47-3.49-0.19-6.99-0.17-10.48c0.01-1.48,0.84-2.23,2.31-2.28
		c2.29-0.08,4.6-0.19,6.88,0.05c2.98,0.31,4.65,2.13,4.96,5.37c0.23,2.44,0.07,4.89,0.2,7.34c0,0.02-0.01,0.03-0.02,0.05
		c0.46-0.34,1.01-0.5,1.56-0.67c-0.02-1.61-0.1-3.22-0.06-4.83c0.07-3.28-0.54-6.21-3.94-7.8c3.47-2.01,4.86-4.48,4.29-7.54
		c-0.51-2.77-2.28-5.12-5.83-5.63l0,0c-0.78,0.83-1.82,0.71-2.8,0.74C218.18,445.43,216.26,445.37,214.34,445.4z M226.1,453.63
		c-0.72,1.86-2.21,2.81-4.05,2.95c-2.59,0.21-5.21,0.11-7.81,0.15c-0.78,0.01-1.09-0.4-1.09-1.14c0.01-1.3,0-2.61,0-3.91
		c0,0-0.01,0-0.01,0c0-1.23,0.03-2.45-0.01-3.68c-0.04-1.02,0.25-1.58,1.4-1.55c2.37,0.06,4.76-0.08,7.12,0.09
		C225.46,446.81,227.45,450.12,226.1,453.63z"/>
	<path fill="#B4AA92" d="M226.9,471.07c-0.14-2.44,0.03-4.9-0.2-7.34c-0.3-3.24-1.97-5.06-4.96-5.37c-2.28-0.24-4.58-0.13-6.88-0.05
		c-1.47,0.05-2.3,0.8-2.31,2.28c-0.03,3.5-0.3,7,0.17,10.48c0.13,0.06,0.26,0.13,0.39,0.23c0.01-0.92,0.03-1.84,0.03-2.76
		c0-2.69,0.04-5.37-0.01-8.06c-0.02-1.18,0.4-1.64,1.6-1.61c2.15,0.07,4.3-0.02,6.44,0.07c3.06,0.13,4.64,1.65,4.88,4.69
		c0.11,1.37,0.01,2.76,0.05,4.14c0.03,1.22-0.17,2.47,0.46,3.61c0.1-0.11,0.21-0.19,0.33-0.28
		C226.88,471.1,226.89,471.09,226.9,471.07z"/>
	<path fill="#B4AA92" d="M210.9,446.69c0,8.21,0.02,16.42,0.03,24.64c0,0,0,0,0,0c0.08-0.06,0.15-0.1,0.23-0.15c0,0,0,0,0.01-0.01
		c0.56-1.08,0.43-2.25,0.43-3.39c0.02-6.52-0.01-13.05,0.02-19.57c0.01-2.59,0.21-2.77,2.72-2.81c1.92-0.03,3.84,0.02,5.76-0.02
		c0.98-0.02,2.02,0.09,2.8-0.74c-3.3,0.01-6.6,0-9.9,0.03C210.94,444.69,210.9,444.71,210.9,446.69z"/>
	<path fill="#B4AA92" d="M226.8,471.39c0.7,0,1.51,0.2,1.65-0.93l0,0c-0.55,0.16-1.1,0.33-1.56,0.67
		C226.86,471.21,226.83,471.3,226.8,471.39z"/>
	<path fill="#B4AA92" d="M226.55,471.4c0.08-0.01,0.16-0.01,0.25-0.01c0.03-0.09,0.06-0.18,0.08-0.27
		C226.77,471.2,226.65,471.29,226.55,471.4z"/>
	<path fill="#B4AA92" d="M212.72,471.07c-0.52-0.25-1.04-0.2-1.56,0.11c-0.04,0.06-0.08,0.11-0.13,0.15
		c0.6-0.01,1.19-0.02,1.79-0.02c-0.03-0.06-0.07-0.12-0.1-0.18C212.72,471.11,212.72,471.09,212.72,471.07z"/>
	<path fill="#B4AA92" d="M212.73,471.12c0.03,0.06,0.07,0.12,0.1,0.18c0.09,0,0.19,0,0.28,0c-0.13-0.1-0.26-0.17-0.39-0.23
		C212.72,471.09,212.72,471.11,212.73,471.12z"/>
	<path fill="#B4AA92" d="M210.93,471.33C210.93,471.33,210.93,471.33,210.93,471.33C210.93,471.33,210.93,471.33,210.93,471.33
		c0.03,0,0.07,0,0.1,0c0.04-0.04,0.09-0.09,0.13-0.15C211.08,471.23,211.01,471.27,210.93,471.33z"/>
	<path fill="#B4AA92" d="M547.2,469.52c-3.91-0.01-7.83-0.04-11.74,0.01c-1.19,0.01-1.63-0.41-1.6-1.6c0.06-2.76,0.06-5.52,0-8.28
		c-0.03-1.23,0.49-1.58,1.64-1.56c3.37,0.05,6.75,0.04,10.13-0.01c0.73-0.01,1.92,0.48,2-0.84c0.09-1.55-1.24-1.02-2.02-1.03
		c-3.37-0.06-6.75-0.06-10.13-0.01c-1.17,0.02-1.65-0.37-1.62-1.58c0.07-2.22,0.05-4.45,0.01-6.67c-0.02-1.07,0.37-1.52,1.47-1.5
		c2.61,0.04,5.22,0.01,7.82,0.01c1.3,0,2.61,0.04,3.91-0.02c0.97-0.04,1.4-0.69,1.13-1.5c-0.27-0.8-0.95-0.65-1.53-0.65
		c-4.45-0.01-8.9-0.02-13.35,0c-1.62,0.01-1.67,0.06-1.67,1.71c0,8.44,0.02,16.88,0.03,25.31c0,0,0,0,0,0c0,0,0,0,0,0
		c5.65-1,11.29-1.1,16.93,0.06C548.78,469.55,548.78,469.53,547.2,469.52z"/>
	<path fill="#B4AA92" d="M531.68,471.3C531.68,471.3,531.68,471.3,531.68,471.3c5.64,0.02,11.29,0.04,16.93,0.06
		C542.98,470.2,537.33,470.3,531.68,471.3z"/>
	<path fill="#B4AA92" d="M294.17,470.69c4.21-0.05,8.42-0.05,12.63,0c0.77,0.01,1.54,0.06,2.15,0.62c-0.03-1.74-0.03-1.78-1.44-1.79
		c-3.84-0.03-7.67,0.01-11.51-0.02c-1.74-0.01-1.77-0.05-1.79-1.83c-0.03-2.53-0.02-5.06,0-7.59c0.02-1.95,0.04-1.97,2.12-1.98
		c3.14-0.02,6.29,0.04,9.43-0.03c0.78-0.02,2.12,0.61,2.18-0.88c0.07-1.53-1.28-0.86-2.06-1c-0.45-0.08-0.92-0.01-1.38-0.01
		c-2.76,0-5.52,0.01-8.28-0.01c-1.98-0.01-1.99-0.03-2.01-2.08c-0.02-1.53-0.01-3.07,0-4.6c0.02-3.39-0.29-3.02,3.13-3.04
		c3.3-0.01,6.6,0.02,9.89-0.02c1.14-0.01,1.61-0.66,1.29-1.55c-0.29-0.8-0.98-0.6-1.56-0.61c-4.45-0.02-8.9-0.03-13.35,0
		c-1.58,0.01-1.63,0.06-1.63,1.75c0,8.44,0.02,16.87,0.04,25.31h0c0,0,0,0,0,0C292.64,470.78,293.41,470.7,294.17,470.69z"/>
	<path fill="#B4AA92" d="M306.81,470.69c-4.21-0.05-8.42-0.05-12.63,0c-0.77,0.01-1.54,0.08-2.15,0.65c0,0,0,0,0,0
		c5.64-0.01,11.29-0.02,16.93-0.03C308.35,470.75,307.57,470.7,306.81,470.69z"/>
	<path fill="#B4AA92" d="M798.74,470.69c4.21-0.05,8.41-0.05,12.62,0c0.76,0.01,1.54,0.05,2.16,0.61c-0.07-1.75-0.07-1.78-1.7-1.78
		c-3.76-0.02-7.52,0.01-11.27-0.02c-1.67-0.01-1.73-0.07-1.75-1.64c-0.04-2.68-0.03-5.37,0-8.05c0.02-1.63,0.06-1.69,1.69-1.7
		c3.3-0.03,6.6,0.03,9.89-0.04c0.76-0.02,2.14,0.6,2.07-0.94c-0.06-1.41-1.37-0.92-2.19-0.93c-3.3-0.05-6.6-0.06-9.89,0
		c-1.19,0.02-1.63-0.42-1.6-1.6c0.06-2.22,0.05-4.45,0.01-6.67c-0.02-1.09,0.42-1.54,1.5-1.47c0.61,0.04,1.23,0,1.84,0
		c3.22,0,6.44,0.02,9.66-0.01c1.15-0.01,1.62-0.64,1.31-1.54c-0.28-0.8-0.97-0.62-1.55-0.62c-4.45-0.01-8.9-0.03-13.35,0
		c-1.58,0.01-1.63,0.06-1.63,1.75c0,8.44,0.02,16.87,0.04,25.31c0,0,0,0,0,0c0,0,0,0,0,0C797.2,470.78,797.97,470.7,798.74,470.69z"
		/>
	<path fill="#B4AA92" d="M813.52,471.31c-0.62-0.56-1.39-0.6-2.16-0.61c-4.21-0.04-8.41-0.05-12.62,0
		c-0.77,0.01-1.54,0.08-2.14,0.65c0,0,0,0,0,0C802.24,471.41,807.88,471.48,813.52,471.31z"/>
	<path fill="#B4A992" d="M607.03,457.32c-1.45-0.72-2.99-1.19-4.56-1.58c-1.57-0.38-3.06-0.94-4.55-1.58
		c-2.59-1.1-2.59-6.24-0.02-7.59c3.29-1.73,9.05-1.13,10.26,2.83c0.42,1.37,1.32,1.48,2.54,1c-0.42-3.1-2.13-5.08-4.95-6.13
		c-2.07-0.77-4.23-0.77-6.36-0.33c-3.49,0.72-5.72,3.01-5.86,6.17c-0.11,2.5,0.75,5.16,4.96,6.63c1.44,0.5,2.93,0.89,4.39,1.34
		c1.69,0.53,3.38,1.05,4.68,2.35c1.97,1.97,1.97,5.72-0.08,7.46c-2.86,2.43-10.03,2.66-12.2-2.18c-0.16-0.35-0.33-0.69-0.48-1.05
		c-0.41-0.97-1.25-0.89-1.94-0.59c-0.7,0.3-0.2,0.94-0.06,1.41c0.78,2.72,2.57,4.48,5.22,5.38c0.58,0.2,1.17,0.35,1.76,0.52
		c0,0,0,0,0,0c1.54-0.96,3.07-0.97,4.61,0.01c0.44-0.14,0.87-0.3,1.31-0.43c3.34-0.93,5.33-3.14,5.59-6.23
		C611.59,461.29,610.25,458.93,607.03,457.32z"/>
	<path fill="#B4A992" d="M599.8,471.39C599.8,471.39,599.8,471.39,599.8,471.39L599.8,471.39c1.54,0,3.07,0.01,4.61,0.01
		C602.87,470.42,601.34,470.43,599.8,471.39z"/>
	<path fill="#B4AA92" d="M360.76,471.14c0.49-2.89,1.8-5.49,2.84-8.19c0.41-1.06,1.38-1.36,2.44-1.38c2.75-0.06,5.5-0.07,8.25,0.01
		c0.96,0.03,1.94,0.25,2.32,1.19c1.12,2.71,2.55,5.32,2.84,8.32c0.63-0.35,1.33-0.26,2.03-0.19c-1.77-4.66-3.54-9.32-5.32-13.97
		c-1.45-3.79-2.92-7.59-4.4-11.37c-0.47-1.19-1.45-1.62-2.51-1.21c-0.77,0.3-0.88,1.04-1.11,1.66c-3.09,8.42-6.16,16.85-9.24,25.27
		c0,0,0,0,0,0c0,0,0,0,0,0C359.53,470.96,360.15,470.81,360.76,471.14z M365.67,458.87c1.41-3.87,2.78-7.75,4.16-11.62
		c0.14,0.03,0.28,0.06,0.42,0.09c1.46,3.86,2.93,7.71,4.37,11.57c0.41,1.09,0.25,1.31-1.01,1.33c-2.3,0.04-4.59,0.01-6.89,0.01
		C365.77,460.25,365.28,459.96,365.67,458.87z"/>
	<path fill="#B4AA92" d="M379.45,471.1c-0.29-3-1.72-5.61-2.84-8.32c-0.39-0.94-1.37-1.16-2.32-1.19c-2.75-0.08-5.5-0.07-8.25-0.01
		c-1.06,0.02-2.03,0.33-2.44,1.38c-1.04,2.69-2.35,5.3-2.84,8.19c0.11,0.06,0.21,0.12,0.32,0.21c0.95-2.58,1.92-5.15,2.84-7.75
		c0.34-0.96,0.79-1.52,1.95-1.49c2.9,0.08,5.81,0.05,8.72,0.02c0.89-0.01,1.41,0.32,1.71,1.18c0.93,2.67,1.92,5.31,2.88,7.97
		c0,0,0,0,0,0c0,0,0,0,0,0C379.27,471.21,379.36,471.15,379.45,471.1z"/>
	<path fill="#B4AA92" d="M379.45,471.1c0,0.03,0.01,0.05,0.01,0.08c-0.02,0.05-0.04,0.09-0.06,0.14c0.73,0.1,1.48,0.32,2.08-0.4
		c0,0,0,0,0,0C380.78,470.83,380.08,470.74,379.45,471.1z"/>
	<path fill="#B4AA92" d="M379.45,471.1c-0.09,0.05-0.19,0.11-0.28,0.19c0,0,0,0,0,0c0.07,0.01,0.15,0.02,0.23,0.03
		c0.02-0.05,0.05-0.09,0.06-0.14C379.46,471.14,379.46,471.12,379.45,471.1z"/>
	<path fill="#B4AA92" d="M360.76,471.15C360.76,471.15,360.76,471.15,360.76,471.15c-0.61-0.34-1.23-0.19-1.85,0.14c0,0,0,0,0,0
		c0.64,0.02,1.28,0.04,1.92,0.06C360.8,471.28,360.77,471.22,360.76,471.15z"/>
	<path fill="#B4AA92" d="M360.76,471.15c0.02,0.07,0.05,0.13,0.07,0.2c0.08,0,0.16,0,0.25,0.01
		C360.97,471.27,360.86,471.2,360.76,471.15C360.76,471.15,360.76,471.15,360.76,471.15z"/>
	<path fill="#B4AA92" d="M701.38,469.13c0.79-1.66,1.28-3.44,1.9-5.17c0.6-1.67,1.62-2.45,3.43-2.4c2.37,0.08,4.75,0.05,7.12,0.01
		c1.88-0.03,3.02,0.83,3.6,2.58c0.55,1.67,1.23,3.3,1.85,4.95c0.38,1,0.9,1.91,2.17,0.92c-0.31-0.7-0.66-1.38-0.94-2.09
		c-2.8-7.29-5.58-14.58-8.37-21.88c-0.36-0.94-0.67-1.83-2.01-1.81c-1.26,0.02-1.46,0.84-1.78,1.72
		c-1.91,5.25-3.81,10.51-5.77,15.74c-1.04,2.79-1.89,5.65-3.21,8.33c0,0,0,0,0,0c0,0,0,0,0,0
		C700.57,470.93,700.99,469.96,701.38,469.13z M705.9,458.74c0.38-1.08,0.76-2.17,1.15-3.25c0.97-2.73,1.95-5.46,2.92-8.2
		c0.15-0.01,0.3-0.02,0.45-0.03c1.47,3.93,2.95,7.86,4.42,11.79c0.29,0.79-0.02,1.18-0.83,1.18c-2.37,0.01-4.75,0-7.12,0.01
		C705.77,460.24,705.58,459.66,705.9,458.74z"/>
	<path fill="#B4AA92" d="M700.03,471.44c0.68,0.08,1.21-0.12,1.48-0.8c0.14-0.36,0.25-0.72,0.39-1.08c0.78-2.08,1.59-4.14,2.32-6.24
		c0.3-0.86,0.76-1.2,1.67-1.18c2.91,0.04,5.82,0.04,8.73,0c1-0.02,1.56,0.37,1.88,1.29c0.69,1.95,1.43,3.87,2.16,5.81
		c0.22,0.57,0.4,1.17,0.72,1.69c0.43,0.72,1.23,0.66,1.86,0.47c0.79-0.24,0.07-0.92,0.22-1.37c-1.27,0.99-1.79,0.08-2.17-0.92
		c-0.62-1.65-1.3-3.28-1.85-4.95c-0.58-1.75-1.72-2.61-3.6-2.58c-2.37,0.04-4.75,0.07-7.12-0.01c-1.81-0.06-2.83,0.73-3.43,2.4
		c-0.62,1.73-1.11,3.51-1.9,5.17c-0.4,0.83-0.81,1.81-2.02,0.9c0,0,0,0,0,0C699.4,470.59,699.06,471.32,700.03,471.44z"/>
	<path fill="#B5AB94" d="M663.96,444.27c-0.38,0.01-0.77,0-1.15,0c-5.14,0-10.27,0-15.41,0c-0.54,0-1.07,0-1.61,0.04
		c-0.72,0.05-0.81,0.57-0.8,1.15c0.01,0.51,0.19,0.91,0.76,0.96c0.46,0.04,0.92,0.04,1.38,0.04c1.84,0.01,3.68,0.04,5.52-0.01
		c1.09-0.03,1.55,0.41,1.47,1.49c-0.04,0.61-0.01,1.23,0,1.84c0.02,7.21,0.04,14.41,0.05,21.62c1.29-0.99,1.1-2.43,1.11-3.77
		c0.03-6.09-0.02-12.18,0.05-18.27c0.01-1.02-0.36-2.34,1.16-2.79c0.92-0.03,1.84-0.08,2.75-0.09c1.53-0.02,3.07-0.01,4.6,0
		c0.73,0,1.39-0.04,1.42-1.04C665.29,444.47,664.75,444.25,663.96,444.27z"/>
	<path fill="#B5AB94" d="M655.33,449.35c-0.07,6.09-0.01,12.18-0.05,18.27c-0.01,1.35,0.18,2.79-1.11,3.77
		c1.84-0.16,1.87-0.16,1.87-1.96c0.01-6.83-0.01-13.66,0.02-20.5c0-0.8-0.35-1.7,0.43-2.38
		C654.97,447.01,655.34,448.33,655.33,449.35z"/>
	<path fill="#B5AB94" d="M768.09,444.27c-0.46,0.02-0.92,0-1.38,0c-4.53,0-9.05,0-13.58,0c-0.92,0-1.84,0.01-2.76,0
		c-0.79-0.01-1.34,0.19-1.32,1.14c0.03,1,0.68,1.06,1.42,1.05c0.38,0,0.77,0,1.15,0c2.07,0.03,4.14,0.06,6.21,0.09c0,0,0,0,0,0
		c1.52,0.45,1.15,1.77,1.16,2.79c0.07,6.09,0.01,12.18,0.05,18.27c0.01,1.35-0.17,2.79,1.11,3.77c0.02-7.67,0.03-15.34,0.06-23.01
		c0.01-1.88,0.04-1.9,1.94-1.92c1.99-0.02,3.99-0.01,5.98-0.01c0.69,0,1.19-0.16,1.23-1C769.4,444.53,768.92,444.24,768.09,444.27z"
		/>
	<path fill="#B5AB94" d="M759.03,467.62c-0.03-6.09,0.02-12.18-0.05-18.27c-0.01-1.02,0.36-2.34-1.16-2.79
		c0.78,0.67,0.42,1.58,0.43,2.38c0.03,6.83,0.01,13.67,0.02,20.5c0,1.8,0.03,1.8,1.87,1.96
		C758.86,470.41,759.04,468.97,759.03,467.62z"/>
	<path fill="#B5AB94" d="M425.87,447.6c0.03,6.73-0.01,13.46,0.02,20.18c0.01,2.7,0.18,2.86,2.86,2.88c3.13,0.03,6.27-0.01,9.4,0.02
		c1.06,0.01,2.16-0.13,3.07,0.65c0-1.75,0-1.75-1.41-1.81c-0.46-0.02-0.92,0-1.38,0c-3.14,0-6.27,0.01-9.41,0
		c-1.97-0.01-1.97-0.03-2-2.07c-0.01-0.69,0-1.38,0-2.07c0-6.43,0.01-12.85-0.01-19.28c0-1.63-0.04-1.63-1.77-1.79c0,0,0,0,0,0
		c0,0,0,0,0,0C426.05,445.29,425.86,446.47,425.87,447.6z"/>
	<path fill="#B5AB94" d="M425.12,470.06c-0.01,1.2,0.65,1.36,1.61,1.35c4.83-0.04,9.66-0.06,14.49-0.08
		c-0.9-0.77-2.01-0.64-3.07-0.65c-3.13-0.03-6.27,0.01-9.4-0.02c-2.68-0.02-2.85-0.18-2.86-2.88c-0.03-6.73,0-13.46-0.02-20.18
		c0-1.13,0.18-2.31-0.63-3.3c0,0,0,0,0,0C424.98,452.89,425.2,461.47,425.12,470.06z"/>
	<path fill="#D0DEDD" d="M586.54,263.52c0.18,0.36,0.16,0.69-0.15,0.98c0.15,0.02,0.3,0.03,0.46,0.03
		C586.56,264.25,586.79,263.82,586.54,263.52C586.55,263.53,586.54,263.52,586.54,263.52z"/>
	<path fill="#D0DEDD" d="M586.54,263.52c-0.01,0-0.02,0-0.03,0c-0.33,0-0.23,0.62-0.12,0.98
		C586.7,264.21,586.73,263.88,586.54,263.52z"/>
	<path fill="#D0DEDD" d="M586.55,263.53c0.25,0.29,0.01,0.73,0.3,1C586.83,264.15,587.09,263.56,586.55,263.53z"/>
	<path fill="#D1D1D1" d="M604.83,168.2c-0.12-0.02-0.23-0.03-0.35-0.01c0.13,0.17,0.13,0.38,0.18,0.58
		C604.64,168.56,604.67,168.36,604.83,168.2z"/>
	<path fill="#D1D1D1" d="M604.66,168.93c0.27-0.01,0.28-0.44,0.16-0.73c-0.15,0.16-0.19,0.35-0.17,0.56
		c-0.05-0.19-0.05-0.41-0.18-0.58C604.4,168.49,604.43,168.94,604.66,168.93z"/>
	<path fill="#365352" d="M211.64,143.3c-0.02,67.28-0.01,134.56,0,201.84c0,0.58,0.05,1.16-0.09,1.73c0.03-0.01,0.06-0.02,0.09-0.03
		c1.07-0.19,2.14-0.12,3.22-0.12c9.67-0.01,19.34,0,29.01-0.01c4,0,4.04-0.05,4.06-4.15c0-0.15,0-0.31,0-0.46
		c0-65.24,0-130.47,0-195.71c0-4.61-0.01-4.61-4.52-4.61c-9.52,0-19.03,0-28.55,0c-1.07,0-2.15,0.06-3.22-0.12
		c-0.03-0.01-0.05-0.02-0.08-0.02C211.69,142.17,211.64,142.74,211.64,143.3z"/>
	<path fill="#365352" d="M211.64,141.65c1.07,0.18,2.15,0.12,3.22,0.12c9.52,0.01,19.03,0,28.55,0c4.51,0,4.52,0,4.52,4.61
		c0,65.24,0,130.47,0,195.71c0,0.15,0,0.31,0,0.46c-0.02,4.1-0.05,4.15-4.06,4.15c-9.67,0.01-19.34,0-29.01,0.01
		c-1.07,0-2.15-0.06-3.22,0.12c-0.03,0.01-0.06,0.02-0.09,0.03c-0.04,0.18-0.1,0.36-0.19,0.53c11.36,0.02,22.72,0.04,34.07,0.05
		c3.02,0,3.02,0,3.02-3.08c0-66.77,0-133.53,0-200.3c0-0.46,0.01-0.92,0-1.38c-0.05-1.65-0.05-1.69-1.65-1.69
		c-11.82,0.01-23.64,0.03-35.45,0.05c0,0,0,0,0,0c0.1,0.19,0.17,0.39,0.22,0.59C211.59,141.64,211.61,141.65,211.64,141.65z"/>
	<path fill="#365352" d="M211.64,345.14c-0.01-67.28-0.02-134.56,0-201.84c0-0.56,0.04-1.12-0.08-1.67
		c-0.15-0.04-0.29-0.09-0.43-0.15c-0.31,0.79-0.2,1.65-0.2,2.48c0,17.42,0,34.84,0,52.26c0,49.35,0,98.69,0.01,148.04
		c0,0.92-0.17,1.87,0.21,2.75c0.13-0.06,0.27-0.1,0.41-0.14C211.69,346.3,211.64,345.72,211.64,345.14z"/>
	<path fill="#365352" d="M211.56,141.63c-0.05-0.2-0.11-0.4-0.22-0.59c-0.09,0.14-0.16,0.29-0.21,0.44
		C211.27,141.54,211.41,141.59,211.56,141.63z"/>
	<path fill="#365352" d="M211.15,347c0.06,0.13,0.13,0.26,0.21,0.39c0.09-0.17,0.15-0.35,0.19-0.53
		C211.41,346.9,211.28,346.95,211.15,347z"/>
</g>
</svg>
